<svg width="223" height="65" viewBox="0 0 223 65" fill="none" xmlns="http://www.w3.org/2000/svg">
<mask id="path-1-outside-1_3519_1823" maskUnits="userSpaceOnUse" x="0.748047" y="3.33008" width="222" height="59" fill="black">
<rect fill="white" x="0.748047" y="3.33008" width="222" height="59"/>
<path d="M185.453 5.33008H182.665C181.357 5.33008 180.307 6.31651 180.307 7.53883V10.155H183.094C184.402 10.155 185.453 9.16859 185.453 7.94627V5.33008Z"/>
<path d="M185.453 16.9102H180.307V47.7898H185.453V16.9102Z"/>
<path d="M45.3369 39.3193C43.6214 41.3994 41.1768 42.7075 38.4534 42.7075C33.8857 42.7075 30.0901 39.062 29.2752 34.237H52.821C52.8853 33.6151 52.9282 32.9718 52.9282 32.3285C52.9282 23.8151 46.4306 16.8887 38.4534 16.8887C30.4761 16.8887 23.9785 23.8366 23.9785 32.3499C23.9785 40.8633 30.4761 47.7898 38.4534 47.7898C44.0717 47.7898 48.961 44.3372 51.3628 39.3193H45.3369ZM38.4534 21.9924C42.5921 21.9924 46.1304 25.016 47.3312 29.1762H29.5755C30.7763 25.016 34.3146 21.9924 38.4534 21.9924Z"/>
<path d="M160.041 47.7898C152.064 47.7898 145.566 40.8633 145.566 32.35C145.566 23.8366 152.064 16.9102 160.041 16.9102C168.018 16.9102 174.516 23.8366 174.516 32.35C174.516 40.8633 168.018 47.7898 160.041 47.7898ZM160.041 21.9924C154.895 21.9924 150.713 26.6458 150.713 32.35C150.713 38.0541 154.895 42.7075 160.041 42.7075C165.188 42.7075 169.369 38.0541 169.369 32.35C169.369 26.6458 165.188 21.9924 160.041 21.9924Z"/>
<path d="M218.542 41.3135C218.091 41.4422 217.727 41.5494 217.405 41.6352V27.9324C217.341 24.3297 216.462 21.9494 212.258 19.2046C206.383 15.3661 196.84 16.4597 193.023 21.4133C191.865 22.893 191.286 24.6728 191.243 26.6672L196.39 26.7315C196.411 25.7665 196.669 24.9731 197.162 24.3083C199.135 21.735 205.525 20.7486 209.342 23.2361C211.486 24.63 212.065 25.4663 212.216 26.8816C211.251 27.3105 208.72 28.1039 202.737 28.6615C198.02 29.0903 194.696 30.6772 192.809 33.3792C190.557 36.6173 191.329 40.1984 191.608 41.1634C192.058 43.7153 194.803 47.854 202.33 47.854C202.973 47.854 203.659 47.8326 204.367 47.7682C204.946 47.7253 208.978 47.3608 212.602 44.9805C212.773 45.3022 212.923 45.8383 213.352 46.4816C214.188 47.7468 215.325 47.7682 216.354 47.7682C217.662 47.7682 218.713 46.9105 220.171 45.9669L218.542 41.3135ZM203.981 42.879H203.895C197.741 43.4365 196.797 40.8418 196.669 40.3485V40.2413L196.561 39.9411C196.518 39.7696 195.961 37.6895 197.097 36.0812C198.32 34.3656 201.086 33.7652 203.209 33.5722C207.005 33.2291 210.007 32.7359 212.258 32.0925V38.1827C209.9 42.4501 204.024 42.879 203.981 42.879Z"/>
<path d="M18.5953 16.9102H17.3301C17.2872 16.9102 17.2658 16.9102 17.2229 16.9102C13.6631 16.9102 10.4251 18.2826 7.89466 20.5557V16.9102H2.74805V47.7898H7.89466V32.35C7.89466 26.6458 12.0763 21.9924 17.2229 21.9924C17.2658 21.9924 17.2872 21.9924 17.3301 21.9924H22.0478V21.971L18.5953 16.9102Z"/>
<path d="M82.5208 5.33008V20.5769C79.9904 18.3038 76.7523 16.9314 73.1926 16.9314C65.2154 16.9314 58.7178 23.8579 58.7178 32.3498C58.7178 40.8631 65.2154 47.7681 73.1926 47.7681C76.7523 47.7681 79.9904 46.3957 82.5208 44.1226V47.7681H87.6674V5.33008H82.5208ZM73.1926 42.7288C68.046 42.7288 63.8644 38.0754 63.8644 32.3712C63.8644 26.6671 68.046 22.0137 73.1926 22.0137C78.3392 22.0137 82.5208 26.6671 82.5208 32.3712C82.5208 38.0754 78.3392 42.7288 73.1926 42.7288Z"/>
<path d="M139.778 16.9102H134.631V20.5771C132.101 18.2826 128.863 16.9102 125.303 16.9102C117.326 16.9102 110.828 23.8581 110.828 32.4143C110.828 40.9705 117.326 47.9185 125.303 47.9185C128.863 47.9185 132.101 46.546 134.631 44.2515V47.7469C134.631 47.7684 134.631 50.4918 132.766 52.3574C131.479 53.6441 129.506 54.2874 126.911 54.2874H115.975L110.828 59.3697H126.911C130.964 59.3697 134.181 58.1902 136.475 55.8743C139.713 52.5933 139.778 48.3045 139.778 47.6826V16.9102ZM125.303 42.8147C120.156 42.8147 115.975 38.1399 115.975 32.4143C115.975 26.6887 120.156 22.0139 125.303 22.0139C130.45 22.0139 134.631 26.6673 134.631 32.4143C134.631 38.1399 130.45 42.8147 125.303 42.8147Z"/>
</mask>
<path d="M185.453 5.33008H182.665C181.357 5.33008 180.307 6.31651 180.307 7.53883V10.155H183.094C184.402 10.155 185.453 9.16859 185.453 7.94627V5.33008Z" fill="#1E1E1E"/>
<path d="M185.453 16.9102H180.307V47.7898H185.453V16.9102Z" fill="#1E1E1E"/>
<path d="M45.3369 39.3193C43.6214 41.3994 41.1768 42.7075 38.4534 42.7075C33.8857 42.7075 30.0901 39.062 29.2752 34.237H52.821C52.8853 33.6151 52.9282 32.9718 52.9282 32.3285C52.9282 23.8151 46.4306 16.8887 38.4534 16.8887C30.4761 16.8887 23.9785 23.8366 23.9785 32.3499C23.9785 40.8633 30.4761 47.7898 38.4534 47.7898C44.0717 47.7898 48.961 44.3372 51.3628 39.3193H45.3369ZM38.4534 21.9924C42.5921 21.9924 46.1304 25.016 47.3312 29.1762H29.5755C30.7763 25.016 34.3146 21.9924 38.4534 21.9924Z" fill="#1E1E1E"/>
<path d="M160.041 47.7898C152.064 47.7898 145.566 40.8633 145.566 32.35C145.566 23.8366 152.064 16.9102 160.041 16.9102C168.018 16.9102 174.516 23.8366 174.516 32.35C174.516 40.8633 168.018 47.7898 160.041 47.7898ZM160.041 21.9924C154.895 21.9924 150.713 26.6458 150.713 32.35C150.713 38.0541 154.895 42.7075 160.041 42.7075C165.188 42.7075 169.369 38.0541 169.369 32.35C169.369 26.6458 165.188 21.9924 160.041 21.9924Z" fill="#1E1E1E"/>
<path d="M218.542 41.3135C218.091 41.4422 217.727 41.5494 217.405 41.6352V27.9324C217.341 24.3297 216.462 21.9494 212.258 19.2046C206.383 15.3661 196.84 16.4597 193.023 21.4133C191.865 22.893 191.286 24.6728 191.243 26.6672L196.39 26.7315C196.411 25.7665 196.669 24.9731 197.162 24.3083C199.135 21.735 205.525 20.7486 209.342 23.2361C211.486 24.63 212.065 25.4663 212.216 26.8816C211.251 27.3105 208.72 28.1039 202.737 28.6615C198.02 29.0903 194.696 30.6772 192.809 33.3792C190.557 36.6173 191.329 40.1984 191.608 41.1634C192.058 43.7153 194.803 47.854 202.33 47.854C202.973 47.854 203.659 47.8326 204.367 47.7682C204.946 47.7253 208.978 47.3608 212.602 44.9805C212.773 45.3022 212.923 45.8383 213.352 46.4816C214.188 47.7468 215.325 47.7682 216.354 47.7682C217.662 47.7682 218.713 46.9105 220.171 45.9669L218.542 41.3135ZM203.981 42.879H203.895C197.741 43.4365 196.797 40.8418 196.669 40.3485V40.2413L196.561 39.9411C196.518 39.7696 195.961 37.6895 197.097 36.0812C198.32 34.3656 201.086 33.7652 203.209 33.5722C207.005 33.2291 210.007 32.7359 212.258 32.0925V38.1827C209.9 42.4501 204.024 42.879 203.981 42.879Z" fill="#1E1E1E"/>
<path d="M18.5953 16.9102H17.3301C17.2872 16.9102 17.2658 16.9102 17.2229 16.9102C13.6631 16.9102 10.4251 18.2826 7.89466 20.5557V16.9102H2.74805V47.7898H7.89466V32.35C7.89466 26.6458 12.0763 21.9924 17.2229 21.9924C17.2658 21.9924 17.2872 21.9924 17.3301 21.9924H22.0478V21.971L18.5953 16.9102Z" fill="#1E1E1E"/>
<path d="M82.5208 5.33008V20.5769C79.9904 18.3038 76.7523 16.9314 73.1926 16.9314C65.2154 16.9314 58.7178 23.8579 58.7178 32.3498C58.7178 40.8631 65.2154 47.7681 73.1926 47.7681C76.7523 47.7681 79.9904 46.3957 82.5208 44.1226V47.7681H87.6674V5.33008H82.5208ZM73.1926 42.7288C68.046 42.7288 63.8644 38.0754 63.8644 32.3712C63.8644 26.6671 68.046 22.0137 73.1926 22.0137C78.3392 22.0137 82.5208 26.6671 82.5208 32.3712C82.5208 38.0754 78.3392 42.7288 73.1926 42.7288Z" fill="#1E1E1E"/>
<path d="M139.778 16.9102H134.631V20.5771C132.101 18.2826 128.863 16.9102 125.303 16.9102C117.326 16.9102 110.828 23.8581 110.828 32.4143C110.828 40.9705 117.326 47.9185 125.303 47.9185C128.863 47.9185 132.101 46.546 134.631 44.2515V47.7469C134.631 47.7684 134.631 50.4918 132.766 52.3574C131.479 53.6441 129.506 54.2874 126.911 54.2874H115.975L110.828 59.3697H126.911C130.964 59.3697 134.181 58.1902 136.475 55.8743C139.713 52.5933 139.778 48.3045 139.778 47.6826V16.9102ZM125.303 42.8147C120.156 42.8147 115.975 38.1399 115.975 32.4143C115.975 26.6887 120.156 22.0139 125.303 22.0139C130.45 22.0139 134.631 26.6673 134.631 32.4143C134.631 38.1399 130.45 42.8147 125.303 42.8147Z" fill="#1E1E1E"/>
<path d="M185.453 5.33008H182.665C181.357 5.33008 180.307 6.31651 180.307 7.53883V10.155H183.094C184.402 10.155 185.453 9.16859 185.453 7.94627V5.33008Z" stroke="#F0F0F0" stroke-width="4" mask="url(#path-1-outside-1_3519_1823)"/>
<path d="M185.453 16.9102H180.307V47.7898H185.453V16.9102Z" stroke="#F0F0F0" stroke-width="4" mask="url(#path-1-outside-1_3519_1823)"/>
<path d="M45.3369 39.3193C43.6214 41.3994 41.1768 42.7075 38.4534 42.7075C33.8857 42.7075 30.0901 39.062 29.2752 34.237H52.821C52.8853 33.6151 52.9282 32.9718 52.9282 32.3285C52.9282 23.8151 46.4306 16.8887 38.4534 16.8887C30.4761 16.8887 23.9785 23.8366 23.9785 32.3499C23.9785 40.8633 30.4761 47.7898 38.4534 47.7898C44.0717 47.7898 48.961 44.3372 51.3628 39.3193H45.3369ZM38.4534 21.9924C42.5921 21.9924 46.1304 25.016 47.3312 29.1762H29.5755C30.7763 25.016 34.3146 21.9924 38.4534 21.9924Z" stroke="#F0F0F0" stroke-width="4" mask="url(#path-1-outside-1_3519_1823)"/>
<path d="M160.041 47.7898C152.064 47.7898 145.566 40.8633 145.566 32.35C145.566 23.8366 152.064 16.9102 160.041 16.9102C168.018 16.9102 174.516 23.8366 174.516 32.35C174.516 40.8633 168.018 47.7898 160.041 47.7898ZM160.041 21.9924C154.895 21.9924 150.713 26.6458 150.713 32.35C150.713 38.0541 154.895 42.7075 160.041 42.7075C165.188 42.7075 169.369 38.0541 169.369 32.35C169.369 26.6458 165.188 21.9924 160.041 21.9924Z" stroke="#F0F0F0" stroke-width="4" mask="url(#path-1-outside-1_3519_1823)"/>
<path d="M218.542 41.3135C218.091 41.4422 217.727 41.5494 217.405 41.6352V27.9324C217.341 24.3297 216.462 21.9494 212.258 19.2046C206.383 15.3661 196.84 16.4597 193.023 21.4133C191.865 22.893 191.286 24.6728 191.243 26.6672L196.39 26.7315C196.411 25.7665 196.669 24.9731 197.162 24.3083C199.135 21.735 205.525 20.7486 209.342 23.2361C211.486 24.63 212.065 25.4663 212.216 26.8816C211.251 27.3105 208.72 28.1039 202.737 28.6615C198.02 29.0903 194.696 30.6772 192.809 33.3792C190.557 36.6173 191.329 40.1984 191.608 41.1634C192.058 43.7153 194.803 47.854 202.33 47.854C202.973 47.854 203.659 47.8326 204.367 47.7682C204.946 47.7253 208.978 47.3608 212.602 44.9805C212.773 45.3022 212.923 45.8383 213.352 46.4816C214.188 47.7468 215.325 47.7682 216.354 47.7682C217.662 47.7682 218.713 46.9105 220.171 45.9669L218.542 41.3135ZM203.981 42.879H203.895C197.741 43.4365 196.797 40.8418 196.669 40.3485V40.2413L196.561 39.9411C196.518 39.7696 195.961 37.6895 197.097 36.0812C198.32 34.3656 201.086 33.7652 203.209 33.5722C207.005 33.2291 210.007 32.7359 212.258 32.0925V38.1827C209.9 42.4501 204.024 42.879 203.981 42.879Z" stroke="#F0F0F0" stroke-width="4" mask="url(#path-1-outside-1_3519_1823)"/>
<path d="M18.5953 16.9102H17.3301C17.2872 16.9102 17.2658 16.9102 17.2229 16.9102C13.6631 16.9102 10.4251 18.2826 7.89466 20.5557V16.9102H2.74805V47.7898H7.89466V32.35C7.89466 26.6458 12.0763 21.9924 17.2229 21.9924C17.2658 21.9924 17.2872 21.9924 17.3301 21.9924H22.0478V21.971L18.5953 16.9102Z" stroke="#F0F0F0" stroke-width="4" mask="url(#path-1-outside-1_3519_1823)"/>
<path d="M82.5208 5.33008V20.5769C79.9904 18.3038 76.7523 16.9314 73.1926 16.9314C65.2154 16.9314 58.7178 23.8579 58.7178 32.3498C58.7178 40.8631 65.2154 47.7681 73.1926 47.7681C76.7523 47.7681 79.9904 46.3957 82.5208 44.1226V47.7681H87.6674V5.33008H82.5208ZM73.1926 42.7288C68.046 42.7288 63.8644 38.0754 63.8644 32.3712C63.8644 26.6671 68.046 22.0137 73.1926 22.0137C78.3392 22.0137 82.5208 26.6671 82.5208 32.3712C82.5208 38.0754 78.3392 42.7288 73.1926 42.7288Z" stroke="#F0F0F0" stroke-width="4" mask="url(#path-1-outside-1_3519_1823)"/>
<path d="M139.778 16.9102H134.631V20.5771C132.101 18.2826 128.863 16.9102 125.303 16.9102C117.326 16.9102 110.828 23.8581 110.828 32.4143C110.828 40.9705 117.326 47.9185 125.303 47.9185C128.863 47.9185 132.101 46.546 134.631 44.2515V47.7469C134.631 47.7684 134.631 50.4918 132.766 52.3574C131.479 53.6441 129.506 54.2874 126.911 54.2874H115.975L110.828 59.3697H126.911C130.964 59.3697 134.181 58.1902 136.475 55.8743C139.713 52.5933 139.778 48.3045 139.778 47.6826V16.9102ZM125.303 42.8147C120.156 42.8147 115.975 38.1399 115.975 32.4143C115.975 26.6887 120.156 22.0139 125.303 22.0139C130.45 22.0139 134.631 26.6673 134.631 32.4143C134.631 38.1399 130.45 42.8147 125.303 42.8147Z" stroke="#F0F0F0" stroke-width="4" mask="url(#path-1-outside-1_3519_1823)"/>
</svg>
