<svg width="145" height="33" viewBox="0 0 145 33" fill="none" xmlns="http://www.w3.org/2000/svg">
<g clip-path="url(#clip0_4593_21701)">
<g clip-path="url(#clip1_4593_21701)">
<path d="M10.2723 21.3351L10.2722 21.3352L10.274 21.3367C10.3464 21.4011 10.4504 21.481 10.5779 21.5607L10.5781 21.5608C10.7758 21.6825 11.0385 21.8184 11.3937 21.9409C11.1659 22.2874 10.9548 22.7587 10.7806 23.4025L10.7806 23.4028C10.6882 23.7569 10.4011 24.3174 9.90855 24.9038L9.90852 24.9038C9.42412 25.482 8.77592 26.0519 8.01132 26.4498L8.0113 26.4498C7.27043 26.8359 6.40578 27.0674 5.44018 26.9837C4.4759 26.9001 3.40805 26.5019 2.25977 25.6242C2.21929 25.5683 2.16401 25.5053 2.09549 25.4292C1.95533 25.2734 1.75523 25.0883 1.4735 24.8809C1.52398 24.6243 1.51608 24.364 1.50847 24.1889L1.50849 24.1889L1.50839 24.1876C1.50077 24.0886 1.49314 24.0041 1.48548 23.9341C1.49045 23.9146 1.49635 23.8928 1.50284 23.8688C1.51597 23.8202 1.5315 23.7628 1.54659 23.6975C1.60917 23.4708 1.71085 23.1423 1.85164 22.7669C2.14158 22.0146 2.58724 21.1008 3.24228 20.3911L3.24228 20.3911L3.2426 20.3908C3.88117 19.6821 4.71173 19.194 5.79004 19.2017L5.7903 19.1666L5.79004 19.2017C6.87731 19.2095 8.32184 19.7221 10.1951 21.2579L10.1954 21.2582L10.1957 21.2585L10.1959 21.2587L10.1981 21.261L10.2026 21.2654L10.207 21.2698L10.2093 21.2721L10.2115 21.2743L10.2301 21.2929L10.2501 21.3129L10.2554 21.3182L10.2557 21.3185L10.2559 21.3187L10.2561 21.3189L10.2567 21.3196L10.2574 21.3202L10.2581 21.3209L10.2588 21.3216L10.259 21.3218L10.2591 21.3219L10.2593 21.3221L10.2595 21.3223L10.2609 21.3237L10.2665 21.3293L10.2679 21.3307L10.2694 21.3322L10.2723 21.3351Z" fill="#077E44" stroke="#191617" stroke-width="0.0790712"/>
<path d="M10.3002 21.3072C10.2688 21.2757 10.2453 21.2522 10.2217 21.2286C8.34385 19.6886 6.89031 19.1701 5.79033 19.1622C4.6982 19.1543 3.8575 19.6493 3.21323 20.3643C2.55324 21.0793 2.10539 21.9986 1.81468 22.7528C1.67325 23.13 1.57111 23.46 1.50826 23.6878C1.48469 23.79 1.46112 23.8685 1.4454 23.9314C1.45326 24.0021 1.46112 24.0885 1.46897 24.1907C1.47683 24.3714 1.48469 24.6385 1.42969 24.8978C1.7204 25.1099 1.92468 25.2985 2.0661 25.4556C2.13682 25.5342 2.19182 25.5971 2.2311 25.652C4.54106 27.4199 6.53674 27.2627 8.02957 26.4849C8.79956 26.0842 9.45169 25.5106 9.93883 24.9292C10.4338 24.3399 10.7245 23.7742 10.8188 23.4128C10.9995 22.745 11.2195 22.2657 11.4552 21.92C11.0781 21.7943 10.8031 21.6529 10.5988 21.5271C10.4731 21.4486 10.371 21.37 10.3002 21.3072Z" stroke="#191617" stroke-width="1.26514"/>
<path d="M2.91592 6.4327C7.05656 5.482 9.78294 7.01411 11.4879 9.11978C12.36 10.1962 12.965 11.4219 13.3343 12.5611C13.7114 13.7082 13.8293 14.7139 13.7743 15.3268C13.6643 16.6075 13.79 17.4953 14.01 18.1081C13.2479 17.9746 12.6822 17.9746 12.2815 18.0296C12.0693 18.0531 11.9043 18.1003 11.7865 18.1317C11.7315 18.1474 11.6843 18.171 11.6451 18.1867C8.28225 19.0745 5.98801 18.8545 4.42446 18.1239C2.86092 17.3932 1.93379 16.1125 1.39166 14.6746C0.841666 13.229 0.70024 11.6497 0.692383 10.4083C0.692383 9.79547 0.723811 9.27692 0.755239 8.90764C0.770953 8.72693 0.786667 8.5855 0.802381 8.48336C0.802381 8.47551 0.802381 8.46765 0.802381 8.45979C0.802381 8.45194 0.810238 8.44408 0.810238 8.44408C0.85738 8.35765 0.920236 8.2398 0.983092 8.09051C1.1088 7.81552 1.25809 7.40696 1.28166 6.97483C1.87093 6.86483 2.28736 6.73126 2.57021 6.60555C2.72735 6.53484 2.83735 6.47984 2.91592 6.4327Z" fill="#0A9343"/>
<path d="M2.91592 6.4327C7.05656 5.482 9.78294 7.01411 11.4879 9.11978C12.36 10.1962 12.965 11.4219 13.3343 12.5611C13.7114 13.7082 13.8293 14.7139 13.7743 15.3268C13.6643 16.6075 13.79 17.4953 14.01 18.1081C13.2479 17.9746 12.6822 17.9746 12.2815 18.0296C12.0693 18.0531 11.9043 18.1003 11.7865 18.1317C11.7315 18.1474 11.6843 18.171 11.6451 18.1867C8.28225 19.0745 5.98801 18.8545 4.42446 18.1239C2.86092 17.3932 1.93379 16.1125 1.39166 14.6746C0.841666 13.229 0.70024 11.6497 0.692383 10.4083C0.692383 9.79547 0.723811 9.27692 0.755239 8.90764C0.770953 8.72693 0.786667 8.5855 0.802381 8.48336C0.802381 8.47551 0.802381 8.46765 0.802381 8.45979C0.802381 8.45194 0.810238 8.44408 0.810238 8.44408C0.85738 8.35765 0.920236 8.2398 0.983092 8.09051C1.1088 7.81552 1.25809 7.40696 1.28166 6.97483C1.87093 6.86483 2.28736 6.73126 2.57021 6.60555C2.72735 6.53484 2.83735 6.47984 2.91592 6.4327Z" stroke="#191617" stroke-width="1.26514"/>
<path d="M26.916 18.7292C26.916 23.6324 22.9411 27.6073 18.0378 27.6073C13.1345 27.6073 9.15965 23.6324 9.15965 18.7292C9.15965 13.8259 13.1345 9.85106 18.0378 9.85106C22.9411 9.85106 26.916 13.8259 26.916 18.7292Z" fill="#C41635" stroke="#191617" stroke-width="0.0790712"/>
<path d="M18.0378 27.6468C22.9629 27.6468 26.9555 23.6543 26.9555 18.7292C26.9555 13.8041 22.9629 9.81152 18.0378 9.81152C13.1127 9.81152 9.12012 13.8041 9.12012 18.7292C9.12012 23.6543 13.1127 27.6468 18.0378 27.6468Z" stroke="#191617" stroke-width="1.26514"/>
<path d="M18.0378 27.6468C22.9629 27.6468 26.9555 23.6543 26.9555 18.7292C26.9555 13.8041 22.9629 9.81152 18.0378 9.81152C13.1127 9.81152 9.12012 13.8041 9.12012 18.7292C9.12012 23.6543 13.1127 27.6468 18.0378 27.6468Z" stroke="#191617" stroke-width="0.474427"/>
<path d="M24.7726 18.0128C24.8197 18.1306 24.9926 18.0206 24.969 17.9028C24.6862 16.4649 23.3976 11.9629 18.2198 11.2086C18.0706 11.1851 18.0156 11.4286 18.1648 11.4915C18.9191 11.7665 21.0405 12.8272 22.3212 14.1628C23.6883 15.6085 24.3562 16.9678 24.7726 18.0128Z" fill="white"/>
</g>
<g clip-path="url(#clip2_4593_21701)">
<path d="M127.958 5.24609H126.604C125.969 5.24609 125.458 5.72518 125.458 6.31883V7.58945H126.812C127.448 7.58945 127.958 7.11036 127.958 6.51671V5.24609Z" fill="#191617"/>
<path d="M127.958 10.8711H125.458V25.8686H127.958V10.8711Z" fill="#191617"/>
<path d="M59.907 21.7553C59.0738 22.7656 57.8865 23.4009 56.5638 23.4009C54.3454 23.4009 52.502 21.6304 52.1062 19.287H59.1155H63.5418C63.5731 18.985 63.5939 18.6725 63.5939 18.3601C63.5939 14.2253 60.4382 10.8613 56.5638 10.8613C52.6894 10.8613 49.5337 14.2358 49.5337 18.3705C49.5337 22.5052 52.6894 25.8692 56.5638 25.8692C59.2925 25.8692 61.6671 24.1924 62.8336 21.7553H59.907ZM56.5638 13.3401C58.5739 13.3401 60.2924 14.8086 60.8756 16.8291H52.252C52.8352 14.8086 54.5537 13.3401 56.5638 13.3401Z" fill="#191617"/>
<path d="M115.616 25.8696C111.742 25.8696 108.586 22.5055 108.586 18.3708C108.586 14.2361 111.742 10.8721 115.616 10.8721C119.49 10.8721 122.646 14.2361 122.646 18.3708C122.646 22.5055 119.49 25.8696 115.616 25.8696ZM115.616 13.3404C113.116 13.3404 111.086 15.6004 111.086 18.3708C111.086 21.1412 113.116 23.4012 115.616 23.4012C118.116 23.4012 120.147 21.1412 120.147 18.3708C120.147 15.6004 118.116 13.3404 115.616 13.3404Z" fill="#191617"/>
<path d="M144.027 22.722C143.809 22.7845 143.632 22.8366 143.475 22.8783V20.8994V20.3995V16.2231C143.444 14.4734 143.017 13.3174 140.976 11.9843C138.122 10.12 133.487 10.6512 131.633 13.057C131.071 13.7756 130.79 14.6401 130.769 15.6087L133.269 15.6399C133.279 15.1712 133.404 14.7859 133.644 14.463C134.602 13.2132 137.705 12.7341 139.559 13.9423C140.601 14.6192 140.882 15.0254 140.955 15.7128C140.486 15.9211 139.257 16.3065 136.351 16.5772C134.06 16.7855 132.446 17.5562 131.529 18.8685C130.436 20.4412 130.811 22.1805 130.946 22.6491C131.165 23.8885 132.498 25.8986 136.154 25.8986C136.466 25.8986 136.799 25.8882 137.143 25.8569C137.424 25.8361 139.382 25.6591 141.142 24.503C141.226 24.6592 141.299 24.9196 141.507 25.232C141.913 25.8465 142.465 25.8569 142.965 25.8569C143.6 25.8569 144.111 25.4403 144.819 24.9821L144.027 22.722ZM136.956 23.4823H136.914C133.925 23.7531 133.467 22.4929 133.404 22.2534V22.2013L133.352 22.0555C133.331 21.9722 133.06 20.9619 133.612 20.1808C134.206 19.3476 135.55 19.056 136.581 18.9623C138.424 18.7956 139.882 18.5561 140.976 18.2436V20.3995V20.8994V21.2015C139.83 23.274 136.976 23.4823 136.956 23.4823Z" fill="#191617"/>
<path d="M46.9193 10.8711H46.3048C46.284 10.8711 46.2736 10.8711 46.2528 10.8711C44.5239 10.8711 42.9512 11.5376 41.7223 12.6416V10.8711H39.2227V25.8686H41.7223V24.098V18.3698C41.7223 15.5995 43.7532 13.3394 46.2528 13.3394C46.2736 13.3394 46.284 13.3394 46.3048 13.3394H48.5961V13.329L46.9193 10.8711Z" fill="#191617"/>
<path d="M77.9654 5.24609V7.19368V9.14127V12.6511C76.7364 11.5471 75.1638 10.8806 73.4349 10.8806C69.5605 10.8806 66.4048 14.2446 66.4048 18.3689C66.4048 22.5036 69.5605 25.8572 73.4349 25.8572C75.1638 25.8572 76.7364 25.1907 77.9654 24.0867V25.8572H80.465V9.14127V7.19368V5.24609H77.9654ZM73.4349 23.4097C70.9353 23.4097 68.9044 21.1497 68.9044 18.3793C68.9044 15.6089 70.9353 13.3489 73.4349 13.3489C75.9345 13.3489 77.9654 15.6089 77.9654 18.3793C77.9654 21.1497 75.9345 23.4097 73.4349 23.4097Z" fill="#191617"/>
<path d="M105.774 10.8711H103.274V12.652C102.045 11.5376 100.472 10.8711 98.7435 10.8711C94.8691 10.8711 91.7134 14.2455 91.7134 18.4011C91.7134 22.5566 94.8691 25.9311 98.7435 25.9311C100.472 25.9311 102.045 25.2645 103.274 24.1501V25.8269V25.8478C103.274 25.8582 103.274 27.1809 102.368 28.087C101.743 28.7119 100.785 29.0243 99.5246 29.0243H94.213L91.7134 31.4926H99.5246C101.493 31.4926 103.055 30.9198 104.17 29.795C105.742 28.2015 105.774 26.1185 105.774 25.8165V10.8711ZM98.7435 23.4523C96.2439 23.4523 94.213 21.1819 94.213 18.4011C94.213 15.6203 96.2439 13.3498 98.7435 13.3498C101.243 13.3498 103.274 15.6099 103.274 18.4011C103.274 21.1819 101.243 23.4523 98.7435 23.4523Z" fill="#191617"/>
</g>
</g>
<defs>
<clipPath id="clip0_4593_21701">
<rect width="145" height="31.1481" fill="white" transform="translate(0 0.925781)"/>
</clipPath>
<clipPath id="clip1_4593_21701">
<rect width="27.6567" height="22.8589" fill="white" transform="translate(0 5.47656)"/>
</clipPath>
<clipPath id="clip2_4593_21701">
<rect width="106.333" height="26.8519" fill="white" transform="translate(38.6665 5.22168)"/>
</clipPath>
</defs>
</svg>
