<svg width="25" height="24" viewBox="0 0 25 24" fill="none" xmlns="http://www.w3.org/2000/svg">
<g clip-path="url(#clip0_4685_2860)">
<path d="M20.6894 1.77637C21.3035 1.77637 21.8925 2.02033 22.3268 2.45458C22.761 2.88883 23.005 3.4778 23.005 4.09193V20.3008C23.005 20.915 22.761 21.5039 22.3268 21.9382C21.8925 22.3724 21.3035 22.6164 20.6894 22.6164H4.48051C3.86638 22.6164 3.27741 22.3724 2.84316 21.9382C2.40891 21.5039 2.16495 20.915 2.16495 20.3008V4.09193C2.16495 3.4778 2.40891 2.88883 2.84316 2.45458C3.27741 2.02033 3.86638 1.77637 4.48051 1.77637H20.6894ZM20.1105 19.7219V13.5857C20.1105 12.5847 19.7129 11.6247 19.005 10.9168C18.2972 10.209 17.3372 9.81135 16.3362 9.81135C15.3521 9.81135 14.2058 10.4134 13.6501 11.3165V10.0313H10.4199V19.7219H13.6501V14.0141C13.6501 13.1226 14.3679 12.3932 15.2594 12.3932C15.6893 12.3932 16.1016 12.564 16.4056 12.8679C16.7095 13.1719 16.8803 13.5842 16.8803 14.0141V19.7219H20.1105ZM6.65713 8.21362C7.17299 8.21362 7.66773 8.00869 8.0325 7.64392C8.39727 7.27915 8.6022 6.78441 8.6022 6.26855C8.6022 5.19182 7.73386 4.3119 6.65713 4.3119C6.1382 4.3119 5.64051 4.51805 5.27357 4.88499C4.90663 5.25193 4.70048 5.74962 4.70048 6.26855C4.70048 7.34528 5.5804 8.21362 6.65713 8.21362ZM8.26644 19.7219V10.0313H5.0594V19.7219H8.26644Z" fill="#F0F0F0"/>
</g>
<defs>
<clipPath id="clip0_4685_2860">
<rect width="23.445" height="23.445" fill="white" transform="translate(0.862152 0.47168)"/>
</clipPath>
</defs>
</svg>
