<svg width="236" height="60" viewBox="0 0 236 60" fill="none" xmlns="http://www.w3.org/2000/svg">
<g clip-path="url(#clip0_4685_2859)">
<g clip-path="url(#clip1_4685_2859)">
<path d="M197.428 1.38379H194.434C193.03 1.38379 191.901 2.44302 191.901 3.75555V6.56481H194.895C196.299 6.56481 197.428 5.50558 197.428 4.19305V1.38379Z" fill="#F0F0F0"/>
<path d="M197.428 13.8223H191.901V46.9808H197.428V13.8223Z" fill="#F0F0F0"/>
<path d="M46.9715 37.8838C45.1294 40.1174 42.5043 41.5221 39.5799 41.5221C34.6751 41.5221 30.5994 37.6075 29.7244 32.4265H45.2215H55.0079C55.077 31.7587 55.123 31.0679 55.123 30.3771C55.123 21.2355 48.1459 13.7979 39.5799 13.7979C31.0139 13.7979 24.0367 21.2585 24.0367 30.4002C24.0367 39.5418 31.0139 46.9794 39.5799 46.9794C45.6129 46.9794 50.8631 43.2721 53.4421 37.8838H46.9715ZM39.5799 19.2782C44.0241 19.2782 47.8235 22.525 49.113 26.9922H30.0467C31.3362 22.525 35.1357 19.2782 39.5799 19.2782Z" fill="#F0F0F0"/>
<path d="M170.141 46.9789C161.575 46.9789 154.597 39.5412 154.597 30.3996C154.597 21.258 161.575 13.8203 170.141 13.8203C178.707 13.8203 185.684 21.258 185.684 30.3996C185.684 39.5412 178.707 46.9789 170.141 46.9789ZM170.141 19.2777C164.614 19.2777 160.124 24.2745 160.124 30.3996C160.124 36.5247 164.614 41.5215 170.141 41.5215C175.667 41.5215 180.157 36.5247 180.157 30.3996C180.157 24.2745 175.667 19.2777 170.141 19.2777Z" fill="#F0F0F0"/>
<path d="M232.956 40.0227C232.473 40.1609 232.081 40.276 231.736 40.3681V35.993V34.8878V25.654C231.667 21.7855 230.723 19.2296 226.209 16.2821C219.9 12.1603 209.653 13.3347 205.554 18.6539C204.311 20.2427 203.689 22.154 203.643 24.2954L209.169 24.3645C209.192 23.3283 209.469 22.4763 209.998 21.7625C212.117 18.9993 218.979 17.9401 223.078 20.6112C225.38 22.1079 226.002 23.0059 226.163 24.5257C225.127 24.9862 222.41 25.8382 215.985 26.4369C210.919 26.8975 207.35 28.6014 205.324 31.5028C202.906 34.9799 203.735 38.8253 204.034 39.8615C204.518 42.6017 207.465 47.0459 215.548 47.0459C216.239 47.0459 216.976 47.0229 217.735 46.9538C218.357 46.9077 222.686 46.5163 226.578 43.9603C226.762 44.3057 226.923 44.8814 227.384 45.5722C228.282 46.9308 229.502 46.9538 230.607 46.9538C232.012 46.9538 233.14 46.0327 234.706 45.0195L232.956 40.0227ZM217.321 41.7037H217.229C210.62 42.3024 209.607 39.5161 209.469 38.9865V38.8714L209.354 38.549C209.308 38.3648 208.709 36.1312 209.929 34.4042C211.242 32.5621 214.212 31.9173 216.492 31.7101C220.568 31.3416 223.791 30.812 226.209 30.1212V34.8878V35.993V36.6608C223.676 41.2431 217.367 41.7037 217.321 41.7037Z" fill="#F0F0F0"/>
<path d="M18.2561 13.8223H16.8975C16.8514 13.8223 16.8284 13.8223 16.7823 13.8223C12.9599 13.8223 9.4828 15.296 6.76563 17.7368V13.8223H1.23917V46.9808H6.76563V43.0663V30.4015C6.76563 24.2764 11.2559 19.2796 16.7823 19.2796C16.8284 19.2796 16.8514 19.2796 16.8975 19.2796H21.9634V19.2566L18.2561 13.8223Z" fill="#F0F0F0"/>
<path d="M86.8972 1.38379V5.68979V9.9958V17.7558C84.18 15.315 80.703 13.8413 76.8805 13.8413C68.3145 13.8413 61.3373 21.2789 61.3373 30.3975C61.3373 39.5391 68.3145 46.9538 76.8805 46.9538C80.703 46.9538 84.18 45.48 86.8972 43.0392V46.9538H92.4237V9.9958V5.68979V1.38379H86.8972ZM76.8805 41.5425C71.354 41.5425 66.8638 36.5457 66.8638 30.4205C66.8638 24.2954 71.354 19.2986 76.8805 19.2986C82.407 19.2986 86.8972 24.2954 86.8972 30.4205C86.8972 36.5457 82.407 41.5425 76.8805 41.5425Z" fill="#F0F0F0"/>
<path d="M148.379 13.8223H142.853V17.7598C140.135 15.296 136.658 13.8223 132.836 13.8223C124.27 13.8223 117.293 21.2829 117.293 30.4706C117.293 39.6583 124.27 47.119 132.836 47.119C136.658 47.119 140.135 45.6453 142.853 43.1814V46.8887V46.9348C142.853 46.9578 142.853 49.8822 140.849 51.8855C139.468 53.2671 137.349 53.9579 134.563 53.9579H122.819L117.293 59.4153H134.563C138.915 59.4153 142.369 58.1488 144.833 55.6619C148.31 52.1388 148.379 47.5335 148.379 46.8657V13.8223ZM132.836 41.6386C127.309 41.6386 122.819 36.6188 122.819 30.4706C122.819 24.3225 127.309 19.3026 132.836 19.3026C138.362 19.3026 142.853 24.2994 142.853 30.4706C142.853 36.6188 138.362 41.6386 132.836 41.6386Z" fill="#F0F0F0"/>
</g>
</g>
<defs>
<clipPath id="clip0_4685_2859">
<rect width="234.739" height="59.2402" fill="white" transform="translate(0.673737 0.71875)"/>
</clipPath>
<clipPath id="clip1_4685_2859">
<rect width="234.739" height="59.2402" fill="white" transform="translate(0.673737 0.71875)"/>
</clipPath>
</defs>
</svg>
