<svg width="24" height="24" viewBox="0 0 24 24" fill="none" xmlns="http://www.w3.org/2000/svg">
<g clip-path="url(#clip0_4685_2863)">
<path fill-rule="evenodd" clip-rule="evenodd" d="M22.8158 12.1949C22.8158 18.1295 18.0048 22.9405 12.0701 22.9405C6.13548 22.9405 1.32449 18.1295 1.32449 12.1949C1.32449 6.2602 6.13548 1.44922 12.0701 1.44922C18.0048 1.44922 22.8158 6.2602 22.8158 12.1949ZM15.4276 12.0343C15.828 11.5519 17.0606 10.0668 18.9357 10.0668C21.1763 10.0668 22.1417 11.8955 22.1444 13.4637C22.1444 15.0333 21.0585 16.8956 18.9384 16.8956C17.2481 16.8956 16.0208 15.5941 15.5237 15.067C15.3974 14.9332 15.3183 14.8492 15.2906 14.8492C15.2648 14.8492 15.2 14.9255 15.0954 15.0486C14.6584 15.5631 13.5265 16.8956 11.6375 16.8956C9.6177 16.8956 8.6684 15.0333 8.6684 14.8492C8.6684 15.0668 7.87934 16.8956 5.42058 16.8956C2.40436 16.8956 1.99636 14.5295 1.99636 14.0232H3.89429C3.89429 14.5954 4.45445 15.4214 5.41991 15.4214C6.38806 15.4214 7.08219 14.4429 7.08219 13.551C7.08219 12.6565 6.45337 11.864 5.41991 11.864C4.38645 11.864 3.99663 12.5799 3.99663 12.5799H2.29327L3.18198 7.49317H8.4469V9.01234H4.55476C4.31778 10.3945 4.19928 11.1715 4.19928 11.1715C4.22972 11.1715 4.26457 11.1345 4.3185 11.0772C4.50315 10.8809 4.91153 10.4469 6.13289 10.4469C7.77523 10.4469 8.4013 11.68 8.59837 12.0681C8.63518 12.1406 8.65703 12.1836 8.66773 12.1836C8.67794 12.1836 8.70086 12.1369 8.73989 12.0573C8.96347 11.6012 9.71563 10.0668 11.6341 10.0668C13.5256 10.0668 14.7555 11.5538 15.1536 12.0352C15.2305 12.1282 15.2763 12.1836 15.2899 12.1836C15.3036 12.1836 15.3499 12.1278 15.4276 12.0343ZM14.1564 13.4959L14.1562 13.496C14.1434 13.4771 12.8467 11.9083 11.6449 11.9083C10.4377 11.9083 10.2142 13.1071 10.2142 13.496C10.2142 13.8841 10.4377 15.083 11.6456 15.083C12.8383 15.083 14.1252 13.536 14.1564 13.4959ZM18.9511 15.0856C20.1583 15.0856 20.3818 13.8841 20.3818 13.4953C20.3818 13.1098 20.1583 11.9083 18.9511 11.9083C17.7514 11.9083 16.4554 13.4771 16.4399 13.496V13.498C16.4554 13.5168 17.7514 15.0856 18.9511 15.0856Z" fill="#F0F0F0"/>
</g>
<defs>
<clipPath id="clip0_4685_2863">
<rect width="23.445" height="23.445" fill="white" transform="translate(0.34729 0.47168)"/>
</clipPath>
</defs>
</svg>
