<svg width="24" height="24" viewBox="0 0 24 24" fill="none" xmlns="http://www.w3.org/2000/svg">
<g clip-path="url(#clip0_4683_2853)">
<g clip-path="url(#clip1_4683_2853)">
<path d="M23.7744 6.49067C23.6806 8.78751 22.0869 11.9047 18.9933 15.889C15.8059 20.0139 13.1107 22.0998 10.8842 22.0998C9.52485 22.0998 8.35301 20.8342 7.41554 18.303C6.78275 15.9827 6.14996 13.6624 5.51717 11.3422C4.81406 8.81095 4.06409 7.54534 3.26724 7.54534C3.10318 7.54534 2.47039 7.92033 1.43917 8.64689L0.337646 7.24066C1.48605 6.23286 2.63445 5.20162 3.75941 4.19382C5.30624 2.85791 6.45464 2.15479 7.22805 2.08448C9.05611 1.92042 10.1811 3.16259 10.6029 5.83443C11.0482 8.7172 11.3764 10.5219 11.5404 11.225C12.056 13.6156 12.6419 14.8109 13.2747 14.8109C13.7669 14.8109 14.4934 14.0374 15.4778 12.4906C16.4621 10.9437 16.9777 9.74843 17.048 8.95157C17.1887 7.61565 16.6731 6.93597 15.4778 6.93597C14.9153 6.93597 14.3294 7.0766 13.7435 7.31097C14.9153 3.51415 17.1184 1.68605 20.3526 1.7798C22.7666 1.85011 23.8916 3.4204 23.7744 6.49067Z" fill="#F0F0F0"/>
</g>
</g>
<defs>
<clipPath id="clip0_4683_2853">
<rect width="23.445" height="23.445" fill="white" transform="translate(0.337402 0.47168)"/>
</clipPath>
<clipPath id="clip1_4683_2853">
<rect width="23.445" height="23.445" fill="white" transform="translate(0.337402 0.47168)"/>
</clipPath>
</defs>
</svg>
