<svg width="24" height="24" viewBox="0 0 24 24" fill="none" xmlns="http://www.w3.org/2000/svg">
<g clip-path="url(#clip0_4685_2861)">
<g clip-path="url(#clip1_4685_2861)">
<path d="M23.151 5.26261C22.8394 5.72834 22.4869 6.16265 22.0937 6.56554C21.7004 6.96843 21.2738 7.33621 20.8138 7.66887C20.8212 7.77237 20.8267 7.87402 20.8305 7.97382C20.8342 8.07361 20.836 8.17526 20.836 8.27876C20.836 9.21021 20.7359 10.1306 20.5355 11.0399C20.3352 11.9491 20.0458 12.8288 19.6674 13.679C19.1183 14.9135 18.432 16.0169 17.6084 16.989C16.7848 17.9611 15.8517 18.7835 14.8093 19.4562C13.7668 20.129 12.6297 20.6427 11.398 20.9976C10.1663 21.3524 8.87523 21.5298 7.52481 21.5298C6.24859 21.5298 5.00392 21.3543 3.79077 21.0031C2.57763 20.652 1.43311 20.129 0.357239 19.4341C0.720811 19.4784 1.0918 19.5006 1.47021 19.5006C2.53126 19.5006 3.55704 19.3306 4.54759 18.9905C5.53814 18.6505 6.44893 18.1552 7.27995 17.5046C6.78282 17.4972 6.30424 17.4141 5.84421 17.2551C5.38418 17.0962 4.9631 16.8744 4.58098 16.5898C4.19886 16.3052 3.86496 15.967 3.5793 15.5752C3.29363 15.1834 3.07289 14.7509 2.91708 14.2778C3.06547 14.3 3.21202 14.3184 3.3567 14.3332C3.50139 14.348 3.64793 14.3554 3.79633 14.3554C4.21184 14.3554 4.61993 14.3 5.0206 14.1891C4.47154 14.0782 3.96885 13.8823 3.51252 13.6014C3.0562 13.3205 2.66109 12.9786 2.3272 12.5757C1.99331 12.1728 1.73361 11.7181 1.54812 11.2117C1.36262 10.7054 1.26987 10.1749 1.26987 9.6205V9.56506C1.92282 9.93468 2.63141 10.1306 3.39566 10.1528C3.06919 9.93099 2.77796 9.67779 2.52197 9.39318C2.26599 9.10857 2.04896 8.79993 1.87088 8.46727C1.6928 8.13461 1.55554 7.78346 1.45908 7.41384C1.36262 7.04421 1.31439 6.6635 1.31439 6.27169C1.31439 5.85771 1.36633 5.45298 1.47021 5.05748C1.57409 4.66198 1.73361 4.2868 1.94879 3.93196C2.54238 4.66382 3.20274 5.31991 3.92989 5.90022C4.65703 6.48053 5.43055 6.97768 6.25045 7.39166C7.07034 7.80564 7.92918 8.13276 8.82699 8.37302C9.72479 8.61327 10.6448 8.75558 11.5872 8.79994C11.5426 8.62991 11.5111 8.45434 11.4926 8.27322C11.474 8.0921 11.4647 7.91283 11.4647 7.73541C11.4647 7.09227 11.5872 6.48793 11.832 5.9224C12.0769 5.35687 12.4108 4.86342 12.8337 4.44204C13.2566 4.02067 13.7519 3.68801 14.3195 3.44405C14.8871 3.2001 15.4937 3.07812 16.1392 3.07812C16.7922 3.07812 17.4136 3.20565 18.0035 3.46069C18.5934 3.71573 19.1109 4.07981 19.5561 4.55293C20.0829 4.44944 20.593 4.30343 21.0864 4.11492C21.5798 3.92642 22.0566 3.6954 22.5166 3.42188C22.3459 3.96153 22.0844 4.45314 21.732 4.89668C21.3795 5.34023 20.9584 5.70617 20.4687 5.99447C21.4036 5.88359 22.2977 5.63963 23.151 5.26261L23.151 5.26261Z" fill="#F0F0F0"/>
</g>
</g>
<defs>
<clipPath id="clip0_4685_2861">
<rect width="23.445" height="23.445" fill="white" transform="translate(0.357208 0.47168)"/>
</clipPath>
<clipPath id="clip1_4685_2861">
<rect width="23.445" height="23.445" fill="white" transform="translate(0.357208 0.47168)"/>
</clipPath>
</defs>
</svg>
