<svg width="25" height="24" viewBox="0 0 25 24" fill="none" xmlns="http://www.w3.org/2000/svg">
<g clip-path="url(#clip0_4685_2864)">
<path fill-rule="evenodd" clip-rule="evenodd" d="M12.5649 1.77637C6.81241 1.77637 2.14487 6.44391 2.14487 12.1964C2.14487 17.9489 6.81241 22.6164 12.5649 22.6164C18.3061 22.6164 22.9849 17.9489 22.9849 12.1964C22.9849 6.44391 18.3061 1.77637 12.5649 1.77637ZM19.4475 6.57951C20.6907 8.09392 21.4366 10.0265 21.4592 12.1173C21.1653 12.0608 18.2269 11.4618 15.266 11.8347C15.1981 11.6878 15.1416 11.5296 15.0738 11.3714C14.893 10.9419 14.6896 10.5011 14.4861 10.083C17.7636 8.74942 19.2554 6.82816 19.4475 6.57951ZM12.5649 3.31338C14.8252 3.31338 16.8934 4.16099 18.4643 5.55108C18.3061 5.77711 16.9612 7.57406 13.7968 8.76071C12.3388 6.08225 10.7227 3.88975 10.4741 3.55071C11.1409 3.39249 11.8416 3.31338 12.5649 3.31338ZM8.77887 4.14969C9.0162 4.46613 10.5984 6.66994 12.0789 9.29188C7.91995 10.3994 4.24696 10.3768 3.8514 10.3768C4.42777 7.61926 6.29253 5.32505 8.77887 4.14969ZM3.65927 12.2077C3.65927 12.1173 3.65927 12.0269 3.65927 11.9364C4.04352 11.9477 8.36072 12.0043 12.8022 10.6707C13.0621 11.1679 13.2995 11.6765 13.5255 12.1851C13.4125 12.219 13.2882 12.2529 13.1752 12.2868C8.58675 13.7673 6.14561 17.8132 5.94219 18.1523C4.52949 16.5814 3.65927 14.4906 3.65927 12.2077ZM12.5649 21.102C10.508 21.102 8.60934 20.4013 7.10623 19.2259C7.26447 18.8982 9.07272 15.4173 14.0906 13.6656C14.1132 13.6543 14.1245 13.6543 14.1471 13.643C15.4016 16.8865 15.9101 19.6102 16.0457 20.39C14.9721 20.8533 13.7968 21.102 12.5649 21.102ZM17.5263 19.5763C17.4358 19.0338 16.9612 16.4344 15.7971 13.2361C18.5886 12.7954 21.0297 13.5187 21.3349 13.6204C20.9506 16.0954 19.5266 18.2314 17.5263 19.5763Z" fill="#F0F0F0"/>
</g>
<defs>
<clipPath id="clip0_4685_2864">
<rect width="23.445" height="23.445" fill="white" transform="translate(0.842346 0.47168)"/>
</clipPath>
</defs>
</svg>
