<svg width="25" height="24" viewBox="0 0 25 24" fill="none" xmlns="http://www.w3.org/2000/svg">
<g clip-path="url(#clip0_4685_2866)">
<path d="M11.0729 11.2265C11.2753 11.0799 11.373 10.8381 11.373 10.5055C11.38 10.3473 11.3474 10.1915 11.2776 10.0496C11.2148 9.93561 11.1218 9.84025 11.0078 9.7728C10.8896 9.70113 10.7584 9.65369 10.6217 9.63324C10.4729 9.60533 10.3217 9.59138 10.1728 9.5937H8.53771V11.4474H10.3077C10.6124 11.4498 10.8706 11.3753 11.0729 11.2265ZM11.3474 12.9011C11.1194 12.7267 10.8148 12.6406 10.4356 12.6406H8.53305V14.827H10.3984C10.5729 14.827 10.7334 14.8107 10.8892 14.7781C11.0366 14.7493 11.1772 14.6924 11.3032 14.6107C11.4218 14.5339 11.5172 14.4292 11.5893 14.2943C11.6591 14.1594 11.6939 13.9873 11.6939 13.7803C11.6939 13.3686 11.5777 13.0779 11.3474 12.9011ZM13.2058 1.77637C7.45151 1.77637 2.78577 6.44211 2.78577 12.1964C2.78577 17.9506 7.45151 22.6164 13.2058 22.6164C18.96 22.6164 23.6258 17.9506 23.6258 12.1964C23.6258 6.44211 18.96 1.77637 13.2058 1.77637ZM15.2177 8.44936H18.4367V9.23319H15.2177V8.44936ZM13.2058 14.913C13.0552 15.1988 12.8402 15.4457 12.5778 15.6341C12.3033 15.8248 11.9986 15.9643 11.6753 16.0457C11.3371 16.1364 10.9882 16.181 10.638 16.1783H6.78631V8.24468H10.531C10.9101 8.24468 11.2544 8.27957 11.5683 8.3447C11.88 8.40982 12.1452 8.52146 12.3685 8.67265C12.5894 8.82383 12.7639 9.02618 12.8871 9.27738C13.0081 9.52625 13.0709 9.83792 13.0709 10.2077C13.0709 10.6078 12.9802 10.9381 12.7987 11.2055C12.615 11.473 12.3498 11.6893 11.9893 11.8591C12.4801 11.9987 12.8406 12.2475 13.0779 12.5964C13.3197 12.95 13.4384 13.3733 13.4384 13.871C13.4384 14.2757 13.3616 14.6223 13.2058 14.913ZM19.6904 13.685H15.541C15.541 14.1362 15.6968 14.5688 15.9317 14.8014C16.169 15.0316 16.5085 15.1479 16.9528 15.1479C17.2738 15.1479 17.5459 15.0665 17.7785 14.906C18.0088 14.7456 18.1483 14.5758 18.1995 14.399H19.5904C19.3671 15.0898 19.0275 15.5829 18.567 15.8806C18.1111 16.1783 17.5529 16.3272 16.904 16.3272C16.4504 16.3272 16.0434 16.2527 15.6782 16.1109C15.327 15.9736 15.0107 15.7643 14.7502 15.4945C14.4933 15.2174 14.2948 14.8915 14.1664 14.5362C14.0245 14.1432 13.9547 13.7291 13.9594 13.3128C13.9594 12.8825 14.0315 12.4825 14.171 12.1103C14.4385 11.387 14.9944 10.8078 15.7038 10.5078C16.0829 10.3496 16.4899 10.2705 16.9016 10.2752C17.3901 10.2752 17.8134 10.3682 18.1809 10.5589C18.5347 10.7411 18.8418 11.0021 19.0787 11.3218C19.3136 11.6405 19.4787 12.0033 19.5834 12.4127C19.6834 12.8151 19.7183 13.2384 19.6904 13.685ZM16.8528 11.4614C16.6016 11.4614 16.3899 11.5056 16.2271 11.5916C16.0643 11.6777 15.9294 11.7847 15.8271 11.908C15.7296 12.027 15.6576 12.1647 15.6154 12.3127C15.5782 12.4359 15.5526 12.5615 15.5433 12.6895H18.1134C18.0762 12.2871 17.9367 11.9894 17.7506 11.78C17.5552 11.573 17.2412 11.4614 16.8528 11.4614Z" fill="#F0F0F0"/>
</g>
<defs>
<clipPath id="clip0_4685_2866">
<rect width="23.445" height="23.445" fill="white" transform="translate(0.832458 0.47168)"/>
</clipPath>
</defs>
</svg>
