<svg width="25" height="24" viewBox="0 0 25 24" fill="none" xmlns="http://www.w3.org/2000/svg">
<g clip-path="url(#clip0_4685_2862)">
<path fill-rule="evenodd" clip-rule="evenodd" d="M2.18692 7.90371C2.18692 4.54924 4.92756 1.80859 8.28203 1.80859H16.8667C20.2212 1.80859 22.9618 4.54924 22.9618 7.90371V16.4884C22.9618 19.8428 20.2212 22.5835 16.8667 22.5835H8.28203C4.92756 22.5835 2.18692 19.8428 2.18692 16.4884V7.90371ZM8.28203 3.69722C5.97062 3.69722 4.07555 5.5923 4.07555 7.90371V16.4884C4.07555 18.7998 5.97062 20.6949 8.28203 20.6949H16.8667C19.1781 20.6949 21.0732 18.7998 21.0732 16.4884V7.90371C21.0732 5.5923 19.1781 3.69722 16.8667 3.69722H8.28203ZM12.5743 15.1266C14.1929 15.1266 15.505 13.8145 15.505 12.196C15.505 10.5775 14.1929 9.26537 12.5743 9.26537C10.9558 9.26537 9.6437 10.5775 9.6437 12.196C9.6437 13.8145 10.9558 15.1266 12.5743 15.1266ZM12.5743 17.0804C15.2719 17.0804 17.4587 14.8936 17.4587 12.196C17.4587 9.49843 15.2719 7.31162 12.5743 7.31162C9.87676 7.31162 7.68995 9.49843 7.68995 12.196C7.68995 14.8936 9.87676 17.0804 12.5743 17.0804ZM17.4594 7.31233C17.9989 7.31233 18.4363 6.87496 18.4363 6.33545C18.4363 5.79594 17.9989 5.35857 17.4594 5.35857C16.9199 5.35857 16.4825 5.79594 16.4825 6.33545C16.4825 6.87496 16.9199 7.31233 17.4594 7.31233Z" fill="#F0F0F0"/>
</g>
<defs>
<clipPath id="clip0_4685_2862">
<rect width="23.445" height="23.445" fill="white" transform="translate(0.852264 0.47168)"/>
</clipPath>
</defs>
</svg>
