<svg width="62" height="51" viewBox="0 0 62 51" fill="none" xmlns="http://www.w3.org/2000/svg">
<g clip-path="url(#clip0_4685_2858)">
<path d="M23.5517 34.892C23.4844 34.8311 23.4277 34.7755 23.3807 34.7266C19.2352 31.3366 16.0379 30.1884 13.6164 30.1703C11.2072 30.1523 9.3618 31.2516 7.9283 32.8127C6.47688 34.3934 5.48479 36.4138 4.85185 38.0871C4.53838 38.9158 4.32003 39.6405 4.18094 40.1542C4.12143 40.374 4.07667 40.5542 4.04535 40.6864C4.06617 40.8401 4.08823 41.0377 4.10206 41.2622C4.12681 41.664 4.13166 42.2422 4.00744 42.8285C4.64905 43.3011 5.09635 43.7183 5.40408 44.0534C5.55854 44.2216 5.67751 44.3688 5.76793 44.4913C10.8573 48.3933 15.2601 48.0463 18.5596 46.3358C20.263 45.4527 21.6927 44.1918 22.7614 42.9066C23.8462 41.6021 24.4896 40.3577 24.7076 39.5641C25.1113 38.0947 25.5998 37.034 26.1182 36.2734C25.2937 35.9962 24.6798 35.6867 24.2305 35.4013C23.9354 35.2139 23.7136 35.0384 23.5517 34.892ZM3.98867 40.9389C3.98859 40.9393 3.98858 40.9394 3.98862 40.9392L3.98867 40.9389Z" fill="#F0F0F0" stroke="#1E1E1E" stroke-width="2.77208"/>
<path d="M7.25775 2.09449C7.25986 2.09321 7.26196 2.09194 7.26405 2.09067C16.3797 -0.00357887 22.4009 3.3781 26.1591 8.0119C28.0794 10.3797 29.4157 13.0899 30.2354 15.5943C31.0626 18.1212 31.3307 20.3345 31.2102 21.6935C30.9592 24.5232 31.2388 26.4735 31.7301 27.8202C30.0508 27.5206 28.8044 27.5319 27.9248 27.6458C27.4594 27.706 27.0999 27.7945 26.8366 27.8789C26.7121 27.9188 26.6097 27.9576 26.5284 27.9917C19.1043 29.9454 14.0492 29.464 10.6041 27.8583C7.15977 26.2528 5.11141 23.4236 3.90951 20.2466C2.70024 17.0501 2.37778 13.5688 2.37019 10.8436C2.36642 9.48923 2.44036 8.34108 2.51476 7.53525C2.55192 7.13274 2.58909 6.81678 2.61648 6.60451C2.61893 6.58554 2.6213 6.56741 2.62358 6.55011C2.63105 6.53688 2.63872 6.52324 2.64656 6.5092C2.75223 6.31994 2.89249 6.05321 3.03557 5.73506C3.30885 5.12741 3.64229 4.22408 3.69271 3.27318C4.99728 3.03857 5.91553 2.73277 6.53673 2.46191C6.84934 2.3256 7.0859 2.1985 7.25775 2.09449ZM3.71896 3.08621C3.71898 3.08622 3.71875 3.08685 3.71823 3.08805L3.71896 3.08621Z" fill="#F0F0F0" stroke="#1E1E1E" stroke-width="2.77208"/>
<path d="M60.2795 29.2097C60.2795 40.0701 51.4754 48.8741 40.615 48.8741C29.7546 48.8741 20.9506 40.0701 20.9506 29.2097C20.9506 18.3493 29.7546 9.54522 40.615 9.54522C51.4754 9.54522 60.2795 18.3493 60.2795 29.2097Z" fill="#F0F0F0" stroke="#1E1E1E" stroke-width="2.77208"/>
<path d="M55.4606 27.6321C55.5605 27.8942 55.9431 27.6509 55.8932 27.3887C55.2776 24.2247 52.4328 14.2834 41.0038 12.6359C40.6711 12.5797 40.5546 13.1227 40.8873 13.2537C42.551 13.8528 47.2257 16.1931 50.0539 19.1511C53.0817 22.3338 54.5456 25.3293 55.4606 27.6321Z" fill="#1E1E1E"/>
</g>
<defs>
<clipPath id="clip0_4685_2858">
<rect width="60.947" height="50.5339" fill="white" transform="translate(0.726776 0.0722656)"/>
</clipPath>
</defs>
</svg>
