<svg width="690" height="49" viewBox="0 0 690 49" fill="none" xmlns="http://www.w3.org/2000/svg">
<g clip-path="url(#clip0_4783_6012)">
<g clip-path="url(#clip1_4783_6012)">
<path d="M102 1.98242H24C11.0213 1.98242 0.5 12.5037 0.5 25.4824C0.5 38.4611 11.0213 48.9824 24 48.9824H102C114.979 48.9824 125.5 38.4611 125.5 25.4824C125.5 12.5037 114.979 1.98242 102 1.98242Z" fill="white"/>
<path d="M21.678 31.9822H20.04L13.452 21.9562V31.9822H11.814V19.2922H13.452L20.04 29.3362V19.2922H21.678V31.9822ZM28.794 21.9742C29.742 21.9742 30.588 22.1782 31.332 22.5862C32.088 22.9942 32.676 23.5822 33.096 24.3502C33.528 25.1182 33.744 26.0182 33.744 27.0502C33.744 28.0822 33.528 28.9822 33.096 29.7502C32.676 30.5062 32.088 31.0882 31.332 31.4962C30.588 31.9042 29.742 32.1082 28.794 32.1082C27.846 32.1082 26.994 31.9042 26.238 31.4962C25.494 31.0882 24.906 30.5062 24.474 29.7502C24.042 28.9822 23.826 28.0822 23.826 27.0502C23.826 26.0182 24.042 25.1182 24.474 24.3502C24.906 23.5822 25.494 22.9942 26.238 22.5862C26.994 22.1782 27.846 21.9742 28.794 21.9742ZM28.794 23.4142C28.206 23.4142 27.66 23.5462 27.156 23.8102C26.664 24.0742 26.262 24.4822 25.95 25.0342C25.65 25.5742 25.5 26.2462 25.5 27.0502C25.5 27.8422 25.65 28.5142 25.95 29.0662C26.262 29.6062 26.664 30.0082 27.156 30.2722C27.66 30.5362 28.206 30.6682 28.794 30.6682C29.382 30.6682 29.922 30.5362 30.414 30.2722C30.918 30.0082 31.32 29.6062 31.62 29.0662C31.932 28.5142 32.088 27.8422 32.088 27.0502C32.088 26.2462 31.932 25.5742 31.62 25.0342C31.32 24.4822 30.918 24.0742 30.414 23.8102C29.922 23.5462 29.382 23.4142 28.794 23.4142ZM39.7125 30.2362L42.7725 22.1002H44.5365L40.6665 31.9822H38.7225L34.8525 22.1002H36.6165L39.7125 30.2362ZM49.5113 20.8222V19.2922H53.1473V31.9822H51.4193V20.8222H49.5113ZM63.0133 20.4802L58.2073 31.9822H56.4793L61.3573 20.6422H54.6973V19.2202H63.0133V20.4802ZM65.8188 30.7762C65.9868 31.3042 66.0708 31.7962 66.0708 32.2522C66.0708 32.8762 65.9148 33.3742 65.6028 33.7462C65.2908 34.1302 64.8228 34.3222 64.1988 34.3222V33.6202C64.4988 33.6202 64.7148 33.5362 64.8468 33.3682C64.9908 33.2122 65.0628 32.9602 65.0628 32.6122V32.4502H64.1448V30.7762H65.8188ZM71.9005 30.7222C73.9405 29.3542 75.5725 27.9982 76.7965 26.6542C78.0205 25.2982 78.6325 24.0382 78.6325 22.8742C78.6325 22.1542 78.4465 21.5782 78.0745 21.1462C77.7145 20.7022 77.1265 20.4802 76.3105 20.4802C75.4705 20.4802 74.8345 20.7502 74.4025 21.2902C73.9705 21.8182 73.7305 22.5502 73.6825 23.4862H72.0625C72.1465 22.0702 72.5845 20.9842 73.3765 20.2282C74.1685 19.4602 75.1885 19.0762 76.4365 19.0762C77.6245 19.0762 78.5665 19.3942 79.2625 20.0302C79.9585 20.6662 80.3065 21.5662 80.3065 22.7302C80.3065 23.6902 79.9945 24.6682 79.3705 25.6642C78.7585 26.6482 77.9845 27.5662 77.0485 28.4182C76.1245 29.2582 75.1705 29.9722 74.1865 30.5602H80.6305V31.9102H71.9005V30.7222ZM83.3914 30.3262C82.7194 29.1862 82.3834 27.5962 82.3834 25.5562C82.3834 23.5282 82.7194 21.9502 83.3914 20.8222C84.0634 19.6822 85.2274 19.1122 86.8834 19.1122C88.5394 19.1122 89.7034 19.6822 90.3754 20.8222C91.0594 21.9622 91.4014 23.5402 91.4014 25.5562C91.4014 27.5962 91.0594 29.1862 90.3754 30.3262C89.7034 31.4662 88.5394 32.0362 86.8834 32.0362C85.2274 32.0362 84.0634 31.4662 83.3914 30.3262ZM89.5474 28.1842C89.7034 27.4762 89.7814 26.6002 89.7814 25.5562C89.7814 24.5242 89.7034 23.6602 89.5474 22.9642C89.4034 22.2682 89.1214 21.7162 88.7014 21.3082C88.2814 20.8882 87.6754 20.6782 86.8834 20.6782C86.1034 20.6782 85.5034 20.8882 85.0834 21.3082C84.6634 21.7162 84.3754 22.2682 84.2194 22.9642C84.0754 23.6602 84.0034 24.5242 84.0034 25.5562C84.0034 26.6002 84.0754 27.4762 84.2194 28.1842C84.3754 28.8802 84.6634 29.4382 85.0834 29.8582C85.5034 30.2782 86.1034 30.4882 86.8834 30.4882C87.6754 30.4882 88.2814 30.2782 88.7014 29.8582C89.1214 29.4382 89.4034 28.8802 89.5474 28.1842ZM94.4481 30.3262C93.7761 29.1862 93.4401 27.5962 93.4401 25.5562C93.4401 23.5282 93.7761 21.9502 94.4481 20.8222C95.1201 19.6822 96.2841 19.1122 97.9401 19.1122C99.5961 19.1122 100.76 19.6822 101.432 20.8222C102.116 21.9622 102.458 23.5402 102.458 25.5562C102.458 27.5962 102.116 29.1862 101.432 30.3262C100.76 31.4662 99.5961 32.0362 97.9401 32.0362C96.2841 32.0362 95.1201 31.4662 94.4481 30.3262ZM100.604 28.1842C100.76 27.4762 100.838 26.6002 100.838 25.5562C100.838 24.5242 100.76 23.6602 100.604 22.9642C100.46 22.2682 100.178 21.7162 99.7581 21.3082C99.3381 20.8882 98.7321 20.6782 97.9401 20.6782C97.1601 20.6782 96.5601 20.8882 96.1401 21.3082C95.7201 21.7162 95.4321 22.2682 95.2761 22.9642C95.1321 23.6602 95.0601 24.5242 95.0601 25.5562C95.0601 26.6002 95.1321 27.4762 95.2761 28.1842C95.4321 28.8802 95.7201 29.4382 96.1401 29.8582C96.5601 30.2782 97.1601 30.4882 97.9401 30.4882C98.7321 30.4882 99.3381 30.2782 99.7581 29.8582C100.178 29.4382 100.46 28.8802 100.604 28.1842ZM104.029 29.0662V27.6982L110.545 19.2022H112.309V27.6442H114.181V29.0662H112.309V31.9822H110.653V29.0662H104.029ZM110.761 21.2002L105.757 27.6442H110.761V21.2002Z" fill="#0C317A"/>
<path d="M243 1.98242H165C152.021 1.98242 141.5 12.5037 141.5 25.4824C141.5 38.4611 152.021 48.9824 165 48.9824H243C255.979 48.9824 266.5 38.4611 266.5 25.4824C266.5 12.5037 255.979 1.98242 243 1.98242Z" fill="white"/>
<path d="M162.678 31.9822H161.04L154.452 21.9562V31.9822H152.814V19.2922H154.452L161.04 29.3362V19.2922H162.678V31.9822ZM169.794 21.9742C170.742 21.9742 171.588 22.1782 172.332 22.5862C173.088 22.9942 173.676 23.5822 174.096 24.3502C174.528 25.1182 174.744 26.0182 174.744 27.0502C174.744 28.0822 174.528 28.9822 174.096 29.7502C173.676 30.5062 173.088 31.0882 172.332 31.4962C171.588 31.9042 170.742 32.1082 169.794 32.1082C168.846 32.1082 167.994 31.9042 167.238 31.4962C166.494 31.0882 165.906 30.5062 165.474 29.7502C165.042 28.9822 164.826 28.0822 164.826 27.0502C164.826 26.0182 165.042 25.1182 165.474 24.3502C165.906 23.5822 166.494 22.9942 167.238 22.5862C167.994 22.1782 168.846 21.9742 169.794 21.9742ZM169.794 23.4142C169.206 23.4142 168.66 23.5462 168.156 23.8102C167.664 24.0742 167.262 24.4822 166.95 25.0342C166.65 25.5742 166.5 26.2462 166.5 27.0502C166.5 27.8422 166.65 28.5142 166.95 29.0662C167.262 29.6062 167.664 30.0082 168.156 30.2722C168.66 30.5362 169.206 30.6682 169.794 30.6682C170.382 30.6682 170.922 30.5362 171.414 30.2722C171.918 30.0082 172.32 29.6062 172.62 29.0662C172.932 28.5142 173.088 27.8422 173.088 27.0502C173.088 26.2462 172.932 25.5742 172.62 25.0342C172.32 24.4822 171.918 24.0742 171.414 23.8102C170.922 23.5462 170.382 23.4142 169.794 23.4142ZM180.712 30.2362L183.772 22.1002H185.536L181.666 31.9822H179.722L175.852 22.1002H177.616L180.712 30.2362ZM190.511 20.8222V19.2922H194.147V31.9822H192.419V20.8222H190.511ZM204.013 20.4802L199.207 31.9822H197.479L202.357 20.6422H195.697V19.2202H204.013V20.4802ZM206.819 30.7762C206.987 31.3042 207.071 31.7962 207.071 32.2522C207.071 32.8762 206.915 33.3742 206.603 33.7462C206.291 34.1302 205.823 34.3222 205.199 34.3222V33.6202C205.499 33.6202 205.715 33.5362 205.847 33.3682C205.991 33.2122 206.063 32.9602 206.063 32.6122V32.4502H205.145V30.7762H206.819ZM212.901 30.7222C214.941 29.3542 216.573 27.9982 217.797 26.6542C219.021 25.2982 219.633 24.0382 219.633 22.8742C219.633 22.1542 219.447 21.5782 219.075 21.1462C218.715 20.7022 218.127 20.4802 217.311 20.4802C216.471 20.4802 215.835 20.7502 215.403 21.2902C214.971 21.8182 214.731 22.5502 214.683 23.4862H213.063C213.147 22.0702 213.585 20.9842 214.377 20.2282C215.169 19.4602 216.189 19.0762 217.437 19.0762C218.625 19.0762 219.567 19.3942 220.263 20.0302C220.959 20.6662 221.307 21.5662 221.307 22.7302C221.307 23.6902 220.995 24.6682 220.371 25.6642C219.759 26.6482 218.985 27.5662 218.049 28.4182C217.125 29.2582 216.171 29.9722 215.187 30.5602H221.631V31.9102H212.901V30.7222ZM224.391 30.3262C223.719 29.1862 223.383 27.5962 223.383 25.5562C223.383 23.5282 223.719 21.9502 224.391 20.8222C225.063 19.6822 226.227 19.1122 227.883 19.1122C229.539 19.1122 230.703 19.6822 231.375 20.8222C232.059 21.9622 232.401 23.5402 232.401 25.5562C232.401 27.5962 232.059 29.1862 231.375 30.3262C230.703 31.4662 229.539 32.0362 227.883 32.0362C226.227 32.0362 225.063 31.4662 224.391 30.3262ZM230.547 28.1842C230.703 27.4762 230.781 26.6002 230.781 25.5562C230.781 24.5242 230.703 23.6602 230.547 22.9642C230.403 22.2682 230.121 21.7162 229.701 21.3082C229.281 20.8882 228.675 20.6782 227.883 20.6782C227.103 20.6782 226.503 20.8882 226.083 21.3082C225.663 21.7162 225.375 22.2682 225.219 22.9642C225.075 23.6602 225.003 24.5242 225.003 25.5562C225.003 26.6002 225.075 27.4762 225.219 28.1842C225.375 28.8802 225.663 29.4382 226.083 29.8582C226.503 30.2782 227.103 30.4882 227.883 30.4882C228.675 30.4882 229.281 30.2782 229.701 29.8582C230.121 29.4382 230.403 28.8802 230.547 28.1842ZM235.448 30.3262C234.776 29.1862 234.44 27.5962 234.44 25.5562C234.44 23.5282 234.776 21.9502 235.448 20.8222C236.12 19.6822 237.284 19.1122 238.94 19.1122C240.596 19.1122 241.76 19.6822 242.432 20.8222C243.116 21.9622 243.458 23.5402 243.458 25.5562C243.458 27.5962 243.116 29.1862 242.432 30.3262C241.76 31.4662 240.596 32.0362 238.94 32.0362C237.284 32.0362 236.12 31.4662 235.448 30.3262ZM241.604 28.1842C241.76 27.4762 241.838 26.6002 241.838 25.5562C241.838 24.5242 241.76 23.6602 241.604 22.9642C241.46 22.2682 241.178 21.7162 240.758 21.3082C240.338 20.8882 239.732 20.6782 238.94 20.6782C238.16 20.6782 237.56 20.8882 237.14 21.3082C236.72 21.7162 236.432 22.2682 236.276 22.9642C236.132 23.6602 236.06 24.5242 236.06 25.5562C236.06 26.6002 236.132 27.4762 236.276 28.1842C236.432 28.8802 236.72 29.4382 237.14 29.8582C237.56 30.2782 238.16 30.4882 238.94 30.4882C239.732 30.4882 240.338 30.2782 240.758 29.8582C241.178 29.4382 241.46 28.8802 241.604 28.1842ZM245.029 29.0662V27.6982L251.545 19.2022H253.309V27.6442H255.181V29.0662H253.309V31.9822H251.653V29.0662H245.029ZM251.761 21.2002L246.757 27.6442H251.761V21.2002Z" fill="#00495E"/>
<path d="M384 1.98242H306C293.021 1.98242 282.5 12.5037 282.5 25.4824C282.5 38.4611 293.021 48.9824 306 48.9824H384C396.979 48.9824 407.5 38.4611 407.5 25.4824C407.5 12.5037 396.979 1.98242 384 1.98242Z" fill="white"/>
<path d="M303.678 31.9822H302.04L295.452 21.9562V31.9822H293.814V19.2922H295.452L302.04 29.3362V19.2922H303.678V31.9822ZM310.794 21.9742C311.742 21.9742 312.588 22.1782 313.332 22.5862C314.088 22.9942 314.676 23.5822 315.096 24.3502C315.528 25.1182 315.744 26.0182 315.744 27.0502C315.744 28.0822 315.528 28.9822 315.096 29.7502C314.676 30.5062 314.088 31.0882 313.332 31.4962C312.588 31.9042 311.742 32.1082 310.794 32.1082C309.846 32.1082 308.994 31.9042 308.238 31.4962C307.494 31.0882 306.906 30.5062 306.474 29.7502C306.042 28.9822 305.826 28.0822 305.826 27.0502C305.826 26.0182 306.042 25.1182 306.474 24.3502C306.906 23.5822 307.494 22.9942 308.238 22.5862C308.994 22.1782 309.846 21.9742 310.794 21.9742ZM310.794 23.4142C310.206 23.4142 309.66 23.5462 309.156 23.8102C308.664 24.0742 308.262 24.4822 307.95 25.0342C307.65 25.5742 307.5 26.2462 307.5 27.0502C307.5 27.8422 307.65 28.5142 307.95 29.0662C308.262 29.6062 308.664 30.0082 309.156 30.2722C309.66 30.5362 310.206 30.6682 310.794 30.6682C311.382 30.6682 311.922 30.5362 312.414 30.2722C312.918 30.0082 313.32 29.6062 313.62 29.0662C313.932 28.5142 314.088 27.8422 314.088 27.0502C314.088 26.2462 313.932 25.5742 313.62 25.0342C313.32 24.4822 312.918 24.0742 312.414 23.8102C311.922 23.5462 311.382 23.4142 310.794 23.4142ZM321.712 30.2362L324.772 22.1002H326.536L322.666 31.9822H320.722L316.852 22.1002H318.616L321.712 30.2362ZM331.511 20.8222V19.2922H335.147V31.9822H333.419V20.8222H331.511ZM345.013 20.4802L340.207 31.9822H338.479L343.357 20.6422H336.697V19.2202H345.013V20.4802ZM347.819 30.7762C347.987 31.3042 348.071 31.7962 348.071 32.2522C348.071 32.8762 347.915 33.3742 347.603 33.7462C347.291 34.1302 346.823 34.3222 346.199 34.3222V33.6202C346.499 33.6202 346.715 33.5362 346.847 33.3682C346.991 33.2122 347.063 32.9602 347.063 32.6122V32.4502H346.145V30.7762H347.819ZM353.901 30.7222C355.941 29.3542 357.573 27.9982 358.797 26.6542C360.021 25.2982 360.633 24.0382 360.633 22.8742C360.633 22.1542 360.447 21.5782 360.075 21.1462C359.715 20.7022 359.127 20.4802 358.311 20.4802C357.471 20.4802 356.835 20.7502 356.403 21.2902C355.971 21.8182 355.731 22.5502 355.683 23.4862H354.063C354.147 22.0702 354.585 20.9842 355.377 20.2282C356.169 19.4602 357.189 19.0762 358.437 19.0762C359.625 19.0762 360.567 19.3942 361.263 20.0302C361.959 20.6662 362.307 21.5662 362.307 22.7302C362.307 23.6902 361.995 24.6682 361.371 25.6642C360.759 26.6482 359.985 27.5662 359.049 28.4182C358.125 29.2582 357.171 29.9722 356.187 30.5602H362.631V31.9102H353.901V30.7222ZM365.391 30.3262C364.719 29.1862 364.383 27.5962 364.383 25.5562C364.383 23.5282 364.719 21.9502 365.391 20.8222C366.063 19.6822 367.227 19.1122 368.883 19.1122C370.539 19.1122 371.703 19.6822 372.375 20.8222C373.059 21.9622 373.401 23.5402 373.401 25.5562C373.401 27.5962 373.059 29.1862 372.375 30.3262C371.703 31.4662 370.539 32.0362 368.883 32.0362C367.227 32.0362 366.063 31.4662 365.391 30.3262ZM371.547 28.1842C371.703 27.4762 371.781 26.6002 371.781 25.5562C371.781 24.5242 371.703 23.6602 371.547 22.9642C371.403 22.2682 371.121 21.7162 370.701 21.3082C370.281 20.8882 369.675 20.6782 368.883 20.6782C368.103 20.6782 367.503 20.8882 367.083 21.3082C366.663 21.7162 366.375 22.2682 366.219 22.9642C366.075 23.6602 366.003 24.5242 366.003 25.5562C366.003 26.6002 366.075 27.4762 366.219 28.1842C366.375 28.8802 366.663 29.4382 367.083 29.8582C367.503 30.2782 368.103 30.4882 368.883 30.4882C369.675 30.4882 370.281 30.2782 370.701 29.8582C371.121 29.4382 371.403 28.8802 371.547 28.1842ZM376.448 30.3262C375.776 29.1862 375.44 27.5962 375.44 25.5562C375.44 23.5282 375.776 21.9502 376.448 20.8222C377.12 19.6822 378.284 19.1122 379.94 19.1122C381.596 19.1122 382.76 19.6822 383.432 20.8222C384.116 21.9622 384.458 23.5402 384.458 25.5562C384.458 27.5962 384.116 29.1862 383.432 30.3262C382.76 31.4662 381.596 32.0362 379.94 32.0362C378.284 32.0362 377.12 31.4662 376.448 30.3262ZM382.604 28.1842C382.76 27.4762 382.838 26.6002 382.838 25.5562C382.838 24.5242 382.76 23.6602 382.604 22.9642C382.46 22.2682 382.178 21.7162 381.758 21.3082C381.338 20.8882 380.732 20.6782 379.94 20.6782C379.16 20.6782 378.56 20.8882 378.14 21.3082C377.72 21.7162 377.432 22.2682 377.276 22.9642C377.132 23.6602 377.06 24.5242 377.06 25.5562C377.06 26.6002 377.132 27.4762 377.276 28.1842C377.432 28.8802 377.72 29.4382 378.14 29.8582C378.56 30.2782 379.16 30.4882 379.94 30.4882C380.732 30.4882 381.338 30.2782 381.758 29.8582C382.178 29.4382 382.46 28.8802 382.604 28.1842ZM386.029 29.0662V27.6982L392.545 19.2022H394.309V27.6442H396.181V29.0662H394.309V31.9822H392.653V29.0662H386.029ZM392.761 21.2002L387.757 27.6442H392.761V21.2002Z" fill="#8C360F"/>
<path d="M525 1.98242H447C434.021 1.98242 423.5 12.5037 423.5 25.4824C423.5 38.4611 434.021 48.9824 447 48.9824H525C537.979 48.9824 548.5 38.4611 548.5 25.4824C548.5 12.5037 537.979 1.98242 525 1.98242Z" fill="white"/>
<path d="M444.678 31.9822H443.04L436.452 21.9562V31.9822H434.814V19.2922H436.452L443.04 29.3362V19.2922H444.678V31.9822ZM451.794 21.9742C452.742 21.9742 453.588 22.1782 454.332 22.5862C455.088 22.9942 455.676 23.5822 456.096 24.3502C456.528 25.1182 456.744 26.0182 456.744 27.0502C456.744 28.0822 456.528 28.9822 456.096 29.7502C455.676 30.5062 455.088 31.0882 454.332 31.4962C453.588 31.9042 452.742 32.1082 451.794 32.1082C450.846 32.1082 449.994 31.9042 449.238 31.4962C448.494 31.0882 447.906 30.5062 447.474 29.7502C447.042 28.9822 446.826 28.0822 446.826 27.0502C446.826 26.0182 447.042 25.1182 447.474 24.3502C447.906 23.5822 448.494 22.9942 449.238 22.5862C449.994 22.1782 450.846 21.9742 451.794 21.9742ZM451.794 23.4142C451.206 23.4142 450.66 23.5462 450.156 23.8102C449.664 24.0742 449.262 24.4822 448.95 25.0342C448.65 25.5742 448.5 26.2462 448.5 27.0502C448.5 27.8422 448.65 28.5142 448.95 29.0662C449.262 29.6062 449.664 30.0082 450.156 30.2722C450.66 30.5362 451.206 30.6682 451.794 30.6682C452.382 30.6682 452.922 30.5362 453.414 30.2722C453.918 30.0082 454.32 29.6062 454.62 29.0662C454.932 28.5142 455.088 27.8422 455.088 27.0502C455.088 26.2462 454.932 25.5742 454.62 25.0342C454.32 24.4822 453.918 24.0742 453.414 23.8102C452.922 23.5462 452.382 23.4142 451.794 23.4142ZM462.712 30.2362L465.772 22.1002H467.536L463.666 31.9822H461.722L457.852 22.1002H459.616L462.712 30.2362ZM472.511 20.8222V19.2922H476.147V31.9822H474.419V20.8222H472.511ZM486.013 20.4802L481.207 31.9822H479.479L484.357 20.6422H477.697V19.2202H486.013V20.4802ZM488.819 30.7762C488.987 31.3042 489.071 31.7962 489.071 32.2522C489.071 32.8762 488.915 33.3742 488.603 33.7462C488.291 34.1302 487.823 34.3222 487.199 34.3222V33.6202C487.499 33.6202 487.715 33.5362 487.847 33.3682C487.991 33.2122 488.063 32.9602 488.063 32.6122V32.4502H487.145V30.7762H488.819ZM494.901 30.7222C496.941 29.3542 498.573 27.9982 499.797 26.6542C501.021 25.2982 501.633 24.0382 501.633 22.8742C501.633 22.1542 501.447 21.5782 501.075 21.1462C500.715 20.7022 500.127 20.4802 499.311 20.4802C498.471 20.4802 497.835 20.7502 497.403 21.2902C496.971 21.8182 496.731 22.5502 496.683 23.4862H495.063C495.147 22.0702 495.585 20.9842 496.377 20.2282C497.169 19.4602 498.189 19.0762 499.437 19.0762C500.625 19.0762 501.567 19.3942 502.263 20.0302C502.959 20.6662 503.307 21.5662 503.307 22.7302C503.307 23.6902 502.995 24.6682 502.371 25.6642C501.759 26.6482 500.985 27.5662 500.049 28.4182C499.125 29.2582 498.171 29.9722 497.187 30.5602H503.631V31.9102H494.901V30.7222ZM506.391 30.3262C505.719 29.1862 505.383 27.5962 505.383 25.5562C505.383 23.5282 505.719 21.9502 506.391 20.8222C507.063 19.6822 508.227 19.1122 509.883 19.1122C511.539 19.1122 512.703 19.6822 513.375 20.8222C514.059 21.9622 514.401 23.5402 514.401 25.5562C514.401 27.5962 514.059 29.1862 513.375 30.3262C512.703 31.4662 511.539 32.0362 509.883 32.0362C508.227 32.0362 507.063 31.4662 506.391 30.3262ZM512.547 28.1842C512.703 27.4762 512.781 26.6002 512.781 25.5562C512.781 24.5242 512.703 23.6602 512.547 22.9642C512.403 22.2682 512.121 21.7162 511.701 21.3082C511.281 20.8882 510.675 20.6782 509.883 20.6782C509.103 20.6782 508.503 20.8882 508.083 21.3082C507.663 21.7162 507.375 22.2682 507.219 22.9642C507.075 23.6602 507.003 24.5242 507.003 25.5562C507.003 26.6002 507.075 27.4762 507.219 28.1842C507.375 28.8802 507.663 29.4382 508.083 29.8582C508.503 30.2782 509.103 30.4882 509.883 30.4882C510.675 30.4882 511.281 30.2782 511.701 29.8582C512.121 29.4382 512.403 28.8802 512.547 28.1842ZM517.448 30.3262C516.776 29.1862 516.44 27.5962 516.44 25.5562C516.44 23.5282 516.776 21.9502 517.448 20.8222C518.12 19.6822 519.284 19.1122 520.94 19.1122C522.596 19.1122 523.76 19.6822 524.432 20.8222C525.116 21.9622 525.458 23.5402 525.458 25.5562C525.458 27.5962 525.116 29.1862 524.432 30.3262C523.76 31.4662 522.596 32.0362 520.94 32.0362C519.284 32.0362 518.12 31.4662 517.448 30.3262ZM523.604 28.1842C523.76 27.4762 523.838 26.6002 523.838 25.5562C523.838 24.5242 523.76 23.6602 523.604 22.9642C523.46 22.2682 523.178 21.7162 522.758 21.3082C522.338 20.8882 521.732 20.6782 520.94 20.6782C520.16 20.6782 519.56 20.8882 519.14 21.3082C518.72 21.7162 518.432 22.2682 518.276 22.9642C518.132 23.6602 518.06 24.5242 518.06 25.5562C518.06 26.6002 518.132 27.4762 518.276 28.1842C518.432 28.8802 518.72 29.4382 519.14 29.8582C519.56 30.2782 520.16 30.4882 520.94 30.4882C521.732 30.4882 522.338 30.2782 522.758 29.8582C523.178 29.4382 523.46 28.8802 523.604 28.1842ZM527.029 29.0662V27.6982L533.545 19.2022H535.309V27.6442H537.181V29.0662H535.309V31.9822H533.653V29.0662H527.029ZM533.761 21.2002L528.757 27.6442H533.761V21.2002Z" fill="#292929"/>
<path d="M666 1.98242H588C575.021 1.98242 564.5 12.5037 564.5 25.4824C564.5 38.4611 575.021 48.9824 588 48.9824H666C678.979 48.9824 689.5 38.4611 689.5 25.4824C689.5 12.5037 678.979 1.98242 666 1.98242Z" fill="white"/>
<path d="M585.678 31.9822H584.04L577.452 21.9562V31.9822H575.814V19.2922H577.452L584.04 29.3362V19.2922H585.678V31.9822ZM592.794 21.9742C593.742 21.9742 594.588 22.1782 595.332 22.5862C596.088 22.9942 596.676 23.5822 597.096 24.3502C597.528 25.1182 597.744 26.0182 597.744 27.0502C597.744 28.0822 597.528 28.9822 597.096 29.7502C596.676 30.5062 596.088 31.0882 595.332 31.4962C594.588 31.9042 593.742 32.1082 592.794 32.1082C591.846 32.1082 590.994 31.9042 590.238 31.4962C589.494 31.0882 588.906 30.5062 588.474 29.7502C588.042 28.9822 587.826 28.0822 587.826 27.0502C587.826 26.0182 588.042 25.1182 588.474 24.3502C588.906 23.5822 589.494 22.9942 590.238 22.5862C590.994 22.1782 591.846 21.9742 592.794 21.9742ZM592.794 23.4142C592.206 23.4142 591.66 23.5462 591.156 23.8102C590.664 24.0742 590.262 24.4822 589.95 25.0342C589.65 25.5742 589.5 26.2462 589.5 27.0502C589.5 27.8422 589.65 28.5142 589.95 29.0662C590.262 29.6062 590.664 30.0082 591.156 30.2722C591.66 30.5362 592.206 30.6682 592.794 30.6682C593.382 30.6682 593.922 30.5362 594.414 30.2722C594.918 30.0082 595.32 29.6062 595.62 29.0662C595.932 28.5142 596.088 27.8422 596.088 27.0502C596.088 26.2462 595.932 25.5742 595.62 25.0342C595.32 24.4822 594.918 24.0742 594.414 23.8102C593.922 23.5462 593.382 23.4142 592.794 23.4142ZM603.712 30.2362L606.772 22.1002H608.536L604.666 31.9822H602.722L598.852 22.1002H600.616L603.712 30.2362ZM613.511 20.8222V19.2922H617.147V31.9822H615.419V20.8222H613.511ZM627.013 20.4802L622.207 31.9822H620.479L625.357 20.6422H618.697V19.2202H627.013V20.4802ZM629.819 30.7762C629.987 31.3042 630.071 31.7962 630.071 32.2522C630.071 32.8762 629.915 33.3742 629.603 33.7462C629.291 34.1302 628.823 34.3222 628.199 34.3222V33.6202C628.499 33.6202 628.715 33.5362 628.847 33.3682C628.991 33.2122 629.063 32.9602 629.063 32.6122V32.4502H628.145V30.7762H629.819ZM635.901 30.7222C637.941 29.3542 639.573 27.9982 640.797 26.6542C642.021 25.2982 642.633 24.0382 642.633 22.8742C642.633 22.1542 642.447 21.5782 642.075 21.1462C641.715 20.7022 641.127 20.4802 640.311 20.4802C639.471 20.4802 638.835 20.7502 638.403 21.2902C637.971 21.8182 637.731 22.5502 637.683 23.4862H636.063C636.147 22.0702 636.585 20.9842 637.377 20.2282C638.169 19.4602 639.189 19.0762 640.437 19.0762C641.625 19.0762 642.567 19.3942 643.263 20.0302C643.959 20.6662 644.307 21.5662 644.307 22.7302C644.307 23.6902 643.995 24.6682 643.371 25.6642C642.759 26.6482 641.985 27.5662 641.049 28.4182C640.125 29.2582 639.171 29.9722 638.187 30.5602H644.631V31.9102H635.901V30.7222ZM647.391 30.3262C646.719 29.1862 646.383 27.5962 646.383 25.5562C646.383 23.5282 646.719 21.9502 647.391 20.8222C648.063 19.6822 649.227 19.1122 650.883 19.1122C652.539 19.1122 653.703 19.6822 654.375 20.8222C655.059 21.9622 655.401 23.5402 655.401 25.5562C655.401 27.5962 655.059 29.1862 654.375 30.3262C653.703 31.4662 652.539 32.0362 650.883 32.0362C649.227 32.0362 648.063 31.4662 647.391 30.3262ZM653.547 28.1842C653.703 27.4762 653.781 26.6002 653.781 25.5562C653.781 24.5242 653.703 23.6602 653.547 22.9642C653.403 22.2682 653.121 21.7162 652.701 21.3082C652.281 20.8882 651.675 20.6782 650.883 20.6782C650.103 20.6782 649.503 20.8882 649.083 21.3082C648.663 21.7162 648.375 22.2682 648.219 22.9642C648.075 23.6602 648.003 24.5242 648.003 25.5562C648.003 26.6002 648.075 27.4762 648.219 28.1842C648.375 28.8802 648.663 29.4382 649.083 29.8582C649.503 30.2782 650.103 30.4882 650.883 30.4882C651.675 30.4882 652.281 30.2782 652.701 29.8582C653.121 29.4382 653.403 28.8802 653.547 28.1842ZM658.448 30.3262C657.776 29.1862 657.44 27.5962 657.44 25.5562C657.44 23.5282 657.776 21.9502 658.448 20.8222C659.12 19.6822 660.284 19.1122 661.94 19.1122C663.596 19.1122 664.76 19.6822 665.432 20.8222C666.116 21.9622 666.458 23.5402 666.458 25.5562C666.458 27.5962 666.116 29.1862 665.432 30.3262C664.76 31.4662 663.596 32.0362 661.94 32.0362C660.284 32.0362 659.12 31.4662 658.448 30.3262ZM664.604 28.1842C664.76 27.4762 664.838 26.6002 664.838 25.5562C664.838 24.5242 664.76 23.6602 664.604 22.9642C664.46 22.2682 664.178 21.7162 663.758 21.3082C663.338 20.8882 662.732 20.6782 661.94 20.6782C661.16 20.6782 660.56 20.8882 660.14 21.3082C659.72 21.7162 659.432 22.2682 659.276 22.9642C659.132 23.6602 659.06 24.5242 659.06 25.5562C659.06 26.6002 659.132 27.4762 659.276 28.1842C659.432 28.8802 659.72 29.4382 660.14 29.8582C660.56 30.2782 661.16 30.4882 661.94 30.4882C662.732 30.4882 663.338 30.2782 663.758 29.8582C664.178 29.4382 664.46 28.8802 664.604 28.1842ZM668.029 29.0662V27.6982L674.545 19.2022H676.309V27.6442H678.181V29.0662H676.309V31.9822H674.653V29.0662H668.029ZM674.761 21.2002L669.757 27.6442H674.761V21.2002Z" fill="#00202F"/>
</g>
</g>
<defs>
<clipPath id="clip0_4783_6012">
<rect width="690" height="48" fill="white" transform="translate(0 0.991211)"/>
</clipPath>
<clipPath id="clip1_4783_6012">
<rect width="690" height="48" fill="white" transform="translate(0 0.991211)"/>
</clipPath>
</defs>
</svg>
