<svg width="950" height="209" viewBox="0 0 950 209" fill="none" xmlns="http://www.w3.org/2000/svg">
<g clip-path="url(#clip0_4782_5932)">
<g clip-path="url(#clip1_4782_5932)">
<path d="M255.105 4.51367H132.223C122.103 4.51367 113.899 12.7178 113.899 22.8382C113.899 32.9585 122.103 41.1627 132.223 41.1627H255.105C265.226 41.1627 273.43 32.9585 273.43 22.8382C273.43 12.7178 265.226 4.51367 255.105 4.51367Z" stroke="#F28B30" stroke-width="1.43722"/>
<path d="M255.105 4.51367H132.223C122.103 4.51367 113.899 12.7178 113.899 22.8382C113.899 32.9585 122.103 41.1627 132.223 41.1627H255.105C265.226 41.1627 273.43 32.9585 273.43 22.8382C273.43 12.7178 265.226 4.51367 255.105 4.51367Z" stroke="#F28B30" stroke-width="1.43722"/>
<path d="M254.964 5.95117H132.367C122.962 5.95117 115.337 13.5759 115.337 22.9814C115.337 32.387 122.962 40.0117 132.367 40.0117H254.964C264.369 40.0117 271.994 32.387 271.994 22.9814C271.994 13.5759 264.369 5.95117 254.964 5.95117Z" fill="white"/>
<path d="M138.331 16.1543H137.613V29.8079H138.331V16.1543Z" fill="black"/>
<path d="M140.213 17.8345L143.612 27.3834L147.059 17.8345H148.624L144.529 28.9801H142.711L138.632 17.8345H140.213ZM153.634 20.1901C154.477 20.1901 155.189 20.4009 155.769 20.8225C156.359 21.2441 156.77 21.808 157.002 22.5141V20.3008H158.44V28.9801H157.002V26.7668C156.77 27.473 156.359 28.0369 155.769 28.4584C155.189 28.88 154.477 29.0908 153.634 29.0908C152.865 29.0908 152.18 28.9116 151.579 28.5533C150.978 28.1949 150.504 27.6838 150.156 27.0198C149.819 26.3453 149.65 25.5548 149.65 24.6484C149.65 23.742 149.819 22.9516 150.156 22.2771C150.504 21.6025 150.978 21.086 151.579 20.7277C152.18 20.3693 152.865 20.1901 153.634 20.1901ZM154.045 21.4707C153.16 21.4707 152.449 21.7553 151.911 22.3244C151.384 22.883 151.121 23.6577 151.121 24.6484C151.121 25.6391 151.384 26.419 151.911 26.9882C152.449 27.5468 153.16 27.8261 154.045 27.8261C154.614 27.8261 155.12 27.6943 155.563 27.4308C156.016 27.1673 156.369 26.7985 156.622 26.3242C156.875 25.8393 157.002 25.2808 157.002 24.6484C157.002 24.016 156.875 23.4574 156.622 22.9726C156.369 22.4878 156.016 22.1189 155.563 21.8659C155.12 21.6024 154.614 21.4707 154.045 21.4707ZM162.169 17.2812V28.9801H160.73V17.2812H162.169ZM172.197 20.3008V28.9801H170.758V26.9407C170.537 27.6469 170.141 28.1897 169.572 28.5691C169.014 28.938 168.36 29.1224 167.612 29.1224C166.611 29.1224 165.799 28.801 165.177 28.1581C164.555 27.5046 164.244 26.5719 164.244 25.3598V20.3008H165.683V25.2175C165.683 26.0818 165.904 26.751 166.347 27.2253C166.79 27.689 167.391 27.9209 168.149 27.9209C168.94 27.9209 169.572 27.668 170.047 27.1621C170.521 26.6456 170.758 25.8973 170.758 24.9171V20.3008H172.197ZM182.485 24.1583C182.485 24.4639 182.464 24.7274 182.422 24.9488H175.482C175.513 25.9395 175.793 26.6825 176.32 27.1779C176.857 27.6732 177.51 27.9209 178.28 27.9209C178.975 27.9209 179.555 27.7471 180.019 27.3993C180.493 27.041 180.783 26.5666 180.888 25.9764H182.422C182.317 26.5771 182.079 27.1146 181.711 27.5889C181.352 28.0632 180.883 28.4321 180.303 28.6956C179.724 28.9591 179.07 29.0908 178.343 29.0908C177.51 29.0908 176.773 28.9116 176.13 28.5533C175.487 28.1949 174.981 27.6838 174.612 27.0198C174.254 26.3453 174.075 25.5548 174.075 24.6484C174.075 23.742 174.254 22.9516 174.612 22.2771C174.981 21.6025 175.487 21.086 176.13 20.7277C176.773 20.3693 177.51 20.1901 178.343 20.1901C179.186 20.1901 179.919 20.3693 180.541 20.7277C181.173 21.086 181.653 21.5655 181.979 22.1663C182.317 22.7671 182.485 23.4312 182.485 24.1583ZM181.031 24.2531C181.062 23.6102 180.957 23.0727 180.715 22.6406C180.472 22.2085 180.14 21.887 179.719 21.6762C179.297 21.4654 178.838 21.36 178.343 21.36C177.553 21.36 176.889 21.6077 176.351 22.1031C175.814 22.5879 175.524 23.3046 175.482 24.2531H181.031Z" fill="#BCBCBC"/>
<path fill-rule="evenodd" clip-rule="evenodd" d="M243.077 23.7512L247.194 27.8688L246.123 28.9395L242.006 24.8219C241.237 25.3752 240.31 25.713 239.297 25.713C236.717 25.713 234.626 23.6218 234.626 21.042C234.626 18.4622 236.717 16.3711 239.297 16.3711C241.876 16.3711 243.968 18.4622 243.968 21.042C243.968 22.0553 243.63 22.9823 243.077 23.7512ZM239.297 17.8083C237.507 17.8083 236.063 19.2527 236.063 21.042C236.063 22.8314 237.507 24.2758 239.297 24.2758C241.086 24.2758 242.53 22.8314 242.53 21.042C242.53 19.2527 241.086 17.8083 239.297 17.8083Z" fill="#BCBCBC"/>
<path d="M254.964 5.95117H132.367C122.962 5.95117 115.337 13.5759 115.337 22.9814C115.337 32.387 122.962 40.0117 132.367 40.0117H254.964C264.369 40.0117 271.994 32.387 271.994 22.9814C271.994 13.5759 264.369 5.95117 254.964 5.95117Z" stroke="#BCBCBC" stroke-width="1.43722"/>
<path d="M442.662 3.07617H319.781C308.867 3.07617 300.019 11.9238 300.019 22.8379C300.019 33.752 308.867 42.5996 319.781 42.5996H442.662C453.576 42.5996 462.424 33.752 462.424 22.8379C462.424 11.9238 453.576 3.07617 442.662 3.07617Z" stroke="#F7B062" stroke-width="1.43722"/>
<path d="M442.663 4.51367H319.781C309.66 4.51367 301.456 12.7178 301.456 22.8382C301.456 32.9585 309.66 41.1627 319.781 41.1627H442.663C452.783 41.1627 460.987 32.9585 460.987 22.8382C460.987 12.7178 452.783 4.51367 442.663 4.51367Z" stroke="#F28B30" stroke-width="1.43722"/>
<path d="M442.52 5.95117H319.923C310.518 5.95117 302.893 13.5759 302.893 22.9814C302.893 32.387 310.518 40.0117 319.923 40.0117H442.52C451.925 40.0117 459.55 32.387 459.55 22.9814C459.55 13.5759 451.925 5.95117 442.52 5.95117Z" fill="white"/>
<path d="M325.889 16.1543H325.17V29.8079H325.889V16.1543Z" fill="black"/>
<path d="M327.77 17.8345L331.169 27.3834L334.616 17.8345H336.181L332.086 28.9801H330.268L326.189 17.8345H327.77ZM341.191 20.1901C342.034 20.1901 342.746 20.4009 343.325 20.8225C343.916 21.2441 344.327 21.808 344.559 22.5141V20.3008H345.997V28.9801H344.559V26.7668C344.327 27.473 343.916 28.0369 343.325 28.4584C342.746 28.88 342.034 29.0908 341.191 29.0908C340.422 29.0908 339.737 28.9116 339.136 28.5533C338.535 28.1949 338.061 27.6838 337.713 27.0198C337.376 26.3453 337.207 25.5548 337.207 24.6484C337.207 23.742 337.376 22.9516 337.713 22.2771C338.061 21.6025 338.535 21.086 339.136 20.7277C339.737 20.3693 340.422 20.1901 341.191 20.1901ZM341.602 21.4707C340.717 21.4707 340.005 21.7553 339.468 22.3244C338.941 22.883 338.677 23.6577 338.677 24.6484C338.677 25.6391 338.941 26.419 339.468 26.9882C340.005 27.5468 340.717 27.8261 341.602 27.8261C342.171 27.8261 342.677 27.6943 343.12 27.4308C343.573 27.1673 343.926 26.7985 344.179 26.3242C344.432 25.8393 344.559 25.2808 344.559 24.6484C344.559 24.016 344.432 23.4574 344.179 22.9726C343.926 22.4878 343.573 22.1189 343.12 21.8659C342.677 21.6024 342.171 21.4707 341.602 21.4707ZM349.726 17.2812V28.9801H348.287V17.2812H349.726ZM359.753 20.3008V28.9801H358.315V26.9407C358.093 27.6469 357.698 28.1897 357.129 28.5691C356.571 28.938 355.917 29.1224 355.169 29.1224C354.167 29.1224 353.356 28.801 352.734 28.1581C352.112 27.5046 351.801 26.5719 351.801 25.3598V20.3008H353.24V25.2175C353.24 26.0818 353.461 26.751 353.904 27.2253C354.347 27.689 354.947 27.9209 355.706 27.9209C356.497 27.9209 357.129 27.668 357.603 27.1621C358.078 26.6456 358.315 25.8973 358.315 24.9171V20.3008H359.753ZM370.042 24.1583C370.042 24.4639 370.021 24.7274 369.979 24.9488H363.038C363.07 25.9395 363.349 26.6825 363.876 27.1779C364.414 27.6732 365.067 27.9209 365.837 27.9209C366.532 27.9209 367.112 27.7471 367.576 27.3993C368.05 27.041 368.34 26.5666 368.445 25.9764H369.979C369.873 26.5771 369.636 27.1146 369.267 27.5889C368.909 28.0632 368.44 28.4321 367.86 28.6956C367.281 28.9591 366.627 29.0908 365.9 29.0908C365.067 29.0908 364.33 28.9116 363.687 28.5533C363.044 28.1949 362.538 27.6838 362.169 27.0198C361.811 26.3453 361.631 25.5548 361.631 24.6484C361.631 23.742 361.811 22.9516 362.169 22.2771C362.538 21.6025 363.044 21.086 363.687 20.7277C364.33 20.3693 365.067 20.1901 365.9 20.1901C366.743 20.1901 367.476 20.3693 368.097 20.7277C368.73 21.086 369.209 21.5655 369.536 22.1663C369.873 22.7671 370.042 23.4312 370.042 24.1583ZM368.588 24.2531C368.619 23.6102 368.514 23.0727 368.271 22.6406C368.029 22.2085 367.697 21.887 367.275 21.6762C366.854 21.4654 366.395 21.36 365.9 21.36C365.11 21.36 364.446 21.6077 363.908 22.1031C363.37 22.5879 363.081 23.3046 363.038 24.2531H368.588Z" fill="#BCBCBC"/>
<path fill-rule="evenodd" clip-rule="evenodd" d="M430.633 23.7512L434.751 27.8688L433.68 28.9395L429.562 24.8219C428.794 25.3752 427.867 25.713 426.853 25.713C424.274 25.713 422.182 23.6218 422.182 21.042C422.182 18.4622 424.274 16.3711 426.853 16.3711C429.433 16.3711 431.524 18.4622 431.524 21.042C431.524 22.0553 431.187 22.9823 430.633 23.7512ZM426.853 17.8083C425.064 17.8083 423.62 19.2527 423.62 21.042C423.62 22.8314 425.064 24.2758 426.853 24.2758C428.643 24.2758 430.087 22.8314 430.087 21.042C430.087 19.2527 428.643 17.8083 426.853 17.8083Z" fill="#454545"/>
<path d="M442.52 5.95117H319.923C310.518 5.95117 302.893 13.5759 302.893 22.9814C302.893 32.387 310.518 40.0117 319.923 40.0117H442.52C451.925 40.0117 459.55 32.387 459.55 22.9814C459.55 13.5759 451.925 5.95117 442.52 5.95117Z" stroke="#454545" stroke-width="1.43722"/>
<path d="M507.337 1.63867H630.219C641.927 1.63867 651.418 11.1297 651.418 22.8376V22.8377C651.418 34.5455 641.927 44.0366 630.219 44.0366H507.337C495.629 44.0366 486.138 34.5455 486.138 22.8377V22.8376C486.138 11.1297 495.629 1.63867 507.337 1.63867Z" stroke="#F7B062" stroke-width="1.43722"/>
<path d="M630.219 3.07617H507.338C496.424 3.07617 487.576 11.9238 487.576 22.8379C487.576 33.752 496.424 42.5996 507.338 42.5996H630.219C641.134 42.5996 649.981 33.752 649.981 22.8379C649.981 11.9238 641.134 3.07617 630.219 3.07617Z" stroke="#F28B30" stroke-width="1.43722"/>
<path d="M630.077 5.95117H507.48C498.075 5.95117 490.45 13.5759 490.45 22.9814C490.45 32.387 498.075 40.0117 507.48 40.0117H630.077C639.482 40.0117 647.107 32.387 647.107 22.9814C647.107 13.5759 639.482 5.95117 630.077 5.95117Z" fill="white"/>
<path d="M514.608 17.8345L518.007 27.3834L521.454 17.8345H523.019L518.924 28.9801H517.106L513.027 17.8345H514.608ZM528.029 20.1901C528.872 20.1901 529.584 20.4009 530.163 20.8225C530.754 21.2441 531.165 21.808 531.397 22.5141V20.3008H532.835V28.9801H531.397V26.7668C531.165 27.473 530.754 28.0369 530.163 28.4584C529.584 28.88 528.872 29.0908 528.029 29.0908C527.26 29.0908 526.575 28.9116 525.974 28.5533C525.373 28.1949 524.899 27.6838 524.551 27.0198C524.214 26.3453 524.045 25.5548 524.045 24.6484C524.045 23.742 524.214 22.9516 524.551 22.2771C524.899 21.6025 525.373 21.086 525.974 20.7277C526.575 20.3693 527.26 20.1901 528.029 20.1901ZM528.44 21.4707C527.555 21.4707 526.843 21.7553 526.306 22.3244C525.779 22.883 525.515 23.6577 525.515 24.6484C525.515 25.6391 525.779 26.419 526.306 26.9882C526.843 27.5468 527.555 27.8261 528.44 27.8261C529.009 27.8261 529.515 27.6943 529.958 27.4308C530.411 27.1673 530.764 26.7985 531.017 26.3242C531.27 25.8393 531.397 25.2808 531.397 24.6484C531.397 24.016 531.27 23.4574 531.017 22.9726C530.764 22.4878 530.411 22.1189 529.958 21.8659C529.515 21.6024 529.009 21.4707 528.44 21.4707ZM536.564 17.2812V28.9801H535.125V17.2812H536.564ZM546.591 20.3008V28.9801H545.153V26.9407C544.932 27.6469 544.536 28.1897 543.967 28.5691C543.409 28.938 542.755 29.1224 542.007 29.1224C541.006 29.1224 540.194 28.801 539.572 28.1581C538.95 27.5046 538.639 26.5719 538.639 25.3598V20.3008H540.078V25.2175C540.078 26.0818 540.299 26.751 540.742 27.2253C541.185 27.689 541.785 27.9209 542.544 27.9209C543.335 27.9209 543.967 27.668 544.441 27.1621C544.916 26.6456 545.153 25.8973 545.153 24.9171V20.3008H546.591ZM556.88 24.1583C556.88 24.4639 556.859 24.7274 556.817 24.9488H549.877C549.908 25.9395 550.187 26.6825 550.714 27.1779C551.252 27.6732 551.905 27.9209 552.675 27.9209C553.37 27.9209 553.95 27.7471 554.414 27.3993C554.888 27.041 555.178 26.5666 555.283 25.9764H556.817C556.711 26.5771 556.474 27.1146 556.105 27.5889C555.747 28.0632 555.278 28.4321 554.698 28.6956C554.119 28.9591 553.465 29.0908 552.738 29.0908C551.905 29.0908 551.168 28.9116 550.525 28.5533C549.882 28.1949 549.376 27.6838 549.007 27.0198C548.649 26.3453 548.469 25.5548 548.469 24.6484C548.469 23.742 548.649 22.9516 549.007 22.2771C549.376 21.6025 549.882 21.086 550.525 20.7277C551.168 20.3693 551.905 20.1901 552.738 20.1901C553.581 20.1901 554.314 20.3693 554.936 20.7277C555.568 21.086 556.047 21.5655 556.374 22.1663C556.711 22.7671 556.88 23.4312 556.88 24.1583ZM555.426 24.2531C555.457 23.6102 555.352 23.0727 555.109 22.6406C554.867 22.2085 554.535 21.887 554.113 21.6762C553.692 21.4654 553.233 21.36 552.738 21.36C551.948 21.36 551.284 21.6077 550.746 22.1031C550.209 22.5879 549.919 23.3046 549.877 24.2531H555.426Z" fill="#454545"/>
<path d="M558.446 16.1543H557.727V29.8079H558.446V16.1543Z" fill="black"/>
<path fill-rule="evenodd" clip-rule="evenodd" d="M618.19 23.7512L622.307 27.8688L621.237 28.9395L617.119 24.8219C616.35 25.3752 615.423 25.713 614.41 25.713C611.83 25.713 609.739 23.6218 609.739 21.042C609.739 18.4622 611.83 16.3711 614.41 16.3711C616.99 16.3711 619.081 18.4622 619.081 21.042C619.081 22.0553 618.743 22.9823 618.19 23.7512ZM614.41 17.8083C612.621 17.8083 611.176 19.2527 611.176 21.042C611.176 22.8314 612.621 24.2758 614.41 24.2758C616.199 24.2758 617.644 22.8314 617.644 21.042C617.644 19.2527 616.199 17.8083 614.41 17.8083Z" fill="#454545"/>
<path d="M630.077 5.95117H507.48C498.075 5.95117 490.45 13.5759 490.45 22.9814C490.45 32.387 498.075 40.0117 507.48 40.0117H630.077C639.482 40.0117 647.107 32.387 647.107 22.9814C647.107 13.5759 639.482 5.95117 630.077 5.95117Z" stroke="#454545" stroke-width="1.43722"/>
<path d="M817.776 4.51367H694.894C684.774 4.51367 676.57 12.7178 676.57 22.8382C676.57 32.9585 684.774 41.1627 694.894 41.1627H817.776C827.897 41.1627 836.101 32.9585 836.101 22.8382C836.101 12.7178 827.897 4.51367 817.776 4.51367Z" stroke="#BCBCBC" stroke-width="1.43722"/>
<path d="M817.776 4.51367H694.894C684.774 4.51367 676.57 12.7178 676.57 22.8382C676.57 32.9585 684.774 41.1627 694.894 41.1627H817.776C827.897 41.1627 836.101 32.9585 836.101 22.8382C836.101 12.7178 827.897 4.51367 817.776 4.51367Z" stroke="#BCBCBC" stroke-width="1.43722"/>
<path d="M817.634 5.95117H695.037C685.632 5.95117 678.007 13.5759 678.007 22.9814C678.007 32.387 685.632 40.0117 695.037 40.0117H817.634C827.039 40.0117 834.664 32.387 834.664 22.9814C834.664 13.5759 827.039 5.95117 817.634 5.95117Z" fill="#DDDDDD"/>
<path d="M701.003 16.1543H700.284V29.8079H701.003V16.1543Z" fill="black"/>
<path d="M702.884 17.8345L706.283 27.3834L709.729 17.8345H711.294L707.2 28.9801H705.382L701.303 17.8345H702.884ZM716.305 20.1901C717.148 20.1901 717.859 20.4009 718.439 20.8225C719.029 21.2441 719.44 21.808 719.672 22.5141V20.3008H721.111V28.9801H719.672V26.7668C719.44 27.473 719.029 28.0369 718.439 28.4584C717.859 28.88 717.148 29.0908 716.305 29.0908C715.535 29.0908 714.85 28.9116 714.249 28.5533C713.649 28.1949 713.174 27.6838 712.827 27.0198C712.489 26.3453 712.321 25.5548 712.321 24.6484C712.321 23.742 712.489 22.9516 712.827 22.2771C713.174 21.6025 713.649 21.086 714.249 20.7277C714.85 20.3693 715.535 20.1901 716.305 20.1901ZM716.716 21.4707C715.83 21.4707 715.119 21.7553 714.581 22.3244C714.054 22.883 713.791 23.6577 713.791 24.6484C713.791 25.6391 714.054 26.419 714.581 26.9882C715.119 27.5468 715.83 27.8261 716.716 27.8261C717.285 27.8261 717.791 27.6943 718.233 27.4308C718.687 27.1673 719.04 26.7985 719.293 26.3242C719.545 25.8393 719.672 25.2808 719.672 24.6484C719.672 24.016 719.545 23.4574 719.293 22.9726C719.04 22.4878 718.687 22.1189 718.233 21.8659C717.791 21.6024 717.285 21.4707 716.716 21.4707ZM724.839 17.2812V28.9801H723.4V17.2812H724.839ZM734.867 20.3008V28.9801H733.428V26.9407C733.207 27.6469 732.812 28.1897 732.243 28.5691C731.684 28.938 731.03 29.1224 730.282 29.1224C729.281 29.1224 728.469 28.801 727.848 28.1581C727.226 27.5046 726.915 26.5719 726.915 25.3598V20.3008H728.353V25.2175C728.353 26.0818 728.575 26.751 729.017 27.2253C729.46 27.689 730.061 27.9209 730.82 27.9209C731.61 27.9209 732.243 27.668 732.717 27.1621C733.191 26.6456 733.428 25.8973 733.428 24.9171V20.3008H734.867ZM745.155 24.1583C745.155 24.4639 745.134 24.7274 745.092 24.9488H738.152C738.184 25.9395 738.463 26.6825 738.99 27.1779C739.527 27.6732 740.181 27.9209 740.95 27.9209C741.646 27.9209 742.225 27.7471 742.689 27.3993C743.163 27.041 743.453 26.5666 743.559 25.9764H745.092C744.987 26.5771 744.75 27.1146 744.381 27.5889C744.022 28.0632 743.553 28.4321 742.974 28.6956C742.394 28.9591 741.741 29.0908 741.013 29.0908C740.181 29.0908 739.443 28.9116 738.8 28.5533C738.157 28.1949 737.651 27.6838 737.282 27.0198C736.924 26.3453 736.745 25.5548 736.745 24.6484C736.745 23.742 736.924 22.9516 737.282 22.2771C737.651 21.6025 738.157 21.086 738.8 20.7277C739.443 20.3693 740.181 20.1901 741.013 20.1901C741.857 20.1901 742.589 20.3693 743.211 20.7277C743.843 21.086 744.323 21.5655 744.65 22.1663C744.987 22.7671 745.155 23.4312 745.155 24.1583ZM743.701 24.2531C743.733 23.6102 743.627 23.0727 743.385 22.6406C743.142 22.2085 742.81 21.887 742.389 21.6762C741.967 21.4654 741.509 21.36 741.013 21.36C740.223 21.36 739.559 21.6077 739.021 22.1031C738.484 22.5879 738.194 23.3046 738.152 24.2531H743.701Z" fill="#BCBCBC"/>
<path fill-rule="evenodd" clip-rule="evenodd" d="M805.747 23.7512L809.864 27.8688L808.794 28.9395L804.676 24.8219C803.907 25.3752 802.98 25.713 801.967 25.713C799.387 25.713 797.296 23.6218 797.296 21.042C797.296 18.4622 799.387 16.3711 801.967 16.3711C804.547 16.3711 806.638 18.4622 806.638 21.042C806.638 22.0553 806.3 22.9823 805.747 23.7512ZM801.967 17.8083C800.177 17.8083 798.733 19.2527 798.733 21.042C798.733 22.8314 800.177 24.2758 801.967 24.2758C803.756 24.2758 805.2 22.8314 805.2 21.042C805.2 19.2527 803.756 17.8083 801.967 17.8083Z" fill="#BCBCBC"/>
<path d="M817.634 5.95117H695.037C685.632 5.95117 678.007 13.5759 678.007 22.9814C678.007 32.387 685.632 40.0117 695.037 40.0117H817.634C827.039 40.0117 834.664 32.387 834.664 22.9814C834.664 13.5759 827.039 5.95117 817.634 5.95117Z" stroke="#BCBCBC" stroke-width="1.43722"/>
<path d="M104.088 65.5957H26.4743C15.7227 65.5957 7.00684 74.3116 7.00684 85.0632C7.00684 95.8147 15.7227 104.531 26.4743 104.531H104.088C114.84 104.531 123.556 95.8147 123.556 85.0632C123.556 74.3116 114.84 65.5957 104.088 65.5957Z" fill="white"/>
<path d="M31.3359 78.9044L35.044 89.3214L38.8037 78.9044H40.5111L36.0443 91.0633H34.0609L29.6113 78.9044H31.3359ZM45.977 81.4742C46.8968 81.4742 47.6729 81.7041 48.3052 82.164C48.9491 82.6239 49.3975 83.2391 49.6505 84.0094V81.5949H51.2199V91.0633H49.6505V88.6488C49.3975 89.4191 48.9491 90.0342 48.3052 90.4941C47.6729 90.954 46.8968 91.184 45.977 91.184C45.1376 91.184 44.3903 90.9885 43.7349 90.5976C43.0795 90.2067 42.5621 89.6491 42.1827 88.9247C41.8148 88.1888 41.6308 87.3265 41.6308 86.3377C41.6308 85.3489 41.8148 84.4866 42.1827 83.7507C42.5621 83.0149 43.0795 82.4515 43.7349 82.0606C44.3903 81.6696 45.1376 81.4742 45.977 81.4742ZM46.4254 82.8711C45.4596 82.8711 44.6835 83.1816 44.0971 83.8025C43.5222 84.4118 43.2347 85.2569 43.2347 86.3377C43.2347 87.4185 43.5222 88.2693 44.0971 88.8902C44.6835 89.4996 45.4596 89.8043 46.4254 89.8043C47.0462 89.8043 47.5981 89.6606 48.081 89.3731C48.5754 89.0857 48.9606 88.6832 49.2366 88.1658C49.5125 87.637 49.6505 87.0276 49.6505 86.3377C49.6505 85.6478 49.5125 85.0385 49.2366 84.5096C48.9606 83.9807 48.5754 83.5783 48.081 83.3023C47.5981 83.0149 47.0462 82.8711 46.4254 82.8711ZM55.2871 78.3008V91.0633H53.7177V78.3008H55.2871ZM66.2267 81.5949V91.0633H64.6573V88.8385C64.4159 89.6088 63.9847 90.2009 63.3638 90.6149C62.7544 91.0173 62.0416 91.2185 61.2252 91.2185C60.1329 91.2185 59.2476 90.8678 58.5693 90.1665C57.8909 89.4536 57.5517 88.436 57.5517 87.1138V81.5949H59.1211V86.9586C59.1211 87.9014 59.3626 88.6315 59.8455 89.1489C60.3284 89.6548 60.9838 89.9078 61.8116 89.9078C62.6739 89.9078 63.3638 89.6318 63.8812 89.0799C64.3986 88.5165 64.6573 87.7002 64.6573 86.6309V81.5949H66.2267ZM77.4506 85.8031C77.4506 86.1365 77.4276 86.4239 77.3817 86.6654H69.8104C69.8449 87.7462 70.1496 88.5568 70.7245 89.0972C71.3109 89.6376 72.0237 89.9078 72.8631 89.9078C73.6219 89.9078 74.2543 89.718 74.7602 89.3386C75.2776 88.9477 75.5938 88.4303 75.7087 87.7864H77.3817C77.2667 88.4418 77.008 89.0282 76.6056 89.5456C76.2146 90.063 75.703 90.4654 75.0706 90.7528C74.4382 91.0403 73.7254 91.184 72.932 91.184C72.0237 91.184 71.2189 90.9885 70.5175 90.5976C69.8162 90.2067 69.2643 89.6491 68.8618 88.9247C68.4709 88.1888 68.2755 87.3265 68.2755 86.3377C68.2755 85.3489 68.4709 84.4866 68.8618 83.7507C69.2643 83.0149 69.8162 82.4515 70.5175 82.0606C71.2189 81.6696 72.0237 81.4742 72.932 81.4742C73.8519 81.4742 74.6509 81.6696 75.3293 82.0606C76.0192 82.4515 76.5423 82.9746 76.8988 83.63C77.2667 84.2854 77.4506 85.0097 77.4506 85.8031ZM75.864 85.9065C75.8985 85.2052 75.7835 84.6188 75.519 84.1474C75.2546 83.676 74.8924 83.3253 74.4325 83.0953C73.9726 82.8654 73.4724 82.7504 72.932 82.7504C72.0697 82.7504 71.3454 83.0206 70.759 83.561C70.1726 84.0899 69.8564 84.8717 69.8104 85.9065H75.864Z" fill="#292929"/>
<path d="M91.0064 80.75L89.9932 81.7632L93.2844 85.0616L89.9932 88.36L91.0064 89.3733L95.3181 85.0616L91.0064 80.75Z" fill="#292929"/>
<path d="M104.088 65.5957H26.4743C15.7227 65.5957 7.00684 74.3116 7.00684 85.0632C7.00684 95.8147 15.7227 104.531 26.4743 104.531H104.088C114.84 104.531 123.556 95.8147 123.556 85.0632C123.556 74.3116 114.84 65.5957 104.088 65.5957Z" stroke="#BCBCBC" stroke-width="1.43722"/>
<path d="M234.291 65.5957H156.677C145.926 65.5957 137.21 74.3116 137.21 85.0632C137.21 95.8147 145.926 104.531 156.677 104.531H234.291C245.043 104.531 253.759 95.8147 253.759 85.0632C253.759 74.3116 245.043 65.5957 234.291 65.5957Z" fill="#94F5D8"/>
<path d="M161.539 78.9044L165.247 89.3214L169.007 78.9044H170.714L166.247 91.0633H164.264L159.814 78.9044H161.539ZM176.18 81.4742C177.1 81.4742 177.876 81.7041 178.508 82.164C179.152 82.6239 179.6 83.2391 179.853 84.0094V81.5949H181.423V91.0633H179.853V88.6488C179.6 89.4191 179.152 90.0342 178.508 90.4941C177.876 90.954 177.1 91.184 176.18 91.184C175.34 91.184 174.593 90.9885 173.938 90.5976C173.282 90.2067 172.765 89.6491 172.386 88.9247C172.018 88.1888 171.834 87.3265 171.834 86.3377C171.834 85.3489 172.018 84.4866 172.386 83.7507C172.765 83.0149 173.282 82.4515 173.938 82.0606C174.593 81.6696 175.34 81.4742 176.18 81.4742ZM176.628 82.8711C175.662 82.8711 174.886 83.1816 174.3 83.8025C173.725 84.4118 173.438 85.2569 173.438 86.3377C173.438 87.4185 173.725 88.2693 174.3 88.8902C174.886 89.4996 175.662 89.8043 176.628 89.8043C177.249 89.8043 177.801 89.6606 178.284 89.3731C178.778 89.0857 179.163 88.6832 179.439 88.1658C179.715 87.637 179.853 87.0276 179.853 86.3377C179.853 85.6478 179.715 85.0385 179.439 84.5096C179.163 83.9807 178.778 83.5783 178.284 83.3023C177.801 83.0149 177.249 82.8711 176.628 82.8711ZM185.49 78.3008V91.0633H183.921V78.3008H185.49ZM196.43 81.5949V91.0633H194.86V88.8385C194.619 89.6088 194.188 90.2009 193.567 90.6149C192.957 91.0173 192.244 91.2185 191.428 91.2185C190.336 91.2185 189.45 90.8678 188.772 90.1665C188.094 89.4536 187.755 88.436 187.755 87.1138V81.5949H189.324V86.9586C189.324 87.9014 189.565 88.6315 190.048 89.1489C190.531 89.6548 191.187 89.9078 192.014 89.9078C192.877 89.9078 193.567 89.6318 194.084 89.0799C194.601 88.5165 194.86 87.7002 194.86 86.6309V81.5949H196.43ZM207.654 85.8031C207.654 86.1365 207.631 86.4239 207.585 86.6654H200.013C200.048 87.7462 200.352 88.5568 200.927 89.0972C201.514 89.6376 202.227 89.9078 203.066 89.9078C203.825 89.9078 204.457 89.718 204.963 89.3386C205.48 88.9477 205.797 88.4303 205.912 87.7864H207.585C207.47 88.4418 207.211 89.0282 206.808 89.5456C206.417 90.063 205.906 90.4654 205.273 90.7528C204.641 91.0403 203.928 91.184 203.135 91.184C202.227 91.184 201.422 90.9885 200.72 90.5976C200.019 90.2067 199.467 89.6491 199.065 88.9247C198.674 88.1888 198.478 87.3265 198.478 86.3377C198.478 85.3489 198.674 84.4866 199.065 83.7507C199.467 83.0149 200.019 82.4515 200.72 82.0606C201.422 81.6696 202.227 81.4742 203.135 81.4742C204.055 81.4742 204.854 81.6696 205.532 82.0606C206.222 82.4515 206.745 82.9746 207.102 83.63C207.47 84.2854 207.654 85.0097 207.654 85.8031ZM206.067 85.9065C206.101 85.2052 205.986 84.6188 205.722 84.1474C205.457 83.676 205.095 83.3253 204.635 83.0953C204.175 82.8654 203.675 82.7504 203.135 82.7504C202.273 82.7504 201.548 83.0206 200.962 83.561C200.375 84.0899 200.059 84.8717 200.013 85.9065H206.067Z" fill="#292929"/>
<path d="M221.209 80.75L220.196 81.7632L223.487 85.0616L220.196 88.36L221.209 89.3733L225.521 85.0616L221.209 80.75Z" fill="#292929"/>
<path d="M234.291 65.5957H156.677C145.926 65.5957 137.21 74.3116 137.21 85.0632C137.21 95.8147 145.926 104.531 156.677 104.531H234.291C245.043 104.531 253.759 95.8147 253.759 85.0632C253.759 74.3116 245.043 65.5957 234.291 65.5957Z" stroke="#BCBCBC" stroke-width="1.43722"/>
<path d="M364.494 65.5957H286.88C276.128 65.5957 267.412 74.3116 267.412 85.0632C267.412 95.8147 276.128 104.531 286.88 104.531H364.494C375.245 104.531 383.961 95.8147 383.961 85.0632C383.961 74.3116 375.245 65.5957 364.494 65.5957Z" fill="#006575"/>
<path d="M291.741 78.9044L295.45 89.3214L299.209 78.9044H300.917L296.45 91.0633H294.466L290.017 78.9044H291.741ZM306.383 81.4742C307.302 81.4742 308.078 81.7041 308.711 82.164C309.355 82.6239 309.803 83.2391 310.056 84.0094V81.5949H311.625V91.0633H310.056V88.6488C309.803 89.4191 309.355 90.0342 308.711 90.4941C308.078 90.954 307.302 91.184 306.383 91.184C305.543 91.184 304.796 90.9885 304.14 90.5976C303.485 90.2067 302.968 89.6491 302.588 88.9247C302.22 88.1888 302.036 87.3265 302.036 86.3377C302.036 85.3489 302.22 84.4866 302.588 83.7507C302.968 83.0149 303.485 82.4515 304.14 82.0606C304.796 81.6696 305.543 81.4742 306.383 81.4742ZM306.831 82.8711C305.865 82.8711 305.089 83.1816 304.503 83.8025C303.928 84.4118 303.64 85.2569 303.64 86.3377C303.64 87.4185 303.928 88.2693 304.503 88.8902C305.089 89.4996 305.865 89.8043 306.831 89.8043C307.452 89.8043 308.004 89.6606 308.487 89.3731C308.981 89.0857 309.366 88.6832 309.642 88.1658C309.918 87.637 310.056 87.0276 310.056 86.3377C310.056 85.6478 309.918 85.0385 309.642 84.5096C309.366 83.9807 308.981 83.5783 308.487 83.3023C308.004 83.0149 307.452 82.8711 306.831 82.8711ZM315.693 78.3008V91.0633H314.123V78.3008H315.693ZM326.632 81.5949V91.0633H325.063V88.8385C324.821 89.6088 324.39 90.2009 323.769 90.6149C323.16 91.0173 322.447 91.2185 321.631 91.2185C320.539 91.2185 319.653 90.8678 318.975 90.1665C318.296 89.4536 317.957 88.436 317.957 87.1138V81.5949H319.527V86.9586C319.527 87.9014 319.768 88.6315 320.251 89.1489C320.734 89.6548 321.389 89.9078 322.217 89.9078C323.08 89.9078 323.769 89.6318 324.287 89.0799C324.804 88.5165 325.063 87.7002 325.063 86.6309V81.5949H326.632ZM337.856 85.8031C337.856 86.1365 337.833 86.4239 337.787 86.6654H330.216C330.25 87.7462 330.555 88.5568 331.13 89.0972C331.716 89.6376 332.429 89.9078 333.269 89.9078C334.027 89.9078 334.66 89.718 335.166 89.3386C335.683 88.9477 335.999 88.4303 336.114 87.7864H337.787C337.672 88.4418 337.414 89.0282 337.011 89.5456C336.62 90.063 336.109 90.4654 335.476 90.7528C334.844 91.0403 334.131 91.184 333.338 91.184C332.429 91.184 331.624 90.9885 330.923 90.5976C330.222 90.2067 329.67 89.6491 329.267 88.9247C328.876 88.1888 328.681 87.3265 328.681 86.3377C328.681 85.3489 328.876 84.4866 329.267 83.7507C329.67 83.0149 330.222 82.4515 330.923 82.0606C331.624 81.6696 332.429 81.4742 333.338 81.4742C334.257 81.4742 335.057 81.6696 335.735 82.0606C336.425 82.4515 336.948 82.9746 337.304 83.63C337.672 84.2854 337.856 85.0097 337.856 85.8031ZM336.27 85.9065C336.304 85.2052 336.189 84.6188 335.925 84.1474C335.66 83.676 335.298 83.3253 334.838 83.0953C334.378 82.8654 333.878 82.7504 333.338 82.7504C332.475 82.7504 331.751 83.0206 331.165 83.561C330.578 84.0899 330.262 84.8717 330.216 85.9065H336.27Z" fill="white"/>
<path d="M351.412 80.75L350.399 81.7632L353.69 85.0616L350.399 88.36L351.412 89.3733L355.724 85.0616L351.412 80.75Z" fill="white"/>
<path d="M364.494 65.5957H286.88C276.128 65.5957 267.412 74.3116 267.412 85.0632C267.412 95.8147 276.128 104.531 286.88 104.531H364.494C375.245 104.531 383.961 95.8147 383.961 85.0632C383.961 74.3116 375.245 65.5957 364.494 65.5957Z" stroke="#BCBCBC" stroke-width="1.43722"/>
<path d="M494.697 65.5957H417.083C406.331 65.5957 397.615 74.3116 397.615 85.0632C397.615 95.8147 406.331 104.531 417.083 104.531H494.697C505.448 104.531 514.164 95.8147 514.164 85.0632C514.164 74.3116 505.448 65.5957 494.697 65.5957Z" fill="#DDDDDD"/>
<path d="M421.944 78.9044L425.652 89.3214L429.412 78.9044H431.119L426.653 91.0633H424.669L420.22 78.9044H421.944ZM436.585 81.4742C437.505 81.4742 438.281 81.7041 438.913 82.164C439.557 82.6239 440.006 83.2391 440.259 84.0094V81.5949H441.828V91.0633H440.259V88.6488C440.006 89.4191 439.557 90.0342 438.913 90.4941C438.281 90.954 437.505 91.184 436.585 91.184C435.746 91.184 434.999 90.9885 434.343 90.5976C433.688 90.2067 433.17 89.6491 432.791 88.9247C432.423 88.1888 432.239 87.3265 432.239 86.3377C432.239 85.3489 432.423 84.4866 432.791 83.7507C433.17 83.0149 433.688 82.4515 434.343 82.0606C434.999 81.6696 435.746 81.4742 436.585 81.4742ZM437.034 82.8711C436.068 82.8711 435.292 83.1816 434.705 83.8025C434.13 84.4118 433.843 85.2569 433.843 86.3377C433.843 87.4185 434.13 88.2693 434.705 88.8902C435.292 89.4996 436.068 89.8043 437.034 89.8043C437.654 89.8043 438.206 89.6606 438.689 89.3731C439.184 89.0857 439.569 88.6832 439.845 88.1658C440.121 87.637 440.259 87.0276 440.259 86.3377C440.259 85.6478 440.121 85.0385 439.845 84.5096C439.569 83.9807 439.184 83.5783 438.689 83.3023C438.206 83.0149 437.654 82.8711 437.034 82.8711ZM445.895 78.3008V91.0633H444.326V78.3008H445.895ZM456.835 81.5949V91.0633H455.266V88.8385C455.024 89.6088 454.593 90.2009 453.972 90.6149C453.363 91.0173 452.65 91.2185 451.833 91.2185C450.741 91.2185 449.856 90.8678 449.178 90.1665C448.499 89.4536 448.16 88.436 448.16 87.1138V81.5949H449.729V86.9586C449.729 87.9014 449.971 88.6315 450.454 89.1489C450.937 89.6548 451.592 89.9078 452.42 89.9078C453.282 89.9078 453.972 89.6318 454.489 89.0799C455.007 88.5165 455.266 87.7002 455.266 86.6309V81.5949H456.835ZM468.059 85.8031C468.059 86.1365 468.036 86.4239 467.99 86.6654H460.419C460.453 87.7462 460.758 88.5568 461.333 89.0972C461.919 89.6376 462.632 89.9078 463.471 89.9078C464.23 89.9078 464.863 89.718 465.368 89.3386C465.886 88.9477 466.202 88.4303 466.317 87.7864H467.99C467.875 88.4418 467.616 89.0282 467.214 89.5456C466.823 90.063 466.311 90.4654 465.679 90.7528C465.046 91.0403 464.334 91.184 463.54 91.184C462.632 91.184 461.827 90.9885 461.126 90.5976C460.424 90.2067 459.873 89.6491 459.47 88.9247C459.079 88.1888 458.884 87.3265 458.884 86.3377C458.884 85.3489 459.079 84.4866 459.47 83.7507C459.873 83.0149 460.424 82.4515 461.126 82.0606C461.827 81.6696 462.632 81.4742 463.54 81.4742C464.46 81.4742 465.259 81.6696 465.938 82.0606C466.627 82.4515 467.151 82.9746 467.507 83.63C467.875 84.2854 468.059 85.0097 468.059 85.8031ZM466.472 85.9065C466.507 85.2052 466.392 84.6188 466.127 84.1474C465.863 83.676 465.501 83.3253 465.041 83.0953C464.581 82.8654 464.081 82.7504 463.54 82.7504C462.678 82.7504 461.954 83.0206 461.367 83.561C460.781 84.0899 460.465 84.8717 460.419 85.9065H466.472Z" fill="#BCBCBC"/>
<path d="M481.615 80.75L480.602 81.7632L483.893 85.0616L480.602 88.36L481.615 89.3733L485.926 85.0616L481.615 80.75Z" fill="#BCBCBC"/>
<path d="M494.697 65.5957H417.083C406.331 65.5957 397.615 74.3116 397.615 85.0632C397.615 95.8147 406.331 104.531 417.083 104.531H494.697C505.448 104.531 514.164 95.8147 514.164 85.0632C514.164 74.3116 505.448 65.5957 494.697 65.5957Z" stroke="#BCBCBC" stroke-width="1.43722"/>
<path d="M601.904 65.5957H547.285C536.534 65.5957 527.818 74.3116 527.818 85.0632C527.818 95.8147 536.534 104.531 547.285 104.531H601.904C612.656 104.531 621.372 95.8147 621.372 85.0632C621.372 74.3116 612.656 65.5957 601.904 65.5957Z" fill="white"/>
<path d="M552.147 78.9044L555.855 89.3214L559.615 78.9044H561.322L556.855 91.0633H554.872L550.422 78.9044H552.147ZM566.788 81.4742C567.708 81.4742 568.484 81.7041 569.116 82.164C569.76 82.6239 570.209 83.2391 570.461 84.0094V81.5949H572.031V91.0633H570.461V88.6488C570.209 89.4191 569.76 90.0342 569.116 90.4941C568.484 90.954 567.708 91.184 566.788 91.184C565.949 91.184 565.201 90.9885 564.546 90.5976C563.891 90.2067 563.373 89.6491 562.994 88.9247C562.626 88.1888 562.442 87.3265 562.442 86.3377C562.442 85.3489 562.626 84.4866 562.994 83.7507C563.373 83.0149 563.891 82.4515 564.546 82.0606C565.201 81.6696 565.949 81.4742 566.788 81.4742ZM567.236 82.8711C566.271 82.8711 565.494 83.1816 564.908 83.8025C564.333 84.4118 564.046 85.2569 564.046 86.3377C564.046 87.4185 564.333 88.2693 564.908 88.8902C565.494 89.4996 566.271 89.8043 567.236 89.8043C567.857 89.8043 568.409 89.6606 568.892 89.3731C569.386 89.0857 569.772 88.6832 570.048 88.1658C570.324 87.637 570.461 87.0276 570.461 86.3377C570.461 85.6478 570.324 85.0385 570.048 84.5096C569.772 83.9807 569.386 83.5783 568.892 83.3023C568.409 83.0149 567.857 82.8711 567.236 82.8711ZM576.098 78.3008V91.0633H574.529V78.3008H576.098ZM587.038 81.5949V91.0633H585.468V88.8385C585.227 89.6088 584.796 90.2009 584.175 90.6149C583.565 91.0173 582.853 91.2185 582.036 91.2185C580.944 91.2185 580.059 90.8678 579.38 90.1665C578.702 89.4536 578.363 88.436 578.363 87.1138V81.5949H579.932V86.9586C579.932 87.9014 580.174 88.6315 580.657 89.1489C581.139 89.6548 581.795 89.9078 582.623 89.9078C583.485 89.9078 584.175 89.6318 584.692 89.0799C585.21 88.5165 585.468 87.7002 585.468 86.6309V81.5949H587.038ZM598.262 85.8031C598.262 86.1365 598.239 86.4239 598.193 86.6654H590.621C590.656 87.7462 590.961 88.5568 591.535 89.0972C592.122 89.6376 592.835 89.9078 593.674 89.9078C594.433 89.9078 595.065 89.718 595.571 89.3386C596.089 88.9477 596.405 88.4303 596.52 87.7864H598.193C598.078 88.4418 597.819 89.0282 597.417 89.5456C597.026 90.063 596.514 90.4654 595.882 90.7528C595.249 91.0403 594.536 91.184 593.743 91.184C592.835 91.184 592.03 90.9885 591.329 90.5976C590.627 90.2067 590.075 89.6491 589.673 88.9247C589.282 88.1888 589.086 87.3265 589.086 86.3377C589.086 85.3489 589.282 84.4866 589.673 83.7507C590.075 83.0149 590.627 82.4515 591.329 82.0606C592.03 81.6696 592.835 81.4742 593.743 81.4742C594.663 81.4742 595.462 81.6696 596.14 82.0606C596.83 82.4515 597.353 82.9746 597.71 83.63C598.078 84.2854 598.262 85.0097 598.262 85.8031ZM596.675 85.9065C596.709 85.2052 596.594 84.6188 596.33 84.1474C596.066 83.676 595.703 83.3253 595.244 83.0953C594.784 82.8654 594.283 82.7504 593.743 82.7504C592.881 82.7504 592.156 83.0206 591.57 83.561C590.984 84.0899 590.667 84.8717 590.621 85.9065H596.675Z" fill="#292929"/>
<path d="M601.904 65.5957H547.285C536.534 65.5957 527.818 74.3116 527.818 85.0632C527.818 95.8147 536.534 104.531 547.285 104.531H601.904C612.656 104.531 621.372 95.8147 621.372 85.0632C621.372 74.3116 612.656 65.5957 601.904 65.5957Z" stroke="#BCBCBC" stroke-width="1.43722"/>
<path d="M709.111 65.5957H654.492C643.741 65.5957 635.025 74.3116 635.025 85.0632C635.025 95.8147 643.741 104.531 654.492 104.531H709.111C719.863 104.531 728.579 95.8147 728.579 85.0632C728.579 74.3116 719.863 65.5957 709.111 65.5957Z" fill="#94F5D8"/>
<path d="M659.354 78.9044L663.062 89.3214L666.822 78.9044H668.529L664.063 91.0633H662.079L657.63 78.9044H659.354ZM673.995 81.4742C674.915 81.4742 675.691 81.7041 676.324 82.164C676.967 82.6239 677.416 83.2391 677.669 84.0094V81.5949H679.238V91.0633H677.669V88.6488C677.416 89.4191 676.967 90.0342 676.324 90.4941C675.691 90.954 674.915 91.184 673.995 91.184C673.156 91.184 672.409 90.9885 671.753 90.5976C671.098 90.2067 670.58 89.6491 670.201 88.9247C669.833 88.1888 669.649 87.3265 669.649 86.3377C669.649 85.3489 669.833 84.4866 670.201 83.7507C670.58 83.0149 671.098 82.4515 671.753 82.0606C672.409 81.6696 673.156 81.4742 673.995 81.4742ZM674.444 82.8711C673.478 82.8711 672.702 83.1816 672.115 83.8025C671.54 84.4118 671.253 85.2569 671.253 86.3377C671.253 87.4185 671.54 88.2693 672.115 88.8902C672.702 89.4996 673.478 89.8043 674.444 89.8043C675.065 89.8043 675.616 89.6606 676.099 89.3731C676.594 89.0857 676.979 88.6832 677.255 88.1658C677.531 87.637 677.669 87.0276 677.669 86.3377C677.669 85.6478 677.531 85.0385 677.255 84.5096C676.979 83.9807 676.594 83.5783 676.099 83.3023C675.616 83.0149 675.065 82.8711 674.444 82.8711ZM683.305 78.3008V91.0633H681.736V78.3008H683.305ZM694.245 81.5949V91.0633H692.676V88.8385C692.434 89.6088 692.003 90.2009 691.382 90.6149C690.773 91.0173 690.06 91.2185 689.244 91.2185C688.151 91.2185 687.266 90.8678 686.588 90.1665C685.909 89.4536 685.57 88.436 685.57 87.1138V81.5949H687.139V86.9586C687.139 87.9014 687.381 88.6315 687.864 89.1489C688.347 89.6548 689.002 89.9078 689.83 89.9078C690.692 89.9078 691.382 89.6318 691.899 89.0799C692.417 88.5165 692.676 87.7002 692.676 86.6309V81.5949H694.245ZM705.469 85.8031C705.469 86.1365 705.446 86.4239 705.4 86.6654H697.829C697.863 87.7462 698.168 88.5568 698.743 89.0972C699.329 89.6376 700.042 89.9078 700.881 89.9078C701.64 89.9078 702.273 89.718 702.778 89.3386C703.296 88.9477 703.612 88.4303 703.727 87.7864H705.4C705.285 88.4418 705.026 89.0282 704.624 89.5456C704.233 90.063 703.721 90.4654 703.089 90.7528C702.457 91.0403 701.744 91.184 700.95 91.184C700.042 91.184 699.237 90.9885 698.536 90.5976C697.834 90.2067 697.283 89.6491 696.88 88.9247C696.489 88.1888 696.294 87.3265 696.294 86.3377C696.294 85.3489 696.489 84.4866 696.88 83.7507C697.283 83.0149 697.834 82.4515 698.536 82.0606C699.237 81.6696 700.042 81.4742 700.95 81.4742C701.87 81.4742 702.669 81.6696 703.348 82.0606C704.037 82.4515 704.561 82.9746 704.917 83.63C705.285 84.2854 705.469 85.0097 705.469 85.8031ZM703.882 85.9065C703.917 85.2052 703.802 84.6188 703.537 84.1474C703.273 83.676 702.911 83.3253 702.451 83.0953C701.991 82.8654 701.491 82.7504 700.95 82.7504C700.088 82.7504 699.364 83.0206 698.777 83.561C698.191 84.0899 697.875 84.8717 697.829 85.9065H703.882Z" fill="#292929"/>
<path d="M709.111 65.5957H654.492C643.741 65.5957 635.025 74.3116 635.025 85.0632C635.025 95.8147 643.741 104.531 654.492 104.531H709.111C719.863 104.531 728.579 95.8147 728.579 85.0632C728.579 74.3116 719.863 65.5957 709.111 65.5957Z" stroke="#BCBCBC" stroke-width="1.43722"/>
<path d="M816.318 65.5957H761.699C750.948 65.5957 742.232 74.3116 742.232 85.0632C742.232 95.8147 750.948 104.531 761.699 104.531H816.318C827.07 104.531 835.786 95.8147 835.786 85.0632C835.786 74.3116 827.07 65.5957 816.318 65.5957Z" fill="#006575"/>
<path d="M766.562 78.9044L770.27 89.3214L774.029 78.9044H775.737L771.27 91.0633H769.286L764.837 78.9044H766.562ZM781.203 81.4742C782.122 81.4742 782.898 81.7041 783.531 82.164C784.175 82.6239 784.623 83.2391 784.876 84.0094V81.5949H786.445V91.0633H784.876V88.6488C784.623 89.4191 784.175 90.0342 783.531 90.4941C782.898 90.954 782.122 91.184 781.203 91.184C780.363 91.184 779.616 90.9885 778.96 90.5976C778.305 90.2067 777.788 89.6491 777.408 88.9247C777.04 88.1888 776.856 87.3265 776.856 86.3377C776.856 85.3489 777.04 84.4866 777.408 83.7507C777.788 83.0149 778.305 82.4515 778.96 82.0606C779.616 81.6696 780.363 81.4742 781.203 81.4742ZM781.651 82.8711C780.685 82.8711 779.909 83.1816 779.323 83.8025C778.748 84.4118 778.46 85.2569 778.46 86.3377C778.46 87.4185 778.748 88.2693 779.323 88.8902C779.909 89.4996 780.685 89.8043 781.651 89.8043C782.272 89.8043 782.824 89.6606 783.307 89.3731C783.801 89.0857 784.186 88.6832 784.462 88.1658C784.738 87.637 784.876 87.0276 784.876 86.3377C784.876 85.6478 784.738 85.0385 784.462 84.5096C784.186 83.9807 783.801 83.5783 783.307 83.3023C782.824 83.0149 782.272 82.8711 781.651 82.8711ZM790.513 78.3008V91.0633H788.943V78.3008H790.513ZM801.452 81.5949V91.0633H799.883V88.8385C799.641 89.6088 799.21 90.2009 798.589 90.6149C797.98 91.0173 797.267 91.2185 796.451 91.2185C795.359 91.2185 794.473 90.8678 793.795 90.1665C793.116 89.4536 792.777 88.436 792.777 87.1138V81.5949H794.347V86.9586C794.347 87.9014 794.588 88.6315 795.071 89.1489C795.554 89.6548 796.209 89.9078 797.037 89.9078C797.9 89.9078 798.589 89.6318 799.107 89.0799C799.624 88.5165 799.883 87.7002 799.883 86.6309V81.5949H801.452ZM812.676 85.8031C812.676 86.1365 812.653 86.4239 812.607 86.6654H805.036C805.07 87.7462 805.375 88.5568 805.95 89.0972C806.536 89.6376 807.249 89.9078 808.089 89.9078C808.847 89.9078 809.48 89.718 809.986 89.3386C810.503 88.9477 810.819 88.4303 810.934 87.7864H812.607C812.492 88.4418 812.234 89.0282 811.831 89.5456C811.44 90.063 810.929 90.4654 810.296 90.7528C809.664 91.0403 808.951 91.184 808.158 91.184C807.249 91.184 806.444 90.9885 805.743 90.5976C805.042 90.2067 804.49 89.6491 804.087 88.9247C803.696 88.1888 803.501 87.3265 803.501 86.3377C803.501 85.3489 803.696 84.4866 804.087 83.7507C804.49 83.0149 805.042 82.4515 805.743 82.0606C806.444 81.6696 807.249 81.4742 808.158 81.4742C809.077 81.4742 809.877 81.6696 810.555 82.0606C811.245 82.4515 811.768 82.9746 812.124 83.63C812.492 84.2854 812.676 85.0097 812.676 85.8031ZM811.09 85.9065C811.124 85.2052 811.009 84.6188 810.745 84.1474C810.48 83.676 810.118 83.3253 809.658 83.0953C809.198 82.8654 808.698 82.7504 808.158 82.7504C807.295 82.7504 806.571 83.0206 805.985 83.561C805.398 84.0899 805.082 84.8717 805.036 85.9065H811.09Z" fill="white"/>
<path d="M816.318 65.5957H761.699C750.948 65.5957 742.232 74.3116 742.232 85.0632C742.232 95.8147 750.948 104.531 761.699 104.531H816.318C827.07 104.531 835.786 95.8147 835.786 85.0632C835.786 74.3116 827.07 65.5957 816.318 65.5957Z" stroke="#BCBCBC" stroke-width="1.43722"/>
<path d="M923.526 65.5957H868.907C858.156 65.5957 849.44 74.3116 849.44 85.0632C849.44 95.8147 858.156 104.531 868.907 104.531H923.526C934.278 104.531 942.994 95.8147 942.994 85.0632C942.994 74.3116 934.278 65.5957 923.526 65.5957Z" fill="#DDDDDD"/>
<path d="M873.769 78.9044L877.477 89.3214L881.237 78.9044H882.944L878.477 91.0633H876.494L872.044 78.9044H873.769ZM888.41 81.4742C889.33 81.4742 890.106 81.7041 890.738 82.164C891.382 82.6239 891.83 83.2391 892.083 84.0094V81.5949H893.653V91.0633H892.083V88.6488C891.83 89.4191 891.382 90.0342 890.738 90.4941C890.106 90.954 889.33 91.184 888.41 91.184C887.57 91.184 886.823 90.9885 886.168 90.5976C885.512 90.2067 884.995 89.6491 884.616 88.9247C884.248 88.1888 884.064 87.3265 884.064 86.3377C884.064 85.3489 884.248 84.4866 884.616 83.7507C884.995 83.0149 885.512 82.4515 886.168 82.0606C886.823 81.6696 887.57 81.4742 888.41 81.4742ZM888.858 82.8711C887.892 82.8711 887.116 83.1816 886.53 83.8025C885.955 84.4118 885.668 85.2569 885.668 86.3377C885.668 87.4185 885.955 88.2693 886.53 88.8902C887.116 89.4996 887.892 89.8043 888.858 89.8043C889.479 89.8043 890.031 89.6606 890.514 89.3731C891.008 89.0857 891.393 88.6832 891.669 88.1658C891.945 87.637 892.083 87.0276 892.083 86.3377C892.083 85.6478 891.945 85.0385 891.669 84.5096C891.393 83.9807 891.008 83.5783 890.514 83.3023C890.031 83.0149 889.479 82.8711 888.858 82.8711ZM897.72 78.3008V91.0633H896.151V78.3008H897.72ZM908.66 81.5949V91.0633H907.09V88.8385C906.849 89.6088 906.418 90.2009 905.797 90.6149C905.187 91.0173 904.474 91.2185 903.658 91.2185C902.566 91.2185 901.68 90.8678 901.002 90.1665C900.324 89.4536 899.985 88.436 899.985 87.1138V81.5949H901.554V86.9586C901.554 87.9014 901.795 88.6315 902.278 89.1489C902.761 89.6548 903.417 89.9078 904.244 89.9078C905.107 89.9078 905.797 89.6318 906.314 89.0799C906.831 88.5165 907.09 87.7002 907.09 86.6309V81.5949H908.66ZM919.883 85.8031C919.883 86.1365 919.86 86.4239 919.814 86.6654H912.243C912.278 87.7462 912.582 88.5568 913.157 89.0972C913.744 89.6376 914.457 89.9078 915.296 89.9078C916.055 89.9078 916.687 89.718 917.193 89.3386C917.71 88.9477 918.027 88.4303 918.142 87.7864H919.814C919.7 88.4418 919.441 89.0282 919.038 89.5456C918.647 90.063 918.136 90.4654 917.503 90.7528C916.871 91.0403 916.158 91.184 915.365 91.184C914.457 91.184 913.652 90.9885 912.95 90.5976C912.249 90.2067 911.697 89.6491 911.295 88.9247C910.904 88.1888 910.708 87.3265 910.708 86.3377C910.708 85.3489 910.904 84.4866 911.295 83.7507C911.697 83.0149 912.249 82.4515 912.95 82.0606C913.652 81.6696 914.457 81.4742 915.365 81.4742C916.285 81.4742 917.084 81.6696 917.762 82.0606C918.452 82.4515 918.975 82.9746 919.332 83.63C919.7 84.2854 919.883 85.0097 919.883 85.8031ZM918.297 85.9065C918.331 85.2052 918.216 84.6188 917.952 84.1474C917.687 83.676 917.325 83.3253 916.865 83.0953C916.405 82.8654 915.905 82.7504 915.365 82.7504C914.503 82.7504 913.778 83.0206 913.192 83.561C912.605 84.0899 912.289 84.8717 912.243 85.9065H918.297Z" fill="#BCBCBC"/>
<path d="M923.526 65.5957H868.907C858.156 65.5957 849.44 74.3116 849.44 85.0632C849.44 95.8147 858.156 104.531 868.907 104.531H923.526C934.278 104.531 942.994 95.8147 942.994 85.0632C942.994 74.3116 934.278 65.5957 923.526 65.5957Z" stroke="#BCBCBC" stroke-width="1.43722"/>
<path d="M102.062 128.963H24.1369C15.6805 128.963 8.8252 135.818 8.8252 144.275C8.8252 152.731 15.6805 159.586 24.1369 159.586H102.062C110.519 159.586 117.374 152.731 117.374 144.275C117.374 135.818 110.519 128.963 102.062 128.963Z" fill="white"/>
<path d="M32.8122 139.142L35.9022 147.823L39.0353 139.142H40.4582L36.7358 149.275H35.083L31.375 139.142H32.8122ZM45.013 141.284C45.7796 141.284 46.4263 141.475 46.9533 141.858C47.4898 142.242 47.8635 142.754 48.0743 143.396V141.384H49.3822V149.275H48.0743V147.262C47.8635 147.904 47.4898 148.417 46.9533 148.8C46.4263 149.183 45.7796 149.375 45.013 149.375C44.3136 149.375 43.6908 149.212 43.1447 148.886C42.5985 148.561 42.1674 148.096 41.8512 147.492C41.5446 146.879 41.3913 146.161 41.3913 145.337C41.3913 144.513 41.5446 143.794 41.8512 143.181C42.1674 142.568 42.5985 142.098 43.1447 141.772C43.6908 141.446 44.3136 141.284 45.013 141.284ZM45.3867 142.448C44.5819 142.448 43.9351 142.706 43.4465 143.224C42.9674 143.732 42.7279 144.436 42.7279 145.337C42.7279 146.237 42.9674 146.946 43.4465 147.464C43.9351 147.971 44.5819 148.225 45.3867 148.225C45.9041 148.225 46.364 148.106 46.7664 147.866C47.1785 147.627 47.4994 147.291 47.7294 146.86C47.9593 146.419 48.0743 145.911 48.0743 145.337C48.0743 144.762 47.9593 144.254 47.7294 143.813C47.4994 143.372 47.1785 143.037 46.7664 142.807C46.364 142.568 45.9041 142.448 45.3867 142.448ZM52.7715 138.639V149.275H51.4637V138.639H52.7715ZM61.8879 141.384V149.275H60.58V147.421C60.3788 148.062 60.0195 148.556 59.5021 148.901C58.9943 149.236 58.4002 149.404 57.7199 149.404C56.8097 149.404 56.0719 149.112 55.5066 148.527C54.9413 147.933 54.6587 147.085 54.6587 145.983V141.384H55.9665V145.854C55.9665 146.64 56.1678 147.248 56.5702 147.679C56.9726 148.101 57.5187 148.312 58.2086 148.312C58.9272 148.312 59.5021 148.082 59.9333 147.622C60.3644 147.152 60.58 146.472 60.58 145.581V141.384H61.8879ZM71.2411 144.891C71.2411 145.169 71.222 145.408 71.1836 145.61H64.8743C64.903 146.51 65.1569 147.186 65.636 147.636C66.1246 148.086 66.7187 148.312 67.4181 148.312C68.0505 148.312 68.5775 148.153 68.9991 147.837C69.4302 147.512 69.6937 147.08 69.7895 146.544H71.1836C71.0878 147.09 70.8722 147.579 70.5369 148.01C70.2111 148.441 69.7847 148.776 69.2578 149.016C68.7308 149.255 68.1367 149.375 67.4756 149.375C66.7187 149.375 66.048 149.212 65.4635 148.886C64.879 148.561 64.4191 148.096 64.0838 147.492C63.758 146.879 63.5951 146.161 63.5951 145.337C63.5951 144.513 63.758 143.794 64.0838 143.181C64.4191 142.568 64.879 142.098 65.4635 141.772C66.048 141.446 66.7187 141.284 67.4756 141.284C68.2421 141.284 68.908 141.446 69.4733 141.772C70.0482 142.098 70.4842 142.534 70.7812 143.08C71.0878 143.626 71.2411 144.23 71.2411 144.891ZM69.9189 144.977C69.9476 144.393 69.8518 143.904 69.6314 143.511C69.4111 143.118 69.1093 142.826 68.726 142.635C68.3427 142.443 67.9259 142.347 67.4756 142.347C66.757 142.347 66.1534 142.572 65.6647 143.023C65.1761 143.463 64.9126 144.115 64.8743 144.977H69.9189Z" fill="#292929"/>
<path d="M84.8253 139.961L83.812 140.974L87.1033 144.273L83.812 147.571L84.8253 148.584L89.1369 144.273L84.8253 139.961Z" fill="#292929"/>
<path d="M102.062 128.963H24.1369C15.6805 128.963 8.8252 135.818 8.8252 144.275C8.8252 152.731 15.6805 159.586 24.1369 159.586H102.062C110.519 159.586 117.374 152.731 117.374 144.275C117.374 135.818 110.519 128.963 102.062 128.963Z" stroke="#BCBCBC" stroke-width="1.43722"/>
<path d="M232.888 128.963H154.963C146.506 128.963 139.651 135.818 139.651 144.275C139.651 152.731 146.506 159.586 154.963 159.586H232.888C241.345 159.586 248.2 152.731 248.2 144.275C248.2 135.818 241.345 128.963 232.888 128.963Z" fill="#94F5D8"/>
<path d="M163.638 139.142L166.728 147.823L169.862 139.142H171.284L167.562 149.275H165.909L162.201 139.142H163.638ZM175.839 141.284C176.606 141.284 177.253 141.475 177.78 141.858C178.316 142.242 178.69 142.754 178.901 143.396V141.384H180.208V149.275H178.901V147.262C178.69 147.904 178.316 148.417 177.78 148.8C177.253 149.183 176.606 149.375 175.839 149.375C175.14 149.375 174.517 149.212 173.971 148.886C173.425 148.561 172.994 148.096 172.677 147.492C172.371 146.879 172.218 146.161 172.218 145.337C172.218 144.513 172.371 143.794 172.677 143.181C172.994 142.568 173.425 142.098 173.971 141.772C174.517 141.446 175.14 141.284 175.839 141.284ZM176.213 142.448C175.408 142.448 174.761 142.706 174.273 143.224C173.794 143.732 173.554 144.436 173.554 145.337C173.554 146.237 173.794 146.946 174.273 147.464C174.761 147.971 175.408 148.225 176.213 148.225C176.73 148.225 177.19 148.106 177.593 147.866C178.005 147.627 178.326 147.291 178.556 146.86C178.786 146.419 178.901 145.911 178.901 145.337C178.901 144.762 178.786 144.254 178.556 143.813C178.326 143.372 178.005 143.037 177.593 142.807C177.19 142.568 176.73 142.448 176.213 142.448ZM183.598 138.639V149.275H182.29V138.639H183.598ZM192.714 141.384V149.275H191.406V147.421C191.205 148.062 190.846 148.556 190.328 148.901C189.821 149.236 189.226 149.404 188.546 149.404C187.636 149.404 186.898 149.112 186.333 148.527C185.768 147.933 185.485 147.085 185.485 145.983V141.384H186.793V145.854C186.793 146.64 186.994 147.248 187.396 147.679C187.799 148.101 188.345 148.312 189.035 148.312C189.753 148.312 190.328 148.082 190.76 147.622C191.191 147.152 191.406 146.472 191.406 145.581V141.384H192.714ZM202.067 144.891C202.067 145.169 202.048 145.408 202.01 145.61H195.701C195.729 146.51 195.983 147.186 196.462 147.636C196.951 148.086 197.545 148.312 198.244 148.312C198.877 148.312 199.404 148.153 199.825 147.837C200.256 147.512 200.52 147.08 200.616 146.544H202.01C201.914 147.09 201.698 147.579 201.363 148.01C201.037 148.441 200.611 148.776 200.084 149.016C199.557 149.255 198.963 149.375 198.302 149.375C197.545 149.375 196.874 149.212 196.29 148.886C195.705 148.561 195.245 148.096 194.91 147.492C194.584 146.879 194.421 146.161 194.421 145.337C194.421 144.513 194.584 143.794 194.91 143.181C195.245 142.568 195.705 142.098 196.29 141.772C196.874 141.446 197.545 141.284 198.302 141.284C199.068 141.284 199.734 141.446 200.3 141.772C200.874 142.098 201.31 142.534 201.607 143.08C201.914 143.626 202.067 144.23 202.067 144.891ZM200.745 144.977C200.774 144.393 200.678 143.904 200.458 143.511C200.237 143.118 199.936 142.826 199.552 142.635C199.169 142.443 198.752 142.347 198.302 142.347C197.583 142.347 196.98 142.572 196.491 143.023C196.002 143.463 195.739 144.115 195.701 144.977H200.745Z" fill="#292929"/>
<path d="M215.651 139.961L214.638 140.974L217.929 144.273L214.638 147.571L215.651 148.584L219.963 144.273L215.651 139.961Z" fill="#292929"/>
<path d="M232.888 128.963H154.963C146.506 128.963 139.651 135.818 139.651 144.275C139.651 152.731 146.506 159.586 154.963 159.586H232.888C241.345 159.586 248.2 152.731 248.2 144.275C248.2 135.818 241.345 128.963 232.888 128.963Z" stroke="#BCBCBC" stroke-width="1.43722"/>
<path d="M363.714 128.963H285.789C277.332 128.963 270.477 135.818 270.477 144.275C270.477 152.731 277.332 159.586 285.789 159.586H363.714C372.171 159.586 379.026 152.731 379.026 144.275C379.026 135.818 372.171 128.963 363.714 128.963Z" fill="#006575"/>
<path d="M294.464 139.142L297.554 147.823L300.688 139.142H302.11L298.388 149.275H296.735L293.027 139.142H294.464ZM306.665 141.284C307.432 141.284 308.079 141.475 308.606 141.858C309.142 142.242 309.516 142.754 309.727 143.396V141.384H311.034V149.275H309.727V147.262C309.516 147.904 309.142 148.417 308.606 148.8C308.079 149.183 307.432 149.375 306.665 149.375C305.966 149.375 305.343 149.212 304.797 148.886C304.251 148.561 303.82 148.096 303.503 147.492C303.197 146.879 303.043 146.161 303.043 145.337C303.043 144.513 303.197 143.794 303.503 143.181C303.82 142.568 304.251 142.098 304.797 141.772C305.343 141.446 305.966 141.284 306.665 141.284ZM307.039 142.448C306.234 142.448 305.587 142.706 305.099 143.224C304.62 143.732 304.38 144.436 304.38 145.337C304.38 146.237 304.62 146.946 305.099 147.464C305.587 147.971 306.234 148.225 307.039 148.225C307.556 148.225 308.016 148.106 308.419 147.866C308.831 147.627 309.152 147.291 309.382 146.86C309.612 146.419 309.727 145.911 309.727 145.337C309.727 144.762 309.612 144.254 309.382 143.813C309.152 143.372 308.831 143.037 308.419 142.807C308.016 142.568 307.556 142.448 307.039 142.448ZM314.424 138.639V149.275H313.116V138.639H314.424ZM323.54 141.384V149.275H322.232V147.421C322.031 148.062 321.672 148.556 321.154 148.901C320.647 149.236 320.052 149.404 319.372 149.404C318.462 149.404 317.724 149.112 317.159 148.527C316.594 147.933 316.311 147.085 316.311 145.983V141.384H317.619V145.854C317.619 146.64 317.82 147.248 318.222 147.679C318.625 148.101 319.171 148.312 319.861 148.312C320.579 148.312 321.154 148.082 321.585 147.622C322.017 147.152 322.232 146.472 322.232 145.581V141.384H323.54ZM332.893 144.891C332.893 145.169 332.874 145.408 332.836 145.61H326.526C326.555 146.51 326.809 147.186 327.288 147.636C327.777 148.086 328.371 148.312 329.07 148.312C329.703 148.312 330.23 148.153 330.651 147.837C331.082 147.512 331.346 147.08 331.442 146.544H332.836C332.74 147.09 332.524 147.579 332.189 148.01C331.863 148.441 331.437 148.776 330.91 149.016C330.383 149.255 329.789 149.375 329.128 149.375C328.371 149.375 327.7 149.212 327.116 148.886C326.531 148.561 326.071 148.096 325.736 147.492C325.41 146.879 325.247 146.161 325.247 145.337C325.247 144.513 325.41 143.794 325.736 143.181C326.071 142.568 326.531 142.098 327.116 141.772C327.7 141.446 328.371 141.284 329.128 141.284C329.894 141.284 330.56 141.446 331.126 141.772C331.7 142.098 332.136 142.534 332.433 143.08C332.74 143.626 332.893 144.23 332.893 144.891ZM331.571 144.977C331.6 144.393 331.504 143.904 331.284 143.511C331.063 143.118 330.761 142.826 330.378 142.635C329.995 142.443 329.578 142.347 329.128 142.347C328.409 142.347 327.806 142.572 327.317 143.023C326.828 143.463 326.565 144.115 326.526 144.977H331.571Z" fill="white"/>
<path d="M346.477 139.961L345.464 140.974L348.755 144.273L345.464 147.571L346.477 148.584L350.789 144.273L346.477 139.961Z" fill="white"/>
<path d="M363.714 128.963H285.789C277.332 128.963 270.477 135.818 270.477 144.275C270.477 152.731 277.332 159.586 285.789 159.586H363.714C372.171 159.586 379.026 152.731 379.026 144.275C379.026 135.818 372.171 128.963 363.714 128.963Z" stroke="#BCBCBC" stroke-width="1.43722"/>
<path d="M494.541 128.963H416.615C408.158 128.963 401.303 135.818 401.303 144.275C401.303 152.731 408.158 159.586 416.615 159.586H494.541C502.997 159.586 509.852 152.731 509.852 144.275C509.852 135.818 502.997 128.963 494.541 128.963Z" fill="#DDDDDD"/>
<path d="M425.29 139.142L428.381 147.823L431.514 139.142H432.936L429.214 149.275H427.561L423.853 139.142H425.29ZM437.491 141.284C438.258 141.284 438.905 141.475 439.432 141.858C439.968 142.242 440.342 142.754 440.553 143.396V141.384H441.86V149.275H440.553V147.262C440.342 147.904 439.968 148.417 439.432 148.8C438.905 149.183 438.258 149.375 437.491 149.375C436.792 149.375 436.169 149.212 435.623 148.886C435.077 148.561 434.646 148.096 434.329 147.492C434.023 146.879 433.87 146.161 433.87 145.337C433.87 144.513 434.023 143.794 434.329 143.181C434.646 142.568 435.077 142.098 435.623 141.772C436.169 141.446 436.792 141.284 437.491 141.284ZM437.865 142.448C437.06 142.448 436.413 142.706 435.925 143.224C435.446 143.732 435.206 144.436 435.206 145.337C435.206 146.237 435.446 146.946 435.925 147.464C436.413 147.971 437.06 148.225 437.865 148.225C438.382 148.225 438.842 148.106 439.245 147.866C439.657 147.627 439.978 147.291 440.208 146.86C440.438 146.419 440.553 145.911 440.553 145.337C440.553 144.762 440.438 144.254 440.208 143.813C439.978 143.372 439.657 143.037 439.245 142.807C438.842 142.568 438.382 142.448 437.865 142.448ZM445.25 138.639V149.275H443.942V138.639H445.25ZM454.366 141.384V149.275H453.058V147.421C452.857 148.062 452.498 148.556 451.98 148.901C451.473 149.236 450.879 149.404 450.198 149.404C449.288 149.404 448.55 149.112 447.985 148.527C447.42 147.933 447.137 147.085 447.137 145.983V141.384H448.445V145.854C448.445 146.64 448.646 147.248 449.048 147.679C449.451 148.101 449.997 148.312 450.687 148.312C451.405 148.312 451.98 148.082 452.412 147.622C452.843 147.152 453.058 146.472 453.058 145.581V141.384H454.366ZM463.719 144.891C463.719 145.169 463.7 145.408 463.662 145.61H457.353C457.381 146.51 457.635 147.186 458.114 147.636C458.603 148.086 459.197 148.312 459.896 148.312C460.529 148.312 461.056 148.153 461.477 147.837C461.909 147.512 462.172 147.08 462.268 146.544H463.662C463.566 147.09 463.351 147.579 463.015 148.01C462.689 148.441 462.263 148.776 461.736 149.016C461.209 149.255 460.615 149.375 459.954 149.375C459.197 149.375 458.526 149.212 457.942 148.886C457.357 148.561 456.897 148.096 456.562 147.492C456.236 146.879 456.073 146.161 456.073 145.337C456.073 144.513 456.236 143.794 456.562 143.181C456.897 142.568 457.357 142.098 457.942 141.772C458.526 141.446 459.197 141.284 459.954 141.284C460.72 141.284 461.386 141.446 461.952 141.772C462.527 142.098 462.962 142.534 463.26 143.08C463.566 143.626 463.719 144.23 463.719 144.891ZM462.397 144.977C462.426 144.393 462.33 143.904 462.11 143.511C461.889 143.118 461.588 142.826 461.204 142.635C460.821 142.443 460.404 142.347 459.954 142.347C459.235 142.347 458.632 142.572 458.143 143.023C457.654 143.463 457.391 144.115 457.353 144.977H462.397Z" fill="#BCBCBC"/>
<path d="M477.303 139.961L476.29 140.974L479.581 144.273L476.29 147.571L477.303 148.584L481.615 144.273L477.303 139.961Z" fill="#BCBCBC"/>
<path d="M494.541 128.963H416.615C408.158 128.963 401.303 135.818 401.303 144.275C401.303 152.731 408.158 159.586 416.615 159.586H494.541C502.997 159.586 509.852 152.731 509.852 144.275C509.852 135.818 502.997 128.963 494.541 128.963Z" stroke="#BCBCBC" stroke-width="1.43722"/>
<path d="M602.371 128.963H547.441C538.984 128.963 532.129 135.818 532.129 144.275C532.129 152.731 538.984 159.586 547.441 159.586H602.371C610.827 159.586 617.683 152.731 617.683 144.275C617.683 135.818 610.827 128.963 602.371 128.963Z" fill="white"/>
<path d="M556.117 139.142L559.207 147.823L562.34 139.142H563.763L560.04 149.275H558.387L554.679 139.142H556.117ZM568.317 141.284C569.084 141.284 569.731 141.475 570.258 141.858C570.794 142.242 571.168 142.754 571.379 143.396V141.384H572.687V149.275H571.379V147.262C571.168 147.904 570.794 148.417 570.258 148.8C569.731 149.183 569.084 149.375 568.317 149.375C567.618 149.375 566.995 149.212 566.449 148.886C565.903 148.561 565.472 148.096 565.156 147.492C564.849 146.879 564.696 146.161 564.696 145.337C564.696 144.513 564.849 143.794 565.156 143.181C565.472 142.568 565.903 142.098 566.449 141.772C566.995 141.446 567.618 141.284 568.317 141.284ZM568.691 142.448C567.886 142.448 567.239 142.706 566.751 143.224C566.272 143.732 566.032 144.436 566.032 145.337C566.032 146.237 566.272 146.946 566.751 147.464C567.239 147.971 567.886 148.225 568.691 148.225C569.208 148.225 569.668 148.106 570.071 147.866C570.483 147.627 570.804 147.291 571.034 146.86C571.264 146.419 571.379 145.911 571.379 145.337C571.379 144.762 571.264 144.254 571.034 143.813C570.804 143.372 570.483 143.037 570.071 142.807C569.668 142.568 569.208 142.448 568.691 142.448ZM576.076 138.639V149.275H574.768V138.639H576.076ZM585.192 141.384V149.275H583.884V147.421C583.683 148.062 583.324 148.556 582.806 148.901C582.299 149.236 581.705 149.404 581.024 149.404C580.114 149.404 579.376 149.112 578.811 148.527C578.246 147.933 577.963 147.085 577.963 145.983V141.384H579.271V145.854C579.271 146.64 579.472 147.248 579.875 147.679C580.277 148.101 580.823 148.312 581.513 148.312C582.232 148.312 582.806 148.082 583.238 147.622C583.669 147.152 583.884 146.472 583.884 145.581V141.384H585.192ZM594.545 144.891C594.545 145.169 594.526 145.408 594.488 145.61H588.179C588.207 146.51 588.461 147.186 588.94 147.636C589.429 148.086 590.023 148.312 590.722 148.312C591.355 148.312 591.882 148.153 592.303 147.837C592.735 147.512 592.998 147.08 593.094 146.544H594.488C594.392 147.09 594.177 147.579 593.841 148.01C593.515 148.441 593.089 148.776 592.562 149.016C592.035 149.255 591.441 149.375 590.78 149.375C590.023 149.375 589.352 149.212 588.768 148.886C588.183 148.561 587.723 148.096 587.388 147.492C587.062 146.879 586.899 146.161 586.899 145.337C586.899 144.513 587.062 143.794 587.388 143.181C587.723 142.568 588.183 142.098 588.768 141.772C589.352 141.446 590.023 141.284 590.78 141.284C591.546 141.284 592.212 141.446 592.778 141.772C593.353 142.098 593.789 142.534 594.086 143.08C594.392 143.626 594.545 144.23 594.545 144.891ZM593.223 144.977C593.252 144.393 593.156 143.904 592.936 143.511C592.715 143.118 592.414 142.826 592.03 142.635C591.647 142.443 591.23 142.347 590.78 142.347C590.061 142.347 589.458 142.572 588.969 143.023C588.48 143.463 588.217 144.115 588.179 144.977H593.223Z" fill="#292929"/>
<path d="M602.371 128.963H547.441C538.984 128.963 532.129 135.818 532.129 144.275C532.129 152.731 538.984 159.586 547.441 159.586H602.371C610.827 159.586 617.683 152.731 617.683 144.275C617.683 135.818 610.827 128.963 602.371 128.963Z" stroke="#BCBCBC" stroke-width="1.43722"/>
<path d="M710.202 128.963H655.272C646.815 128.963 639.96 135.818 639.96 144.275C639.96 152.731 646.815 159.586 655.272 159.586H710.202C718.658 159.586 725.514 152.731 725.514 144.275C725.514 135.818 718.658 128.963 710.202 128.963Z" fill="#94F5D8"/>
<path d="M663.947 139.142L667.037 147.823L670.17 139.142H671.593L667.871 149.275H666.218L662.51 139.142H663.947ZM676.148 141.284C676.914 141.284 677.561 141.475 678.088 141.858C678.625 142.242 678.998 142.754 679.209 143.396V141.384H680.517V149.275H679.209V147.262C678.998 147.904 678.625 148.417 678.088 148.8C677.561 149.183 676.914 149.375 676.148 149.375C675.449 149.375 674.826 149.212 674.28 148.886C673.733 148.561 673.302 148.096 672.986 147.492C672.679 146.879 672.526 146.161 672.526 145.337C672.526 144.513 672.679 143.794 672.986 143.181C673.302 142.568 673.733 142.098 674.28 141.772C674.826 141.446 675.449 141.284 676.148 141.284ZM676.522 142.448C675.717 142.448 675.07 142.706 674.581 143.224C674.102 143.732 673.863 144.436 673.863 145.337C673.863 146.237 674.102 146.946 674.581 147.464C675.07 147.971 675.717 148.225 676.522 148.225C677.039 148.225 677.499 148.106 677.901 147.866C678.313 147.627 678.634 147.291 678.864 146.86C679.094 146.419 679.209 145.911 679.209 145.337C679.209 144.762 679.094 144.254 678.864 143.813C678.634 143.372 678.313 143.037 677.901 142.807C677.499 142.568 677.039 142.448 676.522 142.448ZM683.906 138.639V149.275H682.599V138.639H683.906ZM693.023 141.384V149.275H691.715V147.421C691.514 148.062 691.154 148.556 690.637 148.901C690.129 149.236 689.535 149.404 688.855 149.404C687.945 149.404 687.207 149.112 686.642 148.527C686.076 147.933 685.794 147.085 685.794 145.983V141.384H687.101V145.854C687.101 146.64 687.303 147.248 687.705 147.679C688.107 148.101 688.654 148.312 689.344 148.312C690.062 148.312 690.637 148.082 691.068 147.622C691.499 147.152 691.715 146.472 691.715 145.581V141.384H693.023ZM702.376 144.891C702.376 145.169 702.357 145.408 702.319 145.61H696.009C696.038 146.51 696.292 147.186 696.771 147.636C697.26 148.086 697.854 148.312 698.553 148.312C699.185 148.312 699.712 148.153 700.134 147.837C700.565 147.512 700.829 147.08 700.924 146.544H702.319C702.223 147.09 702.007 147.579 701.672 148.01C701.346 148.441 700.92 148.776 700.393 149.016C699.866 149.255 699.272 149.375 698.611 149.375C697.854 149.375 697.183 149.212 696.598 148.886C696.014 148.561 695.554 148.096 695.219 147.492C694.893 146.879 694.73 146.161 694.73 145.337C694.73 144.513 694.893 143.794 695.219 143.181C695.554 142.568 696.014 142.098 696.598 141.772C697.183 141.446 697.854 141.284 698.611 141.284C699.377 141.284 700.043 141.446 700.608 141.772C701.183 142.098 701.619 142.534 701.916 143.08C702.223 143.626 702.376 144.23 702.376 144.891ZM701.054 144.977C701.083 144.393 700.987 143.904 700.766 143.511C700.546 143.118 700.244 142.826 699.861 142.635C699.478 142.443 699.061 142.347 698.611 142.347C697.892 142.347 697.288 142.572 696.8 143.023C696.311 143.463 696.047 144.115 696.009 144.977H701.054Z" fill="#292929"/>
<path d="M710.202 128.963H655.272C646.815 128.963 639.96 135.818 639.96 144.275C639.96 152.731 646.815 159.586 655.272 159.586H710.202C718.658 159.586 725.514 152.731 725.514 144.275C725.514 135.818 718.658 128.963 710.202 128.963Z" stroke="#BCBCBC" stroke-width="1.43722"/>
<path d="M818.033 128.963H763.103C754.646 128.963 747.791 135.818 747.791 144.275C747.791 152.731 754.646 159.586 763.103 159.586H818.033C826.489 159.586 833.345 152.731 833.345 144.275C833.345 135.818 826.489 128.963 818.033 128.963Z" fill="#006575"/>
<path d="M771.778 139.142L774.868 147.823L778.001 139.142H779.424L775.701 149.275H774.048L770.34 139.142H771.778ZM783.979 141.284C784.745 141.284 785.392 141.475 785.919 141.858C786.455 142.242 786.829 142.754 787.04 143.396V141.384H788.348V149.275H787.04V147.262C786.829 147.904 786.455 148.417 785.919 148.8C785.392 149.183 784.745 149.375 783.979 149.375C783.279 149.375 782.656 149.212 782.11 148.886C781.564 148.561 781.133 148.096 780.817 147.492C780.51 146.879 780.357 146.161 780.357 145.337C780.357 144.513 780.51 143.794 780.817 143.181C781.133 142.568 781.564 142.098 782.11 141.772C782.656 141.446 783.279 141.284 783.979 141.284ZM784.352 142.448C783.547 142.448 782.901 142.706 782.412 143.224C781.933 143.732 781.693 144.436 781.693 145.337C781.693 146.237 781.933 146.946 782.412 147.464C782.901 147.971 783.547 148.225 784.352 148.225C784.87 148.225 785.329 148.106 785.732 147.866C786.144 147.627 786.465 147.291 786.695 146.86C786.925 146.419 787.04 145.911 787.04 145.337C787.04 144.762 786.925 144.254 786.695 143.813C786.465 143.372 786.144 143.037 785.732 142.807C785.329 142.568 784.87 142.448 784.352 142.448ZM791.737 138.639V149.275H790.429V138.639H791.737ZM800.853 141.384V149.275H799.545V147.421C799.344 148.062 798.985 148.556 798.468 148.901C797.96 149.236 797.366 149.404 796.685 149.404C795.775 149.404 795.037 149.112 794.472 148.527C793.907 147.933 793.624 147.085 793.624 145.983V141.384H794.932V145.854C794.932 146.64 795.133 147.248 795.536 147.679C795.938 148.101 796.484 148.312 797.174 148.312C797.893 148.312 798.468 148.082 798.899 147.622C799.33 147.152 799.545 146.472 799.545 145.581V141.384H800.853ZM810.207 144.891C810.207 145.169 810.187 145.408 810.149 145.61H803.84C803.868 146.51 804.122 147.186 804.601 147.636C805.09 148.086 805.684 148.312 806.384 148.312C807.016 148.312 807.543 148.153 807.965 147.837C808.396 147.512 808.659 147.08 808.755 146.544H810.149C810.053 147.09 809.838 147.579 809.502 148.01C809.177 148.441 808.75 148.776 808.223 149.016C807.696 149.255 807.102 149.375 806.441 149.375C805.684 149.375 805.013 149.212 804.429 148.886C803.845 148.561 803.385 148.096 803.049 147.492C802.723 146.879 802.561 146.161 802.561 145.337C802.561 144.513 802.723 143.794 803.049 143.181C803.385 142.568 803.845 142.098 804.429 141.772C805.013 141.446 805.684 141.284 806.441 141.284C807.208 141.284 807.874 141.446 808.439 141.772C809.014 142.098 809.45 142.534 809.747 143.08C810.053 143.626 810.207 144.23 810.207 144.891ZM808.884 144.977C808.913 144.393 808.817 143.904 808.597 143.511C808.377 143.118 808.075 142.826 807.691 142.635C807.308 142.443 806.891 142.347 806.441 142.347C805.722 142.347 805.119 142.572 804.63 143.023C804.142 143.463 803.878 144.115 803.84 144.977H808.884Z" fill="white"/>
<path d="M818.033 128.963H763.103C754.646 128.963 747.791 135.818 747.791 144.275C747.791 152.731 754.646 159.586 763.103 159.586H818.033C826.489 159.586 833.345 152.731 833.345 144.275C833.345 135.818 826.489 128.963 818.033 128.963Z" stroke="#BCBCBC" stroke-width="1.43722"/>
<path d="M925.863 128.963H870.933C862.476 128.963 855.621 135.818 855.621 144.275C855.621 152.731 862.476 159.586 870.933 159.586H925.863C934.32 159.586 941.175 152.731 941.175 144.275C941.175 135.818 934.32 128.963 925.863 128.963Z" fill="#DDDDDD"/>
<path d="M879.608 139.142L882.698 147.823L885.831 139.142H887.254L883.532 149.275H881.879L878.171 139.142H879.608ZM891.809 141.284C892.576 141.284 893.222 141.475 893.749 141.858C894.286 142.242 894.66 142.754 894.87 143.396V141.384H896.178V149.275H894.87V147.262C894.66 147.904 894.286 148.417 893.749 148.8C893.222 149.183 892.576 149.375 891.809 149.375C891.11 149.375 890.487 149.212 889.941 148.886C889.395 148.561 888.963 148.096 888.647 147.492C888.341 146.879 888.187 146.161 888.187 145.337C888.187 144.513 888.341 143.794 888.647 143.181C888.963 142.568 889.395 142.098 889.941 141.772C890.487 141.446 891.11 141.284 891.809 141.284ZM892.183 142.448C891.378 142.448 890.731 142.706 890.243 143.224C889.763 143.732 889.524 144.436 889.524 145.337C889.524 146.237 889.763 146.946 890.243 147.464C890.731 147.971 891.378 148.225 892.183 148.225C892.7 148.225 893.16 148.106 893.562 147.866C893.974 147.627 894.295 147.291 894.525 146.86C894.755 146.419 894.87 145.911 894.87 145.337C894.87 144.762 894.755 144.254 894.525 143.813C894.295 143.372 893.974 143.037 893.562 142.807C893.16 142.568 892.7 142.448 892.183 142.448ZM899.568 138.639V149.275H898.26V138.639H899.568ZM908.684 141.384V149.275H907.376V147.421C907.175 148.062 906.816 148.556 906.298 148.901C905.79 149.236 905.196 149.404 904.516 149.404C903.606 149.404 902.868 149.112 902.303 148.527C901.737 147.933 901.455 147.085 901.455 145.983V141.384H902.763V145.854C902.763 146.64 902.964 147.248 903.366 147.679C903.769 148.101 904.315 148.312 905.005 148.312C905.723 148.312 906.298 148.082 906.729 147.622C907.16 147.152 907.376 146.472 907.376 145.581V141.384H908.684ZM918.037 144.891C918.037 145.169 918.018 145.408 917.98 145.61H911.67C911.699 146.51 911.953 147.186 912.432 147.636C912.921 148.086 913.515 148.312 914.214 148.312C914.847 148.312 915.374 148.153 915.795 147.837C916.226 147.512 916.49 147.08 916.586 146.544H917.98C917.884 147.09 917.668 147.579 917.333 148.01C917.007 148.441 916.581 148.776 916.054 149.016C915.527 149.255 914.933 149.375 914.272 149.375C913.515 149.375 912.844 149.212 912.26 148.886C911.675 148.561 911.215 148.096 910.88 147.492C910.554 146.879 910.391 146.161 910.391 145.337C910.391 144.513 910.554 143.794 910.88 143.181C911.215 142.568 911.675 142.098 912.26 141.772C912.844 141.446 913.515 141.284 914.272 141.284C915.038 141.284 915.704 141.446 916.269 141.772C916.844 142.098 917.28 142.534 917.577 143.08C917.884 143.626 918.037 144.23 918.037 144.891ZM916.715 144.977C916.744 144.393 916.648 143.904 916.427 143.511C916.207 143.118 915.905 142.826 915.522 142.635C915.139 142.443 914.722 142.347 914.272 142.347C913.553 142.347 912.949 142.572 912.461 143.023C911.972 143.463 911.709 144.115 911.67 144.977H916.715Z" fill="#BCBCBC"/>
<path d="M925.863 128.963H870.933C862.476 128.963 855.621 135.818 855.621 144.275C855.621 152.731 862.476 159.586 870.933 159.586H925.863C934.32 159.586 941.175 152.731 941.175 144.275C941.175 135.818 934.32 128.963 925.863 128.963Z" stroke="#BCBCBC" stroke-width="1.43722"/>
<path d="M95.0822 184.02H13.8448C7.40744 184.02 2.18896 189.238 2.18896 195.675C2.18896 202.113 7.40744 207.331 13.8448 207.331H95.0822C101.519 207.331 106.738 202.113 106.738 195.675C106.738 189.238 101.519 184.02 95.0822 184.02Z" fill="white"/>
<path d="M26.0054 191.057L28.7864 198.869L31.6062 191.057H32.8868L29.5366 200.176H28.0491L24.7119 191.057H26.0054ZM36.9862 192.984C37.676 192.984 38.2581 193.156 38.7324 193.501C39.2153 193.846 39.5516 194.308 39.7413 194.885V193.075H40.9184V200.176H39.7413V198.365C39.5516 198.943 39.2153 199.404 38.7324 199.749C38.2581 200.094 37.676 200.266 36.9862 200.266C36.3567 200.266 35.7961 200.12 35.3046 199.827C34.8131 199.533 34.425 199.115 34.1405 198.572C33.8645 198.02 33.7266 197.373 33.7266 196.632C33.7266 195.89 33.8645 195.243 34.1405 194.691C34.425 194.14 34.8131 193.717 35.3046 193.424C35.7961 193.131 36.3567 192.984 36.9862 192.984ZM37.3225 194.032C36.5981 194.032 36.016 194.265 35.5763 194.73C35.1451 195.187 34.9295 195.821 34.9295 196.632C34.9295 197.442 35.1451 198.08 35.5763 198.546C36.016 199.003 36.5981 199.232 37.3225 199.232C37.7881 199.232 38.202 199.124 38.5642 198.908C38.935 198.693 39.2239 198.391 39.4309 198.003C39.6378 197.606 39.7413 197.149 39.7413 196.632C39.7413 196.114 39.6378 195.657 39.4309 195.261C39.2239 194.864 38.935 194.562 38.5642 194.355C38.202 194.14 37.7881 194.032 37.3225 194.032ZM43.9688 190.604V200.176H42.7917V190.604H43.9688ZM52.1735 193.075V200.176H50.9964V198.507C50.8153 199.085 50.492 199.529 50.0263 199.84C49.5693 200.141 49.0346 200.292 48.4224 200.292C47.6032 200.292 46.9392 200.029 46.4304 199.503C45.9216 198.969 45.6672 198.205 45.6672 197.214V193.075H46.8443V197.097C46.8443 197.804 47.0254 198.352 47.3876 198.74C47.7498 199.12 48.2413 199.309 48.8622 199.309C49.5089 199.309 50.0263 199.102 50.4144 198.688C50.8024 198.266 50.9964 197.654 50.9964 196.852V193.075H52.1735ZM60.5914 196.231C60.5914 196.481 60.5742 196.696 60.5397 196.877H54.8612C54.8871 197.688 55.1156 198.296 55.5468 198.701C55.9866 199.107 56.5212 199.309 57.1507 199.309C57.7199 199.309 58.1942 199.167 58.5736 198.882C58.9616 198.589 59.1988 198.201 59.285 197.718H60.5397C60.4535 198.21 60.2594 198.65 59.9576 199.038C59.6644 199.426 59.2807 199.727 58.8064 199.943C58.3321 200.159 57.7975 200.266 57.2025 200.266C56.5212 200.266 55.9176 200.12 55.3916 199.827C54.8656 199.533 54.4516 199.115 54.1498 198.572C53.8566 198.02 53.71 197.373 53.71 196.632C53.71 195.89 53.8566 195.243 54.1498 194.691C54.4516 194.14 54.8656 193.717 55.3916 193.424C55.9176 193.131 56.5212 192.984 57.2025 192.984C57.8923 192.984 58.4917 193.131 59.0004 193.424C59.5178 193.717 59.9102 194.109 60.1775 194.601C60.4535 195.092 60.5914 195.636 60.5914 196.231ZM59.4014 196.308C59.4273 195.782 59.3411 195.343 59.1427 194.989C58.9444 194.635 58.6727 194.372 58.3278 194.2C57.9829 194.027 57.6078 193.941 57.2025 193.941C56.5557 193.941 56.0125 194.144 55.5727 194.549C55.1329 194.946 54.8957 195.532 54.8612 196.308H59.4014Z" fill="#292929"/>
<path d="M74.1891 191.363L73.1758 192.377L76.467 195.675L73.1758 198.973L74.1891 199.987L78.5007 195.675L74.1891 191.363Z" fill="#292929"/>
<path d="M95.0822 184.02H13.8448C7.40744 184.02 2.18896 189.238 2.18896 195.675C2.18896 202.113 7.40744 207.331 13.8448 207.331H95.0822C101.519 207.331 106.738 202.113 106.738 195.675C106.738 189.238 101.519 184.02 95.0822 184.02Z" stroke="#BCBCBC" stroke-width="1.43722"/>
<path d="M228.376 184.02H147.139C140.701 184.02 135.483 189.238 135.483 195.675C135.483 202.113 140.701 207.331 147.139 207.331H228.376C234.813 207.331 240.032 202.113 240.032 195.675C240.032 189.238 234.813 184.02 228.376 184.02Z" fill="#94F5D8"/>
<path d="M159.299 191.057L162.08 198.869L164.9 191.057H166.18L162.83 200.176H161.342L158.005 191.057H159.299ZM170.279 192.984C170.969 192.984 171.551 193.156 172.026 193.501C172.509 193.846 172.845 194.308 173.035 194.885V193.075H174.212V200.176H173.035V198.365C172.845 198.943 172.509 199.404 172.026 199.749C171.551 200.094 170.969 200.266 170.279 200.266C169.65 200.266 169.089 200.12 168.598 199.827C168.106 199.533 167.718 199.115 167.434 198.572C167.158 198.02 167.02 197.373 167.02 196.632C167.02 195.89 167.158 195.243 167.434 194.691C167.718 194.14 168.106 193.717 168.598 193.424C169.089 193.131 169.65 192.984 170.279 192.984ZM170.616 194.032C169.891 194.032 169.309 194.265 168.87 194.73C168.438 195.187 168.223 195.821 168.223 196.632C168.223 197.442 168.438 198.08 168.87 198.546C169.309 199.003 169.891 199.232 170.616 199.232C171.081 199.232 171.495 199.124 171.858 198.908C172.228 198.693 172.517 198.391 172.724 198.003C172.931 197.606 173.035 197.149 173.035 196.632C173.035 196.114 172.931 195.657 172.724 195.261C172.517 194.864 172.228 194.562 171.858 194.355C171.495 194.14 171.081 194.032 170.616 194.032ZM177.262 190.604V200.176H176.085V190.604H177.262ZM185.467 193.075V200.176H184.29V198.507C184.109 199.085 183.785 199.529 183.32 199.84C182.863 200.141 182.328 200.292 181.716 200.292C180.896 200.292 180.232 200.029 179.724 199.503C179.215 198.969 178.961 198.205 178.961 197.214V193.075H180.138V197.097C180.138 197.804 180.319 198.352 180.681 198.74C181.043 199.12 181.535 199.309 182.155 199.309C182.802 199.309 183.32 199.102 183.708 198.688C184.096 198.266 184.29 197.654 184.29 196.852V193.075H185.467ZM193.885 196.231C193.885 196.481 193.868 196.696 193.833 196.877H188.155C188.18 197.688 188.409 198.296 188.84 198.701C189.28 199.107 189.815 199.309 190.444 199.309C191.013 199.309 191.487 199.167 191.867 198.882C192.255 198.589 192.492 198.201 192.578 197.718H193.833C193.747 198.21 193.553 198.65 193.251 199.038C192.958 199.426 192.574 199.727 192.1 199.943C191.625 200.159 191.091 200.266 190.496 200.266C189.815 200.266 189.211 200.12 188.685 199.827C188.159 199.533 187.745 199.115 187.443 198.572C187.15 198.02 187.003 197.373 187.003 196.632C187.003 195.89 187.15 195.243 187.443 194.691C187.745 194.14 188.159 193.717 188.685 193.424C189.211 193.131 189.815 192.984 190.496 192.984C191.186 192.984 191.785 193.131 192.294 193.424C192.811 193.717 193.204 194.109 193.471 194.601C193.747 195.092 193.885 195.636 193.885 196.231ZM192.695 196.308C192.721 195.782 192.634 195.343 192.436 194.989C192.238 194.635 191.966 194.372 191.621 194.2C191.276 194.027 190.901 193.941 190.496 193.941C189.849 193.941 189.306 194.144 188.866 194.549C188.426 194.946 188.189 195.532 188.155 196.308H192.695Z" fill="#292929"/>
<path d="M207.482 191.363L206.469 192.377L209.76 195.675L206.469 198.973L207.482 199.987L211.794 195.675L207.482 191.363Z" fill="#292929"/>
<path d="M228.376 184.02H147.139C140.701 184.02 135.483 189.238 135.483 195.675C135.483 202.113 140.701 207.331 147.139 207.331H228.376C234.813 207.331 240.032 202.113 240.032 195.675C240.032 189.238 234.813 184.02 228.376 184.02Z" stroke="#BCBCBC" stroke-width="1.43722"/>
<path d="M361.669 184.02H280.432C273.994 184.02 268.776 189.238 268.776 195.675C268.776 202.113 273.994 207.331 280.432 207.331H361.669C368.106 207.331 373.325 202.113 373.325 195.675C373.325 189.238 368.106 184.02 361.669 184.02Z" fill="#006575"/>
<path d="M292.592 191.057L295.373 198.869L298.193 191.057H299.474L296.123 200.176H294.636L291.299 191.057H292.592ZM303.573 192.984C304.263 192.984 304.845 193.156 305.319 193.501C305.802 193.846 306.138 194.308 306.328 194.885V193.075H307.505V200.176H306.328V198.365C306.138 198.943 305.802 199.404 305.319 199.749C304.845 200.094 304.263 200.266 303.573 200.266C302.943 200.266 302.383 200.12 301.891 199.827C301.4 199.533 301.012 199.115 300.727 198.572C300.451 198.02 300.313 197.373 300.313 196.632C300.313 195.89 300.451 195.243 300.727 194.691C301.012 194.14 301.4 193.717 301.891 193.424C302.383 193.131 302.943 192.984 303.573 192.984ZM303.909 194.032C303.185 194.032 302.603 194.265 302.163 194.73C301.732 195.187 301.516 195.821 301.516 196.632C301.516 197.442 301.732 198.08 302.163 198.546C302.603 199.003 303.185 199.232 303.909 199.232C304.375 199.232 304.789 199.124 305.151 198.908C305.522 198.693 305.811 198.391 306.018 198.003C306.225 197.606 306.328 197.149 306.328 196.632C306.328 196.114 306.225 195.657 306.018 195.261C305.811 194.864 305.522 194.562 305.151 194.355C304.789 194.14 304.375 194.032 303.909 194.032ZM310.556 190.604V200.176H309.379V190.604H310.556ZM318.76 193.075V200.176H317.583V198.507C317.402 199.085 317.079 199.529 316.613 199.84C316.156 200.141 315.621 200.292 315.009 200.292C314.19 200.292 313.526 200.029 313.017 199.503C312.508 198.969 312.254 198.205 312.254 197.214V193.075H313.431V197.097C313.431 197.804 313.612 198.352 313.974 198.74C314.337 199.12 314.828 199.309 315.449 199.309C316.096 199.309 316.613 199.102 317.001 198.688C317.389 198.266 317.583 197.654 317.583 196.852V193.075H318.76ZM327.178 196.231C327.178 196.481 327.161 196.696 327.127 196.877H321.448C321.474 197.688 321.702 198.296 322.134 198.701C322.573 199.107 323.108 199.309 323.738 199.309C324.307 199.309 324.781 199.167 325.16 198.882C325.548 198.589 325.786 198.201 325.872 197.718H327.127C327.04 198.21 326.846 198.65 326.544 199.038C326.251 199.426 325.868 199.727 325.393 199.943C324.919 200.159 324.384 200.266 323.789 200.266C323.108 200.266 322.504 200.12 321.978 199.827C321.452 199.533 321.038 199.115 320.737 198.572C320.443 198.02 320.297 197.373 320.297 196.632C320.297 195.89 320.443 195.243 320.737 194.691C321.038 194.14 321.452 193.717 321.978 193.424C322.504 193.131 323.108 192.984 323.789 192.984C324.479 192.984 325.078 193.131 325.587 193.424C326.105 193.717 326.497 194.109 326.764 194.601C327.04 195.092 327.178 195.636 327.178 196.231ZM325.988 196.308C326.014 195.782 325.928 195.343 325.73 194.989C325.531 194.635 325.26 194.372 324.915 194.2C324.57 194.027 324.195 193.941 323.789 193.941C323.143 193.941 322.599 194.144 322.16 194.549C321.72 194.946 321.483 195.532 321.448 196.308H325.988Z" fill="white"/>
<path d="M340.776 191.363L339.763 192.377L343.054 195.675L339.763 198.973L340.776 199.987L345.087 195.675L340.776 191.363Z" fill="white"/>
<path d="M361.669 184.02H280.432C273.994 184.02 268.776 189.238 268.776 195.675C268.776 202.113 273.994 207.331 280.432 207.331H361.669C368.106 207.331 373.325 202.113 373.325 195.675C373.325 189.238 368.106 184.02 361.669 184.02Z" stroke="#BCBCBC" stroke-width="1.43722"/>
<path d="M494.964 184.02H413.726C407.289 184.02 402.07 189.238 402.07 195.675C402.07 202.113 407.289 207.331 413.726 207.331H494.964C501.401 207.331 506.619 202.113 506.619 195.675C506.619 189.238 501.401 184.02 494.964 184.02Z" fill="#DDDDDD"/>
<path d="M425.886 191.057L428.667 198.869L431.487 191.057H432.767L429.417 200.176H427.929L424.592 191.057H425.886ZM436.867 192.984C437.556 192.984 438.138 193.156 438.613 193.501C439.096 193.846 439.432 194.308 439.622 194.885V193.075H440.799V200.176H439.622V198.365C439.432 198.943 439.096 199.404 438.613 199.749C438.138 200.094 437.556 200.266 436.867 200.266C436.237 200.266 435.677 200.12 435.185 199.827C434.693 199.533 434.305 199.115 434.021 198.572C433.745 198.02 433.607 197.373 433.607 196.632C433.607 195.89 433.745 195.243 434.021 194.691C434.305 194.14 434.693 193.717 435.185 193.424C435.677 193.131 436.237 192.984 436.867 192.984ZM437.203 194.032C436.478 194.032 435.896 194.265 435.457 194.73C435.025 195.187 434.81 195.821 434.81 196.632C434.81 197.442 435.025 198.08 435.457 198.546C435.896 199.003 436.478 199.232 437.203 199.232C437.668 199.232 438.082 199.124 438.445 198.908C438.815 198.693 439.104 198.391 439.311 198.003C439.518 197.606 439.622 197.149 439.622 196.632C439.622 196.114 439.518 195.657 439.311 195.261C439.104 194.864 438.815 194.562 438.445 194.355C438.082 194.14 437.668 194.032 437.203 194.032ZM443.849 190.604V200.176H442.672V190.604H443.849ZM452.054 193.075V200.176H450.877V198.507C450.696 199.085 450.372 199.529 449.907 199.84C449.45 200.141 448.915 200.292 448.303 200.292C447.484 200.292 446.82 200.029 446.311 199.503C445.802 198.969 445.548 198.205 445.548 197.214V193.075H446.725V197.097C446.725 197.804 446.906 198.352 447.268 198.74C447.63 199.12 448.122 199.309 448.743 199.309C449.389 199.309 449.907 199.102 450.295 198.688C450.683 198.266 450.877 197.654 450.877 196.852V193.075H452.054ZM460.472 196.231C460.472 196.481 460.455 196.696 460.42 196.877H454.742C454.767 197.688 454.996 198.296 455.427 198.701C455.867 199.107 456.402 199.309 457.031 199.309C457.6 199.309 458.075 199.167 458.454 198.882C458.842 198.589 459.079 198.201 459.165 197.718H460.42C460.334 198.21 460.14 198.65 459.838 199.038C459.545 199.426 459.161 199.727 458.687 199.943C458.212 200.159 457.678 200.266 457.083 200.266C456.402 200.266 455.798 200.12 455.272 199.827C454.746 199.533 454.332 199.115 454.03 198.572C453.737 198.02 453.59 197.373 453.59 196.632C453.59 195.89 453.737 195.243 454.03 194.691C454.332 194.14 454.746 193.717 455.272 193.424C455.798 193.131 456.402 192.984 457.083 192.984C457.773 192.984 458.372 193.131 458.881 193.424C459.398 193.717 459.791 194.109 460.058 194.601C460.334 195.092 460.472 195.636 460.472 196.231ZM459.282 196.308C459.308 195.782 459.221 195.343 459.023 194.989C458.825 194.635 458.553 194.372 458.208 194.2C457.863 194.027 457.488 193.941 457.083 193.941C456.436 193.941 455.893 194.144 455.453 194.549C455.013 194.946 454.776 195.532 454.742 196.308H459.282Z" fill="#BCBCBC"/>
<path d="M474.069 191.363L473.056 192.377L476.347 195.675L473.056 198.973L474.069 199.987L478.381 195.675L474.069 191.363Z" fill="#BCBCBC"/>
<path d="M494.964 184.02H413.726C407.289 184.02 402.07 189.238 402.07 195.675C402.07 202.113 407.289 207.331 413.726 207.331H494.964C501.401 207.331 506.619 202.113 506.619 195.675C506.619 189.238 501.401 184.02 494.964 184.02Z" stroke="#BCBCBC" stroke-width="1.43722"/>
<path d="M605.261 184.02H547.019C540.582 184.02 535.363 189.238 535.363 195.675C535.363 202.113 540.582 207.331 547.019 207.331H605.261C611.699 207.331 616.917 202.113 616.917 195.675C616.917 189.238 611.699 184.02 605.261 184.02Z" fill="white"/>
<path d="M559.179 191.057L561.96 198.869L564.78 191.057H566.061L562.711 200.176H561.223L557.886 191.057H559.179ZM570.16 192.984C570.85 192.984 571.432 193.156 571.906 193.501C572.389 193.846 572.725 194.308 572.915 194.885V193.075H574.092V200.176H572.915V198.365C572.725 198.943 572.389 199.404 571.906 199.749C571.432 200.094 570.85 200.266 570.16 200.266C569.531 200.266 568.97 200.12 568.478 199.827C567.987 199.533 567.599 199.115 567.314 198.572C567.038 198.02 566.9 197.373 566.9 196.632C566.9 195.89 567.038 195.243 567.314 194.691C567.599 194.14 567.987 193.717 568.478 193.424C568.97 193.131 569.531 192.984 570.16 192.984ZM570.496 194.032C569.772 194.032 569.19 194.265 568.75 194.73C568.319 195.187 568.103 195.821 568.103 196.632C568.103 197.442 568.319 198.08 568.75 198.546C569.19 199.003 569.772 199.232 570.496 199.232C570.962 199.232 571.376 199.124 571.738 198.908C572.109 198.693 572.398 198.391 572.605 198.003C572.812 197.606 572.915 197.149 572.915 196.632C572.915 196.114 572.812 195.657 572.605 195.261C572.398 194.864 572.109 194.562 571.738 194.355C571.376 194.14 570.962 194.032 570.496 194.032ZM577.143 190.604V200.176H575.966V190.604H577.143ZM585.347 193.075V200.176H584.17V198.507C583.989 199.085 583.666 199.529 583.2 199.84C582.743 200.141 582.208 200.292 581.596 200.292C580.777 200.292 580.113 200.029 579.604 199.503C579.095 198.969 578.841 198.205 578.841 197.214V193.075H580.018V197.097C580.018 197.804 580.199 198.352 580.561 198.74C580.924 199.12 581.415 199.309 582.036 199.309C582.683 199.309 583.2 199.102 583.588 198.688C583.976 198.266 584.17 197.654 584.17 196.852V193.075H585.347ZM593.765 196.231C593.765 196.481 593.748 196.696 593.714 196.877H588.035C588.061 197.688 588.29 198.296 588.721 198.701C589.16 199.107 589.695 199.309 590.325 199.309C590.894 199.309 591.368 199.167 591.747 198.882C592.135 198.589 592.373 198.201 592.459 197.718H593.714C593.627 198.21 593.433 198.65 593.131 199.038C592.838 199.426 592.455 199.727 591.98 199.943C591.506 200.159 590.971 200.266 590.376 200.266C589.695 200.266 589.091 200.12 588.565 199.827C588.039 199.533 587.626 199.115 587.324 198.572C587.031 198.02 586.884 197.373 586.884 196.632C586.884 195.89 587.031 195.243 587.324 194.691C587.626 194.14 588.039 193.717 588.565 193.424C589.091 193.131 589.695 192.984 590.376 192.984C591.066 192.984 591.666 193.131 592.174 193.424C592.692 193.717 593.084 194.109 593.351 194.601C593.627 195.092 593.765 195.636 593.765 196.231ZM592.575 196.308C592.601 195.782 592.515 195.343 592.317 194.989C592.118 194.635 591.847 194.372 591.502 194.2C591.157 194.027 590.782 193.941 590.376 193.941C589.73 193.941 589.186 194.144 588.747 194.549C588.307 194.946 588.07 195.532 588.035 196.308H592.575Z" fill="#292929"/>
<path d="M605.261 184.02H547.019C540.582 184.02 535.363 189.238 535.363 195.675C535.363 202.113 540.582 207.331 547.019 207.331H605.261C611.699 207.331 616.917 202.113 616.917 195.675C616.917 189.238 611.699 184.02 605.261 184.02Z" stroke="#BCBCBC" stroke-width="1.43722"/>
<path d="M715.559 184.02H657.317C650.88 184.02 645.661 189.238 645.661 195.675C645.661 202.113 650.88 207.331 657.317 207.331H715.559C721.996 207.331 727.215 202.113 727.215 195.675C727.215 189.238 721.996 184.02 715.559 184.02Z" fill="#94F5D8"/>
<path d="M669.477 191.057L672.258 198.869L675.078 191.057H676.359L673.009 200.176H671.521L668.184 191.057H669.477ZM680.458 192.984C681.148 192.984 681.73 193.156 682.204 193.501C682.687 193.846 683.024 194.308 683.213 194.885V193.075H684.39V200.176H683.213V198.365C683.024 198.943 682.687 199.404 682.204 199.749C681.73 200.094 681.148 200.266 680.458 200.266C679.829 200.266 679.268 200.12 678.777 199.827C678.285 199.533 677.897 199.115 677.612 198.572C677.336 198.02 677.199 197.373 677.199 196.632C677.199 195.89 677.336 195.243 677.612 194.691C677.897 194.14 678.285 193.717 678.777 193.424C679.268 193.131 679.829 192.984 680.458 192.984ZM680.794 194.032C680.07 194.032 679.488 194.265 679.048 194.73C678.617 195.187 678.401 195.821 678.401 196.632C678.401 197.442 678.617 198.08 679.048 198.546C679.488 199.003 680.07 199.232 680.794 199.232C681.26 199.232 681.674 199.124 682.036 198.908C682.407 198.693 682.696 198.391 682.903 198.003C683.11 197.606 683.213 197.149 683.213 196.632C683.213 196.114 683.11 195.657 682.903 195.261C682.696 194.864 682.407 194.562 682.036 194.355C681.674 194.14 681.26 194.032 680.794 194.032ZM687.441 190.604V200.176H686.264V190.604H687.441ZM695.645 193.075V200.176H694.468V198.507C694.287 199.085 693.964 199.529 693.498 199.84C693.041 200.141 692.507 200.292 691.894 200.292C691.075 200.292 690.411 200.029 689.902 199.503C689.394 198.969 689.139 198.205 689.139 197.214V193.075H690.316V197.097C690.316 197.804 690.497 198.352 690.86 198.74C691.222 199.12 691.713 199.309 692.334 199.309C692.981 199.309 693.498 199.102 693.886 198.688C694.274 198.266 694.468 197.654 694.468 196.852V193.075H695.645ZM704.063 196.231C704.063 196.481 704.046 196.696 704.012 196.877H698.333C698.359 197.688 698.588 198.296 699.019 198.701C699.459 199.107 699.993 199.309 700.623 199.309C701.192 199.309 701.666 199.167 702.046 198.882C702.434 198.589 702.671 198.201 702.757 197.718H704.012C703.925 198.21 703.731 198.65 703.43 199.038C703.136 199.426 702.753 199.727 702.278 199.943C701.804 200.159 701.269 200.266 700.674 200.266C699.993 200.266 699.39 200.12 698.864 199.827C698.338 199.533 697.924 199.115 697.622 198.572C697.329 198.02 697.182 197.373 697.182 196.632C697.182 195.89 697.329 195.243 697.622 194.691C697.924 194.14 698.338 193.717 698.864 193.424C699.39 193.131 699.993 192.984 700.674 192.984C701.364 192.984 701.964 193.131 702.472 193.424C702.99 193.717 703.382 194.109 703.649 194.601C703.925 195.092 704.063 195.636 704.063 196.231ZM702.873 196.308C702.899 195.782 702.813 195.343 702.615 194.989C702.416 194.635 702.145 194.372 701.8 194.2C701.455 194.027 701.08 193.941 700.674 193.941C700.028 193.941 699.484 194.144 699.045 194.549C698.605 194.946 698.368 195.532 698.333 196.308H702.873Z" fill="#292929"/>
<path d="M715.559 184.02H657.317C650.88 184.02 645.661 189.238 645.661 195.675C645.661 202.113 650.88 207.331 657.317 207.331H715.559C721.996 207.331 727.215 202.113 727.215 195.675C727.215 189.238 721.996 184.02 715.559 184.02Z" stroke="#BCBCBC" stroke-width="1.43722"/>
<path d="M825.857 184.02H767.615C761.177 184.02 755.959 189.238 755.959 195.675C755.959 202.113 761.177 207.331 767.615 207.331H825.857C832.294 207.331 837.513 202.113 837.513 195.675C837.513 189.238 832.294 184.02 825.857 184.02Z" fill="#006575"/>
<path d="M779.775 191.057L782.556 198.869L785.376 191.057H786.657L783.307 200.176H781.819L778.482 191.057H779.775ZM790.756 192.984C791.446 192.984 792.028 193.156 792.502 193.501C792.985 193.846 793.322 194.308 793.511 194.885V193.075H794.688V200.176H793.511V198.365C793.322 198.943 792.985 199.404 792.502 199.749C792.028 200.094 791.446 200.266 790.756 200.266C790.127 200.266 789.566 200.12 789.075 199.827C788.583 199.533 788.195 199.115 787.91 198.572C787.634 198.02 787.496 197.373 787.496 196.632C787.496 195.89 787.634 195.243 787.91 194.691C788.195 194.14 788.583 193.717 789.075 193.424C789.566 193.131 790.127 192.984 790.756 192.984ZM791.092 194.032C790.368 194.032 789.786 194.265 789.346 194.73C788.915 195.187 788.699 195.821 788.699 196.632C788.699 197.442 788.915 198.08 789.346 198.546C789.786 199.003 790.368 199.232 791.092 199.232C791.558 199.232 791.972 199.124 792.334 198.908C792.705 198.693 792.994 198.391 793.201 198.003C793.408 197.606 793.511 197.149 793.511 196.632C793.511 196.114 793.408 195.657 793.201 195.261C792.994 194.864 792.705 194.562 792.334 194.355C791.972 194.14 791.558 194.032 791.092 194.032ZM797.739 190.604V200.176H796.562V190.604H797.739ZM805.943 193.075V200.176H804.766V198.507C804.585 199.085 804.262 199.529 803.796 199.84C803.339 200.141 802.805 200.292 802.192 200.292C801.373 200.292 800.709 200.029 800.2 199.503C799.692 198.969 799.437 198.205 799.437 197.214V193.075H800.614V197.097C800.614 197.804 800.795 198.352 801.158 198.74C801.52 199.12 802.011 199.309 802.632 199.309C803.279 199.309 803.796 199.102 804.184 198.688C804.572 198.266 804.766 197.654 804.766 196.852V193.075H805.943ZM814.361 196.231C814.361 196.481 814.344 196.696 814.31 196.877H808.631C808.657 197.688 808.886 198.296 809.317 198.701C809.757 199.107 810.291 199.309 810.921 199.309C811.49 199.309 811.964 199.167 812.344 198.882C812.732 198.589 812.969 198.201 813.055 197.718H814.31C814.223 198.21 814.029 198.65 813.728 199.038C813.434 199.426 813.051 199.727 812.576 199.943C812.102 200.159 811.567 200.266 810.972 200.266C810.291 200.266 809.688 200.12 809.162 199.827C808.636 199.533 808.222 199.115 807.92 198.572C807.627 198.02 807.48 197.373 807.48 196.632C807.48 195.89 807.627 195.243 807.92 194.691C808.222 194.14 808.636 193.717 809.162 193.424C809.688 193.131 810.291 192.984 810.972 192.984C811.662 192.984 812.262 193.131 812.77 193.424C813.288 193.717 813.68 194.109 813.947 194.601C814.223 195.092 814.361 195.636 814.361 196.231ZM813.171 196.308C813.197 195.782 813.111 195.343 812.913 194.989C812.714 194.635 812.443 194.372 812.098 194.2C811.753 194.027 811.378 193.941 810.972 193.941C810.326 193.941 809.782 194.144 809.343 194.549C808.903 194.946 808.666 195.532 808.631 196.308H813.171Z" fill="white"/>
<path d="M825.857 184.02H767.615C761.177 184.02 755.959 189.238 755.959 195.675C755.959 202.113 761.177 207.331 767.615 207.331H825.857C832.294 207.331 837.513 202.113 837.513 195.675C837.513 189.238 832.294 184.02 825.857 184.02Z" stroke="#BCBCBC" stroke-width="1.43722"/>
<path d="M936.155 184.02H877.913C871.475 184.02 866.257 189.238 866.257 195.675C866.257 202.113 871.475 207.331 877.913 207.331H936.155C942.592 207.331 947.811 202.113 947.811 195.675C947.811 189.238 942.592 184.02 936.155 184.02Z" fill="#DDDDDD"/>
<path d="M890.073 191.057L892.854 198.869L895.674 191.057H896.955L893.605 200.176H892.117L888.78 191.057H890.073ZM901.054 192.984C901.744 192.984 902.326 193.156 902.8 193.501C903.283 193.846 903.62 194.308 903.809 194.885V193.075H904.986V200.176H903.809V198.365C903.62 198.943 903.283 199.404 902.8 199.749C902.326 200.094 901.744 200.266 901.054 200.266C900.425 200.266 899.864 200.12 899.373 199.827C898.881 199.533 898.493 199.115 898.208 198.572C897.932 198.02 897.794 197.373 897.794 196.632C897.794 195.89 897.932 195.243 898.208 194.691C898.493 194.14 898.881 193.717 899.373 193.424C899.864 193.131 900.425 192.984 901.054 192.984ZM901.39 194.032C900.666 194.032 900.084 194.265 899.644 194.73C899.213 195.187 898.997 195.821 898.997 196.632C898.997 197.442 899.213 198.08 899.644 198.546C900.084 199.003 900.666 199.232 901.39 199.232C901.856 199.232 902.27 199.124 902.632 198.908C903.003 198.693 903.292 198.391 903.499 198.003C903.706 197.606 903.809 197.149 903.809 196.632C903.809 196.114 903.706 195.657 903.499 195.261C903.292 194.864 903.003 194.562 902.632 194.355C902.27 194.14 901.856 194.032 901.39 194.032ZM908.037 190.604V200.176H906.86V190.604H908.037ZM916.241 193.075V200.176H915.064V198.507C914.883 199.085 914.56 199.529 914.094 199.84C913.637 200.141 913.103 200.292 912.49 200.292C911.671 200.292 911.007 200.029 910.498 199.503C909.99 198.969 909.735 198.205 909.735 197.214V193.075H910.912V197.097C910.912 197.804 911.093 198.352 911.455 198.74C911.818 199.12 912.309 199.309 912.93 199.309C913.577 199.309 914.094 199.102 914.482 198.688C914.87 198.266 915.064 197.654 915.064 196.852V193.075H916.241ZM924.659 196.231C924.659 196.481 924.642 196.696 924.608 196.877H918.929C918.955 197.688 919.184 198.296 919.615 198.701C920.055 199.107 920.589 199.309 921.219 199.309C921.788 199.309 922.262 199.167 922.641 198.882C923.03 198.589 923.267 198.201 923.353 197.718H924.608C924.521 198.21 924.327 198.65 924.026 199.038C923.732 199.426 923.349 199.727 922.874 199.943C922.4 200.159 921.865 200.266 921.27 200.266C920.589 200.266 919.986 200.12 919.459 199.827C918.933 199.533 918.52 199.115 918.218 198.572C917.925 198.02 917.778 197.373 917.778 196.632C917.778 195.89 917.925 195.243 918.218 194.691C918.52 194.14 918.933 193.717 919.459 193.424C919.986 193.131 920.589 192.984 921.27 192.984C921.96 192.984 922.56 193.131 923.068 193.424C923.586 193.717 923.978 194.109 924.245 194.601C924.521 195.092 924.659 195.636 924.659 196.231ZM923.469 196.308C923.495 195.782 923.409 195.343 923.211 194.989C923.012 194.635 922.741 194.372 922.396 194.2C922.051 194.027 921.676 193.941 921.27 193.941C920.624 193.941 920.08 194.144 919.641 194.549C919.201 194.946 918.964 195.532 918.929 196.308H923.469Z" fill="#BCBCBC"/>
<path d="M936.155 184.02H877.913C871.475 184.02 866.257 189.238 866.257 195.675C866.257 202.113 871.475 207.331 877.913 207.331H936.155C942.592 207.331 947.811 202.113 947.811 195.675C947.811 189.238 942.592 184.02 936.155 184.02Z" stroke="#BCBCBC" stroke-width="1.43722"/>
</g>
</g>
<defs>
<clipPath id="clip0_4782_5932">
<rect width="950" height="208" fill="white" transform="translate(0 0.794922)"/>
</clipPath>
<clipPath id="clip1_4782_5932">
<rect width="950" height="208" fill="white" transform="translate(0 0.794922)"/>
</clipPath>
</defs>
</svg>
