<svg width="432" height="97" viewBox="0 0 432 97" fill="none" xmlns="http://www.w3.org/2000/svg">
<g clip-path="url(#clip0_4775_5052)">
<g clip-path="url(#clip1_4775_5052)">
<path d="M188.797 96.4511C186.259 96.4511 179.832 96.4511 176.619 92.16C176.338 92.5548 176.025 92.9255 175.682 93.268C173.668 95.2826 170.847 96.2899 167.039 96.2899H156.281C154.604 96.3705 152.933 96.0247 151.425 95.2849C149.917 94.5451 148.622 93.4353 147.659 92.0592C147.333 92.5344 146.966 92.9795 146.561 93.3889C145.485 94.3955 144.216 95.1741 142.831 95.6778C141.446 96.1816 139.974 96.4001 138.502 96.3202H138.281C134.533 96.2799 130.786 96.2597 127.039 96.2597C125.516 96.2661 124.009 95.9503 122.617 95.333C121.517 95.8307 120.336 96.1243 119.132 96.1993C118.487 96.1993 117.731 96.2597 116.754 96.2597H114.246C113.239 96.2597 112.121 96.2597 110.982 96.2597C109.552 96.2597 108.283 96.2597 107.084 96.3302H106.601C105.055 96.3308 103.525 96.0261 102.098 95.4337C100.867 95.979 99.536 96.2637 98.1895 96.2698H88.489C84.9433 96.2698 81.4378 96.2698 77.8619 96.2698C76.1733 96.2683 74.4881 96.12 72.8253 95.8266C69.8613 95.3411 67.08 94.0756 64.7668 92.16C63.2235 93.4784 61.4516 94.5027 59.5388 95.1819C56.7472 96.035 53.8335 96.4196 50.9162 96.3202H37.3376C33.1539 96.3202 28.9735 96.3202 24.7965 96.3202H24.2626C15.6904 96.3202 5.01284 96.3202 1.37644 83.6481C0.702994 80.9147 0.414801 78.1006 0.520218 75.2874V57.9515C0.520218 50.7593 0.520218 43.5637 0.520218 36.3648V23.1589C0.520218 16.289 1.06417 13.6498 1.52753 12.2698C5.15387 0.0712348 16.7078 0.0510888 23.5474 0.0410156H46.0811H58.5718C68.786 0.0410156 70.9315 6.15541 70.9315 11.2826V17.5179C72.7689 17.009 74.666 16.7481 76.5725 16.7423C87.0587 16.6516 97.6657 16.6013 108.112 16.6013H109.653C112.362 16.6089 115.051 17.065 117.611 17.9511C119.495 18.5891 121.244 19.573 122.768 20.8521C126.078 18.1107 130.267 16.655 134.564 16.7524C150.6 16.6516 166.909 16.5912 183.036 16.5912H188.828C192.873 16.4794 196.858 17.5924 200.261 19.7844C200.712 20.0959 201.146 20.4322 201.56 20.7917C204.86 18.1162 208.997 16.6895 213.245 16.7624C218.282 16.702 226.129 16.6718 236.574 16.6718H246.779C249.023 16.6472 251.26 16.9319 253.427 17.5179C253.991 9.17736 258.201 3.34501 265.353 1.04833C266.794 0.574892 269.383 0.0410156 276.373 0.0410156C282.377 0.0410156 287.645 0.0410156 292.178 0.0410156C297.819 0.0410156 302.191 0.0410153 305.525 0.111527C315.598 0.252551 322.891 6.87061 323.657 16.5912C323.657 16.9135 323.707 17.2359 323.727 17.5985C325.588 17.0282 327.523 16.7363 329.469 16.7322C334.667 16.7322 340.549 16.6718 347.117 16.6718H362.227C364.852 16.6554 367.464 17.0392 369.973 17.81C372.019 18.4507 373.923 19.4764 375.584 20.832C376.802 19.8023 378.158 18.9479 379.613 18.2936C382.729 17.0631 386.067 16.4937 389.414 16.6214H419.029C421.387 16.4952 423.741 16.9158 425.909 17.8503C428.156 18.9584 432.9 22.343 430.946 30.331C431.533 32.491 431.533 34.7688 430.946 36.9289C431.634 39.6798 431.451 42.5766 430.422 45.2191C429.616 47.6165 428.82 50.024 428.025 52.4214C430.039 54.1237 431.46 56.9039 431.46 61.3764V67.793C431.465 67.8903 431.465 67.9878 431.46 68.0851V74.3103C431.465 74.4009 431.465 74.4917 431.46 74.5823V84.6555C431.46 91.7067 427.35 96.2799 421.024 96.2899H409.792C402.614 96.2899 395.428 96.2899 388.236 96.2899C379.17 96.2899 372.884 91.9383 370.487 84.4036C369.882 86.2034 369.292 87.9091 368.714 89.5208C366.266 96.2899 360.212 96.3 357.301 96.3H339.169H330.658C329.044 96.2805 327.435 96.139 325.843 95.8769C323.828 95.5851 321.882 94.9298 320.101 93.9429C319.315 94.5783 318.439 95.0943 317.502 95.474C315.462 96.1504 313.312 96.4341 311.166 96.3101H310.844H301.083C299.004 96.3587 296.961 95.7661 295.23 94.6126C293.5 93.4592 292.167 91.8009 291.413 89.8633L286.547 78.1684C286.547 80.465 286.547 82.7718 286.547 85.0685C286.547 91.8678 282.518 94.4969 280.161 95.464C277.781 96.2735 275.267 96.6156 272.757 96.4713C271.538 96.4713 270.289 96.4713 269.101 96.3907C268.154 96.3907 267.257 96.3907 266.482 96.3907H266.149C262.785 96.3907 258.987 96.018 256.277 93.2982C254.72 91.6909 253.741 89.6104 253.497 87.3853C253.205 88.2314 252.943 88.9668 252.722 89.5712C250.244 96.3504 244.139 96.3705 241.208 96.3806H223.338H214.565C212.94 96.3615 211.32 96.2133 209.719 95.9374C207.714 95.6325 205.78 94.9706 204.008 93.9832C203.307 94.5589 202.531 95.0368 201.701 95.4035C199.562 96.1998 197.281 96.5428 195.003 96.4108H194.821C194.207 96.4108 193.492 96.4108 192.706 96.4813C191.497 96.3907 190.177 96.4511 188.797 96.4511Z" fill="#04001B"/>
<path d="M426.463 73.1016V68.0651C426.463 67.9945 426.463 67.9341 426.463 67.8636C426.463 67.37 426.463 66.8563 426.463 66.3728V61.3362C426.463 57.0853 424.902 55.4736 421.749 54.98C422.06 54.3447 422.326 53.6884 422.545 53.0158L425.678 43.6075C426.453 41.2906 426.755 38.9738 425.678 37.2513V37.1203C426.463 34.7632 426.765 32.4162 425.587 30.6836L425.678 30.4016C426.755 27.1882 426.927 23.9749 423.663 22.343C422.188 21.7881 420.612 21.5512 419.039 21.648H389.414C386.778 21.5199 384.145 21.9383 381.678 22.8769C379.135 23.9518 377.089 25.9439 375.946 28.4574C375.725 28.941 375.493 28.941 375.261 28.4574C374.596 27.0441 373.638 25.7875 372.453 24.7702C371.267 23.7529 369.88 22.9979 368.382 22.5546C366.365 21.9345 364.266 21.6287 362.156 21.648C349.209 21.5943 338.303 21.5943 329.439 21.648C327.576 21.6164 325.728 21.9747 324.012 22.6998C322.297 23.425 320.752 24.5009 319.476 25.8586C319.033 26.332 318.812 26.2413 318.822 25.5866C318.862 22.6855 318.775 19.7811 318.56 16.8733C318.016 9.62065 312.727 5.15824 305.414 5.05751C299.37 4.97692 289.687 4.97692 276.363 5.05751C271.609 5.05751 268.436 5.34963 266.854 5.86336C261.012 7.73697 258.604 12.6426 258.373 18.5555C258.282 20.9328 258.272 23.3403 258.322 25.7679C258.322 26.5133 258.121 26.604 257.647 26.0298C257.243 25.5468 256.805 25.0925 256.338 24.6699C253.941 22.4841 249.992 21.648 246.768 21.648C230.913 21.648 219.766 21.6749 213.326 21.7286C208.168 21.789 204.367 23.9312 201.923 28.1552C201.641 28.6388 201.359 28.6388 201.087 28.1552C200.226 26.4888 198.988 25.0468 197.47 23.9447C194.895 22.3124 191.885 21.4977 188.838 21.6077C170.76 21.6077 152.685 21.6581 134.614 21.7588C129.295 21.7991 125.444 24.0118 123.06 28.397C122.828 28.8301 122.597 28.8301 122.385 28.397C121.757 27.0576 120.862 25.8604 119.755 24.8784C118.648 23.8965 117.353 23.1503 115.948 22.6855C113.917 21.9827 111.782 21.6218 109.633 21.6178C98.6327 21.6178 87.6261 21.6648 76.6128 21.7588C72.4626 21.7588 68.5542 23.169 66.1468 26.6946L65.8849 27.0976C65.8849 26.2111 65.8849 25.3348 65.8849 24.4584C65.8849 24.3677 65.8849 24.2972 65.8849 24.2066C65.8849 22.1315 65.8849 20.0464 65.8849 17.9612C65.8849 17.8706 65.8849 17.8001 65.8849 17.7094C65.8849 15.5537 65.8849 13.3981 65.8849 11.2525C65.8849 6.27636 63.2658 5.04744 58.5617 5.04744C46.8835 5.04744 35.2121 5.04744 23.5474 5.04744C15.5896 5.04744 8.72981 5.58131 6.27196 13.6902C5.76831 15.3623 5.51984 18.5052 5.52655 23.1187V36.3346C5.52655 44.8767 5.52655 53.4288 5.52655 61.991V75.1969C5.4389 77.5324 5.65904 79.8693 6.18131 82.1473C8.7701 91.1427 15.7508 91.1628 24.2525 91.2132H24.7663C33.4963 91.2132 42.1962 91.2132 50.8658 91.2132C53.2096 91.3045 55.5529 91.0188 57.8062 90.367C59.2379 89.8869 60.5563 89.1191 61.6805 88.111C62.8047 87.1028 63.711 85.8755 64.3437 84.5044C64.5653 84.031 64.797 84.031 65.0286 84.5044C65.8393 86.1902 67.0529 87.6503 68.5621 88.7554C70.0713 89.8605 71.8296 90.5766 73.6815 90.8405C75.0677 91.0903 76.4735 91.215 77.882 91.2132C84.6377 91.2132 91.4002 91.2132 98.1693 91.2132C98.8179 91.2071 99.4586 91.0712 100.054 90.8134C100.649 90.5556 101.186 90.1812 101.634 89.7123C101.724 89.635 101.838 89.5925 101.957 89.5925C102.075 89.5925 102.19 89.635 102.279 89.7123C103.557 90.8191 105.215 91.3862 106.903 91.2938C109.643 91.193 112.171 91.2232 114.317 91.2938C116.14 91.2938 117.681 91.2938 118.839 91.2938C120.183 91.1243 121.453 90.5836 122.506 89.7324C122.593 89.663 122.702 89.6251 122.813 89.6251C122.925 89.6251 123.033 89.663 123.12 89.7324C123.634 90.2447 124.246 90.6472 124.919 90.9156C125.593 91.184 126.314 91.3127 127.039 91.2938C130.806 91.2938 134.574 91.3139 138.341 91.3542C143.992 91.4247 144.717 87.8286 144.707 82.923C144.707 74.804 144.707 66.6918 144.707 58.5862C144.71 58.4588 144.762 58.3373 144.852 58.2472C144.942 58.1571 145.063 58.1053 145.191 58.1027H150.096C150.225 58.1027 150.348 58.1537 150.438 58.2443C150.529 58.335 150.58 58.458 150.58 58.5862C150.58 67.0678 150.58 75.5461 150.58 84.0209C150.58 88.0502 151.678 91.2938 156.231 91.2938H166.999C172.247 91.2938 173.678 89.0575 173.657 83.89C173.657 75.4554 173.657 67.0275 173.657 58.6064C173.657 58.4781 173.708 58.3552 173.799 58.2645C173.89 58.1738 174.013 58.1229 174.141 58.1229H179.006C179.113 58.125 179.215 58.1629 179.298 58.2305C179.38 58.2981 179.437 58.3915 179.46 58.4956C179.46 58.9287 179.46 59.3619 179.46 59.795V66.4534C179.46 72.3059 179.46 78.1584 179.53 84.0209C179.437 85.6435 179.702 87.2667 180.306 88.7755C181.958 91.8579 188.153 91.5657 192.394 91.3743C193.31 91.3743 194.126 91.2938 194.781 91.3038C196.403 91.4117 198.031 91.224 199.586 90.7498C200.347 90.403 201.012 89.8775 201.526 89.2181C202.04 88.5586 202.387 87.7847 202.537 86.9623C202.648 86.4586 202.88 86.4083 203.202 86.8011C205.014 89.0381 207.605 90.5065 210.455 90.911C211.786 91.1423 213.133 91.2703 214.484 91.2938C219.057 91.2938 227.922 91.2938 241.077 91.2938C244.371 91.2938 246.718 90.9613 247.887 87.7883C248.786 85.3372 250.287 80.7606 252.389 74.0586C252.409 73.9864 252.447 73.9206 252.5 73.8676C252.553 73.8147 252.619 73.7763 252.691 73.7564C254.577 73.1128 256.248 71.9586 257.516 70.4222C257.97 69.8883 258.201 69.9689 258.201 70.674C258.201 75.3412 258.201 80.0085 258.201 84.6757C258.201 90.3267 260.861 91.324 266.179 91.3038C267.036 91.3038 268.043 91.3038 269.101 91.3643C272.354 91.4549 276.152 91.5758 278.116 90.7901C280.262 89.9137 281.35 87.9998 281.36 85.0383C281.36 78.9944 281.36 72.9505 281.36 66.9067C281.36 66.7811 281.409 66.6607 281.498 66.5719C281.587 66.4831 281.707 66.4332 281.833 66.4332H286.618C286.713 66.4306 286.806 66.4573 286.885 66.5095C286.965 66.5618 287.026 66.6371 287.061 66.7253C290.016 73.7833 292.96 80.8345 295.895 87.879C296.26 88.9064 296.948 89.7878 297.856 90.3909C298.764 90.9939 299.843 91.286 300.932 91.2232H310.834C312.37 91.3134 313.911 91.1535 315.397 90.7498C316.16 90.4437 316.836 89.9532 317.363 89.3221C317.89 88.691 318.253 87.9391 318.419 87.1335C318.57 86.5493 318.842 86.4889 319.245 86.9421C321.066 89.0713 323.602 90.4613 326.377 90.8505C327.729 91.0695 329.096 91.1907 330.466 91.2132C335.308 91.2132 344.182 91.2132 357.09 91.2132C360.363 91.2132 362.63 90.911 363.768 87.7581C365.239 83.7288 366.73 79.1355 368.281 74.0183C368.3 73.9437 368.338 73.8751 368.391 73.8188C368.444 73.7625 368.51 73.7203 368.583 73.696C370.449 73.0699 372.107 71.9446 373.378 70.4423C373.942 69.7573 374.234 69.8682 374.224 70.7546C374.224 72.9505 374.224 75.1163 374.224 77.2417C374.365 85.8643 378.797 91.1729 388.034 91.2031C398.974 91.2031 409.91 91.2031 420.842 91.2031C424.821 91.2031 426.242 88.1811 426.242 84.5951C426.242 82.923 426.242 81.2407 426.242 79.5585V74.522C426.247 74.4549 426.247 74.3876 426.242 74.3205C426.453 73.9276 426.463 73.5247 426.463 73.1016ZM315.659 62.0212C316.112 61.4571 316.344 61.5377 316.344 62.2629V63.653C316.344 64.8014 316.072 64.7913 315.608 63.653L315.175 62.5752C315.356 62.3435 315.528 62.1723 315.679 61.991L315.659 62.0212Z" fill="#04001B"/>
<path fill-rule="evenodd" clip-rule="evenodd" d="M318.822 38.5898C318.862 35.6888 318.775 32.7843 318.56 29.8766C318.016 22.6138 312.728 18.1514 305.415 18.0507C299.371 17.9701 289.687 17.9701 276.364 18.0507C271.609 18.0507 268.436 18.3428 266.855 18.8465C261.012 20.7301 258.605 25.6358 258.373 31.5386C258.282 33.926 258.272 36.3334 258.323 38.7611C258.323 39.5065 258.121 39.5871 257.648 39.0129C257.24 38.5356 256.803 38.0848 256.338 37.6631C253.941 35.4772 249.992 34.6412 246.769 34.6412C230.914 34.6412 219.766 34.668 213.326 34.7217C208.168 34.7822 204.367 36.9244 201.923 41.1484C201.641 41.6319 201.359 41.6218 201.087 41.1484C200.224 39.4834 198.986 38.0419 197.471 36.9378C194.892 35.3119 191.885 34.4978 188.838 34.6009C170.76 34.6009 152.685 34.6546 134.614 34.762C129.296 34.762 125.444 36.9748 123.06 41.4002C122.829 41.8334 122.597 41.8334 122.385 41.4002C121.758 40.0614 120.863 38.865 119.756 37.8846C118.649 36.9042 117.354 36.1603 115.949 35.6988C113.918 34.9906 111.783 34.6297 109.633 34.6311C98.633 34.6311 87.6264 34.6781 76.6131 34.7721C72.4629 34.7721 68.5546 36.1723 66.1471 39.7079C64.6574 41.828 63.7761 44.3152 63.5986 46.9002C63.5448 47.6187 63.2729 47.7195 62.7826 47.2024C61.4335 45.8306 59.818 44.7493 58.0354 44.0252C56.2528 43.3011 54.3409 42.9494 52.4174 42.9918C46.8973 42.9112 41.3705 42.9112 35.837 42.9918C33.0266 42.9918 31.6365 44.3517 30.6493 47.0211C30.2262 48.1895 29.7931 49.358 29.37 50.5366C28.8764 51.9267 28.6246 51.8864 28.6246 50.4056V41.6924C28.6246 41.5641 28.6755 41.4411 28.7662 41.3505C28.8569 41.2598 28.9799 41.2088 29.1081 41.2088H60.4457C64.2936 41.2088 65.865 38.3984 65.8751 34.8628C65.8852 31.3271 65.8751 27.8116 65.8751 24.2255C65.8751 19.2595 63.2561 18.0305 58.5519 18.0305C46.8738 18.0305 35.2024 18.0305 23.5376 18.0305C15.5799 18.0305 8.72005 18.5543 6.2622 26.6733C5.75854 28.3454 5.51007 31.4883 5.51679 36.1018C5.51679 49.0558 5.51679 62.0133 5.51679 74.974C5.42913 77.3096 5.64927 79.6465 6.17154 81.9245C8.77041 90.9098 15.741 90.9299 24.2428 90.9904H24.7666C33.4966 90.9904 42.1965 90.9904 50.8661 90.9904C53.2094 91.0847 55.5527 90.8025 57.8065 90.1543C59.2391 89.673 60.5581 88.9037 61.6823 87.8938C62.8066 86.8838 63.7124 85.6546 64.344 84.2816C64.5656 83.8183 64.7973 83.8082 65.029 84.2816C65.8425 85.9653 67.0569 87.4235 68.5656 88.5282C70.0743 89.633 71.8311 90.3504 73.6818 90.6177C75.0693 90.8575 76.4742 90.9821 77.8823 90.9904C84.638 90.9904 91.4005 90.9904 98.1696 90.9904C98.8185 90.9866 99.46 90.8517 100.055 90.5938C100.651 90.3359 101.188 89.9602 101.635 89.4895C101.723 89.4102 101.838 89.3663 101.957 89.3663C102.076 89.3663 102.191 89.4102 102.279 89.4895C103.562 90.588 105.216 91.1539 106.903 91.0709C109.643 90.9601 112.171 91.0004 114.317 91.0206C116.14 91.0206 117.681 91.0709 118.84 91.0206C120.182 90.8465 121.451 90.3064 122.506 89.4592C122.592 89.3862 122.701 89.346 122.814 89.346C122.926 89.346 123.035 89.3862 123.121 89.4592C123.633 89.9734 124.244 90.3773 124.918 90.6458C125.592 90.9143 126.314 91.0419 127.039 91.0206C130.807 91.0206 134.574 91.0206 138.341 91.0911C143.992 91.1616 144.718 87.5655 144.708 82.6498C144.708 74.5375 144.708 66.4287 144.708 58.3231C144.708 58.1949 144.758 58.0719 144.849 57.9812C144.94 57.8906 145.063 57.8396 145.191 57.8396H150.097C150.161 57.8382 150.224 57.8498 150.283 57.8736C150.343 57.8974 150.396 57.933 150.442 57.9782C150.487 58.0234 150.522 58.0772 150.546 58.1365C150.57 58.1958 150.582 58.2593 150.58 58.3231C150.58 66.8047 150.58 75.2796 150.58 83.7478C150.58 87.777 151.678 91.0306 156.231 91.0206H166.999C172.248 91.0206 173.678 88.7843 173.658 83.6067C173.658 75.1856 173.658 66.7611 173.658 58.3332C173.656 58.2693 173.668 58.2058 173.692 58.1466C173.716 58.0873 173.751 58.0334 173.796 57.9883C173.842 57.9431 173.895 57.9075 173.955 57.8837C174.014 57.8599 174.077 57.8483 174.141 57.8497H179.007C179.135 57.8497 179.258 57.9006 179.349 57.9913C179.439 58.082 179.49 58.205 179.49 58.3332C179.443 66.8014 179.46 75.2695 179.541 83.7377C179.447 85.3602 179.712 86.9834 180.316 88.4922C181.968 91.5746 188.163 91.2926 192.404 91.1012C193.321 91.1012 194.136 91.0206 194.791 91.0206C196.413 91.1304 198.04 90.9461 199.596 90.4766C200.357 90.1275 201.023 89.6 201.537 88.939C202.05 88.2779 202.397 87.5027 202.548 86.679C202.658 86.1855 202.89 86.125 203.212 86.5279C205.024 88.7649 207.615 90.2333 210.465 90.6378C211.797 90.8644 213.144 90.9923 214.494 91.0206C219.068 91.0206 227.932 91.0206 241.087 91.0206C244.381 91.0206 246.728 90.6982 247.897 87.5252C248.797 85.0673 250.298 80.4908 252.4 73.7955C252.42 73.7223 252.458 73.6553 252.511 73.6008C252.564 73.5462 252.629 73.5058 252.702 73.4832C254.587 72.8434 256.257 71.6926 257.527 70.1591C257.98 69.6252 258.212 69.7058 258.212 70.4008C258.212 75.1016 258.212 79.7689 258.212 84.4025C258.212 90.0636 260.871 91.0609 266.19 91.0306C267.046 91.0306 268.053 91.0306 269.111 91.0911C272.365 91.1918 276.162 91.3127 278.126 90.527C280.272 89.6506 281.36 87.7267 281.37 84.7752C281.37 78.7313 281.37 72.6874 281.37 66.6436C281.37 66.517 281.42 66.3956 281.508 66.3052C281.597 66.2148 281.717 66.1627 281.843 66.16H286.628C286.723 66.1589 286.816 66.1861 286.895 66.2381C286.974 66.2902 287.035 66.3648 287.071 66.4522C290.026 73.5235 292.971 80.5915 295.906 87.6561C296.268 88.6855 296.956 89.5691 297.864 90.174C298.772 90.779 299.853 91.0726 300.942 91.0105H310.844C312.381 91.1059 313.923 90.946 315.407 90.5371C316.171 90.2342 316.847 89.7459 317.374 89.1163C317.902 88.4867 318.264 87.7356 318.429 86.9309C318.58 86.3366 318.852 86.2761 319.255 86.7294C321.07 88.866 323.609 90.2577 326.387 90.6378C327.739 90.8596 329.106 90.9841 330.477 91.0105C335.318 91.0105 344.193 91.0105 357.1 91.0105C360.374 91.0105 362.64 90.7083 363.778 87.5453C365.249 83.5161 366.74 78.9227 368.291 73.8056C368.311 73.7324 368.35 73.6654 368.402 73.6109C368.455 73.5563 368.521 73.5159 368.593 73.4933C370.461 72.8672 372.121 71.7379 373.388 70.2296C373.952 69.5547 374.244 69.6554 374.234 70.5419C374.234 72.7479 374.234 74.9035 374.234 77.039C374.375 85.6516 378.808 90.9601 388.045 90.9904C398.984 91.0306 409.92 91.0306 420.853 90.9904C424.832 90.9904 426.252 87.9684 426.252 84.3723C426.252 82.7001 426.252 81.028 426.252 79.3357V74.2991C426.252 68.8798 423.714 67.7415 418.556 67.7617C411.633 67.7617 404.699 67.7617 397.755 67.7617C397.63 67.7617 397.509 67.7118 397.42 67.623C397.332 67.5342 397.282 67.4138 397.282 67.2882V58.2929C397.282 58.2299 397.294 58.1675 397.319 58.1094C397.343 58.0513 397.379 57.9986 397.424 57.9545C397.469 57.9104 397.522 57.8758 397.581 57.8526C397.64 57.8294 397.702 57.8181 397.765 57.8195C404.199 57.8195 410.635 57.7792 417.075 57.6986C420.279 57.6382 421.457 55.4523 422.334 52.8131L425.476 43.3746C426.554 40.1612 426.726 36.9378 423.462 35.3161C421.988 34.756 420.411 34.519 418.838 34.621H389.415C386.779 34.4929 384.145 34.9113 381.678 35.8499C379.138 36.9241 377.093 38.9117 375.947 41.4204C375.725 41.914 375.493 41.914 375.262 41.4204C374.596 40.0109 373.641 38.7572 372.459 37.7403C371.277 36.7235 369.895 35.9662 368.402 35.5175C366.384 34.9058 364.285 34.6035 362.177 34.621C349.229 34.5673 338.324 34.5673 329.459 34.621C327.596 34.5932 325.748 34.9542 324.033 35.6809C322.318 36.4077 320.773 37.4841 319.497 38.8417C319.033 39.3352 318.812 39.2446 318.822 38.5898ZM100.748 57.9303C100.748 57.8955 100.735 57.8622 100.71 57.8377C100.685 57.8131 100.652 57.7993 100.617 57.7993H86.8071C86.7724 57.7993 86.7391 57.8131 86.7145 57.8377C86.6899 57.8622 86.6761 57.8955 86.6761 57.9303V67.6509C86.6761 67.6856 86.6899 67.7189 86.7145 67.7435C86.7391 67.768 86.7724 67.7818 86.8071 67.7818H100.617C100.652 67.7818 100.685 67.768 100.71 67.7435C100.735 67.7189 100.748 67.6856 100.748 67.6509V57.9303ZM315.679 61.7279C314.565 63.1182 313.116 64.2031 311.469 64.8808C311.351 64.9319 311.258 65.0266 311.209 65.1451C311.16 65.2635 311.159 65.3963 311.207 65.5154L313.413 71.0254L315.629 76.5354C316.122 77.7744 316.374 77.7341 316.374 76.4044V61.9696C316.364 61.2443 316.132 61.1738 315.679 61.7279Z" fill="#3085DB"/>
<path fill-rule="evenodd" clip-rule="evenodd" d="M318.822 32.0934C318.822 29.2024 318.772 26.2913 318.56 23.3902C318.016 16.1275 312.728 11.6651 305.415 11.5643C299.371 11.4838 289.687 11.4838 276.364 11.5643C271.609 11.5643 268.439 11.8296 266.855 12.3601C261.012 14.2337 258.605 19.1494 258.373 25.0523C258.282 27.4296 258.272 29.8471 258.323 32.2747C258.323 33.0101 258.121 33.1007 257.648 32.5266C257.243 32.0436 256.806 31.5892 256.338 31.1667C253.941 28.9808 249.992 28.1448 246.769 28.1448C230.914 28.1448 219.766 28.1716 213.326 28.2253C208.168 28.2858 204.367 30.428 201.923 34.652C201.641 35.1456 201.359 35.1355 201.087 34.652C200.224 32.987 198.986 31.5455 197.471 30.4414C194.895 28.8092 191.885 27.9945 188.838 28.1045C170.76 28.1045 152.685 28.1582 134.614 28.2656C129.296 28.2656 125.444 30.475 123.06 34.8938C122.829 35.337 122.597 35.3269 122.385 34.8938C121.757 33.5544 120.862 32.3572 119.755 31.3752C118.649 30.3932 117.353 29.6471 115.949 29.1823C113.917 28.4794 111.783 28.1186 109.633 28.1145C98.633 28.1145 87.6264 28.1649 76.6131 28.2656C72.4629 28.2656 68.5546 29.6658 66.1471 33.1914C64.6588 35.3122 63.7776 37.799 63.5986 40.3836C63.5448 41.0955 63.2729 41.1962 62.7826 40.6858C61.4327 39.3158 59.8167 38.2365 58.0342 37.5141C56.2517 36.7918 54.3402 36.4416 52.4174 36.4853C46.8973 36.4047 41.3705 36.4047 35.837 36.4853C33.0266 36.4853 31.6365 37.8452 30.6493 40.5146L29.37 44.02C28.8764 45.4101 28.6246 45.3698 28.6246 43.8992V35.2866C28.6272 35.1592 28.6789 35.0377 28.7691 34.9476C28.8592 34.8575 28.9807 34.8057 29.1081 34.8031H60.4457C64.2936 34.8031 65.865 31.9826 65.8751 28.457C65.8852 24.9314 65.8751 21.4058 65.8751 17.8198C65.8751 12.8436 63.2561 11.6248 58.5519 11.6147C46.8738 11.6147 35.2024 11.6147 23.5376 11.6147C15.5799 11.6147 8.72005 12.1486 6.2622 20.2575C5.75854 21.9296 5.51007 25.0758 5.51679 29.696C5.51679 42.6367 5.51679 55.5907 5.51679 68.5582C5.42913 70.8938 5.64927 73.2307 6.17154 75.5087C8.77041 84.504 15.741 84.5242 24.2428 84.5745H24.7666C33.4966 84.5745 42.1965 84.5745 50.8661 84.5745C53.21 84.6658 55.5533 84.3801 57.8065 83.7284C59.2382 83.2482 60.5566 82.4805 61.6808 81.4724C62.805 80.4642 63.7113 79.2369 64.344 77.8658C64.5656 77.3924 64.7973 77.3924 65.029 77.8658C65.8405 79.5519 67.0541 81.0126 68.563 82.1192C70.0719 83.2259 71.8298 83.9445 73.6818 84.2119C75.0689 84.4534 76.4743 84.5748 77.8823 84.5745C84.638 84.5745 91.4005 84.5745 98.1696 84.5745C98.8182 84.5685 99.4589 84.4326 100.054 84.1748C100.649 83.917 101.187 83.5426 101.635 83.0736C101.723 82.9944 101.838 82.9505 101.957 82.9505C102.076 82.9505 102.191 82.9944 102.279 83.0736C103.561 84.1732 105.217 84.736 106.903 84.6451C109.643 84.5443 112.171 84.5745 114.317 84.6451C116.14 84.6451 117.681 84.6451 118.84 84.6451C120.183 84.4756 121.453 83.9349 122.506 83.0837C122.599 83.0211 122.711 82.992 122.822 83.0012C122.934 83.0103 123.039 83.0572 123.121 83.1341C123.634 83.6463 124.246 84.0489 124.92 84.3173C125.593 84.5857 126.314 84.7144 127.039 84.6954C130.807 84.6954 134.574 84.7156 138.341 84.7559C143.992 84.8364 144.718 81.2403 144.708 76.3246C144.708 68.2124 144.708 60.1001 144.708 51.9879C144.71 51.8614 144.762 51.741 144.853 51.6525C144.943 51.564 145.065 51.5144 145.191 51.5145H150.097C150.16 51.5131 150.222 51.5244 150.281 51.5476C150.34 51.5708 150.393 51.6054 150.438 51.6495C150.483 51.6936 150.519 51.7463 150.543 51.8044C150.568 51.8625 150.58 51.9249 150.58 51.9879C150.58 60.4695 150.58 68.9477 150.58 77.4226C150.58 81.4519 151.678 84.6954 156.231 84.6954H166.999C172.248 84.6954 173.678 82.4592 173.658 77.2916C173.658 68.8705 173.658 60.4426 173.658 52.0081C173.658 51.945 173.67 51.8826 173.695 51.8245C173.719 51.7664 173.755 51.7138 173.8 51.6697C173.845 51.6256 173.898 51.5909 173.957 51.5677C174.016 51.5445 174.078 51.5333 174.141 51.5346H179.007C179.135 51.5346 179.258 51.5856 179.349 51.6762C179.439 51.7669 179.49 51.8899 179.49 52.0181C179.443 60.4796 179.46 68.9477 179.541 77.4226C179.447 79.0452 179.712 80.6684 180.316 82.1771C181.968 85.2595 188.163 84.9775 192.404 84.776C193.321 84.776 194.136 84.7055 194.791 84.7055C196.413 84.8187 198.042 84.6308 199.596 84.1515C200.357 83.8047 201.023 83.2792 201.536 82.6197C202.05 81.9603 202.397 81.1864 202.548 80.364C202.658 79.8603 202.89 79.8099 203.212 80.2028C205.026 82.4389 207.616 83.9099 210.465 84.3227C211.797 84.5465 213.144 84.6711 214.494 84.6954C219.068 84.6954 227.932 84.6954 241.087 84.6954C244.381 84.6954 246.728 84.363 247.897 81.19C248.797 78.7388 250.298 74.1623 252.4 67.4603C252.42 67.3881 252.458 67.3223 252.511 67.2693C252.564 67.2163 252.63 67.178 252.702 67.1581C254.588 66.5145 256.258 65.3603 257.527 63.8239C257.98 63.29 258.212 63.3806 258.212 64.0757C258.212 68.7362 258.212 73.4034 258.212 78.0774C258.212 83.7284 260.871 84.7256 266.19 84.7055C267.046 84.7055 268.053 84.7055 269.111 84.7659C272.365 84.8667 276.162 84.9775 278.126 84.1918C280.272 83.3154 281.36 81.4015 281.37 78.44C281.37 72.3961 281.37 66.3522 281.37 60.3083C281.369 60.2453 281.38 60.1827 281.403 60.1241C281.426 60.0655 281.461 60.0121 281.505 59.967C281.549 59.922 281.602 59.8862 281.66 59.8618C281.718 59.8374 281.78 59.8248 281.843 59.8248H286.628C286.723 59.8222 286.816 59.8489 286.896 59.9011C286.975 59.9534 287.036 60.0287 287.071 60.1169C290.026 67.1883 292.971 74.2563 295.906 81.3209C296.27 82.3483 296.958 83.2298 297.866 83.8328C298.774 84.4359 299.854 84.7279 300.942 84.6652H310.844C312.381 84.7553 313.922 84.5955 315.407 84.1918C316.169 83.8866 316.844 83.3976 317.371 82.7684C317.899 82.1392 318.262 81.3893 318.429 80.5856C318.58 79.9913 318.852 79.9308 319.255 80.3841C321.073 82.5169 323.611 83.9078 326.387 84.2925C327.74 84.5114 329.106 84.6326 330.477 84.6551C335.318 84.6551 344.193 84.6551 357.1 84.6551C360.374 84.6551 362.64 84.3529 363.778 81.2C365.249 77.1708 366.74 72.5774 368.291 67.4603C368.311 67.3856 368.349 67.317 368.401 67.2608C368.454 67.2045 368.52 67.1622 368.593 67.1379C370.459 66.5118 372.117 65.3866 373.388 63.8843C373.952 63.1993 374.244 63.3101 374.234 64.1966C374.234 66.3925 374.234 68.5582 374.234 70.6837C374.375 79.3063 378.808 84.6148 388.045 84.6451C398.984 84.6451 409.92 84.6451 420.853 84.6451C424.832 84.6451 426.252 81.6231 426.252 78.0371C426.252 76.3649 426.252 74.6928 426.252 73.0005V67.9639C426.252 62.5446 423.714 61.4063 418.556 61.4164C411.633 61.4164 404.699 61.4164 397.755 61.4164C397.692 61.4164 397.63 61.4038 397.572 61.3794C397.514 61.355 397.461 61.3192 397.417 61.2742C397.373 61.2291 397.338 61.1757 397.315 61.1171C397.292 61.0585 397.28 60.9959 397.282 60.9329V51.7663C397.28 51.7024 397.292 51.6389 397.316 51.5797C397.34 51.5204 397.375 51.4665 397.42 51.4213C397.465 51.3762 397.519 51.3406 397.579 51.3168C397.638 51.293 397.701 51.2814 397.765 51.2828C404.199 51.2828 410.635 51.2425 417.075 51.1619C420.279 51.1619 421.457 48.9257 422.334 46.2764L425.678 36.858C426.756 33.6548 426.927 30.4314 423.663 28.7995C422.188 28.2446 420.613 28.0077 419.04 28.1045H389.394C386.759 27.9766 384.126 28.3915 381.658 29.3233C379.119 30.4049 377.076 32.3948 375.927 34.9038C375.705 35.3874 375.473 35.3974 375.242 34.9038C374.573 33.497 373.617 32.2458 372.436 31.2308C371.254 30.2159 369.873 29.4597 368.382 29.011C366.366 28.391 364.266 28.0852 362.157 28.1045C349.209 28.0575 338.303 28.0575 329.439 28.1045C327.577 28.0747 325.729 28.4339 324.014 29.1589C322.298 29.8839 320.753 30.9589 319.477 32.315C319.033 32.8388 318.812 32.7482 318.822 32.0934ZM100.748 51.4339C100.748 51.4171 100.745 51.4005 100.738 51.3852C100.732 51.3698 100.722 51.356 100.709 51.3446C100.697 51.3333 100.683 51.3246 100.667 51.3191C100.651 51.3137 100.634 51.3116 100.617 51.313H86.8071C86.7904 51.3116 86.7736 51.3137 86.7577 51.3191C86.7419 51.3246 86.7273 51.3333 86.715 51.3446C86.7027 51.356 86.6929 51.3698 86.6862 51.3852C86.6795 51.4005 86.6761 51.4171 86.6761 51.4339V61.1545C86.6761 61.1892 86.6899 61.2225 86.7145 61.2471C86.7391 61.2716 86.7724 61.2854 86.8071 61.2854H100.617C100.652 61.2854 100.685 61.2716 100.71 61.2471C100.735 61.2225 100.748 61.1892 100.748 61.1545V51.4339ZM315.679 55.2415C314.562 56.629 313.114 57.7133 311.469 58.3944C311.352 58.4435 311.259 58.5364 311.21 58.6532C311.161 58.77 311.16 58.9013 311.207 59.019L313.413 64.539L315.629 70.0491C316.122 71.2881 316.374 71.2377 316.374 69.908V55.4833C316.364 54.7882 316.132 54.6774 315.679 55.2415Z" fill="#FCDE46"/>
<path fill-rule="evenodd" clip-rule="evenodd" d="M318.822 25.3847C318.862 22.4837 318.775 19.5793 318.56 16.6715C318.016 9.40874 312.728 4.94633 305.415 4.8456C299.371 4.76501 289.687 4.76501 276.364 4.8456C271.609 4.8456 268.436 5.13772 266.855 5.64137C261.012 7.52505 258.605 12.4307 258.373 18.3335C258.282 20.7209 258.272 23.1284 258.323 25.556C258.323 26.2913 258.121 26.382 257.648 25.8078C257.243 25.3282 256.805 24.8772 256.338 24.458C253.941 22.2721 249.992 21.4361 246.769 21.4361C230.914 21.4361 219.766 21.4663 213.326 21.5267C208.168 21.5872 204.367 23.7294 201.923 27.9534C201.641 28.4369 201.359 28.4268 201.087 27.9534C200.224 26.2884 198.986 24.8469 197.471 23.7428C194.892 22.1169 191.885 21.3028 188.838 21.4059C170.76 21.4059 152.685 21.4596 134.614 21.567C129.296 21.567 125.444 23.7798 123.06 28.2052C122.829 28.6384 122.597 28.6283 122.385 28.2052C121.758 26.8664 120.863 25.67 119.756 24.6896C118.649 23.7091 117.354 22.9653 115.949 22.5038C113.919 21.7913 111.784 21.4302 109.633 21.4361C98.633 21.4361 87.6264 21.4831 76.6131 21.5771C72.4629 21.5771 68.5546 22.9773 66.1471 26.5129C64.6694 28.6128 63.7887 31.074 63.5986 33.6347C63.5448 34.3532 63.2729 34.4539 62.7826 33.9369C61.4335 32.5651 59.818 31.4838 58.0354 30.7597C56.2528 30.0356 54.3409 29.6839 52.4174 29.7263C46.8973 29.6457 41.3705 29.6457 35.837 29.7263C33.0266 29.7263 31.6365 31.0862 30.6493 33.7555C30.2262 34.924 29.7931 36.0925 29.37 37.2711C28.8764 38.6612 28.6246 38.6209 28.6246 37.1401V28.5276C28.6272 28.4011 28.6793 28.2807 28.7697 28.1922C28.8601 28.1037 28.9816 28.0541 29.1081 28.0541H60.4457C64.2936 28.0541 65.865 25.2437 65.8751 21.7081C65.8852 18.1724 65.8751 14.6568 65.8751 11.0708C65.8751 6.10474 63.2561 4.87582 58.5519 4.86575C46.8738 4.86575 35.2024 4.86575 23.5376 4.86575C15.5799 4.86575 8.72005 5.39962 6.2622 13.5186C5.75854 15.1907 5.51007 18.3335 5.51679 22.947C5.51679 35.9011 5.51679 48.8585 5.51679 61.8193C5.42913 64.1548 5.64927 66.4917 6.17154 68.7698C8.77041 77.7551 15.741 77.7752 24.2428 77.8356H24.7666C33.4966 77.8356 42.1965 77.8356 50.8661 77.8356C53.2094 77.93 55.5527 77.6477 57.8065 76.9996C59.2391 76.5183 60.5581 75.749 61.6823 74.7391C62.8066 73.7291 63.7124 72.4999 64.344 71.1269C64.5656 70.6636 64.7973 70.6535 65.029 71.1269C65.8405 72.813 67.0541 74.2737 68.563 75.3803C70.0719 76.487 71.8298 77.2056 73.6818 77.473C75.0693 77.7128 76.4742 77.8375 77.8823 77.8457C84.638 77.8457 91.4005 77.8457 98.1696 77.8457C98.8185 77.8419 99.46 77.7071 100.055 77.4491C100.651 77.1912 101.188 76.8156 101.635 76.3448C101.723 76.2655 101.838 76.2217 101.957 76.2217C102.076 76.2217 102.191 76.2655 102.279 76.3448C103.561 77.4443 105.217 78.0072 106.903 77.9162C109.643 77.8155 112.171 77.8558 114.317 77.9162C116.14 77.9162 117.681 77.9162 118.84 77.9162C120.182 77.7422 121.451 77.202 122.506 76.3549C122.592 76.2818 122.701 76.2417 122.814 76.2417C122.926 76.2417 123.035 76.2818 123.121 76.3549C123.634 76.8671 124.246 77.2697 124.92 77.5381C125.593 77.8065 126.314 77.9352 127.039 77.9162C130.807 77.9162 134.574 77.9397 138.341 77.9867C143.992 78.0572 144.718 74.4611 144.708 69.5454C144.708 61.4399 144.708 53.331 144.708 45.2188C144.708 45.1553 144.72 45.0924 144.744 45.0338C144.769 44.9751 144.804 44.9218 144.849 44.8769C144.894 44.832 144.947 44.7964 145.006 44.7721C145.065 44.7478 145.128 44.7353 145.191 44.7353H150.097C150.161 44.7339 150.224 44.7455 150.283 44.7693C150.343 44.7931 150.396 44.8287 150.442 44.8738C150.487 44.919 150.522 44.9729 150.546 45.0321C150.57 45.0914 150.582 45.1549 150.58 45.2188C150.58 53.7004 150.58 62.1752 150.58 70.6434C150.58 74.6727 151.678 77.9162 156.231 77.9162H166.999C172.248 77.9162 173.678 75.68 173.658 70.5024C173.658 62.0812 173.658 53.6567 173.658 45.2289C173.656 45.165 173.668 45.1015 173.692 45.0422C173.716 44.9829 173.751 44.9291 173.796 44.8839C173.842 44.8387 173.895 44.8032 173.955 44.7793C174.014 44.7555 174.077 44.744 174.141 44.7453H179.007C179.135 44.7453 179.258 44.7963 179.349 44.887C179.439 44.9776 179.49 45.1006 179.49 45.2289C179.443 53.7037 179.46 62.1719 179.541 70.6333C179.447 72.2559 179.712 73.8791 180.316 75.3879C181.968 78.4702 188.163 78.1882 192.404 77.9968C193.321 77.9968 194.136 77.9162 194.791 77.9162C196.413 78.0261 198.04 77.8418 199.596 77.3723C200.357 77.0231 201.023 76.4957 201.537 75.8346C202.05 75.1735 202.397 74.3983 202.548 73.5747C202.658 73.071 202.89 73.0207 203.212 73.4236C205.024 75.6606 207.615 77.1289 210.465 77.5334C211.797 77.7601 213.144 77.888 214.494 77.9162C219.068 77.9162 227.932 77.9162 241.087 77.9162C244.381 77.9162 246.728 77.5939 247.897 74.4208C248.797 71.963 250.298 67.3864 252.4 60.6911C252.42 60.6179 252.458 60.551 252.511 60.4964C252.564 60.4419 252.629 60.4014 252.702 60.3789C254.587 59.7391 256.257 58.5882 257.527 57.0547C257.98 56.5209 258.212 56.6014 258.212 57.2965C258.212 61.9973 258.212 66.6645 258.212 71.2982C258.212 76.9593 260.871 77.9464 266.19 77.9263C267.046 77.9263 268.053 77.9263 269.111 77.9867C272.365 78.0875 276.162 78.1983 278.126 77.4126C280.272 76.5463 281.36 74.6223 281.37 71.6709C281.37 65.627 281.37 59.5831 281.37 53.5392C281.37 53.4127 281.42 53.2912 281.508 53.2008C281.597 53.1104 281.717 53.0583 281.843 53.0557H286.628C286.723 53.0545 286.816 53.0817 286.895 53.1338C286.974 53.1859 287.035 53.2604 287.071 53.3478C290.026 60.4192 292.971 67.4704 295.906 74.5014C296.268 75.5307 296.956 76.4144 297.864 77.0193C298.772 77.6243 299.853 77.9178 300.942 77.8558H310.844C312.381 77.9512 313.923 77.7912 315.407 77.3823C316.17 77.0787 316.846 76.5902 317.373 75.9607C317.901 75.3312 318.264 74.5806 318.429 73.7762C318.58 73.1818 318.852 73.1214 319.255 73.5747C321.07 75.7112 323.609 77.1029 326.387 77.4831C327.739 77.7048 329.106 77.8294 330.477 77.8558C335.318 77.8558 344.193 77.8558 357.1 77.8558C360.374 77.8558 362.64 77.5536 363.778 74.3906C365.249 70.3614 366.74 65.768 368.291 60.6509C368.312 60.577 368.351 60.5092 368.403 60.4531C368.456 60.3971 368.521 60.3544 368.593 60.3285C370.463 59.71 372.123 58.5834 373.388 57.0749C373.952 56.4 374.244 56.5007 374.234 57.3871C374.234 59.5831 374.234 61.7488 374.234 63.8843C374.375 72.4969 378.808 77.8054 388.045 77.8356C398.984 77.8759 409.92 77.8759 420.853 77.8356C424.832 77.8356 426.252 74.8137 426.252 71.2176C426.252 69.5454 426.252 67.8733 426.252 66.181V61.1444C426.252 55.7251 423.714 54.5868 418.556 54.607C411.633 54.607 404.699 54.607 397.755 54.607C397.63 54.607 397.509 54.5571 397.42 54.4683C397.332 54.3795 397.282 54.2591 397.282 54.1335V45.1382C397.28 45.0743 397.292 45.0108 397.316 44.9516C397.34 44.8923 397.375 44.8384 397.42 44.7932C397.465 44.7481 397.519 44.7125 397.579 44.6887C397.638 44.6649 397.701 44.6533 397.765 44.6547C404.199 44.6547 410.635 44.6144 417.075 44.5338C420.279 44.5338 421.457 42.2976 422.334 39.6584L425.476 30.2199C426.554 27.0065 426.726 23.7831 423.462 22.1613C421.989 21.5964 420.412 21.3592 418.838 21.4663H389.415C386.779 21.3382 384.145 21.7566 381.678 22.6952C379.138 23.7694 377.093 25.757 375.947 28.2657C375.725 28.7593 375.493 28.7593 375.262 28.2657C374.596 26.8562 373.641 25.6025 372.459 24.5856C371.277 23.5687 369.895 22.8115 368.402 22.3628C366.386 21.7427 364.286 21.437 362.177 21.4562C349.229 21.4159 338.324 21.4159 329.459 21.4562C327.597 21.429 325.75 21.7892 324.035 22.5141C322.32 23.239 320.775 24.3126 319.497 25.6668C319.033 26.1302 318.812 26.0395 318.822 25.3847ZM100.748 44.7151C100.748 44.6804 100.735 44.6471 100.71 44.6225C100.685 44.598 100.652 44.5842 100.617 44.5842H86.8071C86.7724 44.5842 86.7391 44.598 86.7145 44.6225C86.6899 44.6471 86.6761 44.6804 86.6761 44.7151V54.4357C86.6761 54.4704 86.6899 54.5038 86.7145 54.5283C86.7391 54.5529 86.7724 54.5667 86.8071 54.5667H100.617C100.652 54.5667 100.685 54.5529 100.71 54.5283C100.735 54.5038 100.748 54.4704 100.748 54.4357V44.7151ZM315.679 48.5127C314.565 49.9031 313.116 50.9879 311.469 51.6656C311.352 51.7147 311.259 51.8076 311.21 51.9244C311.161 52.0411 311.16 52.1725 311.207 52.2901L313.413 57.8102L315.629 63.3202C316.122 64.5592 316.374 64.5189 316.374 63.1792V48.7444C316.364 48.0393 316.132 47.9587 315.679 48.5228V48.5127Z" fill="white"/>
<path d="M23.6078 59.5728V23.1583C23.6078 23.0301 23.6587 22.9071 23.7494 22.8164C23.8401 22.7258 23.9631 22.6748 24.0913 22.6748H60.3546C60.4811 22.6722 60.6015 22.6201 60.69 22.5297C60.7785 22.4393 60.8281 22.3178 60.8281 22.1913V10.7784C60.8281 10.6519 60.7785 10.5304 60.69 10.44C60.6015 10.3497 60.4811 10.2976 60.3546 10.2949C47.3536 10.2949 34.3491 10.2949 21.3413 10.2949C13.8872 10.2949 11.1574 12.1484 11.1171 19.9047C11.0365 34.4235 11.0365 48.9355 11.1171 63.4409C11.1171 69.9683 13.7462 72.3455 20.1829 72.3858C30.0546 72.4395 39.9296 72.4395 49.808 72.3858C56.4261 72.3858 60.6669 71.4994 60.7374 63.8438C60.7777 57.4776 60.7777 51.0979 60.7374 44.7048C60.7374 39.5171 59.3272 35.2562 53.2027 35.1555C47.5685 35.0614 41.9208 35.0614 36.2597 35.1555C36.1598 35.1557 36.0628 35.1882 35.9829 35.2481C35.903 35.308 35.8447 35.3921 35.8164 35.4879L31.9685 46.8604C31.9445 46.9334 31.9382 47.011 31.9502 47.0869C31.9621 47.1627 31.992 47.2347 32.0373 47.2967C32.0826 47.3587 32.142 47.4091 32.2106 47.4436C32.2792 47.4781 32.3551 47.4957 32.4319 47.4951H47.874C47.937 47.4937 47.9997 47.505 48.0583 47.5282C48.1169 47.5514 48.1703 47.586 48.2153 47.6301C48.2603 47.6742 48.2961 47.7269 48.3205 47.785C48.345 47.8431 48.3575 47.9055 48.3575 47.9685V59.5123C48.3549 59.6398 48.3032 59.7612 48.213 59.8514C48.1229 59.9415 48.0014 59.9933 47.874 59.9958H24.0913C23.9735 59.9946 23.86 59.9513 23.7713 59.8737C23.6826 59.7961 23.6246 59.6894 23.6078 59.5728Z" fill="#01A39D" stroke="#01A39D" stroke-width="1.00731"/>
<path d="M290.869 47.3646L301.042 71.661C301.077 71.7493 301.139 71.8246 301.218 71.8768C301.297 71.9291 301.391 71.9557 301.486 71.9531H312.858C312.937 71.9533 313.014 71.9345 313.083 71.8982C313.153 71.8619 313.212 71.8093 313.257 71.7449C313.301 71.6804 313.33 71.6061 313.339 71.5284C313.349 71.4506 313.339 71.3717 313.312 71.2984L303.903 47.7373C303.877 47.6686 303.866 47.5947 303.872 47.5213C303.879 47.448 303.902 47.377 303.939 47.3138C303.977 47.2506 304.029 47.197 304.091 47.1569C304.153 47.1168 304.223 47.0914 304.296 47.0825C304.88 47.0221 305.454 46.9717 306.049 46.9516C310.662 46.7501 313.392 44.0002 313.432 39.2154C313.473 33.1715 313.473 27.1276 313.432 21.0837C313.432 14.6671 312.868 9.90254 305.374 9.86225C295.247 9.82196 285.127 9.82196 275.013 9.86225C271.417 9.86225 268.97 10.1242 267.851 10.6077C265.182 11.7359 263.822 14.0829 263.822 17.6589C263.742 26.3889 263.742 44.3359 263.822 71.4999C263.821 71.5629 263.832 71.6255 263.855 71.6841C263.878 71.7427 263.913 71.7961 263.957 71.8412C264.001 71.8862 264.054 71.922 264.112 71.9464C264.17 71.9708 264.233 71.9834 264.296 71.9834H275.698C275.827 71.9834 275.95 71.9324 276.04 71.8418C276.131 71.7511 276.182 71.6281 276.182 71.4999V47.556C276.182 47.4295 276.231 47.308 276.32 47.2176C276.408 47.1272 276.529 47.0751 276.655 47.0725H290.395C290.495 47.0665 290.593 47.0913 290.678 47.1436C290.763 47.1959 290.829 47.2731 290.869 47.3646Z" fill="#01A39D" stroke="#01A39D" stroke-width="1.00731"/>
<path d="M299.985 22.4727C299.985 22.438 299.971 22.4047 299.947 22.3802C299.922 22.3556 299.889 22.3418 299.854 22.3418H277.401C277.366 22.3418 277.333 22.3556 277.308 22.3802C277.284 22.4047 277.27 22.438 277.27 22.4727V32.5459C277.268 32.5635 277.271 32.5812 277.277 32.5978C277.283 32.6144 277.292 32.6294 277.305 32.6419C277.317 32.6544 277.332 32.664 277.349 32.67C277.366 32.6761 277.383 32.6784 277.401 32.6769H299.854C299.872 32.6784 299.889 32.6761 299.906 32.67C299.922 32.664 299.937 32.6544 299.95 32.6419C299.962 32.6294 299.972 32.6144 299.978 32.5978C299.984 32.5812 299.986 32.5635 299.985 32.5459V22.4727Z" fill="white"/>
<path d="M106.006 39.2346V71.4686C106.008 71.5961 106.06 71.7176 106.15 71.8077C106.24 71.8978 106.362 71.9496 106.489 71.9521H117.993C118.056 71.9535 118.119 71.9422 118.177 71.9191C118.236 71.8959 118.289 71.8612 118.334 71.8171C118.379 71.773 118.415 71.7204 118.439 71.6622C118.464 71.6041 118.476 71.5418 118.476 71.4787C118.617 50.4527 118.567 37.6632 118.325 33.1101C118.053 28.0735 114.054 26.4014 109.612 26.4014H80.4805C73.8624 26.4014 68.8359 26.8244 68.7755 34.5808C68.7285 39.2278 68.7285 47.9579 68.7755 60.771C68.7755 67.1674 69.4202 71.8514 76.834 71.9824C79.6343 72.0227 86.4942 72.0227 97.4135 71.9824C97.516 71.9832 97.6161 71.9515 97.6994 71.8918C97.7826 71.832 97.8448 71.7473 97.8768 71.65L101.725 60.2472C101.749 60.1742 101.755 60.0966 101.743 60.0207C101.731 59.9449 101.701 59.8729 101.656 59.8109C101.611 59.7489 101.551 59.6985 101.483 59.664C101.414 59.6295 101.338 59.6119 101.261 59.6125H81.6188C81.4923 59.6099 81.3719 59.5578 81.2834 59.4674C81.1948 59.377 81.1453 59.2555 81.1453 59.129V39.2346C81.1453 39.1715 81.1579 39.1091 81.1823 39.051C81.2067 38.9929 81.2425 38.9403 81.2875 38.8962C81.3326 38.8521 81.3859 38.8174 81.4446 38.7942C81.5032 38.771 81.5658 38.7598 81.6288 38.7611H105.532C105.658 38.7611 105.778 38.811 105.867 38.8998C105.956 38.9886 106.006 39.109 106.006 39.2346Z" fill="#01A39D" stroke="#01A39D" stroke-width="1.00731"/>
<path d="M242.839 39.2548V42.4984C242.841 42.5614 242.83 42.624 242.806 42.6826C242.783 42.7412 242.749 42.7946 242.704 42.8397C242.66 42.8847 242.608 42.9205 242.55 42.9449C242.491 42.9693 242.429 42.9819 242.366 42.9819H222.653C222.59 42.9819 222.527 42.9944 222.469 43.0188C222.411 43.0433 222.359 43.079 222.314 43.1241C222.27 43.1691 222.236 43.2225 222.213 43.2811C222.189 43.3397 222.178 43.4024 222.179 43.4654V54.8682C222.179 54.9964 222.23 55.1194 222.321 55.2101C222.412 55.3008 222.535 55.3517 222.663 55.3517C229.768 55.3517 236.906 55.3517 244.078 55.3517C250.203 55.3517 254.978 54.8883 255.219 47.7868C255.32 44.6977 255.337 40.8128 255.27 36.1321C255.149 27.993 252.55 26.4317 244.461 26.4115C227.579 26.3511 217.17 26.3511 213.234 26.4115C206.566 26.5223 205.659 31.1963 205.649 36.9783C205.649 45.198 205.649 53.4277 205.649 61.6676C205.649 71.2572 208.984 71.8918 217.979 71.922C226.178 71.922 234.388 71.922 242.608 71.922C242.709 71.9208 242.806 71.8881 242.888 71.8285C242.969 71.7689 243.03 71.6853 243.061 71.5896L246.828 60.1767C246.853 60.1052 246.859 60.0288 246.848 59.9542C246.836 59.8795 246.807 59.8086 246.763 59.7475C246.719 59.6864 246.66 59.6368 246.593 59.6028C246.525 59.5688 246.451 59.5515 246.375 59.5522H218.442C218.316 59.5496 218.195 59.4975 218.107 59.4071C218.018 59.3167 217.969 59.1952 217.969 59.0687V39.2548C217.969 39.1283 218.018 39.0068 218.107 38.9164C218.195 38.826 218.316 38.7739 218.442 38.7713H242.346C242.41 38.77 242.474 38.7815 242.534 38.8052C242.594 38.8289 242.648 38.8643 242.694 38.9093C242.74 38.9543 242.777 39.0081 242.802 39.0674C242.827 39.1267 242.839 39.1905 242.839 39.2548Z" fill="#01A39D" stroke="#01A39D" stroke-width="1.00731"/>
<path d="M333.489 59.089V39.255C333.489 39.1285 333.538 39.007 333.627 38.9166C333.715 38.8262 333.836 38.7741 333.962 38.7715H357.896C357.959 38.7728 358.022 38.7866 358.08 38.8121C358.138 38.8376 358.191 38.8743 358.235 38.9202C358.279 38.966 358.313 39.0201 358.336 39.0792C358.359 39.1384 358.371 39.2015 358.369 39.265V42.5086C358.367 42.6351 358.315 42.7555 358.224 42.844C358.134 42.9325 358.012 42.9821 357.886 42.982H338.042C337.913 42.982 337.79 43.033 337.7 43.1237C337.609 43.2143 337.558 43.3373 337.558 43.4656V54.8482C337.558 54.9747 337.608 55.0962 337.696 55.1866C337.785 55.277 337.905 55.3291 338.032 55.3317C351.926 55.4123 360.253 55.4123 363.013 55.3317C368.003 55.1773 370.571 52.5381 370.719 47.4142C370.766 45.7018 370.742 41.4173 370.648 34.5609C370.568 29.0878 367.794 26.3546 362.328 26.3613C351.933 26.3613 341.54 26.3613 331.152 26.3613C323.174 26.3613 321.139 28.5774 321.078 36.6863C320.978 45.2619 320.978 53.8409 321.078 62.4232C321.149 70.5522 324.201 71.8618 332.038 71.8819C340.694 71.8819 349.361 71.8819 358.037 71.8819C358.137 71.8792 358.234 71.8459 358.315 71.7865C358.396 71.7271 358.457 71.6444 358.49 71.5495L362.217 60.197C362.241 60.1255 362.248 60.0491 362.237 59.9745C362.225 59.8998 362.196 59.829 362.152 59.7678C362.107 59.7067 362.049 59.6571 361.982 59.6231C361.914 59.5891 361.839 59.5718 361.764 59.5725H334.012C333.946 59.5781 333.878 59.5697 333.815 59.548C333.752 59.5262 333.693 59.4914 333.644 59.446C333.595 59.4005 333.556 59.3453 333.529 59.2838C333.502 59.2224 333.488 59.156 333.489 59.089Z" fill="#01A39D" stroke="#01A39D" stroke-width="1.00731"/>
<path d="M393.665 59.0887C393.665 58.585 393.665 57.7389 393.665 56.5502C393.725 50.7683 393.701 45.0031 393.594 39.2547C393.593 39.1903 393.604 39.1264 393.628 39.0665C393.652 39.0067 393.687 38.9522 393.732 38.9062C393.777 38.8603 393.831 38.8237 393.89 38.7988C393.949 38.7739 394.013 38.761 394.078 38.7611H418.152C418.252 38.762 418.35 38.7314 418.431 38.6735C418.513 38.6156 418.574 38.5334 418.606 38.4387L422.413 27.0359C422.437 26.9638 422.443 26.8871 422.432 26.812C422.421 26.7369 422.392 26.6656 422.347 26.6037C422.303 26.5419 422.245 26.4914 422.178 26.4562C422.111 26.4211 422.036 26.4023 421.96 26.4013C410.92 26.361 399.883 26.361 388.85 26.4013C383.027 26.4013 381.184 30.4306 381.174 35.5981C381.174 43.8312 381.174 52.061 381.174 60.2874C381.174 66.845 381.667 71.8312 389.343 71.8715C395.387 71.9118 406.323 71.9118 422.151 71.8715C422.278 71.8715 422.399 71.822 422.49 71.7335C422.58 71.645 422.632 71.5246 422.635 71.3981V60.0356C422.632 59.9081 422.581 59.7866 422.49 59.6965C422.4 59.6064 422.279 59.5546 422.151 59.552H394.138C394.014 59.5521 393.895 59.5036 393.807 59.417C393.718 59.3303 393.667 59.2125 393.665 59.0887Z" fill="#01A39D" stroke="#01A39D" stroke-width="1.00731"/>
<path d="M128.156 71.9121V38.026C128.156 38.026 126.917 26.4117 137.716 26.4117H189.411C189.411 26.4117 197.47 25.2734 197.53 34.7724C197.591 44.2714 197.53 71.9524 197.53 71.9524H186.077V39.8694C186.077 39.8694 186.571 37.9656 184.214 37.9656H169.658C169.5 37.9426 169.34 37.9572 169.189 38.0083C169.038 38.0593 168.902 38.1454 168.791 38.2594C168.68 38.3734 168.597 38.5121 168.55 38.6642C168.503 38.8162 168.492 38.9772 168.52 39.1341V71.9725H157.147V39.0333C157.147 39.0333 157.338 38.026 156.14 38.026H140.899C140.899 38.026 139.62 37.8246 139.62 39.0333V71.9121H128.156Z" fill="#01A39D" stroke="#01A39D" stroke-width="1.00731"/>
</g>
</g>
<defs>
<clipPath id="clip0_4775_5052">
<rect width="431" height="96.4504" fill="white" transform="translate(0.5)"/>
</clipPath>
<clipPath id="clip1_4775_5052">
<rect width="431" height="96.4504" fill="white" transform="translate(0.5)"/>
</clipPath>
</defs>
</svg>
