<svg width="220" height="350" viewBox="0 0 220 350" fill="none" xmlns="http://www.w3.org/2000/svg">
<g clip-path="url(#clip0_4797_6171)">
<g filter="url(#filter0_d_4797_6171)">
<mask id="mask0_4797_6171" style="mask-type:luminance" maskUnits="userSpaceOnUse" x="0" y="0" width="220" height="350">
<path d="M210.387 0H9.61307C4.30392 0 0 4.30391 0 9.61306V340.247C0 345.556 4.30392 349.86 9.61307 349.86H210.387C215.696 349.86 220 345.556 220 340.247V9.61306C220 4.30391 215.696 0 210.387 0Z" fill="white"/>
</mask>
<g mask="url(#mask0_4797_6171)">
<path d="M210.387 0H9.61307C4.30392 0 0 4.30391 0 9.61306V340.247C0 345.556 4.30392 349.86 9.61307 349.86H210.387C215.696 349.86 220 345.556 220 340.247V9.61306C220 4.30391 215.696 0 210.387 0Z" fill="white"/>
<path d="M220 0H0V9.77773H220V0Z" fill="white"/>
<path d="M21.9944 3.74714V6.35396H21.5029V3.74714H21.9944ZM22.8031 3.74714V4.13574H20.7026V3.74714H22.8031ZM22.7322 5.40503V5.36742C22.7322 5.22538 22.7514 5.09476 22.7923 4.97532C22.8332 4.8548 22.892 4.75038 22.9701 4.66206C23.0471 4.57374 23.142 4.50512 23.2549 4.45622C23.3667 4.40599 23.4941 4.381 23.637 4.381C23.7836 4.381 23.9122 4.40599 24.0239 4.45622C24.1381 4.50512 24.233 4.57374 24.3111 4.66206C24.388 4.75038 24.447 4.8548 24.4878 4.97532C24.5287 5.09476 24.5491 5.22538 24.5491 5.36742V5.40503C24.5491 5.54586 24.5287 5.67659 24.4878 5.79712C24.447 5.91644 24.388 6.02098 24.3111 6.11051C24.233 6.19883 24.1381 6.26744 24.0263 6.31635C23.9134 6.36526 23.786 6.38976 23.6406 6.38976C23.4976 6.38976 23.3691 6.36526 23.2561 6.31635C23.1432 6.26744 23.0471 6.19883 22.9701 6.11051C22.892 6.02098 22.8332 5.91644 22.7923 5.79712C22.7514 5.67659 22.7322 5.54586 22.7322 5.40503ZM23.2045 5.36742V5.40503C23.2045 5.48975 23.2129 5.56917 23.2297 5.64319C23.2465 5.71721 23.2717 5.78222 23.3066 5.83833C23.3414 5.89445 23.3859 5.93855 23.4412 5.97075C23.4964 6.00188 23.5637 6.01738 23.6406 6.01738C23.7175 6.01738 23.7836 6.00188 23.8377 5.97075C23.893 5.93855 23.9374 5.89445 23.9723 5.83833C24.0083 5.78222 24.0348 5.71721 24.0516 5.64319C24.0672 5.56917 24.0756 5.48975 24.0756 5.40503V5.36742C24.0756 5.2839 24.0672 5.20568 24.0516 5.13298C24.0348 5.05896 24.0083 4.99383 23.9723 4.93783C23.9374 4.88052 23.8918 4.83569 23.8365 4.80349C23.7813 4.77009 23.7152 4.75338 23.637 4.75338C23.5613 4.75338 23.4952 4.77009 23.4412 4.80349C23.3859 4.83569 23.3414 4.88052 23.3066 4.93783C23.2717 4.99383 23.2465 5.05896 23.2297 5.13298C23.2129 5.20568 23.2045 5.2839 23.2045 5.36742ZM26.0547 5.94216V3.6039H26.5305V6.35396H26.1016L26.0547 5.94216ZM24.8099 5.40863V5.37102C24.8099 5.22298 24.8267 5.08876 24.8603 4.96823C24.8952 4.84651 24.9456 4.74208 25.0105 4.65484C25.0766 4.56773 25.1559 4.50032 25.2484 4.45261C25.3434 4.40479 25.4503 4.381 25.5692 4.381C25.6846 4.381 25.7856 4.40418 25.8721 4.45081C25.9586 4.49731 26.0331 4.56365 26.0944 4.64956C26.1557 4.73548 26.2049 4.8375 26.2422 4.95562C26.2794 5.07266 26.3059 5.20159 26.3227 5.34242V5.44444C26.3059 5.58167 26.2794 5.7076 26.2422 5.82224C26.2049 5.93675 26.1557 6.03709 26.0944 6.123C26.0331 6.20772 25.9586 6.27333 25.8721 6.31995C25.7844 6.36646 25.6822 6.38976 25.5656 6.38976C25.4479 6.38976 25.3409 6.36526 25.2472 6.31635C25.1535 6.26744 25.0742 6.19883 25.0093 6.11051C24.9444 6.02219 24.8952 5.91824 24.8603 5.79892C24.8267 5.6796 24.8099 5.54947 24.8099 5.40863ZM25.2845 5.37102V5.40863C25.2845 5.49215 25.2917 5.57037 25.3061 5.64319C25.3205 5.71601 25.3433 5.78042 25.3758 5.83654C25.4082 5.89145 25.4491 5.93435 25.4996 5.96547C25.5512 5.99647 25.6126 6.01197 25.6859 6.01197C25.7784 6.01197 25.8553 5.99167 25.9153 5.95117C25.9754 5.90935 26.0235 5.85264 26.0559 5.78102C26.0896 5.7082 26.1112 5.62649 26.1208 5.53576V5.25471C26.116 5.18309 26.104 5.11675 26.0836 5.05595C26.0644 4.99503 26.0367 4.94252 26.0006 4.89842C25.9658 4.8542 25.9237 4.81959 25.8721 4.7946C25.8204 4.76948 25.7591 4.75699 25.6894 4.75699C25.6161 4.75699 25.5548 4.77309 25.5032 4.8053C25.4515 4.8363 25.4094 4.87991 25.3782 4.93603C25.3457 4.99202 25.3217 5.05715 25.3061 5.13117C25.2917 5.20507 25.2845 5.2851 25.2845 5.37102ZM28.0254 5.94216V5.04875C28.0254 4.98314 28.0146 4.92642 27.9917 4.87871C27.9689 4.83101 27.934 4.794 27.8884 4.76768C27.8415 4.74149 27.7827 4.72827 27.7106 4.72827C27.6469 4.72827 27.5916 4.73909 27.5435 4.76048C27.4979 4.78198 27.4618 4.8125 27.4366 4.8518C27.4114 4.89001 27.3993 4.93423 27.3993 4.98433H26.9247C26.9247 4.9043 26.9439 4.82861 26.9824 4.75699C27.0196 4.68417 27.0749 4.61964 27.1446 4.56364C27.2167 4.50633 27.302 4.4615 27.4005 4.4293C27.5015 4.3971 27.6132 4.381 27.737 4.381C27.8848 4.381 28.0146 4.40599 28.13 4.45622C28.2453 4.50512 28.3366 4.57914 28.4015 4.67816C28.4688 4.77729 28.5025 4.90202 28.5025 5.05235V5.89746C28.5025 5.99407 28.5085 6.07698 28.5193 6.14632C28.5325 6.21433 28.5517 6.27333 28.5769 6.32356V6.35396H28.0951C28.0722 6.30505 28.0554 6.24293 28.0434 6.1677C28.0314 6.0914 28.0254 6.01618 28.0254 5.94216ZM28.0915 5.17408L28.0951 5.45513H27.7971C27.7226 5.45513 27.6577 5.46295 27.6013 5.47845C27.5448 5.49275 27.4991 5.51426 27.463 5.54286C27.4282 5.57038 27.4006 5.60378 27.3825 5.64319C27.3645 5.6814 27.3561 5.72491 27.3561 5.77393C27.3561 5.82164 27.3669 5.86454 27.3886 5.90275C27.4114 5.94096 27.4438 5.97136 27.4846 5.99407C27.5279 6.01558 27.5784 6.02627 27.6348 6.02627C27.719 6.02627 27.7923 6.00957 27.8535 5.97616C27.916 5.94156 27.9641 5.89974 27.999 5.85083C28.0338 5.80192 28.0518 5.75543 28.0542 5.71121L28.19 5.91536C28.1732 5.96427 28.1492 6.01618 28.1155 6.07109C28.0819 6.12601 28.0386 6.17732 27.9857 6.22502C27.934 6.27273 27.8704 6.31214 27.7971 6.34327C27.7226 6.37427 27.6361 6.38976 27.5388 6.38976C27.4138 6.38976 27.3008 6.36465 27.2023 6.31454C27.1025 6.26444 27.0244 6.19582 26.9679 6.1087C26.9103 6.02158 26.8815 5.92245 26.8815 5.81142C26.8815 5.7088 26.9007 5.61808 26.9391 5.53938C26.9776 5.46055 27.034 5.39433 27.1085 5.34062C27.1842 5.2857 27.2768 5.24449 27.3886 5.21709C27.5003 5.18837 27.6289 5.17408 27.7731 5.17408H28.0915ZM29.4674 6.13911L29.9865 4.4168H30.4924L29.7161 6.64752C29.698 6.69534 29.674 6.74725 29.6464 6.80337C29.6188 6.85936 29.5815 6.91259 29.5346 6.9627C29.489 7.01401 29.4301 7.05571 29.3592 7.08803C29.2907 7.12024 29.2066 7.13634 29.1069 7.13634C29.0636 7.13634 29.0263 7.13334 28.9927 7.12733C28.9591 7.12144 28.9242 7.11363 28.8869 7.10413V6.74965C28.899 6.75085 28.9122 6.75146 28.9279 6.75146C28.9447 6.75266 28.959 6.75314 28.9711 6.75314C29.0408 6.75314 29.0972 6.74485 29.1429 6.72815C29.1886 6.71264 29.2246 6.68693 29.2523 6.65112C29.2811 6.61651 29.3052 6.57121 29.3232 6.5151L29.4674 6.13911ZM29.2114 4.4168L29.65 5.84374L29.7269 6.34327L29.4013 6.40226L28.7007 4.4168H29.2114ZM30.9165 5.92786L30.9141 6.25542C30.9141 6.38315 30.8817 6.51269 30.8192 6.64403C30.7555 6.77525 30.6738 6.88388 30.5728 6.9698L30.3229 6.83197C30.3553 6.77826 30.3842 6.72394 30.4119 6.66902C30.4407 6.61411 30.4635 6.55451 30.4804 6.48999C30.4984 6.42678 30.5068 6.35576 30.5068 6.27694V5.92786H30.9165ZM32.8668 6.35396H32.3909V4.23776C32.3909 4.09212 32.4186 3.9698 32.475 3.87066C32.5303 3.77045 32.6109 3.69462 32.7142 3.64331C32.8188 3.592 32.9413 3.56641 33.0819 3.56641C33.1287 3.56641 33.172 3.56929 33.214 3.5753C33.2573 3.58131 33.2994 3.5896 33.3414 3.60042L33.3318 3.96019C33.3102 3.9543 33.2849 3.9501 33.2573 3.94769C33.2309 3.94529 33.202 3.94408 33.1696 3.94408C33.1047 3.94408 33.0506 3.9555 33.0049 3.97809C32.9593 4.0008 32.9245 4.0342 32.9004 4.07842C32.8776 4.12132 32.8668 4.17443 32.8668 4.23776V6.35396ZM33.2585 4.4168V4.75699H32.0989V4.4168H33.2585ZM33.4664 5.40503V5.36742C33.4664 5.22538 33.4869 5.09476 33.5277 4.97532C33.5686 4.8548 33.6274 4.75038 33.7043 4.66206C33.7824 4.57374 33.8774 4.50512 33.9891 4.45622C34.1021 4.40599 34.2294 4.381 34.3724 4.381C34.5178 4.381 34.6476 4.40599 34.7594 4.45622C34.8723 4.50512 34.9684 4.57374 35.0453 4.66206C35.1234 4.75038 35.1823 4.8548 35.2232 4.97532C35.264 5.09476 35.2833 5.22538 35.2833 5.36742V5.40503C35.2833 5.54586 35.264 5.67659 35.2232 5.79712C35.1823 5.91644 35.1234 6.02098 35.0453 6.11051C34.9684 6.19883 34.8735 6.26744 34.7605 6.31635C34.6488 6.36526 34.5203 6.38976 34.3761 6.38976C34.2331 6.38976 34.1045 6.36526 33.9915 6.31635C33.8774 6.26744 33.7824 6.19883 33.7043 6.11051C33.6274 6.02098 33.5686 5.91644 33.5277 5.79712C33.4869 5.67659 33.4664 5.54586 33.4664 5.40503ZM33.9398 5.36742V5.40503C33.9398 5.48975 33.9471 5.56917 33.9639 5.64319C33.9807 5.71721 34.0071 5.78222 34.0407 5.83833C34.0756 5.89445 34.1201 5.93855 34.1753 5.97075C34.2318 6.00188 34.298 6.01738 34.3761 6.01738C34.453 6.01738 34.5179 6.00188 34.5731 5.97075C34.6284 5.93855 34.6729 5.89445 34.7077 5.83833C34.7426 5.78222 34.769 5.71721 34.7858 5.64319C34.8027 5.56917 34.8111 5.48975 34.8111 5.40503V5.36742C34.8111 5.2839 34.8027 5.20568 34.7858 5.13298C34.769 5.05896 34.7426 4.99383 34.7077 4.93783C34.6729 4.88052 34.6272 4.83569 34.5707 4.80349C34.5166 4.77009 34.4505 4.75338 34.3724 4.75338C34.2967 4.75338 34.2306 4.77009 34.1753 4.80349C34.1201 4.83569 34.0756 4.88052 34.0407 4.93783C34.0071 4.99383 33.9807 5.05896 33.9639 5.13298C33.9471 5.20568 33.9398 5.2839 33.9398 5.36742ZM36.1004 4.8125V6.35396H35.6282V4.4168H36.0752L36.1004 4.8125ZM36.6892 4.40419L36.682 4.84471C36.6556 4.8399 36.6255 4.83629 36.593 4.83389C36.5606 4.83149 36.5294 4.83041 36.5017 4.83041C36.4284 4.83041 36.3647 4.8405 36.3094 4.86081C36.2542 4.87991 36.2085 4.90791 36.1713 4.94492C36.1364 4.98193 36.1088 5.02724 36.0896 5.08095C36.0703 5.13346 36.0595 5.19318 36.0571 5.25999L35.955 5.24749C35.955 5.12457 35.9682 5.01053 35.9922 4.90551C36.0175 4.80049 36.0547 4.70856 36.1016 4.62985C36.1496 4.55103 36.2097 4.49022 36.2806 4.44721C36.3539 4.40311 36.4369 4.381 36.5318 4.381C36.5582 4.381 36.5858 4.3834 36.6159 4.38808C36.6471 4.39169 36.6712 4.3971 36.6892 4.40419ZM38.7789 4.4168V4.75699H37.6685V4.4168H38.7789ZM37.9653 3.9406H38.4399V5.79532C38.4399 5.85264 38.4484 5.89686 38.464 5.92786C38.4784 5.95886 38.5024 5.97977 38.5337 5.99046C38.5649 6.00128 38.601 6.00656 38.6443 6.00656C38.6755 6.00656 38.7043 6.00489 38.7307 6.00128C38.756 5.99768 38.7788 5.99407 38.7968 5.99046L38.7981 6.34494C38.7584 6.35816 38.714 6.36886 38.6635 6.37727C38.6154 6.38556 38.5602 6.38976 38.4977 6.38976C38.3907 6.38976 38.2982 6.37186 38.2176 6.33605C38.1383 6.29904 38.0759 6.23992 38.0326 6.15881C37.9881 6.0765 37.9653 5.96787 37.9653 5.83293V3.9406ZM39.5575 3.6039V6.35396H39.0829V3.6039H39.5575ZM39.4818 5.31551H39.3424C39.3424 5.18069 39.3604 5.05656 39.3965 4.94312C39.4325 4.82981 39.483 4.73127 39.5478 4.64776C39.6139 4.56304 39.6921 4.49731 39.7834 4.45081C39.8747 4.40418 39.9769 4.381 40.0874 4.381C40.1824 4.381 40.2689 4.3947 40.347 4.42209C40.4263 4.44841 40.4935 4.49082 40.5488 4.54922C40.6053 4.60774 40.6486 4.68417 40.6786 4.77838C40.7087 4.87151 40.7243 4.98494 40.7243 5.11856V6.35396H40.2484V5.11507C40.2484 5.02555 40.2352 4.95513 40.2088 4.9037C40.1824 4.85119 40.1451 4.81359 40.0958 4.791C40.0489 4.76828 39.9901 4.75699 39.9192 4.75699C39.8423 4.75699 39.7774 4.77188 39.7221 4.80168C39.6668 4.8304 39.6224 4.8703 39.5864 4.92161C39.5515 4.97304 39.525 5.03205 39.507 5.09886C39.4902 5.16579 39.4818 5.238 39.4818 5.31551ZM42.0124 6.38976C41.8646 6.38976 41.7336 6.36585 41.6159 6.31815C41.4993 6.27044 41.3996 6.20411 41.3179 6.1194C41.2362 6.03348 41.1737 5.93386 41.1292 5.82043C41.086 5.70579 41.0643 5.58287 41.0643 5.45165V5.38003C41.0643 5.23079 41.086 5.09537 41.1292 4.97352C41.1725 4.8506 41.2338 4.74497 41.3119 4.65665C41.3912 4.56833 41.4849 4.50032 41.5942 4.45261C41.7048 4.40479 41.8262 4.381 41.9584 4.381C42.0954 4.381 42.2167 4.40418 42.3213 4.45081C42.427 4.49611 42.5147 4.56064 42.5844 4.64416C42.6553 4.72767 42.7082 4.828 42.7442 4.94492C42.7803 5.06076 42.7983 5.18898 42.7983 5.32981V5.52856H41.2795V5.20279H42.3321V5.16698C42.3297 5.09176 42.3153 5.02315 42.29 4.96103C42.2636 4.89782 42.2227 4.84771 42.1674 4.8107C42.1133 4.77248 42.0412 4.75338 41.9547 4.75338C41.8838 4.75338 41.8225 4.76889 41.7697 4.79989C41.7192 4.82981 41.6759 4.87271 41.6411 4.92882C41.6075 4.98374 41.5834 5.04935 41.5666 5.12577C41.5498 5.2022 41.5414 5.2869 41.5414 5.38003V5.45165C41.5414 5.53276 41.5522 5.60798 41.5738 5.67719C41.5955 5.74641 41.6291 5.80674 41.6723 5.85805C41.7156 5.90815 41.7685 5.94756 41.8298 5.97616C41.8911 6.00368 41.962 6.01738 42.0401 6.01738C42.1398 6.01738 42.2287 5.99828 42.3092 5.96006C42.391 5.92065 42.4606 5.86285 42.5207 5.78643L42.7586 6.03348C42.7178 6.0932 42.6625 6.1504 42.594 6.20532C42.5255 6.26023 42.4438 6.30505 42.3465 6.33965C42.2504 6.37306 42.1386 6.38976 42.0124 6.38976ZM45.0946 5.94216V5.04875C45.0946 4.98314 45.0838 4.92642 45.061 4.87871C45.0381 4.83101 45.0033 4.794 44.9576 4.76768C44.9108 4.74149 44.8519 4.72827 44.7798 4.72827C44.7161 4.72827 44.6608 4.73909 44.6139 4.76048C44.5671 4.78198 44.5311 4.8125 44.5058 4.8518C44.4806 4.89001 44.4686 4.93423 44.4686 4.98433H43.9939C43.9939 4.9043 44.0132 4.82861 44.0516 4.75699C44.0889 4.68417 44.1441 4.61964 44.2138 4.56364C44.2859 4.50633 44.3712 4.4615 44.4698 4.4293C44.5707 4.3971 44.6825 4.381 44.8062 4.381C44.954 4.381 45.0838 4.40599 45.1991 4.45622C45.3145 4.50512 45.4058 4.57914 45.4707 4.67816C45.538 4.77729 45.5716 4.90202 45.5716 5.05235V5.89746C45.5716 5.99407 45.5777 6.07698 45.5897 6.14632C45.6017 6.21433 45.6209 6.27333 45.6462 6.32356V6.35396H45.1643C45.1427 6.30505 45.1247 6.24293 45.1127 6.1677C45.1007 6.0914 45.0946 6.01618 45.0946 5.94216ZM45.1607 5.17408L45.1643 5.45513H44.8663C44.7918 5.45513 44.7269 5.46295 44.6704 5.47845C44.6151 5.49275 44.5683 5.51426 44.5322 5.54286C44.4974 5.57038 44.4697 5.60378 44.4517 5.64319C44.4349 5.6814 44.4253 5.72491 44.4253 5.77393C44.4253 5.82164 44.4361 5.86454 44.4577 5.90275C44.4806 5.94096 44.513 5.97136 44.5539 5.99407C44.5971 6.01558 44.6476 6.02627 44.7053 6.02627C44.7882 6.02627 44.8615 6.00957 44.9228 5.97616C44.9853 5.94156 45.0333 5.89974 45.0682 5.85083C45.103 5.80192 45.121 5.75543 45.1235 5.71121L45.2592 5.91536C45.2424 5.96427 45.2184 6.01618 45.1848 6.07109C45.1511 6.12601 45.1079 6.17732 45.0562 6.22502C45.0033 6.27273 44.9396 6.31214 44.8663 6.34327C44.7918 6.37427 44.7053 6.38976 44.6079 6.38976C44.483 6.38976 44.37 6.36465 44.2715 6.31454C44.1718 6.26444 44.0937 6.19582 44.0372 6.1087C43.9795 6.02158 43.9506 5.92245 43.9506 5.81142C43.9506 5.7088 43.9699 5.61808 44.0084 5.53938C44.0468 5.46055 44.1033 5.39433 44.1778 5.34062C44.2535 5.2857 44.3472 5.24449 44.4577 5.21709C44.5695 5.18837 44.6981 5.17408 44.8423 5.17408H45.1607ZM46.4608 4.83041V6.35396H45.9887V4.4168H46.432L46.4608 4.83041ZM46.3864 5.31551H46.2458C46.247 5.17468 46.2662 5.04694 46.3034 4.93243C46.3407 4.81779 46.3924 4.71937 46.4597 4.63694C46.527 4.55463 46.6075 4.49143 46.7012 4.44721C46.7937 4.40311 46.8983 4.381 47.0124 4.381C47.1062 4.381 47.1902 4.39409 47.2647 4.42041C47.3404 4.4466 47.4041 4.48842 47.4582 4.54574C47.5135 4.60294 47.5544 4.67816 47.5832 4.77128C47.6132 4.86321 47.6289 4.97653 47.6289 5.11147V6.35396H47.1518V5.10787C47.1518 5.01955 47.1386 4.94973 47.1122 4.89842C47.0882 4.84711 47.0509 4.8107 47.0016 4.78919C46.9535 4.76768 46.8947 4.75699 46.825 4.75699C46.7517 4.75699 46.688 4.77188 46.6327 4.80168C46.5786 4.8304 46.5342 4.8703 46.4969 4.92161C46.4609 4.97304 46.4333 5.03205 46.414 5.09886C46.396 5.16579 46.3864 5.238 46.3864 5.31551ZM48.5469 4.4168V6.35396H48.0722V4.4168H48.5469ZM48.0398 3.91008C48.0398 3.83966 48.0638 3.78126 48.1119 3.73463C48.1612 3.68813 48.2261 3.66482 48.309 3.66482C48.3907 3.66482 48.4556 3.68813 48.5036 3.73463C48.5529 3.78126 48.577 3.83966 48.577 3.91008C48.577 3.97929 48.5529 4.03721 48.5036 4.08371C48.4556 4.13034 48.3907 4.15365 48.309 4.15365C48.2261 4.15365 48.1612 4.13034 48.1119 4.08371C48.0638 4.03721 48.0398 3.97929 48.0398 3.91008ZM49.4686 4.81419V6.35396H48.9963V4.4168H49.4421L49.4686 4.81419ZM49.3988 5.31551H49.2535C49.2535 5.18069 49.2703 5.05656 49.3028 4.94312C49.3352 4.82981 49.3845 4.73127 49.4494 4.64776C49.5131 4.56304 49.5936 4.49731 49.6873 4.45081C49.7822 4.40418 49.8928 4.381 50.019 4.381C50.1055 4.381 50.1859 4.39409 50.258 4.42041C50.3313 4.4454 50.3938 4.48542 50.4467 4.54033C50.4996 4.59404 50.5416 4.66446 50.5705 4.75158C50.5981 4.8375 50.6125 4.94072 50.6125 5.06136V6.35396H50.1403V5.10967C50.1403 5.01894 50.1271 4.94793 50.1007 4.89662C50.0754 4.84531 50.0394 4.8095 49.9913 4.78919C49.9444 4.76768 49.8868 4.75699 49.8195 4.75699C49.7462 4.75699 49.6825 4.77188 49.6284 4.80168C49.5755 4.8304 49.5323 4.8703 49.4974 4.92161C49.4638 4.97304 49.4386 5.03205 49.4217 5.09886C49.4073 5.16579 49.3988 5.238 49.3988 5.31551ZM50.5765 5.22779L50.3818 5.26359C50.383 5.14187 50.3999 5.02783 50.4323 4.92161C50.4648 4.81418 50.5116 4.72058 50.5741 4.64055C50.6366 4.55944 50.7147 4.49611 50.8084 4.45081C50.9021 4.40418 51.0115 4.381 51.134 4.381C51.229 4.381 51.3155 4.3947 51.3912 4.42209C51.4693 4.44841 51.5354 4.49082 51.5907 4.54922C51.6447 4.60654 51.6868 4.68117 51.7156 4.77309C51.7457 4.86502 51.7601 4.97713 51.7601 5.10967V6.35396H51.2842V5.10787C51.2842 5.01354 51.271 4.94132 51.2446 4.89121C51.2193 4.8411 51.1833 4.8065 51.1352 4.78739C51.0884 4.76708 51.0319 4.75699 50.967 4.75699C50.9021 4.75699 50.8445 4.76948 50.7952 4.7946C50.7483 4.81839 50.7075 4.85179 50.6738 4.89481C50.6414 4.93783 50.6173 4.98795 50.6005 5.04514C50.5849 5.10126 50.5765 5.16218 50.5765 5.22779ZM53.2513 5.94216V5.04875C53.2513 4.98314 53.2405 4.92642 53.2177 4.87871C53.1949 4.83101 53.16 4.794 53.1143 4.76768C53.0675 4.74149 53.0086 4.72827 52.9365 4.72827C52.874 4.72827 52.8175 4.73909 52.7707 4.76048C52.7238 4.78198 52.6877 4.8125 52.6625 4.8518C52.6373 4.89001 52.6252 4.93423 52.6252 4.98433H52.1506C52.1506 4.9043 52.1698 4.82861 52.2083 4.75699C52.2467 4.68417 52.3008 4.61964 52.3705 4.56364C52.4426 4.50633 52.5279 4.4615 52.6265 4.4293C52.7274 4.3971 52.8392 4.381 52.9641 4.381C53.1107 4.381 53.2417 4.40599 53.3559 4.45622C53.4712 4.50512 53.5626 4.57914 53.6274 4.67816C53.6947 4.77729 53.7284 4.90202 53.7284 5.05235V5.89746C53.7284 5.99407 53.7344 6.07698 53.7464 6.14632C53.7596 6.21433 53.7789 6.27333 53.8029 6.32356V6.35396H53.3222C53.2994 6.30505 53.2813 6.24293 53.2693 6.1677C53.2573 6.0914 53.2513 6.01618 53.2513 5.94216ZM53.3186 5.17408L53.3222 5.45513H53.023C52.9485 5.45513 52.8836 5.46295 52.8271 5.47845C52.7719 5.49275 52.725 5.51426 52.6901 5.54286C52.6541 5.57038 52.6264 5.60378 52.6096 5.64319C52.5916 5.6814 52.582 5.72491 52.582 5.77393C52.582 5.82164 52.5928 5.86454 52.6145 5.90275C52.6373 5.94096 52.6697 5.97136 52.7118 5.99407C52.7538 6.01558 52.8043 6.02627 52.862 6.02627C52.9449 6.02627 53.0182 6.00957 53.0795 5.97616C53.142 5.94156 53.19 5.89974 53.2249 5.85083C53.2597 5.80192 53.2778 5.75543 53.2802 5.71121L53.4171 5.91536C53.4003 5.96427 53.3751 6.01618 53.3414 6.07109C53.3078 6.12601 53.2645 6.17732 53.2128 6.22502C53.16 6.27273 53.0963 6.31214 53.023 6.34327C52.9485 6.37427 52.8632 6.38976 52.7647 6.38976C52.6397 6.38976 52.5279 6.36465 52.4282 6.31454C52.3296 6.26444 52.2516 6.19582 52.1939 6.1087C52.1362 6.02158 52.1074 5.92245 52.1074 5.81142C52.1074 5.7088 52.1266 5.61808 52.165 5.53938C52.2035 5.46055 52.26 5.39433 52.3357 5.34062C52.4102 5.2857 52.5039 5.24449 52.6145 5.21709C52.7262 5.18837 52.8548 5.17408 52.999 5.17408H53.3186ZM54.656 3.6039V6.35396H54.1814V3.6039H54.656ZM56.1725 5.82403C56.1725 5.78342 56.1617 5.74701 56.1401 5.71481C56.1184 5.68261 56.0775 5.65329 56.0174 5.62709C55.9598 5.59957 55.8733 5.57398 55.7603 5.55006C55.6594 5.52856 55.5669 5.50176 55.4828 5.46955C55.3975 5.43723 55.3254 5.39854 55.2641 5.35311C55.2028 5.30661 55.1559 5.2523 55.1211 5.19018C55.0874 5.12697 55.0706 5.05415 55.0706 4.97184C55.0706 4.89181 55.0886 4.81659 55.1222 4.74617C55.1571 4.67456 55.2076 4.61195 55.2737 4.55824C55.3386 4.50332 55.419 4.4603 55.5128 4.4293C55.6077 4.3971 55.7135 4.381 55.8312 4.381C55.9971 4.381 56.1376 4.40779 56.2566 4.46151C56.3756 4.51522 56.4669 4.58924 56.5305 4.68357C56.593 4.77669 56.6255 4.88172 56.6255 4.99863H56.152C56.152 4.94733 56.14 4.90083 56.116 4.85901C56.0932 4.81719 56.0583 4.78378 56.0103 4.75879C55.9634 4.73247 55.9034 4.71938 55.8301 4.71938C55.764 4.71938 55.7086 4.73007 55.663 4.75158C55.6197 4.77309 55.5861 4.80109 55.5632 4.8357C55.5404 4.8703 55.5296 4.90851 55.5296 4.95033C55.5296 4.98133 55.5356 5.00933 55.5476 5.03444C55.5596 5.05836 55.5813 5.08035 55.6101 5.10065C55.6389 5.12096 55.6774 5.13947 55.7267 5.15617C55.776 5.17288 55.8372 5.18898 55.9105 5.2046C56.0547 5.2332 56.1809 5.27141 56.2879 5.31911C56.3972 5.36561 56.4813 5.42774 56.5426 5.50536C56.6039 5.58287 56.6339 5.682 56.6339 5.80253C56.6339 5.88844 56.6159 5.96727 56.5787 6.03889C56.5414 6.1093 56.4873 6.17071 56.4176 6.22322C56.3467 6.27573 56.2626 6.31695 56.1653 6.34675C56.0668 6.37547 55.9562 6.38976 55.8336 6.38976C55.6558 6.38976 55.5056 6.35816 55.3818 6.29483C55.2592 6.23043 55.1667 6.1492 55.103 6.05138C55.0393 5.95225 55.0081 5.84964 55.0081 5.74341H55.4611C55.4647 5.81863 55.4851 5.87895 55.5224 5.92425C55.5584 5.96968 55.6053 6.00248 55.6618 6.02279C55.7195 6.04178 55.7795 6.05138 55.842 6.05138C55.9141 6.05138 55.9742 6.04178 56.0235 6.02279C56.0727 6.00248 56.1088 5.97556 56.1341 5.94216C56.1593 5.90755 56.1725 5.86813 56.1725 5.82403ZM57.5328 3.74714L57.4811 5.57157H57.0809L57.0293 3.74714H57.5328ZM57.0148 6.1337C57.0148 6.06329 57.0388 6.00429 57.0869 5.95646C57.1362 5.90755 57.2011 5.88304 57.284 5.88304C57.3657 5.88304 57.4306 5.90755 57.4786 5.95646C57.5279 6.00429 57.552 6.06329 57.552 6.1337C57.552 6.20291 57.5279 6.26143 57.4786 6.30913C57.4306 6.35696 57.3657 6.38075 57.284 6.38075C57.2011 6.38075 57.1362 6.35696 57.0869 6.30913C57.0388 6.26143 57.0148 6.20291 57.0148 6.1337Z" fill="black"/>
<path d="M151.402 1.22046H142.847V3.6649H151.402V1.22046Z" fill="#242424"/>
<path d="M151.403 3.66602H142.847V6.11044H151.403V3.66602Z" fill="#C9C9C9"/>
<path d="M151.403 6.11328H142.847V8.55771H151.403V6.11328Z" fill="#242424"/>
<path d="M195.403 8.86041C197.597 8.86041 199.376 7.082 199.376 4.88822C199.376 2.69443 197.597 0.916016 195.403 0.916016C193.21 0.916016 191.431 2.69443 191.431 4.88822C191.431 7.082 193.21 8.86041 195.403 8.86041Z" fill="#D9D9D9"/>
<path d="M196.504 5.05877C196.632 4.85666 196.707 4.61657 196.707 4.35918C196.707 3.63868 196.123 3.05469 195.403 3.05469C194.684 3.05469 194.1 3.63868 194.1 4.35918C194.1 4.61657 194.175 4.85666 194.303 5.05877C193.683 5.39295 193.233 6.0011 193.111 6.72136H197.696C197.574 6.0011 197.124 5.39295 196.504 5.05877Z" fill="black"/>
<path d="M162.796 4.81779H162.974C163.061 4.81779 163.133 4.80336 163.189 4.77476C163.246 4.7452 163.289 4.70543 163.317 4.65532C163.346 4.60425 163.36 4.54693 163.36 4.48336C163.36 4.40814 163.347 4.34506 163.322 4.29411C163.296 4.24304 163.259 4.20458 163.209 4.17863C163.159 4.15267 163.096 4.13958 163.019 4.13958C162.949 4.13958 162.887 4.15352 162.834 4.18128C162.781 4.20808 162.739 4.24665 162.709 4.29676C162.679 4.34686 162.664 4.40598 162.664 4.474H162.416C162.416 4.37462 162.441 4.28426 162.491 4.20279C162.541 4.12132 162.611 4.05643 162.702 4.008C162.793 3.95969 162.899 3.93555 163.019 3.93555C163.137 3.93555 163.24 3.95657 163.329 3.99863C163.418 4.03985 163.486 4.10161 163.535 4.18392C163.585 4.26539 163.609 4.36705 163.609 4.48877C163.609 4.53804 163.598 4.59079 163.574 4.64715C163.552 4.70266 163.516 4.75457 163.468 4.803C163.421 4.8513 163.359 4.89108 163.283 4.92244C163.207 4.95297 163.116 4.96811 163.009 4.96811H162.796V4.81779ZM162.796 5.02182V4.87282H163.009C163.133 4.87282 163.236 4.88759 163.318 4.91715C163.4 4.94659 163.463 4.98601 163.51 5.03528C163.557 5.08455 163.591 5.13862 163.609 5.19774C163.629 5.2559 163.639 5.31405 163.639 5.37233C163.639 5.46366 163.623 5.54465 163.592 5.6153C163.562 5.68608 163.517 5.74605 163.462 5.79531C163.406 5.84446 163.341 5.88171 163.265 5.9067C163.191 5.93181 163.109 5.94432 163.02 5.94432C162.935 5.94432 162.854 5.93217 162.78 5.90802C162.705 5.88387 162.639 5.84902 162.583 5.80336C162.525 5.75674 162.48 5.6999 162.448 5.63285C162.416 5.56472 162.4 5.48733 162.4 5.40045H162.647C162.647 5.46858 162.663 5.52807 162.692 5.57914C162.723 5.63009 162.765 5.66998 162.821 5.69857C162.877 5.72633 162.944 5.74028 163.02 5.74028C163.096 5.74028 163.162 5.7273 163.216 5.70122C163.271 5.67443 163.314 5.63417 163.343 5.58046C163.374 5.52674 163.389 5.45909 163.389 5.37762C163.389 5.29615 163.372 5.22946 163.338 5.17755C163.304 5.1248 163.256 5.08586 163.193 5.06075C163.132 5.03479 163.058 5.02182 162.974 5.02182H162.796ZM165.262 5.71336V5.91752H163.982V5.73883L164.623 5.0259C164.702 4.93818 164.762 4.8638 164.806 4.803C164.85 4.74123 164.88 4.6862 164.897 4.63778C164.915 4.58863 164.923 4.5384 164.923 4.48745C164.923 4.42293 164.91 4.36476 164.884 4.31285C164.857 4.25998 164.819 4.21793 164.768 4.18669C164.717 4.15533 164.655 4.13958 164.583 4.13958C164.496 4.13958 164.424 4.15664 164.366 4.19065C164.308 4.22381 164.265 4.27032 164.236 4.33028C164.207 4.39024 164.194 4.45921 164.194 4.53708H163.945C163.945 4.42701 163.969 4.32632 164.017 4.23499C164.065 4.14367 164.137 4.07121 164.232 4.0175C164.327 3.96282 164.444 3.93555 164.583 3.93555C164.706 3.93555 164.812 3.95741 164.899 4.00139C164.987 4.04429 165.054 4.10521 165.101 4.18392C165.148 4.26178 165.172 4.35311 165.172 4.4579C165.172 4.51521 165.162 4.57337 165.143 4.63249C165.124 4.69065 165.098 4.74881 165.064 4.80697C165.03 4.86513 164.992 4.92244 164.946 4.97892C164.903 5.03527 164.856 5.09079 164.806 5.14535L164.282 5.71336H165.262ZM166.482 3.95969H166.504V4.17046H166.482C166.35 4.17046 166.24 4.19197 166.151 4.23499C166.062 4.27705 165.993 4.33389 165.94 4.4055C165.888 4.47628 165.851 4.55595 165.827 4.64451C165.805 4.73319 165.795 4.82307 165.795 4.91439V5.20182C165.795 5.28858 165.804 5.3656 165.825 5.43277C165.845 5.49898 165.874 5.55486 165.91 5.60053C165.945 5.64619 165.986 5.68067 166.03 5.70398C166.076 5.7273 166.124 5.73883 166.173 5.73883C166.23 5.73883 166.281 5.72814 166.326 5.70663C166.37 5.68428 166.409 5.6534 166.439 5.61398C166.47 5.57373 166.494 5.52626 166.51 5.47171C166.526 5.41704 166.534 5.35707 166.534 5.2917C166.534 5.23354 166.526 5.17755 166.512 5.12384C166.497 5.06929 166.476 5.02097 166.447 4.97892C166.417 4.9359 166.38 4.90237 166.335 4.8781C166.291 4.85311 166.239 4.84061 166.178 4.84061C166.109 4.84061 166.044 4.85755 165.984 4.89156C165.926 4.92472 165.876 4.96859 165.838 5.02314C165.801 5.07686 165.779 5.1355 165.774 5.19906L165.642 5.19774C165.655 5.09753 165.678 5.01197 165.712 4.94131C165.747 4.86969 165.79 4.81141 165.841 4.76671C165.893 4.72105 165.951 4.68788 166.014 4.66733C166.078 4.64582 166.147 4.63514 166.219 4.63514C166.316 4.63514 166.4 4.65352 166.471 4.69017C166.542 4.72682 166.6 4.77609 166.645 4.83785C166.691 4.89878 166.725 4.96763 166.746 5.04465C166.768 5.12071 166.78 5.19906 166.78 5.27969C166.78 5.37186 166.767 5.45825 166.74 5.53876C166.715 5.61939 166.675 5.69005 166.624 5.75097C166.573 5.81177 166.51 5.85924 166.435 5.89324C166.359 5.92737 166.272 5.94432 166.173 5.94432C166.067 5.94432 165.975 5.9228 165.895 5.8799C165.817 5.83604 165.753 5.77776 165.7 5.7053C165.648 5.63285 165.61 5.55222 165.583 5.46366C165.557 5.37498 165.545 5.28498 165.545 5.19365V5.07686C165.545 4.93903 165.558 4.80384 165.585 4.67142C165.613 4.53888 165.661 4.41896 165.73 4.31153C165.798 4.20411 165.894 4.11855 166.016 4.05498C166.137 3.99154 166.292 3.95969 166.482 3.95969ZM168.032 4.74388V6.47603H167.782V4.46463H168.01L168.032 4.74388ZM169.011 5.17899V5.20711C169.011 5.31273 168.999 5.41078 168.974 5.50115C168.949 5.59067 168.912 5.66866 168.864 5.73487C168.817 5.80108 168.758 5.85251 168.688 5.88928C168.618 5.92593 168.538 5.94432 168.448 5.94432C168.355 5.94432 168.274 5.92905 168.203 5.89865C168.132 5.86825 168.072 5.82391 168.022 5.76575C167.974 5.70759 167.935 5.63777 167.905 5.5563C167.876 5.47483 167.857 5.38303 167.846 5.28101V5.13057C167.857 5.02314 167.877 4.92689 167.906 4.84193C167.936 4.75686 167.974 4.6844 168.022 4.62432C168.072 4.56352 168.132 4.51738 168.201 4.48613C168.271 4.45381 168.352 4.43771 168.443 4.43771C168.534 4.43771 168.616 4.45561 168.687 4.49141C168.757 4.52638 168.817 4.5765 168.865 4.64187C168.913 4.70723 168.95 4.78546 168.974 4.87678C168.999 4.96726 169.011 5.06796 169.011 5.17899ZM168.761 5.20711V5.17899C168.761 5.10642 168.754 5.0384 168.739 4.97484C168.723 4.91043 168.7 4.85395 168.668 4.80565C168.636 4.75638 168.596 4.71793 168.546 4.69017C168.497 4.66157 168.439 4.64715 168.371 4.64715C168.308 4.64715 168.253 4.65796 168.207 4.67947C168.162 4.70086 168.122 4.73006 168.09 4.76671C168.058 4.80252 168.032 4.84373 168.01 4.89024C167.991 4.9359 167.977 4.98336 167.967 5.03263V5.38039C167.984 5.443 168.009 5.50211 168.042 5.55763C168.074 5.61218 168.117 5.65652 168.17 5.69053C168.224 5.72369 168.292 5.74028 168.373 5.74028C168.441 5.74028 168.498 5.72633 168.546 5.69857C168.596 5.66998 168.636 5.63104 168.668 5.58178C168.7 5.53251 168.723 5.47615 168.739 5.41259C168.754 5.34818 168.761 5.27969 168.761 5.20711ZM169.262 5.20711V5.17622C169.262 5.07156 169.278 4.97435 169.308 4.88483C169.338 4.79447 169.383 4.71612 169.439 4.64991C169.497 4.58274 169.567 4.53083 169.648 4.49418C169.729 4.45657 169.82 4.43771 169.922 4.43771C170.024 4.43771 170.116 4.45657 170.197 4.49418C170.279 4.53083 170.349 4.58274 170.406 4.64991C170.464 4.71612 170.509 4.79447 170.54 4.88483C170.57 4.97435 170.585 5.07156 170.585 5.17622V5.20711C170.585 5.31189 170.57 5.40899 170.54 5.49851C170.509 5.58803 170.464 5.66638 170.406 5.73355C170.349 5.79976 170.28 5.85167 170.199 5.88928C170.118 5.92593 170.027 5.94432 169.925 5.94432C169.822 5.94432 169.731 5.92593 169.649 5.88928C169.568 5.85167 169.498 5.79976 169.439 5.73355C169.383 5.66638 169.338 5.58803 169.308 5.49851C169.278 5.40899 169.262 5.31189 169.262 5.20711ZM169.511 5.17622V5.20711C169.511 5.27969 169.52 5.34818 169.536 5.41259C169.553 5.47615 169.579 5.53251 169.613 5.58178C169.648 5.63104 169.691 5.66998 169.743 5.69857C169.795 5.72633 169.855 5.74028 169.925 5.74028C169.992 5.74028 170.052 5.72633 170.102 5.69857C170.155 5.66998 170.197 5.63104 170.232 5.58178C170.266 5.53251 170.291 5.47615 170.308 5.41259C170.326 5.34818 170.336 5.27969 170.336 5.20711V5.17622C170.336 5.10461 170.326 5.03708 170.308 4.97352C170.291 4.90899 170.266 4.85214 170.231 4.803C170.196 4.75289 170.154 4.71348 170.101 4.68476C170.051 4.65616 169.991 4.64187 169.922 4.64187C169.854 4.64187 169.794 4.65616 169.742 4.68476C169.69 4.71348 169.648 4.75289 169.613 4.803C169.579 4.85214 169.553 4.90899 169.536 4.97352C169.52 5.03708 169.511 5.10461 169.511 5.17622ZM171.166 4.46463V5.91752H170.917V4.46463H171.166ZM170.898 4.07926C170.898 4.03889 170.91 4.00488 170.934 3.97712C170.959 3.94936 170.996 3.93555 171.044 3.93555C171.091 3.93555 171.127 3.94936 171.153 3.97712C171.179 4.00488 171.192 4.03889 171.192 4.07926C171.192 4.11771 171.179 4.15087 171.153 4.17863C171.127 4.20543 171.091 4.21888 171.044 4.21888C170.996 4.21888 170.959 4.20543 170.934 4.17863C170.91 4.15087 170.898 4.11771 170.898 4.07926ZM171.814 4.77476V5.91752H171.565V4.46463H171.8L171.814 4.77476ZM171.755 5.13598L171.651 5.13189C171.653 5.03263 171.667 4.94083 171.696 4.85671C171.725 4.77164 171.764 4.69774 171.816 4.63514C171.869 4.57241 171.93 4.5241 172.002 4.49009C172.074 4.45513 172.155 4.43771 172.243 4.43771C172.313 4.43771 172.378 4.44756 172.435 4.46727C172.492 4.48613 172.542 4.51653 172.581 4.55859C172.623 4.60064 172.655 4.65533 172.675 4.72238C172.697 4.78871 172.708 4.86969 172.708 4.96546V5.91752H172.458V4.9627C172.458 4.88664 172.447 4.82583 172.425 4.78017C172.402 4.73355 172.37 4.70002 172.327 4.67947C172.283 4.65796 172.231 4.64715 172.168 4.64715C172.107 4.64715 172.05 4.66013 171.999 4.6862C171.949 4.71216 171.905 4.74797 171.869 4.79351C171.833 4.83917 171.805 4.89156 171.783 4.95068C171.764 5.00884 171.755 5.07061 171.755 5.13598ZM173.694 4.46463V4.65532H172.908V4.46463H173.694ZM173.174 4.11147H173.423V5.55763C173.423 5.6069 173.43 5.64402 173.445 5.66902C173.46 5.69413 173.48 5.71071 173.504 5.71876C173.528 5.72681 173.555 5.73078 173.582 5.73078C173.603 5.73078 173.624 5.72898 173.646 5.72549C173.67 5.72092 173.687 5.71745 173.699 5.71468L173.7 5.91752C173.681 5.92377 173.654 5.92953 173.622 5.93494C173.591 5.94119 173.553 5.94432 173.508 5.94432C173.448 5.94432 173.391 5.93217 173.341 5.90802C173.289 5.88387 173.248 5.84362 173.218 5.78726C173.188 5.72995 173.174 5.65291 173.174 5.5563V4.11147ZM174.831 5.53203C174.831 5.49623 174.822 5.46318 174.807 5.43277C174.791 5.40141 174.76 5.37318 174.712 5.34818C174.664 5.32223 174.592 5.29976 174.497 5.28101C174.416 5.26395 174.343 5.24388 174.278 5.22057C174.213 5.19726 174.158 5.16914 174.112 5.13598C174.068 5.10281 174.033 5.06387 174.009 5.01917C173.985 4.97435 173.973 4.92208 173.973 4.862C173.973 4.8048 173.985 4.75061 174.01 4.69954C174.037 4.64859 174.073 4.60329 174.12 4.56399C174.166 4.52458 174.224 4.49371 174.29 4.47135C174.356 4.44888 174.43 4.43771 174.511 4.43771C174.628 4.43771 174.728 4.45838 174.809 4.49947C174.892 4.54069 174.955 4.59572 174.999 4.66469C175.042 4.73271 175.064 4.80828 175.064 4.89156H174.816C174.816 4.8513 174.804 4.81237 174.78 4.77476C174.756 4.73631 174.721 4.70447 174.676 4.67947C174.631 4.65436 174.576 4.64187 174.511 4.64187C174.443 4.64187 174.386 4.65255 174.343 4.67406C174.301 4.69461 174.271 4.72105 174.25 4.75325C174.232 4.78546 174.223 4.81958 174.223 4.85539C174.223 4.88219 174.228 4.90634 174.236 4.92785C174.246 4.9484 174.262 4.96762 174.287 4.98553C174.312 5.00259 174.345 5.01869 174.389 5.03395C174.433 5.04909 174.488 5.06435 174.557 5.07962C174.676 5.10641 174.774 5.13861 174.851 5.17622C174.928 5.21384 174.985 5.25998 175.023 5.31454C175.06 5.36921 175.08 5.43542 175.08 5.51329C175.08 5.57685 175.066 5.63501 175.039 5.68789C175.013 5.74064 174.975 5.7863 174.925 5.82487C174.875 5.86236 174.816 5.89192 174.748 5.91343C174.679 5.93398 174.603 5.94432 174.518 5.94432C174.39 5.94432 174.282 5.92149 174.193 5.87582C174.104 5.83016 174.038 5.77115 173.992 5.69857C173.946 5.62612 173.924 5.54958 173.924 5.46895H174.172C174.176 5.53696 174.196 5.59115 174.232 5.6314C174.267 5.67082 174.312 5.69906 174.363 5.716C174.415 5.7321 174.467 5.74028 174.518 5.74028C174.586 5.74028 174.643 5.73127 174.689 5.71336C174.735 5.69546 174.771 5.67082 174.795 5.63946C174.819 5.60822 174.831 5.57241 174.831 5.53203Z" fill="black"/>
<path d="M160.83 5.07703L161.005 5.33069C161.048 5.39462 161.03 5.48006 160.965 5.5232C160.86 5.55228 160.711 5.63471 160.635 5.52235C160.442 5.24033 160.323 5.16943 160.18 5.06417L160.534 6.46539L160.18 7.44725H159.379C159.379 7.11247 159.616 7.20452 159.642 7.19311L159.644 7.19106C159.725 6.94821 160.18 7.02788 159.934 6.46539C159.952 6.30606 159.644 6.32913 159.552 6.09289C159.459 5.85665 158.996 6.28251 158.806 6.32913C158.437 6.5387 158.069 6.57126 157.725 6.23264C157.534 6.37708 157.62 6.63855 157.636 7.02788C157.646 7.2658 157.569 7.44725 157.569 7.44725H156.788C156.788 7.09781 157.07 7.19106 157.07 7.19106L157.228 6.81267L157.07 5.87527L156.631 4.78011L156.257 5.24189C156.232 5.26701 156.202 5.28732 156.167 5.30126C156.133 5.31519 156.096 5.32252 156.058 5.32288H155.784C155.677 5.32288 155.579 5.26352 155.531 5.17028L155.405 4.92346C155.381 4.8772 155.371 4.82649 155.376 4.7759C155.381 4.72531 155.4 4.67665 155.432 4.63447L156.09 3.77771C156.106 3.75788 156.127 3.74574 156.146 3.73108C156.112 3.71209 156.077 3.69479 156.047 3.66643C155.902 3.52488 155.884 2.88657 155.994 2.72591C155.999 2.71762 156.006 2.71041 156.015 2.70525C156.024 2.69996 156.035 2.69659 156.046 2.69563C156.055 2.69467 156.066 2.69588 156.077 2.69936C156.086 2.70285 156.096 2.70837 156.103 2.71558C156.488 3.09013 156.474 3.73108 156.919 3.79404L157.636 4.49472H159.718C160.166 4.49472 160.582 4.7121 160.83 5.07703Z" fill="black"/>
<path d="M220 9.77734H0V23.3745H220V9.77734Z" fill="black"/>
<path d="M50.4166 12.0684H21.3889C20.967 12.0684 20.625 12.4104 20.625 12.8323V20.4711C20.625 20.893 20.967 21.235 21.3889 21.235H50.4166C50.8385 21.235 51.1805 20.893 51.1805 20.4711V12.8323C51.1805 12.4104 50.8385 12.0684 50.4166 12.0684Z" fill="white"/>
<path d="M50.4168 12.1445H21.3892C21.0095 12.1445 20.7017 12.4523 20.7017 12.832V20.4709C20.7017 20.8506 21.0095 21.1584 21.3892 21.1584H50.4168C50.7965 21.1584 51.1043 20.8506 51.1043 20.4709V12.832C51.1043 12.4523 50.7965 12.1445 50.4168 12.1445Z" stroke="black" stroke-width="0.152777"/>
<path d="M30.6035 15.622H30.8606C30.8474 15.7455 30.8126 15.856 30.7549 15.9536C30.6984 16.0512 30.6167 16.1287 30.5122 16.186C30.4076 16.2424 30.2766 16.2706 30.1204 16.2706C30.005 16.2706 29.9017 16.2491 29.8068 16.2061C29.7143 16.1632 29.6337 16.1023 29.5664 16.0234C29.4992 15.9438 29.4475 15.8485 29.4115 15.7374C29.3754 15.6256 29.3574 15.5012 29.3574 15.3642V15.1694C29.3574 15.0326 29.3754 14.9086 29.4115 14.7975C29.4475 14.6857 29.5004 14.5899 29.5677 14.5102C29.6374 14.4306 29.7203 14.3691 29.8164 14.3263C29.9137 14.2832 30.0219 14.2617 30.1433 14.2617C30.2911 14.2617 30.4148 14.2895 30.517 14.345C30.6191 14.4005 30.6984 14.4775 30.7549 14.5759C30.8126 14.6735 30.8474 14.7868 30.8606 14.9156H30.6035C30.5903 14.8244 30.5675 14.7461 30.5338 14.6807C30.5002 14.6145 30.4509 14.5634 30.3884 14.5276C30.3259 14.4918 30.2442 14.4739 30.1433 14.4739C30.0556 14.4739 29.9798 14.4905 29.9137 14.5236C29.8476 14.5567 29.7924 14.6037 29.7479 14.6646C29.7046 14.7254 29.6711 14.7985 29.6482 14.8834C29.6266 14.9685 29.6146 15.063 29.6146 15.1668V15.3642C29.6146 15.46 29.6253 15.55 29.6446 15.6341C29.665 15.7182 29.6963 15.7921 29.7371 15.8557C29.778 15.9193 29.8308 15.9694 29.8945 16.006C29.9582 16.0418 30.0327 16.0597 30.1204 16.0597C30.2297 16.0597 30.3175 16.0423 30.3836 16.0073C30.4485 15.9725 30.4978 15.9224 30.5314 15.857C30.5651 15.7916 30.5891 15.7133 30.6035 15.622ZM32.0659 15.908V14.7908H32.3158V16.2437H32.0779L32.0659 15.908ZM32.1127 15.6019L32.2161 15.5991C32.2161 15.6959 32.2053 15.7854 32.1848 15.8677C32.1656 15.9492 32.1331 16.0199 32.0887 16.0799C32.0442 16.1399 31.9854 16.1869 31.9121 16.2209C31.84 16.254 31.7523 16.2706 31.6477 16.2706C31.5768 16.2706 31.5119 16.2603 31.453 16.2397C31.3953 16.2191 31.3449 16.1873 31.3028 16.1443C31.2608 16.1014 31.2283 16.0454 31.2055 15.9765C31.1827 15.9076 31.1718 15.8248 31.1718 15.7281V14.7908H31.4194V15.7307C31.4194 15.7961 31.4266 15.8503 31.441 15.8933C31.4566 15.9354 31.4771 15.9689 31.5023 15.994C31.5275 16.0181 31.5564 16.0351 31.5876 16.0449C31.62 16.0548 31.6525 16.0597 31.6873 16.0597C31.7931 16.0597 31.876 16.0397 31.9385 15.9993C31.9998 15.9582 32.0443 15.903 32.0707 15.8342C32.0983 15.7644 32.1127 15.6869 32.1127 15.6019ZM33.5403 15.8583C33.5403 15.8225 33.5319 15.7894 33.5163 15.759C33.5007 15.7276 33.4694 15.6995 33.4201 15.6744C33.3733 15.6484 33.3012 15.626 33.2063 15.6072C33.1258 15.5902 33.0524 15.5701 32.9863 15.5467C32.9226 15.5235 32.8674 15.4953 32.8217 15.4622C32.7773 15.4291 32.7424 15.3902 32.7184 15.3454C32.6944 15.3007 32.6823 15.2483 32.6823 15.1883C32.6823 15.131 32.6943 15.0768 32.7196 15.0258C32.746 14.9748 32.7821 14.9296 32.8289 14.8902C32.8758 14.8508 32.9322 14.8199 32.9983 14.7975C33.0656 14.7752 33.1389 14.764 33.2206 14.764C33.3372 14.764 33.4357 14.7845 33.5186 14.8258C33.6003 14.8669 33.6641 14.922 33.7073 14.9909C33.7518 15.0589 33.7734 15.1346 33.7734 15.2179H33.5259C33.5259 15.1775 33.5127 15.1386 33.4886 15.1011C33.4658 15.0625 33.431 15.0308 33.3853 15.0057C33.3408 14.9807 33.2855 14.968 33.2206 14.968C33.1509 14.968 33.0956 14.9789 33.0524 15.0002C33.0103 15.0209 32.9791 15.0473 32.9599 15.0796C32.9407 15.1118 32.9323 15.1458 32.9323 15.1816C32.9323 15.2084 32.9358 15.2326 32.9455 15.254C32.9551 15.2747 32.9719 15.2939 32.9959 15.3118C33.0199 15.3288 33.0548 15.345 33.0981 15.3601C33.1425 15.3754 33.1978 15.3907 33.2663 15.4058C33.3853 15.4327 33.4826 15.4649 33.5607 15.5025C33.6376 15.5401 33.6941 15.5862 33.7326 15.6408C33.7698 15.6954 33.789 15.7616 33.789 15.8396C33.789 15.903 33.7746 15.9613 33.7482 16.0141C33.7217 16.0669 33.6845 16.1126 33.634 16.1511C33.5847 16.1887 33.5259 16.2182 33.4574 16.2397C33.3889 16.2603 33.312 16.2706 33.2266 16.2706C33.0993 16.2706 32.9911 16.2478 32.9022 16.2021C32.8133 16.1565 32.746 16.0973 32.7003 16.0249C32.6547 15.9523 32.6318 15.8758 32.6318 15.7952H32.8818C32.8854 15.8633 32.9058 15.9174 32.9407 15.9577C32.9767 15.9971 33.0212 16.0252 33.0729 16.0423C33.1245 16.0584 33.1762 16.0665 33.2266 16.0665C33.2951 16.0665 33.3517 16.0576 33.3973 16.0397C33.4442 16.0217 33.4802 15.9971 33.5042 15.9658C33.5283 15.9344 33.5403 15.8986 33.5403 15.8583ZM34.7227 14.7908V14.9815H33.938V14.7908H34.7227ZM34.2036 14.4376H34.4523V15.8838C34.4523 15.9331 34.4595 15.9702 34.4751 15.9953C34.4896 16.0203 34.51 16.0369 34.534 16.0449C34.5581 16.053 34.5833 16.0571 34.6122 16.0571C34.6326 16.0571 34.6542 16.0553 34.6758 16.0517C34.6998 16.0472 34.7167 16.0436 34.7287 16.041L34.7299 16.2437C34.7095 16.2499 34.6843 16.2558 34.6518 16.2611C34.6206 16.2674 34.5821 16.2706 34.5376 16.2706C34.4764 16.2706 34.4211 16.2585 34.3694 16.2343C34.3189 16.2102 34.2781 16.1698 34.2481 16.1134C34.218 16.0561 34.2036 15.9792 34.2036 15.8825V14.4376ZM34.9222 15.5334V15.5025C34.9222 15.3977 34.9366 15.3007 34.9679 15.2111C34.9979 15.1206 35.0411 15.0424 35.0988 14.9761C35.1565 14.909 35.2262 14.857 35.3067 14.8204C35.3884 14.7827 35.4797 14.764 35.5806 14.764C35.6828 14.764 35.7753 14.7827 35.8558 14.8204C35.9387 14.857 36.0085 14.909 36.0662 14.9761C36.1238 15.0424 36.1683 15.1206 36.1983 15.2111C36.2296 15.3007 36.2439 15.3977 36.2439 15.5025V15.5334C36.2439 15.6381 36.2296 15.7353 36.1983 15.8248C36.1683 15.9143 36.1238 15.9926 36.0662 16.0597C36.0085 16.1259 35.9387 16.178 35.8582 16.2155C35.7765 16.2522 35.6852 16.2706 35.5843 16.2706C35.4822 16.2706 35.3896 16.2522 35.3079 16.2155C35.2274 16.178 35.1577 16.1259 35.0988 16.0597C35.0411 15.9926 34.9979 15.9143 34.9679 15.8248C34.9366 15.7353 34.9222 15.6381 34.9222 15.5334ZM35.1697 15.5025V15.5334C35.1697 15.6059 35.1781 15.6744 35.1961 15.7388C35.2129 15.8023 35.2382 15.8588 35.2719 15.908C35.3067 15.9572 35.35 15.9962 35.4029 16.0249C35.4545 16.0526 35.5146 16.0665 35.5843 16.0665C35.6516 16.0665 35.7116 16.0526 35.7621 16.0249C35.8138 15.9962 35.857 15.9572 35.8906 15.908C35.9255 15.8588 35.9508 15.8023 35.9676 15.7388C35.9856 15.6744 35.9952 15.6059 35.9952 15.5334V15.5025C35.9952 15.4309 35.9856 15.3633 35.9676 15.2997C35.9508 15.2353 35.9243 15.1784 35.8895 15.1292C35.8558 15.0791 35.8126 15.0397 35.7609 15.0111C35.7104 14.9823 35.6503 14.968 35.5806 14.968C35.5133 14.968 35.4533 14.9823 35.4016 15.0111C35.3499 15.0397 35.3067 15.0791 35.2719 15.1292C35.2382 15.1784 35.2129 15.2353 35.1961 15.2997C35.1781 15.3633 35.1697 15.4309 35.1697 15.5025ZM36.8027 15.0796V16.2437H36.5528V14.7908H36.7895L36.8027 15.0796ZM36.7523 15.4622L36.6369 15.4582C36.6369 15.3588 36.6501 15.267 36.6753 15.1829C36.7006 15.0978 36.7378 15.024 36.7871 14.9613C36.8364 14.8987 36.8977 14.8504 36.971 14.8164C37.0443 14.7814 37.1296 14.764 37.2257 14.764C37.2942 14.764 37.3566 14.7739 37.4143 14.7936C37.4708 14.8123 37.5213 14.8424 37.5634 14.8834C37.6054 14.9247 37.6379 14.9774 37.6607 15.0419C37.6847 15.1063 37.6955 15.1842 37.6955 15.2755V16.2437H37.448V15.2877C37.448 15.2116 37.4347 15.1507 37.4083 15.105C37.3831 15.0594 37.3482 15.0262 37.3014 15.0057C37.2545 14.9841 37.2005 14.9734 37.1368 14.9734C37.0635 14.9734 37.0022 14.9864 36.9529 15.0124C36.9037 15.0383 36.8652 15.0741 36.8351 15.1198C36.8051 15.1655 36.7847 15.2179 36.7703 15.2769C36.7583 15.3351 36.7523 15.3969 36.7523 15.4622ZM37.6931 15.3253L37.5273 15.3762C37.5273 15.2966 37.5405 15.22 37.5658 15.1466C37.5922 15.0733 37.6282 15.0079 37.6775 14.9506C37.7267 14.8933 37.7868 14.8481 37.8589 14.815C37.9298 14.7809 38.0116 14.764 38.1041 14.764C38.1822 14.764 38.2507 14.7742 38.3108 14.7949C38.3721 14.8154 38.4225 14.8473 38.4646 14.8902C38.5066 14.9322 38.5379 14.9864 38.5595 15.0526C38.5811 15.119 38.592 15.1977 38.592 15.289V16.2437H38.342V15.2864C38.342 15.2049 38.3288 15.1417 38.3024 15.097C38.2783 15.0513 38.2423 15.0196 38.1954 15.0017C38.1498 14.9828 38.0957 14.9734 38.032 14.9734C37.9767 14.9734 37.9286 14.9828 37.8866 15.0017C37.8445 15.0204 37.8097 15.0464 37.7808 15.0796C37.752 15.1118 37.7304 15.1489 37.7147 15.1909C37.7003 15.233 37.6931 15.2778 37.6931 15.3253ZM39.2372 14.7908V16.2437H38.9873V14.7908H39.2372ZM38.9693 14.4054C38.9693 14.3652 38.9813 14.3312 39.0053 14.3034C39.0306 14.2757 39.0666 14.2617 39.1147 14.2617C39.1628 14.2617 39.1988 14.2757 39.224 14.3034C39.2505 14.3312 39.2625 14.3652 39.2625 14.4054C39.2625 14.4439 39.2505 14.4771 39.224 14.5048C39.1988 14.5317 39.1628 14.5451 39.1147 14.5451C39.0666 14.5451 39.0306 14.5317 39.0053 14.5048C38.9813 14.4771 38.9693 14.4439 38.9693 14.4054ZM40.7188 16.0397V16.2437H39.6614V16.0397H40.7188ZM40.6792 14.9667L39.7179 16.2437H39.5665V16.061L40.5206 14.7908H40.6792V14.9667ZM40.5699 14.7908V14.9963H39.5773V14.7908H40.5699ZM41.5816 16.2706C41.4807 16.2706 41.3894 16.2535 41.3064 16.2195C41.2247 16.1846 41.155 16.1358 41.0962 16.0732C41.0373 16.0105 40.9928 15.9362 40.9616 15.8503C40.9303 15.7644 40.9147 15.6704 40.9147 15.5683V15.5119C40.9147 15.3938 40.9315 15.2885 40.9664 15.1964C41.0012 15.1032 41.0493 15.0245 41.1094 14.96C41.1694 14.8956 41.2367 14.8468 41.3136 14.8136C41.3893 14.7806 41.4687 14.764 41.5492 14.764C41.6537 14.764 41.7427 14.7819 41.8184 14.8177C41.8941 14.8535 41.9565 14.9036 42.0046 14.968C42.0526 15.0316 42.0887 15.1068 42.1128 15.1937C42.1356 15.2796 42.1476 15.3736 42.1476 15.4756V15.5871H41.0625V15.3843H41.8988V15.3655C41.8952 15.3011 41.882 15.2384 41.858 15.1775C41.8363 15.1167 41.8003 15.0666 41.751 15.0272C41.7018 14.9877 41.6345 14.968 41.5492 14.968C41.4927 14.968 41.441 14.9802 41.3942 15.0043C41.3461 15.0276 41.3052 15.0625 41.2716 15.1091C41.238 15.1556 41.2115 15.2124 41.1923 15.2796C41.1743 15.3467 41.1647 15.4242 41.1647 15.5119V15.5683C41.1647 15.6372 41.1743 15.7021 41.1923 15.763C41.2127 15.823 41.2404 15.8758 41.2776 15.9214C41.3149 15.9671 41.3593 16.0029 41.4122 16.0288C41.4663 16.0548 41.5275 16.0678 41.5948 16.0678C41.6825 16.0678 41.7571 16.0499 41.8184 16.0141C41.8796 15.9782 41.9325 15.9304 41.9782 15.8705L42.1284 15.9899C42.0971 16.0374 42.0575 16.0826 42.0094 16.1256C41.9602 16.1685 41.9013 16.2034 41.8304 16.2302C41.7607 16.2571 41.6777 16.2706 41.5816 16.2706Z" fill="black"/>
<path d="M166.681 11.7637H137.653C137.231 11.7637 136.889 12.1057 136.889 12.5276V20.1664C136.889 20.5883 137.231 20.9303 137.653 20.9303H166.681C167.103 20.9303 167.445 20.5883 167.445 20.1664V12.5276C167.445 12.1057 167.103 11.7637 166.681 11.7637Z" fill="black"/>
<path d="M150.011 15.3376V17.2928H149.756V15.3376H150.011ZM150.639 15.3376V15.5499H149.129V15.3376H150.639ZM151.204 17.1424L151.608 15.8399H151.874L151.291 17.517C151.278 17.5529 151.259 17.5913 151.237 17.6325C151.216 17.6746 151.187 17.7144 151.154 17.752C151.12 17.7896 151.079 17.82 151.03 17.8433C150.983 17.8674 150.927 17.8796 150.859 17.8796C150.84 17.8796 150.815 17.8768 150.785 17.8715C150.755 17.8661 150.733 17.8617 150.72 17.8581L150.719 17.6567C150.726 17.6575 150.737 17.6585 150.752 17.6593C150.768 17.6611 150.78 17.6621 150.786 17.6621C150.843 17.6621 150.891 17.6544 150.93 17.6393C150.969 17.6248 151.002 17.6002 151.029 17.5653C151.056 17.5313 151.08 17.4844 151.1 17.4244L151.204 17.1424ZM150.907 15.8399L151.285 16.9678L151.348 17.2296L151.171 17.3209L150.636 15.8399H150.907ZM152.346 16.1192V17.8513H152.097V15.8399H152.325L152.346 16.1192ZM153.325 16.5543V16.5824C153.325 16.688 153.313 16.7861 153.288 16.8765C153.263 16.966 153.225 17.044 153.177 17.1102C153.13 17.1764 153.072 17.2278 153.002 17.2646C152.932 17.3012 152.852 17.3196 152.762 17.3196C152.669 17.3196 152.587 17.3044 152.516 17.274C152.447 17.2436 152.387 17.1992 152.337 17.1411C152.288 17.0829 152.248 17.0131 152.218 16.9316C152.19 16.8501 152.17 16.7583 152.16 16.6563V16.5059C152.17 16.3984 152.191 16.3022 152.22 16.2172C152.25 16.1322 152.288 16.0597 152.337 15.9996C152.387 15.9388 152.446 15.8927 152.515 15.8613C152.585 15.8291 152.665 15.813 152.757 15.813C152.848 15.813 152.93 15.8309 153.001 15.8667C153.072 15.9017 153.13 15.9518 153.179 16.0172C153.228 16.0825 153.264 16.1608 153.288 16.2521C153.313 16.3426 153.325 16.4433 153.325 16.5543ZM153.075 16.5824V16.5543C153.075 16.4817 153.068 16.4137 153.052 16.3501C153.038 16.2857 153.014 16.2293 152.981 16.1809C152.95 16.1317 152.909 16.0932 152.86 16.0655C152.811 16.0369 152.753 16.0225 152.685 16.0225C152.622 16.0225 152.567 16.0333 152.521 16.0548C152.476 16.0762 152.436 16.1054 152.405 16.142C152.372 16.1778 152.346 16.219 152.325 16.2655C152.305 16.3112 152.291 16.3587 152.281 16.4079V16.7557C152.299 16.8183 152.323 16.8774 152.355 16.9329C152.388 16.9875 152.431 17.0318 152.485 17.0658C152.538 17.099 152.606 17.1155 152.687 17.1155C152.754 17.1155 152.812 17.1016 152.86 17.0739C152.909 17.0453 152.95 17.0064 152.981 16.9571C153.014 16.9078 153.038 16.8515 153.052 16.7879C153.068 16.7235 153.075 16.655 153.075 16.5824ZM154.246 17.3196C154.143 17.3196 154.052 17.3026 153.969 17.2685C153.889 17.2337 153.818 17.1849 153.759 17.1222C153.701 17.0596 153.656 16.9853 153.624 16.8993C153.593 16.8134 153.577 16.7194 153.577 16.6174V16.5609C153.577 16.4428 153.595 16.3376 153.63 16.2454C153.665 16.1524 153.712 16.0735 153.772 16.0091C153.832 15.9446 153.901 15.8958 153.976 15.8628C154.052 15.8296 154.131 15.813 154.213 15.813C154.316 15.813 154.407 15.8309 154.481 15.8667C154.558 15.9025 154.619 15.9526 154.669 16.0172C154.717 16.0807 154.753 16.1558 154.775 16.2427C154.798 16.3286 154.81 16.4226 154.81 16.5247V16.6361H153.725V16.4334H154.562V16.4146C154.558 16.3501 154.545 16.2875 154.522 16.2266C154.499 16.1657 154.463 16.1156 154.414 16.0762C154.365 16.0369 154.297 16.0172 154.213 16.0172C154.157 16.0172 154.105 16.0292 154.057 16.0533C154.01 16.0766 153.969 16.1116 153.934 16.1581C153.901 16.2046 153.874 16.2615 153.855 16.3286C153.837 16.3958 153.827 16.4732 153.827 16.5609V16.6174C153.827 16.6862 153.837 16.7511 153.855 16.812C153.875 16.872 153.903 16.9249 153.94 16.9705C153.978 17.0162 154.023 17.052 154.076 17.078C154.129 17.1039 154.19 17.1169 154.259 17.1169C154.347 17.1169 154.421 17.099 154.481 17.0632C154.542 17.0274 154.595 16.9794 154.641 16.9195L154.791 17.039C154.76 17.0864 154.72 17.1317 154.672 17.1746C154.624 17.2176 154.564 17.2524 154.493 17.2794C154.423 17.3062 154.341 17.3196 154.246 17.3196Z" fill="white"/>
<path d="M198 11.7617H168.972C168.55 11.7617 168.208 12.1037 168.208 12.5256V20.1645C168.208 20.5863 168.55 20.9283 168.972 20.9283H198C198.421 20.9283 198.764 20.5863 198.764 20.1645V12.5256C198.764 12.1037 198.421 11.7617 198 11.7617Z" fill="black"/>
<path d="M178.737 17.2899H178.329L178.331 17.0791H178.737C178.877 17.0791 178.993 17.05 179.086 16.9918C179.179 16.9327 179.249 16.8504 179.296 16.7448C179.343 16.6382 179.367 16.5138 179.367 16.3714V16.252C179.367 16.14 179.354 16.0406 179.326 15.9538C179.3 15.8661 179.26 15.7922 179.208 15.7323C179.157 15.6713 179.093 15.6253 179.017 15.594C178.944 15.5626 178.857 15.547 178.761 15.547H178.32V15.3348H178.761C178.89 15.3348 179.006 15.3563 179.112 15.3993C179.218 15.4413 179.308 15.5026 179.385 15.5833C179.462 15.6629 179.521 15.7595 179.562 15.8732C179.602 15.986 179.623 16.1132 179.623 16.2546V16.3714C179.623 16.5128 179.602 16.6405 179.562 16.7541C179.521 16.867 179.461 16.9631 179.382 17.0428C179.306 17.1224 179.213 17.1838 179.104 17.2267C178.996 17.2688 178.873 17.2899 178.737 17.2899ZM178.467 15.3348V17.2899H178.208V15.3348H178.467ZM180.245 15.837V17.2899H179.995V15.837H180.245ZM179.976 15.4517C179.976 15.4113 179.988 15.3773 180.012 15.3495C180.037 15.3218 180.075 15.308 180.123 15.308C180.171 15.308 180.207 15.3218 180.232 15.3495C180.257 15.3773 180.271 15.4113 180.271 15.4517C180.271 15.4901 180.257 15.5233 180.232 15.5511C180.207 15.5779 180.171 15.5913 180.123 15.5913C180.075 15.5913 180.037 15.5779 180.012 15.5511C179.988 15.5233 179.976 15.4901 179.976 15.4517ZM181.014 17.2899H180.766V15.684C180.766 15.5792 180.785 15.491 180.822 15.4194C180.86 15.3469 180.916 15.2923 180.988 15.2556C181.059 15.218 181.144 15.1992 181.243 15.1992C181.271 15.1992 181.3 15.201 181.329 15.2045C181.358 15.2081 181.387 15.2135 181.414 15.2207L181.401 15.4234C181.382 15.419 181.36 15.4159 181.336 15.4141C181.314 15.4123 181.291 15.4113 181.267 15.4113C181.214 15.4113 181.168 15.4221 181.13 15.4436C181.092 15.4642 181.064 15.4946 181.044 15.5348C181.024 15.5752 181.014 15.6248 181.014 15.684V17.2899ZM181.336 15.837V16.0276H180.536V15.837H181.336ZM181.8 17.2899H181.551V15.7108C181.551 15.6007 181.573 15.5076 181.615 15.4315C181.657 15.3554 181.719 15.2976 181.799 15.2582C181.878 15.2189 181.973 15.1992 182.081 15.1992C182.147 15.1992 182.211 15.2073 182.272 15.2234C182.335 15.2386 182.397 15.2579 182.464 15.281L182.42 15.4906C182.381 15.4745 182.333 15.4593 182.278 15.445C182.223 15.4297 182.164 15.4221 182.101 15.4221C181.994 15.4221 181.917 15.4463 181.87 15.4946C181.823 15.542 181.8 15.6141 181.8 15.7108V17.2899ZM182.097 15.837V16.0276H181.322V15.837H182.097ZM182.586 15.837V17.2899H182.337V15.837H182.586ZM183.573 17.1126C183.631 17.1126 183.686 17.1006 183.736 17.0764C183.787 17.0523 183.827 17.0191 183.86 16.977C183.892 16.934 183.91 16.8852 183.915 16.8307H184.151C184.147 16.9166 184.118 16.9967 184.064 17.071C184.011 17.1444 183.942 17.2039 183.856 17.2496C183.77 17.2944 183.676 17.3167 183.573 17.3167C183.463 17.3167 183.368 17.2975 183.287 17.2591C183.206 17.2205 183.139 17.1677 183.085 17.1006C183.032 17.0334 182.992 16.9565 182.966 16.8696C182.939 16.7819 182.926 16.6892 182.926 16.5917V16.5352C182.926 16.4376 182.939 16.3455 182.966 16.2586C182.992 16.1709 183.032 16.0935 183.085 16.0263C183.139 15.9593 183.206 15.9064 183.287 15.8679C183.368 15.8294 183.463 15.8101 183.573 15.8101C183.686 15.8101 183.785 15.8334 183.871 15.8799C183.956 15.9256 184.022 15.9883 184.07 16.068C184.119 16.1467 184.147 16.2362 184.151 16.3366H183.915C183.91 16.2765 183.893 16.2224 183.863 16.174C183.835 16.1257 183.796 16.0872 183.746 16.0585C183.696 16.0291 183.639 16.0143 183.573 16.0143C183.497 16.0143 183.432 16.0294 183.38 16.0599C183.33 16.0895 183.289 16.1298 183.258 16.1807C183.229 16.2309 183.207 16.2868 183.194 16.3486C183.181 16.4095 183.175 16.4717 183.175 16.5352V16.5917C183.175 16.6552 183.181 16.7178 183.194 16.7796C183.206 16.8414 183.228 16.8974 183.257 16.9475C183.288 16.9976 183.328 17.0378 183.379 17.0684C183.431 17.0979 183.496 17.1126 183.573 17.1126ZM185.32 16.9542V15.837H185.569V17.2899H185.332L185.32 16.9542ZM185.367 16.648L185.47 16.6454C185.47 16.742 185.459 16.8315 185.439 16.914C185.42 16.9954 185.387 17.0661 185.343 17.126C185.297 17.186 185.239 17.233 185.166 17.2671C185.094 17.3002 185.006 17.3167 184.902 17.3167C184.831 17.3167 184.766 17.3064 184.707 17.2858C184.649 17.2653 184.599 17.2335 184.557 17.1906C184.515 17.1475 184.482 17.0916 184.458 17.0227C184.437 16.9537 184.425 16.8709 184.425 16.7743V15.837H184.673V16.777C184.673 16.8423 184.681 16.8964 184.695 16.9394C184.711 16.9815 184.73 17.015 184.755 17.0401C184.781 17.0643 184.81 17.0813 184.842 17.0912C184.874 17.101 184.906 17.106 184.941 17.106C185.046 17.106 185.13 17.0858 185.191 17.0455C185.254 17.0043 185.298 16.9493 185.325 16.8803C185.352 16.8105 185.367 16.7331 185.367 16.648ZM186.217 15.2273V17.2899H185.967V15.2273H186.217ZM187.224 15.837V16.0276H186.44V15.837H187.224ZM186.705 15.4839H186.954V16.93C186.954 16.9792 186.961 17.0164 186.977 17.0414C186.991 17.0666 187.012 17.0831 187.036 17.0912C187.06 17.0992 187.085 17.1032 187.114 17.1032C187.134 17.1032 187.156 17.1014 187.177 17.0979C187.202 17.0934 187.218 17.0899 187.23 17.0871L187.232 17.2899C187.212 17.2962 187.186 17.302 187.153 17.3074C187.122 17.3136 187.084 17.3167 187.039 17.3167C186.978 17.3167 186.923 17.3046 186.871 17.2804C186.821 17.2563 186.78 17.216 186.75 17.1597C186.72 17.1024 186.705 17.0253 186.705 16.9287V15.4839ZM187.925 17.1395L188.329 15.837H188.594L188.011 17.5142C187.998 17.55 187.98 17.5884 187.957 17.6296C187.937 17.6717 187.908 17.7115 187.874 17.7491C187.841 17.7867 187.8 17.8171 187.751 17.8404C187.704 17.8646 187.647 17.8767 187.58 17.8767C187.561 17.8767 187.536 17.8739 187.506 17.8686C187.475 17.8632 187.454 17.8588 187.441 17.8552L187.439 17.6538C187.447 17.6546 187.458 17.6556 187.473 17.6564C187.489 17.6582 187.501 17.6592 187.507 17.6592C187.563 17.6592 187.611 17.6515 187.651 17.6364C187.689 17.6219 187.723 17.5973 187.749 17.5625C187.777 17.5285 187.801 17.4815 187.82 17.4215L187.925 17.1395ZM187.628 15.837L188.005 16.9649L188.069 17.2267L187.891 17.3181L187.357 15.837H187.628Z" fill="white"/>
<path d="M165.458 12.832H157.819V20.4709H165.458V12.832Z" fill="black"/>
<path d="M159.807 15.7363L161.678 17.6079L163.548 15.7363" stroke="white" stroke-width="0.305555"/>
<path d="M200.291 12.832H192.652V20.4709H200.291V12.832Z" fill="black"/>
<path d="M194.639 15.7363L196.51 17.6079L198.382 15.7363" stroke="white" stroke-width="0.305555"/>
<path d="M128.79 53.4707C129.765 53.4707 130.715 53.7747 131.508 54.3395C132.302 54.9043 132.901 55.7021 133.221 56.6226L133.278 56.8004L133.312 56.9098H135.091C135.626 56.9098 136.14 57.1141 136.531 57.4806C136.92 57.8471 137.155 58.3493 137.187 58.8829L137.191 59.0102V59.7745C137.191 60.1097 137.065 60.433 136.837 60.6793C136.61 60.9256 136.299 61.0782 135.965 61.1059L135.856 61.1095H134.613L134.797 61.5553C134.924 61.8641 134.932 62.2102 134.816 62.5238C134.701 62.8386 134.473 63.097 134.176 63.2508L134.071 63.3001C133.951 63.3505 133.823 63.3818 133.693 63.395L133.562 63.401H132.197C131.964 63.401 131.734 63.3397 131.532 63.2232C131.329 63.1078 131.161 62.9408 131.043 62.7389L130.989 62.6344L130.577 61.7608L130.618 61.756C129.548 61.8978 128.466 61.9146 127.394 61.8064L127.014 61.762L126.606 62.6308C126.497 62.8603 126.327 63.0537 126.112 63.1895C125.898 63.3253 125.65 63.3974 125.397 63.3986H124.018C123.798 63.3986 123.582 63.3445 123.389 63.2412C123.195 63.1378 123.029 62.9876 122.908 62.8062C122.785 62.6235 122.71 62.4133 122.688 62.1946C122.667 61.9771 122.699 61.756 122.782 61.5529L123.112 60.7514C122.747 60.5303 122.444 60.2191 122.234 59.8478C122.024 59.4753 121.913 59.0547 121.913 58.6281C121.914 58.4887 121.964 58.3553 122.055 58.252C122.146 58.1475 122.271 58.079 122.408 58.0609L122.486 58.0549H123.922L124.302 56.8004C124.594 55.8367 125.188 54.9932 125.996 54.3936C126.804 53.7939 127.783 53.4707 128.79 53.4707ZM133.967 60.8752C133.378 61.1119 132.776 61.3066 132.167 61.4592L131.747 61.5577L132.025 62.1465C132.043 62.1861 132.074 62.2174 132.114 62.2366L132.155 62.251L132.197 62.2558H133.562C133.589 62.2558 133.616 62.2498 133.64 62.239C133.665 62.2282 133.687 62.2114 133.705 62.1921C133.723 62.1717 133.736 62.1477 133.744 62.1225C133.753 62.096 133.755 62.0684 133.752 62.0419L133.738 61.9927L133.373 61.1095H133.341L133.654 60.9965L133.967 60.8752ZM123.615 60.8752L123.913 60.9905L124.209 61.0987L123.841 61.9891C123.828 62.0179 123.824 62.0504 123.827 62.0816C123.831 62.1128 123.842 62.1429 123.859 62.1681C123.877 62.1946 123.901 62.2162 123.928 62.2306C123.956 62.245 123.987 62.2534 124.018 62.2534H125.397L125.44 62.2474C125.468 62.2414 125.494 62.2282 125.517 62.2102C125.54 62.1922 125.558 62.1693 125.57 62.1429L125.844 61.5601L125.877 61.5673C125.105 61.4015 124.348 61.1708 123.615 60.8752ZM123.461 59.581L123.576 59.1989L123.188 59.2001L123.207 59.2397C123.273 59.3671 123.359 59.4813 123.46 59.581H123.461ZM133.658 58.0549L134.236 59.9631L135.856 59.9643C135.898 59.9643 135.94 59.9499 135.973 59.9235C136.007 59.897 136.031 59.8598 136.041 59.8177L136.047 59.7733V59.0102C136.046 58.7735 135.959 58.5464 135.8 58.371C135.642 58.1955 135.424 58.085 135.189 58.0609L135.091 58.0561L133.658 58.0549Z" fill="black"/>
<path fill-rule="evenodd" clip-rule="evenodd" d="M93.8829 62.6378C94.8634 62.6378 95.4113 61.9997 95.4113 61.4914C95.4113 60.9831 94.8634 60.3463 93.8829 60.3463C92.9023 60.3463 92.3556 60.9831 92.3556 61.4914C92.3556 61.9997 92.9023 62.6378 93.8829 62.6378ZM93.8829 63.4008C95.1482 63.4008 96.1744 62.5465 96.1744 61.4914C96.1744 60.4364 95.1482 59.582 93.8829 59.582C92.6176 59.582 91.5913 60.4364 91.5913 61.4914C91.5913 62.5465 92.6176 63.4008 93.8829 63.4008Z" fill="black"/>
<path d="M87.2854 55.4285C87.5414 55.3636 87.7985 55.2591 87.9847 55.1233C88.469 54.7664 88.7501 54.0478 88.1301 54.1272C87.9498 54.15 87.8189 54.1548 87.7131 54.1584C87.4536 54.1668 87.3383 54.1716 86.9946 54.424C86.8636 54.5201 86.7423 54.6282 86.6317 54.7484C86.097 54.3507 85.3856 54.1728 84.1431 54.2341C84.0926 54.2341 84.0434 54.2545 84.0073 54.2906C83.9725 54.3266 83.952 54.3747 83.952 54.4252C83.952 54.4756 83.9725 54.5249 84.0073 54.5597C84.0434 54.5958 84.0926 54.6162 84.1431 54.6162H84.8064C84.9157 54.6871 85.0083 54.752 85.0912 54.8145L83.7225 56.5256H83.642C83.523 56.5256 83.4053 56.5532 83.2983 56.6073C83.1926 56.6602 83.1001 56.7383 83.0292 56.8344C82.9583 56.9294 82.9102 57.0399 82.8898 57.1577C82.8682 57.2754 82.8753 57.3956 82.9102 57.5097L83.0244 57.8919C83.0725 58.0493 83.1686 58.1863 83.3007 58.2848C83.4317 58.3833 83.5916 58.4362 83.7562 58.4362H85.0407C85.2017 58.4362 85.3592 58.4867 85.4901 58.5816L86.3265 59.1896C86.3517 59.2089 86.377 59.2257 86.4034 59.2401C87.0018 60.783 87.6339 61.9846 88.3404 62.589L88.4714 64.1704C88.3777 64.186 88.2923 64.2365 88.2334 64.3122C88.1745 64.3879 88.147 64.4828 88.1554 64.579C88.1626 64.6739 88.207 64.7628 88.2767 64.8277C88.3476 64.8926 88.4402 64.9286 88.5351 64.9286H89.6814V61.4908H93.4282C93.9929 62.0411 94.6274 62.4737 95.6007 62.6371L95.7293 64.1704C95.6343 64.186 95.549 64.2365 95.4913 64.3122C95.4325 64.3879 95.4037 64.4828 95.4121 64.579C95.4205 64.6739 95.4637 64.7628 95.5334 64.8277C95.6043 64.8926 95.6968 64.9286 95.7918 64.9286H96.9381V58.0541C96.9393 57.535 96.7687 57.0303 96.4526 56.6193C96.6918 56.6842 96.8588 56.778 96.9765 56.8909C97.1892 57.0952 97.3202 57.4401 97.3202 58.0541L97.4681 60.1233C97.3779 60.2627 97.3202 60.4814 97.3202 60.7277C97.3202 61.1495 97.4908 61.4908 97.7023 61.4908C97.9126 61.4908 98.0845 61.1495 98.0845 60.7277C98.0845 60.4814 98.0256 60.2627 97.9366 60.1233L98.0845 58.0541C98.0845 57.3535 97.9378 56.7551 97.5052 56.3406C97.0787 55.9296 96.4526 55.7758 95.6824 55.7626C95.6536 55.7626 94.8593 55.7626 94.8376 55.7626V55.765C94.8016 55.7626 94.7668 55.7626 94.7307 55.7626H89.1082C88.3692 55.7626 87.8117 55.652 87.3431 55.5066L87.2854 55.4285Z" fill="black"/>
<path d="M92.0021 61.7832L91.334 62.056L91.6236 62.7625L92.2905 62.491L92.0021 61.7832ZM92.3086 63.3453L92.7123 62.5931L93.3852 62.9548L92.9815 63.707L92.3086 63.3453ZM93.8875 62.986L94.0485 63.8248L94.7995 63.6794L94.6373 62.8406L93.8875 62.986Z" fill="black"/>
<path d="M168.929 51.856C169.09 51.6901 169.283 51.558 169.495 51.4678C169.708 51.3777 169.936 51.3309 170.168 51.3321C170.399 51.3321 170.627 51.3789 170.84 51.469C171.053 51.5604 171.245 51.6925 171.405 51.8596L175.514 56.1338C176.055 56.582 176.444 57.184 176.632 57.8605C176.819 58.537 176.795 59.2544 176.563 59.9165C176.33 60.5798 175.901 61.1542 175.332 61.5652C174.762 61.9761 174.081 62.2032 173.379 62.2152V62.2165C173.379 62.8233 173.139 63.4061 172.708 63.8362C172.278 64.2664 171.696 64.508 171.087 64.508H169.882V63.0756C169.882 62.3919 169.611 61.7358 169.126 61.2527C168.643 60.7685 167.987 60.4969 167.303 60.4969H166.444C166.293 60.4969 166.146 60.557 166.039 60.6651C165.931 60.7721 165.871 60.9187 165.871 61.0701C165.871 61.2215 165.931 61.3681 166.039 61.475C166.146 61.5832 166.293 61.6433 166.444 61.6433H167.303C167.683 61.6433 168.049 61.7935 168.316 62.0626C168.586 62.3306 168.736 62.6959 168.736 63.0756V64.508H165.871C165.112 64.508 164.384 64.2063 163.846 63.668C163.309 63.1309 163.006 62.4027 163.006 61.6433V60.4404C162.313 60.2962 161.697 59.8997 161.277 59.3289C160.858 58.7569 160.666 58.0504 160.737 57.3462C160.809 56.6409 161.138 55.9872 161.663 55.5113C162.188 55.0343 162.871 54.7699 163.58 54.7675C164.024 54.7675 164.463 54.8709 164.861 55.0703C165.26 55.2686 165.604 55.5582 165.871 55.9139H169.653C169.73 55.7625 169.82 55.6171 169.919 55.4813L168.828 54.1343C168.564 53.8074 168.428 53.3965 168.447 52.9759C168.465 52.5565 168.637 52.1576 168.929 51.856Z" fill="black"/>
<mask id="mask1_4797_6171" style="mask-type:luminance" maskUnits="userSpaceOnUse" x="42" y="50" width="19" height="19">
<path d="M60.5013 50.1113H42.168V68.4446H60.5013V50.1113Z" fill="white"/>
</mask>
<g mask="url(#mask1_4797_6171)">
<path d="M59.2764 59.4817C59.3978 59.3496 59.3978 59.1465 59.2764 59.0143C59.2752 59.0119 59.2199 58.9506 59.1178 58.8497C58.4521 58.1828 56.157 56.1016 53.3127 55.8492L52.2697 54.4385C52.2433 54.4024 52.2132 54.3676 52.182 54.3364C51.8888 54.0432 51.4358 53.9879 51.0801 54.2018L49.2536 55.3037C49.0409 55.4322 48.8943 55.6353 48.8402 55.8768C48.785 56.1184 48.8306 56.3647 48.9664 56.5714L49.125 56.8117C48.5218 57.1338 47.9907 57.4942 47.5545 57.8295L45.0539 56.2482C44.8051 56.0907 44.4999 56.0943 44.256 56.2566C44.0121 56.4188 43.8895 56.6988 43.9375 56.9884C43.9435 57.0232 43.9544 57.0569 43.9712 57.0881L44.822 58.762C44.977 59.066 44.977 59.4301 44.822 59.7341L43.9712 61.408C43.9544 61.4392 43.9435 61.4728 43.9375 61.5077C43.8991 61.7444 43.9724 61.9775 44.1418 62.1458C44.3857 62.3909 44.7619 62.433 45.0539 62.2491L47.5569 60.6654C47.9198 60.9429 48.3452 61.2373 48.821 61.5125L48.1757 62.1001C47.9858 62.2719 47.9486 62.5543 48.0868 62.7694L48.4617 63.3546C48.4821 63.387 48.5062 63.4159 48.5326 63.4423C48.7297 63.6394 49.0457 63.6478 49.2524 63.4616L50.5477 62.2984C51.235 62.5267 51.9765 62.6721 52.7516 62.6721C56.3264 62.6721 59.1587 59.6127 59.2764 59.4817ZM56.2087 59.0492L56.1449 59.0335C56.0188 59.0011 55.9107 58.9374 55.8241 58.8521C55.6571 58.6839 55.5802 58.4363 55.6414 58.19C55.7352 57.8187 56.1137 57.5928 56.485 57.6865L56.5487 57.7033C56.9212 57.7971 57.1459 58.1744 57.0522 58.5457C56.9585 58.9182 56.5812 59.1429 56.2087 59.0492Z" fill="black"/>
</g>
<path d="M77.0009 59.4296L73.1808 57.2246V61.6346L77.0009 59.4296ZM64.779 59.8117H73.563V59.0475H64.7778L64.779 59.8117Z" fill="black"/>
<path d="M116.112 59.4296L112.292 57.2246V61.6346L116.112 59.4296ZM103.889 59.8117H112.674V59.0475H103.889V59.8117Z" fill="black"/>
<path d="M155.222 59.4296L151.403 57.2246V61.6346L155.222 59.4296ZM143 59.8117H151.786V59.0475H143V59.8117Z" fill="black"/>
</g>
</g>
</g>
<defs>
<filter id="filter0_d_4797_6171" x="-16.8229" y="-31.2425" width="292.098" height="421.958" filterUnits="userSpaceOnUse" color-interpolation-filters="sRGB">
<feFlood flood-opacity="0" result="BackgroundImageFix"/>
<feColorMatrix in="SourceAlpha" type="matrix" values="0 0 0 0 0 0 0 0 0 0 0 0 0 0 0 0 0 0 127 0" result="hardAlpha"/>
<feOffset dx="19.2261" dy="4.80653"/>
<feGaussianBlur stdDeviation="18.0245"/>
<feComposite in2="hardAlpha" operator="out"/>
<feColorMatrix type="matrix" values="0 0 0 0 0 0 0 0 0 0 0 0 0 0 0 0 0 0 0.1 0"/>
<feBlend mode="normal" in2="BackgroundImageFix" result="effect1_dropShadow_4797_6171"/>
<feBlend mode="normal" in="SourceGraphic" in2="effect1_dropShadow_4797_6171" result="shape"/>
</filter>
<clipPath id="clip0_4797_6171">
<rect width="220" height="349.86" fill="white"/>
</clipPath>
</defs>
</svg>
