<svg width="950" height="169" viewBox="0 0 950 169" fill="none" xmlns="http://www.w3.org/2000/svg">
<g clip-path="url(#clip0_4782_5935)">
<g filter="url(#filter0_d_4782_5935)">
<path d="M935 0.794922H15C6.71573 0.794922 0 7.51065 0 15.7949V153.795C0 162.079 6.71573 168.795 15 168.795H935C943.284 168.795 950 162.079 950 153.795V15.7949C950 7.51065 943.284 0.794922 935 0.794922Z" fill="white" fill-opacity="0.6"/>
<path fill-rule="evenodd" clip-rule="evenodd" d="M46 24.5176V22.5176H64V24.5176H46ZM46 29.5176H64V27.5176H46V29.5176ZM46 34.5176H64V32.5176H46V34.5176Z" fill="#292929"/>
<path d="M119 27.5176H106.83L112.42 21.9276L111 20.5176L103 28.5176L111 36.5176L112.41 35.1076L106.83 29.5176H119V27.5176Z" fill="#292929"/>
<path d="M167 20.5176L165.59 21.9276L171.17 27.5176H159V29.5176H171.17L165.59 35.1076L167 36.5176L175 28.5176L167 20.5176Z" fill="#292929"/>
<path d="M220 32.6874L215.83 28.5174L214.41 29.9274L220 35.5174L232 23.5174L230.59 22.1074L220 32.6874Z" fill="#292929"/>
<path d="M286 22.9276L284.59 21.5176L279 27.1076L273.41 21.5176L272 22.9276L277.59 28.5176L272 34.1076L273.41 35.5176L279 29.9276L284.59 35.5176L286 34.1076L280.41 28.5176L286 22.9276Z" fill="#292929"/>
<path d="M343 29.5176H336V36.5176H334V29.5176H327V27.5176H334V20.5176H336V27.5176H343V29.5176Z" fill="#292929"/>
<path d="M387 37.5176L396 28.5176L387 19.5176V37.5176Z" fill="#292929"/>
<path d="M451 19.5176L442 28.5176L451 37.5176V19.5176Z" fill="#292929"/>
<path d="M494 32.5176L503 23.5176L512 32.5176H494Z" fill="#292929"/>
<path d="M550 24.5176L559 33.5176L568 24.5176H550Z" fill="#292929"/>
<path fill-rule="evenodd" clip-rule="evenodd" d="M615 24.5176C616.1 24.5176 617 23.6176 617 22.5176C617 21.4176 616.1 20.5176 615 20.5176C613.9 20.5176 613 21.4176 613 22.5176C613 23.6176 613.9 24.5176 615 24.5176ZM615 26.5176C613.9 26.5176 613 27.4176 613 28.5176C613 29.6176 613.9 30.5176 615 30.5176C616.1 30.5176 617 29.6176 617 28.5176C617 27.4176 616.1 26.5176 615 26.5176ZM613 34.5176C613 33.4176 613.9 32.5176 615 32.5176C616.1 32.5176 617 33.4176 617 34.5176C617 35.6176 616.1 36.5176 615 36.5176C613.9 36.5176 613 35.6176 613 34.5176Z" fill="#292929"/>
<path fill-rule="evenodd" clip-rule="evenodd" d="M664 19.5176H678C679.1 19.5176 680 20.4176 680 21.5176V35.5176C680 36.6176 679.1 37.5176 678 37.5176H664C662.9 37.5176 662 36.6176 662 35.5176V21.5176C662 20.4176 662.9 19.5176 664 19.5176ZM675.6 24.1176L677 25.5176L669 33.5176L665 29.5176L666.4 28.1176L669 30.7176L675.6 24.1176Z" fill="#292929"/>
<path d="M734 19.5176H720C718.9 19.5176 718 20.4176 718 21.5176V35.5176C718 36.6176 718.9 37.5176 720 37.5176H734C735.1 37.5176 736 36.6176 736 35.5176V21.5176C736 20.4176 735.1 19.5176 734 19.5176ZM734 35.5176H720V21.5176H734V35.5176ZM732.99 25.5176L731.58 24.0976L724.99 30.6876L722.41 28.1176L720.99 29.5276L724.99 33.5176L732.99 25.5176Z" fill="#292929"/>
<path d="M790 21.5176V35.5176H776V21.5176H790ZM790 19.5176H776C774.9 19.5176 774 20.4176 774 21.5176V35.5176C774 36.6176 774.9 37.5176 776 37.5176H790C791.1 37.5176 792 36.6176 792 35.5176V21.5176C792 20.4176 791.1 19.5176 790 19.5176Z" fill="#292929"/>
<path fill-rule="evenodd" clip-rule="evenodd" d="M841.76 29.7876L847.49 35.5176L846 37.0076L840.27 31.2776C839.2 32.0476 837.91 32.5176 836.5 32.5176C832.91 32.5176 830 29.6076 830 26.0176C830 22.4276 832.91 19.5176 836.5 19.5176C840.09 19.5176 843 22.4276 843 26.0176C843 27.4276 842.53 28.7176 841.76 29.7876ZM836.5 21.5176C834.01 21.5176 832 23.5276 832 26.0176C832 28.5076 834.01 30.5176 836.5 30.5176C838.99 30.5176 841 28.5076 841 26.0176C841 23.5276 838.99 21.5176 836.5 21.5176Z" fill="#292929"/>
<path fill-rule="evenodd" clip-rule="evenodd" d="M888 19.5176C886.895 19.5176 886 20.413 886 21.5176V35.5176C886 36.6222 886.895 37.5176 888 37.5176H902C903.105 37.5176 904 36.6222 904 35.5176V21.5176C904 20.413 903.105 19.5176 902 19.5176H888ZM900 27.5176H890V29.5176H900V27.5176Z" fill="#292929"/>
<path d="M55 74.7681C49.6239 74.7681 45.25 79.1411 45.25 84.5181C45.25 89.8941 49.6239 94.2681 55 94.2681C60.3761 94.2681 64.75 89.8941 64.75 84.5181C64.75 79.1411 60.3761 74.7681 55 74.7681ZM60.625 83.7101H56.4531L58.1819 81.9811L57.9194 81.6761C57.4498 81.1891 56.8668 80.8251 56.2225 80.6181C55.5781 80.4111 54.8925 80.3671 54.2269 80.4891C53.5613 80.6121 52.9365 80.8981 52.4083 81.3211C51.8801 81.7441 51.465 82.2921 51.2002 82.9151C50.9353 83.5371 50.8289 84.2161 50.8905 84.8901C50.952 85.5641 51.1797 86.2121 51.553 86.7771C51.9264 87.3411 52.4338 87.8051 53.0299 88.1251C53.626 88.4461 54.2923 88.6131 54.9691 88.6131C55.8161 88.6131 56.6421 88.3501 57.3338 87.8611C58.0255 87.3721 58.549 86.6811 58.8325 85.8831L59.0842 85.1741L60.4984 85.6741L60.25 86.3831C59.9082 87.3511 59.307 88.2051 58.5121 88.8541C57.7172 89.5031 56.7593 89.9211 55.743 90.0621C54.7267 90.2031 53.6912 90.0621 52.7496 89.6551C51.808 89.2471 50.9965 88.5891 50.4039 87.7511C49.8113 86.9131 49.4603 85.9291 49.3894 84.9051C49.3185 83.8821 49.5303 82.8581 50.0017 81.9471C50.4731 81.0361 51.1859 80.2721 52.0623 79.7381C52.9387 79.2041 53.9449 78.9221 54.9709 78.9221C55.7282 78.9191 56.478 79.0711 57.1742 79.3691C57.8704 79.6671 58.4983 80.1041 59.0191 80.6541L59.0453 80.6831L59.2473 80.9171L60.625 79.5401V83.7101Z" fill="#21272A"/>
<path d="M119 76.5181H103C101.9 76.5181 101.01 77.4181 101.01 78.5181L101 90.5181C101 91.6181 101.9 92.5181 103 92.5181H119C120.1 92.5181 121 91.6181 121 90.5181V78.5181C121 77.4181 120.1 76.5181 119 76.5181ZM119 90.5181H103V80.5181L111 85.5181L119 80.5181V90.5181ZM111 83.5181L103 78.5181H119L111 83.5181Z" fill="#292929"/>
<path fill-rule="evenodd" clip-rule="evenodd" d="M162 75.5181H172C173.1 75.5181 174 76.4181 174 77.5181V93.5181L167 90.5181L160 93.5181V77.5181C160 76.4181 160.9 75.5181 162 75.5181ZM167 88.3381L172 90.5181V77.5181H162V90.5181L167 88.3381Z" fill="#292929"/>
<path d="M228 75.5181H218C216.9 75.5181 216 76.4181 216 77.5181V93.5181L223 90.5181L230 93.5181V77.5181C230 76.4181 229.1 75.5181 228 75.5181Z" fill="#292929"/>
<path d="M286 75.5181H272C270.9 75.5181 270 76.4181 270 77.5181V91.5181C270 92.6181 270.9 93.5181 272 93.5181H286C287.1 93.5181 288 92.6181 288 91.5181V77.5181C288 76.4181 287.1 75.5181 286 75.5181ZM286 91.5181H272V77.5181H286V91.5181ZM274 83.5181H284V85.5181H274V83.5181Z" fill="#292929"/>
<path fill-rule="evenodd" clip-rule="evenodd" d="M335 76.5181C332.79 76.5181 331 78.3081 331 80.5181C331 82.7281 332.79 84.5181 335 84.5181C337.21 84.5181 339 82.7281 339 80.5181C339 78.3081 337.21 76.5181 335 76.5181ZM337 80.5181C337 79.4181 336.1 78.5181 335 78.5181C333.9 78.5181 333 79.4181 333 80.5181C333 81.6181 333.9 82.5181 335 82.5181C336.1 82.5181 337 81.6181 337 80.5181ZM341 89.5181C340.8 88.8081 337.7 87.5181 335 87.5181C332.3 87.5181 329.2 88.8081 329 89.5281V90.5181H341V89.5181ZM327 89.5181C327 86.8581 332.33 85.5181 335 85.5181C337.67 85.5181 343 86.8581 343 89.5181V92.5181H327V89.5181Z" fill="#292929"/>
<path d="M399 74.5181H383C381.9 74.5181 381 75.4181 381 76.5181V94.5181L385 90.5181H399C400.1 90.5181 401 89.6181 401 88.5181V76.5181C401 75.4181 400.1 74.5181 399 74.5181Z" fill="#292929"/>
<path d="M455 74.5181H439C437.9 74.5181 437 75.4181 437 76.5181V94.5181L441 90.5181H455C456.1 90.5181 457 89.6181 457 88.5181V76.5181C457 75.4181 456.1 74.5181 455 74.5181ZM455 88.5181H441L439 90.5181V76.5181H455V88.5181Z" fill="#292929"/>
<path fill-rule="evenodd" clip-rule="evenodd" d="M510.06 76.1079L511.41 77.4579C512.2 78.2379 512.2 79.5079 511.41 80.2879L498.18 93.5179H494V89.338L504.4 78.9279L507.23 76.1079C508.01 75.3279 509.28 75.3279 510.06 76.1079ZM496 91.5179L497.41 91.5779L507.23 81.7479L505.82 80.338L496 90.158V91.5179Z" fill="#292929"/>
<path fill-rule="evenodd" clip-rule="evenodd" d="M559 74.5181C553.48 74.5181 549 78.9981 549 84.5181C549 90.0381 553.48 94.5181 559 94.5181C564.52 94.5181 569 90.0381 569 84.5181C569 78.9981 564.52 74.5181 559 74.5181ZM565.36 89.3481C563.93 87.6081 560.46 87.0181 559 87.0181C557.54 87.0181 554.07 87.6081 552.64 89.3481C551.62 88.0081 551 86.3381 551 84.5181C551 80.1081 554.59 76.5181 559 76.5181C563.41 76.5181 567 80.1081 567 84.5181C567 86.3381 566.38 88.0081 565.36 89.3481ZM555.5 82.0181C555.5 80.0781 557.06 78.5181 559 78.5181C560.94 78.5181 562.5 80.0781 562.5 82.0181C562.5 83.9581 560.94 85.5181 559 85.5181C557.06 85.5181 555.5 83.9581 555.5 82.0181Z" fill="#292929"/>
<path fill-rule="evenodd" clip-rule="evenodd" d="M618 75.5181V76.5181H623V78.5181H622V91.5181C622 92.6181 621.1 93.5181 620 93.5181H610C608.9 93.5181 608 92.6181 608 91.5181V78.5181H607V76.5181H612V75.5181H618ZM610 91.5181H620V78.5181H610V91.5181ZM612 80.5181H614V89.5181H612V80.5181ZM618 80.5181H616V89.5181H618V80.5181Z" fill="#292929"/>
<path fill-rule="evenodd" clip-rule="evenodd" d="M674.31 93.5471C674.21 94.2271 673.59 94.767 672.85 94.767H669.15C668.41 94.767 667.79 94.227 667.7 93.497L667.43 91.607C667.16 91.467 666.9 91.317 666.64 91.147L664.84 91.8671C664.14 92.1271 663.37 91.837 663.03 91.217L661.2 88.0471C660.85 87.3871 661 86.607 661.56 86.167L663.09 84.9771C663.08 84.8271 663.07 84.677 663.07 84.517C663.07 84.367 663.08 84.207 663.09 84.057L661.57 82.8671C660.98 82.4171 660.83 81.607 661.2 80.987L663.05 77.7971C663.39 77.1771 664.16 76.897 664.84 77.167L666.65 77.897C666.91 77.727 667.17 77.577 667.43 77.437L667.7 75.527C667.79 74.827 668.41 74.2773 669.14 74.2773H672.84C673.58 74.2773 674.2 74.8171 674.29 75.5471L674.56 77.437C674.83 77.577 675.09 77.727 675.35 77.897L677.15 77.177C677.86 76.917 678.63 77.207 678.97 77.827L680.81 81.007C681.17 81.667 681.01 82.447 680.45 82.887L678.93 84.077C678.94 84.227 678.95 84.377 678.95 84.537C678.95 84.697 678.94 84.847 678.93 84.997L680.45 86.187C681.01 86.637 681.17 87.4171 680.82 88.0471L678.96 91.267C678.62 91.887 677.85 92.167 677.16 91.897L675.36 91.177C675.1 91.347 674.84 91.497 674.58 91.637L674.31 93.5471ZM669.62 92.767H672.38L672.75 90.217L673.28 89.997C673.72 89.817 674.16 89.557 674.62 89.217L675.07 88.877L677.45 89.837L678.83 87.437L676.8 85.857L676.87 85.2971L676.873 85.2701C676.902 85.0201 676.93 84.778 676.93 84.517C676.93 84.247 676.9 83.987 676.87 83.737L676.8 83.177L678.83 81.597L677.44 79.197L675.05 80.157L674.6 79.807C674.18 79.487 673.73 79.227 673.27 79.037L672.75 78.817L672.38 76.267H669.62L669.25 78.817L668.72 79.027C668.28 79.217 667.84 79.467 667.38 79.817L666.93 80.147L664.55 79.197L663.16 81.587L665.19 83.167L665.12 83.7271C665.09 83.9871 665.06 84.257 665.06 84.517C665.06 84.777 665.08 85.0471 665.12 85.2971L665.19 85.857L663.16 87.437L664.54 89.837L666.93 88.877L667.38 89.2271C667.81 89.5571 668.24 89.807 668.71 89.997L669.24 90.217L669.62 92.767ZM674.5 84.517C674.5 86.45 672.933 88.017 671 88.017C669.067 88.017 667.5 86.45 667.5 84.517C667.5 82.584 669.067 81.017 671 81.017C672.933 81.017 674.5 82.584 674.5 84.517Z" fill="#292929"/>
<path d="M727 74.5181C721.48 74.5181 717 78.9981 717 84.5181C717 90.0381 721.48 94.5181 727 94.5181C732.52 94.5181 737 90.0381 737 84.5181C737 78.9981 732.52 74.5181 727 74.5181ZM727 92.5181C722.58 92.5181 719 88.9381 719 84.5181C719 80.0981 722.58 76.5181 727 76.5181C731.42 76.5181 735 80.0981 735 84.5181C735 88.9381 731.42 92.5181 727 92.5181Z" fill="#292929"/>
<path d="M727 89.5181C729.761 89.5181 732 87.2791 732 84.5181C732 81.7561 729.761 79.5181 727 79.5181C724.239 79.5181 722 81.7561 722 84.5181C722 87.2791 724.239 89.5181 727 89.5181Z" fill="#292929"/>
<path d="M783 74.5181C777.48 74.5181 773 78.9981 773 84.5181C773 90.0381 777.48 94.5181 783 94.5181C788.52 94.5181 793 90.0381 793 84.5181C793 78.9981 788.52 74.5181 783 74.5181ZM783 92.5181C778.58 92.5181 775 88.9381 775 84.5181C775 80.0981 778.58 76.5181 783 76.5181C787.42 76.5181 791 80.0981 791 84.5181C791 88.9381 787.42 92.5181 783 92.5181Z" fill="#292929"/>
<path d="M834 85.5181V83.5181H844V85.5181H834Z" fill="#292929"/>
<path d="M893 88.9181L889 84.9181L890.4 83.5181L893 86.1181L899.6 79.5181L901 80.9181L893 88.9181Z" fill="#292929"/>
<path d="M230.43 141.498C230.47 141.178 230.5 140.858 230.5 140.518C230.5 140.178 230.47 139.858 230.43 139.538L232.54 137.888C232.73 137.738 232.78 137.468 232.66 137.248L230.66 133.788C230.54 133.568 230.27 133.488 230.05 133.568L227.56 134.568C227.04 134.168 226.48 133.838 225.87 133.588L225.49 130.938C225.46 130.698 225.25 130.518 225 130.518H221C220.75 130.518 220.54 130.698 220.51 130.938L220.13 133.588C219.52 133.838 218.96 134.178 218.44 134.568L215.95 133.568C215.72 133.478 215.46 133.568 215.34 133.788L213.34 137.248C213.21 137.468 213.27 137.738 213.46 137.888L215.57 139.538C215.53 139.858 215.5 140.188 215.5 140.518C215.5 140.848 215.53 141.178 215.57 141.498L213.46 143.148C213.27 143.298 213.22 143.568 213.34 143.788L215.34 147.248C215.46 147.468 215.73 147.548 215.95 147.468L218.44 146.468C218.96 146.868 219.52 147.198 220.13 147.448L220.51 150.098C220.54 150.338 220.75 150.518 221 150.518H225C225.25 150.518 225.46 150.338 225.49 150.098L225.87 147.448C226.48 147.198 227.04 146.858 227.56 146.468L230.05 147.468C230.28 147.558 230.54 147.468 230.66 147.248L232.66 143.788C232.78 143.568 232.73 143.298 232.54 143.148L230.43 141.498ZM223 144.018C221.07 144.018 219.5 142.448 219.5 140.518C219.5 138.588 221.07 137.018 223 137.018C224.93 137.018 226.5 138.588 226.5 140.518C226.5 142.448 224.93 144.018 223 144.018Z" fill="#292929"/>
<path d="M282.705 135.928L281.295 134.518L275.295 140.518L281.295 146.518L282.705 145.108L278.125 140.518L282.705 135.928Z" fill="#292929"/>
<path d="M332.705 134.518L331.295 135.928L335.875 140.518L331.295 145.108L332.705 146.518L338.705 140.518L332.705 134.518Z" fill="#292929"/>
<path fill-rule="evenodd" clip-rule="evenodd" d="M385 138.518C383.9 138.518 383 139.418 383 140.518C383 141.618 383.9 142.518 385 142.518C386.1 142.518 387 141.618 387 140.518C387 139.418 386.1 138.518 385 138.518ZM397 138.518C395.9 138.518 395 139.418 395 140.518C395 141.618 395.9 142.518 397 142.518C398.1 142.518 399 141.618 399 140.518C399 139.418 398.1 138.518 397 138.518ZM389 140.518C389 139.418 389.9 138.518 391 138.518C392.1 138.518 393 139.418 393 140.518C393 141.618 392.1 142.518 391 142.518C389.9 142.518 389 141.618 389 140.518Z" fill="#292929"/>
<path fill-rule="evenodd" clip-rule="evenodd" d="M447 130.518C441.47 130.518 437 134.988 437 140.518C437 146.048 441.47 150.518 447 150.518C452.53 150.518 457 146.048 457 140.518C457 134.988 452.53 130.518 447 130.518ZM447 148.518C442.59 148.518 439 144.928 439 140.518C439 136.108 442.59 132.518 447 132.518C451.41 132.518 455 136.108 455 140.518C455 144.928 451.41 148.518 447 148.518ZM447 139.108L450.59 135.518L452 136.928L448.41 140.518L452 144.108L450.59 145.518L447 141.928L443.41 145.518L442 144.108L445.59 140.518L442 136.928L443.41 135.518L447 139.108Z" fill="#292929"/>
<path fill-rule="evenodd" clip-rule="evenodd" d="M503 130.518C497.48 130.518 493 134.998 493 140.518C493 146.038 497.48 150.518 503 150.518C508.52 150.518 513 146.038 513 140.518C513 134.998 508.52 130.518 503 130.518ZM502 145.518V143.518H504V145.518H502ZM502 135.518V141.518H504V135.518H502Z" fill="#292929"/>
<path d="M566 135.518V139.518H553.83L557.41 135.928L556 134.518L550 140.518L556 146.518L557.41 145.108L553.83 141.518H568V135.518H566Z" fill="#292929"/>
<path d="M607.318 134.836C605.561 136.593 605.561 139.442 607.318 141.199L615 148.882L622.682 141.199C624.439 139.442 624.439 136.593 622.682 134.836C620.925 133.078 618.075 133.078 616.318 134.836L615 136.154L613.682 134.836C611.925 133.078 609.075 133.078 607.318 134.836Z" stroke="#21272A" stroke-width="2" stroke-linecap="round" stroke-linejoin="round"/>
<path fill-rule="evenodd" clip-rule="evenodd" d="M670.25 130.768C671.568 130.766 672.874 131.033 674.086 131.552C675.299 132.071 676.394 132.831 677.303 133.786L677.316 133.8L678.808 135.535L677.67 136.513L676.204 134.807C675.437 134.005 674.516 133.367 673.496 132.931C672.471 132.492 671.367 132.266 670.251 132.268C665.696 132.268 662 135.963 662 140.518C662 145.072 665.695 148.767 670.25 148.768M670.25 130.768C664.867 130.768 660.5 135.135 660.5 140.518C660.5 145.9 664.867 150.268 670.25 150.268C672.267 150.267 674.233 149.642 675.88 148.478C677.527 147.314 678.772 145.669 679.445 143.768L679.695 143.061L678.281 142.56L678.031 143.267C677.461 144.876 676.407 146.268 675.014 147.253C673.621 148.238 671.956 148.767 670.25 148.768" fill="#21272A"/>
<path d="M680.75 131.727V138.831C680.75 138.88 680.73 138.928 680.695 138.963C680.66 138.998 680.612 139.018 680.563 139.018H673.459C673.422 139.018 673.385 139.007 673.354 138.987C673.324 138.966 673.299 138.937 673.285 138.902C673.271 138.868 673.267 138.83 673.275 138.794C673.282 138.758 673.3 138.724 673.326 138.698L680.43 131.594C680.456 131.568 680.49 131.55 680.526 131.543C680.562 131.535 680.6 131.539 680.634 131.553C680.669 131.567 680.698 131.592 680.718 131.622C680.739 131.653 680.75 131.69 680.75 131.727Z" fill="#21272A"/>
<path d="M725 142.518H717" stroke="#21272A" stroke-width="1.5" stroke-linecap="round" stroke-linejoin="round"/>
<path d="M723 138.518H717" stroke="#21272A" stroke-width="1.5" stroke-linecap="round" stroke-linejoin="round"/>
<path d="M721 134.518H717" stroke="#21272A" stroke-width="1.5" stroke-linecap="round" stroke-linejoin="round"/>
<path d="M727 146.518H717" stroke="#21272A" stroke-width="1.5" stroke-linecap="round" stroke-linejoin="round"/>
<path d="M734 132.518L731 135.518M734 132.518V148.518M734 132.518L737 135.518M734 148.518L737 145.518M734 148.518L731 145.518" stroke="#21272A" stroke-width="1.5" stroke-linecap="round" stroke-linejoin="round"/>
</g>
</g>
<defs>
<filter id="filter0_d_4782_5935" x="-14" y="-25.2051" width="1010" height="228" filterUnits="userSpaceOnUse" color-interpolation-filters="sRGB">
<feFlood flood-opacity="0" result="BackgroundImageFix"/>
<feColorMatrix in="SourceAlpha" type="matrix" values="0 0 0 0 0 0 0 0 0 0 0 0 0 0 0 0 0 0 127 0" result="hardAlpha"/>
<feOffset dx="16" dy="4"/>
<feGaussianBlur stdDeviation="15"/>
<feComposite in2="hardAlpha" operator="out"/>
<feColorMatrix type="matrix" values="0 0 0 0 0 0 0 0 0 0 0 0 0 0 0 0 0 0 0.1 0"/>
<feBlend mode="normal" in2="BackgroundImageFix" result="effect1_dropShadow_4782_5935"/>
<feBlend mode="normal" in="SourceGraphic" in2="effect1_dropShadow_4782_5935" result="shape"/>
</filter>
<clipPath id="clip0_4782_5935">
<rect width="950" height="168" fill="white" transform="translate(0 0.794922)"/>
</clipPath>
</defs>
</svg>
