<svg width="719" height="509" viewBox="0 0 719 509" fill="none" xmlns="http://www.w3.org/2000/svg">
<g clip-path="url(#clip0_4782_5937)">
<g clip-path="url(#clip1_4782_5937)">
<g filter="url(#filter0_d_4782_5937)">
<path d="M703.468 106.729H15.1333C11.089 106.729 7.81055 110.007 7.81055 114.051V489.951C7.81055 493.995 11.089 497.273 15.1333 497.273H703.468C707.513 497.273 710.791 493.995 710.791 489.951V114.051C710.791 110.007 707.513 106.729 703.468 106.729Z" fill="white"/>
<mask id="mask0_4782_5937" style="mask-type:luminance" maskUnits="userSpaceOnUse" x="31" y="106" width="45" height="392">
<path d="M75.1794 106.729H31.2432V497.273H75.1794V106.729Z" fill="white"/>
</mask>
<g mask="url(#mask0_4782_5937)">
<path d="M75.1794 106.729H31.2432V497.273H75.1794V106.729Z" fill="#00858C" fill-opacity="0.5"/>
</g>
<mask id="mask1_4782_5937" style="mask-type:luminance" maskUnits="userSpaceOnUse" x="86" y="106" width="45" height="392">
<path d="M130.832 106.729H86.896V497.273H130.832V106.729Z" fill="white"/>
</mask>
<g mask="url(#mask1_4782_5937)">
<path d="M130.832 106.729H86.896V497.273H130.832V106.729Z" fill="#00858C" fill-opacity="0.5"/>
</g>
<path d="M186.485 106.729H142.549V497.273H186.485V106.729Z" fill="#00858C" fill-opacity="0.5"/>
<path d="M242.137 106.729H198.201V497.273H242.137V106.729Z" fill="#00858C" fill-opacity="0.5"/>
<path d="M297.79 106.729H253.854V497.273H297.79V106.729Z" fill="#00858C" fill-opacity="0.5"/>
<path d="M353.443 106.729H309.506V497.273H353.443V106.729Z" fill="#00858C" fill-opacity="0.5"/>
<path d="M409.095 106.729H365.159V497.273H409.095V106.729Z" fill="#00858C" fill-opacity="0.5"/>
<path d="M464.748 106.729H420.812V497.273H464.748V106.729Z" fill="#00858C" fill-opacity="0.5"/>
<path d="M520.4 106.729H476.464V497.273H520.4V106.729Z" fill="#00858C" fill-opacity="0.5"/>
<path d="M576.053 106.729H532.117V497.273H576.053V106.729Z" fill="#00858C" fill-opacity="0.5"/>
<path d="M631.706 106.729H587.77V497.273H631.706V106.729Z" fill="#00858C" fill-opacity="0.5"/>
<path d="M687.358 106.729H643.422V497.273H687.358V106.729Z" fill="#00858C" fill-opacity="0.5"/>
</g>
<path d="M12.1665 16.9058H9.79426L9.80954 15.3878H12.1665C12.853 15.3878 13.4276 15.2378 13.8904 14.9378C14.3583 14.6378 14.7091 14.2081 14.9431 13.6487C15.1821 13.0893 15.3016 12.4232 15.3016 11.6502V11.0476C15.3016 10.4476 15.2329 9.91617 15.0956 9.45342C14.9634 8.99067 14.7651 8.60164 14.5006 8.28637C14.2413 7.97106 13.9209 7.73205 13.5395 7.56933C13.1632 7.40662 12.7284 7.32524 12.2352 7.32524H9.74852V5.79968H12.2352C12.9725 5.79968 13.6463 5.92426 14.2565 6.17343C14.8668 6.41752 15.3931 6.77096 15.8355 7.23371C16.283 7.69646 16.6263 8.25074 16.8653 8.8966C17.1043 9.54242 17.2237 10.2645 17.2237 11.0629V11.6502C17.2237 12.4486 17.1043 13.1707 16.8653 13.8165C16.6263 14.4624 16.283 15.0166 15.8355 15.4794C15.388 15.937 14.8541 16.2905 14.2336 16.5397C13.6183 16.7837 12.9293 16.9058 12.1665 16.9058ZM10.8545 5.79968V16.9058H8.93994V5.79968H10.8545ZM22.6014 17.0584C21.9912 17.0584 21.4394 16.9592 20.9461 16.7609C20.4579 16.5575 20.041 16.2752 19.6952 15.9142C19.3545 15.5531 19.0926 15.1285 18.9095 14.6403C18.7265 14.1522 18.6349 13.6258 18.6349 13.0614V12.7563C18.6349 12.1104 18.729 11.5257 18.9171 11.0018C19.1053 10.4781 19.3672 10.0306 19.7028 9.65934C20.0384 9.28305 20.4351 8.99575 20.8928 8.7974C21.3504 8.5991 21.8462 8.49991 22.3802 8.49991C22.9701 8.49991 23.4862 8.5991 23.9286 8.7974C24.371 8.99575 24.7372 9.27543 25.027 9.63649C25.322 9.99242 25.5406 10.417 25.683 10.9103C25.8305 11.4036 25.9042 11.9477 25.9042 12.5427V13.3284H19.5274V12.0088H24.0888V11.8638C24.0786 11.5333 24.0125 11.2231 23.8905 10.9332C23.7735 10.6434 23.593 10.4094 23.3489 10.2314C23.1048 10.0534 22.7794 9.96445 22.3725 9.96445C22.0674 9.96445 21.7954 10.0306 21.5563 10.1628C21.3225 10.2899 21.1266 10.4755 20.969 10.7196C20.8114 10.9637 20.6893 11.2587 20.6029 11.6044C20.5215 11.9451 20.4808 12.3291 20.4808 12.7563V13.0614C20.4808 13.4224 20.5292 13.7581 20.6258 14.0682C20.7275 14.3734 20.8749 14.6403 21.0682 14.8692C21.2614 15.098 21.4953 15.2785 21.77 15.4107C22.0445 15.5379 22.3573 15.6014 22.7082 15.6014C23.1506 15.6014 23.5447 15.5124 23.8905 15.3344C24.2363 15.1565 24.5363 14.9047 24.7905 14.5793L25.7593 15.5175C25.5813 15.7769 25.3499 16.026 25.0652 16.2651C24.7804 16.499 24.4321 16.6897 24.0201 16.8372C23.6133 16.9846 23.1404 17.0584 22.6014 17.0584ZM31.9684 14.6709C31.9684 14.4878 31.9226 14.3225 31.831 14.175C31.7395 14.0225 31.564 13.8852 31.3047 13.7631C31.0505 13.6411 30.6741 13.5292 30.1758 13.4275C29.7385 13.3309 29.3368 13.2165 28.9706 13.0843C28.6096 12.9469 28.2994 12.7817 28.04 12.5884C27.7806 12.3952 27.5798 12.1664 27.4374 11.9019C27.2951 11.6375 27.2238 11.3324 27.2238 10.9866C27.2238 10.651 27.2976 10.3332 27.4451 10.0331C27.5925 9.7331 27.8035 9.46865 28.0781 9.23984C28.3527 9.01098 28.6858 8.83045 29.0774 8.69825C29.474 8.56605 29.9164 8.49991 30.4046 8.49991C31.0962 8.49991 31.6887 8.61687 32.1819 8.85081C32.6803 9.07967 33.0617 9.3924 33.3261 9.78904C33.5905 10.1806 33.7227 10.623 33.7227 11.1163H31.8844C31.8844 10.8976 31.8285 10.6942 31.7167 10.506C31.6098 10.3128 31.4471 10.1577 31.2285 10.0408C31.0098 9.91871 30.7352 9.85768 30.4046 9.85768C30.0894 9.85768 29.8275 9.90855 29.619 10.0102C29.4156 10.1069 29.263 10.234 29.1613 10.3916C29.0647 10.5493 29.0164 10.7222 29.0164 10.9103C29.0164 11.0476 29.0418 11.1722 29.0927 11.2841C29.1486 11.3909 29.2401 11.49 29.3672 11.5816C29.4944 11.668 29.6673 11.7494 29.886 11.8257C30.1097 11.9019 30.3894 11.9757 30.725 12.0469C31.3556 12.1791 31.8971 12.3495 32.3497 12.558C32.8074 12.7613 33.1583 13.0258 33.4024 13.3513C33.6465 13.6716 33.7685 14.0784 33.7685 14.5717C33.7685 14.9378 33.6897 15.2734 33.5321 15.5785C33.3795 15.8786 33.1558 16.1405 32.8608 16.3642C32.5658 16.5829 32.2125 16.7532 31.8005 16.8753C31.3937 16.9973 30.9361 17.0584 30.4275 17.0584C29.68 17.0584 29.0469 16.9262 28.5282 16.6617C28.0095 16.3922 27.6154 16.0489 27.3459 15.6319C27.0815 15.2099 26.9492 14.7725 26.9492 14.3199H28.7265C28.7469 14.6607 28.8409 14.9327 29.0088 15.1361C29.1816 15.3344 29.3952 15.4794 29.6495 15.5709C29.9088 15.6574 30.1758 15.7006 30.4504 15.7006C30.781 15.7006 31.0581 15.6574 31.2818 15.5709C31.5056 15.4794 31.6759 15.3573 31.7929 15.2048C31.9099 15.0471 31.9684 14.8692 31.9684 14.6709ZM37.2315 5.18945V16.9058H35.3856V5.18945H37.2315ZM42.3574 8.65251L38.7647 12.6342L36.7968 14.648L36.3162 13.0919L37.8036 11.2536L40.1378 8.65251H42.3574ZM40.5344 16.9058L37.857 13.0309L39.0165 11.7418L42.6625 16.9058H40.5344ZM47.3079 8.65251V9.99501H42.6549V8.65251H47.3079ZM43.9974 6.6311H45.8357V14.6251C45.8357 14.8794 45.8713 15.0751 45.9425 15.2124C46.0188 15.3446 46.1231 15.4336 46.2553 15.4794C46.3875 15.5252 46.5426 15.5481 46.7206 15.5481C46.8477 15.5481 46.9697 15.5404 47.0867 15.5252C47.2037 15.5099 47.2977 15.4947 47.3689 15.4794L47.3766 16.8829C47.224 16.9287 47.046 16.9694 46.8426 17.0049C46.6443 17.0405 46.4154 17.0584 46.1561 17.0584C45.734 17.0584 45.3603 16.9846 45.0348 16.8372C44.7093 16.6846 44.4551 16.438 44.272 16.0973C44.089 15.7565 43.9974 15.304 43.9974 14.7395V6.6311ZM48.1928 12.8707V12.6952C48.1928 12.1002 48.2792 11.5485 48.4521 11.04C48.625 10.5264 48.8744 10.0814 49.1995 9.70513C49.53 9.32376 49.9318 9.0288 50.4048 8.8203C50.8827 8.60672 51.4217 8.49991 52.0217 8.49991C52.627 8.49991 53.166 8.60672 53.639 8.8203C54.1169 9.0288 54.5211 9.32376 54.8516 9.70513C55.1821 10.0814 55.434 10.5264 55.6069 11.04C55.7797 11.5485 55.8666 12.1002 55.8666 12.6952V12.8707C55.8666 13.4656 55.7797 14.0174 55.6069 14.5259C55.434 15.0345 55.1821 15.4794 54.8516 15.8608C54.5211 16.2371 54.1194 16.532 53.6468 16.7456C53.1738 16.9541 52.6373 17.0584 52.0373 17.0584C51.4319 17.0584 50.8905 16.9541 50.4126 16.7456C49.9396 16.532 49.5378 16.2371 49.2073 15.8608C48.8768 15.4794 48.625 15.0345 48.4521 14.5259C48.2792 14.0174 48.1928 13.4656 48.1928 12.8707ZM50.0309 12.6952V12.8707C50.0309 13.2419 50.0689 13.5928 50.1456 13.9233C50.2217 14.2538 50.3413 14.5437 50.5039 14.7929C50.6665 15.0421 50.8754 15.2378 51.1293 15.3802C51.3836 15.5226 51.6863 15.5938 52.0373 15.5938C52.378 15.5938 52.6729 15.5226 52.9219 15.3802C53.1762 15.2378 53.3847 15.0421 53.5477 14.7929C53.7103 14.5437 53.8299 14.2538 53.906 13.9233C53.9876 13.5928 54.0281 13.2419 54.0281 12.8707V12.6952C54.0281 12.3291 53.9876 11.9833 53.906 11.6578C53.8299 11.3273 53.7078 11.0349 53.5399 10.7806C53.3773 10.5264 53.1684 10.328 52.9145 10.1857C52.6651 10.0382 52.3678 9.96445 52.0217 9.96445C51.676 9.96445 51.3763 10.0382 51.1219 10.1857C50.8725 10.328 50.6665 10.5264 50.5039 10.7806C50.3413 11.0349 50.2217 11.3273 50.1456 11.6578C50.0689 11.9833 50.0309 12.3291 50.0309 12.6952ZM59.2531 10.2391V20.079H57.4146V8.65251H59.1081L59.2531 10.2391ZM64.6309 12.7028V12.8631C64.6309 13.4631 64.5596 14.0199 64.4171 14.5335C64.2799 15.0421 64.0739 15.487 63.7995 15.8684C63.5295 16.2447 63.1966 16.5371 62.8002 16.7456C62.4033 16.9541 61.9459 17.0584 61.427 17.0584C60.9134 17.0584 60.4633 16.9643 60.0766 16.7761C59.6954 16.5829 59.3727 16.3108 59.1081 15.9599C58.8435 15.6091 58.6302 15.1972 58.4676 14.7242C58.3099 14.2462 58.1981 13.7225 58.1317 13.1529V12.5351C58.1981 11.9299 58.3099 11.3807 58.4676 10.8875C58.6302 10.3942 58.8435 9.96957 59.1081 9.61359C59.3727 9.25761 59.6954 8.98301 60.0766 8.78979C60.4584 8.59657 60.9031 8.49991 61.4118 8.49991C61.9303 8.49991 62.3906 8.60164 62.7924 8.80502C63.1942 9.00337 63.5325 9.28812 63.8068 9.65934C64.0817 10.0255 64.2877 10.4679 64.4249 10.9866C64.562 11.5002 64.6309 12.0723 64.6309 12.7028ZM62.7924 12.8631V12.7028C62.7924 12.3215 62.7568 11.968 62.6855 11.6426C62.6142 11.3121 62.5024 11.0222 62.3501 10.773C62.1973 10.5239 62.0015 10.3306 61.7628 10.1933C61.5285 10.0509 61.2463 9.97973 60.9158 9.97973C60.5907 9.97973 60.311 10.0357 60.0766 10.1475C59.8428 10.2543 59.647 10.4043 59.4894 10.5976C59.3317 10.7908 59.2096 11.0171 59.1232 11.2765C59.0368 11.5307 58.9758 11.8079 58.9402 12.1079V13.5877C59.0012 13.9538 59.1057 14.2894 59.2531 14.5946C59.4005 14.8997 59.609 15.1438 59.8784 15.3268C60.1533 15.5048 60.5043 15.5938 60.931 15.5938C61.2619 15.5938 61.5441 15.5226 61.778 15.3802C62.0118 15.2378 62.2027 15.0421 62.3501 14.7929C62.5024 14.5386 62.6142 14.2462 62.6855 13.9157C62.7568 13.5851 62.7924 13.2343 62.7924 12.8631Z" fill="#292929"/>
<path d="M9.42205 40.8267L7.87939 35.691H8.93387L9.68566 38.5029C9.72472 38.6396 9.75728 38.7828 9.7833 38.9325C9.81586 39.0823 9.84515 39.2157 9.87117 39.3328C9.89719 39.45 9.91672 39.5314 9.92975 39.5769H9.98834C10.0144 39.4598 10.0436 39.3263 10.0762 39.1766C10.1088 39.0269 10.1381 38.8902 10.1641 38.7665C10.1901 38.6364 10.2096 38.5387 10.2227 38.4736L10.9061 35.691H11.9996L12.7026 38.4834C12.7286 38.5875 12.7547 38.708 12.7807 38.8447C12.8133 38.9749 12.8426 39.105 12.8686 39.2352C12.9012 39.3654 12.9239 39.4793 12.9369 39.5769H12.9955C13.0151 39.4858 13.0379 39.3784 13.0639 39.2547C13.0964 39.1245 13.1289 38.9944 13.1615 38.8642C13.1941 38.734 13.2234 38.6136 13.2494 38.5029L13.9914 35.691H14.958L13.4251 40.8267H12.3707L11.7458 38.2686C11.7198 38.145 11.6872 38.0017 11.6482 37.839C11.6091 37.6763 11.5733 37.5135 11.5408 37.3508C11.5082 37.1881 11.4822 37.0449 11.4626 36.9212H11.4041C11.391 36.9928 11.3715 37.097 11.3455 37.2337C11.326 37.3704 11.2967 37.5266 11.2576 37.7023C11.2186 37.8781 11.173 38.0668 11.1209 38.2686L10.4765 40.8267H9.42205ZM15.6926 34.8025V33.7676H16.708V34.8025H15.6926ZM15.6926 40.8267V35.691H16.708V40.8267H15.6926ZM19.7863 40.9438C19.3697 40.9438 19.0085 40.8495 18.7025 40.6607C18.3966 40.4719 18.159 40.179 17.9898 39.782C17.8271 39.3849 17.7457 38.8707 17.7457 38.2393C17.7457 37.6209 17.8303 37.1165 17.9995 36.726C18.1688 36.3354 18.4031 36.0458 18.7025 35.857C19.0019 35.6682 19.3469 35.5738 19.7375 35.5738C19.9653 35.5738 20.1768 35.5999 20.3721 35.652C20.5674 35.704 20.7398 35.7854 20.8896 35.896C21.0458 36.0067 21.176 36.1466 21.2801 36.3159H21.3485V33.7676H22.3639V40.8267H21.534L21.4363 40.1237H21.368C21.1987 40.3971 20.9742 40.6021 20.6943 40.7388C20.4209 40.8755 20.1182 40.9438 19.7863 40.9438ZM20.0694 40.0651C20.3688 40.0651 20.6097 40 20.7919 39.8698C20.9807 39.7331 21.1206 39.5379 21.2118 39.284C21.3029 39.0237 21.3485 38.708 21.3485 38.337V38.2003C21.3485 37.8878 21.3192 37.6209 21.2606 37.3996C21.202 37.1784 21.1174 36.9993 21.0067 36.8626C20.8961 36.7195 20.7626 36.6153 20.6064 36.5502C20.4502 36.4851 20.2745 36.4526 20.0792 36.4526C19.7798 36.4526 19.5357 36.5144 19.3469 36.6381C19.1581 36.7552 19.0182 36.9408 18.9271 37.1946C18.8425 37.4485 18.8001 37.7772 18.8001 38.1807V38.3565C18.8001 38.7601 18.8457 39.0887 18.9368 39.3426C19.028 39.59 19.1647 39.7722 19.3469 39.8894C19.5357 40.0065 19.7765 40.0651 20.0694 40.0651ZM24.9522 40.9438C24.6593 40.9438 24.4282 40.8885 24.259 40.7779C24.0963 40.6607 23.9791 40.5142 23.9075 40.3385C23.8424 40.1563 23.8099 39.9642 23.8099 39.7624V36.5307H23.1655V35.691H23.8294L24.0149 34.2558H24.8253V35.691H25.7528V36.5307H24.8253V39.6453C24.8253 39.795 24.8578 39.9089 24.9229 39.987C24.988 40.0651 25.0954 40.1042 25.2451 40.1042H25.7528V40.7876C25.6877 40.8136 25.6064 40.8364 25.5087 40.856C25.4176 40.882 25.3232 40.9015 25.2256 40.9145C25.1279 40.9341 25.0369 40.9438 24.9522 40.9438ZM26.648 40.8267V33.7676H27.6635V36.3061H27.7318C27.8555 36.1499 27.9954 36.0197 28.1516 35.9156C28.3079 35.8049 28.4836 35.7203 28.6789 35.6617C28.8742 35.6031 29.089 35.5738 29.3233 35.5738C29.6487 35.5738 29.9351 35.6324 30.1825 35.7496C30.4298 35.8603 30.6218 36.0425 30.7585 36.2964C30.9017 36.5502 30.9733 36.8919 30.9733 37.3215V40.8267H29.9579V37.4778C29.9579 37.2825 29.9319 37.1198 29.8798 36.9896C29.8343 36.8594 29.7659 36.7552 29.6748 36.6771C29.5836 36.599 29.4762 36.5437 29.3526 36.5112C29.2289 36.4786 29.0922 36.4623 28.9425 36.4623C28.7082 36.4623 28.4934 36.5176 28.2981 36.6283C28.1093 36.739 27.9564 36.8952 27.8392 37.097C27.722 37.2987 27.6635 37.5396 27.6635 37.8195V40.8267H26.648Z" fill="#292929"/>
<path d="M70.1812 40.7877V39.8504L73.9987 38.3175L70.1812 36.7846V35.8473L74.8189 37.8V38.8447L70.1812 40.7877ZM78.2649 40.8267V39.9773H79.9248V35.5348H78.2649V34.9002C78.4797 34.8872 78.7175 34.8481 78.9777 34.783C79.2384 34.718 79.4986 34.6301 79.7588 34.5194C80.0195 34.4088 80.2567 34.2753 80.4715 34.1191H80.9499V39.9773H82.4828V40.8267H78.2649ZM83.302 40.8267V40.5241C83.302 40.2442 83.3537 39.9871 83.4582 39.7527C83.5685 39.5119 83.7121 39.2938 83.8878 39.0986C84.0699 38.9033 84.2715 38.7178 84.4932 38.542C84.7143 38.3663 84.9389 38.197 85.1668 38.0343C85.4661 37.8195 85.7429 37.6047 85.9967 37.3899C86.2506 37.1751 86.4556 36.9441 86.6119 36.6967C86.7744 36.4494 86.856 36.1727 86.856 35.8668C86.856 35.6911 86.8135 35.5283 86.729 35.3786C86.6509 35.2289 86.5269 35.1085 86.358 35.0174C86.1886 34.9197 85.9675 34.8709 85.6941 34.8709C85.3943 34.8709 85.1502 34.923 84.9618 35.0271C84.7792 35.1248 84.6425 35.2615 84.5517 35.4372C84.4668 35.6065 84.4248 35.805 84.4248 36.0328V36.4331H83.4094C83.4026 36.4005 83.3962 36.3517 83.3899 36.2866C83.383 36.2216 83.3801 36.1402 83.3801 36.0425C83.3801 35.5609 83.4875 35.1736 83.7023 34.8807C83.9234 34.5813 84.2129 34.3632 84.5713 34.2265C84.9354 34.0833 85.326 34.0117 85.7429 34.0117C86.1461 34.0117 86.4849 34.0703 86.7583 34.1875C87.038 34.2981 87.2592 34.4478 87.4222 34.6366C87.5911 34.8254 87.7117 35.0336 87.7835 35.2615C87.8616 35.4893 87.9007 35.7106 87.9007 35.9254C87.9007 36.2378 87.845 36.521 87.7347 36.7748C87.6302 37.0287 87.4808 37.2663 87.2855 37.4876C87.0966 37.7089 86.8721 37.9237 86.6119 38.132C86.358 38.3337 86.0846 38.5355 85.7917 38.7373C85.6091 38.861 85.4305 38.9879 85.2547 39.1181C85.0853 39.2483 84.9354 39.3817 84.8056 39.5184C84.6752 39.6486 84.5874 39.7755 84.542 39.8992H87.9397V40.8267H83.302ZM91.7212 40.8267V39.2548H88.6847V38.4151C88.9512 37.9595 89.1953 37.5006 89.4169 37.0384C89.6381 36.5763 89.8397 36.0946 90.0223 35.5934C90.2044 35.0857 90.3572 34.5585 90.4812 34.0117H91.5454C91.4605 34.3632 91.3531 34.7245 91.2232 35.0955C91.0992 35.46 90.9596 35.818 90.8034 36.1695C90.6535 36.521 90.5036 36.8464 90.3542 37.1458C90.2044 37.4452 90.0643 37.7056 89.9344 37.9269C89.8041 38.1482 89.7001 38.311 89.622 38.4151H91.7212V36.4917C91.7666 36.381 91.812 36.2638 91.8578 36.1402C91.9096 36.01 91.9584 35.8798 92.0043 35.7496C92.0497 35.613 92.0922 35.4828 92.1312 35.3591C92.1703 35.2354 92.2059 35.1183 92.2386 35.0076H92.7366V38.4151H93.5958V39.2548H92.7366V40.8267H91.7212ZM96.724 40.9439C96.3657 40.9439 96.0406 40.8918 95.7477 40.7877C95.4611 40.677 95.217 40.4915 95.0154 40.2311C94.8201 39.9708 94.6668 39.6193 94.5565 39.1767C94.452 38.7275 94.4003 38.1613 94.4003 37.4778C94.4003 36.7943 94.452 36.2313 94.5565 35.7887C94.6668 35.3396 94.8201 34.9848 95.0154 34.7245C95.217 34.4641 95.4611 34.2818 95.7477 34.1777C96.0406 34.067 96.3657 34.0117 96.724 34.0117C97.0882 34.0117 97.4138 34.067 97.7004 34.1777C97.9865 34.2818 98.2276 34.4641 98.4229 34.7245C98.6245 34.9848 98.7773 35.3396 98.8818 35.7887C98.9921 36.2313 99.0478 36.7943 99.0478 37.4778C99.0478 38.1613 98.9921 38.7275 98.8818 39.1767C98.7773 39.6193 98.6245 39.9708 98.4229 40.2311C98.2276 40.4915 97.9865 40.677 97.7004 40.7877C97.4138 40.8918 97.0882 40.9439 96.724 40.9439ZM96.724 40.1042C97.0687 40.1042 97.3294 40.0163 97.5051 39.8406C97.6872 39.6584 97.8141 39.3915 97.8859 39.04C97.9572 38.6885 97.9933 38.2524 97.9933 37.7317V37.2532C97.9933 36.7195 97.9572 36.2769 97.8859 35.9254C97.8141 35.5674 97.6872 35.3005 97.5051 35.1248C97.3294 34.9425 97.0687 34.8514 96.724 34.8514C96.3852 34.8514 96.125 34.9425 95.943 35.1248C95.7604 35.3005 95.6334 35.5641 95.5622 35.9156C95.4904 36.2671 95.4548 36.7065 95.4548 37.2337V37.7121C95.4548 38.2329 95.4904 38.6722 95.5622 39.0302C95.6334 39.3882 95.7604 39.6584 95.943 39.8406C96.125 40.0163 96.3852 40.1042 96.724 40.1042ZM100.182 42.5158V35.6911H101.012L101.1 36.394H101.168C101.344 36.1207 101.569 35.9156 101.842 35.7789C102.116 35.6422 102.422 35.5739 102.76 35.5739C103.183 35.5739 103.544 35.6683 103.844 35.857C104.15 36.0458 104.384 36.3387 104.547 36.7358C104.709 37.1328 104.791 37.6471 104.791 38.2784C104.791 38.8903 104.706 39.3947 104.537 39.7918C104.374 40.1823 104.143 40.472 103.844 40.6607C103.544 40.8495 103.199 40.9439 102.809 40.9439C102.581 40.9439 102.369 40.9179 102.174 40.8658C101.979 40.8137 101.803 40.7324 101.647 40.6217C101.497 40.511 101.367 40.3711 101.256 40.2019H101.198V42.5158H100.182ZM102.457 40.0652C102.763 40.0652 103.01 40.0066 103.199 39.8894C103.388 39.7658 103.525 39.577 103.609 39.3231C103.701 39.0693 103.746 38.7471 103.746 38.3565V38.1808C103.746 37.7707 103.701 37.4387 103.609 37.1849C103.518 36.931 103.378 36.7455 103.19 36.6284C103.007 36.5112 102.77 36.4526 102.477 36.4526C102.178 36.4526 101.933 36.521 101.744 36.6577C101.556 36.7879 101.416 36.9831 101.325 37.2435C101.24 37.5038 101.198 37.8195 101.198 38.1905V38.3272C101.198 38.6332 101.227 38.8968 101.286 39.1181C101.344 39.3394 101.429 39.5217 101.539 39.6649C101.65 39.8015 101.784 39.9024 101.94 39.9675C102.096 40.0326 102.268 40.0652 102.457 40.0652ZM105.07 40.8267L106.906 38.1905L105.178 35.6911H106.408L107.541 37.4095H107.599L108.742 35.6911H109.903L108.166 38.1613L110.001 40.8267H108.781L107.531 38.9423H107.482L106.232 40.8267H105.07Z" fill="#454545"/>
<path d="M10.5059 56.5649C9.99167 56.5649 9.56207 56.4707 9.21707 56.2818C8.87207 56.0865 8.61173 55.7902 8.43598 55.3933C8.26673 54.9964 8.18213 54.4916 8.18213 53.8799C8.18213 53.2682 8.27 52.7669 8.44575 52.3763C8.62149 51.9794 8.88184 51.6831 9.22684 51.4878C9.57833 51.2926 10.0079 51.1949 10.5156 51.1949C10.8671 51.1949 11.1731 51.2403 11.4334 51.3316C11.6938 51.4161 11.9151 51.5464 12.0973 51.7222C12.2796 51.8916 12.413 52.103 12.4976 52.3568C12.5888 52.6107 12.6343 52.9002 12.6343 53.2258H11.6092C11.6092 52.9524 11.5701 52.7278 11.492 52.5521C11.4139 52.3763 11.2935 52.246 11.1307 52.1615C10.968 52.0702 10.7565 52.0248 10.4961 52.0248C10.2227 52.0248 9.99167 52.0898 9.80289 52.2201C9.61411 52.3436 9.47093 52.536 9.37329 52.7962C9.27565 53.05 9.22684 53.3854 9.22684 53.8018V53.9678C9.22684 54.3647 9.27238 54.6967 9.36353 54.9637C9.46116 55.2239 9.60435 55.4192 9.79313 55.5495C9.9884 55.673 10.2358 55.735 10.5352 55.735C10.7955 55.735 11.0038 55.6896 11.16 55.5983C11.3227 55.5007 11.4432 55.364 11.5213 55.1883C11.6059 55.0062 11.6482 54.788 11.6482 54.5341H12.6343C12.6343 54.8402 12.5888 55.1165 12.4976 55.364C12.413 55.6115 12.2796 55.8263 12.0973 56.0084C11.9216 56.1841 11.7003 56.3208 11.4334 56.4185C11.1665 56.5161 10.8574 56.5649 10.5059 56.5649ZM15.8488 56.5649C15.315 56.5649 14.8626 56.4707 14.4916 56.2818C14.1271 56.0865 13.8505 55.7902 13.6617 55.3933C13.4795 54.9964 13.3883 54.4916 13.3883 53.8799C13.3883 53.2614 13.4795 52.7571 13.6617 52.3666C13.8505 51.9697 14.1271 51.6768 14.4916 51.4878C14.8626 51.2926 15.315 51.1949 15.8488 51.1949C16.3955 51.1949 16.8512 51.2926 17.2157 51.4878C17.5802 51.6768 17.8536 51.9697 18.0358 52.3666C18.2246 52.7571 18.319 53.2614 18.319 53.8799C18.319 54.4916 18.2246 54.9964 18.0358 55.3933C17.8536 55.7902 17.5802 56.0865 17.2157 56.2818C16.8512 56.4707 16.3955 56.5649 15.8488 56.5649ZM15.8488 55.7253C16.1742 55.7253 16.4411 55.6633 16.6494 55.5398C16.8577 55.4094 17.0106 55.2141 17.1083 54.9539C17.2124 54.6937 17.2645 54.3647 17.2645 53.9678V53.7921C17.2645 53.3952 17.2124 53.0661 17.1083 52.8059C17.0106 52.5457 16.8577 52.3534 16.6494 52.2299C16.4411 52.0995 16.1742 52.0346 15.8488 52.0346C15.5298 52.0346 15.2662 52.0995 15.0579 52.2299C14.8497 52.3534 14.6934 52.5457 14.5893 52.8059C14.4916 53.0661 14.4428 53.3952 14.4428 53.7921V53.9678C14.4428 54.3647 14.4916 54.6937 14.5893 54.9539C14.6934 55.2141 14.8497 55.4094 15.0579 55.5398C15.2662 55.6633 15.5298 55.7253 15.8488 55.7253ZM19.354 56.4478V49.3887H20.3694V56.4478H19.354ZM23.2915 56.5649C22.7968 56.5649 22.3965 56.4346 22.0905 56.1744C21.7846 55.9074 21.6317 55.4553 21.6317 54.8172V51.3121H22.6471V54.661C22.6471 54.8563 22.6699 55.0189 22.7154 55.1492C22.7675 55.2795 22.8391 55.3835 22.9302 55.4616C23.0214 55.5398 23.1288 55.5949 23.2524 55.6276C23.3761 55.6603 23.5128 55.6764 23.6625 55.6764C23.8968 55.6764 24.1083 55.6213 24.2971 55.5105C24.4924 55.3933 24.6486 55.2337 24.7658 55.032C24.8829 54.8236 24.9415 54.5863 24.9415 54.3193V51.3121H25.9569V56.4478H25.127L25.0392 55.7155H24.9708C24.8472 55.9044 24.7007 56.0606 24.5315 56.1841C24.3622 56.3077 24.1735 56.4024 23.9652 56.4673C23.7634 56.5322 23.5388 56.5649 23.2915 56.5649ZM27.2679 56.4478V51.3121H28.1075L28.1954 52.0444H28.2637C28.3809 51.8555 28.5144 51.6992 28.664 51.5757C28.8203 51.4522 28.9928 51.3575 29.1815 51.2926C29.3768 51.2277 29.5851 51.1949 29.8064 51.1949C30.1254 51.1949 30.402 51.2599 30.6363 51.3902C30.8772 51.5206 31.0594 51.7383 31.1831 52.0444H31.2514C31.3686 51.8623 31.5053 51.709 31.6615 51.5855C31.8177 51.4551 31.9934 51.3575 32.1887 51.2926C32.3905 51.2277 32.6053 51.1949 32.8331 51.1949C33.1391 51.1949 33.4092 51.2501 33.6435 51.3609C33.8778 51.4649 34.0633 51.6441 34.2 51.8979C34.3367 52.1454 34.4051 52.4774 34.4051 52.8938V56.4478H33.3896V53.0793C33.3896 52.884 33.3669 52.7244 33.3213 52.6009C33.2757 52.4706 33.2139 52.37 33.1358 52.2982C33.0577 52.2201 32.9633 52.165 32.8526 52.1322C32.742 52.0995 32.6216 52.0834 32.4914 52.0834C32.2766 52.0834 32.0846 52.142 31.9153 52.2592C31.7461 52.37 31.6094 52.5262 31.5053 52.7278C31.4011 52.9294 31.349 53.1672 31.349 53.4406V56.4478H30.3336V53.0793C30.3336 52.884 30.3109 52.7244 30.2653 52.6009C30.2197 52.4706 30.1579 52.37 30.0798 52.2982C30.0017 52.2201 29.9073 52.165 29.7966 52.1322C29.686 52.0995 29.5688 52.0834 29.4451 52.0834C29.2303 52.0834 29.0351 52.142 28.8593 52.2592C28.6836 52.37 28.5437 52.5262 28.4395 52.7278C28.3354 52.9294 28.2833 53.1672 28.2833 53.4406V56.4478H27.2679ZM35.668 56.4478V51.3121H36.5077L36.5956 52.0444H36.6639C36.7876 51.8555 36.934 51.6992 37.1033 51.5757C37.2725 51.4522 37.458 51.3575 37.6598 51.2926C37.8681 51.2277 38.0959 51.1949 38.3433 51.1949C38.6687 51.1949 38.9551 51.2535 39.2025 51.3707C39.4498 51.4815 39.6418 51.6636 39.7785 51.9174C39.9217 52.1713 39.9933 52.513 39.9933 52.9426V56.4478H38.9779V53.0988C38.9779 52.9036 38.9518 52.741 38.8998 52.6107C38.8542 52.4803 38.7858 52.3763 38.6948 52.2982C38.6036 52.2201 38.4962 52.165 38.3726 52.1322C38.2488 52.0995 38.1122 52.0834 37.9625 52.0834C37.7282 52.0834 37.5134 52.142 37.3181 52.2592C37.1293 52.37 36.9764 52.5262 36.8592 52.7278C36.742 52.9294 36.6834 53.1672 36.6834 53.4406V56.4478H35.668ZM43.1591 56.5649C42.8011 56.5649 42.4854 56.5259 42.212 56.4478C41.9386 56.3697 41.7108 56.2623 41.5285 56.1256C41.3463 55.9889 41.2063 55.8263 41.1087 55.6374C41.0176 55.4421 40.972 55.2273 40.972 54.993C40.972 54.9603 40.972 54.931 40.972 54.9051C40.9785 54.8792 40.9818 54.8563 40.9818 54.8368H41.9874C41.9874 54.8563 41.9874 54.8758 41.9874 54.8954C41.9874 54.9085 41.9874 54.9246 41.9874 54.9442C41.9874 55.1458 42.0427 55.3088 42.1534 55.4324C42.2641 55.5495 42.4105 55.634 42.5928 55.6862C42.7816 55.7316 42.9866 55.7546 43.2079 55.7546C43.4032 55.7546 43.5822 55.7316 43.7449 55.6862C43.9141 55.634 44.0508 55.5593 44.155 55.4616C44.2656 55.364 44.3209 55.2405 44.3209 55.0906C44.3209 54.8954 44.2526 54.7455 44.1159 54.6415C43.9792 54.5375 43.8002 54.456 43.5789 54.3974C43.3576 54.3325 43.1265 54.2641 42.8857 54.1924C42.6709 54.1338 42.4561 54.0718 42.2413 54.0069C42.033 53.9351 41.8442 53.8443 41.675 53.7335C41.5057 53.6227 41.3691 53.483 41.2649 53.3136C41.1608 53.1442 41.1087 52.9329 41.1087 52.679C41.1087 52.4383 41.1608 52.2265 41.2649 52.0444C41.3691 51.8623 41.5123 51.709 41.6945 51.5855C41.8833 51.462 42.1046 51.3673 42.3585 51.3023C42.6188 51.2374 42.9019 51.2047 43.2079 51.2047C43.5268 51.2047 43.81 51.2403 44.0573 51.3121C44.3047 51.377 44.5129 51.4717 44.6822 51.5952C44.8579 51.7188 44.9914 51.8686 45.0825 52.0444C45.1736 52.2138 45.2192 52.3959 45.2192 52.5911C45.2192 52.6302 45.2159 52.6727 45.2094 52.7181C45.2094 52.7571 45.2094 52.783 45.2094 52.7962H44.2135V52.7083C44.2135 52.578 44.1778 52.4608 44.1061 52.3568C44.0345 52.2528 43.9206 52.1679 43.7644 52.103C43.6147 52.038 43.4129 52.0053 43.1591 52.0053C42.9898 52.0053 42.8401 52.0214 42.7099 52.0541C42.5797 52.08 42.4723 52.1191 42.3877 52.1713C42.3031 52.2235 42.238 52.2851 42.1925 52.3568C42.1534 52.4286 42.1339 52.5096 42.1339 52.6009C42.1339 52.7508 42.186 52.8679 42.2901 52.9524C42.4008 53.0305 42.544 53.0988 42.7197 53.1574C42.8954 53.2097 43.0842 53.2682 43.286 53.3332C43.5203 53.3981 43.7579 53.4664 43.9987 53.5382C44.2396 53.6031 44.4609 53.6881 44.6627 53.7921C44.871 53.896 45.037 54.0396 45.1606 54.2217C45.2908 54.4038 45.3559 54.6478 45.3559 54.9539C45.3559 55.2337 45.3006 55.4778 45.1899 55.6862C45.0792 55.8947 44.923 56.0636 44.7212 56.1939C44.526 56.3174 44.2949 56.4087 44.028 56.4673C43.7611 56.5322 43.4715 56.5649 43.1591 56.5649Z" fill="#292929"/>
<path d="M70.1128 56.4478V55.5984H71.7726V51.1559H70.1128V50.5213C70.3276 50.5081 70.5653 50.4691 70.8255 50.4041C71.0857 50.3392 71.3464 50.2513 71.6066 50.1405C71.8668 50.0297 72.1046 49.8964 72.3194 49.7402H72.7978V55.5984H74.3307V56.4478H70.1128ZM75.1498 56.4478V56.1451C75.1498 55.8654 75.2016 55.6081 75.3056 55.3738C75.4164 55.1331 75.5599 54.9149 75.7357 54.7197C75.9178 54.5244 76.1194 54.3389 76.341 54.1631C76.5622 53.9874 76.7867 53.818 77.0147 53.6554C77.3139 53.4406 77.5907 53.2258 77.8446 53.011C78.0985 52.7962 78.3035 52.5653 78.4597 52.3178C78.6223 52.0703 78.7038 51.794 78.7038 51.4879C78.7038 51.3122 78.6613 51.1496 78.5769 50.9997C78.4988 50.8498 78.3748 50.7298 78.2059 50.6385C78.0365 50.5408 77.8153 50.492 77.5419 50.492C77.2422 50.492 76.9981 50.5442 76.8097 50.6482C76.6271 50.7459 76.4904 50.8826 76.3996 51.0583C76.3146 51.2277 76.2727 51.4259 76.2727 51.6539V52.0542H75.2572C75.2504 52.0215 75.2441 51.9727 75.2377 51.9077C75.2309 51.8428 75.228 51.7613 75.228 51.6636C75.228 51.1818 75.3354 50.7947 75.5502 50.5018C75.7713 50.2025 76.0608 49.9843 76.4191 49.8476C76.7833 49.7046 77.1738 49.6328 77.5908 49.6328C77.994 49.6328 78.3328 49.6914 78.6062 49.8086C78.8859 49.9194 79.107 50.0688 79.2701 50.2577C79.439 50.4466 79.5596 50.6546 79.6313 50.8826C79.7095 51.1105 79.7485 51.3317 79.7485 51.5465C79.7485 51.8589 79.6929 52.1421 79.5825 52.3959C79.4781 52.6498 79.3287 52.8875 79.1334 53.1087C78.9445 53.3298 78.7199 53.5446 78.4597 53.7531C78.2059 53.9547 77.9325 54.1568 77.6396 54.3584C77.457 54.4819 77.2783 54.6088 77.1026 54.7392C76.9332 54.8695 76.7833 55.0028 76.6534 55.1395C76.5231 55.2698 76.4352 55.3968 76.3898 55.5203H79.7876V56.4478H75.1498Z" fill="#454545"/>
<path d="M9.32443 73.8479C9.09011 73.8479 8.86881 73.7991 8.66051 73.7014C8.45874 73.6038 8.29598 73.4637 8.17232 73.2816C8.04867 73.0995 7.98682 72.8779 7.98682 72.6177C7.98682 72.3311 8.06493 72.1002 8.22114 71.9245C8.38385 71.7424 8.57263 71.6057 8.78743 71.5144C8.63121 71.4426 8.50429 71.3386 8.40665 71.202C8.31551 71.0653 8.26996 70.909 8.26996 70.7333C8.26996 70.4926 8.35783 70.2974 8.53358 70.1475C8.70932 69.9976 8.91436 69.9 9.14869 69.8546C8.92085 69.7047 8.74189 69.5163 8.61169 69.2883C8.48803 69.0603 8.42618 68.8035 8.42618 68.517C8.42618 68.1718 8.50756 67.876 8.67027 67.6285C8.83298 67.3746 9.07385 67.1759 9.39278 67.0329C9.71825 66.8899 10.112 66.8181 10.5742 66.8181C10.7759 66.8181 10.9647 66.8342 11.1405 66.8669C11.3227 66.8928 11.4855 66.9318 11.6286 66.9841C11.8565 66.8669 12.0192 66.7268 12.1168 66.5642C12.2145 66.3948 12.273 66.2386 12.2926 66.0956H13.2885C13.2885 66.3104 13.2429 66.5057 13.1518 66.6814C13.0672 66.8508 12.9467 66.9938 12.7905 67.111C12.6408 67.2218 12.4586 67.2999 12.2438 67.3453C12.4065 67.4952 12.5269 67.6709 12.605 67.8726C12.6896 68.0678 12.7319 68.2826 12.7319 68.517C12.7319 68.8553 12.6538 69.1516 12.4976 69.4054C12.3414 69.6593 12.1038 69.858 11.7849 70.001C11.4724 70.1441 11.0852 70.2158 10.623 70.2158H9.82238C9.66616 70.2158 9.53923 70.2485 9.4416 70.3135C9.35045 70.3784 9.3049 70.476 9.3049 70.6064C9.3049 70.7172 9.35045 70.808 9.4416 70.8798C9.53274 70.9515 9.65312 70.9872 9.80285 70.9872H11.9704C12.3479 70.9872 12.6603 71.1141 12.9077 71.3679C13.155 71.6154 13.2787 71.9342 13.2787 72.3248C13.2787 72.6113 13.2039 72.8681 13.0541 73.0961C12.911 73.3304 12.7059 73.5125 12.439 73.6429C12.1787 73.7796 11.876 73.8479 11.531 73.8479H9.32443ZM9.6564 73.0961H11.5212C11.6579 73.0961 11.7816 73.0702 11.8923 73.018C12.0029 72.9658 12.0908 72.8911 12.1559 72.7934C12.221 72.7021 12.2535 72.5982 12.2535 72.481C12.2535 72.2857 12.1917 72.1329 12.068 72.0221C11.9508 71.9113 11.8044 71.8561 11.6286 71.8561H9.6564C9.47416 71.8561 9.32116 71.9181 9.1975 72.0416C9.07385 72.1588 9.012 72.3052 9.012 72.481C9.012 72.6631 9.07058 72.8095 9.18774 72.9204C9.3114 73.0375 9.46762 73.0961 9.6564 73.0961ZM10.5839 69.4836C10.968 69.4836 11.2544 69.3991 11.4431 69.2297C11.6319 69.054 11.7263 68.8162 11.7263 68.517C11.7263 68.2109 11.6319 67.9765 11.4431 67.814C11.2544 67.6446 10.968 67.5601 10.5839 67.5601C10.1999 67.5601 9.91352 67.6446 9.72474 67.814C9.53596 67.9765 9.4416 68.2109 9.4416 68.517C9.4416 68.7122 9.48065 68.8846 9.55876 69.0344C9.64336 69.1775 9.77029 69.2883 9.93954 69.3664C10.1153 69.4445 10.3301 69.4836 10.5839 69.4836ZM15.6731 72.1881C15.1785 72.1881 14.7781 72.0577 14.4722 71.7975C14.1663 71.5305 14.0133 71.0784 14.0133 70.4404V66.9353H15.0287V70.2842C15.0287 70.4794 15.0515 70.642 15.0971 70.7724C15.1492 70.9027 15.2208 71.0067 15.3119 71.0848C15.403 71.1629 15.5104 71.2181 15.6341 71.2508C15.7578 71.2835 15.8945 71.2996 16.0441 71.2996C16.2785 71.2996 16.49 71.2444 16.6788 71.1336C16.8741 71.0164 17.0303 70.8568 17.1474 70.6552C17.2646 70.4467 17.3232 70.2095 17.3232 69.9424V66.9353H18.3386V72.0709H17.5087L17.4208 71.3386H17.3525C17.2288 71.5276 17.0824 71.6838 16.9131 71.8073C16.7439 71.9308 16.5551 72.0255 16.3468 72.0904C16.1451 72.1554 15.9205 72.1881 15.6731 72.1881ZM20.9286 72.1881C20.6357 72.1881 20.4046 72.1329 20.2354 72.0221C20.0726 71.9049 19.9554 71.7585 19.8839 71.5827C19.8188 71.4006 19.7862 71.2083 19.7862 71.0067V67.7749H19.1418V66.9353H19.8058L19.9913 65.5H20.8017V66.9353H21.7292V67.7749H20.8017V70.8895C20.8017 71.0394 20.8342 71.1531 20.8993 71.2312C20.9644 71.3094 21.0718 71.3484 21.2215 71.3484H21.7292V72.0319C21.6641 72.0577 21.5828 72.0807 21.4851 72.1002C21.394 72.1261 21.2996 72.1456 21.202 72.1588C21.1043 72.1783 21.0132 72.1881 20.9286 72.1881ZM23.9034 72.1881C23.6105 72.1881 23.3795 72.1329 23.2102 72.0221C23.0475 71.9049 22.9303 71.7585 22.8587 71.5827C22.7936 71.4006 22.7611 71.2083 22.7611 71.0067V67.7749H22.1167V66.9353H22.7806L22.9661 65.5H23.7765V66.9353H24.704V67.7749H23.7765V70.8895C23.7765 71.0394 23.8091 71.1531 23.8741 71.2312C23.9392 71.3094 24.0466 71.3484 24.1963 71.3484H24.704V72.0319C24.639 72.0577 24.5576 72.0807 24.4599 72.1002C24.3688 72.1261 24.2744 72.1456 24.1768 72.1588C24.0792 72.1783 23.988 72.1881 23.9034 72.1881ZM27.7277 72.1881C27.2005 72.1881 26.7579 72.0939 26.3999 71.9049C26.0484 71.7097 25.7815 71.4133 25.5993 71.0164C25.417 70.6196 25.3259 70.1148 25.3259 69.5031C25.3259 68.8846 25.417 68.3803 25.5993 67.9897C25.7815 67.5928 26.0516 67.2999 26.4096 67.111C26.7676 66.9157 27.2135 66.8181 27.7473 66.8181C28.2354 66.8181 28.6422 66.9123 28.9677 67.1012C29.2997 67.2833 29.5503 67.5635 29.7195 67.9409C29.8887 68.3183 29.9734 68.7938 29.9734 69.3664V69.7569H26.3706C26.3836 70.1216 26.4389 70.4272 26.5366 70.6747C26.6342 70.9154 26.7807 71.0946 26.9759 71.2117C27.1777 71.3225 27.4315 71.3777 27.7375 71.3777C27.9262 71.3777 28.0955 71.3548 28.2452 71.3094C28.3949 71.2571 28.5218 71.1858 28.626 71.0946C28.7301 70.9969 28.8115 70.8832 28.8701 70.7528C28.9287 70.6161 28.9579 70.4633 28.9579 70.2939H29.9538C29.9538 70.6 29.9017 70.87 29.7976 71.1043C29.6934 71.3386 29.5405 71.5373 29.3387 71.6999C29.1435 71.8561 28.9091 71.9767 28.6357 72.0612C28.3624 72.1456 28.0597 72.1881 27.7277 72.1881ZM26.3901 69.0149H28.9091C28.9091 68.7611 28.8798 68.5497 28.8213 68.3803C28.7692 68.2045 28.6911 68.0615 28.5869 67.9507C28.4827 67.8399 28.3591 67.7617 28.2159 67.7163C28.0727 67.6641 27.91 67.6382 27.7277 67.6382C27.4543 67.6382 27.22 67.6871 27.0247 67.7847C26.836 67.8823 26.6895 68.0351 26.5854 68.2436C26.4812 68.4452 26.4161 68.7025 26.3901 69.0149ZM31.0055 72.0709V66.9353H31.8451L31.933 67.7652H31.9916C32.0502 67.6026 32.125 67.4493 32.2162 67.3063C32.3138 67.1632 32.4375 67.0461 32.5872 66.9548C32.7434 66.8635 32.9321 66.8181 33.1535 66.8181C33.2576 66.8181 33.3487 66.8279 33.4268 66.8474C33.5115 66.8669 33.5765 66.883 33.6221 66.8962V67.853H33.2804C33.0721 67.853 32.8866 67.8857 32.7239 67.9507C32.5677 68.0156 32.4342 68.1132 32.3236 68.2436C32.2194 68.3671 32.1413 68.5204 32.0892 68.7025C32.0436 68.8846 32.0209 69.0896 32.0209 69.3176V72.0709H31.0055ZM36.2749 72.1881C35.9169 72.1881 35.6012 72.149 35.3278 72.0709C35.0544 71.9928 34.8267 71.8854 34.6444 71.7487C34.4621 71.612 34.3222 71.4495 34.2245 71.2605C34.1334 71.0653 34.0878 70.8505 34.0878 70.6161C34.0878 70.5834 34.0878 70.5541 34.0878 70.5283C34.0944 70.5024 34.0976 70.4794 34.0976 70.4599H35.1033C35.1033 70.4794 35.1033 70.499 35.1033 70.5185C35.1033 70.5317 35.1033 70.5478 35.1033 70.5673C35.1033 70.7689 35.1586 70.932 35.2692 71.0555C35.3799 71.1727 35.5264 71.2571 35.7086 71.3094C35.8974 71.3548 36.1024 71.3777 36.3237 71.3777C36.519 71.3777 36.698 71.3548 36.8607 71.3094C37.03 71.2571 37.1667 71.1824 37.2708 71.0848C37.3815 70.9872 37.4368 70.8636 37.4368 70.7138C37.4368 70.5185 37.3684 70.3686 37.2317 70.2646C37.095 70.1607 36.9161 70.0791 36.6947 70.0206C36.4734 69.9556 36.2424 69.8873 36.0015 69.8155C35.7867 69.7569 35.5719 69.6949 35.3571 69.63C35.1489 69.5583 34.9601 69.4675 34.7908 69.3566C34.6216 69.2458 34.4849 69.1062 34.3808 68.9368C34.2766 68.7674 34.2245 68.556 34.2245 68.3022C34.2245 68.0615 34.2766 67.8496 34.3808 67.6675C34.4849 67.4854 34.6281 67.3321 34.8104 67.2086C34.9991 67.0851 35.2204 66.9904 35.4743 66.9255C35.7347 66.8606 36.0178 66.8279 36.3237 66.8279C36.6427 66.8279 36.9258 66.8635 37.1731 66.9353C37.4205 67.0002 37.6288 67.0949 37.798 67.2184C37.9738 67.3419 38.1072 67.4918 38.1983 67.6675C38.2895 67.8369 38.335 68.019 38.335 68.2143C38.335 68.2533 38.3318 68.2958 38.3253 68.3412C38.3253 68.3803 38.3253 68.4061 38.3253 68.4193H37.3294V68.3315C37.3294 68.2011 37.2936 68.0839 37.222 67.98C37.1504 67.876 37.0365 67.791 36.8802 67.7261C36.7306 67.6612 36.5288 67.6285 36.2749 67.6285C36.1057 67.6285 35.956 67.6446 35.8258 67.6773C35.6956 67.7032 35.5882 67.7422 35.5036 67.7945C35.419 67.8467 35.3539 67.9082 35.3083 67.98C35.2692 68.0517 35.2497 68.1328 35.2497 68.2241C35.2497 68.3739 35.3018 68.4911 35.4059 68.5755C35.5166 68.6536 35.6598 68.722 35.8355 68.7806C36.0113 68.8328 36.2001 68.8914 36.4018 68.9563C36.6362 69.0212 36.8737 69.0896 37.1146 69.1614C37.3554 69.2263 37.5767 69.3112 37.7785 69.4152C37.9868 69.5192 38.1528 69.6627 38.2764 69.8448C38.4066 70.0269 38.4717 70.271 38.4717 70.5771C38.4717 70.8568 38.4164 71.1009 38.3057 71.3094C38.1951 71.5178 38.0389 71.6867 37.8371 71.8171C37.6418 71.9406 37.4107 72.0319 37.1439 72.0904C36.877 72.1554 36.5873 72.1881 36.2749 72.1881Z" fill="#292929"/>
<path d="M69.8101 72.0709V71.7682C69.8101 71.4885 69.8623 71.2312 69.9663 70.9969C70.0771 70.7562 70.2201 70.538 70.3959 70.3427C70.578 70.1474 70.7801 69.9619 71.0012 69.7862C71.2224 69.6104 71.4469 69.441 71.6749 69.2785C71.9742 69.0637 72.251 68.8489 72.5048 68.6341C72.7587 68.4193 72.9637 68.1884 73.1199 67.9409C73.2825 67.6933 73.364 67.417 73.364 67.1109C73.364 66.9352 73.3215 66.7726 73.2371 66.6228C73.159 66.4729 73.0355 66.3528 72.8661 66.2615C72.6967 66.1639 72.4755 66.1151 72.2021 66.1151C71.9029 66.1151 71.6588 66.1673 71.4699 66.2713C71.2878 66.3689 71.1511 66.5056 71.0598 66.6814C70.9753 66.8508 70.9329 67.0489 70.9329 67.2769V67.6772H69.9175C69.9111 67.6445 69.9043 67.5957 69.8979 67.5308C69.8916 67.4659 69.8882 67.3843 69.8882 67.2867C69.8882 66.8049 69.9956 66.4177 70.2104 66.1248C70.4315 65.8256 70.7215 65.6074 71.0793 65.4707C71.444 65.3276 71.8345 65.2559 72.251 65.2559C72.6547 65.2559 72.993 65.3144 73.2664 65.4316C73.5461 65.5424 73.7677 65.6918 73.9303 65.8807C74.0997 66.0697 74.2198 66.2776 74.2916 66.5056C74.3697 66.7336 74.4087 66.9547 74.4087 67.1695C74.4087 67.482 74.3536 67.7651 74.2427 68.019C74.1388 68.2728 73.9889 68.5106 73.7936 68.7317C73.6047 68.9529 73.3801 69.1677 73.1199 69.3761C72.8661 69.5777 72.5927 69.7798 72.2998 69.9815C72.1177 70.105 71.9385 70.2319 71.7628 70.3622C71.5934 70.4926 71.444 70.6259 71.3137 70.7625C71.1833 70.8929 71.0954 71.0198 71.05 71.1433H74.4478V72.0709H69.8101ZM78.2292 72.0709V70.4989H75.1927V69.6593C75.4593 69.2038 75.7034 68.7449 75.925 68.2826C76.1462 67.8203 76.3478 67.3389 76.5304 66.8376C76.7125 66.3299 76.8652 65.8026 76.9892 65.2559H78.0535C77.9685 65.6073 77.8611 65.9686 77.7313 66.3396C77.6073 66.7043 77.4677 67.0621 77.3114 67.4136C77.1616 67.7651 77.0117 68.0907 76.8623 68.39C76.7124 68.6892 76.5723 68.9499 76.4425 69.1711C76.3121 69.3922 76.2082 69.5553 76.13 69.6593H78.2292V67.7358C78.2746 67.625 78.32 67.5078 78.3659 67.3843C78.4177 67.254 78.4665 67.1241 78.5124 66.9938C78.5578 66.8571 78.6002 66.7268 78.6393 66.6032C78.6784 66.4797 78.714 66.3626 78.7467 66.2518H79.2446V69.6593H80.1038V70.4989H79.2446V72.0709H78.2292ZM81.0841 73.76V66.9352H81.914L82.0019 67.6382H82.0702C82.246 67.3648 82.4705 67.1598 82.7439 67.0231C83.0173 66.8864 83.3234 66.818 83.6617 66.818C84.085 66.818 84.4462 66.9123 84.7455 67.1012C85.0516 67.2901 85.2859 67.583 85.4484 67.9799C85.611 68.3768 85.6925 68.8913 85.6925 69.5226C85.6925 70.1343 85.6081 70.639 85.4387 71.0359C85.2761 71.4265 85.0447 71.716 84.7455 71.9049C84.4462 72.0938 84.1011 72.188 83.7105 72.188C83.4825 72.188 83.2712 72.1622 83.0759 72.1099C82.8806 72.0577 82.7049 71.9767 82.5486 71.8658C82.3988 71.755 82.2689 71.6154 82.1581 71.446H82.0995V73.76H81.0841ZM83.359 71.3093C83.6651 71.3093 83.9121 71.2507 84.1011 71.1336C84.29 71.0101 84.4267 70.8211 84.5111 70.5673C84.6024 70.3134 84.6478 69.9912 84.6478 69.6007V69.4249C84.6478 69.0149 84.6024 68.6829 84.5111 68.429C84.4198 68.1752 84.2802 67.9897 84.0913 67.8725C83.9092 67.7553 83.6715 67.6968 83.3786 67.6968C83.0793 67.6968 82.8352 67.7651 82.6463 67.9018C82.4574 68.0322 82.3177 68.2274 82.2265 68.4876C82.142 68.7478 82.0995 69.0637 82.0995 69.4347V69.5714C82.0995 69.8775 82.1288 70.1411 82.1874 70.3622C82.246 70.5834 82.3304 70.766 82.4412 70.909C82.5521 71.0457 82.6853 71.1467 82.8416 71.2117C82.9978 71.2766 83.1701 71.3093 83.359 71.3093ZM85.9723 72.0709L87.8078 69.4347L86.0797 66.9352H87.3099L88.4425 68.6536H88.501L89.6434 66.9352H90.8053L89.0673 69.4054L90.9029 72.0709H89.6824L88.4327 70.1865H88.3839L87.1341 72.0709H85.9723Z" fill="#454545"/>
<path d="M9.74426 87.8092C9.45135 87.8092 9.2203 87.754 9.05105 87.6432C8.88833 87.526 8.77117 87.3796 8.69955 87.2038C8.63448 87.0217 8.60192 86.8294 8.60192 86.6278V83.396H7.95752V82.5563H8.62145L8.80696 81.1211H9.61734V82.5563H10.5449V83.396H9.61734V86.5106C9.61734 86.6605 9.6499 86.7742 9.71497 86.8523C9.78005 86.9304 9.88745 86.9695 10.0372 86.9695H10.5449V87.653C10.4798 87.6788 10.3984 87.7018 10.3008 87.7213C10.2096 87.7472 10.1153 87.7667 10.0176 87.7799C9.92001 87.7994 9.82886 87.8092 9.74426 87.8092ZM11.9966 89.469C11.8014 89.469 11.6386 89.4529 11.5084 89.4202C11.3783 89.3943 11.2969 89.3777 11.2644 89.3714V88.6391H11.7525C11.8957 88.6391 12.0389 88.6064 12.1821 88.5414C12.3318 88.4765 12.4653 88.3721 12.5824 88.229C12.6996 88.086 12.7972 87.9068 12.8754 87.692L10.8738 82.5563H11.938L12.9339 85.1144C12.9795 85.2316 13.0283 85.378 13.0804 85.5538C13.139 85.7295 13.1943 85.9087 13.2464 86.0908C13.305 86.2729 13.3538 86.4359 13.3928 86.579H13.4416C13.4742 86.4813 13.5067 86.3705 13.5393 86.247C13.5783 86.1166 13.6174 85.9834 13.6564 85.8467C13.6955 85.71 13.7346 85.5797 13.7736 85.4561C13.8127 85.3258 13.8452 85.2155 13.8712 85.1242L14.7012 82.5563H15.7361L13.9982 87.4967C13.9005 87.7701 13.7931 88.0274 13.676 88.2681C13.5588 88.5087 13.4221 88.7172 13.2659 88.8929C13.1162 89.075 12.9372 89.2151 12.7289 89.3128C12.5206 89.4168 12.2765 89.469 11.9966 89.469ZM16.4745 89.3811V82.5563H17.3044L17.3923 83.2593H17.4606C17.6363 82.9859 17.8609 82.7809 18.1343 82.6442C18.4077 82.5075 18.7136 82.4392 19.0521 82.4392C19.4751 82.4392 19.8364 82.5334 20.1358 82.7223C20.4417 82.9113 20.676 83.2042 20.8388 83.6011C21.0015 83.9979 21.0829 84.5125 21.0829 85.1437C21.0829 85.7554 20.9982 86.2602 20.829 86.6571C20.6663 87.0476 20.4352 87.3371 20.1358 87.526C19.8364 87.715 19.4914 87.8092 19.1009 87.8092C18.873 87.8092 18.6615 87.7833 18.4662 87.7311C18.271 87.6788 18.0952 87.5978 17.939 87.487C17.7893 87.3762 17.6591 87.2365 17.5485 87.0671H17.4899V89.3811H16.4745ZM18.7494 86.9305C19.0553 86.9305 19.3026 86.8719 19.4914 86.7547C19.6802 86.6312 19.8168 86.4423 19.9015 86.1884C19.9926 85.9346 20.0382 85.6124 20.0382 85.2218V85.0461C20.0382 84.636 19.9926 84.304 19.9015 84.0502C19.8104 83.7963 19.6704 83.6108 19.4817 83.4937C19.2994 83.3765 19.0618 83.3179 18.7689 83.3179C18.4695 83.3179 18.2254 83.3863 18.0366 83.523C17.8479 83.6533 17.7079 83.8486 17.6168 84.1088C17.5322 84.369 17.4899 84.6848 17.4899 85.0558V85.1925C17.4899 85.4986 17.5192 85.7622 17.5778 85.9834C17.6363 86.2045 17.7209 86.3871 17.8316 86.5301C17.9422 86.6668 18.0757 86.7679 18.2319 86.8328C18.3881 86.8977 18.5606 86.9305 18.7494 86.9305ZM24.257 87.8092C23.7298 87.8092 23.2872 87.715 22.9292 87.526C22.5777 87.3308 22.3108 87.0344 22.1286 86.6375C21.9463 86.2406 21.8552 85.7359 21.8552 85.1242C21.8552 84.5057 21.9463 84.0014 22.1286 83.6108C22.3108 83.2139 22.5809 82.921 22.939 82.7321C23.2969 82.5368 23.7428 82.4392 24.2766 82.4392C24.7648 82.4392 25.1716 82.5334 25.497 82.7223C25.829 82.9044 26.0796 83.1846 26.2488 83.562C26.418 83.9394 26.5027 84.4149 26.5027 84.9875V85.378H22.8999C22.9129 85.7427 22.9683 86.0483 23.0659 86.2958C23.1635 86.5365 23.31 86.7157 23.5053 86.8328C23.707 86.9436 23.9609 86.9988 24.2668 86.9988C24.4555 86.9988 24.6248 86.9759 24.7745 86.9305C24.9242 86.8782 25.0511 86.8069 25.1553 86.7156C25.2594 86.618 25.3408 86.5043 25.3994 86.3739C25.458 86.2372 25.4873 86.0844 25.4873 85.915H26.4832C26.4832 86.2211 26.4311 86.4911 26.3269 86.7254C26.2228 86.9597 26.0698 87.1584 25.868 87.321C25.6728 87.4772 25.4384 87.5978 25.1651 87.6822C24.8917 87.7667 24.589 87.8092 24.257 87.8092ZM22.9194 84.636H25.4384C25.4384 84.3821 25.4092 84.1708 25.3506 84.0014C25.2985 83.8256 25.2204 83.6826 25.1162 83.5718C25.0121 83.4609 24.8884 83.3828 24.7452 83.3374C24.602 83.2852 24.4393 83.2593 24.257 83.2593C23.9837 83.2593 23.7493 83.3081 23.5541 83.4058C23.3653 83.5034 23.2188 83.6562 23.1147 83.8647C23.0105 84.0663 22.9455 84.3236 22.9194 84.636Z" fill="#292929"/>
<path d="M71.8702 87.8091C71.5123 87.8091 71.1965 87.77 70.9231 87.6919C70.6497 87.6138 70.4217 87.5064 70.2396 87.3697C70.0575 87.233 69.9174 87.0705 69.8198 86.8815C69.7285 86.6863 69.6831 86.4715 69.6831 86.2371C69.6831 86.2044 69.6831 86.1751 69.6831 86.1493C69.6895 86.1234 69.6929 86.1004 69.6929 86.0809H70.6985C70.6985 86.1004 70.6985 86.12 70.6985 86.1395C70.6985 86.1527 70.6985 86.1688 70.6985 86.1883C70.6985 86.3899 70.7537 86.553 70.8645 86.6765C70.9753 86.7937 71.1218 86.8781 71.3039 86.9304C71.4928 86.9758 71.6978 86.9987 71.919 86.9987C72.1142 86.9987 72.2934 86.9758 72.456 86.9304C72.6254 86.8781 72.7621 86.8034 72.866 86.7058C72.9769 86.6081 73.032 86.4846 73.032 86.3348C73.032 86.1395 72.9637 85.9896 72.827 85.8856C72.6903 85.7817 72.5111 85.7001 72.29 85.6416C72.0688 85.5766 71.8374 85.5083 71.5968 85.4365C71.382 85.3779 71.1672 85.3159 70.9524 85.251C70.7439 85.1792 70.5555 85.0884 70.3861 84.9776C70.2167 84.8668 70.08 84.7272 69.976 84.5578C69.872 84.3884 69.8198 84.177 69.8198 83.9232C69.8198 83.6825 69.872 83.4706 69.976 83.2885C70.08 83.1064 70.2235 82.9531 70.4056 82.8296C70.5945 82.7061 70.8157 82.6114 71.0695 82.5465C71.3297 82.4816 71.6129 82.4488 71.919 82.4488C72.2378 82.4488 72.5209 82.4845 72.7684 82.5562C73.0159 82.6212 73.2239 82.7159 73.3933 82.8394C73.569 82.9629 73.7023 83.1128 73.7936 83.2885C73.8849 83.4579 73.9303 83.64 73.9303 83.8353C73.9303 83.8743 73.9269 83.9168 73.9205 83.9622C73.9205 84.0013 73.9205 84.0271 73.9205 84.0403H72.9246V83.9524C72.9246 83.8221 72.889 83.7049 72.8172 83.601C72.7455 83.497 72.6317 83.412 72.4755 83.3471C72.3256 83.2822 72.124 83.2495 71.8702 83.2495C71.7008 83.2495 71.5514 83.2656 71.421 83.2983C71.2907 83.3242 71.1833 83.3632 71.0988 83.4154C71.0144 83.4677 70.949 83.5292 70.9036 83.601C70.8645 83.6727 70.845 83.7538 70.845 83.845C70.845 83.9949 70.8972 84.1121 71.0012 84.1965C71.112 84.2746 71.255 84.343 71.4308 84.4016C71.6065 84.4538 71.7955 84.5124 71.9971 84.5773C72.2314 84.6422 72.4692 84.7106 72.7098 84.7823C72.9505 84.8473 73.1721 84.9322 73.3738 85.0362C73.5822 85.1402 73.7482 85.2837 73.8717 85.4658C74.002 85.6479 74.067 85.892 74.067 86.1981C74.067 86.4778 74.0118 86.7219 73.901 86.9304C73.7902 87.1388 73.6339 87.3077 73.4323 87.4381C73.2371 87.5616 73.0062 87.6529 72.7391 87.7114C72.4721 87.7764 72.1826 87.8091 71.8702 87.8091ZM76.3751 87.8091C76.0822 87.8091 75.8513 87.7539 75.6819 87.6431C75.5193 87.5259 75.4021 87.3795 75.3304 87.2037C75.2655 87.0216 75.2327 86.8293 75.2327 86.6277V83.3959H74.5883V82.5562H75.2523L75.4378 81.121H76.2482V82.5562H77.1757V83.3959H76.2482V86.5105C76.2482 86.6604 76.2809 86.7741 76.3458 86.8522C76.4112 86.9303 76.5186 86.9694 76.668 86.9694H77.1757V87.6529C77.1108 87.6787 77.0292 87.7017 76.9316 87.7212C76.8408 87.7471 76.7461 87.7666 76.6485 87.7798C76.5508 87.7993 76.46 87.8091 76.3751 87.8091ZM78.071 87.6919V82.5562H78.9107L78.9986 83.3862H79.0572C79.1157 83.2236 79.1904 83.0703 79.2817 82.9273C79.3793 82.7842 79.5029 82.6671 79.6527 82.5758C79.809 82.4845 79.9979 82.4391 80.219 82.4391C80.323 82.4391 80.4143 82.4489 80.4924 82.4684C80.5769 82.4879 80.6423 82.504 80.6877 82.5172V83.474H80.3459C80.1375 83.474 79.952 83.5067 79.7894 83.5717C79.6332 83.6366 79.4999 83.7342 79.3891 83.8646C79.2851 83.9881 79.207 84.1414 79.1548 84.3235C79.1094 84.5056 79.0864 84.7106 79.0864 84.9386V87.6919H78.071ZM83.4796 87.8091C82.9524 87.8091 82.5096 87.7149 82.1517 87.5259C81.8002 87.3307 81.5332 87.0343 81.3511 86.6374C81.1685 86.2405 81.0777 85.7358 81.0777 85.1241C81.0777 84.5056 81.1685 84.0013 81.3511 83.6107C81.5332 83.2138 81.8032 82.9209 82.1615 82.732C82.5193 82.5367 82.965 82.4391 83.4991 82.4391C83.9873 82.4391 84.3939 82.5333 84.7196 82.7222C85.0515 82.9043 85.302 83.1845 85.4714 83.5619C85.6403 83.9393 85.7252 84.4148 85.7252 84.9874V85.3779H82.1224C82.1351 85.7426 82.1908 86.0482 82.2884 86.2957C82.3861 86.5364 82.5325 86.7156 82.7278 86.8327C82.9294 86.9435 83.1833 86.9987 83.4893 86.9987C83.6778 86.9987 83.8472 86.9758 83.9971 86.9304C84.1464 86.8781 84.2734 86.8068 84.3778 86.7155C84.4818 86.6179 84.5633 86.5042 84.6219 86.3738C84.6805 86.2371 84.7098 86.0843 84.7098 85.9149H85.7057C85.7057 86.221 85.6535 86.491 85.5495 86.7253C85.445 86.9596 85.2922 87.1583 85.0906 87.3209C84.8953 87.4771 84.661 87.5977 84.3876 87.6821C84.1142 87.7666 83.8115 87.8091 83.4796 87.8091ZM82.142 84.6359H84.661C84.661 84.382 84.6317 84.1707 84.5731 84.0013C84.5209 83.8255 84.4428 83.6825 84.3388 83.5717C84.2343 83.4608 84.1108 83.3827 83.9678 83.3373C83.8242 83.2851 83.6617 83.2592 83.4796 83.2592C83.2062 83.2592 82.9719 83.308 82.7766 83.4057C82.5877 83.5033 82.4412 83.6561 82.3372 83.8646C82.2328 84.0662 82.1678 84.3235 82.142 84.6359ZM88.0363 87.8091C87.7434 87.8091 87.5124 87.7539 87.343 87.6431C87.1805 87.5259 87.0633 87.3795 86.9916 87.2037C86.9266 87.0216 86.8939 86.8293 86.8939 86.6277V83.3959H86.2495V82.5562H86.9134L87.099 81.121H87.9093V82.5562H88.8369V83.3959H87.9093V86.5105C87.9093 86.6604 87.942 86.7741 88.007 86.8522C88.0719 86.9303 88.1793 86.9694 88.3292 86.9694H88.8369V87.6529C88.772 87.6787 88.6904 87.7017 88.5928 87.7212C88.5015 87.7471 88.4073 87.7666 88.3096 87.7798C88.212 87.7993 88.1207 87.8091 88.0363 87.8091ZM91.7728 87.8091C91.2583 87.8091 90.8287 87.7149 90.484 87.5259C90.1389 87.3307 89.8787 87.0343 89.7029 86.6374C89.5335 86.2405 89.4491 85.7358 89.4491 85.1241C89.4491 84.5124 89.5369 84.011 89.7127 83.6205C89.8884 83.2236 90.1486 82.9273 90.4938 82.732C90.8453 82.5367 91.2749 82.4391 91.7826 82.4391C92.1341 82.4391 92.4397 82.4845 92.7003 82.5758C92.9605 82.6602 93.1817 82.7906 93.3643 82.9663C93.5464 83.1357 93.6796 83.3471 93.7646 83.601C93.8554 83.8548 93.9013 84.1443 93.9013 84.4699H92.8761C92.8761 84.1965 92.837 83.972 92.7589 83.7962C92.6808 83.6205 92.5602 83.4901 92.3977 83.4057C92.2346 83.3144 92.0232 83.269 91.763 83.269C91.4897 83.269 91.2583 83.3339 91.0698 83.4643C90.8809 83.5878 90.7379 83.7801 90.6402 84.0403C90.5426 84.2942 90.4938 84.6296 90.4938 85.046V85.212C90.4938 85.6088 90.5392 85.9408 90.6305 86.2078C90.7281 86.468 90.8711 86.6633 91.0601 86.7937C91.2553 86.9172 91.5023 86.9792 91.8021 86.9792C92.0623 86.9792 92.2707 86.9338 92.427 86.8425C92.5895 86.7448 92.7101 86.6081 92.7882 86.4324C92.8727 86.2503 92.9151 86.0321 92.9151 85.7782H93.9013C93.9013 86.0843 93.8554 86.3606 93.7646 86.6081C93.6796 86.8557 93.5464 87.0705 93.3643 87.2526C93.1885 87.4283 92.9669 87.565 92.7003 87.6626C92.4333 87.7603 92.1243 87.8091 91.7728 87.8091ZM94.9284 87.6919V80.6328H95.9438V83.1714H96.0122C96.1362 83.0151 96.2758 82.8848 96.432 82.7808C96.5882 82.67 96.764 82.5855 96.9592 82.527C97.1545 82.4684 97.3693 82.4391 97.6036 82.4391C97.9292 82.4391 98.2158 82.4977 98.4628 82.6148C98.7103 82.7257 98.9022 82.9077 99.0389 83.1616C99.1824 83.4154 99.2537 83.7572 99.2537 84.1868V87.6919H98.2383V84.343C98.2383 84.1477 98.2124 83.9852 98.1602 83.8548C98.1148 83.7245 98.0464 83.6205 97.9551 83.5424C97.8643 83.4643 97.7569 83.4091 97.6329 83.3764C97.5094 83.3437 97.3727 83.3276 97.2229 83.3276C96.9885 83.3276 96.7737 83.3827 96.5784 83.4936C96.39 83.6044 96.2367 83.7606 96.1196 83.9622C96.0024 84.1638 95.9438 84.405 95.9438 84.6847V87.6919H94.9284Z" fill="#454545"/>
</g>
</g>
<defs>
<filter id="filter0_d_4782_5937" x="-0.000347137" y="102.823" width="718.602" height="406.167" filterUnits="userSpaceOnUse" color-interpolation-filters="sRGB">
<feFlood flood-opacity="0" result="BackgroundImageFix"/>
<feColorMatrix in="SourceAlpha" type="matrix" values="0 0 0 0 0 0 0 0 0 0 0 0 0 0 0 0 0 0 127 0" result="hardAlpha"/>
<feOffset dy="3.90545"/>
<feGaussianBlur stdDeviation="3.90545"/>
<feComposite in2="hardAlpha" operator="out"/>
<feColorMatrix type="matrix" values="0 0 0 0 0 0 0 0 0 0 0 0 0 0 0 0 0 0 0.08 0"/>
<feBlend mode="normal" in2="BackgroundImageFix" result="effect1_dropShadow_4782_5937"/>
<feBlend mode="normal" in="SourceGraphic" in2="effect1_dropShadow_4782_5937" result="shape"/>
</filter>
<clipPath id="clip0_4782_5937">
<rect width="718.602" height="508.196" fill="white" transform="translate(0 0.794922)"/>
</clipPath>
<clipPath id="clip1_4782_5937">
<rect width="718.602" height="508.196" fill="white" transform="translate(0 0.794922)"/>
</clipPath>
</defs>
</svg>
