<svg width="950" height="221" viewBox="0 0 950 221" fill="none" xmlns="http://www.w3.org/2000/svg">
<path d="M218.774 11.1387V14.792H217.254V5.37866H220.454C221.538 5.37866 222.352 5.63644 222.894 6.15199C223.445 6.66755 223.721 7.37421 223.721 8.27199C223.721 9.16088 223.441 9.8631 222.881 10.3787C222.321 10.8853 221.512 11.1387 220.454 11.1387H218.774ZM220.294 9.89866C221.547 9.89866 222.174 9.35644 222.174 8.27199C222.174 7.73866 222.023 7.33421 221.721 7.05866C221.427 6.77421 220.952 6.63199 220.294 6.63199H218.774V9.89866H220.294ZM226.673 8.88532C226.922 8.40533 227.278 8.02755 227.74 7.75199C228.202 7.46755 228.736 7.32533 229.34 7.32533V8.97866H228.887C228.22 8.97866 227.682 9.1431 227.273 9.47199C226.873 9.79199 226.673 10.3253 226.673 11.072V14.792H225.153V7.44533H226.673V8.88532ZM230.366 5.31199C230.366 5.05421 230.455 4.84088 230.632 4.67199C230.81 4.5031 231.046 4.41866 231.339 4.41866C231.632 4.41866 231.868 4.5031 232.046 4.67199C232.232 4.84088 232.326 5.05421 232.326 5.31199C232.326 5.56977 232.232 5.77866 232.046 5.93866C231.868 6.09866 231.632 6.17866 231.339 6.17866C231.046 6.17866 230.81 6.09866 230.632 5.93866C230.455 5.77866 230.366 5.56977 230.366 5.31199ZM232.099 7.44533V14.792H230.579V7.44533H232.099ZM243.225 7.32533C244.096 7.32533 244.789 7.60088 245.305 8.15199C245.829 8.7031 246.092 9.48977 246.092 10.512V14.792H244.572V10.672C244.572 10.032 244.412 9.53866 244.092 9.19199C243.772 8.83644 243.332 8.65866 242.772 8.65866C242.176 8.65866 241.701 8.84977 241.345 9.23199C240.998 9.60532 240.825 10.1564 240.825 10.8853V14.792H239.305V10.672C239.305 10.032 239.145 9.53866 238.825 9.19199C238.505 8.83644 238.065 8.65866 237.505 8.65866C236.909 8.65866 236.434 8.84977 236.078 9.23199C235.732 9.60532 235.558 10.1564 235.558 10.8853V14.792H234.038V7.44533H235.558V8.97866C235.745 8.44532 236.056 8.03644 236.492 7.75199C236.927 7.46755 237.438 7.32533 238.025 7.32533C238.638 7.32533 239.167 7.47644 239.612 7.77866C240.065 8.08088 240.394 8.51644 240.598 9.08532C240.812 8.53421 241.154 8.1031 241.625 7.79199C242.096 7.48088 242.629 7.32533 243.225 7.32533ZM250.913 7.35199C251.58 7.35199 252.149 7.51644 252.62 7.84532C253.091 8.17421 253.424 8.60977 253.62 9.15199V7.44533H255.14V14.792H253.62V13.0853C253.424 13.6275 253.091 14.0631 252.62 14.392C252.149 14.7209 251.58 14.8853 250.913 14.8853C250.273 14.8853 249.7 14.7342 249.193 14.432C248.695 14.1298 248.304 13.6942 248.02 13.1253C247.735 12.5564 247.593 11.8853 247.593 11.112C247.593 10.3475 247.735 9.68088 248.02 9.11199C248.304 8.5431 248.695 8.10755 249.193 7.80532C249.7 7.5031 250.273 7.35199 250.913 7.35199ZM251.38 8.68532C250.704 8.68532 250.162 8.9031 249.753 9.33866C249.353 9.76532 249.153 10.3564 249.153 11.112C249.153 11.8675 249.353 12.4631 249.753 12.8987C250.162 13.3253 250.704 13.5387 251.38 13.5387C251.806 13.5387 252.189 13.4409 252.526 13.2453C252.864 13.0409 253.131 12.7564 253.326 12.392C253.522 12.0275 253.62 11.6009 253.62 11.112C253.62 10.632 253.522 10.2098 253.326 9.84532C253.131 9.47199 252.864 9.18755 252.526 8.99199C252.189 8.78755 251.806 8.68532 251.38 8.68532ZM258.584 8.88532C258.833 8.40533 259.188 8.02755 259.651 7.75199C260.113 7.46755 260.646 7.32533 261.251 7.32533V8.97866H260.797C260.131 8.97866 259.593 9.1431 259.184 9.47199C258.784 9.79199 258.584 10.3253 258.584 11.072V14.792H257.064V7.44533H258.584V8.88532ZM263.356 7.44533L265.556 12.8453L267.596 7.44533H269.289L264.849 18.2853H263.156L264.743 14.6187L261.649 7.44533H263.356ZM276.561 7.35199C277.227 7.35199 277.796 7.51644 278.267 7.84532C278.738 8.17421 279.072 8.60977 279.267 9.15199V7.44533H280.787V14.792H279.267V13.0853C279.072 13.6275 278.738 14.0631 278.267 14.392C277.796 14.7209 277.227 14.8853 276.561 14.8853C275.921 14.8853 275.347 14.7342 274.841 14.432C274.343 14.1298 273.952 13.6942 273.667 13.1253C273.383 12.5564 273.241 11.8853 273.241 11.112C273.241 10.3475 273.383 9.68088 273.667 9.11199C273.952 8.5431 274.343 8.10755 274.841 7.80532C275.347 7.5031 275.921 7.35199 276.561 7.35199ZM277.027 8.68532C276.352 8.68532 275.809 8.9031 275.401 9.33866C275.001 9.76532 274.801 10.3564 274.801 11.112C274.801 11.8675 275.001 12.4631 275.401 12.8987C275.809 13.3253 276.352 13.5387 277.027 13.5387C277.454 13.5387 277.836 13.4409 278.174 13.2453C278.512 13.0409 278.778 12.7564 278.974 12.392C279.169 12.0275 279.267 11.6009 279.267 11.112C279.267 10.632 279.169 10.2098 278.974 9.84532C278.778 9.47199 278.512 9.18755 278.174 8.99199C277.836 8.78755 277.454 8.68532 277.027 8.68532ZM286.818 7.32533C287.671 7.32533 288.356 7.60088 288.871 8.15199C289.387 8.7031 289.645 9.48977 289.645 10.512V14.792H288.125V10.672C288.125 10.0142 287.956 9.50755 287.618 9.15199C287.28 8.78755 286.818 8.60533 286.231 8.60533C285.627 8.60533 285.142 8.80088 284.778 9.19199C284.414 9.57421 284.231 10.1387 284.231 10.8853V14.792H282.711V7.44533H284.231V9.05866C284.427 8.50755 284.756 8.08088 285.218 7.77866C285.68 7.47644 286.214 7.32533 286.818 7.32533ZM294.469 7.35199C295.136 7.35199 295.704 7.51644 296.176 7.84532C296.647 8.17421 296.976 8.60977 297.162 9.15199V4.92532H298.696V14.792H297.162V13.0853C296.976 13.6275 296.647 14.0631 296.176 14.392C295.704 14.7209 295.136 14.8853 294.469 14.8853C293.829 14.8853 293.256 14.7342 292.749 14.432C292.251 14.1298 291.86 13.6942 291.576 13.1253C291.291 12.5564 291.149 11.8853 291.149 11.112C291.149 10.3475 291.291 9.68088 291.576 9.11199C291.86 8.5431 292.251 8.10755 292.749 7.80532C293.256 7.5031 293.829 7.35199 294.469 7.35199ZM294.936 8.68532C294.26 8.68532 293.718 8.9031 293.309 9.33866C292.909 9.76532 292.709 10.3564 292.709 11.112C292.709 11.8675 292.909 12.4631 293.309 12.8987C293.718 13.3253 294.26 13.5387 294.936 13.5387C295.362 13.5387 295.744 13.4409 296.082 13.2453C296.42 13.0409 296.687 12.7564 296.882 12.392C297.078 12.0275 297.176 11.6009 297.176 11.112C297.176 10.632 297.078 10.2098 296.882 9.84532C296.687 9.47199 296.42 9.18755 296.082 8.99199C295.744 8.78755 295.362 8.68532 294.936 8.68532ZM306.258 7.35199C307.12 7.35199 307.809 7.57421 308.325 8.01866C308.849 8.45421 309.169 9.04088 309.285 9.77866H307.845C307.782 9.37866 307.609 9.05866 307.325 8.81866C307.049 8.56977 306.68 8.44533 306.218 8.44533C305.836 8.44533 305.538 8.53866 305.325 8.72533C305.12 8.9031 305.018 9.14755 305.018 9.45866C305.018 9.68977 305.094 9.87644 305.245 10.0187C305.396 10.1609 305.582 10.272 305.805 10.352C306.036 10.432 306.36 10.5209 306.778 10.6187C307.329 10.7431 307.774 10.872 308.111 11.0053C308.458 11.1387 308.751 11.352 308.991 11.6453C309.24 11.9298 309.365 12.3209 309.365 12.8187C309.365 13.432 309.129 13.9298 308.658 14.312C308.196 14.6942 307.569 14.8853 306.778 14.8853C305.862 14.8853 305.12 14.672 304.551 14.2453C303.991 13.8187 303.654 13.2231 303.538 12.4587H305.018C305.062 12.8587 305.24 13.1831 305.551 13.432C305.862 13.6809 306.271 13.8053 306.778 13.8053C307.142 13.8053 307.427 13.712 307.631 13.5253C307.845 13.3298 307.951 13.0853 307.951 12.792C307.951 12.5342 307.871 12.3298 307.711 12.1787C307.551 12.0275 307.351 11.912 307.111 11.832C306.871 11.7431 306.542 11.6542 306.125 11.5653C305.591 11.4409 305.156 11.3164 304.818 11.192C304.489 11.0675 304.205 10.8675 303.965 10.592C303.734 10.3075 303.618 9.92533 303.618 9.44532C303.618 8.8231 303.849 8.32088 304.311 7.93866C304.782 7.54755 305.431 7.35199 306.258 7.35199ZM315.096 7.32533C315.949 7.32533 316.633 7.60088 317.149 8.15199C317.664 8.7031 317.922 9.48977 317.922 10.512V14.792H316.402V10.672C316.402 10.0142 316.233 9.50755 315.896 9.15199C315.558 8.78755 315.096 8.60533 314.509 8.60533C313.904 8.60533 313.42 8.80088 313.056 9.19199C312.691 9.57421 312.509 10.1387 312.509 10.8853V14.792H310.989V4.92532H312.509V9.05866C312.704 8.50755 313.033 8.08088 313.496 7.77866C313.958 7.47644 314.491 7.32533 315.096 7.32533ZM322.746 7.35199C323.413 7.35199 323.982 7.51644 324.453 7.84532C324.924 8.17421 325.258 8.60977 325.453 9.15199V7.44533H326.973V14.792H325.453V13.0853C325.258 13.6275 324.924 14.0631 324.453 14.392C323.982 14.7209 323.413 14.8853 322.746 14.8853C322.106 14.8853 321.533 14.7342 321.026 14.432C320.529 14.1298 320.138 13.6942 319.853 13.1253C319.569 12.5564 319.426 11.8853 319.426 11.112C319.426 10.3475 319.569 9.68088 319.853 9.11199C320.138 8.5431 320.529 8.10755 321.026 7.80532C321.533 7.5031 322.106 7.35199 322.746 7.35199ZM323.213 8.68532C322.538 8.68532 321.995 8.9031 321.586 9.33866C321.186 9.76532 320.986 10.3564 320.986 11.112C320.986 11.8675 321.186 12.4631 321.586 12.8987C321.995 13.3253 322.538 13.5387 323.213 13.5387C323.64 13.5387 324.022 13.4409 324.36 13.2453C324.698 13.0409 324.964 12.7564 325.16 12.392C325.355 12.0275 325.453 11.6009 325.453 11.112C325.453 10.632 325.355 10.2098 325.16 9.84532C324.964 9.47199 324.698 9.18755 324.36 8.99199C324.022 8.78755 323.64 8.68532 323.213 8.68532ZM331.844 7.35199C332.511 7.35199 333.079 7.51644 333.551 7.84532C334.022 8.17421 334.351 8.60977 334.537 9.15199V4.92532H336.071V14.792H334.537V13.0853C334.351 13.6275 334.022 14.0631 333.551 14.392C333.079 14.7209 332.511 14.8853 331.844 14.8853C331.204 14.8853 330.631 14.7342 330.124 14.432C329.626 14.1298 329.235 13.6942 328.951 13.1253C328.666 12.5564 328.524 11.8853 328.524 11.112C328.524 10.3475 328.666 9.68088 328.951 9.11199C329.235 8.5431 329.626 8.10755 330.124 7.80532C330.631 7.5031 331.204 7.35199 331.844 7.35199ZM332.311 8.68532C331.635 8.68532 331.093 8.9031 330.684 9.33866C330.284 9.76532 330.084 10.3564 330.084 11.112C330.084 11.8675 330.284 12.4631 330.684 12.8987C331.093 13.3253 331.635 13.5387 332.311 13.5387C332.737 13.5387 333.119 13.4409 333.457 13.2453C333.795 13.0409 334.062 12.7564 334.257 12.392C334.453 12.0275 334.551 11.6009 334.551 11.112C334.551 10.632 334.453 10.2098 334.257 9.84532C334.062 9.47199 333.795 9.18755 333.457 8.99199C333.119 8.78755 332.737 8.68532 332.311 8.68532ZM344.821 10.7653C344.821 11.0142 344.804 11.232 344.768 11.4187H339.115C339.141 12.1742 339.35 12.7342 339.741 13.0987C340.132 13.4631 340.617 13.6453 341.195 13.6453C341.701 13.6453 342.128 13.5164 342.475 13.2587C342.83 13.0009 343.048 12.6587 343.128 12.232H344.755C344.657 12.7475 344.452 13.2053 344.141 13.6053C343.83 14.0053 343.426 14.3209 342.928 14.552C342.43 14.7742 341.875 14.8853 341.261 14.8853C340.55 14.8853 339.919 14.7342 339.368 14.432C338.826 14.1298 338.399 13.6942 338.088 13.1253C337.777 12.5564 337.621 11.8853 337.621 11.112C337.621 10.3475 337.777 9.68088 338.088 9.11199C338.399 8.5431 338.826 8.10755 339.368 7.80532C339.919 7.5031 340.55 7.35199 341.261 7.35199C341.981 7.35199 342.608 7.5031 343.141 7.80532C343.684 8.09866 344.097 8.50755 344.381 9.03199C344.675 9.54755 344.821 10.1253 344.821 10.7653ZM343.288 10.7253C343.306 10.2453 343.221 9.84532 343.035 9.52533C342.857 9.19644 342.608 8.95644 342.288 8.80532C341.977 8.64533 341.635 8.56533 341.261 8.56533C340.666 8.56533 340.168 8.74755 339.768 9.11199C339.368 9.47644 339.15 10.0142 339.115 10.7253H343.288ZM348.802 7.35199C349.664 7.35199 350.353 7.57421 350.869 8.01866C351.393 8.45421 351.713 9.04088 351.829 9.77866H350.389C350.327 9.37866 350.153 9.05866 349.869 8.81866C349.593 8.56977 349.224 8.44533 348.762 8.44533C348.38 8.44533 348.082 8.53866 347.869 8.72533C347.664 8.9031 347.562 9.14755 347.562 9.45866C347.562 9.68977 347.638 9.87644 347.789 10.0187C347.94 10.1609 348.127 10.272 348.349 10.352C348.58 10.432 348.904 10.5209 349.322 10.6187C349.873 10.7431 350.318 10.872 350.656 11.0053C351.002 11.1387 351.296 11.352 351.536 11.6453C351.784 11.9298 351.909 12.3209 351.909 12.8187C351.909 13.432 351.673 13.9298 351.202 14.312C350.74 14.6942 350.113 14.8853 349.322 14.8853C348.407 14.8853 347.664 14.672 347.096 14.2453C346.536 13.8187 346.198 13.2231 346.082 12.4587H347.562C347.607 12.8587 347.784 13.1831 348.096 13.432C348.407 13.6809 348.816 13.8053 349.322 13.8053C349.687 13.8053 349.971 13.712 350.176 13.5253C350.389 13.3298 350.496 13.0853 350.496 12.792C350.496 12.5342 350.416 12.3298 350.256 12.1787C350.096 12.0275 349.896 11.912 349.656 11.832C349.416 11.7431 349.087 11.6542 348.669 11.5653C348.136 11.4409 347.7 11.3164 347.362 11.192C347.033 11.0675 346.749 10.8675 346.509 10.592C346.278 10.3075 346.162 9.92533 346.162 9.44532C346.162 8.8231 346.393 8.32088 346.856 7.93866C347.327 7.54755 347.976 7.35199 348.802 7.35199Z" fill="#292929"/>
<path d="M379 26.124H395C403.837 26.124 411 33.2875 411 42.124V42.124C411 50.9606 403.837 58.124 395 58.124H379V26.124Z" fill="#FFF8EB"/>
<path d="M363 26.124H379C387.837 26.124 395 33.2875 395 42.124V42.124C395 50.9606 387.837 58.124 379 58.124H363V26.124Z" fill="#FEF1D5"/>
<path d="M347 26.124H363C371.837 26.124 379 33.2875 379 42.124V42.124C379 50.9606 371.837 58.124 363 58.124H347V26.124Z" fill="#FDDFAC"/>
<path d="M331 26.124H347C355.837 26.124 363 33.2875 363 42.124V42.124C363 50.9606 355.837 58.124 347 58.124H331V26.124Z" fill="#FBC782"/>
<path d="M315 26.124H331C339.837 26.124 347 33.2875 347 42.124V42.124C347 50.9606 339.837 58.124 331 58.124H315V26.124Z" fill="#F7B062"/>
<path d="M299 26.124H315C323.837 26.124 331 33.2875 331 42.124V42.124C331 50.9606 323.837 58.124 315 58.124H299V26.124Z" fill="#F28B30"/>
<path d="M283 26.124H299C307.837 26.124 315 33.2875 315 42.124V42.124C315 50.9606 307.837 58.124 299 58.124H283V26.124Z" fill="#D06B23"/>
<path d="M267 26.124H283C291.837 26.124 299 33.2875 299 42.124V42.124C299 50.9606 291.837 58.124 283 58.124H267V26.124Z" fill="#AE4E18"/>
<path d="M251 26.124H267C275.837 26.124 283 33.2875 283 42.124V42.124C283 50.9606 275.837 58.124 267 58.124H251V26.124Z" fill="#8C360F"/>
<path d="M235 42.124C235 33.2875 242.163 26.124 251 26.124V26.124C259.837 26.124 267 33.2875 267 42.124V42.124C267 50.9606 259.837 58.124 251 58.124V58.124C242.163 58.124 235 50.9606 235 42.124V42.124Z" fill="#742409"/>
<circle cx="232.334" cy="42.124" r="17" fill="#F28B30" stroke="#292929" stroke-width="2"/>
<path d="M223.441 90.954C223.441 91.4162 223.33 91.8474 223.107 92.2474C222.885 92.6385 222.547 92.954 222.094 93.194C221.641 93.434 221.085 93.554 220.427 93.554C219.787 93.554 219.214 93.4429 218.707 93.2207C218.201 92.9896 217.796 92.6696 217.494 92.2607C217.192 91.8518 217.018 91.3807 216.974 90.8474H218.601C218.645 91.2562 218.818 91.6074 219.121 91.9007C219.432 92.194 219.845 92.3407 220.361 92.3407C220.823 92.3407 221.178 92.2162 221.427 91.9674C221.685 91.7185 221.814 91.3985 221.814 91.0074C221.814 90.6696 221.721 90.394 221.534 90.1807C221.347 89.9585 221.116 89.7851 220.841 89.6607C220.565 89.5362 220.187 89.394 219.707 89.234C219.121 89.0474 218.641 88.8607 218.267 88.674C217.903 88.4874 217.592 88.2162 217.334 87.8607C217.076 87.5051 216.947 87.0385 216.947 86.4607C216.947 85.954 217.072 85.5096 217.321 85.1274C217.57 84.7451 217.925 84.4518 218.387 84.2474C218.85 84.034 219.383 83.9274 219.987 83.9274C220.947 83.9274 221.707 84.1585 222.267 84.6207C222.836 85.0829 223.161 85.6874 223.241 86.434H221.601C221.538 86.0785 221.37 85.7762 221.094 85.5274C220.827 85.2696 220.458 85.1407 219.987 85.1407C219.561 85.1407 219.218 85.2518 218.961 85.474C218.703 85.6874 218.574 85.9985 218.574 86.4074C218.574 86.7274 218.663 86.994 218.841 87.2074C219.018 87.4118 219.241 87.5762 219.507 87.7007C219.783 87.8162 220.156 87.954 220.627 88.114C221.223 88.3007 221.707 88.4918 222.081 88.6874C222.463 88.874 222.783 89.1496 223.041 89.514C223.307 89.8785 223.441 90.3585 223.441 90.954ZM231.889 89.434C231.889 89.6829 231.871 89.9007 231.836 90.0874H226.182C226.209 90.8429 226.418 91.4029 226.809 91.7674C227.2 92.1318 227.685 92.314 228.262 92.314C228.769 92.314 229.196 92.1851 229.542 91.9274C229.898 91.6696 230.116 91.3274 230.196 90.9007H231.822C231.725 91.4162 231.52 91.874 231.209 92.274C230.898 92.674 230.493 92.9896 229.996 93.2207C229.498 93.4429 228.942 93.554 228.329 93.554C227.618 93.554 226.987 93.4029 226.436 93.1007C225.893 92.7985 225.467 92.3629 225.156 91.794C224.845 91.2251 224.689 90.554 224.689 89.7807C224.689 89.0162 224.845 88.3496 225.156 87.7807C225.467 87.2118 225.893 86.7762 226.436 86.474C226.987 86.1718 227.618 86.0207 228.329 86.0207C229.049 86.0207 229.676 86.1718 230.209 86.474C230.751 86.7674 231.165 87.1762 231.449 87.7007C231.742 88.2162 231.889 88.794 231.889 89.434ZM230.356 89.394C230.373 88.914 230.289 88.514 230.102 88.194C229.925 87.8651 229.676 87.6251 229.356 87.474C229.045 87.314 228.702 87.234 228.329 87.234C227.733 87.234 227.236 87.4162 226.836 87.7807C226.436 88.1451 226.218 88.6829 226.182 89.394H230.356ZM236.723 86.0207C237.674 86.0207 238.461 86.274 239.083 86.7807C239.705 87.2785 240.092 87.9585 240.243 88.8207H238.63C238.541 88.3585 238.323 87.9985 237.977 87.7407C237.639 87.474 237.212 87.3407 236.697 87.3407C236.11 87.3407 235.621 87.5496 235.23 87.9674C234.839 88.3762 234.643 88.9807 234.643 89.7807C234.643 90.5807 234.839 91.1896 235.23 91.6074C235.621 92.0251 236.11 92.234 236.697 92.234C237.212 92.234 237.639 92.1007 237.977 91.834C238.323 91.5674 238.541 91.2029 238.63 90.7407H240.243C240.092 91.6029 239.705 92.2874 239.083 92.794C238.461 93.3007 237.674 93.554 236.723 93.554C236.012 93.554 235.381 93.4029 234.83 93.1007C234.288 92.7985 233.861 92.3629 233.55 91.794C233.239 91.2251 233.083 90.554 233.083 89.7807C233.083 89.0162 233.239 88.3496 233.55 87.7807C233.861 87.2118 234.288 86.7762 234.83 86.474C235.381 86.1718 236.012 86.0207 236.723 86.0207ZM245.172 86.0207C245.883 86.0207 246.523 86.1718 247.092 86.474C247.661 86.7762 248.105 87.2118 248.425 87.7807C248.745 88.3496 248.905 89.0162 248.905 89.7807C248.905 90.554 248.745 91.2251 248.425 91.794C248.105 92.3629 247.661 92.7985 247.092 93.1007C246.523 93.4029 245.883 93.554 245.172 93.554C244.461 93.554 243.821 93.4029 243.252 93.1007C242.692 92.7985 242.247 92.3629 241.918 91.794C241.598 91.2162 241.438 90.5451 241.438 89.7807C241.438 89.0162 241.598 88.3496 241.918 87.7807C242.247 87.2118 242.692 86.7762 243.252 86.474C243.821 86.1718 244.461 86.0207 245.172 86.0207ZM245.172 87.3407C244.781 87.3407 244.421 87.4296 244.092 87.6074C243.763 87.7851 243.496 88.0607 243.292 88.434C243.096 88.7985 242.998 89.2474 242.998 89.7807C242.998 90.3229 243.096 90.7762 243.292 91.1407C243.496 91.5051 243.763 91.7762 244.092 91.954C244.421 92.1318 244.781 92.2207 245.172 92.2207C245.563 92.2207 245.923 92.1318 246.252 91.954C246.581 91.7762 246.843 91.5051 247.038 91.1407C247.243 90.7762 247.345 90.3229 247.345 89.7807C247.345 89.2474 247.243 88.7985 247.038 88.434C246.843 88.0607 246.581 87.7851 246.252 87.6074C245.923 87.4296 245.563 87.3407 245.172 87.3407ZM254.573 85.994C255.426 85.994 256.111 86.2696 256.626 86.8207C257.142 87.3718 257.4 88.1585 257.4 89.1807V93.4607H255.88V89.3407C255.88 88.6829 255.711 88.1762 255.373 87.8207C255.035 87.4562 254.573 87.274 253.986 87.274C253.382 87.274 252.898 87.4696 252.533 87.8607C252.169 88.2429 251.986 88.8074 251.986 89.554V93.4607H250.466V86.114H251.986V87.7274C252.182 87.1762 252.511 86.7496 252.973 86.4474C253.435 86.1451 253.969 85.994 254.573 85.994ZM262.224 86.0207C262.891 86.0207 263.46 86.1851 263.931 86.514C264.402 86.8429 264.731 87.2785 264.917 87.8207V83.594H266.451V93.4607H264.917V91.754C264.731 92.2962 264.402 92.7318 263.931 93.0607C263.46 93.3896 262.891 93.554 262.224 93.554C261.584 93.554 261.011 93.4029 260.504 93.1007C260.006 92.7985 259.615 92.3629 259.331 91.794C259.046 91.2251 258.904 90.554 258.904 89.7807C258.904 89.0162 259.046 88.3496 259.331 87.7807C259.615 87.2118 260.006 86.7762 260.504 86.474C261.011 86.1718 261.584 86.0207 262.224 86.0207ZM262.691 87.354C262.015 87.354 261.473 87.5718 261.064 88.0074C260.664 88.434 260.464 89.0251 260.464 89.7807C260.464 90.5362 260.664 91.1318 261.064 91.5674C261.473 91.994 262.015 92.2074 262.691 92.2074C263.117 92.2074 263.5 92.1096 263.837 91.914C264.175 91.7096 264.442 91.4251 264.637 91.0607C264.833 90.6962 264.931 90.2696 264.931 89.7807C264.931 89.3007 264.833 88.8785 264.637 88.514C264.442 88.1407 264.175 87.8562 263.837 87.6607C263.5 87.4562 263.117 87.354 262.691 87.354ZM271.321 86.0207C271.988 86.0207 272.557 86.1851 273.028 86.514C273.499 86.8429 273.833 87.2785 274.028 87.8207V86.114H275.548V93.4607H274.028V91.754C273.833 92.2962 273.499 92.7318 273.028 93.0607C272.557 93.3896 271.988 93.554 271.321 93.554C270.681 93.554 270.108 93.4029 269.601 93.1007C269.104 92.7985 268.713 92.3629 268.428 91.794C268.144 91.2251 268.001 90.554 268.001 89.7807C268.001 89.0162 268.144 88.3496 268.428 87.7807C268.713 87.2118 269.104 86.7762 269.601 86.474C270.108 86.1718 270.681 86.0207 271.321 86.0207ZM271.788 87.354C271.113 87.354 270.57 87.5718 270.161 88.0074C269.761 88.434 269.561 89.0251 269.561 89.7807C269.561 90.5362 269.761 91.1318 270.161 91.5674C270.57 91.994 271.113 92.2074 271.788 92.2074C272.215 92.2074 272.597 92.1096 272.935 91.914C273.273 91.7096 273.539 91.4251 273.735 91.0607C273.93 90.6962 274.028 90.2696 274.028 89.7807C274.028 89.3007 273.93 88.8785 273.735 88.514C273.539 88.1407 273.273 87.8562 272.935 87.6607C272.597 87.4562 272.215 87.354 271.788 87.354ZM278.992 87.554C279.241 87.074 279.597 86.6962 280.059 86.4207C280.521 86.1362 281.054 85.994 281.659 85.994V87.6474H281.206C280.539 87.6474 280.001 87.8118 279.592 88.1407C279.192 88.4607 278.992 88.994 278.992 89.7407V93.4607H277.472V86.114H278.992V87.554ZM283.764 86.114L285.964 91.514L288.004 86.114H289.698L285.258 96.954H283.564L285.151 93.2874L282.058 86.114H283.764ZM296.969 86.0207C297.636 86.0207 298.204 86.1851 298.676 86.514C299.147 86.8429 299.48 87.2785 299.676 87.8207V86.114H301.196V93.4607H299.676V91.754C299.48 92.2962 299.147 92.7318 298.676 93.0607C298.204 93.3896 297.636 93.554 296.969 93.554C296.329 93.554 295.756 93.4029 295.249 93.1007C294.751 92.7985 294.36 92.3629 294.076 91.794C293.791 91.2251 293.649 90.554 293.649 89.7807C293.649 89.0162 293.791 88.3496 294.076 87.7807C294.36 87.2118 294.751 86.7762 295.249 86.474C295.756 86.1718 296.329 86.0207 296.969 86.0207ZM297.436 87.354C296.76 87.354 296.218 87.5718 295.809 88.0074C295.409 88.434 295.209 89.0251 295.209 89.7807C295.209 90.5362 295.409 91.1318 295.809 91.5674C296.218 91.994 296.76 92.2074 297.436 92.2074C297.862 92.2074 298.244 92.1096 298.582 91.914C298.92 91.7096 299.187 91.4251 299.382 91.0607C299.578 90.6962 299.676 90.2696 299.676 89.7807C299.676 89.3007 299.578 88.8785 299.382 88.514C299.187 88.1407 298.92 87.8562 298.582 87.6607C298.244 87.4562 297.862 87.354 297.436 87.354ZM307.226 85.994C308.08 85.994 308.764 86.2696 309.28 86.8207C309.795 87.3718 310.053 88.1585 310.053 89.1807V93.4607H308.533V89.3407C308.533 88.6829 308.364 88.1762 308.026 87.8207C307.689 87.4562 307.226 87.274 306.64 87.274C306.035 87.274 305.551 87.4696 305.186 87.8607C304.822 88.2429 304.64 88.8074 304.64 89.554V93.4607H303.12V86.114H304.64V87.7274C304.835 87.1762 305.164 86.7496 305.626 86.4474C306.089 86.1451 306.622 85.994 307.226 85.994ZM314.877 86.0207C315.544 86.0207 316.113 86.1851 316.584 86.514C317.055 86.8429 317.384 87.2785 317.571 87.8207V83.594H319.104V93.4607H317.571V91.754C317.384 92.2962 317.055 92.7318 316.584 93.0607C316.113 93.3896 315.544 93.554 314.877 93.554C314.237 93.554 313.664 93.4029 313.157 93.1007C312.659 92.7985 312.268 92.3629 311.984 91.794C311.699 91.2251 311.557 90.554 311.557 89.7807C311.557 89.0162 311.699 88.3496 311.984 87.7807C312.268 87.2118 312.659 86.7762 313.157 86.474C313.664 86.1718 314.237 86.0207 314.877 86.0207ZM315.344 87.354C314.668 87.354 314.126 87.5718 313.717 88.0074C313.317 88.434 313.117 89.0251 313.117 89.7807C313.117 90.5362 313.317 91.1318 313.717 91.5674C314.126 91.994 314.668 92.2074 315.344 92.2074C315.771 92.2074 316.153 92.1096 316.491 91.914C316.828 91.7096 317.095 91.4251 317.291 91.0607C317.486 90.6962 317.584 90.2696 317.584 89.7807C317.584 89.3007 317.486 88.8785 317.291 88.514C317.095 88.1407 316.828 87.8562 316.491 87.6607C316.153 87.4562 315.771 87.354 315.344 87.354ZM326.666 86.0207C327.529 86.0207 328.217 86.2429 328.733 86.6874C329.257 87.1229 329.577 87.7096 329.693 88.4474H328.253C328.191 88.0474 328.017 87.7274 327.733 87.4874C327.457 87.2385 327.089 87.114 326.626 87.114C326.244 87.114 325.946 87.2074 325.733 87.394C325.529 87.5718 325.426 87.8162 325.426 88.1274C325.426 88.3585 325.502 88.5451 325.653 88.6874C325.804 88.8296 325.991 88.9407 326.213 89.0207C326.444 89.1007 326.769 89.1896 327.186 89.2874C327.737 89.4118 328.182 89.5407 328.52 89.674C328.866 89.8074 329.16 90.0207 329.4 90.314C329.649 90.5985 329.773 90.9896 329.773 91.4874C329.773 92.1007 329.537 92.5985 329.066 92.9807C328.604 93.3629 327.977 93.554 327.186 93.554C326.271 93.554 325.529 93.3407 324.96 92.914C324.4 92.4874 324.062 91.8918 323.946 91.1274H325.426C325.471 91.5274 325.649 91.8518 325.96 92.1007C326.271 92.3496 326.68 92.474 327.186 92.474C327.551 92.474 327.835 92.3807 328.04 92.194C328.253 91.9985 328.36 91.754 328.36 91.4607C328.36 91.2029 328.28 90.9985 328.12 90.8474C327.96 90.6962 327.76 90.5807 327.52 90.5007C327.28 90.4118 326.951 90.3229 326.533 90.234C326 90.1096 325.564 89.9851 325.226 89.8607C324.897 89.7362 324.613 89.5362 324.373 89.2607C324.142 88.9762 324.026 88.594 324.026 88.114C324.026 87.4918 324.257 86.9896 324.72 86.6074C325.191 86.2162 325.84 86.0207 326.666 86.0207ZM335.504 85.994C336.357 85.994 337.042 86.2696 337.557 86.8207C338.073 87.3718 338.331 88.1585 338.331 89.1807V93.4607H336.811V89.3407C336.811 88.6829 336.642 88.1762 336.304 87.8207C335.966 87.4562 335.504 87.274 334.917 87.274C334.313 87.274 333.828 87.4696 333.464 87.8607C333.099 88.2429 332.917 88.8074 332.917 89.554V93.4607H331.397V83.594H332.917V87.7274C333.113 87.1762 333.442 86.7496 333.904 86.4474C334.366 86.1451 334.899 85.994 335.504 85.994ZM343.155 86.0207C343.821 86.0207 344.39 86.1851 344.861 86.514C345.333 86.8429 345.666 87.2785 345.861 87.8207V86.114H347.381V93.4607H345.861V91.754C345.666 92.2962 345.333 92.7318 344.861 93.0607C344.39 93.3896 343.821 93.554 343.155 93.554C342.515 93.554 341.941 93.4029 341.435 93.1007C340.937 92.7985 340.546 92.3629 340.261 91.794C339.977 91.2251 339.835 90.554 339.835 89.7807C339.835 89.0162 339.977 88.3496 340.261 87.7807C340.546 87.2118 340.937 86.7762 341.435 86.474C341.941 86.1718 342.515 86.0207 343.155 86.0207ZM343.621 87.354C342.946 87.354 342.404 87.5718 341.995 88.0074C341.595 88.434 341.395 89.0251 341.395 89.7807C341.395 90.5362 341.595 91.1318 341.995 91.5674C342.404 91.994 342.946 92.2074 343.621 92.2074C344.048 92.2074 344.43 92.1096 344.768 91.914C345.106 91.7096 345.373 91.4251 345.568 91.0607C345.764 90.6962 345.861 90.2696 345.861 89.7807C345.861 89.3007 345.764 88.8785 345.568 88.514C345.373 88.1407 345.106 87.8562 344.768 87.6607C344.43 87.4562 344.048 87.354 343.621 87.354ZM352.252 86.0207C352.919 86.0207 353.488 86.1851 353.959 86.514C354.43 86.8429 354.759 87.2785 354.946 87.8207V83.594H356.479V93.4607H354.946V91.754C354.759 92.2962 354.43 92.7318 353.959 93.0607C353.488 93.3896 352.919 93.554 352.252 93.554C351.612 93.554 351.039 93.4029 350.532 93.1007C350.034 92.7985 349.643 92.3629 349.359 91.794C349.074 91.2251 348.932 90.554 348.932 89.7807C348.932 89.0162 349.074 88.3496 349.359 87.7807C349.643 87.2118 350.034 86.7762 350.532 86.474C351.039 86.1718 351.612 86.0207 352.252 86.0207ZM352.719 87.354C352.043 87.354 351.501 87.5718 351.092 88.0074C350.692 88.434 350.492 89.0251 350.492 89.7807C350.492 90.5362 350.692 91.1318 351.092 91.5674C351.501 91.994 352.043 92.2074 352.719 92.2074C353.146 92.2074 353.528 92.1096 353.866 91.914C354.203 91.7096 354.47 91.4251 354.666 91.0607C354.861 90.6962 354.959 90.2696 354.959 89.7807C354.959 89.3007 354.861 88.8785 354.666 88.514C354.47 88.1407 354.203 87.8562 353.866 87.6607C353.528 87.4562 353.146 87.354 352.719 87.354ZM365.23 89.434C365.23 89.6829 365.212 89.9007 365.176 90.0874H359.523C359.55 90.8429 359.759 91.4029 360.15 91.7674C360.541 92.1318 361.025 92.314 361.603 92.314C362.11 92.314 362.536 92.1851 362.883 91.9274C363.239 91.6696 363.456 91.3274 363.536 90.9007H365.163C365.065 91.4162 364.861 91.874 364.55 92.274C364.239 92.674 363.834 92.9896 363.336 93.2207C362.839 93.4429 362.283 93.554 361.67 93.554C360.959 93.554 360.327 93.4029 359.776 93.1007C359.234 92.7985 358.807 92.3629 358.496 91.794C358.185 91.2251 358.03 90.554 358.03 89.7807C358.03 89.0162 358.185 88.3496 358.496 87.7807C358.807 87.2118 359.234 86.7762 359.776 86.474C360.327 86.1718 360.959 86.0207 361.67 86.0207C362.39 86.0207 363.016 86.1718 363.55 86.474C364.092 86.7674 364.505 87.1762 364.79 87.7007C365.083 88.2162 365.23 88.794 365.23 89.434ZM363.696 89.394C363.714 88.914 363.63 88.514 363.443 88.194C363.265 87.8651 363.016 87.6251 362.696 87.474C362.385 87.314 362.043 87.234 361.67 87.234C361.074 87.234 360.576 87.4162 360.176 87.7807C359.776 88.1451 359.559 88.6829 359.523 89.394H363.696ZM369.211 86.0207C370.073 86.0207 370.762 86.2429 371.277 86.6874C371.802 87.1229 372.122 87.7096 372.237 88.4474H370.797C370.735 88.0474 370.562 87.7274 370.277 87.4874C370.002 87.2385 369.633 87.114 369.171 87.114C368.788 87.114 368.491 87.2074 368.277 87.394C368.073 87.5718 367.971 87.8162 367.971 88.1274C367.971 88.3585 368.046 88.5451 368.197 88.6874C368.348 88.8296 368.535 88.9407 368.757 89.0207C368.988 89.1007 369.313 89.1896 369.731 89.2874C370.282 89.4118 370.726 89.5407 371.064 89.674C371.411 89.8074 371.704 90.0207 371.944 90.314C372.193 90.5985 372.317 90.9896 372.317 91.4874C372.317 92.1007 372.082 92.5985 371.611 92.9807C371.148 93.3629 370.522 93.554 369.731 93.554C368.815 93.554 368.073 93.3407 367.504 92.914C366.944 92.4874 366.606 91.8918 366.491 91.1274H367.971C368.015 91.5274 368.193 91.8518 368.504 92.1007C368.815 92.3496 369.224 92.474 369.731 92.474C370.095 92.474 370.379 92.3807 370.584 92.194C370.797 91.9985 370.904 91.754 370.904 91.4607C370.904 91.2029 370.824 90.9985 370.664 90.8474C370.504 90.6962 370.304 90.5807 370.064 90.5007C369.824 90.4118 369.495 90.3229 369.077 90.234C368.544 90.1096 368.108 89.9851 367.771 89.8607C367.442 89.7362 367.157 89.5362 366.917 89.2607C366.686 88.9762 366.571 88.594 366.571 88.114C366.571 87.4918 366.802 86.9896 367.264 86.6074C367.735 86.2162 368.384 86.0207 369.211 86.0207Z" fill="#292929"/>
<path d="M379 104.793H395C403.837 104.793 411 111.956 411 120.793V120.793C411 129.629 403.837 136.793 395 136.793H379V104.793Z" fill="#E8FDF4"/>
<path d="M363 104.793H379C387.837 104.793 395 111.956 395 120.793V120.793C395 129.629 387.837 136.793 379 136.793H363V104.793Z" fill="#C8FAE6"/>
<path d="M347 104.793H363C371.837 104.793 379 111.956 379 120.793V120.793C379 129.629 371.837 136.793 363 136.793H347V104.793Z" fill="#94F5D8"/>
<path d="M331 104.793H347C355.837 104.793 363 111.956 363 120.793V120.793C363 129.629 355.837 136.793 347 136.793H331V104.793Z" fill="#5BE3C6"/>
<path d="M315 104.793H331C339.837 104.793 347 111.956 347 120.793V120.793C347 129.629 339.837 136.793 331 136.793H315V104.793Z" fill="#32C7B5"/>
<path d="M299 104.793H315C323.837 104.793 331 111.956 331 120.793V120.793C331 129.629 323.837 136.793 315 136.793H299V104.793Z" fill="#01A39D"/>
<path d="M283 104.793H299C307.837 104.793 315 111.956 315 120.793V120.793C315 129.629 307.837 136.793 299 136.793H283V104.793Z" fill="#00858C"/>
<path d="M267 104.793H283C291.837 104.793 299 111.956 299 120.793V120.793C299 129.629 291.837 136.793 283 136.793H267V104.793Z" fill="#006575"/>
<path d="M251 104.793H267C275.837 104.793 283 111.956 283 120.793V120.793C283 129.629 275.837 136.793 267 136.793H251V104.793Z" fill="#00495E"/>
<path d="M235 120.793C235 111.956 242.163 104.793 251 104.793V104.793C259.837 104.793 267 111.956 267 120.793V120.793C267 129.629 259.837 136.793 251 136.793V136.793C242.163 136.793 235 129.629 235 120.793V120.793Z" fill="#00354E"/>
<circle cx="232.334" cy="120.793" r="17" fill="#01A39D" stroke="#292929" stroke-width="2"/>
<path d="M223.307 162.714V163.941H220.681V172.127H219.147V163.941H216.534V162.714H223.307ZM231.368 168.101C231.368 168.349 231.35 168.567 231.315 168.754H225.661C225.688 169.509 225.897 170.069 226.288 170.434C226.679 170.798 227.164 170.981 227.741 170.981C228.248 170.981 228.675 170.852 229.021 170.594C229.377 170.336 229.595 169.994 229.675 169.567H231.301C231.204 170.083 230.999 170.541 230.688 170.941C230.377 171.341 229.973 171.656 229.475 171.887C228.977 172.109 228.421 172.221 227.808 172.221C227.097 172.221 226.466 172.069 225.915 171.767C225.373 171.465 224.946 171.029 224.635 170.461C224.324 169.892 224.168 169.221 224.168 168.447C224.168 167.683 224.324 167.016 224.635 166.447C224.946 165.878 225.373 165.443 225.915 165.141C226.466 164.838 227.097 164.687 227.808 164.687C228.528 164.687 229.155 164.838 229.688 165.141C230.23 165.434 230.644 165.843 230.928 166.367C231.221 166.883 231.368 167.461 231.368 168.101ZM229.835 168.061C229.853 167.581 229.768 167.181 229.581 166.861C229.404 166.532 229.155 166.292 228.835 166.141C228.524 165.981 228.181 165.901 227.808 165.901C227.213 165.901 226.715 166.083 226.315 166.447C225.915 166.812 225.697 167.349 225.661 168.061H229.835ZM234.456 166.221C234.705 165.741 235.06 165.363 235.522 165.087C235.985 164.803 236.518 164.661 237.122 164.661V166.314H236.669C236.002 166.314 235.465 166.478 235.056 166.807C234.656 167.127 234.456 167.661 234.456 168.407V172.127H232.936V164.781H234.456V166.221ZM242.055 170.807V172.127H241.121C240.339 172.127 239.743 171.941 239.335 171.567C238.935 171.185 238.735 170.554 238.735 169.674V166.074H237.681V164.781H238.735V162.954H240.268V164.781H242.041V166.074H240.268V169.701C240.268 170.118 240.343 170.407 240.495 170.567C240.655 170.727 240.93 170.807 241.321 170.807H242.055ZM243.365 162.647C243.365 162.389 243.454 162.176 243.632 162.007C243.81 161.838 244.045 161.754 244.338 161.754C244.632 161.754 244.867 161.838 245.045 162.007C245.232 162.176 245.325 162.389 245.325 162.647C245.325 162.905 245.232 163.114 245.045 163.274C244.867 163.434 244.632 163.514 244.338 163.514C244.045 163.514 243.81 163.434 243.632 163.274C243.454 163.114 243.365 162.905 243.365 162.647ZM245.098 164.781V172.127H243.578V164.781H245.098ZM249.985 164.687C250.651 164.687 251.22 164.852 251.691 165.181C252.162 165.509 252.496 165.945 252.691 166.487V164.781H254.211V172.127H252.691V170.421C252.496 170.963 252.162 171.398 251.691 171.727C251.22 172.056 250.651 172.221 249.985 172.221C249.345 172.221 248.771 172.069 248.265 171.767C247.767 171.465 247.376 171.029 247.091 170.461C246.807 169.892 246.665 169.221 246.665 168.447C246.665 167.683 246.807 167.016 247.091 166.447C247.376 165.878 247.767 165.443 248.265 165.141C248.771 164.838 249.345 164.687 249.985 164.687ZM250.451 166.021C249.776 166.021 249.233 166.238 248.825 166.674C248.425 167.101 248.225 167.692 248.225 168.447C248.225 169.203 248.425 169.798 248.825 170.234C249.233 170.661 249.776 170.874 250.451 170.874C250.878 170.874 251.26 170.776 251.598 170.581C251.936 170.376 252.202 170.092 252.398 169.727C252.593 169.363 252.691 168.936 252.691 168.447C252.691 167.967 252.593 167.545 252.398 167.181C252.202 166.807 251.936 166.523 251.598 166.327C251.26 166.123 250.878 166.021 250.451 166.021ZM257.655 166.221C257.904 165.741 258.26 165.363 258.722 165.087C259.184 164.803 259.717 164.661 260.322 164.661V166.314H259.869C259.202 166.314 258.664 166.478 258.255 166.807C257.855 167.127 257.655 167.661 257.655 168.407V172.127H256.135V164.781H257.655V166.221ZM262.427 164.781L264.627 170.181L266.667 164.781H268.361L263.921 175.621H262.227L263.814 171.954L260.721 164.781H262.427Z" fill="#292929"/>
<rect x="216.334" y="183.459" width="32" height="32" rx="16" fill="#00202F"/>
<rect x="253.667" y="183.459" width="32" height="32" rx="16" fill="#292929"/>
<rect x="291" y="183.459" width="32" height="32" rx="16" fill="#454545"/>
<rect x="328.334" y="183.459" width="32" height="32" rx="16" fill="#BCBCBC"/>
<rect x="365.667" y="183.459" width="32" height="32" rx="16" fill="#DDDDDD"/>
<path d="M549.329 12.286C549.329 12.7481 549.218 13.1791 548.996 13.579C548.774 13.97 548.436 14.2855 547.983 14.5254C547.53 14.7653 546.974 14.8853 546.317 14.8853C545.677 14.8853 545.103 14.7742 544.597 14.5521C544.09 14.321 543.686 14.0011 543.384 13.5923C543.082 13.1835 542.908 12.7125 542.864 12.1793H544.49C544.535 12.5881 544.708 12.9391 545.01 13.2324C545.321 13.5256 545.734 13.6723 546.25 13.6723C546.712 13.6723 547.067 13.5479 547.316 13.299C547.574 13.0502 547.703 12.7303 547.703 12.3393C547.703 12.0016 547.61 11.7261 547.423 11.5128C547.236 11.2906 547.005 11.1174 546.73 10.9929C546.454 10.8685 546.077 10.7263 545.597 10.5664C545.01 10.3798 544.53 10.1931 544.157 10.0065C543.793 9.8199 543.482 9.54886 543.224 9.19339C542.966 8.83793 542.837 8.37138 542.837 7.79374C542.837 7.2872 542.962 6.84287 543.211 6.46074C543.459 6.07862 543.815 5.78535 544.277 5.58096C544.739 5.36768 545.272 5.26104 545.877 5.26104C546.836 5.26104 547.596 5.4921 548.156 5.9542C548.725 6.41631 549.049 7.0206 549.129 7.76708H547.49C547.427 7.41162 547.259 7.10947 546.983 6.86064C546.716 6.60293 546.348 6.47407 545.877 6.47407C545.45 6.47407 545.108 6.58516 544.85 6.80732C544.593 7.0206 544.464 7.33163 544.464 7.74042C544.464 8.06034 544.553 8.32694 544.73 8.54022C544.908 8.74462 545.13 8.90902 545.397 9.03343C545.672 9.14896 546.045 9.2867 546.516 9.44666C547.112 9.63328 547.596 9.82435 547.969 10.0199C548.352 10.2065 548.671 10.482 548.929 10.8463C549.196 11.2107 549.329 11.6905 549.329 12.286ZM557.775 10.7663C557.775 11.0152 557.758 11.2329 557.722 11.4195H552.07C552.097 12.1749 552.306 12.7347 552.697 13.0991C553.088 13.4634 553.572 13.6456 554.15 13.6456C554.656 13.6456 555.083 13.5168 555.429 13.259C555.785 13.0013 556.002 12.6592 556.082 12.2326H557.709C557.611 12.7481 557.407 13.2057 557.096 13.6056C556.784 14.0055 556.38 14.321 555.882 14.5521C555.385 14.7742 554.829 14.8853 554.216 14.8853C553.505 14.8853 552.874 14.7342 552.323 14.4321C551.781 14.1299 551.355 13.6945 551.044 13.1257C550.733 12.557 550.577 11.8861 550.577 11.1129C550.577 10.3487 550.733 9.68216 551.044 9.11341C551.355 8.54467 551.781 8.10922 552.323 7.80707C552.874 7.50493 553.505 7.35385 554.216 7.35385C554.936 7.35385 555.563 7.50493 556.096 7.80707C556.638 8.10033 557.051 8.50912 557.335 9.03343C557.629 9.54886 557.775 10.1265 557.775 10.7663ZM556.242 10.7263C556.26 10.2465 556.176 9.84656 555.989 9.52664C555.811 9.19784 555.563 8.9579 555.243 8.80682C554.932 8.64686 554.589 8.56688 554.216 8.56688C553.621 8.56688 553.123 8.74906 552.723 9.11341C552.323 9.47777 552.106 10.0154 552.07 10.7263H556.242ZM568.527 7.32719C569.398 7.32719 570.091 7.60268 570.606 8.15365C571.131 8.70463 571.393 9.4911 571.393 10.5131V14.792H569.873V10.673C569.873 10.0332 569.713 9.53997 569.393 9.19339C569.073 8.83793 568.634 8.66019 568.074 8.66019C567.478 8.66019 567.003 8.85126 566.647 9.23338C566.301 9.60662 566.128 10.1576 566.128 10.8863V14.792H564.608V10.673C564.608 10.0332 564.448 9.53997 564.128 9.19339C563.808 8.83793 563.368 8.66019 562.808 8.66019C562.213 8.66019 561.738 8.85126 561.382 9.23338C561.036 9.60662 560.862 10.1576 560.862 10.8863V14.792H559.343V7.44716H560.862V8.98011C561.049 8.44691 561.36 8.03813 561.795 7.75375C562.231 7.46938 562.742 7.32719 563.328 7.32719C563.941 7.32719 564.47 7.47827 564.915 7.78041C565.368 8.08256 565.697 8.51801 565.901 9.08675C566.114 8.53578 566.456 8.10478 566.927 7.79374C567.398 7.48271 567.932 7.32719 568.527 7.32719ZM576.213 7.35385C576.88 7.35385 577.448 7.51826 577.919 7.84706C578.39 8.17587 578.724 8.61132 578.919 9.1534V7.44716H580.439V14.792H578.919V13.0858C578.724 13.6278 578.39 14.0633 577.919 14.3921C577.448 14.7209 576.88 14.8853 576.213 14.8853C575.573 14.8853 575 14.7342 574.494 14.4321C573.996 14.1299 573.605 13.6945 573.321 13.1257C573.036 12.557 572.894 11.8861 572.894 11.1129C572.894 10.3487 573.036 9.68216 573.321 9.11341C573.605 8.54467 573.996 8.10922 574.494 7.80707C575 7.50493 575.573 7.35385 576.213 7.35385ZM576.68 8.68685C576.004 8.68685 575.462 8.90458 575.053 9.34002C574.654 9.76658 574.454 10.3575 574.454 11.1129C574.454 11.8683 574.654 12.4637 575.053 12.8991C575.462 13.3257 576.004 13.539 576.68 13.539C577.106 13.539 577.488 13.4412 577.826 13.2457C578.164 13.0413 578.43 12.7569 578.626 12.3926C578.821 12.0282 578.919 11.6017 578.919 11.1129C578.919 10.633 578.821 10.2109 578.626 9.84656C578.43 9.47332 578.164 9.18895 577.826 8.99344C577.488 8.78905 577.106 8.68685 576.68 8.68685ZM586.468 7.32719C587.321 7.32719 588.005 7.60268 588.521 8.15365C589.036 8.70463 589.294 9.4911 589.294 10.5131V14.792H587.774V10.673C587.774 10.0154 587.606 9.50887 587.268 9.1534C586.93 8.78905 586.468 8.60687 585.882 8.60687C585.277 8.60687 584.793 8.80238 584.429 9.19339C584.064 9.57552 583.882 10.1398 583.882 10.8863V14.792H582.362V7.44716H583.882V9.06009C584.078 8.50912 584.406 8.08256 584.868 7.78041C585.331 7.47827 585.864 7.32719 586.468 7.32719ZM594.864 13.4723V14.792H593.93C593.148 14.792 592.553 14.6054 592.144 14.2321C591.744 13.85 591.544 13.2191 591.544 12.3393V8.74017H590.491V7.44716H591.544V5.62095H593.077V7.44716H594.85V8.74017H593.077V12.3659C593.077 12.7836 593.153 13.0724 593.304 13.2324C593.464 13.3923 593.739 13.4723 594.13 13.4723H594.864ZM596.174 5.31436C596.174 5.05665 596.263 4.84337 596.44 4.67452C596.618 4.50567 596.854 4.42125 597.147 4.42125C597.44 4.42125 597.676 4.50567 597.853 4.67452C598.04 4.84337 598.133 5.05665 598.133 5.31436C598.133 5.57208 598.04 5.78091 597.853 5.94087C597.676 6.10083 597.44 6.18081 597.147 6.18081C596.854 6.18081 596.618 6.10083 596.44 5.94087C596.263 5.78091 596.174 5.57208 596.174 5.31436ZM597.907 7.44716V14.792H596.387V7.44716H597.907ZM603.111 7.35385C604.062 7.35385 604.849 7.60712 605.471 8.11366C606.093 8.61132 606.48 9.29115 606.631 10.1532H605.018C604.929 9.69105 604.711 9.33114 604.364 9.07342C604.027 8.80682 603.6 8.67352 603.085 8.67352C602.498 8.67352 602.01 8.88236 601.618 9.30003C601.227 9.70882 601.032 10.3131 601.032 11.1129C601.032 11.9127 601.227 12.5214 601.618 12.9391C602.01 13.3568 602.498 13.5656 603.085 13.5656C603.6 13.5656 604.027 13.4323 604.364 13.1657C604.711 12.8991 604.929 12.5348 605.018 12.0727H606.631C606.48 12.9347 606.093 13.619 605.471 14.1255C604.849 14.632 604.062 14.8853 603.111 14.8853C602.401 14.8853 601.77 14.7342 601.219 14.4321C600.677 14.1299 600.25 13.6945 599.939 13.1257C599.628 12.557 599.472 11.8861 599.472 11.1129C599.472 10.3487 599.628 9.68216 599.939 9.11341C600.25 8.54467 600.677 8.10922 601.219 7.80707C601.77 7.50493 602.401 7.35385 603.111 7.35385ZM609.132 13.7523C609.292 14.161 609.372 14.5832 609.372 15.0186C609.372 15.5163 609.243 15.9206 608.985 16.2316C608.728 16.5516 608.336 16.7115 607.812 16.7115V16.0983C608.034 16.0983 608.199 16.0406 608.305 15.925C608.412 15.8095 608.465 15.614 608.465 15.3385V15.2186H607.692V13.7523H609.132ZM613.887 5.31436C613.887 5.05665 613.976 4.84337 614.154 4.67452C614.332 4.50567 614.567 4.42125 614.86 4.42125C615.154 4.42125 615.389 4.50567 615.567 4.67452C615.753 4.84337 615.847 5.05665 615.847 5.31436C615.847 5.57208 615.753 5.78091 615.567 5.94087C615.389 6.10083 615.154 6.18081 614.86 6.18081C614.567 6.18081 614.332 6.10083 614.154 5.94087C613.976 5.78091 613.887 5.57208 613.887 5.31436ZM615.62 7.44716V14.792H614.1V7.44716H615.62ZM621.665 7.32719C622.518 7.32719 623.202 7.60268 623.717 8.15365C624.233 8.70463 624.491 9.4911 624.491 10.5131V14.792H622.971V10.673C622.971 10.0154 622.802 9.50887 622.464 9.1534C622.127 8.78905 621.665 8.60687 621.078 8.60687C620.474 8.60687 619.989 8.80238 619.625 9.19339C619.261 9.57552 619.079 10.1398 619.079 10.8863V14.792H617.559V7.44716H619.079V9.06009C619.274 8.50912 619.603 8.08256 620.065 7.78041C620.527 7.47827 621.06 7.32719 621.665 7.32719ZM629.794 5.92754C629.198 5.90088 628.78 5.99864 628.541 6.2208C628.301 6.43408 628.181 6.80288 628.181 7.32719V7.44716H629.794V8.7535H628.181V14.792H626.648V8.7535H625.648V7.44716H626.648V7.20722C626.648 6.30967 626.91 5.63873 627.434 5.19439C627.958 4.74117 628.745 4.54122 629.794 4.59454V5.92754ZM634.474 7.35385C635.185 7.35385 635.825 7.50493 636.394 7.80707C636.962 8.10922 637.407 8.54467 637.727 9.11341C638.047 9.68216 638.207 10.3487 638.207 11.1129C638.207 11.8861 638.047 12.557 637.727 13.1257C637.407 13.6945 636.962 14.1299 636.394 14.4321C635.825 14.7342 635.185 14.8853 634.474 14.8853C633.763 14.8853 633.123 14.7342 632.555 14.4321C631.995 14.1299 631.55 13.6945 631.222 13.1257C630.902 12.5481 630.742 11.8772 630.742 11.1129C630.742 10.3487 630.902 9.68216 631.222 9.11341C631.55 8.54467 631.995 8.10922 632.555 7.80707C633.123 7.50493 633.763 7.35385 634.474 7.35385ZM634.474 8.67352C634.083 8.67352 633.723 8.76239 633.394 8.94012C633.066 9.11786 632.799 9.39334 632.595 9.76658C632.399 10.1309 632.301 10.5797 632.301 11.1129C632.301 11.655 632.399 12.1082 632.595 12.4726C632.799 12.8369 633.066 13.108 633.394 13.2857C633.723 13.4634 634.083 13.5523 634.474 13.5523C634.865 13.5523 635.225 13.4634 635.554 13.2857C635.883 13.108 636.145 12.8369 636.34 12.4726C636.545 12.1082 636.647 11.655 636.647 11.1129C636.647 10.5797 636.545 10.1309 636.34 9.76658C636.145 9.39334 635.883 9.11786 635.554 8.94012C635.225 8.76239 634.865 8.67352 634.474 8.67352Z" fill="#454545"/>
<path d="M701.667 26.126H717.667C726.503 26.126 733.667 33.2894 733.667 42.126V42.126C733.667 50.9625 726.503 58.126 717.667 58.126H701.667V26.126Z" fill="#EBFAFF"/>
<path d="M685.667 26.126H701.667C710.503 26.126 717.667 33.2894 717.667 42.126V42.126C717.667 50.9625 710.503 58.126 701.667 58.126H685.667V26.126Z" fill="#D9F6FF"/>
<path d="M669.667 26.126H685.667C694.503 26.126 701.667 33.2894 701.667 42.126V42.126C701.667 50.9625 694.503 58.126 685.667 58.126H669.667V26.126Z" fill="#B3E9FF"/>
<path d="M653.667 26.126H669.667C678.503 26.126 685.667 33.2894 685.667 42.126V42.126C685.667 50.9625 678.503 58.126 669.667 58.126H653.667V26.126Z" fill="#8DD8FF"/>
<path d="M637.667 26.126H653.667C662.503 26.126 669.667 33.2894 669.667 42.126V42.126C669.667 50.9625 662.503 58.126 653.667 58.126H637.667V26.126Z" fill="#71C6FF"/>
<path d="M621.667 26.126H637.667C646.503 26.126 653.667 33.2894 653.667 42.126V42.126C653.667 50.9625 646.503 58.126 637.667 58.126H621.667V26.126Z" fill="#42AAFF"/>
<path d="M605.667 26.126H621.667C630.503 26.126 637.667 33.2894 637.667 42.126V42.126C637.667 50.9625 630.503 58.126 621.667 58.126H605.667V26.126Z" fill="#3085DB"/>
<path d="M589.667 26.126H605.667C614.503 26.126 621.667 33.2894 621.667 42.126V42.126C621.667 50.9625 614.503 58.126 605.667 58.126H589.667V26.126Z" fill="#2163B7"/>
<path d="M573.667 26.126H589.667C598.503 26.126 605.667 33.2894 605.667 42.126V42.126C605.667 50.9625 598.503 58.126 589.667 58.126H573.667V26.126Z" fill="#154693"/>
<rect x="557.667" y="26.126" width="32" height="32" rx="16" fill="#0C317A"/>
<circle cx="555" cy="42.126" r="17" fill="#42AAFF" stroke="#292929" stroke-width="2"/>
<path d="M549.329 90.6192C549.329 91.0813 549.218 91.5123 548.996 91.9122C548.774 92.3032 548.436 92.6187 547.983 92.8586C547.53 93.0986 546.974 93.2186 546.317 93.2186C545.677 93.2186 545.103 93.1075 544.597 92.8853C544.09 92.6543 543.686 92.3343 543.384 91.9255C543.082 91.5168 542.908 91.0458 542.864 90.5126H544.49C544.535 90.9214 544.708 91.2724 545.01 91.5656C545.321 91.8589 545.734 92.0055 546.25 92.0055C546.712 92.0055 547.067 91.8811 547.316 91.6323C547.574 91.3835 547.703 91.0635 547.703 90.6725C547.703 90.3348 547.61 90.0593 547.423 89.8461C547.236 89.6239 547.005 89.4506 546.73 89.3262C546.454 89.2018 546.077 89.0596 545.597 88.8996C545.01 88.713 544.53 88.5264 544.157 88.3398C543.793 88.1532 543.482 87.8821 543.224 87.5266C542.966 87.1712 542.837 86.7046 542.837 86.127C542.837 85.6205 542.962 85.1761 543.211 84.794C543.459 84.4119 543.815 84.1186 544.277 83.9142C544.739 83.7009 545.272 83.5943 545.877 83.5943C546.836 83.5943 547.596 83.8253 548.156 84.2875C548.725 84.7496 549.049 85.3539 549.129 86.1003H547.49C547.427 85.7449 547.259 85.4427 546.983 85.1939C546.716 84.9362 546.348 84.8073 545.877 84.8073C545.45 84.8073 545.108 84.9184 544.85 85.1406C544.593 85.3539 544.464 85.6649 544.464 86.0737C544.464 86.3936 544.553 86.6602 544.73 86.8735C544.908 87.0779 545.13 87.2423 545.397 87.3667C545.672 87.4822 546.045 87.62 546.516 87.7799C547.112 87.9665 547.596 88.1576 547.969 88.3531C548.352 88.5397 548.671 88.8152 548.929 89.1796C549.196 89.5439 549.329 90.0238 549.329 90.6192ZM557.775 89.0996C557.775 89.3484 557.758 89.5661 557.722 89.7528H552.07C552.097 90.5081 552.306 91.068 552.697 91.4323C553.088 91.7967 553.572 91.9789 554.15 91.9789C554.656 91.9789 555.083 91.85 555.429 91.5923C555.785 91.3346 556.002 90.9924 556.082 90.5659H557.709C557.611 91.0813 557.407 91.539 557.096 91.9389C556.784 92.3388 556.38 92.6543 555.882 92.8853C555.385 93.1075 554.829 93.2186 554.216 93.2186C553.505 93.2186 552.874 93.0675 552.323 92.7653C551.781 92.4632 551.355 92.0277 551.044 91.459C550.733 90.8902 550.577 90.2193 550.577 89.4462C550.577 88.6819 550.733 88.0154 551.044 87.4467C551.355 86.8779 551.781 86.4425 552.323 86.1403C552.874 85.8382 553.505 85.6871 554.216 85.6871C554.936 85.6871 555.563 85.8382 556.096 86.1403C556.638 86.4336 557.051 86.8424 557.335 87.3667C557.629 87.8821 557.775 88.4597 557.775 89.0996ZM556.242 89.0596C556.26 88.5797 556.176 88.1798 555.989 87.8599C555.811 87.5311 555.563 87.2911 555.243 87.1401C554.932 86.9801 554.589 86.9001 554.216 86.9001C553.621 86.9001 553.123 87.0823 552.723 87.4467C552.323 87.811 552.106 88.3487 552.07 89.0596H556.242ZM568.527 85.6604C569.398 85.6604 570.091 85.9359 570.606 86.4869C571.131 87.0379 571.393 87.8243 571.393 88.8463V93.1252H569.873V89.0063C569.873 88.3664 569.713 87.8732 569.393 87.5266C569.073 87.1712 568.634 86.9934 568.074 86.9934C567.478 86.9934 567.003 87.1845 566.647 87.5666C566.301 87.9399 566.128 88.4908 566.128 89.2196V93.1252H564.608V89.0063C564.608 88.3664 564.448 87.8732 564.128 87.5266C563.808 87.1712 563.368 86.9934 562.808 86.9934C562.213 86.9934 561.738 87.1845 561.382 87.5666C561.036 87.9399 560.862 88.4908 560.862 89.2196V93.1252H559.343V85.7804H560.862V87.3134C561.049 86.7802 561.36 86.3714 561.795 86.087C562.231 85.8026 562.742 85.6604 563.328 85.6604C563.941 85.6604 564.47 85.8115 564.915 86.1137C565.368 86.4158 565.697 86.8513 565.901 87.42C566.114 86.869 566.456 86.438 566.927 86.127C567.398 85.816 567.932 85.6604 568.527 85.6604ZM576.213 85.6871C576.88 85.6871 577.448 85.8515 577.919 86.1803C578.39 86.5091 578.724 86.9446 578.919 87.4867V85.7804H580.439V93.1252H578.919V91.419C578.724 91.9611 578.39 92.3965 577.919 92.7253C577.448 93.0542 576.88 93.2186 576.213 93.2186C575.573 93.2186 575 93.0675 574.494 92.7653C573.996 92.4632 573.605 92.0277 573.321 91.459C573.036 90.8902 572.894 90.2193 572.894 89.4462C572.894 88.6819 573.036 88.0154 573.321 87.4467C573.605 86.8779 573.996 86.4425 574.494 86.1403C575 85.8382 575.573 85.6871 576.213 85.6871ZM576.68 87.0201C576.004 87.0201 575.462 87.2378 575.053 87.6733C574.654 88.0998 574.454 88.6908 574.454 89.4462C574.454 90.2015 574.654 90.7969 575.053 91.2324C575.462 91.6589 576.004 91.8722 576.68 91.8722C577.106 91.8722 577.488 91.7745 577.826 91.579C578.164 91.3746 578.43 91.0902 578.626 90.7258C578.821 90.3615 578.919 89.9349 578.919 89.4462C578.919 88.9663 578.821 88.5442 578.626 88.1798C578.43 87.8066 578.164 87.5222 577.826 87.3267C577.488 87.1223 577.106 87.0201 576.68 87.0201ZM586.468 85.6604C587.321 85.6604 588.005 85.9359 588.521 86.4869C589.036 87.0379 589.294 87.8243 589.294 88.8463V93.1252H587.774V89.0063C587.774 88.3487 587.606 87.8421 587.268 87.4867C586.93 87.1223 586.468 86.9401 585.882 86.9401C585.277 86.9401 584.793 87.1356 584.429 87.5266C584.064 87.9088 583.882 88.4731 583.882 89.2196V93.1252H582.362V85.7804H583.882V87.3933C584.078 86.8424 584.406 86.4158 584.868 86.1137C585.331 85.8115 585.864 85.6604 586.468 85.6604ZM594.864 91.8056V93.1252H593.93C593.148 93.1252 592.553 92.9386 592.144 92.5654C591.744 92.1833 591.544 91.5523 591.544 90.6725V87.0734H590.491V85.7804H591.544V83.9542H593.077V85.7804H594.85V87.0734H593.077V90.6992C593.077 91.1169 593.153 91.4057 593.304 91.5656C593.464 91.7256 593.739 91.8056 594.13 91.8056H594.864ZM596.174 83.6476C596.174 83.3899 596.263 83.1766 596.44 83.0078C596.618 82.8389 596.854 82.7545 597.147 82.7545C597.44 82.7545 597.676 82.8389 597.853 83.0078C598.04 83.1766 598.133 83.3899 598.133 83.6476C598.133 83.9053 598.04 84.1142 597.853 84.2741C597.676 84.4341 597.44 84.5141 597.147 84.5141C596.854 84.5141 596.618 84.4341 596.44 84.2741C596.263 84.1142 596.174 83.9053 596.174 83.6476ZM597.907 85.7804V93.1252H596.387V85.7804H597.907ZM603.111 85.6871C604.062 85.6871 604.849 85.9404 605.471 86.4469C606.093 86.9446 606.48 87.6244 606.631 88.4864H605.018C604.929 88.0243 604.711 87.6644 604.364 87.4067C604.027 87.1401 603.6 87.0068 603.085 87.0068C602.498 87.0068 602.01 87.2156 601.618 87.6333C601.227 88.0421 601.032 88.6464 601.032 89.4462C601.032 90.246 601.227 90.8547 601.618 91.2724C602.01 91.69 602.498 91.8989 603.085 91.8989C603.6 91.8989 604.027 91.7656 604.364 91.499C604.711 91.2324 604.929 90.868 605.018 90.4059H606.631C606.48 91.2679 606.093 91.9522 605.471 92.4587C604.849 92.9653 604.062 93.2186 603.111 93.2186C602.401 93.2186 601.77 93.0675 601.219 92.7653C600.677 92.4632 600.25 92.0277 599.939 91.459C599.628 90.8902 599.472 90.2193 599.472 89.4462C599.472 88.6819 599.628 88.0154 599.939 87.4467C600.25 86.8779 600.677 86.4425 601.219 86.1403C601.77 85.8382 602.401 85.6871 603.111 85.6871ZM609.132 92.0855C609.292 92.4943 609.372 92.9164 609.372 93.3519C609.372 93.8495 609.243 94.2539 608.985 94.5649C608.728 94.8848 608.336 95.0448 607.812 95.0448V94.4316C608.034 94.4316 608.199 94.3738 608.305 94.2583C608.412 94.1428 608.465 93.9473 608.465 93.6718V93.5518H607.692V92.0855H609.132ZM624.391 85.7804L622.352 93.1252H620.672L618.859 87.4467L617.02 93.1252H615.353L613.314 85.7804H614.847L616.247 91.7256L618.086 85.7804H619.686L621.552 91.7256L622.952 85.7804H624.391ZM628.472 85.6871C629.138 85.6871 629.707 85.8515 630.178 86.1803C630.649 86.5091 630.982 86.9446 631.178 87.4867V85.7804H632.697V93.1252H631.178V91.419C630.982 91.9611 630.649 92.3965 630.178 92.7253C629.707 93.0542 629.138 93.2186 628.472 93.2186C627.832 93.2186 627.259 93.0675 626.752 92.7653C626.254 92.4632 625.863 92.0277 625.579 91.459C625.295 90.8902 625.153 90.2193 625.153 89.4462C625.153 88.6819 625.295 88.0154 625.579 87.4467C625.863 86.8779 626.254 86.4425 626.752 86.1403C627.259 85.8382 627.832 85.6871 628.472 85.6871ZM628.938 87.0201C628.263 87.0201 627.721 87.2378 627.312 87.6733C626.912 88.0998 626.712 88.6908 626.712 89.4462C626.712 90.2015 626.912 90.7969 627.312 91.2324C627.721 91.6589 628.263 91.8722 628.938 91.8722C629.365 91.8722 629.747 91.7745 630.085 91.579C630.422 91.3746 630.689 91.0902 630.884 90.7258C631.08 90.3615 631.178 89.9349 631.178 89.4462C631.178 88.9663 631.08 88.5442 630.884 88.1798C630.689 87.8066 630.422 87.5222 630.085 87.3267C629.747 87.1223 629.365 87.0201 628.938 87.0201ZM636.141 87.2201C636.389 86.7402 636.745 86.3625 637.207 86.087C637.669 85.8026 638.202 85.6604 638.807 85.6604V87.3134H638.353C637.687 87.3134 637.149 87.4778 636.74 87.8066C636.34 88.1265 636.141 88.6597 636.141 89.4062V93.1252H634.621V85.7804H636.141V87.2201ZM644.151 85.6604C645.004 85.6604 645.688 85.9359 646.204 86.4869C646.719 87.0379 646.977 87.8243 646.977 88.8463V93.1252H645.457V89.0063C645.457 88.3487 645.288 87.8421 644.951 87.4867C644.613 87.1223 644.151 86.9401 643.564 86.9401C642.96 86.9401 642.476 87.1356 642.111 87.5266C641.747 87.9088 641.565 88.4731 641.565 89.2196V93.1252H640.045V85.7804H641.565V87.3933C641.76 86.8424 642.089 86.4158 642.551 86.1137C643.013 85.8115 643.546 85.6604 644.151 85.6604ZM648.641 83.6476C648.641 83.3899 648.729 83.1766 648.907 83.0078C649.085 82.8389 649.32 82.7545 649.614 82.7545C649.907 82.7545 650.142 82.8389 650.32 83.0078C650.507 83.1766 650.6 83.3899 650.6 83.6476C650.6 83.9053 650.507 84.1142 650.32 84.2741C650.142 84.4341 649.907 84.5141 649.614 84.5141C649.32 84.5141 649.085 84.4341 648.907 84.2741C648.729 84.1142 648.641 83.9053 648.641 83.6476ZM650.373 85.7804V93.1252H648.854V85.7804H650.373ZM656.418 85.6604C657.271 85.6604 657.955 85.9359 658.471 86.4869C658.986 87.0379 659.244 87.8243 659.244 88.8463V93.1252H657.724V89.0063C657.724 88.3487 657.556 87.8421 657.218 87.4867C656.88 87.1223 656.418 86.9401 655.831 86.9401C655.227 86.9401 654.743 87.1356 654.379 87.5266C654.014 87.9088 653.832 88.4731 653.832 89.2196V93.1252H652.312V85.7804H653.832V87.3933C654.028 86.8424 654.356 86.4158 654.818 86.1137C655.281 85.8115 655.814 85.6604 656.418 85.6604ZM664.067 85.6871C664.734 85.6871 665.302 85.8515 665.773 86.1803C666.244 86.5091 666.578 86.9446 666.773 87.4867V85.7804H668.293V93.2052C668.293 93.8895 668.15 94.4938 667.866 95.0181C667.591 95.5513 667.191 95.969 666.666 96.2711C666.142 96.5733 665.52 96.7243 664.8 96.7243C663.769 96.7243 662.934 96.48 662.294 95.9912C661.663 95.5024 661.268 94.8404 661.108 94.005H662.614C662.739 94.4405 662.978 94.7782 663.334 95.0181C663.689 95.2669 664.143 95.3913 664.694 95.3913C665.298 95.3913 665.796 95.2047 666.187 94.8315C666.578 94.4582 666.773 93.9162 666.773 93.2052V91.419C666.578 91.9611 666.244 92.3965 665.773 92.7253C665.302 93.0542 664.734 93.2186 664.067 93.2186C663.427 93.2186 662.854 93.0675 662.347 92.7653C661.85 92.4632 661.459 92.0277 661.174 91.459C660.89 90.8902 660.748 90.2193 660.748 89.4462C660.748 88.6819 660.89 88.0154 661.174 87.4467C661.459 86.8779 661.85 86.4425 662.347 86.1403C662.854 85.8382 663.427 85.6871 664.067 85.6871ZM664.534 87.0201C663.858 87.0201 663.316 87.2378 662.907 87.6733C662.507 88.0998 662.308 88.6908 662.308 89.4462C662.308 90.2015 662.507 90.7969 662.907 91.2324C663.316 91.6589 663.858 91.8722 664.534 91.8722C664.96 91.8722 665.342 91.7745 665.68 91.579C666.018 91.3746 666.284 91.0902 666.48 90.7258C666.675 90.3615 666.773 89.9349 666.773 89.4462C666.773 88.9663 666.675 88.5442 666.48 88.1798C666.284 87.8066 666.018 87.5222 665.68 87.3267C665.342 87.1223 664.96 87.0201 664.534 87.0201Z" fill="#454545"/>
<path d="M701.667 104.459H717.667C726.503 104.459 733.667 111.623 733.667 120.459V120.459C733.667 129.296 726.503 136.459 717.667 136.459H701.667V104.459Z" fill="#FEFDEB"/>
<path d="M685.667 104.459H701.667C710.503 104.459 717.667 111.623 717.667 120.459V120.459C717.667 129.296 710.503 136.459 701.667 136.459H685.667V104.459Z" fill="#FEFBDA"/>
<path d="M669.667 104.459H685.667C694.503 104.459 701.667 111.623 701.667 120.459V120.459C701.667 129.296 694.503 136.459 685.667 136.459H669.667V104.459Z" fill="#FEF6B5"/>
<path d="M653.667 104.459H669.667C678.503 104.459 685.667 111.623 685.667 120.459V120.459C685.667 129.296 678.503 136.459 669.667 136.459H653.667V104.459Z" fill="#FEEF8F"/>
<path d="M637.667 104.459H653.667C662.503 104.459 669.667 111.623 669.667 120.459V120.459C669.667 129.296 662.503 136.459 653.667 136.459H637.667V104.459Z" fill="#FDE874"/>
<path d="M621.667 104.459H637.667C646.503 104.459 653.667 111.623 653.667 120.459V120.459C653.667 129.296 646.503 136.459 637.667 136.459H621.667V104.459Z" fill="#FCDE46"/>
<path d="M605.667 104.459H621.667C630.503 104.459 637.667 111.623 637.667 120.459V120.459C637.667 129.296 630.503 136.459 621.667 136.459H605.667V104.459Z" fill="#D8BA33"/>
<path d="M589.667 104.459H605.667C614.503 104.459 621.667 111.623 621.667 120.459V120.459C621.667 129.296 614.503 136.459 605.667 136.459H589.667V104.459Z" fill="#B59823"/>
<path d="M573.667 104.459H589.667C598.503 104.459 605.667 111.623 605.667 120.459V120.459C605.667 129.296 598.503 136.459 589.667 136.459H573.667V104.459Z" fill="#927716"/>
<rect x="557.667" y="104.459" width="32" height="32" rx="16" fill="#785F0D"/>
<circle cx="555" cy="120.459" r="17" fill="#FCDE46" stroke="#292929" stroke-width="2"/>
<path d="M549.329 168.953C549.329 169.415 549.218 169.846 548.996 170.246C548.774 170.637 548.436 170.952 547.983 171.192C547.53 171.432 546.974 171.552 546.317 171.552C545.677 171.552 545.103 171.441 544.597 171.219C544.09 170.988 543.686 170.668 543.384 170.259C543.082 169.85 542.908 169.379 542.864 168.846H544.49C544.535 169.255 544.708 169.606 545.01 169.899C545.321 170.192 545.734 170.339 546.25 170.339C546.712 170.339 547.067 170.215 547.316 169.966C547.574 169.717 547.703 169.397 547.703 169.006C547.703 168.668 547.61 168.393 547.423 168.18C547.236 167.957 547.005 167.784 546.73 167.66C546.454 167.535 546.077 167.393 545.597 167.233C545.01 167.047 544.53 166.86 544.157 166.673C543.793 166.487 543.482 166.216 543.224 165.86C542.966 165.505 542.837 165.038 542.837 164.46C542.837 163.954 542.962 163.51 543.211 163.127C543.459 162.745 543.815 162.452 544.277 162.248C544.739 162.034 545.272 161.928 545.877 161.928C546.836 161.928 547.596 162.159 548.156 162.621C548.725 163.083 549.049 163.687 549.129 164.434H547.49C547.427 164.078 547.259 163.776 546.983 163.527C546.716 163.27 546.348 163.141 545.877 163.141C545.45 163.141 545.108 163.252 544.85 163.474C544.593 163.687 544.464 163.998 544.464 164.407C544.464 164.727 544.553 164.994 544.73 165.207C544.908 165.411 545.13 165.576 545.397 165.7C545.672 165.816 546.045 165.953 546.516 166.113C547.112 166.3 547.596 166.491 547.969 166.687C548.352 166.873 548.671 167.149 548.929 167.513C549.196 167.877 549.329 168.357 549.329 168.953ZM557.775 167.433C557.775 167.682 557.758 167.9 557.722 168.086H552.07C552.097 168.842 552.306 169.401 552.697 169.766C553.088 170.13 553.572 170.312 554.15 170.312C554.656 170.312 555.083 170.184 555.429 169.926C555.785 169.668 556.002 169.326 556.082 168.899H557.709C557.611 169.415 557.407 169.872 557.096 170.272C556.784 170.672 556.38 170.988 555.882 171.219C555.385 171.441 554.829 171.552 554.216 171.552C553.505 171.552 552.874 171.401 552.323 171.099C551.781 170.797 551.355 170.361 551.044 169.792C550.733 169.224 550.577 168.553 550.577 167.78C550.577 167.015 550.733 166.349 551.044 165.78C551.355 165.211 551.781 164.776 552.323 164.474C552.874 164.172 553.505 164.021 554.216 164.021C554.936 164.021 555.563 164.172 556.096 164.474C556.638 164.767 557.051 165.176 557.335 165.7C557.629 166.216 557.775 166.793 557.775 167.433ZM556.242 167.393C556.26 166.913 556.176 166.513 555.989 166.193C555.811 165.865 555.563 165.625 555.243 165.474C554.932 165.314 554.589 165.234 554.216 165.234C553.621 165.234 553.123 165.416 552.723 165.78C552.323 166.145 552.106 166.682 552.07 167.393H556.242ZM568.527 163.994C569.398 163.994 570.091 164.269 570.606 164.82C571.131 165.371 571.393 166.158 571.393 167.18V171.459H569.873V167.34C569.873 166.7 569.713 166.207 569.393 165.86C569.073 165.505 568.634 165.327 568.074 165.327C567.478 165.327 567.003 165.518 566.647 165.9C566.301 166.273 566.128 166.824 566.128 167.553V171.459H564.608V167.34C564.608 166.7 564.448 166.207 564.128 165.86C563.808 165.505 563.368 165.327 562.808 165.327C562.213 165.327 561.738 165.518 561.382 165.9C561.036 166.273 560.862 166.824 560.862 167.553V171.459H559.343V164.114H560.862V165.647C561.049 165.114 561.36 164.705 561.795 164.421C562.231 164.136 562.742 163.994 563.328 163.994C563.941 163.994 564.47 164.145 564.915 164.447C565.368 164.749 565.697 165.185 565.901 165.753C566.114 165.203 566.456 164.772 566.927 164.46C567.398 164.149 567.932 163.994 568.527 163.994ZM576.213 164.021C576.88 164.021 577.448 164.185 577.919 164.514C578.39 164.843 578.724 165.278 578.919 165.82V164.114H580.439V171.459H578.919V169.753C578.724 170.295 578.39 170.73 577.919 171.059C577.448 171.388 576.88 171.552 576.213 171.552C575.573 171.552 575 171.401 574.494 171.099C573.996 170.797 573.605 170.361 573.321 169.792C573.036 169.224 572.894 168.553 572.894 167.78C572.894 167.015 573.036 166.349 573.321 165.78C573.605 165.211 573.996 164.776 574.494 164.474C575 164.172 575.573 164.021 576.213 164.021ZM576.68 165.354C576.004 165.354 575.462 165.571 575.053 166.007C574.654 166.433 574.454 167.024 574.454 167.78C574.454 168.535 574.654 169.13 575.053 169.566C575.462 169.992 576.004 170.206 576.68 170.206C577.106 170.206 577.488 170.108 577.826 169.912C578.164 169.708 578.43 169.424 578.626 169.059C578.821 168.695 578.919 168.268 578.919 167.78C578.919 167.3 578.821 166.878 578.626 166.513C578.43 166.14 578.164 165.856 577.826 165.66C577.488 165.456 577.106 165.354 576.68 165.354ZM586.468 163.994C587.321 163.994 588.005 164.269 588.521 164.82C589.036 165.371 589.294 166.158 589.294 167.18V171.459H587.774V167.34C587.774 166.682 587.606 166.176 587.268 165.82C586.93 165.456 586.468 165.274 585.882 165.274C585.277 165.274 584.793 165.469 584.429 165.86C584.064 166.242 583.882 166.807 583.882 167.553V171.459H582.362V164.114H583.882V165.727C584.078 165.176 584.406 164.749 584.868 164.447C585.331 164.145 585.864 163.994 586.468 163.994ZM594.864 170.139V171.459H593.93C593.148 171.459 592.553 171.272 592.144 170.899C591.744 170.517 591.544 169.886 591.544 169.006V165.407H590.491V164.114H591.544V162.288H593.077V164.114H594.85V165.407H593.077V169.033C593.077 169.45 593.153 169.739 593.304 169.899C593.464 170.059 593.739 170.139 594.13 170.139H594.864ZM596.174 161.981C596.174 161.723 596.263 161.51 596.44 161.341C596.618 161.172 596.854 161.088 597.147 161.088C597.44 161.088 597.676 161.172 597.853 161.341C598.04 161.51 598.133 161.723 598.133 161.981C598.133 162.239 598.04 162.448 597.853 162.608C597.676 162.768 597.44 162.848 597.147 162.848C596.854 162.848 596.618 162.768 596.44 162.608C596.263 162.448 596.174 162.239 596.174 161.981ZM597.907 164.114V171.459H596.387V164.114H597.907ZM603.111 164.021C604.062 164.021 604.849 164.274 605.471 164.78C606.093 165.278 606.48 165.958 606.631 166.82H605.018C604.929 166.358 604.711 165.998 604.364 165.74C604.027 165.474 603.6 165.34 603.085 165.34C602.498 165.34 602.01 165.549 601.618 165.967C601.227 166.376 601.032 166.98 601.032 167.78C601.032 168.579 601.227 169.188 601.618 169.606C602.01 170.024 602.498 170.232 603.085 170.232C603.6 170.232 604.027 170.099 604.364 169.832C604.711 169.566 604.929 169.202 605.018 168.739H606.631C606.48 169.601 606.093 170.286 605.471 170.792C604.849 171.299 604.062 171.552 603.111 171.552C602.401 171.552 601.77 171.401 601.219 171.099C600.677 170.797 600.25 170.361 599.939 169.792C599.628 169.224 599.472 168.553 599.472 167.78C599.472 167.015 599.628 166.349 599.939 165.78C600.25 165.211 600.677 164.776 601.219 164.474C601.77 164.172 602.401 164.021 603.111 164.021ZM609.132 170.419C609.292 170.828 609.372 171.25 609.372 171.685C609.372 172.183 609.243 172.587 608.985 172.898C608.728 173.218 608.336 173.378 607.812 173.378V172.765C608.034 172.765 608.199 172.707 608.305 172.592C608.412 172.476 608.465 172.281 608.465 172.005V171.885H607.692V170.419H609.132ZM620.925 167.433C620.925 167.682 620.908 167.9 620.872 168.086H615.22C615.247 168.842 615.456 169.401 615.847 169.766C616.238 170.13 616.722 170.312 617.3 170.312C617.806 170.312 618.233 170.184 618.579 169.926C618.935 169.668 619.153 169.326 619.232 168.899H620.859C620.761 169.415 620.557 169.872 620.246 170.272C619.935 170.672 619.53 170.988 619.033 171.219C618.535 171.441 617.979 171.552 617.366 171.552C616.655 171.552 616.024 171.401 615.473 171.099C614.931 170.797 614.505 170.361 614.194 169.792C613.883 169.224 613.727 168.553 613.727 167.78C613.727 167.015 613.883 166.349 614.194 165.78C614.505 165.211 614.931 164.776 615.473 164.474C616.024 164.172 616.655 164.021 617.366 164.021C618.086 164.021 618.713 164.172 619.246 164.474C619.788 164.767 620.201 165.176 620.486 165.7C620.779 166.216 620.925 166.793 620.925 167.433ZM619.392 167.393C619.41 166.913 619.326 166.513 619.139 166.193C618.961 165.865 618.713 165.625 618.393 165.474C618.082 165.314 617.74 165.234 617.366 165.234C616.771 165.234 616.273 165.416 615.873 165.78C615.473 166.145 615.256 166.682 615.22 167.393H619.392ZM624.012 165.554C624.261 165.074 624.617 164.696 625.079 164.421C625.541 164.136 626.074 163.994 626.678 163.994V165.647H626.225C625.559 165.647 625.021 165.811 624.612 166.14C624.212 166.46 624.012 166.993 624.012 167.74V171.459H622.493V164.114H624.012V165.554ZM629.436 165.554C629.685 165.074 630.041 164.696 630.503 164.421C630.965 164.136 631.498 163.994 632.102 163.994V165.647H631.649C630.983 165.647 630.445 165.811 630.036 166.14C629.636 166.46 629.436 166.993 629.436 167.74V171.459H627.917V164.114H629.436V165.554ZM636.7 164.021C637.411 164.021 638.051 164.172 638.62 164.474C639.188 164.776 639.633 165.211 639.953 165.78C640.273 166.349 640.433 167.015 640.433 167.78C640.433 168.553 640.273 169.224 639.953 169.792C639.633 170.361 639.188 170.797 638.62 171.099C638.051 171.401 637.411 171.552 636.7 171.552C635.989 171.552 635.349 171.401 634.781 171.099C634.221 170.797 633.776 170.361 633.448 169.792C633.128 169.215 632.968 168.544 632.968 167.78C632.968 167.015 633.128 166.349 633.448 165.78C633.776 165.211 634.221 164.776 634.781 164.474C635.349 164.172 635.989 164.021 636.7 164.021ZM636.7 165.34C636.309 165.34 635.949 165.429 635.62 165.607C635.292 165.785 635.025 166.06 634.821 166.433C634.625 166.798 634.527 167.246 634.527 167.78C634.527 168.322 634.625 168.775 634.821 169.139C635.025 169.504 635.292 169.775 635.62 169.952C635.949 170.13 636.309 170.219 636.7 170.219C637.091 170.219 637.451 170.13 637.78 169.952C638.109 169.775 638.371 169.504 638.566 169.139C638.771 168.775 638.873 168.322 638.873 167.78C638.873 167.246 638.771 166.798 638.566 166.433C638.371 166.06 638.109 165.785 637.78 165.607C637.451 165.429 637.091 165.34 636.7 165.34ZM643.513 165.554C643.762 165.074 644.117 164.696 644.58 164.421C645.042 164.136 645.575 163.994 646.179 163.994V165.647H645.726C645.059 165.647 644.522 165.811 644.113 166.14C643.713 166.46 643.513 166.993 643.513 167.74V171.459H641.994V164.114H643.513V165.554Z" fill="#454545"/>
<path d="M701.667 182.793H717.667C726.503 182.793 733.667 189.956 733.667 198.793V198.793C733.667 207.629 726.503 214.793 717.667 214.793H701.667V182.793Z" fill="#FFF5EB"/>
<path d="M685.667 182.793H701.667C710.503 182.793 717.667 189.956 717.667 198.793V198.793C717.667 207.629 710.503 214.793 701.667 214.793H685.667V182.793Z" fill="#FFEDDA"/>
<path d="M669.667 182.793H685.667C694.503 182.793 701.667 189.956 701.667 198.793V198.793C701.667 207.629 694.503 214.793 685.667 214.793H669.667V182.793Z" fill="#FFD6B6"/>
<path d="M653.667 182.793H669.667C678.503 182.793 685.667 189.956 685.667 198.793V198.793C685.667 207.629 678.503 214.793 669.667 214.793H653.667V182.793Z" fill="#FFB991"/>
<path d="M637.667 182.793H653.667C662.503 182.793 669.667 189.956 669.667 198.793V198.793C669.667 207.629 662.503 214.793 653.667 214.793H637.667V182.793Z" fill="#FF9E76"/>
<path d="M621.667 182.793H637.667C646.503 182.793 653.667 189.956 653.667 198.793V198.793C653.667 207.629 646.503 214.793 637.667 214.793H621.667V182.793Z" fill="#FF7149"/>
<path d="M605.667 182.793H621.667C630.503 182.793 637.667 189.956 637.667 198.793V198.793C637.667 207.629 630.503 214.793 621.667 214.793H605.667V182.793Z" fill="#DB4D35"/>
<path d="M589.667 182.793H605.667C614.503 182.793 621.667 189.956 621.667 198.793V198.793C621.667 207.629 614.503 214.793 605.667 214.793H589.667V182.793Z" fill="#B72F24"/>
<path d="M573.667 182.793H589.667C598.503 182.793 605.667 189.956 605.667 198.793V198.793C605.667 207.629 598.503 214.793 589.667 214.793H573.667V182.793Z" fill="#931717"/>
<rect x="557.667" y="182.793" width="32" height="32" rx="16" fill="#7A0E15"/>
<circle cx="555" cy="198.793" r="17" fill="#FF7149" stroke="#292929" stroke-width="2"/>
</svg>
