<svg width="830" height="49" viewBox="0 0 830 49" fill="none" xmlns="http://www.w3.org/2000/svg">
<g clip-path="url(#clip0_4783_6011)">
<g clip-path="url(#clip1_4783_6011)">
<path d="M101.5 1.98242H23.5C10.5213 1.98242 0 12.5037 0 25.4824C0 38.4611 10.5213 48.9824 23.5 48.9824H101.5C114.479 48.9824 125 38.4611 125 25.4824C125 12.5037 114.479 1.98242 101.5 1.98242Z" fill="#00495E"/>
<path d="M21.178 31.9822H19.54L12.952 21.9562V31.9822H11.314V19.2922H12.952L19.54 29.3362V19.2922H21.178V31.9822ZM28.294 21.9742C29.242 21.9742 30.088 22.1782 30.832 22.5862C31.588 22.9942 32.176 23.5822 32.596 24.3502C33.028 25.1182 33.244 26.0182 33.244 27.0502C33.244 28.0822 33.028 28.9822 32.596 29.7502C32.176 30.5062 31.588 31.0882 30.832 31.4962C30.088 31.9042 29.242 32.1082 28.294 32.1082C27.346 32.1082 26.494 31.9042 25.738 31.4962C24.994 31.0882 24.406 30.5062 23.974 29.7502C23.542 28.9822 23.326 28.0822 23.326 27.0502C23.326 26.0182 23.542 25.1182 23.974 24.3502C24.406 23.5822 24.994 22.9942 25.738 22.5862C26.494 22.1782 27.346 21.9742 28.294 21.9742ZM28.294 23.4142C27.706 23.4142 27.16 23.5462 26.656 23.8102C26.164 24.0742 25.762 24.4822 25.45 25.0342C25.15 25.5742 25 26.2462 25 27.0502C25 27.8422 25.15 28.5142 25.45 29.0662C25.762 29.6062 26.164 30.0082 26.656 30.2722C27.16 30.5362 27.706 30.6682 28.294 30.6682C28.882 30.6682 29.422 30.5362 29.914 30.2722C30.418 30.0082 30.82 29.6062 31.12 29.0662C31.432 28.5142 31.588 27.8422 31.588 27.0502C31.588 26.2462 31.432 25.5742 31.12 25.0342C30.82 24.4822 30.418 24.0742 29.914 23.8102C29.422 23.5462 28.882 23.4142 28.294 23.4142ZM39.2125 30.2362L42.2725 22.1002H44.0365L40.1665 31.9822H38.2225L34.3525 22.1002H36.1165L39.2125 30.2362ZM49.0113 20.8222V19.2922H52.6473V31.9822H50.9193V20.8222H49.0113ZM62.5133 20.4802L57.7073 31.9822H55.9793L60.8573 20.6422H54.1973V19.2202H62.5133V20.4802ZM65.3188 30.7762C65.4868 31.3042 65.5708 31.7962 65.5708 32.2522C65.5708 32.8762 65.4148 33.3742 65.1028 33.7462C64.7908 34.1302 64.3228 34.3222 63.6988 34.3222V33.6202C63.9988 33.6202 64.2148 33.5362 64.3468 33.3682C64.4908 33.2122 64.5628 32.9602 64.5628 32.6122V32.4502H63.6448V30.7762H65.3188ZM71.4005 30.7222C73.4405 29.3542 75.0725 27.9982 76.2965 26.6542C77.5205 25.2982 78.1325 24.0382 78.1325 22.8742C78.1325 22.1542 77.9465 21.5782 77.5745 21.1462C77.2145 20.7022 76.6265 20.4802 75.8105 20.4802C74.9705 20.4802 74.3345 20.7502 73.9025 21.2902C73.4705 21.8182 73.2305 22.5502 73.1825 23.4862H71.5625C71.6465 22.0702 72.0845 20.9842 72.8765 20.2282C73.6685 19.4602 74.6885 19.0762 75.9365 19.0762C77.1245 19.0762 78.0665 19.3942 78.7625 20.0302C79.4585 20.6662 79.8065 21.5662 79.8065 22.7302C79.8065 23.6902 79.4945 24.6682 78.8705 25.6642C78.2585 26.6482 77.4845 27.5662 76.5485 28.4182C75.6245 29.2582 74.6705 29.9722 73.6865 30.5602H80.1305V31.9102H71.4005V30.7222ZM82.8914 30.3262C82.2194 29.1862 81.8834 27.5962 81.8834 25.5562C81.8834 23.5282 82.2194 21.9502 82.8914 20.8222C83.5634 19.6822 84.7274 19.1122 86.3834 19.1122C88.0394 19.1122 89.2034 19.6822 89.8754 20.8222C90.5594 21.9622 90.9014 23.5402 90.9014 25.5562C90.9014 27.5962 90.5594 29.1862 89.8754 30.3262C89.2034 31.4662 88.0394 32.0362 86.3834 32.0362C84.7274 32.0362 83.5634 31.4662 82.8914 30.3262ZM89.0474 28.1842C89.2034 27.4762 89.2814 26.6002 89.2814 25.5562C89.2814 24.5242 89.2034 23.6602 89.0474 22.9642C88.9034 22.2682 88.6214 21.7162 88.2014 21.3082C87.7814 20.8882 87.1754 20.6782 86.3834 20.6782C85.6034 20.6782 85.0034 20.8882 84.5834 21.3082C84.1634 21.7162 83.8754 22.2682 83.7194 22.9642C83.5754 23.6602 83.5034 24.5242 83.5034 25.5562C83.5034 26.6002 83.5754 27.4762 83.7194 28.1842C83.8754 28.8802 84.1634 29.4382 84.5834 29.8582C85.0034 30.2782 85.6034 30.4882 86.3834 30.4882C87.1754 30.4882 87.7814 30.2782 88.2014 29.8582C88.6214 29.4382 88.9034 28.8802 89.0474 28.1842ZM93.9481 30.3262C93.2761 29.1862 92.9401 27.5962 92.9401 25.5562C92.9401 23.5282 93.2761 21.9502 93.9481 20.8222C94.6201 19.6822 95.7841 19.1122 97.4401 19.1122C99.0961 19.1122 100.26 19.6822 100.932 20.8222C101.616 21.9622 101.958 23.5402 101.958 25.5562C101.958 27.5962 101.616 29.1862 100.932 30.3262C100.26 31.4662 99.0961 32.0362 97.4401 32.0362C95.7841 32.0362 94.6201 31.4662 93.9481 30.3262ZM100.104 28.1842C100.26 27.4762 100.338 26.6002 100.338 25.5562C100.338 24.5242 100.26 23.6602 100.104 22.9642C99.9601 22.2682 99.6781 21.7162 99.2581 21.3082C98.8381 20.8882 98.2321 20.6782 97.4401 20.6782C96.6601 20.6782 96.0601 20.8882 95.6401 21.3082C95.2201 21.7162 94.9321 22.2682 94.7761 22.9642C94.6321 23.6602 94.5601 24.5242 94.5601 25.5562C94.5601 26.6002 94.6321 27.4762 94.7761 28.1842C94.9321 28.8802 95.2201 29.4382 95.6401 29.8582C96.0601 30.2782 96.6601 30.4882 97.4401 30.4882C98.2321 30.4882 98.8381 30.2782 99.2581 29.8582C99.6781 29.4382 99.9601 28.8802 100.104 28.1842ZM103.529 29.0662V27.6982L110.045 19.2022H111.809V27.6442H113.681V29.0662H111.809V31.9822H110.153V29.0662H103.529ZM110.261 21.2002L105.257 27.6442H110.261V21.2002Z" fill="#FEF6B5"/>
<path d="M242.5 1.98242H164.5C151.521 1.98242 141 12.5037 141 25.4824C141 38.4611 151.521 48.9824 164.5 48.9824H242.5C255.479 48.9824 266 38.4611 266 25.4824C266 12.5037 255.479 1.98242 242.5 1.98242Z" fill="#00495E"/>
<path d="M162.178 31.9822H160.54L153.952 21.9562V31.9822H152.314V19.2922H153.952L160.54 29.3362V19.2922H162.178V31.9822ZM169.294 21.9742C170.242 21.9742 171.088 22.1782 171.832 22.5862C172.588 22.9942 173.176 23.5822 173.596 24.3502C174.028 25.1182 174.244 26.0182 174.244 27.0502C174.244 28.0822 174.028 28.9822 173.596 29.7502C173.176 30.5062 172.588 31.0882 171.832 31.4962C171.088 31.9042 170.242 32.1082 169.294 32.1082C168.346 32.1082 167.494 31.9042 166.738 31.4962C165.994 31.0882 165.406 30.5062 164.974 29.7502C164.542 28.9822 164.326 28.0822 164.326 27.0502C164.326 26.0182 164.542 25.1182 164.974 24.3502C165.406 23.5822 165.994 22.9942 166.738 22.5862C167.494 22.1782 168.346 21.9742 169.294 21.9742ZM169.294 23.4142C168.706 23.4142 168.16 23.5462 167.656 23.8102C167.164 24.0742 166.762 24.4822 166.45 25.0342C166.15 25.5742 166 26.2462 166 27.0502C166 27.8422 166.15 28.5142 166.45 29.0662C166.762 29.6062 167.164 30.0082 167.656 30.2722C168.16 30.5362 168.706 30.6682 169.294 30.6682C169.882 30.6682 170.422 30.5362 170.914 30.2722C171.418 30.0082 171.82 29.6062 172.12 29.0662C172.432 28.5142 172.588 27.8422 172.588 27.0502C172.588 26.2462 172.432 25.5742 172.12 25.0342C171.82 24.4822 171.418 24.0742 170.914 23.8102C170.422 23.5462 169.882 23.4142 169.294 23.4142ZM180.212 30.2362L183.272 22.1002H185.036L181.166 31.9822H179.222L175.352 22.1002H177.116L180.212 30.2362ZM190.011 20.8222V19.2922H193.647V31.9822H191.919V20.8222H190.011ZM203.513 20.4802L198.707 31.9822H196.979L201.857 20.6422H195.197V19.2202H203.513V20.4802ZM206.319 30.7762C206.487 31.3042 206.571 31.7962 206.571 32.2522C206.571 32.8762 206.415 33.3742 206.103 33.7462C205.791 34.1302 205.323 34.3222 204.699 34.3222V33.6202C204.999 33.6202 205.215 33.5362 205.347 33.3682C205.491 33.2122 205.563 32.9602 205.563 32.6122V32.4502H204.645V30.7762H206.319ZM212.401 30.7222C214.441 29.3542 216.073 27.9982 217.297 26.6542C218.521 25.2982 219.133 24.0382 219.133 22.8742C219.133 22.1542 218.947 21.5782 218.575 21.1462C218.215 20.7022 217.627 20.4802 216.811 20.4802C215.971 20.4802 215.335 20.7502 214.903 21.2902C214.471 21.8182 214.231 22.5502 214.183 23.4862H212.563C212.647 22.0702 213.085 20.9842 213.877 20.2282C214.669 19.4602 215.689 19.0762 216.937 19.0762C218.125 19.0762 219.067 19.3942 219.763 20.0302C220.459 20.6662 220.807 21.5662 220.807 22.7302C220.807 23.6902 220.495 24.6682 219.871 25.6642C219.259 26.6482 218.485 27.5662 217.549 28.4182C216.625 29.2582 215.671 29.9722 214.687 30.5602H221.131V31.9102H212.401V30.7222ZM223.891 30.3262C223.219 29.1862 222.883 27.5962 222.883 25.5562C222.883 23.5282 223.219 21.9502 223.891 20.8222C224.563 19.6822 225.727 19.1122 227.383 19.1122C229.039 19.1122 230.203 19.6822 230.875 20.8222C231.559 21.9622 231.901 23.5402 231.901 25.5562C231.901 27.5962 231.559 29.1862 230.875 30.3262C230.203 31.4662 229.039 32.0362 227.383 32.0362C225.727 32.0362 224.563 31.4662 223.891 30.3262ZM230.047 28.1842C230.203 27.4762 230.281 26.6002 230.281 25.5562C230.281 24.5242 230.203 23.6602 230.047 22.9642C229.903 22.2682 229.621 21.7162 229.201 21.3082C228.781 20.8882 228.175 20.6782 227.383 20.6782C226.603 20.6782 226.003 20.8882 225.583 21.3082C225.163 21.7162 224.875 22.2682 224.719 22.9642C224.575 23.6602 224.503 24.5242 224.503 25.5562C224.503 26.6002 224.575 27.4762 224.719 28.1842C224.875 28.8802 225.163 29.4382 225.583 29.8582C226.003 30.2782 226.603 30.4882 227.383 30.4882C228.175 30.4882 228.781 30.2782 229.201 29.8582C229.621 29.4382 229.903 28.8802 230.047 28.1842ZM234.948 30.3262C234.276 29.1862 233.94 27.5962 233.94 25.5562C233.94 23.5282 234.276 21.9502 234.948 20.8222C235.62 19.6822 236.784 19.1122 238.44 19.1122C240.096 19.1122 241.26 19.6822 241.932 20.8222C242.616 21.9622 242.958 23.5402 242.958 25.5562C242.958 27.5962 242.616 29.1862 241.932 30.3262C241.26 31.4662 240.096 32.0362 238.44 32.0362C236.784 32.0362 235.62 31.4662 234.948 30.3262ZM241.104 28.1842C241.26 27.4762 241.338 26.6002 241.338 25.5562C241.338 24.5242 241.26 23.6602 241.104 22.9642C240.96 22.2682 240.678 21.7162 240.258 21.3082C239.838 20.8882 239.232 20.6782 238.44 20.6782C237.66 20.6782 237.06 20.8882 236.64 21.3082C236.22 21.7162 235.932 22.2682 235.776 22.9642C235.632 23.6602 235.56 24.5242 235.56 25.5562C235.56 26.6002 235.632 27.4762 235.776 28.1842C235.932 28.8802 236.22 29.4382 236.64 29.8582C237.06 30.2782 237.66 30.4882 238.44 30.4882C239.232 30.4882 239.838 30.2782 240.258 29.8582C240.678 29.4382 240.96 28.8802 241.104 28.1842ZM244.529 29.0662V27.6982L251.045 19.2022H252.809V27.6442H254.681V29.0662H252.809V31.9822H251.153V29.0662H244.529ZM251.261 21.2002L246.257 27.6442H251.261V21.2002Z" fill="#B3E9FF"/>
<path d="M383.5 1.98242H305.5C292.521 1.98242 282 12.5037 282 25.4824C282 38.4611 292.521 48.9824 305.5 48.9824H383.5C396.479 48.9824 407 38.4611 407 25.4824C407 12.5037 396.479 1.98242 383.5 1.98242Z" fill="#00495E"/>
<path d="M303.178 31.9822H301.54L294.952 21.9562V31.9822H293.314V19.2922H294.952L301.54 29.3362V19.2922H303.178V31.9822ZM310.294 21.9742C311.242 21.9742 312.088 22.1782 312.832 22.5862C313.588 22.9942 314.176 23.5822 314.596 24.3502C315.028 25.1182 315.244 26.0182 315.244 27.0502C315.244 28.0822 315.028 28.9822 314.596 29.7502C314.176 30.5062 313.588 31.0882 312.832 31.4962C312.088 31.9042 311.242 32.1082 310.294 32.1082C309.346 32.1082 308.494 31.9042 307.738 31.4962C306.994 31.0882 306.406 30.5062 305.974 29.7502C305.542 28.9822 305.326 28.0822 305.326 27.0502C305.326 26.0182 305.542 25.1182 305.974 24.3502C306.406 23.5822 306.994 22.9942 307.738 22.5862C308.494 22.1782 309.346 21.9742 310.294 21.9742ZM310.294 23.4142C309.706 23.4142 309.16 23.5462 308.656 23.8102C308.164 24.0742 307.762 24.4822 307.45 25.0342C307.15 25.5742 307 26.2462 307 27.0502C307 27.8422 307.15 28.5142 307.45 29.0662C307.762 29.6062 308.164 30.0082 308.656 30.2722C309.16 30.5362 309.706 30.6682 310.294 30.6682C310.882 30.6682 311.422 30.5362 311.914 30.2722C312.418 30.0082 312.82 29.6062 313.12 29.0662C313.432 28.5142 313.588 27.8422 313.588 27.0502C313.588 26.2462 313.432 25.5742 313.12 25.0342C312.82 24.4822 312.418 24.0742 311.914 23.8102C311.422 23.5462 310.882 23.4142 310.294 23.4142ZM321.212 30.2362L324.272 22.1002H326.036L322.166 31.9822H320.222L316.352 22.1002H318.116L321.212 30.2362ZM331.011 20.8222V19.2922H334.647V31.9822H332.919V20.8222H331.011ZM344.513 20.4802L339.707 31.9822H337.979L342.857 20.6422H336.197V19.2202H344.513V20.4802ZM347.319 30.7762C347.487 31.3042 347.571 31.7962 347.571 32.2522C347.571 32.8762 347.415 33.3742 347.103 33.7462C346.791 34.1302 346.323 34.3222 345.699 34.3222V33.6202C345.999 33.6202 346.215 33.5362 346.347 33.3682C346.491 33.2122 346.563 32.9602 346.563 32.6122V32.4502H345.645V30.7762H347.319ZM353.401 30.7222C355.441 29.3542 357.073 27.9982 358.297 26.6542C359.521 25.2982 360.133 24.0382 360.133 22.8742C360.133 22.1542 359.947 21.5782 359.575 21.1462C359.215 20.7022 358.627 20.4802 357.811 20.4802C356.971 20.4802 356.335 20.7502 355.903 21.2902C355.471 21.8182 355.231 22.5502 355.183 23.4862H353.563C353.647 22.0702 354.085 20.9842 354.877 20.2282C355.669 19.4602 356.689 19.0762 357.937 19.0762C359.125 19.0762 360.067 19.3942 360.763 20.0302C361.459 20.6662 361.807 21.5662 361.807 22.7302C361.807 23.6902 361.495 24.6682 360.871 25.6642C360.259 26.6482 359.485 27.5662 358.549 28.4182C357.625 29.2582 356.671 29.9722 355.687 30.5602H362.131V31.9102H353.401V30.7222ZM364.891 30.3262C364.219 29.1862 363.883 27.5962 363.883 25.5562C363.883 23.5282 364.219 21.9502 364.891 20.8222C365.563 19.6822 366.727 19.1122 368.383 19.1122C370.039 19.1122 371.203 19.6822 371.875 20.8222C372.559 21.9622 372.901 23.5402 372.901 25.5562C372.901 27.5962 372.559 29.1862 371.875 30.3262C371.203 31.4662 370.039 32.0362 368.383 32.0362C366.727 32.0362 365.563 31.4662 364.891 30.3262ZM371.047 28.1842C371.203 27.4762 371.281 26.6002 371.281 25.5562C371.281 24.5242 371.203 23.6602 371.047 22.9642C370.903 22.2682 370.621 21.7162 370.201 21.3082C369.781 20.8882 369.175 20.6782 368.383 20.6782C367.603 20.6782 367.003 20.8882 366.583 21.3082C366.163 21.7162 365.875 22.2682 365.719 22.9642C365.575 23.6602 365.503 24.5242 365.503 25.5562C365.503 26.6002 365.575 27.4762 365.719 28.1842C365.875 28.8802 366.163 29.4382 366.583 29.8582C367.003 30.2782 367.603 30.4882 368.383 30.4882C369.175 30.4882 369.781 30.2782 370.201 29.8582C370.621 29.4382 370.903 28.8802 371.047 28.1842ZM375.948 30.3262C375.276 29.1862 374.94 27.5962 374.94 25.5562C374.94 23.5282 375.276 21.9502 375.948 20.8222C376.62 19.6822 377.784 19.1122 379.44 19.1122C381.096 19.1122 382.26 19.6822 382.932 20.8222C383.616 21.9622 383.958 23.5402 383.958 25.5562C383.958 27.5962 383.616 29.1862 382.932 30.3262C382.26 31.4662 381.096 32.0362 379.44 32.0362C377.784 32.0362 376.62 31.4662 375.948 30.3262ZM382.104 28.1842C382.26 27.4762 382.338 26.6002 382.338 25.5562C382.338 24.5242 382.26 23.6602 382.104 22.9642C381.96 22.2682 381.678 21.7162 381.258 21.3082C380.838 20.8882 380.232 20.6782 379.44 20.6782C378.66 20.6782 378.06 20.8882 377.64 21.3082C377.22 21.7162 376.932 22.2682 376.776 22.9642C376.632 23.6602 376.56 24.5242 376.56 25.5562C376.56 26.6002 376.632 27.4762 376.776 28.1842C376.932 28.8802 377.22 29.4382 377.64 29.8582C378.06 30.2782 378.66 30.4882 379.44 30.4882C380.232 30.4882 380.838 30.2782 381.258 29.8582C381.678 29.4382 381.96 28.8802 382.104 28.1842ZM385.529 29.0662V27.6982L392.045 19.2022H393.809V27.6442H395.681V29.0662H393.809V31.9822H392.153V29.0662H385.529ZM392.261 21.2002L387.257 27.6442H392.261V21.2002Z" fill="#94F5D8"/>
<path d="M524.5 1.98242H446.5C433.521 1.98242 423 12.5037 423 25.4824C423 38.4611 433.521 48.9824 446.5 48.9824H524.5C537.479 48.9824 548 38.4611 548 25.4824C548 12.5037 537.479 1.98242 524.5 1.98242Z" fill="#00495E"/>
<path d="M444.178 31.9822H442.54L435.952 21.9562V31.9822H434.314V19.2922H435.952L442.54 29.3362V19.2922H444.178V31.9822ZM451.294 21.9742C452.242 21.9742 453.088 22.1782 453.832 22.5862C454.588 22.9942 455.176 23.5822 455.596 24.3502C456.028 25.1182 456.244 26.0182 456.244 27.0502C456.244 28.0822 456.028 28.9822 455.596 29.7502C455.176 30.5062 454.588 31.0882 453.832 31.4962C453.088 31.9042 452.242 32.1082 451.294 32.1082C450.346 32.1082 449.494 31.9042 448.738 31.4962C447.994 31.0882 447.406 30.5062 446.974 29.7502C446.542 28.9822 446.326 28.0822 446.326 27.0502C446.326 26.0182 446.542 25.1182 446.974 24.3502C447.406 23.5822 447.994 22.9942 448.738 22.5862C449.494 22.1782 450.346 21.9742 451.294 21.9742ZM451.294 23.4142C450.706 23.4142 450.16 23.5462 449.656 23.8102C449.164 24.0742 448.762 24.4822 448.45 25.0342C448.15 25.5742 448 26.2462 448 27.0502C448 27.8422 448.15 28.5142 448.45 29.0662C448.762 29.6062 449.164 30.0082 449.656 30.2722C450.16 30.5362 450.706 30.6682 451.294 30.6682C451.882 30.6682 452.422 30.5362 452.914 30.2722C453.418 30.0082 453.82 29.6062 454.12 29.0662C454.432 28.5142 454.588 27.8422 454.588 27.0502C454.588 26.2462 454.432 25.5742 454.12 25.0342C453.82 24.4822 453.418 24.0742 452.914 23.8102C452.422 23.5462 451.882 23.4142 451.294 23.4142ZM462.212 30.2362L465.272 22.1002H467.036L463.166 31.9822H461.222L457.352 22.1002H459.116L462.212 30.2362ZM472.011 20.8222V19.2922H475.647V31.9822H473.919V20.8222H472.011ZM485.513 20.4802L480.707 31.9822H478.979L483.857 20.6422H477.197V19.2202H485.513V20.4802ZM488.319 30.7762C488.487 31.3042 488.571 31.7962 488.571 32.2522C488.571 32.8762 488.415 33.3742 488.103 33.7462C487.791 34.1302 487.323 34.3222 486.699 34.3222V33.6202C486.999 33.6202 487.215 33.5362 487.347 33.3682C487.491 33.2122 487.563 32.9602 487.563 32.6122V32.4502H486.645V30.7762H488.319ZM494.401 30.7222C496.441 29.3542 498.073 27.9982 499.297 26.6542C500.521 25.2982 501.133 24.0382 501.133 22.8742C501.133 22.1542 500.947 21.5782 500.575 21.1462C500.215 20.7022 499.627 20.4802 498.811 20.4802C497.971 20.4802 497.335 20.7502 496.903 21.2902C496.471 21.8182 496.231 22.5502 496.183 23.4862H494.563C494.647 22.0702 495.085 20.9842 495.877 20.2282C496.669 19.4602 497.689 19.0762 498.937 19.0762C500.125 19.0762 501.067 19.3942 501.763 20.0302C502.459 20.6662 502.807 21.5662 502.807 22.7302C502.807 23.6902 502.495 24.6682 501.871 25.6642C501.259 26.6482 500.485 27.5662 499.549 28.4182C498.625 29.2582 497.671 29.9722 496.687 30.5602H503.131V31.9102H494.401V30.7222ZM505.891 30.3262C505.219 29.1862 504.883 27.5962 504.883 25.5562C504.883 23.5282 505.219 21.9502 505.891 20.8222C506.563 19.6822 507.727 19.1122 509.383 19.1122C511.039 19.1122 512.203 19.6822 512.875 20.8222C513.559 21.9622 513.901 23.5402 513.901 25.5562C513.901 27.5962 513.559 29.1862 512.875 30.3262C512.203 31.4662 511.039 32.0362 509.383 32.0362C507.727 32.0362 506.563 31.4662 505.891 30.3262ZM512.047 28.1842C512.203 27.4762 512.281 26.6002 512.281 25.5562C512.281 24.5242 512.203 23.6602 512.047 22.9642C511.903 22.2682 511.621 21.7162 511.201 21.3082C510.781 20.8882 510.175 20.6782 509.383 20.6782C508.603 20.6782 508.003 20.8882 507.583 21.3082C507.163 21.7162 506.875 22.2682 506.719 22.9642C506.575 23.6602 506.503 24.5242 506.503 25.5562C506.503 26.6002 506.575 27.4762 506.719 28.1842C506.875 28.8802 507.163 29.4382 507.583 29.8582C508.003 30.2782 508.603 30.4882 509.383 30.4882C510.175 30.4882 510.781 30.2782 511.201 29.8582C511.621 29.4382 511.903 28.8802 512.047 28.1842ZM516.948 30.3262C516.276 29.1862 515.94 27.5962 515.94 25.5562C515.94 23.5282 516.276 21.9502 516.948 20.8222C517.62 19.6822 518.784 19.1122 520.44 19.1122C522.096 19.1122 523.26 19.6822 523.932 20.8222C524.616 21.9622 524.958 23.5402 524.958 25.5562C524.958 27.5962 524.616 29.1862 523.932 30.3262C523.26 31.4662 522.096 32.0362 520.44 32.0362C518.784 32.0362 517.62 31.4662 516.948 30.3262ZM523.104 28.1842C523.26 27.4762 523.338 26.6002 523.338 25.5562C523.338 24.5242 523.26 23.6602 523.104 22.9642C522.96 22.2682 522.678 21.7162 522.258 21.3082C521.838 20.8882 521.232 20.6782 520.44 20.6782C519.66 20.6782 519.06 20.8882 518.64 21.3082C518.22 21.7162 517.932 22.2682 517.776 22.9642C517.632 23.6602 517.56 24.5242 517.56 25.5562C517.56 26.6002 517.632 27.4762 517.776 28.1842C517.932 28.8802 518.22 29.4382 518.64 29.8582C519.06 30.2782 519.66 30.4882 520.44 30.4882C521.232 30.4882 521.838 30.2782 522.258 29.8582C522.678 29.4382 522.96 28.8802 523.104 28.1842ZM526.529 29.0662V27.6982L533.045 19.2022H534.809V27.6442H536.681V29.0662H534.809V31.9822H533.153V29.0662H526.529ZM533.261 21.2002L528.257 27.6442H533.261V21.2002Z" fill="#FDDFAC"/>
<path d="M665.5 1.98242H587.5C574.521 1.98242 564 12.5037 564 25.4824C564 38.4611 574.521 48.9824 587.5 48.9824H665.5C678.479 48.9824 689 38.4611 689 25.4824C689 12.5037 678.479 1.98242 665.5 1.98242Z" fill="#00495E"/>
<path d="M585.178 31.9822H583.54L576.952 21.9562V31.9822H575.314V19.2922H576.952L583.54 29.3362V19.2922H585.178V31.9822ZM592.294 21.9742C593.242 21.9742 594.088 22.1782 594.832 22.5862C595.588 22.9942 596.176 23.5822 596.596 24.3502C597.028 25.1182 597.244 26.0182 597.244 27.0502C597.244 28.0822 597.028 28.9822 596.596 29.7502C596.176 30.5062 595.588 31.0882 594.832 31.4962C594.088 31.9042 593.242 32.1082 592.294 32.1082C591.346 32.1082 590.494 31.9042 589.738 31.4962C588.994 31.0882 588.406 30.5062 587.974 29.7502C587.542 28.9822 587.326 28.0822 587.326 27.0502C587.326 26.0182 587.542 25.1182 587.974 24.3502C588.406 23.5822 588.994 22.9942 589.738 22.5862C590.494 22.1782 591.346 21.9742 592.294 21.9742ZM592.294 23.4142C591.706 23.4142 591.16 23.5462 590.656 23.8102C590.164 24.0742 589.762 24.4822 589.45 25.0342C589.15 25.5742 589 26.2462 589 27.0502C589 27.8422 589.15 28.5142 589.45 29.0662C589.762 29.6062 590.164 30.0082 590.656 30.2722C591.16 30.5362 591.706 30.6682 592.294 30.6682C592.882 30.6682 593.422 30.5362 593.914 30.2722C594.418 30.0082 594.82 29.6062 595.12 29.0662C595.432 28.5142 595.588 27.8422 595.588 27.0502C595.588 26.2462 595.432 25.5742 595.12 25.0342C594.82 24.4822 594.418 24.0742 593.914 23.8102C593.422 23.5462 592.882 23.4142 592.294 23.4142ZM603.212 30.2362L606.272 22.1002H608.036L604.166 31.9822H602.222L598.352 22.1002H600.116L603.212 30.2362ZM613.011 20.8222V19.2922H616.647V31.9822H614.919V20.8222H613.011ZM626.513 20.4802L621.707 31.9822H619.979L624.857 20.6422H618.197V19.2202H626.513V20.4802ZM629.319 30.7762C629.487 31.3042 629.571 31.7962 629.571 32.2522C629.571 32.8762 629.415 33.3742 629.103 33.7462C628.791 34.1302 628.323 34.3222 627.699 34.3222V33.6202C627.999 33.6202 628.215 33.5362 628.347 33.3682C628.491 33.2122 628.563 32.9602 628.563 32.6122V32.4502H627.645V30.7762H629.319ZM635.401 30.7222C637.441 29.3542 639.073 27.9982 640.297 26.6542C641.521 25.2982 642.133 24.0382 642.133 22.8742C642.133 22.1542 641.947 21.5782 641.575 21.1462C641.215 20.7022 640.627 20.4802 639.811 20.4802C638.971 20.4802 638.335 20.7502 637.903 21.2902C637.471 21.8182 637.231 22.5502 637.183 23.4862H635.563C635.647 22.0702 636.085 20.9842 636.877 20.2282C637.669 19.4602 638.689 19.0762 639.937 19.0762C641.125 19.0762 642.067 19.3942 642.763 20.0302C643.459 20.6662 643.807 21.5662 643.807 22.7302C643.807 23.6902 643.495 24.6682 642.871 25.6642C642.259 26.6482 641.485 27.5662 640.549 28.4182C639.625 29.2582 638.671 29.9722 637.687 30.5602H644.131V31.9102H635.401V30.7222ZM646.891 30.3262C646.219 29.1862 645.883 27.5962 645.883 25.5562C645.883 23.5282 646.219 21.9502 646.891 20.8222C647.563 19.6822 648.727 19.1122 650.383 19.1122C652.039 19.1122 653.203 19.6822 653.875 20.8222C654.559 21.9622 654.901 23.5402 654.901 25.5562C654.901 27.5962 654.559 29.1862 653.875 30.3262C653.203 31.4662 652.039 32.0362 650.383 32.0362C648.727 32.0362 647.563 31.4662 646.891 30.3262ZM653.047 28.1842C653.203 27.4762 653.281 26.6002 653.281 25.5562C653.281 24.5242 653.203 23.6602 653.047 22.9642C652.903 22.2682 652.621 21.7162 652.201 21.3082C651.781 20.8882 651.175 20.6782 650.383 20.6782C649.603 20.6782 649.003 20.8882 648.583 21.3082C648.163 21.7162 647.875 22.2682 647.719 22.9642C647.575 23.6602 647.503 24.5242 647.503 25.5562C647.503 26.6002 647.575 27.4762 647.719 28.1842C647.875 28.8802 648.163 29.4382 648.583 29.8582C649.003 30.2782 649.603 30.4882 650.383 30.4882C651.175 30.4882 651.781 30.2782 652.201 29.8582C652.621 29.4382 652.903 28.8802 653.047 28.1842ZM657.948 30.3262C657.276 29.1862 656.94 27.5962 656.94 25.5562C656.94 23.5282 657.276 21.9502 657.948 20.8222C658.62 19.6822 659.784 19.1122 661.44 19.1122C663.096 19.1122 664.26 19.6822 664.932 20.8222C665.616 21.9622 665.958 23.5402 665.958 25.5562C665.958 27.5962 665.616 29.1862 664.932 30.3262C664.26 31.4662 663.096 32.0362 661.44 32.0362C659.784 32.0362 658.62 31.4662 657.948 30.3262ZM664.104 28.1842C664.26 27.4762 664.338 26.6002 664.338 25.5562C664.338 24.5242 664.26 23.6602 664.104 22.9642C663.96 22.2682 663.678 21.7162 663.258 21.3082C662.838 20.8882 662.232 20.6782 661.44 20.6782C660.66 20.6782 660.06 20.8882 659.64 21.3082C659.22 21.7162 658.932 22.2682 658.776 22.9642C658.632 23.6602 658.56 24.5242 658.56 25.5562C658.56 26.6002 658.632 27.4762 658.776 28.1842C658.932 28.8802 659.22 29.4382 659.64 29.8582C660.06 30.2782 660.66 30.4882 661.44 30.4882C662.232 30.4882 662.838 30.2782 663.258 29.8582C663.678 29.4382 663.96 28.8802 664.104 28.1842ZM667.529 29.0662V27.6982L674.045 19.2022H675.809V27.6442H677.681V29.0662H675.809V31.9822H674.153V29.0662H667.529ZM674.261 21.2002L669.257 27.6442H674.261V21.2002Z" fill="#DDDDDD"/>
<path d="M806.5 1.98242H728.5C715.521 1.98242 705 12.5037 705 25.4824C705 38.4611 715.521 48.9824 728.5 48.9824H806.5C819.479 48.9824 830 38.4611 830 25.4824C830 12.5037 819.479 1.98242 806.5 1.98242Z" fill="#00495E"/>
<path d="M726.178 31.9822H724.54L717.952 21.9562V31.9822H716.314V19.2922H717.952L724.54 29.3362V19.2922H726.178V31.9822ZM733.294 21.9742C734.242 21.9742 735.088 22.1782 735.832 22.5862C736.588 22.9942 737.176 23.5822 737.596 24.3502C738.028 25.1182 738.244 26.0182 738.244 27.0502C738.244 28.0822 738.028 28.9822 737.596 29.7502C737.176 30.5062 736.588 31.0882 735.832 31.4962C735.088 31.9042 734.242 32.1082 733.294 32.1082C732.346 32.1082 731.494 31.9042 730.738 31.4962C729.994 31.0882 729.406 30.5062 728.974 29.7502C728.542 28.9822 728.326 28.0822 728.326 27.0502C728.326 26.0182 728.542 25.1182 728.974 24.3502C729.406 23.5822 729.994 22.9942 730.738 22.5862C731.494 22.1782 732.346 21.9742 733.294 21.9742ZM733.294 23.4142C732.706 23.4142 732.16 23.5462 731.656 23.8102C731.164 24.0742 730.762 24.4822 730.45 25.0342C730.15 25.5742 730 26.2462 730 27.0502C730 27.8422 730.15 28.5142 730.45 29.0662C730.762 29.6062 731.164 30.0082 731.656 30.2722C732.16 30.5362 732.706 30.6682 733.294 30.6682C733.882 30.6682 734.422 30.5362 734.914 30.2722C735.418 30.0082 735.82 29.6062 736.12 29.0662C736.432 28.5142 736.588 27.8422 736.588 27.0502C736.588 26.2462 736.432 25.5742 736.12 25.0342C735.82 24.4822 735.418 24.0742 734.914 23.8102C734.422 23.5462 733.882 23.4142 733.294 23.4142ZM744.212 30.2362L747.272 22.1002H749.036L745.166 31.9822H743.222L739.352 22.1002H741.116L744.212 30.2362ZM754.011 20.8222V19.2922H757.647V31.9822H755.919V20.8222H754.011ZM767.513 20.4802L762.707 31.9822H760.979L765.857 20.6422H759.197V19.2202H767.513V20.4802ZM770.319 30.7762C770.487 31.3042 770.571 31.7962 770.571 32.2522C770.571 32.8762 770.415 33.3742 770.103 33.7462C769.791 34.1302 769.323 34.3222 768.699 34.3222V33.6202C768.999 33.6202 769.215 33.5362 769.347 33.3682C769.491 33.2122 769.563 32.9602 769.563 32.6122V32.4502H768.645V30.7762H770.319ZM776.401 30.7222C778.441 29.3542 780.073 27.9982 781.297 26.6542C782.521 25.2982 783.133 24.0382 783.133 22.8742C783.133 22.1542 782.947 21.5782 782.575 21.1462C782.215 20.7022 781.627 20.4802 780.811 20.4802C779.971 20.4802 779.335 20.7502 778.903 21.2902C778.471 21.8182 778.231 22.5502 778.183 23.4862H776.563C776.647 22.0702 777.085 20.9842 777.877 20.2282C778.669 19.4602 779.689 19.0762 780.937 19.0762C782.125 19.0762 783.067 19.3942 783.763 20.0302C784.459 20.6662 784.807 21.5662 784.807 22.7302C784.807 23.6902 784.495 24.6682 783.871 25.6642C783.259 26.6482 782.485 27.5662 781.549 28.4182C780.625 29.2582 779.671 29.9722 778.687 30.5602H785.131V31.9102H776.401V30.7222ZM787.891 30.3262C787.219 29.1862 786.883 27.5962 786.883 25.5562C786.883 23.5282 787.219 21.9502 787.891 20.8222C788.563 19.6822 789.727 19.1122 791.383 19.1122C793.039 19.1122 794.203 19.6822 794.875 20.8222C795.559 21.9622 795.901 23.5402 795.901 25.5562C795.901 27.5962 795.559 29.1862 794.875 30.3262C794.203 31.4662 793.039 32.0362 791.383 32.0362C789.727 32.0362 788.563 31.4662 787.891 30.3262ZM794.047 28.1842C794.203 27.4762 794.281 26.6002 794.281 25.5562C794.281 24.5242 794.203 23.6602 794.047 22.9642C793.903 22.2682 793.621 21.7162 793.201 21.3082C792.781 20.8882 792.175 20.6782 791.383 20.6782C790.603 20.6782 790.003 20.8882 789.583 21.3082C789.163 21.7162 788.875 22.2682 788.719 22.9642C788.575 23.6602 788.503 24.5242 788.503 25.5562C788.503 26.6002 788.575 27.4762 788.719 28.1842C788.875 28.8802 789.163 29.4382 789.583 29.8582C790.003 30.2782 790.603 30.4882 791.383 30.4882C792.175 30.4882 792.781 30.2782 793.201 29.8582C793.621 29.4382 793.903 28.8802 794.047 28.1842ZM798.948 30.3262C798.276 29.1862 797.94 27.5962 797.94 25.5562C797.94 23.5282 798.276 21.9502 798.948 20.8222C799.62 19.6822 800.784 19.1122 802.44 19.1122C804.096 19.1122 805.26 19.6822 805.932 20.8222C806.616 21.9622 806.958 23.5402 806.958 25.5562C806.958 27.5962 806.616 29.1862 805.932 30.3262C805.26 31.4662 804.096 32.0362 802.44 32.0362C800.784 32.0362 799.62 31.4662 798.948 30.3262ZM805.104 28.1842C805.26 27.4762 805.338 26.6002 805.338 25.5562C805.338 24.5242 805.26 23.6602 805.104 22.9642C804.96 22.2682 804.678 21.7162 804.258 21.3082C803.838 20.8882 803.232 20.6782 802.44 20.6782C801.66 20.6782 801.06 20.8882 800.64 21.3082C800.22 21.7162 799.932 22.2682 799.776 22.9642C799.632 23.6602 799.56 24.5242 799.56 25.5562C799.56 26.6002 799.632 27.4762 799.776 28.1842C799.932 28.8802 800.22 29.4382 800.64 29.8582C801.06 30.2782 801.66 30.4882 802.44 30.4882C803.232 30.4882 803.838 30.2782 804.258 29.8582C804.678 29.4382 804.96 28.8802 805.104 28.1842ZM808.529 29.0662V27.6982L815.045 19.2022H816.809V27.6442H818.681V29.0662H816.809V31.9822H815.153V29.0662H808.529ZM815.261 21.2002L810.257 27.6442H815.261V21.2002Z" fill="white"/>
</g>
</g>
<defs>
<clipPath id="clip0_4783_6011">
<rect width="830" height="48" fill="white" transform="translate(0 0.991211)"/>
</clipPath>
<clipPath id="clip1_4783_6011">
<rect width="830" height="48" fill="white" transform="translate(0 0.991211)"/>
</clipPath>
</defs>
</svg>
