<svg width="200" height="509" viewBox="0 0 200 509" fill="none" xmlns="http://www.w3.org/2000/svg">
<g clip-path="url(#clip0_4782_5938)">
<g clip-path="url(#clip1_4782_5938)">
<path d="M10.32 5.79968H12.0286L15.24 14.3657L18.4437 5.79968H20.1523L15.9112 16.9058H14.5535L10.32 5.79968ZM9.54199 5.79968H11.1667L11.449 13.2139V16.9058H9.54199V5.79968ZM19.3056 5.79968H20.9379V16.9058H19.0234V13.2139L19.3056 5.79968ZM22.6771 12.8707V12.6952C22.6771 12.1002 22.7635 11.5485 22.9365 11.04C23.1094 10.5264 23.3585 10.0814 23.684 9.70513C24.0145 9.32376 24.4162 9.0288 24.8892 8.8203C25.3672 8.60672 25.9062 8.49991 26.5063 8.49991C27.1114 8.49991 27.6504 8.60672 28.1234 8.8203C28.6014 9.0288 29.0057 9.32376 29.3362 9.70513C29.6668 10.0814 29.9185 10.5264 30.0913 11.04C30.2642 11.5485 30.3507 12.1002 30.3507 12.6952V12.8707C30.3507 13.4656 30.2642 14.0174 30.0913 14.5259C29.9185 15.0345 29.6668 15.4794 29.3362 15.8608C29.0057 16.2371 28.6039 16.532 28.131 16.7456C27.6581 16.9541 27.1216 17.0584 26.5216 17.0584C25.9164 17.0584 25.3748 16.9541 24.8968 16.7456C24.4239 16.532 24.0222 16.2371 23.6916 15.8608C23.3611 15.4794 23.1094 15.0345 22.9365 14.5259C22.7635 14.0174 22.6771 13.4656 22.6771 12.8707ZM24.5154 12.6952V12.8707C24.5154 13.2419 24.5536 13.5928 24.6299 13.9233C24.7061 14.2538 24.8256 14.5437 24.9883 14.7929C25.1511 15.0421 25.3595 15.2378 25.6138 15.3802C25.8681 15.5226 26.1707 15.5938 26.5216 15.5938C26.8623 15.5938 27.1572 15.5226 27.4063 15.3802C27.6606 15.2378 27.8691 15.0421 28.0318 14.7929C28.1946 14.5437 28.3141 14.2538 28.3904 13.9233C28.4717 13.5928 28.5124 13.2419 28.5124 12.8707V12.6952C28.5124 12.3291 28.4717 11.9833 28.3904 11.6578C28.3141 11.3273 28.192 11.0349 28.0242 10.7806C27.8615 10.5264 27.653 10.328 27.3987 10.1857C27.1496 10.0382 26.8521 9.96445 26.5063 9.96445C26.1605 9.96445 25.8605 10.0382 25.6062 10.1857C25.357 10.328 25.1511 10.5264 24.9883 10.7806C24.8256 11.0349 24.7061 11.3273 24.6299 11.6578C24.5536 11.9833 24.5154 12.3291 24.5154 12.6952ZM31.8992 5.18945H33.7375V15.1438L33.562 16.9058H31.8992V5.18945ZM39.1227 12.7028V12.8631C39.1227 13.4733 39.054 14.0352 38.9168 14.5488C38.7845 15.0573 38.5811 15.4997 38.3065 15.876C38.037 16.2524 37.7014 16.5447 37.2997 16.7532C36.903 16.9567 36.4428 17.0584 35.919 17.0584C35.4054 17.0584 34.9579 16.9617 34.5765 16.7685C34.1951 16.5752 33.8747 16.3006 33.6154 15.9447C33.3612 15.5887 33.1552 15.1641 32.9976 14.6709C32.8399 14.1776 32.728 13.6335 32.6619 13.0385V12.5274C32.728 11.9274 32.8399 11.3832 32.9976 10.8951C33.1552 10.4018 33.3612 9.97719 33.6154 9.62121C33.8747 9.26015 34.1926 8.98301 34.5689 8.78979C34.9503 8.59657 35.3952 8.49991 35.9038 8.49991C36.4326 8.49991 36.8979 8.60164 37.2997 8.80502C37.7065 9.00844 38.0446 9.29833 38.3142 9.67461C38.5837 10.0458 38.7845 10.4883 38.9168 11.0018C39.054 11.5154 39.1227 12.0825 39.1227 12.7028ZM37.2844 12.8631V12.7028C37.2844 12.3316 37.2539 11.9833 37.1929 11.6578C37.1318 11.3273 37.0301 11.0375 36.8877 10.7883C36.7505 10.5391 36.5623 10.3433 36.3233 10.2009C36.0894 10.0534 35.797 9.97973 35.4461 9.97973C35.1206 9.97973 34.8409 10.0357 34.607 10.1475C34.3731 10.2594 34.1773 10.412 34.0197 10.6052C33.862 10.7985 33.7375 11.0222 33.6459 11.2765C33.5595 11.5307 33.501 11.8053 33.4705 12.1002V13.4809C33.5163 13.8623 33.6129 14.2132 33.7604 14.5335C33.9129 14.8488 34.1265 15.1031 34.4011 15.2963C34.6757 15.4845 35.0291 15.5785 35.4613 15.5785C35.8021 15.5785 36.0894 15.5099 36.3233 15.3726C36.5572 15.2353 36.7428 15.0446 36.8801 14.8005C37.0225 14.5513 37.1242 14.2615 37.1852 13.9309C37.2513 13.6004 37.2844 13.2444 37.2844 12.8631ZM42.6468 8.65251V16.9058H40.8009V8.65251H42.6468ZM40.6788 6.48616C40.6788 6.20648 40.7703 5.97513 40.9534 5.79206C41.1416 5.6039 41.4009 5.50982 41.7314 5.50982C42.0569 5.50982 42.3137 5.6039 42.5018 5.79206C42.69 5.97513 42.784 6.20648 42.784 6.48616C42.784 6.76081 42.69 6.98962 42.5018 7.17269C42.3137 7.35576 42.0569 7.44729 41.7314 7.44729C41.4009 7.44729 41.1416 7.35576 40.9534 7.17269C40.7703 6.98962 40.6788 6.76081 40.6788 6.48616ZM46.6285 5.18945V16.9058H44.7826V5.18945H46.6285ZM52.2805 17.0584C51.6703 17.0584 51.1187 16.9592 50.6256 16.7609C50.1374 16.5575 49.7205 16.2752 49.3745 15.9142C49.0338 15.5531 48.7719 15.1285 48.5888 14.6403C48.4058 14.1522 48.3142 13.6258 48.3142 13.0614V12.7563C48.3142 12.1104 48.4083 11.5257 48.5965 11.0018C48.7846 10.4781 49.0465 10.0306 49.3821 9.65934C49.7176 9.28305 50.1145 8.99575 50.5719 8.7974C51.0298 8.5991 51.5253 8.49991 52.0594 8.49991C52.6496 8.49991 53.1656 8.5991 53.6079 8.7974C54.0502 8.99575 54.4163 9.27543 54.7063 9.63649C55.0012 9.99242 55.2199 10.417 55.3624 10.9103C55.5098 11.4036 55.5836 11.9477 55.5836 12.5427V13.3284H49.2067V12.0088H53.768V11.8638C53.7578 11.5333 53.6919 11.2231 53.5698 10.9332C53.4526 10.6434 53.2725 10.4094 53.0284 10.2314C52.7843 10.0534 52.4587 9.96445 52.0521 9.96445C51.7469 9.96445 51.4745 10.0306 51.2358 10.1628C51.002 10.2899 50.8062 10.4755 50.6485 10.7196C50.4909 10.9637 50.3688 11.2587 50.2824 11.6044C50.2009 11.9451 50.1604 12.3291 50.1604 12.7563V13.0614C50.1604 13.4224 50.2087 13.7581 50.3049 14.0682C50.4069 14.3734 50.5543 14.6403 50.7476 14.8692C50.941 15.098 51.1748 15.2785 51.4491 15.4107C51.724 15.5379 52.0364 15.6014 52.3874 15.6014C52.8297 15.6014 53.2242 15.5124 53.5698 15.3344C53.9154 15.1565 54.2157 14.9047 54.47 14.5793L55.4386 15.5175C55.2609 15.7769 55.0295 16.026 54.7444 16.2651C54.4598 16.499 54.1112 16.6897 53.6997 16.8372C53.2925 16.9846 52.82 17.0584 52.2805 17.0584Z" fill="#292929"/>
<path d="M10.0241 40.8267L8.48145 35.691H9.53592L10.2877 38.5029C10.3268 38.6396 10.3593 38.7828 10.3854 38.9325C10.4179 39.0823 10.4472 39.2157 10.4732 39.3328C10.4992 39.45 10.5188 39.5314 10.5318 39.5769H10.5904C10.6164 39.4598 10.6457 39.3263 10.6783 39.1766C10.7108 39.0269 10.7401 38.8902 10.7661 38.7665C10.7922 38.6364 10.8117 38.5387 10.8247 38.4736L11.5082 35.691H12.6017L13.3047 38.4834C13.3307 38.5875 13.3568 38.708 13.3828 38.8447C13.4153 38.9749 13.4446 39.105 13.4707 39.2352C13.5032 39.3654 13.526 39.4793 13.539 39.5769H13.5976C13.6171 39.4858 13.6399 39.3784 13.6659 39.2547C13.6985 39.1245 13.731 38.9944 13.7636 38.8642C13.7961 38.734 13.8254 38.6136 13.8514 38.5029L14.5935 35.691H15.5601L14.0272 40.8267H12.9727L12.3478 38.2686C12.3218 38.145 12.2893 38.0017 12.2502 37.839C12.2111 37.6763 12.1754 37.5135 12.1428 37.3508C12.1102 37.1881 12.0842 37.0449 12.0647 36.9212H12.0061C11.9931 36.9928 11.9735 37.097 11.9475 37.2337C11.928 37.3704 11.8987 37.5266 11.8597 37.7023C11.8206 37.8781 11.7751 38.0668 11.723 38.2686L11.0786 40.8267H10.0241ZM16.2946 34.8025V33.7676H17.3101V34.8025H16.2946ZM16.2946 40.8267V35.691H17.3101V40.8267H16.2946ZM20.3883 40.9438C19.9718 40.9438 19.6105 40.8495 19.3046 40.6607C18.9986 40.4719 18.7611 40.179 18.5918 39.782C18.4291 39.3849 18.3477 38.8707 18.3477 38.2393C18.3477 37.6209 18.4323 37.1165 18.6016 36.726C18.7708 36.3354 19.0052 36.0458 19.3046 35.857C19.604 35.6682 19.949 35.5738 20.3395 35.5738C20.5673 35.5738 20.7789 35.5999 20.9741 35.652C21.1694 35.704 21.3419 35.7854 21.4916 35.896C21.6478 36.0067 21.778 36.1466 21.8822 36.3159H21.9505V33.7676H22.9659V40.8267H22.136L22.0384 40.1237H21.97C21.8008 40.3971 21.5762 40.6021 21.2963 40.7388C21.023 40.8755 20.7203 40.9438 20.3883 40.9438ZM20.6715 40.0651C20.9709 40.0651 21.2117 40 21.394 39.8698C21.5828 39.7331 21.7227 39.5379 21.8138 39.284C21.905 39.0237 21.9505 38.708 21.9505 38.337V38.2003C21.9505 37.8878 21.9212 37.6209 21.8626 37.3996C21.804 37.1784 21.7194 36.9993 21.6088 36.8626C21.4981 36.7195 21.3647 36.6153 21.2085 36.5502C21.0522 36.4851 20.8765 36.4526 20.6812 36.4526C20.3818 36.4526 20.1377 36.5144 19.949 36.6381C19.7602 36.7552 19.6203 36.9408 19.5291 37.1946C19.4445 37.4485 19.4022 37.7772 19.4022 38.1807V38.3565C19.4022 38.7601 19.4477 39.0887 19.5389 39.3426C19.63 39.59 19.7667 39.7722 19.949 39.8894C20.1377 40.0065 20.3786 40.0651 20.6715 40.0651ZM25.5543 40.9438C25.2613 40.9438 25.0303 40.8885 24.861 40.7779C24.6983 40.6607 24.5812 40.5142 24.5095 40.3385C24.4445 40.1563 24.4119 39.9642 24.4119 39.7624V36.5307H23.7675V35.691H24.4314L24.6169 34.2558H25.4273V35.691H26.3549V36.5307H25.4273V39.6453C25.4273 39.795 25.4599 39.9089 25.525 39.987C25.5901 40.0651 25.6975 40.1042 25.8472 40.1042H26.3549V40.7876C26.2898 40.8136 26.2084 40.8364 26.1108 40.856C26.0197 40.882 25.9253 40.9015 25.8276 40.9145C25.73 40.9341 25.6389 40.9438 25.5543 40.9438ZM27.2501 40.8267V33.7676H28.2655V36.3061H28.3339C28.4575 36.1499 28.5975 36.0197 28.7537 35.9156C28.9099 35.8049 29.0857 35.7203 29.2809 35.6617C29.4762 35.6031 29.691 35.5738 29.9253 35.5738C30.2508 35.5738 30.5372 35.6324 30.7845 35.7496C31.0319 35.8603 31.2239 36.0425 31.3606 36.2964C31.5038 36.5502 31.5754 36.8919 31.5754 37.3215V40.8267H30.56V37.4778C30.56 37.2825 30.5339 37.1198 30.4819 36.9896C30.4363 36.8594 30.368 36.7552 30.2768 36.6771C30.1857 36.599 30.0783 36.5437 29.9546 36.5112C29.831 36.4786 29.6943 36.4623 29.5445 36.4623C29.3102 36.4623 29.0954 36.5176 28.9001 36.6283C28.7114 36.739 28.5584 36.8952 28.4413 37.097C28.3241 37.2987 28.2655 37.5396 28.2655 37.8195V40.8267H27.2501Z" fill="#292929"/>
<path d="M75.2158 40.7877L70.5879 38.8447V37.8L75.2158 35.8473V36.7846L71.3983 38.3175L75.2158 39.8504V40.7877ZM79.5016 40.8267C79.5016 40.2474 79.5734 39.6877 79.7164 39.1474C79.8599 38.6006 80.0518 38.0831 80.2924 37.595C80.5399 37.1003 80.807 36.6414 81.0931 36.2183C81.386 35.7887 81.6759 35.4046 81.962 35.0662H78.4862V34.1289H83.2313V34.783C83.0038 35.0564 82.766 35.3591 82.5185 35.6911C82.2715 36.0165 82.0338 36.3648 81.8058 36.7358C81.5783 37.1068 81.3733 37.4908 81.1907 37.8879C81.0149 38.2849 80.8753 38.6918 80.7709 39.1083C80.6669 39.5184 80.6146 39.9317 80.6146 40.3483V40.8267H79.5016ZM86.5358 40.9439C86.1521 40.9439 85.8069 40.8886 85.5008 40.7779C85.2016 40.6672 84.9443 40.4883 84.7295 40.2409C84.5147 39.9871 84.3522 39.6518 84.2413 39.2353C84.131 38.8121 84.0754 38.2915 84.0754 37.6731C84.0754 36.9831 84.1276 36.4038 84.2316 35.9352C84.3424 35.4665 84.502 35.0922 84.71 34.8123C84.9184 34.5259 85.1723 34.3209 85.4716 34.1972C85.7713 34.0736 86.113 34.0117 86.4967 34.0117C86.9786 34.0117 87.3691 34.1029 87.6684 34.2851C87.9745 34.4673 88.1956 34.7147 88.3323 35.0271C88.4758 35.3396 88.5471 35.6943 88.5471 36.0914H87.5121C87.5121 35.8245 87.4731 35.5999 87.395 35.4177C87.3237 35.2289 87.2065 35.089 87.0435 34.9978C86.8873 34.9002 86.6891 34.8514 86.4479 34.8514C86.0901 34.8514 85.8133 34.949 85.618 35.1443C85.4296 35.3331 85.2992 35.6065 85.2275 35.9644C85.1625 36.3159 85.1269 36.739 85.1201 37.2337C85.1855 37.1296 85.2929 37.0222 85.4423 36.9115C85.5921 36.8008 85.7742 36.7097 85.989 36.6381C86.2107 36.56 86.4513 36.521 86.7115 36.521C87.187 36.521 87.5776 36.6186 87.8832 36.8139C88.1892 37.0027 88.4138 37.263 88.5569 37.595C88.7067 37.9269 88.7814 38.3012 88.7814 38.7178C88.7814 39.1669 88.6838 39.5607 88.4885 39.8992C88.2932 40.2311 88.0267 40.4883 87.6879 40.6705C87.3496 40.8527 86.9654 40.9439 86.5358 40.9439ZM86.4674 40.1042C86.754 40.1042 86.9883 40.0424 87.1704 39.9187C87.3593 39.7885 87.4995 39.6193 87.5903 39.411C87.6815 39.1962 87.7269 38.9619 87.7269 38.708C87.7269 38.4542 87.6815 38.2263 87.5903 38.0246C87.5058 37.8163 87.3691 37.6535 87.1802 37.5364C86.9981 37.4127 86.7638 37.3509 86.4772 37.3509C86.1911 37.3509 85.9534 37.4127 85.7645 37.5364C85.576 37.6535 85.4359 37.8163 85.3446 38.0246C85.2538 38.2329 85.2079 38.4704 85.2079 38.7373C85.2079 38.9847 85.2538 39.2157 85.3446 39.4305C85.4359 39.6388 85.5726 39.8048 85.7547 39.9285C85.9436 40.0456 86.1814 40.1042 86.4674 40.1042ZM90.6287 40.8267C90.6287 40.2474 90.7005 39.6877 90.8435 39.1474C90.987 38.6006 91.1789 38.0831 91.4195 37.595C91.6671 37.1003 91.9341 36.6414 92.2202 36.2183C92.5131 35.7887 92.803 35.4046 93.0891 35.0662H89.6133V34.1289H94.3584V34.783C94.1309 35.0564 93.8932 35.3591 93.6456 35.6911C93.3986 36.0165 93.1609 36.3648 92.9329 36.7358C92.7054 37.1068 92.5004 37.4908 92.3178 37.8879C92.142 38.2849 92.0024 38.6918 91.898 39.1083C91.794 39.5184 91.7417 39.9317 91.7417 40.3483V40.8267H90.6287ZM95.3684 42.5158V35.6911H96.1983L96.2862 36.394H96.3546C96.5303 36.1207 96.7549 35.9156 97.0283 35.7789C97.3016 35.6422 97.6077 35.5739 97.946 35.5739C98.3693 35.5739 98.7305 35.6683 99.0298 35.857C99.3359 36.0458 99.5702 36.3387 99.7328 36.7358C99.8958 37.1328 99.9769 37.6471 99.9769 38.2784C99.9769 38.8903 99.8924 39.3947 99.723 39.7918C99.5604 40.1823 99.3295 40.472 99.0298 40.6607C98.7305 40.8495 98.3854 40.9439 97.9949 40.9439C97.7674 40.9439 97.5555 40.9179 97.3602 40.8658C97.1649 40.8137 96.9892 40.7324 96.833 40.6217C96.6836 40.511 96.5533 40.3711 96.4424 40.2019H96.3839V42.5158H95.3684ZM97.6434 40.0652C97.9495 40.0652 98.197 40.0066 98.3854 39.8894C98.5743 39.7658 98.711 39.577 98.7955 39.3231C98.8868 39.0693 98.9322 38.7471 98.9322 38.3565V38.1808C98.9322 37.7707 98.8868 37.4387 98.7955 37.1849C98.7047 36.931 98.5646 36.7455 98.3756 36.6284C98.1935 36.5112 97.9558 36.4526 97.6629 36.4526C97.3636 36.4526 97.1195 36.521 96.9306 36.6577C96.7422 36.7879 96.6021 36.9831 96.5108 37.2435C96.4263 37.5038 96.3839 37.8195 96.3839 38.1905V38.3272C96.3839 38.6332 96.4131 38.8968 96.4717 39.1181C96.5303 39.3394 96.6153 39.5217 96.7256 39.6649C96.8364 39.8015 96.9697 39.9024 97.1259 39.9675C97.2821 40.0326 97.4549 40.0652 97.6434 40.0652ZM100.257 40.8267L102.093 38.1905L100.364 35.6911H101.595L102.727 37.4095H102.786L103.928 35.6911H105.09L103.352 38.1613L105.188 40.8267H103.967L102.718 38.9423H102.669L101.419 40.8267H100.257Z" fill="#454545"/>
<path d="M11.1079 56.5649C10.5937 56.5649 10.1641 56.4707 9.81912 56.2818C9.47413 56.0865 9.21378 55.7902 9.03803 55.3933C8.86878 54.9964 8.78418 54.4916 8.78418 53.8799C8.78418 53.2682 8.87205 52.7669 9.0478 52.3763C9.22354 51.9794 9.48389 51.6831 9.82889 51.4878C10.1804 51.2926 10.61 51.1949 11.1177 51.1949C11.4692 51.1949 11.7751 51.2403 12.0355 51.3316C12.2958 51.4161 12.5172 51.5464 12.6994 51.7222C12.8816 51.8916 13.0151 52.103 13.0997 52.3568C13.1908 52.6107 13.2364 52.9002 13.2364 53.2258H12.2112C12.2112 52.9524 12.1722 52.7278 12.094 52.5521C12.0159 52.3763 11.8955 52.246 11.7328 52.1615C11.5701 52.0702 11.3585 52.0248 11.0982 52.0248C10.8248 52.0248 10.5937 52.0898 10.4049 52.2201C10.2162 52.3436 10.073 52.536 9.97534 52.7962C9.87771 53.05 9.82889 53.3854 9.82889 53.8018V53.9678C9.82889 54.3647 9.87443 54.6967 9.96558 54.9637C10.0632 55.2239 10.2064 55.4192 10.3952 55.5495C10.5904 55.673 10.8378 55.735 11.1372 55.735C11.3976 55.735 11.6059 55.6896 11.7621 55.5983C11.9248 55.5007 12.0452 55.364 12.1233 55.1883C12.2079 55.0062 12.2503 54.788 12.2503 54.5341H13.2364C13.2364 54.8402 13.1908 55.1165 13.0997 55.364C13.0151 55.6115 12.8816 55.8263 12.6994 56.0084C12.5236 56.1841 12.3024 56.3208 12.0355 56.4185C11.7686 56.5161 11.4594 56.5649 11.1079 56.5649ZM16.4508 56.5649C15.9171 56.5649 15.4647 56.4707 15.0937 56.2818C14.7292 56.0865 14.4525 55.7902 14.2638 55.3933C14.0815 54.9964 13.9904 54.4916 13.9904 53.8799C13.9904 53.2614 14.0815 52.7571 14.2638 52.3666C14.4525 51.9697 14.7292 51.6768 15.0937 51.4878C15.4647 51.2926 15.9171 51.1949 16.4508 51.1949C16.9976 51.1949 17.4532 51.2926 17.8177 51.4878C18.1822 51.6768 18.4556 51.9697 18.6379 52.3666C18.8266 52.7571 18.921 53.2614 18.921 53.8799C18.921 54.4916 18.8266 54.9964 18.6379 55.3933C18.4556 55.7902 18.1822 56.0865 17.8177 56.2818C17.4532 56.4707 16.9976 56.5649 16.4508 56.5649ZM16.4508 55.7253C16.7763 55.7253 17.0432 55.6633 17.2514 55.5398C17.4597 55.4094 17.6127 55.2141 17.7103 54.9539C17.8145 54.6937 17.8665 54.3647 17.8665 53.9678V53.7921C17.8665 53.3952 17.8145 53.0661 17.7103 52.8059C17.6127 52.5457 17.4597 52.3534 17.2514 52.2299C17.0432 52.0995 16.7763 52.0346 16.4508 52.0346C16.1319 52.0346 15.8683 52.0995 15.66 52.2299C15.4517 52.3534 15.2955 52.5457 15.1913 52.8059C15.0937 53.0661 15.0449 53.3952 15.0449 53.7921V53.9678C15.0449 54.3647 15.0937 54.6937 15.1913 54.9539C15.2955 55.2141 15.4517 55.4094 15.66 55.5398C15.8683 55.6633 16.1319 55.7253 16.4508 55.7253ZM19.9561 56.4478V49.3887H20.9715V56.4478H19.9561ZM23.8935 56.5649C23.3989 56.5649 22.9985 56.4346 22.6926 56.1744C22.3867 55.9074 22.2337 55.4553 22.2337 54.8172V51.3121H23.2491V54.661C23.2491 54.8563 23.2719 55.0189 23.3175 55.1492C23.3696 55.2795 23.4411 55.3835 23.5323 55.4616C23.6234 55.5398 23.7308 55.5949 23.8545 55.6276C23.9781 55.6603 24.1148 55.6764 24.2645 55.6764C24.4989 55.6764 24.7104 55.6213 24.8992 55.5105C25.0944 55.3933 25.2507 55.2337 25.3678 55.032C25.485 54.8236 25.5436 54.5863 25.5436 54.3193V51.3121H26.559V56.4478H25.7291L25.6412 55.7155H25.5729C25.4492 55.9044 25.3028 56.0606 25.1335 56.1841C24.9643 56.3077 24.7755 56.4024 24.5672 56.4673C24.3654 56.5322 24.1409 56.5649 23.8935 56.5649ZM27.8699 56.4478V51.3121H28.7096L28.7974 52.0444H28.8658C28.983 51.8555 29.1164 51.6992 29.2661 51.5757C29.4223 51.4522 29.5948 51.3575 29.7836 51.2926C29.9788 51.2277 30.1872 51.1949 30.4084 51.1949C30.7274 51.1949 31.004 51.2599 31.2384 51.3902C31.4792 51.5206 31.6615 51.7383 31.7851 52.0444H31.8535C31.9706 51.8623 32.1073 51.709 32.2635 51.5855C32.4197 51.4551 32.5955 51.3575 32.7908 51.2926C32.9926 51.2277 33.2074 51.1949 33.4352 51.1949C33.7411 51.1949 34.0112 51.2501 34.2455 51.3609C34.4799 51.4649 34.6654 51.6441 34.8021 51.8979C34.9388 52.1454 35.0071 52.4774 35.0071 52.8938V56.4478H33.9917V53.0793C33.9917 52.884 33.9689 52.7244 33.9233 52.6009C33.8778 52.4706 33.8159 52.37 33.7378 52.2982C33.6597 52.2201 33.5654 52.165 33.4547 52.1322C33.3441 52.0995 33.2236 52.0834 33.0934 52.0834C32.8786 52.0834 32.6866 52.142 32.5174 52.2592C32.3482 52.37 32.2115 52.5262 32.1073 52.7278C32.0032 52.9294 31.9511 53.1672 31.9511 53.4406V56.4478H30.9357V53.0793C30.9357 52.884 30.9129 52.7244 30.8673 52.6009C30.8218 52.4706 30.7599 52.37 30.6818 52.2982C30.6037 52.2201 30.5093 52.165 30.3987 52.1322C30.2881 52.0995 30.1709 52.0834 30.0472 52.0834C29.8324 52.0834 29.6371 52.142 29.4614 52.2592C29.2856 52.37 29.1457 52.5262 29.0415 52.7278C28.9374 52.9294 28.8853 53.1672 28.8853 53.4406V56.4478H27.8699ZM36.2701 56.4478V51.3121H37.1098L37.1976 52.0444H37.266C37.3896 51.8555 37.5361 51.6992 37.7053 51.5757C37.8745 51.4522 38.06 51.3575 38.2619 51.2926C38.4701 51.2277 38.698 51.1949 38.9453 51.1949C39.2707 51.1949 39.5571 51.2535 39.8045 51.3707C40.0518 51.4815 40.2439 51.6636 40.3806 51.9174C40.5237 52.1713 40.5954 52.513 40.5954 52.9426V56.4478H39.5799V53.0988C39.5799 52.9036 39.5539 52.741 39.5018 52.6107C39.4562 52.4803 39.3879 52.3763 39.2968 52.2982C39.2057 52.2201 39.0983 52.165 38.9746 52.1322C38.8509 52.0995 38.7142 52.0834 38.5645 52.0834C38.3302 52.0834 38.1154 52.142 37.9201 52.2592C37.7314 52.37 37.5784 52.5262 37.4612 52.7278C37.3441 52.9294 37.2855 53.1672 37.2855 53.4406V56.4478H36.2701ZM43.7611 56.5649C43.4031 56.5649 43.0874 56.5259 42.814 56.4478C42.5407 56.3697 42.3128 56.2623 42.1306 56.1256C41.9484 55.9889 41.8084 55.8263 41.7108 55.6374C41.6196 55.4421 41.5741 55.2273 41.5741 54.993C41.5741 54.9603 41.5741 54.931 41.5741 54.9051C41.5806 54.8792 41.5838 54.8563 41.5838 54.8368H42.5895C42.5895 54.8563 42.5895 54.8758 42.5895 54.8954C42.5895 54.9085 42.5895 54.9246 42.5895 54.9442C42.5895 55.1458 42.6448 55.3088 42.7555 55.4324C42.8661 55.5495 43.0126 55.634 43.1948 55.6862C43.3836 55.7316 43.5886 55.7546 43.8099 55.7546C44.0052 55.7546 44.1842 55.7316 44.3469 55.6862C44.5162 55.634 44.6529 55.5593 44.757 55.4616C44.8677 55.364 44.923 55.2405 44.923 55.0906C44.923 54.8954 44.8546 54.7455 44.718 54.6415C44.5813 54.5375 44.4022 54.456 44.181 54.3974C43.9597 54.3325 43.7286 54.2641 43.4877 54.1924C43.2729 54.1338 43.0581 54.0718 42.8433 54.0069C42.635 53.9351 42.4463 53.8443 42.277 53.7335C42.1078 53.6227 41.9711 53.483 41.867 53.3136C41.7628 53.1442 41.7108 52.9329 41.7108 52.679C41.7108 52.4383 41.7628 52.2265 41.867 52.0444C41.9711 51.8623 42.1143 51.709 42.2966 51.5855C42.4854 51.462 42.7066 51.3673 42.9605 51.3023C43.2208 51.2374 43.504 51.2047 43.8099 51.2047C44.1289 51.2047 44.412 51.2403 44.6594 51.3121C44.9067 51.377 45.115 51.4717 45.2842 51.5952C45.46 51.7188 45.5934 51.8686 45.6846 52.0444C45.7757 52.2138 45.8212 52.3959 45.8212 52.5911C45.8212 52.6302 45.818 52.6727 45.8115 52.7181C45.8115 52.7571 45.8115 52.783 45.8115 52.7962H44.8156V52.7083C44.8156 52.578 44.7798 52.4608 44.7082 52.3568C44.6366 52.2528 44.5227 52.1679 44.3665 52.103C44.2167 52.038 44.015 52.0053 43.7611 52.0053C43.5919 52.0053 43.4422 52.0214 43.312 52.0541C43.1818 52.08 43.0744 52.1191 42.9898 52.1713C42.9052 52.2235 42.8401 52.2851 42.7945 52.3568C42.7555 52.4286 42.7359 52.5096 42.7359 52.6009C42.7359 52.7508 42.788 52.8679 42.8922 52.9524C43.0028 53.0305 43.146 53.0988 43.3218 53.1574C43.4975 53.2097 43.6863 53.2682 43.888 53.3332C44.1224 53.3981 44.36 53.4664 44.6008 53.5382C44.8416 53.6031 45.063 53.6881 45.2647 53.7921C45.473 53.896 45.639 54.0396 45.7627 54.2217C45.8929 54.4038 45.9579 54.6478 45.9579 54.9539C45.9579 55.2337 45.9026 55.4778 45.7919 55.6862C45.6813 55.8947 45.5251 56.0636 45.3233 56.1939C45.128 56.3174 44.897 56.4087 44.6301 56.4673C44.3632 56.5322 44.0736 56.5649 43.7611 56.5649Z" fill="#292929"/>
<path d="M70.7148 56.4478V55.5984H72.3747V51.1559H70.7148V50.5213C70.9296 50.5081 71.1674 50.4691 71.4276 50.4041C71.6878 50.3392 71.9485 50.2513 72.2087 50.1405C72.4689 50.0297 72.7066 49.8964 72.9214 49.7402H73.3998V55.5984H74.9327V56.4478H70.7148ZM75.7519 56.4478V56.1451C75.7519 55.8654 75.8036 55.6081 75.9076 55.3738C76.0184 55.1331 76.162 54.9149 76.3377 54.7197C76.5198 54.5244 76.7214 54.3389 76.9431 54.1631C77.1642 53.9874 77.3888 53.818 77.6167 53.6554C77.916 53.4406 78.1928 53.2258 78.4467 53.011C78.7005 52.7962 78.9055 52.5653 79.0618 52.3178C79.2243 52.0703 79.3059 51.794 79.3059 51.4879C79.3059 51.3122 79.2634 51.1496 79.1789 50.9997C79.1008 50.8498 78.9768 50.7298 78.8079 50.6385C78.6385 50.5408 78.4174 50.492 78.144 50.492C77.8442 50.492 77.6001 50.5442 77.4117 50.6482C77.2291 50.7459 77.0924 50.8826 77.0016 51.0583C76.9167 51.2277 76.8747 51.4259 76.8747 51.6539V52.0542H75.8593C75.8525 52.0215 75.8461 51.9727 75.8398 51.9077C75.8329 51.8428 75.83 51.7613 75.83 51.6636C75.83 51.1818 75.9374 50.7947 76.1522 50.5018C76.3733 50.2025 76.6628 49.9843 77.0212 49.8476C77.3853 49.7046 77.7759 49.6328 78.1928 49.6328C78.596 49.6328 78.9348 49.6914 79.2082 49.8086C79.4879 49.9194 79.7091 50.0688 79.8721 50.2577C80.0411 50.4466 80.1616 50.6546 80.2334 50.8826C80.3115 51.1105 80.3506 51.3317 80.3506 51.5465C80.3506 51.8589 80.2949 52.1421 80.1846 52.3959C80.0801 52.6498 79.9307 52.8875 79.7355 53.1087C79.5465 53.3298 79.322 53.5446 79.0618 53.7531C78.8079 53.9547 78.5345 54.1568 78.2416 54.3584C78.059 54.4819 77.8804 54.6088 77.7046 54.7392C77.5352 54.8695 77.3854 55.0028 77.2555 55.1395C77.1252 55.2698 77.0373 55.3968 76.9919 55.5203H80.3896V56.4478H75.7519Z" fill="#454545"/>
<path d="M9.92648 73.8479C9.69216 73.8479 9.47086 73.7991 9.26256 73.7014C9.06079 73.6038 8.89803 73.4637 8.77438 73.2816C8.65072 73.0995 8.58887 72.8779 8.58887 72.6177C8.58887 72.3311 8.66698 72.1002 8.82319 71.9245C8.9859 71.7424 9.17468 71.6057 9.38948 71.5144C9.23327 71.4426 9.10634 71.3386 9.0087 71.202C8.91756 71.0653 8.87201 70.909 8.87201 70.7333C8.87201 70.4926 8.95988 70.2974 9.13563 70.1475C9.31137 69.9976 9.51641 69.9 9.75074 69.8546C9.5229 69.7047 9.34394 69.5163 9.21374 69.2883C9.09008 69.0603 9.02823 68.8035 9.02823 68.517C9.02823 68.1718 9.10961 67.876 9.27232 67.6285C9.43503 67.3746 9.6759 67.1759 9.99483 67.0329C10.3203 66.8899 10.7141 66.8181 11.1762 66.8181C11.378 66.8181 11.5668 66.8342 11.7425 66.8669C11.9248 66.8928 12.0875 66.9318 12.2307 66.9841C12.4585 66.8669 12.6212 66.7268 12.7189 66.5642C12.8165 66.3948 12.8751 66.2386 12.8946 66.0956H13.8905C13.8905 66.3104 13.845 66.5057 13.7538 66.6814C13.6692 66.8508 13.5488 66.9938 13.3926 67.111C13.2428 67.2218 13.0606 67.2999 12.8458 67.3453C13.0085 67.4952 13.1289 67.6709 13.2071 67.8726C13.2917 68.0678 13.334 68.2826 13.334 68.517C13.334 68.8553 13.2559 69.1516 13.0997 69.4054C12.9434 69.6593 12.7058 69.858 12.3869 70.001C12.0745 70.1441 11.6872 70.2158 11.225 70.2158H10.4244C10.2682 70.2158 10.1413 70.2485 10.0436 70.3135C9.9525 70.3784 9.90695 70.476 9.90695 70.6064C9.90695 70.7172 9.9525 70.808 10.0436 70.8798C10.1348 70.9515 10.2552 70.9872 10.4049 70.9872H12.5724C12.9499 70.9872 13.2624 71.1141 13.5097 71.3679C13.7571 71.6154 13.8807 71.9342 13.8807 72.3248C13.8807 72.6113 13.8059 72.8681 13.6562 73.0961C13.513 73.3304 13.308 73.5125 13.0411 73.6429C12.7807 73.7796 12.4781 73.8479 12.1331 73.8479H9.92648ZM10.2584 73.0961H12.1233C12.26 73.0961 12.3836 73.0702 12.4943 73.018C12.605 72.9658 12.6929 72.8911 12.7579 72.7934C12.823 72.7021 12.8556 72.5982 12.8556 72.481C12.8556 72.2857 12.7937 72.1329 12.6701 72.0221C12.5529 71.9113 12.4064 71.8561 12.2307 71.8561H10.2584C10.0762 71.8561 9.92321 71.9181 9.79956 72.0416C9.6759 72.1588 9.61405 72.3052 9.61405 72.481C9.61405 72.6631 9.67263 72.8095 9.78979 72.9204C9.91345 73.0375 10.0697 73.0961 10.2584 73.0961ZM11.186 69.4836C11.57 69.4836 11.8564 69.3991 12.0452 69.2297C12.234 69.054 12.3283 68.8162 12.3283 68.517C12.3283 68.2109 12.234 67.9765 12.0452 67.814C11.8564 67.6446 11.57 67.5601 11.186 67.5601C10.8019 67.5601 10.5156 67.6446 10.3268 67.814C10.138 67.9765 10.0436 68.2109 10.0436 68.517C10.0436 68.7122 10.0827 68.8846 10.1608 69.0344C10.2454 69.1775 10.3723 69.2883 10.5416 69.3664C10.7173 69.4445 10.9321 69.4836 11.186 69.4836ZM16.2752 72.1881C15.7805 72.1881 15.3802 72.0577 15.0743 71.7975C14.7684 71.5305 14.6154 71.0784 14.6154 70.4404V66.9353H15.6308V70.2842C15.6308 70.4794 15.6536 70.642 15.6991 70.7724C15.7512 70.9027 15.8228 71.0067 15.9139 71.0848C16.0051 71.1629 16.1125 71.2181 16.2361 71.2508C16.3598 71.2835 16.4965 71.2996 16.6462 71.2996C16.8805 71.2996 17.0921 71.2444 17.2808 71.1336C17.4761 71.0164 17.6323 70.8568 17.7495 70.6552C17.8666 70.4467 17.9252 70.2095 17.9252 69.9424V66.9353H18.9406V72.0709H18.1107L18.0229 71.3386H17.9545C17.8309 71.5276 17.6844 71.6838 17.5152 71.8073C17.346 71.9308 17.1572 72.0255 16.9489 72.0904C16.7471 72.1554 16.5225 72.1881 16.2752 72.1881ZM21.5306 72.1881C21.2377 72.1881 21.0066 72.1329 20.8374 72.0221C20.6747 71.9049 20.5575 71.7585 20.4859 71.5827C20.4208 71.4006 20.3883 71.2083 20.3883 71.0067V67.7749H19.7439V66.9353H20.4078L20.5933 65.5H21.4037V66.9353H22.3313V67.7749H21.4037V70.8895C21.4037 71.0394 21.4362 71.1531 21.5013 71.2312C21.5664 71.3094 21.6738 71.3484 21.8235 71.3484H22.3313V72.0319C22.2661 72.0577 22.1848 72.0807 22.0872 72.1002C21.996 72.1261 21.9017 72.1456 21.804 72.1588C21.7064 72.1783 21.6152 72.1881 21.5306 72.1881ZM24.5055 72.1881C24.2126 72.1881 23.9815 72.1329 23.8123 72.0221C23.6495 71.9049 23.5324 71.7585 23.4608 71.5827C23.3957 71.4006 23.3631 71.2083 23.3631 71.0067V67.7749H22.7187V66.9353H23.3827L23.5682 65.5H24.3785V66.9353H25.3061V67.7749H24.3785V70.8895C24.3785 71.0394 24.4111 71.1531 24.4762 71.2312C24.5413 71.3094 24.6487 71.3484 24.7984 71.3484H25.3061V72.0319C25.241 72.0577 25.1596 72.0807 25.062 72.1002C24.9709 72.1261 24.8765 72.1456 24.7788 72.1588C24.6812 72.1783 24.5901 72.1881 24.5055 72.1881ZM28.3298 72.1881C27.8025 72.1881 27.3599 72.0939 27.0019 71.9049C26.6504 71.7097 26.3835 71.4133 26.2013 71.0164C26.019 70.6196 25.9279 70.1148 25.9279 69.5031C25.9279 68.8846 26.019 68.3803 26.2013 67.9897C26.3835 67.5928 26.6537 67.2999 27.0117 67.111C27.3697 66.9157 27.8155 66.8181 28.3493 66.8181C28.8375 66.8181 29.2443 66.9123 29.5698 67.1012C29.9017 67.2833 30.1523 67.5635 30.3216 67.9409C30.4908 68.3183 30.5754 68.7938 30.5754 69.3664V69.7569H26.9726C26.9856 70.1216 27.041 70.4272 27.1386 70.6747C27.2363 70.9154 27.3827 71.0946 27.578 71.2117C27.7797 71.3225 28.0336 71.3777 28.3395 71.3777C28.5283 71.3777 28.6975 71.3548 28.8473 71.3094C28.9969 71.2571 29.1239 71.1858 29.228 71.0946C29.3322 70.9969 29.4135 70.8832 29.4721 70.7528C29.5307 70.6161 29.56 70.4633 29.56 70.2939H30.5559C30.5559 70.6 30.5038 70.87 30.3997 71.1043C30.2955 71.3386 30.1425 71.5373 29.9408 71.6999C29.7455 71.8561 29.5112 71.9767 29.2378 72.0612C28.9644 72.1456 28.6617 72.1881 28.3298 72.1881ZM26.9922 69.0149H29.5112C29.5112 68.7611 29.4819 68.5497 29.4233 68.3803C29.3712 68.2045 29.2931 68.0615 29.189 67.9507C29.0848 67.8399 28.9611 67.7617 28.818 67.7163C28.6747 67.6641 28.512 67.6382 28.3298 67.6382C28.0564 67.6382 27.8221 67.6871 27.6268 67.7847C27.438 67.8823 27.2916 68.0351 27.1874 68.2436C27.0833 68.4452 27.0182 68.7025 26.9922 69.0149ZM31.6075 72.0709V66.9353H32.4472L32.5351 67.7652H32.5936C32.6522 67.6026 32.7271 67.4493 32.8182 67.3063C32.9158 67.1632 33.0395 67.0461 33.1892 66.9548C33.3454 66.8635 33.5342 66.8181 33.7555 66.8181C33.8596 66.8181 33.9508 66.8279 34.0289 66.8474C34.1135 66.8669 34.1786 66.883 34.2242 66.8962V67.853H33.8824C33.6741 67.853 33.4886 67.8857 33.3259 67.9507C33.1697 68.0156 33.0362 68.1132 32.9256 68.2436C32.8214 68.3671 32.7433 68.5204 32.6913 68.7025C32.6457 68.8846 32.6229 69.0896 32.6229 69.3176V72.0709H31.6075ZM36.8769 72.1881C36.519 72.1881 36.2033 72.149 35.9299 72.0709C35.6565 71.9928 35.4287 71.8854 35.2464 71.7487C35.0642 71.612 34.9242 71.4495 34.8266 71.2605C34.7355 71.0653 34.6899 70.8505 34.6899 70.6161C34.6899 70.5834 34.6899 70.5541 34.6899 70.5283C34.6964 70.5024 34.6997 70.4794 34.6997 70.4599H35.7053C35.7053 70.4794 35.7053 70.499 35.7053 70.5185C35.7053 70.5317 35.7053 70.5478 35.7053 70.5673C35.7053 70.7689 35.7607 70.932 35.8713 71.0555C35.982 71.1727 36.1284 71.2571 36.3107 71.3094C36.4994 71.3548 36.7045 71.3777 36.9258 71.3777C37.121 71.3777 37.3001 71.3548 37.4628 71.3094C37.632 71.2571 37.7687 71.1824 37.8728 71.0848C37.9835 70.9872 38.0388 70.8636 38.0388 70.7138C38.0388 70.5185 37.9705 70.3686 37.8338 70.2646C37.6971 70.1607 37.5181 70.0791 37.2968 70.0206C37.0755 69.9556 36.8444 69.8873 36.6036 69.8155C36.3888 69.7569 36.174 69.6949 35.9592 69.63C35.7509 69.5583 35.5621 69.4675 35.3929 69.3566C35.2237 69.2458 35.087 69.1062 34.9828 68.9368C34.8787 68.7674 34.8266 68.556 34.8266 68.3022C34.8266 68.0615 34.8787 67.8496 34.9828 67.6675C35.087 67.4854 35.2302 67.3321 35.4124 67.2086C35.6012 67.0851 35.8225 66.9904 36.0763 66.9255C36.3367 66.8606 36.6199 66.8279 36.9258 66.8279C37.2447 66.8279 37.5279 66.8635 37.7752 66.9353C38.0226 67.0002 38.2309 67.0949 38.4001 67.2184C38.5758 67.3419 38.7093 67.4918 38.8004 67.6675C38.8915 67.8369 38.9371 68.019 38.9371 68.2143C38.9371 68.2533 38.9338 68.2958 38.9273 68.3412C38.9273 68.3803 38.9273 68.4061 38.9273 68.4193H37.9314V68.3315C37.9314 68.2011 37.8956 68.0839 37.824 67.98C37.7525 67.876 37.6385 67.791 37.4823 67.7261C37.3326 67.6612 37.1308 67.6285 36.8769 67.6285C36.7077 67.6285 36.558 67.6446 36.4278 67.6773C36.2977 67.7032 36.1903 67.7422 36.1056 67.7945C36.021 67.8467 35.9559 67.9082 35.9103 67.98C35.8713 68.0517 35.8518 68.1328 35.8518 68.2241C35.8518 68.3739 35.9039 68.4911 36.008 68.5755C36.1187 68.6536 36.2618 68.722 36.4376 68.7806C36.6133 68.8328 36.8021 68.8914 37.0039 68.9563C37.2382 69.0212 37.4758 69.0896 37.7166 69.1614C37.9575 69.2263 38.1788 69.3112 38.3805 69.4152C38.5889 69.5192 38.7548 69.6627 38.8785 69.8448C39.0087 70.0269 39.0738 70.271 39.0738 70.5771C39.0738 70.8568 39.0184 71.1009 38.9078 71.3094C38.7972 71.5178 38.6409 71.6867 38.4391 71.8171C38.2439 71.9406 38.0128 72.0319 37.7459 72.0904C37.4791 72.1554 37.1894 72.1881 36.8769 72.1881Z" fill="#292929"/>
<path d="M70.7148 72.0709V71.2214H72.3747V66.779H70.7148V66.1444C70.9296 66.1312 71.1674 66.0921 71.4276 66.0272C71.6878 65.9623 71.9485 65.8744 72.2087 65.7636C72.4689 65.6528 72.7066 65.5195 72.9214 65.3633H73.3998V71.2214H74.9327V72.0709H70.7148ZM78.2123 72.188C77.8281 72.188 77.483 72.1329 77.1774 72.022C76.8776 71.9112 76.6209 71.7326 76.4061 71.4851C76.1913 71.2312 76.0282 70.8958 75.9179 70.4794C75.8071 70.0561 75.7519 69.5357 75.7519 68.9172C75.7519 68.2274 75.8036 67.6479 75.9076 67.1793C76.0184 66.7106 76.1781 66.3362 76.3865 66.0565C76.5945 65.7699 76.8484 65.5649 77.1481 65.4414C77.4474 65.3179 77.7891 65.2559 78.1733 65.2559C78.6546 65.2559 79.0452 65.3472 79.3449 65.5292C79.6505 65.7113 79.8721 65.9588 80.0088 66.2713C80.1519 66.5837 80.2236 66.9386 80.2236 67.3355H79.1887C79.1887 67.0685 79.1496 66.8439 79.0715 66.6618C78.9998 66.4729 78.8826 66.3333 78.72 66.242C78.5638 66.1444 78.3651 66.0955 78.1245 66.0955C77.7661 66.0955 77.4898 66.1932 77.2946 66.3884C77.1056 66.5774 76.9753 66.8507 76.904 67.2086C76.8386 67.5601 76.803 67.9833 76.7966 68.4779C76.8615 68.3739 76.9689 68.2665 77.1188 68.1557C77.2682 68.0448 77.4508 67.954 77.6656 67.8823C77.8867 67.8042 78.1274 67.7651 78.3881 67.7651C78.8631 67.7651 79.2536 67.8627 79.5597 68.058C79.8653 68.2469 80.0899 68.5071 80.2334 68.8391C80.3828 69.1711 80.458 69.5455 80.458 69.9619C80.458 70.411 80.3603 70.805 80.1651 71.1433C79.9698 71.4753 79.7027 71.7326 79.3644 71.9146C79.0256 72.0967 78.6419 72.188 78.2123 72.188ZM78.144 71.3484C78.4301 71.3484 78.6644 71.2864 78.847 71.1629C79.0354 71.0325 79.1755 70.8636 79.2668 70.6551C79.3576 70.4403 79.4035 70.206 79.4035 69.9522C79.4035 69.6983 79.3576 69.4703 79.2668 69.2687C79.1819 69.0603 79.0452 68.8977 78.8567 68.7805C78.6741 68.657 78.4398 68.595 78.1537 68.595C77.8672 68.595 77.6294 68.657 77.441 68.7805C77.2521 68.8977 77.112 69.0603 77.0212 69.2687C76.9299 69.4772 76.8845 69.7144 76.8845 69.9815C76.8845 70.229 76.9299 70.4599 77.0212 70.6747C77.112 70.8831 77.2487 71.0491 77.4312 71.1726C77.6197 71.2898 77.8574 71.3484 78.144 71.3484ZM81.5334 73.76V66.9352H82.3633L82.4512 67.6382H82.5195C82.6953 67.3648 82.9199 67.1598 83.1932 67.0231C83.4666 66.8864 83.7727 66.818 84.111 66.818C84.5343 66.818 84.8955 66.9123 85.1948 67.1012C85.5009 67.2901 85.7352 67.583 85.8978 67.9799C86.0608 68.3768 86.1418 68.8913 86.1418 69.5226C86.1418 70.1343 86.0574 70.639 85.888 71.0359C85.7254 71.4265 85.4945 71.716 85.1948 71.9049C84.8955 72.0938 84.5504 72.188 84.1598 72.188C83.9323 72.188 83.7205 72.1622 83.5252 72.1099C83.3299 72.0577 83.1542 71.9767 82.998 71.8658C82.8486 71.755 82.7182 71.6154 82.6074 71.446H82.5488V73.76H81.5334ZM83.8083 71.3093C84.1144 71.3093 84.3619 71.2507 84.5504 71.1336C84.7393 71.0101 84.876 70.8211 84.9605 70.5673C85.0517 70.3134 85.0971 69.9912 85.0971 69.6007V69.4249C85.0971 69.0149 85.0517 68.6829 84.9605 68.429C84.8696 68.1752 84.7295 67.9897 84.5406 67.8725C84.3585 67.7553 84.1208 67.6968 83.8279 67.6968C83.5286 67.6968 83.2845 67.7651 83.0956 67.9018C82.9072 68.0322 82.7671 68.2274 82.6758 68.4876C82.5913 68.7478 82.5488 69.0637 82.5488 69.4347V69.5714C82.5488 69.8775 82.5781 70.1411 82.6367 70.3622C82.6953 70.5834 82.7802 70.766 82.8906 70.909C83.0014 71.0457 83.1347 71.1467 83.2909 71.2117C83.4471 71.2766 83.6199 71.3093 83.8083 71.3093ZM86.4221 72.0709L88.2576 69.4347L86.5295 66.9352H87.7597L88.8923 68.6536H88.9508L90.0932 66.9352H91.2551L89.5171 69.4054L91.3527 72.0709H90.1322L88.8825 70.1865H88.8337L87.5839 72.0709H86.4221Z" fill="#454545"/>
<path d="M10.3463 87.8092C10.0534 87.8092 9.82235 87.754 9.6531 87.6432C9.49039 87.526 9.37322 87.3796 9.30161 87.2038C9.23653 87.0217 9.20397 86.8294 9.20397 86.6278V83.396H8.55957V82.5563H9.2235L9.40901 81.1211H10.2194V82.5563H11.1469V83.396H10.2194V86.5106C10.2194 86.6605 10.2519 86.7742 10.317 86.8523C10.3821 86.9304 10.4895 86.9695 10.6392 86.9695H11.1469V87.653C11.0819 87.6788 11.0005 87.7018 10.9028 87.7213C10.8117 87.7472 10.7173 87.7667 10.6197 87.7799C10.5221 87.7994 10.4309 87.8092 10.3463 87.8092ZM12.5987 89.469C12.4034 89.469 12.2406 89.4529 12.1105 89.4202C11.9803 89.3943 11.8989 89.3777 11.8664 89.3714V88.6391H12.3546C12.4978 88.6391 12.641 88.6064 12.7842 88.5414C12.9339 88.4765 13.0673 88.3721 13.1845 88.229C13.3017 88.086 13.3993 87.9068 13.4774 87.692L11.4759 82.5563H12.5401L13.536 85.1144C13.5815 85.2316 13.6304 85.378 13.6824 85.5538C13.741 85.7295 13.7963 85.9087 13.8484 86.0908C13.907 86.2729 13.9558 86.4359 13.9949 86.579H14.0437C14.0762 86.4813 14.1088 86.3705 14.1413 86.247C14.1804 86.1166 14.2194 85.9834 14.2584 85.8467C14.2976 85.71 14.3366 85.5797 14.3757 85.4561C14.4147 85.3258 14.4472 85.2155 14.4733 85.1242L15.3032 82.5563H16.3381L14.6002 87.4967C14.5026 87.7701 14.3952 88.0274 14.278 88.2681C14.1609 88.5087 14.0242 88.7172 13.868 88.8929C13.7182 89.075 13.5392 89.2151 13.331 89.3128C13.1226 89.4168 12.8786 89.469 12.5987 89.469ZM17.0765 89.3811V82.5563H17.9064L17.9943 83.2593H18.0626C18.2384 82.9859 18.463 82.7809 18.7363 82.6442C19.0097 82.5075 19.3156 82.4392 19.6541 82.4392C20.0772 82.4392 20.4384 82.5334 20.7379 82.7223C21.0438 82.9113 21.2781 83.2042 21.4408 83.6011C21.6036 83.9979 21.6849 84.5125 21.6849 85.1437C21.6849 85.7554 21.6003 86.2602 21.4311 86.6571C21.2683 87.0476 21.0373 87.3371 20.7379 87.526C20.4384 87.715 20.0935 87.8092 19.7029 87.8092C19.4751 87.8092 19.2636 87.7833 19.0683 87.7311C18.873 87.6788 18.6973 87.5978 18.5411 87.487C18.3913 87.3762 18.2611 87.2365 18.1505 87.0671H18.0919V89.3811H17.0765ZM19.3514 86.9305C19.6573 86.9305 19.9047 86.8719 20.0935 86.7547C20.2822 86.6312 20.4189 86.4423 20.5036 86.1884C20.5946 85.9346 20.6402 85.6124 20.6402 85.2218V85.0461C20.6402 84.636 20.5946 84.304 20.5036 84.0502C20.4124 83.7963 20.2724 83.6108 20.0837 83.4937C19.9014 83.3765 19.6639 83.3179 19.371 83.3179C19.0715 83.3179 18.8274 83.3863 18.6387 83.523C18.4499 83.6533 18.31 83.8486 18.2189 84.1088C18.1342 84.369 18.0919 84.6848 18.0919 85.0558V85.1925C18.0919 85.4986 18.1212 85.7622 18.1798 85.9834C18.2384 86.2045 18.323 86.3871 18.4337 86.5301C18.5443 86.6668 18.6778 86.7679 18.834 86.8328C18.9902 86.8977 19.1627 86.9305 19.3514 86.9305ZM24.8591 87.8092C24.3319 87.8092 23.8892 87.715 23.5312 87.526C23.1798 87.3308 22.9129 87.0344 22.7306 86.6375C22.5483 86.2406 22.4572 85.7359 22.4572 85.1242C22.4572 84.5057 22.5483 84.0014 22.7306 83.6108C22.9129 83.2139 23.183 82.921 23.541 82.7321C23.899 82.5368 24.3448 82.4392 24.8786 82.4392C25.3668 82.4392 25.7736 82.5334 26.0991 82.7223C26.431 82.9044 26.6816 83.1846 26.8509 83.562C27.0201 83.9394 27.1047 84.4149 27.1047 84.9875V85.378H23.502C23.5149 85.7427 23.5703 86.0483 23.6679 86.2958C23.7656 86.5365 23.912 86.7157 24.1073 86.8328C24.3091 86.9436 24.5629 86.9988 24.8689 86.9988C25.0576 86.9988 25.2268 86.9759 25.3766 86.9305C25.5262 86.8782 25.6532 86.8069 25.7574 86.7156C25.8615 86.618 25.9429 86.5043 26.0014 86.3739C26.06 86.2372 26.0893 86.0844 26.0893 85.915H27.0852C27.0852 86.2211 27.0331 86.4911 26.929 86.7254C26.8248 86.9597 26.6719 87.1584 26.4701 87.321C26.2748 87.4772 26.0405 87.5978 25.7671 87.6822C25.4937 87.7667 25.1911 87.8092 24.8591 87.8092ZM23.5215 84.636H26.0405C26.0405 84.3821 26.0112 84.1708 25.9526 84.0014C25.9005 83.8256 25.8224 83.6826 25.7183 83.5718C25.6141 83.4609 25.4905 83.3828 25.3473 83.3374C25.204 83.2852 25.0413 83.2593 24.8591 83.2593C24.5857 83.2593 24.3514 83.3081 24.1561 83.4058C23.9673 83.5034 23.8209 83.6562 23.7168 83.8647C23.6126 84.0663 23.5475 84.3236 23.5215 84.636Z" fill="#292929"/>
<path d="M72.4722 87.8091C72.1144 87.8091 71.7985 87.77 71.5251 87.6919C71.2518 87.6138 71.0238 87.5064 70.8417 87.3697C70.6596 87.233 70.5195 87.0705 70.4218 86.8815C70.3306 86.6863 70.2852 86.4715 70.2852 86.2371C70.2852 86.2044 70.2852 86.1751 70.2852 86.1493C70.2915 86.1234 70.2949 86.1004 70.2949 86.0809H71.3006C71.3006 86.1004 71.3006 86.12 71.3006 86.1395C71.3006 86.1527 71.3006 86.1688 71.3006 86.1883C71.3006 86.3899 71.3557 86.553 71.4666 86.6765C71.5774 86.7937 71.7238 86.8781 71.9059 86.9304C72.0948 86.9758 72.2999 86.9987 72.521 86.9987C72.7163 86.9987 72.8955 86.9758 73.058 86.9304C73.2274 86.8781 73.3641 86.8034 73.4681 86.7058C73.5789 86.6081 73.6341 86.4846 73.6341 86.3348C73.6341 86.1395 73.5657 85.9896 73.429 85.8856C73.2923 85.7817 73.1132 85.7001 72.892 85.6416C72.6709 85.5766 72.4395 85.5083 72.1988 85.4365C71.984 85.3779 71.7692 85.3159 71.5544 85.251C71.346 85.1792 71.1575 85.0884 70.9881 84.9776C70.8187 84.8668 70.682 84.7272 70.5781 84.5578C70.4741 84.3884 70.4218 84.177 70.4218 83.9232C70.4218 83.6825 70.4741 83.4706 70.5781 83.2885C70.682 83.1064 70.8256 82.9531 71.0077 82.8296C71.1966 82.7061 71.4177 82.6114 71.6716 82.5465C71.9318 82.4816 72.2149 82.4488 72.521 82.4488C72.8398 82.4488 73.1229 82.4845 73.3705 82.5562C73.618 82.6212 73.8259 82.7159 73.9953 82.8394C74.1711 82.9629 74.3043 83.1128 74.3956 83.2885C74.4869 83.4579 74.5323 83.64 74.5323 83.8353C74.5323 83.8743 74.5289 83.9168 74.5226 83.9622C74.5226 84.0013 74.5226 84.0271 74.5226 84.0403H73.5267V83.9524C73.5267 83.8221 73.491 83.7049 73.4193 83.601C73.3475 83.497 73.2338 83.412 73.0776 83.3471C72.9277 83.2822 72.7261 83.2495 72.4722 83.2495C72.3028 83.2495 72.1534 83.2656 72.0231 83.2983C71.8927 83.3242 71.7853 83.3632 71.7009 83.4154C71.6164 83.4677 71.551 83.5292 71.5056 83.601C71.4666 83.6727 71.447 83.7538 71.447 83.845C71.447 83.9949 71.4993 84.1121 71.6032 84.1965C71.7141 84.2746 71.8571 84.343 72.0328 84.4016C72.2086 84.4538 72.3975 84.5124 72.5991 84.5773C72.8335 84.6422 73.0712 84.7106 73.3119 84.7823C73.5525 84.8473 73.7742 84.9322 73.9758 85.0362C74.1843 85.1402 74.3502 85.2837 74.4737 85.4658C74.6041 85.6479 74.669 85.892 74.669 86.1981C74.669 86.4778 74.6139 86.7219 74.503 86.9304C74.3922 87.1388 74.236 87.3077 74.0344 87.4381C73.8391 87.5616 73.6082 87.6529 73.3412 87.7114C73.0741 87.7764 72.7846 87.8091 72.4722 87.8091ZM76.9771 87.8091C76.6842 87.8091 76.4533 87.7539 76.2839 87.6431C76.1214 87.5259 76.0042 87.3795 75.9324 87.2037C75.8675 87.0216 75.8348 86.8293 75.8348 86.6277V83.3959H75.1904V82.5562H75.8543L76.0398 81.121H76.8502V82.5562H77.7778V83.3959H76.8502V86.5105C76.8502 86.6604 76.8829 86.7741 76.9478 86.8522C77.0133 86.9303 77.1207 86.9694 77.27 86.9694H77.7778V87.6529C77.7128 87.6787 77.6313 87.7017 77.5337 87.7212C77.4429 87.7471 77.3482 87.7666 77.2505 87.7798C77.1529 87.7993 77.0621 87.8091 76.9771 87.8091ZM78.6731 87.6919V82.5562H79.5127L79.6006 83.3862H79.6592C79.7178 83.2236 79.7925 83.0703 79.8838 82.9273C79.9814 82.7842 80.1049 82.6671 80.2548 82.5758C80.411 82.4845 80.5999 82.4391 80.8211 82.4391C80.9251 82.4391 81.0163 82.4489 81.0945 82.4684C81.1789 82.4879 81.2443 82.504 81.2897 82.5172V83.474H80.948C80.7395 83.474 80.554 83.5067 80.3915 83.5717C80.2353 83.6366 80.102 83.7342 79.9912 83.8646C79.8872 83.9881 79.8091 84.1414 79.7568 84.3235C79.7114 84.5056 79.6885 84.7106 79.6885 84.9386V87.6919H78.6731ZM84.0816 87.8091C83.5544 87.8091 83.1116 87.7149 82.7538 87.5259C82.4023 87.3307 82.1353 87.0343 81.9532 86.6374C81.7706 86.2405 81.6798 85.7358 81.6798 85.1241C81.6798 84.5056 81.7706 84.0013 81.9532 83.6107C82.1353 83.2138 82.4052 82.9209 82.7635 82.732C83.1214 82.5367 83.5671 82.4391 84.1012 82.4391C84.5893 82.4391 84.996 82.5333 85.3216 82.7222C85.6536 82.9043 85.904 83.1845 86.0734 83.5619C86.2423 83.9393 86.3273 84.4148 86.3273 84.9874V85.3779H82.7245C82.7372 85.7426 82.7928 86.0482 82.8905 86.2957C82.9881 86.5364 83.1346 86.7156 83.3298 86.8327C83.5315 86.9435 83.7853 86.9987 84.0914 86.9987C84.2798 86.9987 84.4492 86.9758 84.5991 86.9304C84.7485 86.8781 84.8754 86.8068 84.9799 86.7155C85.0839 86.6179 85.1654 86.5042 85.224 86.3738C85.2826 86.2371 85.3118 86.0843 85.3118 85.9149H86.3077C86.3077 86.221 86.2555 86.491 86.1515 86.7253C86.047 86.9596 85.8942 87.1583 85.6926 87.3209C85.4974 87.4771 85.263 87.5977 84.9896 87.6821C84.7163 87.7666 84.4136 87.8091 84.0816 87.8091ZM82.744 84.6359H85.263C85.263 84.382 85.2337 84.1707 85.1752 84.0013C85.1229 83.8255 85.0448 83.6825 84.9408 83.5717C84.8364 83.4608 84.7129 83.3827 84.5698 83.3373C84.4263 83.2851 84.2637 83.2592 84.0816 83.2592C83.8083 83.2592 83.5739 83.308 83.3787 83.4057C83.1897 83.5033 83.0433 83.6561 82.9393 83.8646C82.8348 84.0662 82.7699 84.3235 82.744 84.6359ZM88.6383 87.8091C88.3454 87.8091 88.1145 87.7539 87.9451 87.6431C87.7825 87.5259 87.6654 87.3795 87.5936 87.2037C87.5287 87.0216 87.496 86.8293 87.496 86.6277V83.3959H86.8516V82.5562H87.5155L87.701 81.121H88.5114V82.5562H89.4389V83.3959H88.5114V86.5105C88.5114 86.6604 88.5441 86.7741 88.609 86.8522C88.6739 86.9303 88.7813 86.9694 88.9312 86.9694H89.4389V87.6529C89.374 87.6787 89.2925 87.7017 89.1948 87.7212C89.1036 87.7471 89.0093 87.7666 88.9117 87.7798C88.8141 87.7993 88.7228 87.8091 88.6383 87.8091ZM92.3748 87.8091C91.8603 87.8091 91.4307 87.7149 91.0861 87.5259C90.7409 87.3307 90.4807 87.0343 90.305 86.6374C90.1356 86.2405 90.0511 85.7358 90.0511 85.1241C90.0511 84.5124 90.139 84.011 90.3147 83.6205C90.4905 83.2236 90.7507 82.9273 91.0958 82.732C91.4473 82.5367 91.8769 82.4391 92.3846 82.4391C92.7361 82.4391 93.0417 82.4845 93.3024 82.5758C93.5626 82.6602 93.7837 82.7906 93.9663 82.9663C94.1484 83.1357 94.2817 83.3471 94.3666 83.601C94.4574 83.8548 94.5033 84.1443 94.5033 84.4699H93.4781C93.4781 84.1965 93.4391 83.972 93.361 83.7962C93.2829 83.6205 93.1623 83.4901 92.9997 83.4057C92.8367 83.3144 92.6253 83.269 92.3651 83.269C92.0917 83.269 91.8603 83.3339 91.6719 83.4643C91.4829 83.5878 91.3399 83.7801 91.2423 84.0403C91.1446 84.2942 91.0958 84.6296 91.0958 85.046V85.212C91.0958 85.6088 91.1412 85.9408 91.2325 86.2078C91.3301 86.468 91.4732 86.6633 91.6621 86.7937C91.8574 86.9172 92.1044 86.9792 92.4041 86.9792C92.6643 86.9792 92.8728 86.9338 93.029 86.8425C93.1916 86.7448 93.3122 86.6081 93.3903 86.4324C93.4747 86.2503 93.5172 86.0321 93.5172 85.7782H94.5033C94.5033 86.0843 94.4574 86.3606 94.3666 86.6081C94.2817 86.8557 94.1484 87.0705 93.9663 87.2526C93.7906 87.4283 93.5689 87.565 93.3024 87.6626C93.0354 87.7603 92.7263 87.8091 92.3748 87.8091ZM95.5305 87.6919V80.6328H96.5459V83.1714H96.6142C96.7382 83.0151 96.8778 82.8848 97.0341 82.7808C97.1903 82.67 97.366 82.5855 97.5613 82.527C97.7566 82.4684 97.9714 82.4391 98.2057 82.4391C98.5313 82.4391 98.8179 82.4977 99.0649 82.6148C99.3124 82.7257 99.5042 82.9077 99.6409 83.1616C99.7845 83.4154 99.8557 83.7572 99.8557 84.1868V87.6919H98.8403V84.343C98.8403 84.1477 98.8144 83.9852 98.7622 83.8548C98.7168 83.7245 98.6485 83.6205 98.5572 83.5424C98.4664 83.4643 98.359 83.4091 98.235 83.3764C98.1115 83.3437 97.9748 83.3276 97.8249 83.3276C97.5906 83.3276 97.3758 83.3827 97.1805 83.4936C96.9921 83.6044 96.8388 83.7606 96.7216 83.9622C96.6045 84.1638 96.5459 84.405 96.5459 84.6847V87.6919H95.5305Z" fill="#454545"/>
<g filter="url(#filter0_d_4782_5938)">
<mask id="mask0_4782_5938" style="mask-type:luminance" maskUnits="userSpaceOnUse" x="8" y="106" width="184" height="392">
<path d="M184.158 106.729H15.7358C11.6916 106.729 8.41309 110.007 8.41309 114.051V489.951C8.41309 493.995 11.6916 497.273 15.7358 497.273H184.158C188.202 497.273 191.481 493.995 191.481 489.951V114.051C191.481 110.007 188.202 106.729 184.158 106.729Z" fill="white"/>
</mask>
<g mask="url(#mask0_4782_5938)">
<path d="M184.158 106.729H15.7358C11.6916 106.729 8.41309 110.007 8.41309 114.051V489.951C8.41309 493.995 11.6916 497.273 15.7358 497.273H184.158C188.202 497.273 191.481 493.995 191.481 489.951V114.051C191.481 110.007 188.202 106.729 184.158 106.729Z" fill="white"/>
<path d="M52.2275 106.729H16.2241V503.131H52.2275V106.729Z" fill="#00858C" fill-opacity="0.5"/>
<path d="M96.0414 106.729H60.0381V503.131H96.0414V106.729Z" fill="#00858C" fill-opacity="0.5"/>
<path d="M139.856 106.729H103.853V503.131H139.856V106.729Z" fill="#00858C" fill-opacity="0.5"/>
<path d="M183.67 106.729H147.667V503.131H183.67V106.729Z" fill="#00858C" fill-opacity="0.5"/>
</g>
</g>
</g>
</g>
<defs>
<filter id="filter0_d_4782_5938" x="0.602192" y="102.823" width="198.69" height="406.167" filterUnits="userSpaceOnUse" color-interpolation-filters="sRGB">
<feFlood flood-opacity="0" result="BackgroundImageFix"/>
<feColorMatrix in="SourceAlpha" type="matrix" values="0 0 0 0 0 0 0 0 0 0 0 0 0 0 0 0 0 0 127 0" result="hardAlpha"/>
<feOffset dy="3.90545"/>
<feGaussianBlur stdDeviation="3.90545"/>
<feComposite in2="hardAlpha" operator="out"/>
<feColorMatrix type="matrix" values="0 0 0 0 0 0 0 0 0 0 0 0 0 0 0 0 0 0 0.08 0"/>
<feBlend mode="normal" in2="BackgroundImageFix" result="effect1_dropShadow_4782_5938"/>
<feBlend mode="normal" in="SourceGraphic" in2="effect1_dropShadow_4782_5938" result="shape"/>
</filter>
<clipPath id="clip0_4782_5938">
<rect width="198.69" height="508.196" fill="white" transform="translate(0.602051 0.794922)"/>
</clipPath>
<clipPath id="clip1_4782_5938">
<rect width="198.69" height="508.196" fill="white" transform="translate(0.602051 0.794922)"/>
</clipPath>
</defs>
</svg>
