<svg width="32" height="32" viewBox="0 0 32 32" fill="none" xmlns="http://www.w3.org/2000/svg">
<g filter="url(#filter0_d_9970_9930)">
<path d="M13.5067 23.5979L20.5959 16.5087C20.725 16.3739 20.8262 16.2149 20.8936 16.0409C21.0355 15.6957 21.0355 15.3085 20.8936 14.9633C20.8262 14.7893 20.725 14.6303 20.5959 14.4954L13.5067 7.40623C13.3745 7.27403 13.2176 7.16917 13.0449 7.09763C12.8721 7.02608 12.687 6.98926 12.5001 6.98926C12.1225 6.98926 11.7604 7.13925 11.4934 7.40623C11.2264 7.67322 11.0764 8.03532 11.0764 8.4129C11.0764 8.79047 11.2264 9.15258 11.4934 9.41956L16.1603 14.0724C16.164 14.076 16.1658 14.0778 16.1691 14.0812C16.1711 14.0832 16.1758 14.0881 16.1778 14.0901C16.181 14.0935 16.1818 14.0944 16.1834 14.0961C16.2816 14.2014 16.993 14.9825 16.993 15.5021C16.993 16.0217 16.2816 16.8028 16.1834 16.908C16.1818 16.9098 16.181 16.9106 16.1778 16.914C16.1758 16.9161 16.1711 16.921 16.1691 16.923C16.1658 16.9263 16.164 16.9281 16.1603 16.9318L11.4934 21.5846C11.3605 21.7164 11.255 21.8732 11.183 22.046C11.1111 22.2188 11.074 22.4041 11.074 22.5913C11.074 22.7784 11.1111 22.9637 11.183 23.1365C11.255 23.3093 11.3605 23.4661 11.4934 23.5979C11.6252 23.7308 11.782 23.8363 11.9548 23.9083C12.1276 23.9803 12.3129 24.0173 12.5001 24.0173C12.6872 24.0173 12.8725 23.9803 13.0453 23.9083C13.2181 23.8363 13.3749 23.7308 13.5067 23.5979Z" fill="white"/>
</g>
<defs>
<filter id="filter0_d_9970_9930" x="7.97422" y="3.88926" width="16.1258" height="23.2283" filterUnits="userSpaceOnUse" color-interpolation-filters="sRGB">
<feFlood flood-opacity="0" result="BackgroundImageFix"/>
<feColorMatrix in="SourceAlpha" type="matrix" values="0 0 0 0 0 0 0 0 0 0 0 0 0 0 0 0 0 0 127 0" result="hardAlpha"/>
<feOffset/>
<feGaussianBlur stdDeviation="1.55"/>
<feComposite in2="hardAlpha" operator="out"/>
<feColorMatrix type="matrix" values="0 0 0 0 0 0 0 0 0 0 0 0 0 0 0 0 0 0 0.8 0"/>
<feBlend mode="normal" in2="BackgroundImageFix" result="effect1_dropShadow_9970_9930"/>
<feBlend mode="normal" in="SourceGraphic" in2="effect1_dropShadow_9970_9930" result="shape"/>
</filter>
</defs>
</svg>
