<svg width="32" height="32" viewBox="0 0 32 32" fill="none" xmlns="http://www.w3.org/2000/svg">
<g filter="url(#filter0_d_9970_9931)">
<path d="M18.5675 23.5979L11.4783 16.5087C11.3492 16.3739 11.2481 16.2149 11.1806 16.0409C11.0388 15.6957 11.0388 15.3085 11.1806 14.9633C11.2481 14.7893 11.3492 14.6303 11.4783 14.4954L18.5675 7.40623C18.6997 7.27403 18.8566 7.16917 19.0294 7.09763C19.2021 7.02608 19.3872 6.98926 19.5742 6.98926C19.9517 6.98926 20.3138 7.13925 20.5808 7.40623C20.8478 7.67322 20.9978 8.03532 20.9978 8.4129C20.9978 8.79047 20.8478 9.15258 20.5808 9.41956L15.9139 14.0724C15.9102 14.076 15.9084 14.0778 15.9051 14.0812C15.9032 14.0832 15.8984 14.0881 15.8965 14.0901C15.8932 14.0935 15.8924 14.0944 15.8908 14.0961C15.7927 14.2014 15.0812 14.9825 15.0812 15.5021C15.0812 16.0217 15.7927 16.8028 15.8908 16.908C15.8924 16.9098 15.8932 16.9106 15.8965 16.914C15.8984 16.9161 15.9032 16.921 15.9051 16.923C15.9084 16.9263 15.9102 16.9281 15.9139 16.9318L20.5808 21.5846C20.7137 21.7164 20.8192 21.8732 20.8912 22.046C20.9632 22.2188 21.0002 22.4041 21.0002 22.5913C21.0002 22.7784 20.9632 22.9637 20.8912 23.1365C20.8192 23.3093 20.7137 23.4661 20.5808 23.5979C20.449 23.7308 20.2922 23.8363 20.1194 23.9083C19.9467 23.9803 19.7613 24.0173 19.5742 24.0173C19.387 24.0173 19.2017 23.9803 19.0289 23.9083C18.8561 23.8363 18.6993 23.7308 18.5675 23.5979Z" fill="white"/>
</g>
<defs>
<filter id="filter0_d_9970_9931" x="7.97422" y="3.88926" width="16.1258" height="23.2283" filterUnits="userSpaceOnUse" color-interpolation-filters="sRGB">
<feFlood flood-opacity="0" result="BackgroundImageFix"/>
<feColorMatrix in="SourceAlpha" type="matrix" values="0 0 0 0 0 0 0 0 0 0 0 0 0 0 0 0 0 0 127 0" result="hardAlpha"/>
<feOffset/>
<feGaussianBlur stdDeviation="1.55"/>
<feComposite in2="hardAlpha" operator="out"/>
<feColorMatrix type="matrix" values="0 0 0 0 0 0 0 0 0 0 0 0 0 0 0 0 0 0 0.8 0"/>
<feBlend mode="normal" in2="BackgroundImageFix" result="effect1_dropShadow_9970_9931"/>
<feBlend mode="normal" in="SourceGraphic" in2="effect1_dropShadow_9970_9931" result="shape"/>
</filter>
</defs>
</svg>
