<svg width="440" height="311" viewBox="0 0 440 311" fill="none" xmlns="http://www.w3.org/2000/svg">
<path d="M163.218 39.0456V38.6963C162.615 38.5182 162.122 38.1793 161.738 37.6796C161.355 37.1799 161.163 36.601 161.163 35.943C161.163 35.1485 161.444 34.4705 162.005 33.9088C162.567 33.3472 163.245 33.0664 164.04 33.0664C164.834 33.0664 165.512 33.3472 166.074 33.9088C166.635 34.4705 166.916 35.1485 166.916 35.943C166.916 36.6005 166.724 37.1794 166.341 37.6796C165.957 38.1799 165.464 38.5188 164.861 38.6963V39.0456L170.615 42.3537C170.875 42.5043 171.077 42.7065 171.221 42.9602C171.365 43.2139 171.437 43.4911 171.436 43.7919V45.3535C171.436 45.6549 171.365 45.9324 171.221 46.1861C171.078 46.4398 170.875 46.6417 170.615 46.7918L164.861 50.0999C164.601 50.2506 164.327 50.3259 164.04 50.3259C163.752 50.3259 163.478 50.2506 163.218 50.0999L157.464 46.7918C157.204 46.6411 157.002 46.4392 156.859 46.1861C156.715 45.9329 156.643 45.6554 156.643 45.3535V43.7919C156.643 43.4906 156.715 43.2133 156.859 42.9602C157.003 42.7071 157.205 42.5049 157.464 42.3537L163.218 39.0456ZM159.766 42.929L164.04 45.3946L168.313 42.929L164.861 40.9359V43.7509H163.218V40.9359L159.766 42.929Z" fill="#424242"/>
<path d="M188.284 50.3779C185.85 50.3779 183.971 49.7317 182.649 48.4392C181.341 47.1317 180.687 45.1104 180.687 42.3752C180.687 40.5567 181.003 39.0613 181.634 37.8891C182.265 36.7018 183.182 35.8227 184.384 35.2516C185.587 34.6655 187.029 34.3724 188.713 34.3724C189.72 34.3724 190.666 34.4851 191.553 34.7105C192.44 34.936 193.221 35.2816 193.897 35.7475C194.589 36.2134 195.122 36.7995 195.498 37.5059C195.889 38.1972 196.084 39.0238 196.084 39.9856H192.68C192.68 39.5197 192.575 39.1064 192.365 38.7457C192.169 38.3851 191.891 38.0845 191.53 37.844C191.17 37.6036 190.757 37.4232 190.291 37.303C189.825 37.1828 189.336 37.1226 188.825 37.1226C188.044 37.1226 187.36 37.2278 186.774 37.4383C186.188 37.6336 185.699 37.9417 185.309 38.3625C184.933 38.7683 184.647 39.2793 184.452 39.8954C184.257 40.5116 184.159 41.2255 184.159 42.037V42.7133C184.159 43.8405 184.324 44.7647 184.655 45.4861C184.985 46.2075 185.481 46.7485 186.143 47.1092C186.804 47.4549 187.623 47.6277 188.6 47.6277C189.411 47.6277 190.125 47.5075 190.741 47.267C191.373 47.0115 191.861 46.6508 192.207 46.1849C192.567 45.719 192.748 45.148 192.748 44.4717V44.3139H188.126V41.744H196.084V50.1074H193.875L193.582 48.4392C193.131 48.8751 192.643 49.2358 192.117 49.5213C191.606 49.8068 191.035 50.0172 190.403 50.1525C189.772 50.3028 189.066 50.3779 188.284 50.3779ZM202.188 50.3779C201.797 50.3779 201.376 50.3329 200.925 50.2427C200.49 50.1525 200.076 49.9947 199.686 49.7693C199.295 49.5288 198.972 49.1907 198.716 48.7548C198.476 48.304 198.356 47.7329 198.356 47.0416C198.356 46.215 198.536 45.5312 198.897 44.9902C199.257 44.4491 199.768 44.0283 200.43 43.7277C201.106 43.4121 201.91 43.1942 202.842 43.074C203.773 42.9538 204.803 42.8937 205.93 42.8937V42.0145C205.93 41.6688 205.87 41.3682 205.75 41.1128C205.644 40.8573 205.449 40.6544 205.164 40.5041C204.893 40.3538 204.51 40.2787 204.014 40.2787C203.518 40.2787 203.112 40.3388 202.797 40.459C202.496 40.5792 202.278 40.737 202.143 40.9324C202.023 41.1128 201.962 41.3156 201.962 41.5411V41.8116H198.919C198.904 41.7365 198.897 41.6688 198.897 41.6087C198.897 41.5336 198.897 41.4434 198.897 41.3382C198.897 40.6469 199.107 40.0532 199.528 39.5573C199.949 39.0463 200.542 38.6556 201.309 38.3851C202.075 38.1145 202.969 37.9793 203.991 37.9793C205.088 37.9793 206.005 38.1221 206.742 38.4076C207.493 38.6931 208.064 39.1139 208.455 39.67C208.861 40.2261 209.063 40.9249 209.063 41.7665V47.1543C209.063 47.4248 209.139 47.6277 209.289 47.7629C209.454 47.8832 209.635 47.9433 209.83 47.9433H210.574V49.9947C210.424 50.0699 210.191 50.145 209.875 50.2201C209.559 50.3103 209.176 50.3554 208.725 50.3554C208.29 50.3554 207.899 50.2878 207.553 50.1525C207.222 50.0323 206.944 49.8594 206.719 49.634C206.494 49.3936 206.336 49.108 206.246 48.7774H206.088C205.832 49.093 205.517 49.371 205.141 49.6115C204.78 49.8519 204.352 50.0398 203.856 50.1751C203.375 50.3103 202.819 50.3779 202.188 50.3779ZM203.247 48.0109C203.668 48.0109 204.044 47.9508 204.375 47.8306C204.705 47.6953 204.983 47.5225 205.209 47.3121C205.434 47.0867 205.607 46.8161 205.727 46.5005C205.862 46.1849 205.93 45.8468 205.93 45.4861V44.8324C205.088 44.8324 204.337 44.8925 203.676 45.0127C203.014 45.1179 202.488 45.3058 202.098 45.5763C201.722 45.8468 201.534 46.2225 201.534 46.7034C201.534 46.9739 201.602 47.2069 201.737 47.4023C201.872 47.5976 202.068 47.7479 202.323 47.8531C202.579 47.9583 202.887 48.0109 203.247 48.0109ZM212.131 50.1074V38.2498H214.724L214.972 39.8729H215.129C215.385 39.4821 215.685 39.144 216.031 38.8585C216.392 38.5729 216.79 38.355 217.226 38.2047C217.677 38.0544 218.158 37.9793 218.669 37.9793C219.42 37.9793 220.066 38.1296 220.607 38.4301C221.163 38.7307 221.592 39.2116 221.892 39.8729H222.05C222.306 39.4821 222.614 39.144 222.974 38.8585C223.335 38.5729 223.748 38.355 224.214 38.2047C224.68 38.0544 225.176 37.9793 225.702 37.9793C226.453 37.9793 227.1 38.1145 227.641 38.3851C228.197 38.6556 228.633 39.0989 228.948 39.7151C229.264 40.3162 229.422 41.0977 229.422 42.0596V50.1074H226.288V42.6231C226.288 42.2474 226.243 41.9318 226.153 41.6763C226.078 41.4058 225.965 41.1954 225.815 41.0451C225.664 40.8798 225.477 40.7596 225.251 40.6844C225.026 40.6093 224.785 40.5717 224.53 40.5717C224.109 40.5717 223.733 40.6844 223.403 40.9099C223.072 41.1353 222.809 41.4434 222.614 41.8341C222.433 42.2249 222.343 42.6757 222.343 43.1867V50.1074H219.21V42.6231C219.21 42.2474 219.165 41.9318 219.074 41.6763C218.999 41.4058 218.886 41.1954 218.736 41.0451C218.586 40.8798 218.398 40.7596 218.173 40.6844C217.962 40.6093 217.722 40.5717 217.451 40.5717C217.045 40.5717 216.67 40.6844 216.324 40.9099C215.993 41.1353 215.73 41.4434 215.535 41.8341C215.355 42.2249 215.265 42.6757 215.265 43.1867V50.1074H212.131ZM237.596 50.3779C236.289 50.3779 235.192 50.16 234.305 49.7242C233.418 49.2733 232.749 48.5895 232.299 47.6728C231.848 46.756 231.622 45.5913 231.622 44.1786C231.622 42.7509 231.848 41.5862 232.299 40.6844C232.749 39.7677 233.411 39.0914 234.282 38.6556C235.169 38.2047 236.251 37.9793 237.529 37.9793C238.731 37.9793 239.745 38.1972 240.572 38.633C241.398 39.0538 242.022 39.7151 242.443 40.6168C242.864 41.5035 243.074 42.6532 243.074 44.0659V44.8774H234.801C234.831 45.5688 234.936 46.1549 235.117 46.6358C235.312 47.1167 235.605 47.4774 235.996 47.7179C236.401 47.9433 236.935 48.056 237.596 48.056C237.957 48.056 238.28 48.0109 238.566 47.9207C238.866 47.8306 239.122 47.6953 239.332 47.515C239.542 47.3346 239.708 47.1092 239.828 46.8387C239.948 46.5682 240.008 46.2601 240.008 45.9144H243.074C243.074 46.6659 242.939 47.3196 242.668 47.8757C242.398 48.4317 242.022 48.8976 241.541 49.2733C241.06 49.634 240.482 49.912 239.805 50.1074C239.144 50.2878 238.408 50.3779 237.596 50.3779ZM234.846 42.8937H239.851C239.851 42.4428 239.79 42.0521 239.67 41.7214C239.565 41.3908 239.415 41.1203 239.219 40.9099C239.024 40.6995 238.784 40.5492 238.498 40.459C238.227 40.3538 237.919 40.3012 237.574 40.3012C237.003 40.3012 236.522 40.3989 236.131 40.5943C235.755 40.7746 235.462 41.0602 235.252 41.4509C235.056 41.8266 234.921 42.3075 234.846 42.8937ZM245.644 50.1074V34.6429H254.12C255.262 34.6429 256.209 34.8458 256.96 35.2516C257.727 35.6574 258.298 36.2284 258.674 36.9648C259.049 37.6862 259.237 38.5203 259.237 39.4671C259.237 40.474 259.012 41.3682 258.561 42.1497C258.11 42.9162 257.456 43.5023 256.6 43.9081L259.756 50.1074H256.036L253.308 44.4717H249.003V50.1074H245.644ZM249.003 41.8116H253.669C254.345 41.8116 254.871 41.6087 255.247 41.2029C255.623 40.7821 255.811 40.2186 255.811 39.5122C255.811 39.0613 255.728 38.6781 255.563 38.3625C255.397 38.0319 255.157 37.7839 254.841 37.6186C254.526 37.4533 254.135 37.3706 253.669 37.3706H249.003V41.8116ZM266.964 50.3779C265.656 50.3779 264.559 50.16 263.673 49.7242C262.786 49.2733 262.117 48.5895 261.666 47.6728C261.215 46.756 260.99 45.5913 260.99 44.1786C260.99 42.7509 261.215 41.5862 261.666 40.6844C262.117 39.7677 262.778 39.0914 263.65 38.6556C264.537 38.2047 265.619 37.9793 266.896 37.9793C268.098 37.9793 269.113 38.1972 269.939 38.633C270.766 39.0538 271.39 39.7151 271.811 40.6168C272.231 41.5035 272.442 42.6532 272.442 44.0659V44.8774H264.168C264.199 45.5688 264.304 46.1549 264.484 46.6358C264.679 47.1167 264.972 47.4774 265.363 47.7179C265.769 47.9433 266.303 48.056 266.964 48.056C267.324 48.056 267.648 48.0109 267.933 47.9207C268.234 47.8306 268.489 47.6953 268.7 47.515C268.91 47.3346 269.075 47.1092 269.196 46.8387C269.316 46.5682 269.376 46.2601 269.376 45.9144H272.442C272.442 46.6659 272.306 47.3196 272.036 47.8757C271.765 48.4317 271.39 48.8976 270.909 49.2733C270.428 49.634 269.849 49.912 269.173 50.1074C268.512 50.2878 267.775 50.3779 266.964 50.3779ZM264.214 42.8937H269.218C269.218 42.4428 269.158 42.0521 269.038 41.7214C268.933 41.3908 268.782 41.1203 268.587 40.9099C268.392 40.6995 268.151 40.5492 267.866 40.459C267.595 40.3538 267.287 40.3012 266.941 40.3012C266.37 40.3012 265.889 40.3989 265.498 40.5943C265.123 40.7746 264.83 41.0602 264.619 41.4509C264.424 41.8266 264.289 42.3075 264.214 42.8937ZM279.948 50.3779C278.686 50.3779 277.626 50.16 276.77 49.7242C275.913 49.2733 275.259 48.5895 274.808 47.6728C274.373 46.741 274.155 45.5763 274.155 44.1786C274.155 42.7509 274.373 41.5862 274.808 40.6844C275.259 39.7677 275.913 39.0839 276.77 38.633C277.641 38.1822 278.701 37.9567 279.948 37.9567C280.76 37.9567 281.489 38.0544 282.135 38.2498C282.796 38.4452 283.367 38.7457 283.848 39.1515C284.329 39.5573 284.69 40.0608 284.93 40.6619C285.186 41.248 285.313 41.9469 285.313 42.7584H282.18C282.18 42.2174 282.097 41.774 281.932 41.4284C281.767 41.0827 281.511 40.8197 281.166 40.6394C280.835 40.459 280.414 40.3688 279.903 40.3688C279.302 40.3688 278.814 40.5041 278.438 40.7746C278.062 41.0451 277.784 41.4434 277.604 41.9694C277.423 42.4954 277.333 43.1491 277.333 43.9306V44.4491C277.333 45.2156 277.423 45.8618 277.604 46.3878C277.799 46.9138 278.092 47.3121 278.483 47.5826C278.874 47.8381 279.385 47.9658 280.016 47.9658C280.527 47.9658 280.948 47.8757 281.278 47.6953C281.624 47.515 281.887 47.2445 282.067 46.8838C282.248 46.5231 282.338 46.0873 282.338 45.5763H285.313C285.313 46.3427 285.186 47.0265 284.93 47.6277C284.69 48.2288 284.329 48.7323 283.848 49.1381C283.382 49.5438 282.819 49.8519 282.157 50.0623C281.496 50.2727 280.76 50.3779 279.948 50.3779Z" fill="#424242"/>
<path d="M39.1725 158.805H33.1845C32.1107 158.807 31.0815 159.234 30.3223 159.993C29.563 160.752 29.1357 161.782 29.1338 162.855V167.787C29.1357 168.86 29.563 169.89 30.3223 170.649C31.0815 171.408 32.1107 171.836 33.1845 171.837H39.1725C40.2462 171.836 41.2754 171.408 42.0347 170.649C42.7939 169.89 43.2213 168.86 43.2232 167.787V162.855C43.2213 161.782 42.7939 160.752 42.0347 159.993C41.2754 159.234 40.2462 158.807 39.1725 158.805ZM33.3606 161.165C33.6119 161.164 33.8601 161.22 34.0874 161.327C34.3147 161.434 34.5154 161.59 34.6749 161.784C34.8345 161.978 34.949 162.206 35.0101 162.449C35.0713 162.693 35.0776 162.947 35.0286 163.194C34.9795 163.44 34.8764 163.673 34.7266 163.874C34.5769 164.076 34.3842 164.242 34.1625 164.36C33.9408 164.479 33.6956 164.546 33.4446 164.558C33.1936 164.57 32.9431 164.526 32.7111 164.43C32.3483 164.279 32.0492 164.007 31.8646 163.66C31.68 163.313 31.6215 162.913 31.699 162.528C31.7764 162.143 31.9851 161.796 32.2894 161.548C32.5937 161.299 32.9747 161.164 33.3676 161.165H33.3606ZM42.1665 165.871L40.6307 164.68C40.1884 164.372 39.6516 164.229 39.1145 164.276C38.5774 164.324 38.0742 164.559 37.6931 164.941L36.0517 166.582C35.708 166.915 35.2617 167.121 34.7857 167.167C34.3097 167.213 33.8321 167.096 33.4311 166.836C33.2356 166.706 33.0023 166.647 32.7688 166.667C32.5344 166.691 32.3155 166.796 32.1489 166.962L30.4371 168.963C30.2521 168.54 30.1677 168.079 30.1905 167.618L31.374 166.244C31.7153 165.899 32.1648 165.682 32.6472 165.629C33.1295 165.577 33.6152 165.692 34.0228 165.955C34.2177 166.087 34.4526 166.147 34.6868 166.123C34.921 166.1 35.1397 165.996 35.3049 165.828L36.9464 164.194C37.508 163.634 38.2496 163.291 39.0399 163.225C39.8302 163.159 40.6183 163.375 41.2647 163.835L42.1665 164.539V165.871Z" fill="#424242"/>
<path d="M34.0016 162.86C34.0016 163.03 33.9341 163.193 33.8139 163.313C33.6936 163.433 33.5306 163.501 33.3605 163.501C33.1905 163.501 33.0275 163.433 32.9072 163.313C32.787 163.193 32.7195 163.03 32.7195 162.86C32.7195 162.69 32.787 162.527 32.9072 162.407C33.0275 162.286 33.1905 162.219 33.3605 162.219C33.5306 162.219 33.6936 162.286 33.8139 162.407C33.9341 162.527 34.0016 162.69 34.0016 162.86Z" fill="#424242"/>
<path d="M55.8785 170.507C54.9692 170.507 54.184 170.363 53.5227 170.073C52.8615 169.774 52.3552 169.314 52.0039 168.694C51.6526 168.074 51.4769 167.289 51.4769 166.338V159.689H53.2127V166.385C53.2127 167.263 53.4452 167.924 53.9102 168.369C54.3751 168.813 55.0312 169.035 55.8785 169.035C56.736 169.035 57.4025 168.813 57.8777 168.369C58.3634 167.924 58.6062 167.263 58.6062 166.385V159.689H60.342V166.338C60.342 167.289 60.1612 168.074 59.7995 168.694C59.4482 169.314 58.9368 169.774 58.2652 170.073C57.6039 170.363 56.8084 170.507 55.8785 170.507ZM62.7991 170.321V159.689H64.5349V170.321H62.7991Z" fill="#424242"/>
<g clip-path="url(#clip0_10087_11631)">
<mask id="mask0_10087_11631" style="mask-type:luminance" maskUnits="userSpaceOnUse" x="201" y="158" width="17" height="15">
<path d="M212.649 170.251H208.774V167.433H213.706V164.615H216.524V170.251H214.762L213.706 171.308L212.649 170.251Z" stroke="white" stroke-width="1.40894" stroke-linecap="round" stroke-linejoin="round"/>
<path d="M202.434 158.98H213.706V167.434H207.013L205.604 168.843L204.195 167.434H202.434V158.98Z" fill="white" stroke="white" stroke-width="1.40894" stroke-linecap="round" stroke-linejoin="round"/>
<path d="M207.718 163.207H208.07M210.183 163.207H210.536M205.252 163.207H205.604" stroke="black" stroke-width="1.40894" stroke-linecap="round"/>
</mask>
<g mask="url(#mask0_10087_11631)">
<path d="M201.025 156.867H217.933V173.774H201.025V156.867Z" fill="#424242"/>
</g>
</g>
<path d="M229.178 170.507C228.269 170.507 227.484 170.363 226.823 170.073C226.161 169.774 225.655 169.314 225.304 168.694C224.952 168.074 224.777 167.289 224.777 166.338V159.689H226.513V166.385C226.513 167.263 226.745 167.924 227.21 168.369C227.675 168.813 228.331 169.035 229.178 169.035C230.036 169.035 230.702 168.813 231.178 168.369C231.663 167.924 231.906 167.263 231.906 166.385V159.689H233.642V166.338C233.642 167.289 233.461 168.074 233.099 168.694C232.748 169.314 232.237 169.774 231.565 170.073C230.904 170.363 230.108 170.507 229.178 170.507ZM236.099 170.321V159.689H237.835V170.321H236.099Z" fill="#424242"/>
<path d="M386.653 165.32C386.373 165.32 386.104 165.208 385.906 165.01C385.707 164.812 385.596 164.543 385.596 164.263C385.596 163.983 385.707 163.714 385.906 163.516C386.104 163.318 386.373 163.206 386.653 163.206C386.933 163.206 387.202 163.318 387.4 163.516C387.598 163.714 387.709 163.983 387.709 164.263C387.709 164.543 387.598 164.812 387.4 165.01C387.202 165.208 386.933 165.32 386.653 165.32ZM384.539 162.502C384.259 162.502 383.99 162.391 383.792 162.192C383.594 161.994 383.483 161.725 383.483 161.445C383.483 161.165 383.594 160.896 383.792 160.698C383.99 160.5 384.259 160.388 384.539 160.388C384.82 160.388 385.088 160.5 385.287 160.698C385.485 160.896 385.596 161.165 385.596 161.445C385.596 161.725 385.485 161.994 385.287 162.192C385.088 162.391 384.82 162.502 384.539 162.502ZM381.017 162.502C380.737 162.502 380.468 162.391 380.27 162.192C380.072 161.994 379.96 161.725 379.96 161.445C379.96 161.165 380.072 160.896 380.27 160.698C380.468 160.5 380.737 160.388 381.017 160.388C381.297 160.388 381.566 160.5 381.764 160.698C381.962 160.896 382.074 161.165 382.074 161.445C382.074 161.725 381.962 161.994 381.764 162.192C381.566 162.391 381.297 162.502 381.017 162.502ZM378.904 165.32C378.623 165.32 378.355 165.208 378.156 165.01C377.958 164.812 377.847 164.543 377.847 164.263C377.847 163.983 377.958 163.714 378.156 163.516C378.355 163.318 378.623 163.206 378.904 163.206C379.184 163.206 379.453 163.318 379.651 163.516C379.849 163.714 379.96 163.983 379.96 164.263C379.96 164.543 379.849 164.812 379.651 165.01C379.453 165.208 379.184 165.32 378.904 165.32ZM382.778 158.979C381.097 158.979 379.484 159.647 378.295 160.836C377.106 162.026 376.438 163.638 376.438 165.32C376.438 167.001 377.106 168.614 378.295 169.803C379.484 170.992 381.097 171.66 382.778 171.66C383.058 171.66 383.327 171.549 383.525 171.35C383.724 171.152 383.835 170.883 383.835 170.603C383.835 170.328 383.729 170.082 383.56 169.899C383.398 169.709 383.292 169.462 383.292 169.194C383.292 168.914 383.404 168.645 383.602 168.447C383.8 168.249 384.069 168.138 384.349 168.138H385.596C386.53 168.138 387.426 167.766 388.087 167.106C388.747 166.445 389.118 165.549 389.118 164.615C389.118 161.501 386.279 158.979 382.778 158.979Z" fill="#424242"/>
<path d="M402.478 170.507C401.568 170.507 400.783 170.363 400.122 170.073C399.461 169.774 398.954 169.314 398.603 168.694C398.252 168.074 398.076 167.289 398.076 166.338V159.689H399.812V166.385C399.812 167.263 400.044 167.924 400.509 168.369C400.974 168.813 401.63 169.035 402.478 169.035C403.335 169.035 404.002 168.813 404.477 168.369C404.962 167.924 405.205 167.263 405.205 166.385V159.689H406.941V166.338C406.941 167.289 406.76 168.074 406.399 168.694C406.047 169.314 405.536 169.774 404.864 170.073C404.203 170.363 403.407 170.507 402.478 170.507ZM409.398 170.321V159.689H411.134V170.321H409.398Z" fill="#424242"/>
<path d="M207.469 284.817C207.423 284.897 207.356 284.964 207.276 285.01C207.196 285.057 207.104 285.081 207.012 285.081H194.332C194.239 285.081 194.148 285.056 194.068 285.01C193.988 284.964 193.921 284.897 193.875 284.817C193.829 284.736 193.804 284.645 193.804 284.552C193.804 284.46 193.829 284.369 193.875 284.288C194.881 282.55 196.431 281.303 198.24 280.712C197.345 280.179 196.65 279.367 196.261 278.401C195.872 277.436 195.811 276.369 196.087 275.365C196.364 274.361 196.962 273.475 197.79 272.844C198.618 272.213 199.631 271.871 200.672 271.871C201.713 271.871 202.726 272.213 203.554 272.844C204.382 273.475 204.98 274.361 205.256 275.365C205.533 276.369 205.472 277.436 205.083 278.401C204.694 279.367 203.999 280.179 203.104 280.712C204.913 281.303 206.463 282.55 207.469 284.288C207.515 284.369 207.54 284.46 207.54 284.552C207.54 284.645 207.516 284.736 207.469 284.817Z" fill="#424242"/>
<path d="M220.371 283.926C219.462 283.926 218.677 283.782 218.016 283.492C217.354 283.193 216.848 282.733 216.497 282.113C216.146 281.493 215.97 280.708 215.97 279.757V273.108H217.706V279.804C217.706 280.682 217.938 281.343 218.403 281.787C218.868 282.232 219.524 282.454 220.371 282.454C221.229 282.454 221.895 282.232 222.371 281.787C222.856 281.343 223.099 280.682 223.099 279.804V273.108H224.835V279.757C224.835 280.708 224.654 281.493 224.292 282.113C223.941 282.733 223.43 283.193 222.758 283.492C222.097 283.782 221.301 283.926 220.371 283.926ZM230.082 283.926C229.513 283.926 229.012 283.864 228.578 283.74C228.144 283.616 227.783 283.446 227.493 283.229C227.204 283.012 226.982 282.754 226.827 282.454C226.682 282.144 226.61 281.803 226.61 281.431C226.61 281.379 226.61 281.333 226.61 281.291C226.62 281.25 226.626 281.214 226.626 281.183H228.222C228.222 281.214 228.222 281.245 228.222 281.276C228.222 281.297 228.222 281.322 228.222 281.353C228.222 281.674 228.31 281.932 228.485 282.128C228.661 282.314 228.893 282.449 229.183 282.531C229.482 282.604 229.808 282.64 230.159 282.64C230.469 282.64 230.753 282.604 231.012 282.531C231.28 282.449 231.497 282.33 231.663 282.175C231.838 282.02 231.926 281.824 231.926 281.586C231.926 281.276 231.817 281.038 231.601 280.873C231.384 280.708 231.099 280.579 230.748 280.486C230.397 280.382 230.03 280.274 229.648 280.16C229.307 280.067 228.966 279.969 228.625 279.866C228.294 279.752 227.995 279.607 227.726 279.432C227.457 279.256 227.24 279.034 227.075 278.765C226.91 278.497 226.827 278.161 226.827 277.758C226.827 277.376 226.91 277.04 227.075 276.75C227.24 276.461 227.468 276.218 227.757 276.022C228.057 275.826 228.408 275.676 228.811 275.573C229.224 275.469 229.674 275.418 230.159 275.418C230.665 275.418 231.115 275.474 231.508 275.588C231.9 275.691 232.231 275.841 232.499 276.038C232.778 276.234 232.99 276.472 233.135 276.75C233.279 277.019 233.352 277.308 233.352 277.618C233.352 277.68 233.347 277.748 233.336 277.82C233.336 277.882 233.336 277.923 233.336 277.944H231.755V277.804C231.755 277.598 231.699 277.412 231.585 277.246C231.471 277.081 231.291 276.947 231.043 276.843C230.805 276.74 230.485 276.688 230.082 276.688C229.813 276.688 229.575 276.714 229.369 276.766C229.162 276.807 228.992 276.869 228.857 276.952C228.723 277.035 228.62 277.133 228.547 277.246C228.485 277.36 228.454 277.489 228.454 277.634C228.454 277.872 228.537 278.058 228.702 278.192C228.878 278.316 229.105 278.424 229.384 278.517C229.663 278.6 229.963 278.693 230.283 278.796C230.655 278.9 231.032 279.008 231.415 279.122C231.797 279.225 232.148 279.359 232.468 279.525C232.799 279.69 233.063 279.917 233.259 280.207C233.465 280.496 233.569 280.883 233.569 281.369C233.569 281.813 233.481 282.201 233.305 282.531C233.13 282.862 232.882 283.131 232.561 283.337C232.251 283.534 231.885 283.678 231.461 283.771C231.037 283.875 230.578 283.926 230.082 283.926ZM238.581 283.926C237.744 283.926 237.042 283.776 236.473 283.477C235.915 283.167 235.492 282.697 235.203 282.066C234.913 281.436 234.769 280.635 234.769 279.664C234.769 278.683 234.913 277.882 235.203 277.262C235.492 276.632 235.921 276.167 236.489 275.867C237.057 275.557 237.765 275.402 238.612 275.402C239.387 275.402 240.033 275.552 240.549 275.852C241.076 276.141 241.474 276.585 241.743 277.184C242.011 277.784 242.146 278.538 242.146 279.447V280.067H236.427C236.448 280.646 236.535 281.131 236.69 281.524C236.845 281.906 237.078 282.19 237.388 282.376C237.708 282.552 238.111 282.64 238.597 282.64C238.896 282.64 239.165 282.604 239.403 282.531C239.64 282.449 239.842 282.335 240.007 282.19C240.172 282.035 240.301 281.855 240.394 281.648C240.487 281.431 240.534 281.188 240.534 280.92H242.115C242.115 281.405 242.032 281.834 241.867 282.206C241.702 282.578 241.459 282.893 241.138 283.151C240.828 283.399 240.456 283.59 240.023 283.725C239.589 283.859 239.108 283.926 238.581 283.926ZM236.458 278.889H240.456C240.456 278.486 240.41 278.151 240.317 277.882C240.234 277.603 240.11 277.376 239.945 277.2C239.78 277.024 239.583 276.9 239.356 276.828C239.129 276.745 238.87 276.704 238.581 276.704C238.147 276.704 237.775 276.781 237.465 276.936C237.166 277.091 236.933 277.334 236.768 277.665C236.603 277.985 236.499 278.393 236.458 278.889ZM243.784 283.74V275.588H245.117L245.256 276.905H245.349C245.442 276.647 245.561 276.404 245.706 276.177C245.861 275.95 246.057 275.764 246.295 275.619C246.543 275.474 246.842 275.402 247.194 275.402C247.359 275.402 247.504 275.418 247.628 275.449C247.762 275.48 247.865 275.505 247.938 275.526V277.045H247.395C247.065 277.045 246.77 277.097 246.512 277.2C246.264 277.303 246.052 277.458 245.876 277.665C245.711 277.861 245.587 278.104 245.504 278.393C245.432 278.683 245.396 279.008 245.396 279.37V283.74H243.784Z" fill="#424242"/>
<path d="M212.357 68.6738C212.357 73.0921 215.939 76.6738 220.357 76.6738C224.775 76.6738 228.357 73.0921 228.357 68.6738C228.357 64.2556 224.775 60.6738 220.357 60.6738C215.939 60.6738 212.357 64.2556 212.357 68.6738ZM213.697 123.823C212.868 123.823 212.283 124.838 212.697 125.555L219.357 137.091C219.771 137.808 220.943 137.808 221.357 137.091L228.017 125.555C228.432 124.838 227.846 123.823 227.017 123.823H213.697ZM218.857 68.6738V125.323H221.857V68.6738H218.857Z" fill="url(#paint0_linear_10087_11631)"/>
<path d="M212.357 68.6738C212.357 73.0921 215.939 76.6738 220.357 76.6738C224.776 76.6738 228.357 73.0921 228.357 68.6738C228.357 64.2556 224.776 60.6738 220.357 60.6738C215.939 60.6738 212.357 64.2556 212.357 68.6738ZM35.1542 123.823C34.3258 123.823 33.74 124.838 34.1542 125.555L40.8145 137.091C41.2287 137.808 42.4002 137.808 42.8145 137.091L49.4747 125.555C49.8889 124.838 49.3031 123.823 48.4747 123.823H35.1542ZM218.857 68.6738V81.0087H221.857V68.6738H218.857ZM196.357 103.509H65.8144V106.509H196.357V103.509ZM65.8144 103.509C51.7312 103.509 40.3145 114.925 40.3145 129.009H43.3145C43.3145 116.582 53.388 106.509 65.8144 106.509V103.509ZM218.857 81.0087C218.857 93.4351 208.784 103.509 196.357 103.509V106.509C210.441 106.509 221.857 95.0919 221.857 81.0087H218.857Z" fill="url(#paint1_linear_10087_11631)"/>
<path d="M212.357 68.6738C212.357 73.0921 215.939 76.6738 220.357 76.6738C224.775 76.6738 228.357 73.0921 228.357 68.6738C228.357 64.2556 224.775 60.6738 220.357 60.6738C215.939 60.6738 212.357 64.2556 212.357 68.6738ZM384.571 123.823C383.742 123.823 383.156 124.838 383.571 125.555L390.231 137.091C390.645 137.808 391.817 137.808 392.231 137.091L398.891 125.555C399.305 124.838 398.719 123.823 397.891 123.823H384.571ZM218.857 68.6738V81.0087H221.857V68.6738H218.857ZM244.357 106.509H367.231V103.509H244.357V106.509ZM367.231 106.509C379.657 106.509 389.731 116.582 389.731 129.009H392.731C392.731 114.925 381.314 103.509 367.231 103.509V106.509ZM218.857 81.0087C218.857 95.0919 230.274 106.509 244.357 106.509V103.509C231.931 103.509 221.857 93.4351 221.857 81.0087H218.857Z" fill="url(#paint2_linear_10087_11631)"/>
<path d="M212.397 195.18C212.397 199.598 215.979 203.18 220.397 203.18C224.816 203.18 228.397 199.598 228.397 195.18C228.397 190.761 224.816 187.18 220.397 187.18C215.979 187.18 212.397 190.761 212.397 195.18ZM213.737 243.105C212.909 243.105 212.323 244.12 212.737 244.837L219.397 256.373C219.812 257.09 220.983 257.09 221.397 256.373L228.058 244.837C228.472 244.12 227.886 243.105 227.058 243.105H213.737ZM218.897 195.18V244.605H221.897V195.18H218.897Z" fill="url(#paint3_linear_10087_11631)"/>
<path d="M33.8145 195.18C33.8145 199.598 37.3962 203.18 41.8145 203.18C46.2327 203.18 49.8145 199.598 49.8145 195.18C49.8145 190.761 46.2327 187.18 41.8145 187.18C37.3962 187.18 33.8145 190.761 33.8145 195.18ZM213.83 243.105C213.001 243.105 212.415 244.12 212.83 244.837L219.49 256.373C219.904 257.09 221.076 257.09 221.49 256.373L228.15 244.837C228.564 244.12 227.978 243.105 227.15 243.105H213.83ZM41.8145 195.18H43.3145H41.8145ZM64.3581 219.223H196.49V216.223H64.3581V219.223ZM218.99 241.723V244.605H221.99V241.723H218.99ZM196.49 219.223C208.916 219.223 218.99 229.297 218.99 241.723H221.99C221.99 227.64 210.573 216.223 196.49 216.223V219.223ZM40.3145 195.18C40.3145 208.459 51.0792 219.223 64.3581 219.223V216.223C52.736 216.223 43.3145 206.802 43.3145 195.18H40.3145Z" fill="url(#paint4_linear_10087_11631)"/>
<path d="M383.231 195.182C383.231 199.6 386.812 203.182 391.231 203.182C395.649 203.182 399.231 199.6 399.231 195.182C399.231 190.763 395.649 187.182 391.231 187.182C386.812 187.182 383.231 190.763 383.231 195.182ZM213.829 243.106C213.001 243.106 212.415 244.12 212.829 244.838L219.49 256.374C219.904 257.091 221.076 257.091 221.49 256.374L228.15 244.838C228.564 244.12 227.978 243.106 227.15 243.106H213.829ZM391.231 195.182L392.731 195.182L391.231 195.182ZM368.687 216.225H244.49V219.225H368.687V216.225ZM218.99 241.725V244.606H221.99V241.725H218.99ZM244.49 216.225C230.407 216.225 218.99 227.642 218.99 241.725H221.99C221.99 229.298 232.063 219.225 244.49 219.225V216.225ZM389.731 195.182C389.731 206.803 380.309 216.225 368.687 216.225V219.225C381.966 219.225 392.731 208.46 392.731 195.182L389.731 195.182Z" fill="url(#paint5_linear_10087_11631)"/>
<defs>
<linearGradient id="paint0_linear_10087_11631" x1="1.27171e+10" y1="78.4689" x2="1.27171e+10" y2="403.864" gradientUnits="userSpaceOnUse">
<stop stop-color="#DDDDDD"/>
<stop offset="0.205" stop-color="#F0F0F0"/>
</linearGradient>
<linearGradient id="paint1_linear_10087_11631" x1="2055.56" y1="78.4689" x2="2055.56" y2="403.864" gradientUnits="userSpaceOnUse">
<stop stop-color="#DDDDDD"/>
<stop offset="0.205" stop-color="#F0F0F0"/>
</linearGradient>
<linearGradient id="paint2_linear_10087_11631" x1="2533.26" y1="78.4655" x2="2533.26" y2="403.861" gradientUnits="userSpaceOnUse">
<stop stop-color="#DDDDDD"/>
<stop offset="0.205" stop-color="#F0F0F0"/>
</linearGradient>
<linearGradient id="paint3_linear_10087_11631" x1="1.27121e+10" y1="219.744" x2="1.27121e+10" y2="675.933" gradientUnits="userSpaceOnUse">
<stop stop-color="#DDDDDD"/>
<stop offset="0.205" stop-color="#F0F0F0"/>
</linearGradient>
<linearGradient id="paint4_linear_10087_11631" x1="2053.07" y1="219.744" x2="2053.07" y2="675.933" gradientUnits="userSpaceOnUse">
<stop stop-color="#DDDDDD"/>
<stop offset="0.205" stop-color="#F0F0F0"/>
</linearGradient>
<linearGradient id="paint5_linear_10087_11631" x1="2536.38" y1="220.065" x2="2536.38" y2="676.273" gradientUnits="userSpaceOnUse">
<stop stop-color="#DDDDDD"/>
<stop offset="0.205" stop-color="#F0F0F0"/>
</linearGradient>
<clipPath id="clip0_10087_11631">
<rect width="16.9073" height="16.9073" fill="white" transform="translate(201.025 156.867)"/>
</clipPath>
</defs>
</svg>
