<svg width="440" height="311" viewBox="0 0 440 311" fill="none" xmlns="http://www.w3.org/2000/svg">
<path d="M204.288 165.436C203.892 165.833 203.262 165.833 202.872 165.443V165.436C202.483 165.047 202.483 164.416 202.872 164.027V164.02C203.262 163.63 203.892 163.63 204.281 164.02H204.288C204.678 164.409 204.678 165.047 204.288 165.436ZM203.58 160.479L205.082 161.98L206.852 160.21L204.586 157.944C204.033 157.391 203.134 157.391 202.582 157.944L200.315 160.21L202.086 161.98L203.58 160.479ZM199.331 164.728L200.832 163.227L199.062 161.456L196.796 163.722C196.243 164.275 196.243 165.174 196.796 165.726L199.062 167.993L200.832 166.222L199.331 164.728ZM207.829 164.728L206.328 166.229L208.098 168L210.364 165.733C210.917 165.181 210.917 164.282 210.364 163.729L208.098 161.463L206.328 163.234L207.829 164.728ZM203.58 168.977L202.079 167.476L200.308 169.246L202.575 171.512C203.127 172.065 204.026 172.065 204.579 171.512L206.845 169.246L205.074 167.476L203.58 168.977Z" fill="#424242"/>
<path d="M217.837 169.728L222.028 159.04H224.256L228.463 169.728H226.593L225.643 167.25H220.579L219.629 169.728H217.837ZM221.14 165.77H225.066L223.867 162.639C223.836 162.545 223.789 162.415 223.727 162.249C223.664 162.083 223.597 161.901 223.524 161.704C223.462 161.507 223.394 161.309 223.321 161.112C223.259 160.904 223.202 160.717 223.15 160.551H223.057C222.994 160.748 222.916 160.982 222.823 161.252C222.729 161.522 222.636 161.782 222.542 162.031C222.459 162.28 222.387 162.483 222.324 162.639L221.14 165.77ZM229.839 169.728V159.04H235.167C235.925 159.04 236.554 159.18 237.052 159.46C237.551 159.741 237.925 160.13 238.174 160.629C238.434 161.117 238.563 161.699 238.563 162.374C238.563 163.049 238.428 163.646 238.158 164.166C237.888 164.674 237.494 165.069 236.974 165.35C236.465 165.63 235.842 165.77 235.105 165.77H231.584V169.728H229.839ZM231.584 164.275H235.027C235.577 164.275 236.008 164.108 236.32 163.776C236.642 163.444 236.803 162.981 236.803 162.389C236.803 161.995 236.735 161.662 236.6 161.392C236.465 161.112 236.268 160.899 236.008 160.754C235.749 160.608 235.421 160.535 235.027 160.535H231.584V164.275ZM240.23 169.728V159.04H241.975V169.728H240.23Z" fill="#424242"/>
<g clip-path="url(#clip0_10087_11569)">
<mask id="mask0_10087_11569" style="mask-type:luminance" maskUnits="userSpaceOnUse" x="26" y="33" width="17" height="14">
<path d="M41.4086 42.5682C41.4086 44.5238 39.8234 46.1091 37.8678 46.1091C37.234 46.1091 36.6384 45.9427 36.1235 45.6505C35.5783 45.3415 35.1247 44.8934 34.8091 44.3519C34.4935 43.8104 34.3271 43.195 34.3269 42.5682C34.3269 41.6589 34.6697 40.8296 35.2327 40.2029C35.5644 39.8325 35.9706 39.5363 36.4247 39.3338C36.8788 39.1312 37.3705 39.0268 37.8678 39.0273C39.8234 39.0273 41.4086 40.6126 41.4086 42.5682Z" fill="white" stroke="white" stroke-width="1.41635" stroke-linecap="round" stroke-linejoin="round"/>
<path d="M37.8677 35.8398V39.0266C37.3705 39.0261 36.8787 39.1305 36.4247 39.333C35.9706 39.5356 35.5644 39.8318 35.2326 40.2022C34.6483 40.8513 34.3256 41.6941 34.3269 42.5675C34.3271 43.1942 34.4935 43.8097 34.8091 44.3512C35.1247 44.8927 35.5782 45.3408 36.1235 45.6498C35.1809 45.9349 33.9296 46.1084 32.5564 46.1084C29.6232 46.1084 27.2451 45.3156 27.2451 44.3379V35.8398" stroke="white" stroke-width="1.41635" stroke-linecap="round" stroke-linejoin="round"/>
<path d="M37.8677 35.8407C37.8677 36.8184 35.4897 37.6112 32.5564 37.6112C29.6232 37.6112 27.2451 36.8184 27.2451 35.8407C27.2451 34.8631 29.6232 34.0703 32.5564 34.0703C35.4897 34.0703 37.8677 34.8631 37.8677 35.8407Z" fill="white" stroke="white" stroke-width="1.41635" stroke-linecap="round" stroke-linejoin="round"/>
<path d="M27.2451 41.5065C27.2451 42.4842 29.6232 43.277 32.5564 43.277C33.1963 43.277 33.8099 43.2394 34.3778 43.17M27.2451 38.6738C27.2451 39.6515 29.6232 40.4443 32.5564 40.4443C33.5323 40.4443 34.4469 40.3564 35.2326 40.2035" stroke="white" stroke-width="1.41635" stroke-linecap="round" stroke-linejoin="round"/>
<path d="M37.8679 40.7979L36.8057 42.2142L38.9302 42.9224L37.8679 44.3387" stroke="black" stroke-width="1.41635" stroke-linecap="round" stroke-linejoin="round"/>
</mask>
<g mask="url(#mask0_10087_11569)">
<path d="M25.8289 31.5918H42.825V48.588H25.8289V31.5918Z" fill="#424242"/>
</g>
</g>
<path d="M49.7524 45.0898V34.4021H53.8811C54.9821 34.4021 55.9221 34.5942 56.701 34.9785C57.48 35.3524 58.0773 35.9341 58.4927 36.7235C58.9186 37.5025 59.1315 38.51 59.1315 39.746C59.1315 40.9716 58.9186 41.9791 58.4927 42.7684C58.0773 43.5578 57.48 44.1447 56.701 44.529C55.9221 44.9029 54.9821 45.0898 53.8811 45.0898H49.7524ZM51.4974 43.5942H53.8655C54.416 43.5942 54.9042 43.5215 55.33 43.3761C55.7663 43.2307 56.1298 43.0073 56.4206 42.7061C56.7218 42.4049 56.9451 42.0258 57.0905 41.5688C57.2463 41.1014 57.3242 40.5509 57.3242 39.9173V39.5902C57.3242 38.9462 57.2463 38.3957 57.0905 37.9387C56.9451 37.4713 56.7218 37.087 56.4206 36.7858C56.1298 36.4846 55.7663 36.2613 55.33 36.1159C54.9042 35.9704 54.416 35.8977 53.8655 35.8977H51.4974V43.5942ZM63.0022 45.2768C62.7426 45.2768 62.4621 45.2456 62.1609 45.1833C61.8597 45.121 61.5741 45.0068 61.304 44.8406C61.0444 44.6744 60.8314 44.4459 60.6653 44.1551C60.4991 43.8538 60.416 43.4643 60.416 42.9866C60.416 42.4257 60.5458 41.9635 60.8055 41.6C61.0651 41.2364 61.4287 40.9508 61.8961 40.7431C62.3635 40.5353 62.9191 40.3899 63.5631 40.3068C64.2175 40.2237 64.9289 40.1822 65.6975 40.1822V39.372C65.6975 39.102 65.6508 38.8631 65.5573 38.6554C65.4742 38.4476 65.3132 38.2867 65.0744 38.1724C64.8459 38.0581 64.5135 38.001 64.0772 38.001C63.641 38.001 63.2983 38.0581 63.049 38.1724C62.8101 38.2763 62.6387 38.4113 62.5348 38.5775C62.4414 38.7333 62.3946 38.9047 62.3946 39.0916V39.3253H60.8366C60.8263 39.2734 60.8211 39.2214 60.8211 39.1695C60.8211 39.1176 60.8211 39.0553 60.8211 38.9826C60.8211 38.4944 60.9561 38.0841 61.2261 37.7517C61.5066 37.409 61.8961 37.1493 62.3946 36.9728C62.8932 36.7962 63.4696 36.7079 64.124 36.7079C64.8303 36.7079 65.4171 36.8118 65.8845 37.0195C66.3623 37.2168 66.7206 37.5025 66.9595 37.8764C67.1984 38.2503 67.3179 38.7021 67.3179 39.2318V43.3916C67.3179 43.589 67.3646 43.7292 67.4581 43.8123C67.5619 43.8954 67.6814 43.9369 67.8164 43.9369H68.3773V45.0275C68.2526 45.0795 68.0968 45.1314 67.9099 45.1833C67.7229 45.2353 67.5048 45.2612 67.2555 45.2612C66.9751 45.2612 66.7362 45.2093 66.5389 45.1054C66.3519 45.0119 66.1961 44.8769 66.0715 44.7003C65.9572 44.5134 65.8793 44.3057 65.8378 44.0772H65.7443C65.5573 44.316 65.3288 44.529 65.0588 44.7159C64.7991 44.8925 64.4979 45.0275 64.1551 45.121C63.8124 45.2249 63.4281 45.2768 63.0022 45.2768ZM63.4541 43.9369C63.776 43.9369 64.0721 43.8902 64.3421 43.7967C64.6225 43.6929 64.8614 43.5526 65.0588 43.3761C65.2561 43.1891 65.4119 42.971 65.5262 42.7217C65.6404 42.462 65.6975 42.1816 65.6975 41.8804V41.3351C64.9809 41.3351 64.3525 41.3767 63.8124 41.4597C63.2723 41.5428 62.8516 41.6986 62.5504 41.9271C62.2492 42.1453 62.0986 42.4517 62.0986 42.8463C62.0986 43.0852 62.1505 43.2878 62.2544 43.454C62.3583 43.6098 62.5141 43.7292 62.7218 43.8123C62.9295 43.8954 63.1736 43.9369 63.4541 43.9369ZM71.5369 45.2768C71.0695 45.2768 70.7008 45.1885 70.4308 45.0119C70.1711 44.825 69.9842 44.5913 69.8699 44.3109C69.766 44.02 69.7141 43.7136 69.7141 43.3916V38.2347H68.6858V36.8949H69.7453L70.0413 34.6046H71.3344V36.8949H72.8145V38.2347H71.3344V43.2047C71.3344 43.4436 71.3863 43.6253 71.4902 43.75C71.5941 43.8746 71.7654 43.9369 72.0043 43.9369H72.8145V45.0275C72.7106 45.0691 72.5808 45.1054 72.425 45.1366C72.2796 45.1781 72.129 45.2093 71.9732 45.2301C71.8174 45.2612 71.672 45.2768 71.5369 45.2768ZM76.3151 45.2768C76.0554 45.2768 75.775 45.2456 75.4738 45.1833C75.1726 45.121 74.8869 45.0068 74.6169 44.8406C74.3572 44.6744 74.1443 44.4459 73.9781 44.1551C73.8119 43.8538 73.7288 43.4643 73.7288 42.9866C73.7288 42.4257 73.8587 41.9635 74.1183 41.6C74.378 41.2364 74.7415 40.9508 75.2089 40.7431C75.6763 40.5353 76.232 40.3899 76.876 40.3068C77.5303 40.2237 78.2418 40.1822 79.0104 40.1822V39.372C79.0104 39.102 78.9637 38.8631 78.8702 38.6554C78.7871 38.4476 78.6261 38.2867 78.3872 38.1724C78.1587 38.0581 77.8263 38.001 77.3901 38.001C76.9539 38.001 76.6111 38.0581 76.3618 38.1724C76.1229 38.2763 75.9516 38.4113 75.8477 38.5775C75.7542 38.7333 75.7075 38.9047 75.7075 39.0916V39.3253H74.1495C74.1391 39.2734 74.1339 39.2214 74.1339 39.1695C74.1339 39.1176 74.1339 39.0553 74.1339 38.9826C74.1339 38.4944 74.2689 38.0841 74.539 37.7517C74.8194 37.409 75.2089 37.1493 75.7075 36.9728C76.206 36.7962 76.7825 36.7079 77.4368 36.7079C78.1431 36.7079 78.73 36.8118 79.1973 37.0195C79.6751 37.2168 80.0335 37.5025 80.2724 37.8764C80.5112 38.2503 80.6307 38.7021 80.6307 39.2318V43.3916C80.6307 43.589 80.6774 43.7292 80.7709 43.8123C80.8748 43.8954 80.9942 43.9369 81.1292 43.9369H81.6901V45.0275C81.5655 45.0795 81.4097 45.1314 81.2227 45.1833C81.0358 45.2353 80.8177 45.2612 80.5684 45.2612C80.2879 45.2612 80.049 45.2093 79.8517 45.1054C79.6647 45.0119 79.5089 44.8769 79.3843 44.7003C79.2701 44.5134 79.1922 44.3057 79.1506 44.0772H79.0571C78.8702 44.316 78.6417 44.529 78.3716 44.7159C78.112 44.8925 77.8107 45.0275 77.468 45.121C77.1252 45.2249 76.7409 45.2768 76.3151 45.2768ZM76.7669 43.9369C77.0889 43.9369 77.3849 43.8902 77.6549 43.7967C77.9354 43.6929 78.1743 43.5526 78.3716 43.3761C78.569 43.1891 78.7248 42.971 78.839 42.7217C78.9533 42.462 79.0104 42.1816 79.0104 41.8804V41.3351C78.2937 41.3351 77.6653 41.3767 77.1252 41.4597C76.5851 41.5428 76.1645 41.6986 75.8633 41.9271C75.5621 42.1453 75.4114 42.4517 75.4114 42.8463C75.4114 43.0852 75.4634 43.2878 75.5672 43.454C75.6711 43.6098 75.8269 43.7292 76.0346 43.8123C76.2424 43.8954 76.4865 43.9369 76.7669 43.9369ZM83.0269 45.0898V34.4021H88.698C89.29 34.4021 89.8094 34.5111 90.256 34.7293C90.7026 34.937 91.0506 35.2382 91.2998 35.6329C91.5595 36.0276 91.6893 36.4898 91.6893 37.0195C91.6893 37.4246 91.6114 37.7933 91.4556 38.1257C91.3102 38.458 91.1025 38.7385 90.8324 38.967C90.5728 39.1955 90.2768 39.3669 89.9444 39.4811V39.5434C90.3287 39.6265 90.6714 39.7823 90.9727 40.0108C91.2843 40.2289 91.5283 40.5198 91.7049 40.8833C91.8919 41.2364 91.9853 41.6623 91.9853 42.1608C91.9853 42.836 91.8347 43.3916 91.5335 43.8279C91.2427 44.2641 90.8532 44.5861 90.365 44.7938C89.8769 44.9912 89.3212 45.0898 88.698 45.0898H83.0269ZM84.7719 43.5942H88.5578C89.0356 43.5942 89.4251 43.4695 89.7263 43.2203C90.0379 42.9606 90.1937 42.5451 90.1937 41.9739C90.1937 41.6311 90.1262 41.3403 89.9911 41.1014C89.8665 40.8521 89.6743 40.6652 89.4147 40.5405C89.155 40.4055 88.8278 40.338 88.4331 40.338H84.7719V43.5942ZM84.7719 38.8735H88.2929C88.6253 38.8735 88.9109 38.8112 89.1498 38.6865C89.3887 38.5619 89.5705 38.3853 89.6951 38.1568C89.8301 37.9283 89.8976 37.6738 89.8976 37.3934C89.8976 36.8845 89.7574 36.5106 89.477 36.2717C89.2069 36.0224 88.8486 35.8977 88.402 35.8977H84.7719V38.8735ZM95.8203 45.2768C95.5606 45.2768 95.2802 45.2456 94.979 45.1833C94.6778 45.121 94.3921 45.0068 94.1221 44.8406C93.8624 44.6744 93.6495 44.4459 93.4833 44.1551C93.3171 43.8538 93.234 43.4643 93.234 42.9866C93.234 42.4257 93.3639 41.9635 93.6235 41.6C93.8832 41.2364 94.2467 40.9508 94.7141 40.7431C95.1815 40.5353 95.7372 40.3899 96.3812 40.3068C97.0355 40.2237 97.747 40.1822 98.5156 40.1822V39.372C98.5156 39.102 98.4689 38.8631 98.3754 38.6554C98.2923 38.4476 98.1313 38.2867 97.8924 38.1724C97.6639 38.0581 97.3315 38.001 96.8953 38.001C96.4591 38.001 96.1163 38.0581 95.867 38.1724C95.6281 38.2763 95.4568 38.4113 95.3529 38.5775C95.2594 38.7333 95.2127 38.9047 95.2127 39.0916V39.3253H93.6547C93.6443 39.2734 93.6391 39.2214 93.6391 39.1695C93.6391 39.1176 93.6391 39.0553 93.6391 38.9826C93.6391 38.4944 93.7741 38.0841 94.0442 37.7517C94.3246 37.409 94.7141 37.1493 95.2127 36.9728C95.7112 36.7962 96.2877 36.7079 96.942 36.7079C97.6483 36.7079 98.2352 36.8118 98.7026 37.0195C99.1803 37.2168 99.5387 37.5025 99.7776 37.8764C100.016 38.2503 100.136 38.7021 100.136 39.2318V43.3916C100.136 43.589 100.183 43.7292 100.276 43.8123C100.38 43.8954 100.499 43.9369 100.634 43.9369H101.195V45.0275C101.071 45.0795 100.915 45.1314 100.728 45.1833C100.541 45.2353 100.323 45.2612 100.074 45.2612C99.7932 45.2612 99.5543 45.2093 99.3569 45.1054C99.17 45.0119 99.0142 44.8769 98.8895 44.7003C98.7753 44.5134 98.6974 44.3057 98.6558 44.0772H98.5623C98.3754 44.316 98.1469 44.529 97.8768 44.7159C97.6172 44.8925 97.316 45.0275 96.9732 45.121C96.6304 45.2249 96.2461 45.2768 95.8203 45.2768ZM96.2721 43.9369C96.5941 43.9369 96.8901 43.8902 97.1602 43.7967C97.4406 43.6929 97.6795 43.5526 97.8768 43.3761C98.0742 43.1891 98.23 42.971 98.3442 42.7217C98.4585 42.462 98.5156 42.1816 98.5156 41.8804V41.3351C97.7989 41.3351 97.1705 41.3767 96.6304 41.4597C96.0903 41.5428 95.6697 41.6986 95.3685 41.9271C95.0673 42.1453 94.9167 42.4517 94.9167 42.8463C94.9167 43.0852 94.9686 43.2878 95.0725 43.454C95.1763 43.6098 95.3321 43.7292 95.5399 43.8123C95.7476 43.8954 95.9917 43.9369 96.2721 43.9369ZM105.337 45.2768C104.765 45.2768 104.262 45.2145 103.825 45.0898C103.389 44.9652 103.026 44.7938 102.735 44.5757C102.444 44.3576 102.221 44.0979 102.065 43.7967C101.919 43.4851 101.847 43.1424 101.847 42.7684C101.847 42.7165 101.847 42.6698 101.847 42.6282C101.857 42.5867 101.862 42.5503 101.862 42.5192H103.467C103.467 42.5503 103.467 42.5815 103.467 42.6127C103.467 42.6334 103.467 42.6594 103.467 42.6905C103.467 43.0125 103.555 43.2722 103.732 43.4695C103.908 43.6565 104.142 43.7915 104.433 43.8746C104.734 43.9473 105.061 43.9837 105.414 43.9837C105.726 43.9837 106.012 43.9473 106.271 43.8746C106.541 43.7915 106.759 43.6721 106.926 43.5163C107.102 43.3605 107.191 43.1631 107.191 42.9242C107.191 42.6127 107.081 42.3738 106.863 42.2076C106.645 42.0414 106.36 41.9116 106.006 41.8181C105.653 41.7142 105.285 41.6052 104.9 41.4909C104.558 41.3974 104.215 41.2988 103.872 41.1949C103.54 41.0806 103.238 40.9352 102.968 40.7587C102.698 40.5821 102.48 40.3588 102.314 40.0887C102.148 39.8187 102.065 39.4811 102.065 39.076C102.065 38.6917 102.148 38.3542 102.314 38.0633C102.48 37.7725 102.709 37.5284 103 37.3311C103.301 37.1337 103.654 36.9831 104.059 36.8793C104.474 36.7754 104.926 36.7235 105.414 36.7235C105.923 36.7235 106.375 36.7806 106.77 36.8949C107.165 36.9987 107.497 37.1493 107.767 37.3467C108.047 37.544 108.26 37.7829 108.406 38.0633C108.551 38.3334 108.624 38.6242 108.624 38.9358C108.624 38.9981 108.619 39.0656 108.608 39.1383C108.608 39.2007 108.608 39.2422 108.608 39.263H107.019V39.1228C107.019 38.915 106.962 38.7281 106.848 38.5619C106.734 38.3957 106.552 38.2607 106.302 38.1568C106.064 38.053 105.742 38.001 105.337 38.001C105.066 38.001 104.828 38.027 104.62 38.0789C104.412 38.1205 104.241 38.1828 104.106 38.2659C103.971 38.349 103.867 38.4476 103.794 38.5619C103.732 38.6761 103.701 38.806 103.701 38.9514C103.701 39.1903 103.784 39.3772 103.95 39.5123C104.126 39.6369 104.355 39.746 104.635 39.8394C104.916 39.9225 105.217 40.016 105.539 40.1199C105.913 40.2237 106.292 40.3328 106.676 40.4471C107.061 40.5509 107.414 40.6859 107.736 40.8521C108.068 41.0183 108.333 41.2468 108.53 41.5376C108.738 41.8285 108.842 42.218 108.842 42.7061C108.842 43.1528 108.754 43.5422 108.577 43.8746C108.401 44.207 108.151 44.477 107.829 44.6848C107.518 44.8821 107.149 45.0275 106.723 45.121C106.297 45.2249 105.835 45.2768 105.337 45.2768ZM113.881 45.2768C113.039 45.2768 112.333 45.1262 111.762 44.825C111.201 44.5134 110.775 44.0408 110.484 43.4072C110.194 42.7736 110.048 41.9687 110.048 40.9923C110.048 40.0056 110.194 39.2007 110.484 38.5775C110.775 37.9439 111.206 37.4765 111.777 37.1753C112.349 36.8637 113.06 36.7079 113.912 36.7079C114.691 36.7079 115.34 36.8585 115.859 37.1597C116.389 37.4505 116.789 37.8972 117.059 38.4996C117.329 39.102 117.464 39.8602 117.464 40.7742V41.3974H111.715C111.736 41.9791 111.824 42.4672 111.98 42.8619C112.136 43.2462 112.369 43.5319 112.681 43.7188C113.003 43.8954 113.408 43.9837 113.896 43.9837C114.198 43.9837 114.468 43.9473 114.706 43.8746C114.945 43.7915 115.148 43.6773 115.314 43.5319C115.48 43.3761 115.61 43.1943 115.704 42.9866C115.797 42.7684 115.844 42.5244 115.844 42.2543H117.433C117.433 42.7425 117.35 43.1735 117.184 43.5474C117.017 43.9214 116.773 44.2381 116.451 44.4978C116.14 44.7471 115.766 44.9392 115.33 45.0743C114.893 45.2093 114.41 45.2768 113.881 45.2768ZM111.746 40.2134H115.766C115.766 39.8083 115.719 39.4707 115.626 39.2007C115.543 38.9202 115.418 38.6917 115.252 38.5152C115.086 38.3386 114.888 38.2139 114.66 38.1412C114.431 38.0581 114.172 38.0166 113.881 38.0166C113.444 38.0166 113.071 38.0945 112.759 38.2503C112.458 38.4061 112.224 38.6502 112.058 38.9826C111.892 39.3045 111.788 39.7148 111.746 40.2134Z" fill="#424242"/>
<g clip-path="url(#clip1_10087_11569)">
<mask id="mask1_10087_11569" style="mask-type:luminance" maskUnits="userSpaceOnUse" x="173" y="33" width="17" height="14">
<path d="M188.709 42.5682C188.709 44.5238 187.124 46.1091 185.168 46.1091C184.534 46.1091 183.939 45.9427 183.424 45.6505C182.879 45.3415 182.425 44.8934 182.109 44.3519C181.794 43.8104 181.627 43.195 181.627 42.5682C181.627 41.6589 181.97 40.8296 182.533 40.2029C182.865 39.8325 183.271 39.5363 183.725 39.3338C184.179 39.1312 184.671 39.0268 185.168 39.0273C187.124 39.0273 188.709 40.6126 188.709 42.5682Z" fill="white" stroke="white" stroke-width="1.41635" stroke-linecap="round" stroke-linejoin="round"/>
<path d="M185.168 35.8398V39.0266C184.671 39.0261 184.179 39.1305 183.725 39.333C183.271 39.5356 182.864 39.8318 182.533 40.2022C181.948 40.8513 181.626 41.6941 181.627 42.5675C181.627 43.1942 181.794 43.8097 182.109 44.3512C182.425 44.8927 182.878 45.3408 183.424 45.6498C182.481 45.9349 181.23 46.1084 179.856 46.1084C176.923 46.1084 174.545 45.3156 174.545 44.3379V35.8398" stroke="white" stroke-width="1.41635" stroke-linecap="round" stroke-linejoin="round"/>
<path d="M185.168 35.8407C185.168 36.8184 182.79 37.6112 179.856 37.6112C176.923 37.6112 174.545 36.8184 174.545 35.8407C174.545 34.8631 176.923 34.0703 179.856 34.0703C182.79 34.0703 185.168 34.8631 185.168 35.8407Z" fill="white" stroke="white" stroke-width="1.41635" stroke-linecap="round" stroke-linejoin="round"/>
<path d="M174.545 41.5065C174.545 42.4842 176.923 43.277 179.856 43.277C180.496 43.277 181.11 43.2394 181.678 43.17M174.545 38.6738C174.545 39.6515 176.923 40.4443 179.856 40.4443C180.832 40.4443 181.747 40.3564 182.533 40.2035" stroke="white" stroke-width="1.41635" stroke-linecap="round" stroke-linejoin="round"/>
<path d="M185.168 40.7979L184.105 42.2142L186.23 42.9224L185.168 44.3387" stroke="black" stroke-width="1.41635" stroke-linecap="round" stroke-linejoin="round"/>
</mask>
<g mask="url(#mask1_10087_11569)">
<path d="M173.129 31.5918H190.125V48.588H173.129V31.5918Z" fill="#424242"/>
</g>
</g>
<path d="M197.052 45.0898V34.4021H201.181C202.282 34.4021 203.222 34.5942 204.001 34.9785C204.78 35.3524 205.377 35.9341 205.793 36.7235C206.219 37.5025 206.432 38.51 206.432 39.746C206.432 40.9716 206.219 41.9791 205.793 42.7684C205.377 43.5578 204.78 44.1447 204.001 44.529C203.222 44.9029 202.282 45.0898 201.181 45.0898H197.052ZM198.797 43.5942H201.166C201.716 43.5942 202.204 43.5215 202.63 43.3761C203.066 43.2307 203.43 43.0073 203.721 42.7061C204.022 42.4049 204.245 42.0258 204.391 41.5688C204.546 41.1014 204.624 40.5509 204.624 39.9173V39.5902C204.624 38.9462 204.546 38.3957 204.391 37.9387C204.245 37.4713 204.022 37.087 203.721 36.7858C203.43 36.4846 203.066 36.2613 202.63 36.1159C202.204 35.9704 201.716 35.8977 201.166 35.8977H198.797V43.5942ZM210.302 45.2768C210.043 45.2768 209.762 45.2456 209.461 45.1833C209.16 45.121 208.874 45.0068 208.604 44.8406C208.344 44.6744 208.131 44.4459 207.965 44.1551C207.799 43.8538 207.716 43.4643 207.716 42.9866C207.716 42.4257 207.846 41.9635 208.106 41.6C208.365 41.2364 208.729 40.9508 209.196 40.7431C209.664 40.5353 210.219 40.3899 210.863 40.3068C211.518 40.2237 212.229 40.1822 212.998 40.1822V39.372C212.998 39.102 212.951 38.8631 212.857 38.6554C212.774 38.4476 212.613 38.2867 212.374 38.1724C212.146 38.0581 211.814 38.001 211.377 38.001C210.941 38.001 210.598 38.0581 210.349 38.1724C210.11 38.2763 209.939 38.4113 209.835 38.5775C209.741 38.7333 209.695 38.9047 209.695 39.0916V39.3253H208.137C208.126 39.2734 208.121 39.2214 208.121 39.1695C208.121 39.1176 208.121 39.0553 208.121 38.9826C208.121 38.4944 208.256 38.0841 208.526 37.7517C208.807 37.409 209.196 37.1493 209.695 36.9728C210.193 36.7962 210.77 36.7079 211.424 36.7079C212.13 36.7079 212.717 36.8118 213.185 37.0195C213.662 37.2168 214.021 37.5025 214.26 37.8764C214.498 38.2503 214.618 38.7021 214.618 39.2318V43.3916C214.618 43.589 214.665 43.7292 214.758 43.8123C214.862 43.8954 214.981 43.9369 215.116 43.9369H215.677V45.0275C215.553 45.0795 215.397 45.1314 215.21 45.1833C215.023 45.2353 214.805 45.2612 214.556 45.2612C214.275 45.2612 214.036 45.2093 213.839 45.1054C213.652 45.0119 213.496 44.8769 213.372 44.7003C213.257 44.5134 213.179 44.3057 213.138 44.0772H213.044C212.857 44.316 212.629 44.529 212.359 44.7159C212.099 44.8925 211.798 45.0275 211.455 45.121C211.112 45.2249 210.728 45.2768 210.302 45.2768ZM210.754 43.9369C211.076 43.9369 211.372 43.8902 211.642 43.7967C211.923 43.6929 212.161 43.5526 212.359 43.3761C212.556 43.1891 212.712 42.971 212.826 42.7217C212.94 42.462 212.998 42.1816 212.998 41.8804V41.3351C212.281 41.3351 211.653 41.3767 211.112 41.4597C210.572 41.5428 210.152 41.6986 209.85 41.9271C209.549 42.1453 209.399 42.4517 209.399 42.8463C209.399 43.0852 209.451 43.2878 209.554 43.454C209.658 43.6098 209.814 43.7292 210.022 43.8123C210.23 43.8954 210.474 43.9369 210.754 43.9369ZM218.837 45.2768C218.37 45.2768 218.001 45.1885 217.731 45.0119C217.471 44.825 217.284 44.5913 217.17 44.3109C217.066 44.02 217.014 43.7136 217.014 43.3916V38.2347H215.986V36.8949H217.045L217.341 34.6046H218.634V36.8949H220.115V38.2347H218.634V43.2047C218.634 43.4436 218.686 43.6253 218.79 43.75C218.894 43.8746 219.065 43.9369 219.304 43.9369H220.115V45.0275C220.011 45.0691 219.881 45.1054 219.725 45.1366C219.58 45.1781 219.429 45.2093 219.273 45.2301C219.117 45.2612 218.972 45.2768 218.837 45.2768ZM223.615 45.2768C223.355 45.2768 223.075 45.2456 222.774 45.1833C222.473 45.121 222.187 45.0068 221.917 44.8406C221.657 44.6744 221.444 44.4459 221.278 44.1551C221.112 43.8538 221.029 43.4643 221.029 42.9866C221.029 42.4257 221.159 41.9635 221.418 41.6C221.678 41.2364 222.042 40.9508 222.509 40.7431C222.976 40.5353 223.532 40.3899 224.176 40.3068C224.83 40.2237 225.542 40.1822 226.31 40.1822V39.372C226.31 39.102 226.264 38.8631 226.17 38.6554C226.087 38.4476 225.926 38.2867 225.687 38.1724C225.459 38.0581 225.126 38.001 224.69 38.001C224.254 38.001 223.911 38.0581 223.662 38.1724C223.423 38.2763 223.252 38.4113 223.148 38.5775C223.054 38.7333 223.008 38.9047 223.008 39.0916V39.3253H221.45C221.439 39.2734 221.434 39.2214 221.434 39.1695C221.434 39.1176 221.434 39.0553 221.434 38.9826C221.434 38.4944 221.569 38.0841 221.839 37.7517C222.119 37.409 222.509 37.1493 223.008 36.9728C223.506 36.7962 224.083 36.7079 224.737 36.7079C225.443 36.7079 226.03 36.8118 226.497 37.0195C226.975 37.2168 227.334 37.5025 227.572 37.8764C227.811 38.2503 227.931 38.7021 227.931 39.2318V43.3916C227.931 43.589 227.977 43.7292 228.071 43.8123C228.175 43.8954 228.294 43.9369 228.429 43.9369H228.99V45.0275C228.866 45.0795 228.71 45.1314 228.523 45.1833C228.336 45.2353 228.118 45.2612 227.868 45.2612C227.588 45.2612 227.349 45.2093 227.152 45.1054C226.965 45.0119 226.809 44.8769 226.684 44.7003C226.57 44.5134 226.492 44.3057 226.451 44.0772H226.357C226.17 44.316 225.942 44.529 225.672 44.7159C225.412 44.8925 225.111 45.0275 224.768 45.121C224.425 45.2249 224.041 45.2768 223.615 45.2768ZM224.067 43.9369C224.389 43.9369 224.685 43.8902 224.955 43.7967C225.235 43.6929 225.474 43.5526 225.672 43.3761C225.869 43.1891 226.025 42.971 226.139 42.7217C226.253 42.462 226.31 42.1816 226.31 41.8804V41.3351C225.594 41.3351 224.965 41.3767 224.425 41.4597C223.885 41.5428 223.465 41.6986 223.163 41.9271C222.862 42.1453 222.711 42.4517 222.711 42.8463C222.711 43.0852 222.763 43.2878 222.867 43.454C222.971 43.6098 223.127 43.7292 223.335 43.8123C223.542 43.8954 223.787 43.9369 224.067 43.9369ZM230.327 45.0898V34.4021H235.998C236.59 34.4021 237.109 34.5111 237.556 34.7293C238.003 34.937 238.351 35.2382 238.6 35.6329C238.86 36.0276 238.989 36.4898 238.989 37.0195C238.989 37.4246 238.911 37.7933 238.756 38.1257C238.61 38.458 238.403 38.7385 238.132 38.967C237.873 39.1955 237.577 39.3669 237.244 39.4811V39.5434C237.629 39.6265 237.971 39.7823 238.273 40.0108C238.584 40.2289 238.828 40.5198 239.005 40.8833C239.192 41.2364 239.285 41.6623 239.285 42.1608C239.285 42.836 239.135 43.3916 238.834 43.8279C238.543 44.2641 238.153 44.5861 237.665 44.7938C237.177 44.9912 236.621 45.0898 235.998 45.0898H230.327ZM232.072 43.5942H235.858C236.336 43.5942 236.725 43.4695 237.026 43.2203C237.338 42.9606 237.494 42.5451 237.494 41.9739C237.494 41.6311 237.426 41.3403 237.291 41.1014C237.167 40.8521 236.974 40.6652 236.715 40.5405C236.455 40.4055 236.128 40.338 235.733 40.338H232.072V43.5942ZM232.072 38.8735H235.593C235.925 38.8735 236.211 38.8112 236.45 38.6865C236.689 38.5619 236.871 38.3853 236.995 38.1568C237.13 37.9283 237.198 37.6738 237.198 37.3934C237.198 36.8845 237.057 36.5106 236.777 36.2717C236.507 36.0224 236.149 35.8977 235.702 35.8977H232.072V38.8735ZM243.12 45.2768C242.861 45.2768 242.58 45.2456 242.279 45.1833C241.978 45.121 241.692 45.0068 241.422 44.8406C241.162 44.6744 240.95 44.4459 240.783 44.1551C240.617 43.8538 240.534 43.4643 240.534 42.9866C240.534 42.4257 240.664 41.9635 240.924 41.6C241.183 41.2364 241.547 40.9508 242.014 40.7431C242.482 40.5353 243.037 40.3899 243.681 40.3068C244.336 40.2237 245.047 40.1822 245.816 40.1822V39.372C245.816 39.102 245.769 38.8631 245.675 38.6554C245.592 38.4476 245.431 38.2867 245.192 38.1724C244.964 38.0581 244.632 38.001 244.195 38.001C243.759 38.001 243.416 38.0581 243.167 38.1724C242.928 38.2763 242.757 38.4113 242.653 38.5775C242.559 38.7333 242.513 38.9047 242.513 39.0916V39.3253H240.955C240.944 39.2734 240.939 39.2214 240.939 39.1695C240.939 39.1176 240.939 39.0553 240.939 38.9826C240.939 38.4944 241.074 38.0841 241.344 37.7517C241.625 37.409 242.014 37.1493 242.513 36.9728C243.011 36.7962 243.588 36.7079 244.242 36.7079C244.948 36.7079 245.535 36.8118 246.003 37.0195C246.48 37.2168 246.839 37.5025 247.078 37.8764C247.317 38.2503 247.436 38.7021 247.436 39.2318V43.3916C247.436 43.589 247.483 43.7292 247.576 43.8123C247.68 43.8954 247.799 43.9369 247.935 43.9369H248.495V45.0275C248.371 45.0795 248.215 45.1314 248.028 45.1833C247.841 45.2353 247.623 45.2612 247.374 45.2612C247.093 45.2612 246.854 45.2093 246.657 45.1054C246.47 45.0119 246.314 44.8769 246.19 44.7003C246.075 44.5134 245.997 44.3057 245.956 44.0772H245.862C245.675 44.316 245.447 44.529 245.177 44.7159C244.917 44.8925 244.616 45.0275 244.273 45.121C243.93 45.2249 243.546 45.2768 243.12 45.2768ZM243.572 43.9369C243.894 43.9369 244.19 43.8902 244.46 43.7967C244.741 43.6929 244.98 43.5526 245.177 43.3761C245.374 43.1891 245.53 42.971 245.644 42.7217C245.759 42.462 245.816 42.1816 245.816 41.8804V41.3351C245.099 41.3351 244.471 41.3767 243.93 41.4597C243.39 41.5428 242.97 41.6986 242.669 41.9271C242.367 42.1453 242.217 42.4517 242.217 42.8463C242.217 43.0852 242.269 43.2878 242.373 43.454C242.476 43.6098 242.632 43.7292 242.84 43.8123C243.048 43.8954 243.292 43.9369 243.572 43.9369ZM252.637 45.2768C252.065 45.2768 251.562 45.2145 251.125 45.0898C250.689 44.9652 250.326 44.7938 250.035 44.5757C249.744 44.3576 249.521 44.0979 249.365 43.7967C249.219 43.4851 249.147 43.1424 249.147 42.7684C249.147 42.7165 249.147 42.6698 249.147 42.6282C249.157 42.5867 249.162 42.5503 249.162 42.5192H250.767C250.767 42.5503 250.767 42.5815 250.767 42.6127C250.767 42.6334 250.767 42.6594 250.767 42.6905C250.767 43.0125 250.855 43.2722 251.032 43.4695C251.208 43.6565 251.442 43.7915 251.733 43.8746C252.034 43.9473 252.361 43.9837 252.714 43.9837C253.026 43.9837 253.312 43.9473 253.571 43.8746C253.841 43.7915 254.06 43.6721 254.226 43.5163C254.402 43.3605 254.491 43.1631 254.491 42.9242C254.491 42.6127 254.382 42.3738 254.163 42.2076C253.945 42.0414 253.66 41.9116 253.307 41.8181C252.953 41.7142 252.585 41.6052 252.2 41.4909C251.858 41.3974 251.515 41.2988 251.172 41.1949C250.84 41.0806 250.538 40.9352 250.268 40.7587C249.998 40.5821 249.78 40.3588 249.614 40.0887C249.448 39.8187 249.365 39.4811 249.365 39.076C249.365 38.6917 249.448 38.3542 249.614 38.0633C249.78 37.7725 250.009 37.5284 250.3 37.3311C250.601 37.1337 250.954 36.9831 251.359 36.8793C251.774 36.7754 252.226 36.7235 252.714 36.7235C253.223 36.7235 253.675 36.7806 254.07 36.8949C254.465 36.9987 254.797 37.1493 255.067 37.3467C255.347 37.544 255.56 37.7829 255.706 38.0633C255.851 38.3334 255.924 38.6242 255.924 38.9358C255.924 38.9981 255.919 39.0656 255.908 39.1383C255.908 39.2007 255.908 39.2422 255.908 39.263H254.319V39.1228C254.319 38.915 254.262 38.7281 254.148 38.5619C254.034 38.3957 253.852 38.2607 253.603 38.1568C253.364 38.053 253.042 38.001 252.637 38.001C252.367 38.001 252.128 38.027 251.92 38.0789C251.712 38.1205 251.541 38.1828 251.406 38.2659C251.271 38.349 251.167 38.4476 251.094 38.5619C251.032 38.6761 251.001 38.806 251.001 38.9514C251.001 39.1903 251.084 39.3772 251.25 39.5123C251.427 39.6369 251.655 39.746 251.935 39.8394C252.216 39.9225 252.517 40.016 252.839 40.1199C253.213 40.2237 253.592 40.3328 253.976 40.4471C254.361 40.5509 254.714 40.6859 255.036 40.8521C255.368 41.0183 255.633 41.2468 255.83 41.5376C256.038 41.8285 256.142 42.218 256.142 42.7061C256.142 43.1528 256.054 43.5422 255.877 43.8746C255.701 44.207 255.451 44.477 255.129 44.6848C254.818 44.8821 254.449 45.0275 254.023 45.121C253.597 45.2249 253.135 45.2768 252.637 45.2768ZM261.181 45.2768C260.339 45.2768 259.633 45.1262 259.062 44.825C258.501 44.5134 258.075 44.0408 257.784 43.4072C257.494 42.7736 257.348 41.9687 257.348 40.9923C257.348 40.0056 257.494 39.2007 257.784 38.5775C258.075 37.9439 258.506 37.4765 259.077 37.1753C259.649 36.8637 260.36 36.7079 261.212 36.7079C261.991 36.7079 262.64 36.8585 263.159 37.1597C263.689 37.4505 264.089 37.8972 264.359 38.4996C264.629 39.102 264.764 39.8602 264.764 40.7742V41.3974H259.015C259.036 41.9791 259.124 42.4672 259.28 42.8619C259.436 43.2462 259.67 43.5319 259.981 43.7188C260.303 43.8954 260.708 43.9837 261.196 43.9837C261.498 43.9837 261.768 43.9473 262.007 43.8746C262.245 43.7915 262.448 43.6773 262.614 43.5319C262.78 43.3761 262.91 43.1943 263.004 42.9866C263.097 42.7684 263.144 42.5244 263.144 42.2543H264.733C264.733 42.7425 264.65 43.1735 264.484 43.5474C264.318 43.9214 264.073 44.2381 263.751 44.4978C263.44 44.7471 263.066 44.9392 262.63 45.0743C262.193 45.2093 261.71 45.2768 261.181 45.2768ZM259.046 40.2134H263.066C263.066 39.8083 263.019 39.4707 262.926 39.2007C262.843 38.9202 262.718 38.6917 262.552 38.5152C262.386 38.3386 262.188 38.2139 261.96 38.1412C261.731 38.0581 261.472 38.0166 261.181 38.0166C260.745 38.0166 260.371 38.0945 260.059 38.2503C259.758 38.4061 259.524 38.6502 259.358 38.9826C259.192 39.3045 259.088 39.7148 259.046 40.2134Z" fill="#424242"/>
<mask id="mask2_10087_11569" style="mask-type:luminance" maskUnits="userSpaceOnUse" x="321" y="33" width="16" height="14">
<path d="M336.009 42.5682C336.009 44.5238 334.424 46.1091 332.469 46.1091C331.835 46.1091 331.239 45.9427 330.724 45.6505C330.179 45.3415 329.726 44.8934 329.41 44.3519C329.094 43.8104 328.928 43.195 328.928 42.5682C328.928 41.6589 329.27 40.8296 329.833 40.2029C330.165 39.8325 330.571 39.5363 331.026 39.3338C331.48 39.1312 331.971 39.0268 332.469 39.0273C334.424 39.0273 336.009 40.6126 336.009 42.5682Z" fill="white" stroke="white" stroke-width="1.41635" stroke-linecap="round" stroke-linejoin="round"/>
<path d="M332.468 35.8398V39.0266C331.971 39.0261 331.479 39.1305 331.025 39.333C330.571 39.5356 330.165 39.8318 329.833 40.2022C329.249 40.8513 328.926 41.6941 328.927 42.5675C328.928 43.1942 329.094 43.8097 329.41 44.3512C329.725 44.8927 330.179 45.3408 330.724 45.6498C329.782 45.9349 328.53 46.1084 327.157 46.1084C324.224 46.1084 321.846 45.3156 321.846 44.3379V35.8398" stroke="white" stroke-width="1.41635" stroke-linecap="round" stroke-linejoin="round"/>
<path d="M332.468 35.8407C332.468 36.8184 330.09 37.6112 327.157 37.6112C324.224 37.6112 321.846 36.8184 321.846 35.8407C321.846 34.8631 324.224 34.0703 327.157 34.0703C330.09 34.0703 332.468 34.8631 332.468 35.8407Z" fill="white" stroke="white" stroke-width="1.41635" stroke-linecap="round" stroke-linejoin="round"/>
<path d="M321.846 41.5065C321.846 42.4842 324.224 43.277 327.157 43.277C327.797 43.277 328.41 43.2394 328.978 43.17M321.846 38.6738C321.846 39.6515 324.224 40.4443 327.157 40.4443C328.133 40.4443 329.047 40.3564 329.833 40.2035" stroke="white" stroke-width="1.41635" stroke-linecap="round" stroke-linejoin="round"/>
<path d="M332.468 40.7979L331.406 42.2142L333.531 42.9224L332.468 44.3387" stroke="black" stroke-width="1.41635" stroke-linecap="round" stroke-linejoin="round"/>
</mask>
<g mask="url(#mask2_10087_11569)">
<path d="M320.43 31.5918H337.426V48.588H320.43V31.5918Z" fill="#424242"/>
</g>
<path d="M344.353 45.0898V34.4021H348.482C349.583 34.4021 350.523 34.5942 351.302 34.9785C352.081 35.3524 352.678 35.9341 353.093 36.7235C353.519 37.5025 353.732 38.51 353.732 39.746C353.732 40.9716 353.519 41.9791 353.093 42.7684C352.678 43.5578 352.081 44.1447 351.302 44.529C350.523 44.9029 349.583 45.0898 348.482 45.0898H344.353ZM346.098 43.5942H348.466C349.017 43.5942 349.505 43.5215 349.931 43.3761C350.367 43.2307 350.73 43.0073 351.021 42.7061C351.322 42.4049 351.546 42.0258 351.691 41.5688C351.847 41.1014 351.925 40.5509 351.925 39.9173V39.5902C351.925 38.9462 351.847 38.3957 351.691 37.9387C351.546 37.4713 351.322 37.087 351.021 36.7858C350.73 36.4846 350.367 36.2613 349.931 36.1159C349.505 35.9704 349.017 35.8977 348.466 35.8977H346.098V43.5942ZM357.603 45.2768C357.343 45.2768 357.063 45.2456 356.762 45.1833C356.46 45.121 356.175 45.0068 355.905 44.8406C355.645 44.6744 355.432 44.4459 355.266 44.1551C355.1 43.8538 355.017 43.4643 355.017 42.9866C355.017 42.4257 355.146 41.9635 355.406 41.6C355.666 41.2364 356.029 40.9508 356.497 40.7431C356.964 40.5353 357.52 40.3899 358.164 40.3068C358.818 40.2237 359.53 40.1822 360.298 40.1822V39.372C360.298 39.102 360.251 38.8631 360.158 38.6554C360.075 38.4476 359.914 38.2867 359.675 38.1724C359.446 38.0581 359.114 38.001 358.678 38.001C358.242 38.001 357.899 38.0581 357.65 38.1724C357.411 38.2763 357.239 38.4113 357.135 38.5775C357.042 38.7333 356.995 38.9047 356.995 39.0916V39.3253H355.437C355.427 39.2734 355.422 39.2214 355.422 39.1695C355.422 39.1176 355.422 39.0553 355.422 38.9826C355.422 38.4944 355.557 38.0841 355.827 37.7517C356.107 37.409 356.497 37.1493 356.995 36.9728C357.494 36.7962 358.07 36.7079 358.725 36.7079C359.431 36.7079 360.018 36.8118 360.485 37.0195C360.963 37.2168 361.321 37.5025 361.56 37.8764C361.799 38.2503 361.918 38.7021 361.918 39.2318V43.3916C361.918 43.589 361.965 43.7292 362.059 43.8123C362.163 43.8954 362.282 43.9369 362.417 43.9369H362.978V45.0275C362.853 45.0795 362.697 45.1314 362.51 45.1833C362.324 45.2353 362.105 45.2612 361.856 45.2612C361.576 45.2612 361.337 45.2093 361.139 45.1054C360.952 45.0119 360.797 44.8769 360.672 44.7003C360.558 44.5134 360.48 44.3057 360.438 44.0772H360.345C360.158 44.316 359.929 44.529 359.659 44.7159C359.4 44.8925 359.098 45.0275 358.756 45.121C358.413 45.2249 358.029 45.2768 357.603 45.2768ZM358.055 43.9369C358.377 43.9369 358.673 43.8902 358.943 43.7967C359.223 43.6929 359.462 43.5526 359.659 43.3761C359.857 43.1891 360.013 42.971 360.127 42.7217C360.241 42.462 360.298 42.1816 360.298 41.8804V41.3351C359.581 41.3351 358.953 41.3767 358.413 41.4597C357.873 41.5428 357.452 41.6986 357.151 41.9271C356.85 42.1453 356.699 42.4517 356.699 42.8463C356.699 43.0852 356.751 43.2878 356.855 43.454C356.959 43.6098 357.115 43.7292 357.322 43.8123C357.53 43.8954 357.774 43.9369 358.055 43.9369ZM366.138 45.2768C365.67 45.2768 365.301 45.1885 365.031 45.0119C364.772 44.825 364.585 44.5913 364.47 44.3109C364.367 44.02 364.315 43.7136 364.315 43.3916V38.2347H363.286V36.8949H364.346L364.642 34.6046H365.935V36.8949H367.415V38.2347H365.935V43.2047C365.935 43.4436 365.987 43.6253 366.091 43.75C366.195 43.8746 366.366 43.9369 366.605 43.9369H367.415V45.0275C367.311 45.0691 367.181 45.1054 367.026 45.1366C366.88 45.1781 366.73 45.2093 366.574 45.2301C366.418 45.2612 366.273 45.2768 366.138 45.2768ZM370.916 45.2768C370.656 45.2768 370.376 45.2456 370.074 45.1833C369.773 45.121 369.488 45.0068 369.217 44.8406C368.958 44.6744 368.745 44.4459 368.579 44.1551C368.413 43.8538 368.329 43.4643 368.329 42.9866C368.329 42.4257 368.459 41.9635 368.719 41.6C368.979 41.2364 369.342 40.9508 369.809 40.7431C370.277 40.5353 370.833 40.3899 371.477 40.3068C372.131 40.2237 372.842 40.1822 373.611 40.1822V39.372C373.611 39.102 373.564 38.8631 373.471 38.6554C373.388 38.4476 373.227 38.2867 372.988 38.1724C372.759 38.0581 372.427 38.001 371.991 38.001C371.554 38.001 371.212 38.0581 370.962 38.1724C370.724 38.2763 370.552 38.4113 370.448 38.5775C370.355 38.7333 370.308 38.9047 370.308 39.0916V39.3253H368.75C368.74 39.2734 368.734 39.2214 368.734 39.1695C368.734 39.1176 368.734 39.0553 368.734 38.9826C368.734 38.4944 368.87 38.0841 369.14 37.7517C369.42 37.409 369.809 37.1493 370.308 36.9728C370.807 36.7962 371.383 36.7079 372.037 36.7079C372.744 36.7079 373.331 36.8118 373.798 37.0195C374.276 37.2168 374.634 37.5025 374.873 37.8764C375.112 38.2503 375.231 38.7021 375.231 39.2318V43.3916C375.231 43.589 375.278 43.7292 375.371 43.8123C375.475 43.8954 375.595 43.9369 375.73 43.9369H376.291V45.0275C376.166 45.0795 376.01 45.1314 375.823 45.1833C375.636 45.2353 375.418 45.2612 375.169 45.2612C374.889 45.2612 374.65 45.2093 374.452 45.1054C374.265 45.0119 374.11 44.8769 373.985 44.7003C373.871 44.5134 373.793 44.3057 373.751 44.0772H373.658C373.471 44.316 373.242 44.529 372.972 44.7159C372.713 44.8925 372.411 45.0275 372.069 45.121C371.726 45.2249 371.342 45.2768 370.916 45.2768ZM371.367 43.9369C371.689 43.9369 371.985 43.8902 372.256 43.7967C372.536 43.6929 372.775 43.5526 372.972 43.3761C373.17 43.1891 373.325 42.971 373.44 42.7217C373.554 42.462 373.611 42.1816 373.611 41.8804V41.3351C372.894 41.3351 372.266 41.3767 371.726 41.4597C371.186 41.5428 370.765 41.6986 370.464 41.9271C370.163 42.1453 370.012 42.4517 370.012 42.8463C370.012 43.0852 370.064 43.2878 370.168 43.454C370.272 43.6098 370.427 43.7292 370.635 43.8123C370.843 43.8954 371.087 43.9369 371.367 43.9369ZM377.628 45.0898V34.4021H383.299C383.891 34.4021 384.41 34.5111 384.857 34.7293C385.303 34.937 385.651 35.2382 385.9 35.6329C386.16 36.0276 386.29 36.4898 386.29 37.0195C386.29 37.4246 386.212 37.7933 386.056 38.1257C385.911 38.458 385.703 38.7385 385.433 38.967C385.173 39.1955 384.877 39.3669 384.545 39.4811V39.5434C384.929 39.6265 385.272 39.7823 385.573 40.0108C385.885 40.2289 386.129 40.5198 386.305 40.8833C386.492 41.2364 386.586 41.6623 386.586 42.1608C386.586 42.836 386.435 43.3916 386.134 43.8279C385.843 44.2641 385.454 44.5861 384.966 44.7938C384.477 44.9912 383.922 45.0898 383.299 45.0898H377.628ZM379.372 43.5942H383.158C383.636 43.5942 384.026 43.4695 384.327 43.2203C384.638 42.9606 384.794 42.5451 384.794 41.9739C384.794 41.6311 384.727 41.3403 384.592 41.1014C384.467 40.8521 384.275 40.6652 384.015 40.5405C383.756 40.4055 383.428 40.338 383.034 40.338H379.372V43.5942ZM379.372 38.8735H382.894C383.226 38.8735 383.512 38.8112 383.75 38.6865C383.989 38.5619 384.171 38.3853 384.296 38.1568C384.431 37.9283 384.498 37.6738 384.498 37.3934C384.498 36.8845 384.358 36.5106 384.078 36.2717C383.808 36.0224 383.449 35.8977 383.003 35.8977H379.372V38.8735ZM390.421 45.2768C390.161 45.2768 389.881 45.2456 389.58 45.1833C389.278 45.121 388.993 45.0068 388.723 44.8406C388.463 44.6744 388.25 44.4459 388.084 44.1551C387.918 43.8538 387.835 43.4643 387.835 42.9866C387.835 42.4257 387.964 41.9635 388.224 41.6C388.484 41.2364 388.847 40.9508 389.315 40.7431C389.782 40.5353 390.338 40.3899 390.982 40.3068C391.636 40.2237 392.348 40.1822 393.116 40.1822V39.372C393.116 39.102 393.069 38.8631 392.976 38.6554C392.893 38.4476 392.732 38.2867 392.493 38.1724C392.264 38.0581 391.932 38.001 391.496 38.001C391.06 38.001 390.717 38.0581 390.468 38.1724C390.229 38.2763 390.057 38.4113 389.953 38.5775C389.86 38.7333 389.813 38.9047 389.813 39.0916V39.3253H388.255C388.245 39.2734 388.24 39.2214 388.24 39.1695C388.24 39.1176 388.24 39.0553 388.24 38.9826C388.24 38.4944 388.375 38.0841 388.645 37.7517C388.925 37.409 389.315 37.1493 389.813 36.9728C390.312 36.7962 390.888 36.7079 391.543 36.7079C392.249 36.7079 392.836 36.8118 393.303 37.0195C393.781 37.2168 394.139 37.5025 394.378 37.8764C394.617 38.2503 394.736 38.7021 394.736 39.2318V43.3916C394.736 43.589 394.783 43.7292 394.877 43.8123C394.981 43.8954 395.1 43.9369 395.235 43.9369H395.796V45.0275C395.671 45.0795 395.515 45.1314 395.329 45.1833C395.142 45.2353 394.923 45.2612 394.674 45.2612C394.394 45.2612 394.155 45.2093 393.958 45.1054C393.771 45.0119 393.615 44.8769 393.49 44.7003C393.376 44.5134 393.298 44.3057 393.256 44.0772H393.163C392.976 44.316 392.747 44.529 392.477 44.7159C392.218 44.8925 391.917 45.0275 391.574 45.121C391.231 45.2249 390.847 45.2768 390.421 45.2768ZM390.873 43.9369C391.195 43.9369 391.491 43.8902 391.761 43.7967C392.041 43.6929 392.28 43.5526 392.477 43.3761C392.675 43.1891 392.831 42.971 392.945 42.7217C393.059 42.462 393.116 42.1816 393.116 41.8804V41.3351C392.4 41.3351 391.771 41.3767 391.231 41.4597C390.691 41.5428 390.27 41.6986 389.969 41.9271C389.668 42.1453 389.517 42.4517 389.517 42.8463C389.517 43.0852 389.569 43.2878 389.673 43.454C389.777 43.6098 389.933 43.7292 390.14 43.8123C390.348 43.8954 390.592 43.9369 390.873 43.9369ZM399.937 45.2768C399.366 45.2768 398.862 45.2145 398.426 45.0898C397.99 44.9652 397.626 44.7938 397.335 44.5757C397.044 44.3576 396.821 44.0979 396.665 43.7967C396.52 43.4851 396.447 43.1424 396.447 42.7684C396.447 42.7165 396.447 42.6698 396.447 42.6282C396.458 42.5867 396.463 42.5503 396.463 42.5192H398.068C398.068 42.5503 398.068 42.5815 398.068 42.6127C398.068 42.6334 398.068 42.6594 398.068 42.6905C398.068 43.0125 398.156 43.2722 398.332 43.4695C398.509 43.6565 398.743 43.7915 399.033 43.8746C399.335 43.9473 399.662 43.9837 400.015 43.9837C400.327 43.9837 400.612 43.9473 400.872 43.8746C401.142 43.7915 401.36 43.6721 401.526 43.5163C401.703 43.3605 401.791 43.1631 401.791 42.9242C401.791 42.6127 401.682 42.3738 401.464 42.2076C401.246 42.0414 400.96 41.9116 400.607 41.8181C400.254 41.7142 399.885 41.6052 399.501 41.4909C399.158 41.3974 398.815 41.2988 398.473 41.1949C398.14 41.0806 397.839 40.9352 397.569 40.7587C397.299 40.5821 397.081 40.3588 396.915 40.0887C396.748 39.8187 396.665 39.4811 396.665 39.076C396.665 38.6917 396.748 38.3542 396.915 38.0633C397.081 37.7725 397.309 37.5284 397.6 37.3311C397.901 37.1337 398.254 36.9831 398.66 36.8793C399.075 36.7754 399.527 36.7235 400.015 36.7235C400.524 36.7235 400.976 36.7806 401.37 36.8949C401.765 36.9987 402.098 37.1493 402.368 37.3467C402.648 37.544 402.861 37.7829 403.006 38.0633C403.152 38.3334 403.224 38.6242 403.224 38.9358C403.224 38.9981 403.219 39.0656 403.209 39.1383C403.209 39.2007 403.209 39.2422 403.209 39.263H401.62V39.1228C401.62 38.915 401.563 38.7281 401.448 38.5619C401.334 38.3957 401.152 38.2607 400.903 38.1568C400.664 38.053 400.342 38.001 399.937 38.001C399.667 38.001 399.428 38.027 399.22 38.0789C399.013 38.1205 398.841 38.1828 398.706 38.2659C398.571 38.349 398.467 38.4476 398.395 38.5619C398.332 38.6761 398.301 38.806 398.301 38.9514C398.301 39.1903 398.384 39.3772 398.551 39.5123C398.727 39.6369 398.956 39.746 399.236 39.8394C399.516 39.9225 399.818 40.016 400.14 40.1199C400.514 40.2237 400.893 40.3328 401.277 40.4471C401.661 40.5509 402.014 40.6859 402.336 40.8521C402.669 41.0183 402.934 41.2468 403.131 41.5376C403.339 41.8285 403.443 42.218 403.443 42.7061C403.443 43.1528 403.354 43.5422 403.178 43.8746C403.001 44.207 402.752 44.477 402.43 44.6848C402.118 44.8821 401.75 45.0275 401.324 45.121C400.898 45.2249 400.436 45.2768 399.937 45.2768ZM408.481 45.2768C407.64 45.2768 406.934 45.1262 406.362 44.825C405.802 44.5134 405.376 44.0408 405.085 43.4072C404.794 42.7736 404.649 41.9687 404.649 40.9923C404.649 40.0056 404.794 39.2007 405.085 38.5775C405.376 37.9439 405.807 37.4765 406.378 37.1753C406.949 36.8637 407.661 36.7079 408.512 36.7079C409.291 36.7079 409.941 36.8585 410.46 37.1597C410.99 37.4505 411.39 37.8972 411.66 38.4996C411.93 39.102 412.065 39.8602 412.065 40.7742V41.3974H406.316C406.336 41.9791 406.425 42.4672 406.581 42.8619C406.736 43.2462 406.97 43.5319 407.282 43.7188C407.604 43.8954 408.009 43.9837 408.497 43.9837C408.798 43.9837 409.068 43.9473 409.307 43.8746C409.546 43.7915 409.748 43.6773 409.915 43.5319C410.081 43.3761 410.211 43.1943 410.304 42.9866C410.398 42.7684 410.444 42.5244 410.444 42.2543H412.034C412.034 42.7425 411.95 43.1735 411.784 43.5474C411.618 43.9214 411.374 44.2381 411.052 44.4978C410.74 44.7471 410.366 44.9392 409.93 45.0743C409.494 45.2093 409.011 45.2768 408.481 45.2768ZM406.347 40.2134H410.366C410.366 39.8083 410.32 39.4707 410.226 39.2007C410.143 38.9202 410.019 38.6917 409.852 38.5152C409.686 38.3386 409.489 38.2139 409.26 38.1412C409.032 38.0581 408.772 38.0166 408.481 38.0166C408.045 38.0166 407.671 38.0945 407.36 38.2503C407.058 38.4061 406.825 38.6502 406.658 38.9826C406.492 39.3045 406.388 39.7148 406.347 40.2134Z" fill="#424242"/>
<path d="M162.388 273.587V273.236C161.783 273.057 161.287 272.716 160.901 272.214C160.516 271.711 160.323 271.129 160.323 270.468C160.323 269.669 160.605 268.988 161.17 268.423C161.734 267.858 162.416 267.576 163.215 267.576C164.013 267.576 164.695 267.858 165.259 268.423C165.824 268.988 166.106 269.669 166.106 270.468C166.106 271.129 165.914 271.711 165.528 272.214C165.142 272.717 164.647 273.057 164.041 273.236V273.587L169.824 276.912C170.086 277.064 170.289 277.267 170.434 277.522C170.579 277.777 170.651 278.056 170.65 278.358V279.928C170.65 280.231 170.578 280.51 170.434 280.765C170.29 281.02 170.086 281.223 169.824 281.374L164.041 284.699C163.779 284.851 163.504 284.926 163.215 284.926C162.925 284.926 162.65 284.851 162.388 284.699L156.605 281.374C156.343 281.222 156.14 281.019 155.996 280.765C155.852 280.51 155.779 280.231 155.779 279.928V278.358C155.779 278.055 155.851 277.776 155.996 277.522C156.141 277.268 156.344 277.064 156.605 276.912L162.388 273.587ZM158.918 277.491L163.215 279.969L167.511 277.491L164.041 275.487V278.317H162.388V275.487L158.918 277.491Z" fill="#424242"/>
<path d="M187.587 284.936C185.139 284.936 183.251 284.286 181.921 282.987C180.607 281.673 179.95 279.641 179.95 276.891C179.95 275.063 180.267 273.56 180.902 272.381C181.536 271.188 182.458 270.304 183.666 269.73C184.875 269.141 186.325 268.846 188.017 268.846C189.03 268.846 189.981 268.96 190.873 269.186C191.764 269.413 192.55 269.76 193.23 270.229C193.925 270.697 194.461 271.286 194.839 271.996C195.231 272.691 195.428 273.522 195.428 274.489H192.006C192.006 274.021 191.9 273.605 191.689 273.243C191.492 272.88 191.213 272.578 190.85 272.336C190.488 272.094 190.072 271.913 189.604 271.792C189.135 271.671 188.644 271.611 188.131 271.611C187.345 271.611 186.658 271.717 186.069 271.928C185.479 272.125 184.988 272.434 184.596 272.857C184.218 273.265 183.931 273.779 183.734 274.398C183.538 275.018 183.44 275.735 183.44 276.551V277.231C183.44 278.364 183.606 279.293 183.938 280.018C184.271 280.744 184.769 281.287 185.434 281.65C186.099 281.998 186.922 282.171 187.904 282.171C188.72 282.171 189.438 282.05 190.057 281.809C190.692 281.552 191.183 281.189 191.53 280.721C191.893 280.253 192.074 279.679 192.074 278.999V278.84H187.428V276.257H195.428V284.664H193.207L192.912 282.987C192.459 283.425 191.968 283.788 191.439 284.075C190.926 284.362 190.352 284.573 189.717 284.709C189.083 284.86 188.372 284.936 187.587 284.936ZM201.564 284.936C201.171 284.936 200.748 284.891 200.295 284.8C199.856 284.709 199.441 284.551 199.048 284.324C198.655 284.082 198.331 283.742 198.074 283.304C197.832 282.851 197.711 282.277 197.711 281.582C197.711 280.751 197.892 280.064 198.255 279.52C198.618 278.976 199.131 278.553 199.796 278.251C200.476 277.934 201.284 277.715 202.221 277.594C203.157 277.473 204.192 277.412 205.325 277.412V276.529C205.325 276.181 205.265 275.879 205.144 275.622C205.038 275.365 204.842 275.161 204.555 275.01C204.283 274.859 203.898 274.784 203.399 274.784C202.901 274.784 202.493 274.844 202.175 274.965C201.873 275.086 201.654 275.244 201.518 275.441C201.397 275.622 201.337 275.826 201.337 276.053V276.325H198.278C198.263 276.249 198.255 276.181 198.255 276.121C198.255 276.045 198.255 275.954 198.255 275.849C198.255 275.154 198.466 274.557 198.89 274.058C199.313 273.545 199.909 273.152 200.68 272.88C201.45 272.608 202.349 272.472 203.377 272.472C204.479 272.472 205.401 272.616 206.141 272.903C206.897 273.19 207.471 273.613 207.863 274.172C208.271 274.731 208.475 275.433 208.475 276.279V281.695C208.475 281.967 208.551 282.171 208.702 282.307C208.868 282.428 209.049 282.489 209.246 282.489H209.994V284.551C209.843 284.626 209.608 284.702 209.291 284.777C208.974 284.868 208.589 284.913 208.135 284.913C207.697 284.913 207.305 284.845 206.957 284.709C206.625 284.589 206.345 284.415 206.119 284.188C205.892 283.946 205.733 283.659 205.643 283.327H205.484C205.227 283.644 204.91 283.924 204.532 284.166C204.17 284.407 203.739 284.596 203.241 284.732C202.757 284.868 202.198 284.936 201.564 284.936ZM202.629 282.557C203.052 282.557 203.429 282.496 203.762 282.375C204.094 282.239 204.374 282.066 204.6 281.854C204.827 281.627 205.001 281.355 205.121 281.038C205.257 280.721 205.325 280.381 205.325 280.018V279.361C204.479 279.361 203.724 279.422 203.059 279.543C202.395 279.648 201.866 279.837 201.473 280.109C201.095 280.381 200.906 280.759 200.906 281.242C200.906 281.514 200.974 281.748 201.11 281.945C201.246 282.141 201.443 282.292 201.7 282.398C201.956 282.504 202.266 282.557 202.629 282.557ZM211.559 284.664V272.744H214.165L214.414 274.376H214.573C214.83 273.983 215.132 273.643 215.48 273.356C215.842 273.069 216.242 272.85 216.681 272.699C217.134 272.548 217.617 272.472 218.131 272.472C218.886 272.472 219.536 272.623 220.08 272.925C220.639 273.228 221.069 273.711 221.372 274.376H221.53C221.787 273.983 222.097 273.643 222.459 273.356C222.822 273.069 223.237 272.85 223.706 272.699C224.174 272.548 224.673 272.472 225.201 272.472C225.957 272.472 226.606 272.608 227.15 272.88C227.709 273.152 228.147 273.598 228.465 274.217C228.782 274.821 228.941 275.607 228.941 276.574V284.664H225.791V277.14C225.791 276.763 225.745 276.445 225.655 276.189C225.579 275.917 225.466 275.705 225.315 275.554C225.164 275.388 224.975 275.267 224.748 275.192C224.522 275.116 224.28 275.078 224.023 275.078C223.6 275.078 223.222 275.192 222.89 275.418C222.558 275.645 222.293 275.954 222.097 276.347C221.915 276.74 221.825 277.193 221.825 277.707V284.664H218.675V277.14C218.675 276.763 218.63 276.445 218.539 276.189C218.463 275.917 218.35 275.705 218.199 275.554C218.048 275.388 217.859 275.267 217.632 275.192C217.421 275.116 217.179 275.078 216.907 275.078C216.499 275.078 216.122 275.192 215.774 275.418C215.442 275.645 215.177 275.954 214.981 276.347C214.8 276.74 214.709 277.193 214.709 277.707V284.664H211.559ZM237.158 284.936C235.844 284.936 234.741 284.717 233.85 284.279C232.958 283.826 232.286 283.138 231.833 282.217C231.379 281.295 231.153 280.124 231.153 278.704C231.153 277.269 231.379 276.098 231.833 275.192C232.286 274.27 232.951 273.59 233.827 273.152C234.718 272.699 235.806 272.472 237.09 272.472C238.299 272.472 239.319 272.691 240.15 273.129C240.98 273.552 241.607 274.217 242.03 275.124C242.453 276.015 242.665 277.171 242.665 278.591V279.407H234.348C234.378 280.102 234.484 280.691 234.665 281.174C234.862 281.658 235.156 282.02 235.549 282.262C235.957 282.489 236.493 282.602 237.158 282.602C237.521 282.602 237.846 282.557 238.133 282.466C238.435 282.375 238.692 282.239 238.903 282.058C239.115 281.877 239.281 281.65 239.402 281.378C239.523 281.106 239.583 280.796 239.583 280.449H242.665C242.665 281.204 242.529 281.862 242.257 282.421C241.985 282.98 241.607 283.448 241.124 283.826C240.641 284.188 240.059 284.468 239.379 284.664C238.714 284.845 237.974 284.936 237.158 284.936ZM234.393 277.412H239.424C239.424 276.959 239.364 276.566 239.243 276.234C239.137 275.902 238.986 275.63 238.79 275.418C238.593 275.207 238.352 275.056 238.065 274.965C237.793 274.859 237.483 274.806 237.136 274.806C236.561 274.806 236.078 274.904 235.685 275.101C235.307 275.282 235.013 275.569 234.801 275.962C234.605 276.34 234.469 276.823 234.393 277.412ZM245.248 284.664V269.118H253.769C254.917 269.118 255.869 269.322 256.624 269.73C257.395 270.138 257.969 270.712 258.346 271.452C258.724 272.178 258.913 273.016 258.913 273.968C258.913 274.98 258.686 275.879 258.233 276.665C257.78 277.435 257.123 278.024 256.262 278.432L259.434 284.664H255.695L252.953 278.999H248.625V284.664H245.248ZM248.625 276.325H253.316C253.995 276.325 254.524 276.121 254.902 275.713C255.28 275.29 255.468 274.723 255.468 274.013C255.468 273.56 255.385 273.175 255.219 272.857C255.053 272.525 254.811 272.276 254.494 272.11C254.177 271.943 253.784 271.86 253.316 271.86H248.625V276.325ZM266.68 284.936C265.366 284.936 264.263 284.717 263.372 284.279C262.48 283.826 261.808 283.138 261.355 282.217C260.901 281.295 260.675 280.124 260.675 278.704C260.675 277.269 260.901 276.098 261.355 275.192C261.808 274.27 262.473 273.59 263.349 273.152C264.24 272.699 265.328 272.472 266.612 272.472C267.821 272.472 268.841 272.691 269.672 273.129C270.502 273.552 271.129 274.217 271.552 275.124C271.975 276.015 272.187 277.171 272.187 278.591V279.407H263.87C263.9 280.102 264.006 280.691 264.187 281.174C264.384 281.658 264.678 282.02 265.071 282.262C265.479 282.489 266.015 282.602 266.68 282.602C267.043 282.602 267.368 282.557 267.655 282.466C267.957 282.375 268.214 282.239 268.425 282.058C268.637 281.877 268.803 281.65 268.924 281.378C269.045 281.106 269.105 280.796 269.105 280.449H272.187C272.187 281.204 272.051 281.862 271.779 282.421C271.507 282.98 271.129 283.448 270.646 283.826C270.163 284.188 269.581 284.468 268.901 284.664C268.236 284.845 267.496 284.936 266.68 284.936ZM263.915 277.412H268.946C268.946 276.959 268.886 276.566 268.765 276.234C268.659 275.902 268.508 275.63 268.312 275.418C268.115 275.207 267.874 275.056 267.587 274.965C267.315 274.859 267.005 274.806 266.658 274.806C266.083 274.806 265.6 274.904 265.207 275.101C264.829 275.282 264.535 275.569 264.323 275.962C264.127 276.34 263.991 276.823 263.915 277.412ZM279.733 284.936C278.464 284.936 277.399 284.717 276.538 284.279C275.676 283.826 275.019 283.138 274.566 282.217C274.128 281.28 273.909 280.109 273.909 278.704C273.909 277.269 274.128 276.098 274.566 275.192C275.019 274.27 275.676 273.583 276.538 273.129C277.414 272.676 278.479 272.449 279.733 272.449C280.549 272.449 281.281 272.548 281.931 272.744C282.596 272.94 283.17 273.243 283.653 273.651C284.137 274.058 284.499 274.565 284.741 275.169C284.998 275.758 285.126 276.461 285.126 277.276H281.976C281.976 276.733 281.893 276.287 281.727 275.939C281.561 275.592 281.304 275.327 280.957 275.146C280.624 274.965 280.201 274.874 279.688 274.874C279.083 274.874 278.592 275.01 278.215 275.282C277.837 275.554 277.557 275.954 277.376 276.483C277.195 277.012 277.104 277.669 277.104 278.455V278.976C277.104 279.747 277.195 280.396 277.376 280.925C277.572 281.454 277.867 281.854 278.26 282.126C278.653 282.383 279.166 282.511 279.801 282.511C280.315 282.511 280.738 282.421 281.07 282.239C281.417 282.058 281.682 281.786 281.863 281.423C282.044 281.061 282.135 280.623 282.135 280.109H285.126C285.126 280.88 284.998 281.567 284.741 282.171C284.499 282.776 284.137 283.282 283.653 283.69C283.185 284.098 282.618 284.407 281.954 284.619C281.289 284.83 280.549 284.936 279.733 284.936Z" fill="#424242"/>
<path d="M212.753 129.063C211.924 129.063 211.339 130.078 211.753 130.795L218.413 142.331C218.827 143.048 219.999 143.048 220.413 142.331L227.073 130.795C227.488 130.078 226.902 129.063 226.073 129.063H212.753ZM211.413 68.7471C211.413 73.1653 214.995 76.7471 219.413 76.7471C223.831 76.7471 227.413 73.1653 227.413 68.7471C227.413 64.3288 223.831 60.7471 219.413 60.7471C214.995 60.7471 211.413 64.3288 211.413 68.7471ZM220.913 130.563V68.7471H217.913V130.563H220.913Z" fill="url(#paint0_linear_10087_11569)"/>
<path d="M212.753 129.063C211.924 129.063 211.339 130.078 211.753 130.795L218.413 142.331C218.827 143.048 219.999 143.048 220.413 142.331L227.073 130.795C227.488 130.078 226.902 129.063 226.073 129.063H212.753ZM358.46 68.7471C358.46 73.1653 362.042 76.7471 366.46 76.7471C370.879 76.7471 374.46 73.1653 374.46 68.7471C374.46 64.3288 370.879 60.7471 366.46 60.7471C362.042 60.7471 358.46 64.3288 358.46 68.7471ZM366.46 78.7394L364.96 78.7394L366.46 78.7394ZM220.913 130.563V126.739H217.913V130.563H220.913ZM243.413 104.239H342.46V101.239H243.413V104.239ZM367.96 78.7394L367.96 68.7471L364.96 68.7471L364.96 78.7394L367.96 78.7394ZM342.46 104.239C356.543 104.239 367.96 92.8227 367.96 78.7394L364.96 78.7394C364.96 91.1658 354.887 101.239 342.46 101.239V104.239ZM220.913 126.739C220.913 114.313 230.987 104.239 243.413 104.239V101.239C229.33 101.239 217.913 112.656 217.913 126.739H220.913Z" fill="url(#paint1_linear_10087_11569)"/>
<path d="M212.753 129.062C211.924 129.062 211.339 130.077 211.753 130.794L218.413 142.33C218.827 143.048 219.999 143.048 220.413 142.33L227.073 130.794C227.487 130.077 226.902 129.062 226.073 129.062H212.753ZM63.8601 68.7471C63.8601 73.1653 67.4418 76.7471 71.8601 76.7471C76.2784 76.7471 79.8601 73.1653 79.8601 68.7471C79.8601 64.3288 76.2784 60.7471 71.8601 60.7471C67.4418 60.7471 63.8601 64.3288 63.8601 68.7471ZM220.913 130.562V126.74H217.913V130.562H220.913ZM195.413 101.24H95.8601V104.24H195.413V101.24ZM73.3601 78.7396V68.7471H70.3601V78.7396H73.3601ZM95.8601 101.24C83.4337 101.24 73.3601 91.166 73.3601 78.7396H70.3601C70.3601 92.8229 81.7769 104.24 95.8601 104.24V101.24ZM220.913 126.74C220.913 112.656 209.496 101.24 195.413 101.24V104.24C207.839 104.24 217.913 114.313 217.913 126.74H220.913Z" fill="url(#paint2_linear_10087_11569)"/>
<path d="M212.854 231.041C212.026 231.041 211.44 232.056 211.854 232.773L218.515 244.309C218.929 245.026 220.1 245.026 220.515 244.309L227.175 232.773C227.589 232.056 227.003 231.041 226.175 231.041H212.854ZM211.515 193.387C211.515 197.805 215.096 201.387 219.515 201.387C223.933 201.387 227.515 197.805 227.515 193.387C227.515 188.968 223.933 185.387 219.515 185.387C215.096 185.387 211.515 188.968 211.515 193.387ZM221.015 232.541V193.387H218.015V232.541H221.015Z" fill="url(#paint3_linear_10087_11569)"/>
<defs>
<linearGradient id="paint0_linear_10087_11569" x1="1.2714e+10" y1="78.4103" x2="1.2714e+10" y2="344.73" gradientUnits="userSpaceOnUse">
<stop stop-color="#DDDDDD"/>
<stop offset="0.205" stop-color="#F0F0F0"/>
</linearGradient>
<linearGradient id="paint1_linear_10087_11569" x1="3829.18" y1="78.4103" x2="3829.18" y2="344.73" gradientUnits="userSpaceOnUse">
<stop stop-color="#DDDDDD"/>
<stop offset="0.205" stop-color="#F0F0F0"/>
</linearGradient>
<linearGradient id="paint2_linear_10087_11569" x1="3656.15" y1="78.7769" x2="3656.15" y2="345.094" gradientUnits="userSpaceOnUse">
<stop stop-color="#DDDDDD"/>
<stop offset="0.205" stop-color="#F0F0F0"/>
</linearGradient>
<linearGradient id="paint3_linear_10087_11569" x1="1.27096e+10" y1="228.561" x2="1.27096e+10" y2="1006.23" gradientUnits="userSpaceOnUse">
<stop stop-color="#DDDDDD"/>
<stop offset="0.205" stop-color="#F0F0F0"/>
</linearGradient>
<clipPath id="clip0_10087_11569">
<rect width="16.9962" height="16.9962" fill="white" transform="translate(25.8289 31.5918)"/>
</clipPath>
<clipPath id="clip1_10087_11569">
<rect width="16.9962" height="16.9962" fill="white" transform="translate(173.129 31.5918)"/>
</clipPath>
</defs>
</svg>
