<svg width="688" height="330" viewBox="0 0 688 330" fill="none" xmlns="http://www.w3.org/2000/svg">
<rect width="688" height="330" transform="translate(0 0.00585938)" fill="white"/>
<g filter="url(#filter0_d_10180_12789)">
<path d="M223.529 267.081C260.39 267.081 290.272 237.199 290.272 200.338C290.272 163.477 260.39 133.596 223.529 133.596C186.668 133.596 156.787 163.477 156.787 200.338C156.787 237.199 186.668 267.081 223.529 267.081Z" fill="#343434"/>
<path d="M223.529 267.081C260.39 267.081 290.272 237.199 290.272 200.338C290.272 163.477 260.39 133.596 223.529 133.596C186.668 133.596 156.787 163.477 156.787 200.338C156.787 237.199 186.668 267.081 223.529 267.081Z" stroke="#31AEC4" stroke-width="3.03375" stroke-linecap="round"/>
</g>
<path d="M185.94 206.787H183.997L188.364 194.652H190.479L194.846 206.787H192.902L189.472 196.856H189.377L185.94 206.787ZM186.266 202.035H192.57V203.576H186.266V202.035ZM199.533 206.965C198.798 206.965 198.142 206.777 197.566 206.402C196.993 206.023 196.543 205.484 196.215 204.784C195.891 204.081 195.729 203.238 195.729 202.254C195.729 201.271 195.893 200.429 196.221 199.73C196.552 199.031 197.007 198.496 197.583 198.124C198.16 197.754 198.814 197.568 199.545 197.568C200.11 197.568 200.564 197.663 200.908 197.852C201.255 198.038 201.524 198.255 201.713 198.504C201.907 198.752 202.057 198.972 202.164 199.161H202.27V194.652H204.042V206.787H202.312V205.371H202.164C202.057 205.565 201.903 205.786 201.701 206.035C201.504 206.284 201.231 206.501 200.884 206.686C200.536 206.872 200.086 206.965 199.533 206.965ZM199.924 205.454C200.434 205.454 200.864 205.32 201.216 205.051C201.571 204.779 201.84 204.401 202.021 203.92C202.207 203.437 202.3 202.877 202.3 202.237C202.3 201.605 202.209 201.051 202.027 200.577C201.846 200.103 201.579 199.735 201.227 199.47C200.876 199.205 200.441 199.073 199.924 199.073C199.391 199.073 198.946 199.211 198.591 199.487C198.235 199.764 197.967 200.141 197.785 200.619C197.607 201.097 197.518 201.636 197.518 202.237C197.518 202.845 197.609 203.392 197.791 203.878C197.973 204.364 198.241 204.749 198.597 205.033C198.956 205.314 199.399 205.454 199.924 205.454ZM209.794 206.965C209.06 206.965 208.404 206.777 207.827 206.402C207.254 206.023 206.804 205.484 206.476 204.784C206.152 204.081 205.99 203.238 205.99 202.254C205.99 201.271 206.154 200.429 206.482 199.73C206.814 199.031 207.268 198.496 207.845 198.124C208.421 197.754 209.075 197.568 209.806 197.568C210.371 197.568 210.825 197.663 211.169 197.852C211.516 198.038 211.785 198.255 211.974 198.504C212.168 198.752 212.318 198.972 212.425 199.161H212.532V194.652H214.303V206.787H212.573V205.371H212.425C212.318 205.565 212.164 205.786 211.963 206.035C211.765 206.284 211.493 206.501 211.145 206.686C210.797 206.872 210.347 206.965 209.794 206.965ZM210.185 205.454C210.695 205.454 211.126 205.32 211.477 205.051C211.833 204.779 212.101 204.401 212.283 203.92C212.468 203.437 212.561 202.877 212.561 202.237C212.561 201.605 212.47 201.051 212.288 200.577C212.107 200.103 211.84 199.735 211.489 199.47C211.137 199.205 210.702 199.073 210.185 199.073C209.652 199.073 209.208 199.211 208.852 199.487C208.496 199.764 208.228 200.141 208.046 200.619C207.868 201.097 207.779 201.636 207.779 202.237C207.779 202.845 207.87 203.392 208.052 203.878C208.234 204.364 208.502 204.749 208.858 205.033C209.217 205.314 209.66 205.454 210.185 205.454ZM224.696 210.39C223.974 210.39 223.352 210.295 222.83 210.105C222.313 209.916 221.89 209.665 221.562 209.353C221.234 209.041 220.989 208.699 220.828 208.328L222.35 207.7C222.457 207.873 222.599 208.057 222.777 208.251C222.958 208.448 223.203 208.616 223.512 208.755C223.823 208.893 224.225 208.962 224.715 208.962C225.386 208.962 225.941 208.798 226.379 208.47C226.818 208.146 227.037 207.628 227.037 206.918V205.128H226.925C226.818 205.322 226.664 205.537 226.462 205.774C226.265 206.011 225.992 206.216 225.644 206.391C225.297 206.564 224.844 206.651 224.288 206.651C223.569 206.651 222.921 206.483 222.344 206.147C221.771 205.807 221.317 205.308 220.982 204.649C220.649 203.985 220.483 203.169 220.483 202.201C220.483 201.233 220.648 200.404 220.975 199.713C221.307 199.021 221.761 198.492 222.338 198.124C222.915 197.754 223.569 197.568 224.3 197.568C224.865 197.568 225.321 197.663 225.668 197.852C226.016 198.038 226.287 198.255 226.48 198.504C226.677 198.752 226.83 198.972 226.936 199.161H227.066V197.686H228.803V206.989C228.803 207.771 228.621 208.413 228.257 208.915C227.894 209.416 227.402 209.788 226.782 210.028C226.166 210.269 225.471 210.39 224.696 210.39ZM224.679 205.182C225.189 205.182 225.619 205.063 225.971 204.826C226.326 204.585 226.595 204.241 226.776 203.795C226.962 203.345 227.055 202.806 227.055 202.178C227.055 201.565 226.964 201.026 226.782 200.56C226.601 200.093 226.334 199.73 225.982 199.47C225.631 199.205 225.196 199.073 224.679 199.073C224.146 199.073 223.701 199.211 223.346 199.487C222.99 199.76 222.721 200.131 222.539 200.602C222.362 201.072 222.273 201.597 222.273 202.178C222.273 202.774 222.364 203.297 222.545 203.748C222.727 204.198 222.996 204.549 223.352 204.803C223.711 205.055 224.153 205.182 224.679 205.182ZM233.644 206.989C233.067 206.989 232.545 206.882 232.08 206.669C231.613 206.451 231.244 206.137 230.972 205.727C230.703 205.316 230.569 204.812 230.569 204.215C230.569 203.702 230.668 203.28 230.865 202.947C231.063 202.616 231.329 202.354 231.665 202.159C232.001 201.966 232.376 201.82 232.79 201.721C233.205 201.622 233.628 201.547 234.059 201.496C234.604 201.433 235.046 201.381 235.386 201.342C235.726 201.299 235.973 201.23 236.127 201.135C236.281 201.04 236.357 200.886 236.357 200.672V200.631C236.357 200.114 236.212 199.713 235.919 199.428C235.631 199.144 235.2 199.001 234.627 199.001C234.031 199.001 233.561 199.134 233.217 199.399C232.878 199.66 232.643 199.949 232.512 200.269L230.847 199.89C231.044 199.337 231.333 198.891 231.712 198.551C232.096 198.207 232.536 197.958 233.034 197.804C233.531 197.647 234.055 197.568 234.604 197.568C234.967 197.568 235.352 197.611 235.759 197.698C236.17 197.781 236.553 197.935 236.909 198.16C237.268 198.385 237.562 198.707 237.792 199.126C238.021 199.54 238.135 200.08 238.135 200.743V206.787H236.405V205.543H236.334C236.219 205.772 236.047 205.997 235.818 206.219C235.589 206.44 235.295 206.624 234.935 206.77C234.576 206.916 234.146 206.989 233.644 206.989ZM234.029 205.567C234.519 205.567 234.938 205.47 235.285 205.277C235.637 205.083 235.903 204.83 236.085 204.518C236.271 204.202 236.363 203.864 236.363 203.505V202.332C236.3 202.394 236.178 202.454 235.996 202.509C235.818 202.561 235.615 202.606 235.386 202.646C235.157 202.681 234.934 202.715 234.716 202.746C234.499 202.774 234.317 202.798 234.172 202.818C233.827 202.861 233.513 202.934 233.229 203.037C232.949 203.139 232.724 203.287 232.554 203.481C232.388 203.671 232.305 203.923 232.305 204.24C232.305 204.678 232.467 205.01 232.79 205.235C233.114 205.456 233.528 205.567 234.029 205.567ZM240.311 206.787V197.686H242.012V199.167H242.124C242.314 198.666 242.624 198.275 243.055 197.994C243.485 197.71 244.001 197.568 244.602 197.568C245.21 197.568 245.719 197.71 246.13 197.994C246.545 198.278 246.851 198.67 247.048 199.167H247.143C247.361 198.681 247.706 198.294 248.18 198.006C248.654 197.713 249.219 197.568 249.875 197.568C250.7 197.568 251.374 197.826 251.895 198.344C252.421 198.861 252.683 199.641 252.683 200.684V206.787H250.912V200.85C250.912 200.234 250.744 199.788 250.408 199.511C250.072 199.235 249.672 199.096 249.205 199.096C248.629 199.096 248.18 199.274 247.861 199.629C247.54 199.981 247.38 200.433 247.38 200.987V206.787H245.615V200.737C245.615 200.244 245.46 199.847 245.152 199.547C244.844 199.246 244.443 199.096 243.949 199.096C243.614 199.096 243.304 199.186 243.019 199.363C242.739 199.537 242.511 199.779 242.338 200.092C242.168 200.404 242.083 200.765 242.083 201.176V206.787H240.311ZM258.797 206.971C257.9 206.971 257.128 206.78 256.48 206.396C255.836 206.009 255.339 205.466 254.987 204.767C254.639 204.064 254.466 203.24 254.466 202.296C254.466 201.364 254.639 200.542 254.987 199.831C255.339 199.12 255.829 198.565 256.457 198.166C257.088 197.767 257.827 197.568 258.673 197.568C259.186 197.568 259.684 197.653 260.165 197.823C260.648 197.992 261.08 198.259 261.463 198.622C261.846 198.986 262.149 199.458 262.37 200.039C262.591 200.615 262.702 201.316 262.702 202.142V202.77H255.467V201.443H260.966C260.966 200.977 260.871 200.564 260.681 200.204C260.492 199.841 260.225 199.555 259.881 199.345C259.541 199.135 259.142 199.031 258.684 199.031C258.187 199.031 257.752 199.154 257.38 199.399C257.013 199.64 256.729 199.955 256.527 200.347C256.33 200.733 256.231 201.154 256.231 201.609V202.646C256.231 203.254 256.338 203.771 256.551 204.198C256.768 204.624 257.071 204.95 257.458 205.176C257.845 205.397 258.297 205.507 258.815 205.507C259.151 205.507 259.456 205.46 259.733 205.365C260.01 205.267 260.249 205.12 260.45 204.927C260.652 204.733 260.806 204.495 260.912 204.21L262.589 204.512C262.455 205.006 262.214 205.438 261.867 205.81C261.522 206.177 261.09 206.463 260.569 206.669C260.051 206.87 259.461 206.971 258.797 206.971Z" fill="white"/>
<g filter="url(#filter1_d_10180_12789)">
<path d="M480.078 88.0215H483.86L489.624 98.0514H489.86L495.624 88.0215H499.405L491.401 101.423V110.085H488.083V101.423L480.078 88.0215Z" fill="#191617"/>
</g>
<g filter="url(#filter2_d_10180_12789)">
<path d="M486.522 134.928C488.3 133.151 491.18 133.151 492.958 134.928L555.15 197.12C556.927 198.898 556.927 201.779 555.15 203.556L492.958 265.748C491.18 267.525 488.3 267.525 486.522 265.748L424.33 203.556C422.553 201.779 422.553 198.898 424.33 197.12L486.522 134.928Z" fill="white" shape-rendering="crispEdges"/>
<path d="M486.522 134.928C488.3 133.151 491.18 133.151 492.958 134.928L555.15 197.12C556.927 198.898 556.927 201.779 555.15 203.556L492.958 265.748C491.18 267.525 488.3 267.525 486.522 265.748L424.33 203.556C422.553 201.779 422.553 198.898 424.33 197.12L486.522 134.928Z" stroke="#DDDDDD" stroke-opacity="0.2" stroke-width="3.03375" stroke-linecap="round" shape-rendering="crispEdges"/>
</g>
<path d="M462.197 195.788H460.783L463.96 186.963H465.498L468.674 195.788H467.26L464.765 188.565H464.697L462.197 195.788ZM462.434 192.332H467.019V193.452H462.434V192.332ZM472.082 195.917C471.548 195.917 471.071 195.781 470.652 195.508C470.236 195.232 469.908 194.84 469.67 194.332C469.434 193.82 469.316 193.207 469.316 192.491C469.316 191.776 469.435 191.164 469.674 190.656C469.915 190.147 470.245 189.758 470.665 189.488C471.084 189.218 471.56 189.083 472.092 189.083C472.502 189.083 472.832 189.152 473.083 189.29C473.335 189.425 473.53 189.583 473.668 189.764C473.809 189.944 473.919 190.104 473.996 190.242H474.073V186.963H475.362V195.788H474.104V194.758H473.996C473.919 194.899 473.806 195.06 473.66 195.24C473.516 195.422 473.318 195.579 473.065 195.714C472.812 195.849 472.485 195.917 472.082 195.917ZM472.367 194.819C472.738 194.819 473.051 194.721 473.307 194.525C473.565 194.327 473.76 194.053 473.893 193.702C474.028 193.352 474.095 192.944 474.095 192.478C474.095 192.019 474.029 191.617 473.897 191.272C473.765 190.927 473.57 190.659 473.315 190.466C473.059 190.273 472.744 190.177 472.367 190.177C471.979 190.177 471.656 190.278 471.398 190.479C471.139 190.68 470.943 190.955 470.811 191.302C470.682 191.65 470.618 192.042 470.618 192.478C470.618 192.921 470.684 193.319 470.816 193.672C470.948 194.025 471.143 194.305 471.402 194.512C471.663 194.716 471.985 194.819 472.367 194.819ZM479.545 195.917C479.011 195.917 478.534 195.781 478.115 195.508C477.698 195.232 477.371 194.84 477.132 194.332C476.897 193.82 476.779 193.207 476.779 192.491C476.779 191.776 476.898 191.164 477.137 190.656C477.378 190.147 477.708 189.758 478.128 189.488C478.547 189.218 479.023 189.083 479.554 189.083C479.965 189.083 480.296 189.152 480.545 189.29C480.798 189.425 480.993 189.583 481.131 189.764C481.272 189.944 481.381 190.104 481.459 190.242H481.536V186.963H482.825V195.788H481.567V194.758H481.459C481.381 194.899 481.269 195.06 481.123 195.24C480.979 195.422 480.781 195.579 480.528 195.714C480.275 195.849 479.947 195.917 479.545 195.917ZM479.83 194.819C480.201 194.819 480.513 194.721 480.77 194.525C481.028 194.327 481.223 194.053 481.355 193.702C481.49 193.352 481.558 192.944 481.558 192.478C481.558 192.019 481.492 191.617 481.36 191.272C481.228 190.927 481.033 190.659 480.778 190.466C480.522 190.273 480.206 190.177 479.83 190.177C479.442 190.177 479.118 190.278 478.861 190.479C478.602 190.68 478.406 190.955 478.274 191.302C478.145 191.65 478.08 192.042 478.08 192.478C478.08 192.921 478.146 193.319 478.279 193.672C478.411 194.025 478.606 194.305 478.864 194.512C479.126 194.716 479.448 194.819 479.83 194.819ZM487.608 195.788V189.169H488.845V190.246H488.927C489.065 189.881 489.291 189.597 489.604 189.393C489.916 189.186 490.292 189.083 490.729 189.083C491.171 189.083 491.542 189.186 491.84 189.393C492.142 189.6 492.365 189.884 492.508 190.246H492.577C492.735 189.893 492.986 189.611 493.331 189.402C493.676 189.189 494.087 189.083 494.563 189.083C495.164 189.083 495.654 189.271 496.033 189.647C496.415 190.024 496.606 190.591 496.606 191.35V195.788H495.318V191.47C495.318 191.022 495.196 190.697 494.952 190.496C494.707 190.295 494.415 190.195 494.076 190.195C493.657 190.195 493.331 190.324 493.099 190.582C492.866 190.838 492.749 191.167 492.749 191.57V195.788H491.465V191.388C491.465 191.029 491.353 190.741 491.129 190.522C490.905 190.304 490.613 190.195 490.255 190.195C490.01 190.195 489.784 190.259 489.578 190.389C489.374 190.515 489.209 190.691 489.082 190.919C488.958 191.146 488.897 191.408 488.897 191.707V195.788H487.608ZM500.988 195.922C500.367 195.922 499.825 195.78 499.363 195.495C498.901 195.211 498.541 194.813 498.286 194.302C498.03 193.79 497.902 193.193 497.902 192.509C497.902 191.822 498.03 191.222 498.286 190.707C498.541 190.193 498.901 189.794 499.363 189.51C499.825 189.225 500.367 189.083 500.988 189.083C501.608 189.083 502.15 189.225 502.613 189.51C503.075 189.794 503.434 190.193 503.689 190.707C503.945 191.222 504.073 191.822 504.073 192.509C504.073 193.193 503.945 193.79 503.689 194.302C503.434 194.813 503.075 195.211 502.613 195.495C502.15 195.78 501.608 195.922 500.988 195.922ZM500.992 194.84C501.394 194.84 501.727 194.734 501.992 194.521C502.256 194.308 502.452 194.025 502.578 193.672C502.707 193.319 502.772 192.93 502.772 192.504C502.772 192.082 502.707 191.694 502.578 191.341C502.452 190.985 502.256 190.699 501.992 190.484C501.727 190.268 501.394 190.16 500.992 190.16C500.587 190.16 500.251 190.268 499.984 190.484C499.719 190.699 499.523 190.985 499.393 191.341C499.267 191.694 499.203 192.082 499.203 192.504C499.203 192.93 499.267 193.319 499.393 193.672C499.523 194.025 499.719 194.308 499.984 194.521C500.251 194.734 500.587 194.84 500.992 194.84ZM505.378 195.788V189.169H506.623V190.22H506.692C506.813 189.864 507.026 189.584 507.33 189.38C507.637 189.173 507.985 189.07 508.373 189.07C508.453 189.07 508.548 189.073 508.657 189.078C508.769 189.084 508.857 189.091 508.92 189.1V190.333C508.868 190.318 508.776 190.302 508.644 190.285C508.512 190.265 508.38 190.255 508.248 190.255C507.944 190.255 507.672 190.32 507.433 190.449C507.198 190.575 507.011 190.752 506.873 190.979C506.735 191.203 506.666 191.459 506.666 191.746V195.788H505.378ZM512.518 195.922C511.865 195.922 511.303 195.782 510.832 195.504C510.364 195.222 510.002 194.827 509.746 194.318C509.494 193.807 509.367 193.208 509.367 192.521C509.367 191.843 509.494 191.246 509.746 190.729C510.002 190.212 510.358 189.809 510.815 189.518C511.275 189.228 511.812 189.083 512.427 189.083C512.801 189.083 513.162 189.145 513.513 189.268C513.863 189.391 514.178 189.586 514.456 189.85C514.735 190.114 514.955 190.458 515.116 190.879C515.277 191.299 515.357 191.809 515.357 192.409V192.867H510.095V191.901H514.094C514.094 191.562 514.025 191.262 513.887 191.001C513.75 190.736 513.556 190.528 513.306 190.376C513.059 190.223 512.769 190.147 512.436 190.147C512.073 190.147 511.758 190.236 511.488 190.415C511.22 190.59 511.014 190.82 510.867 191.104C510.723 191.385 510.651 191.691 510.651 192.022V192.776C510.651 193.218 510.729 193.595 510.884 193.905C511.043 194.215 511.262 194.452 511.544 194.616C511.825 194.777 512.154 194.857 512.531 194.857C512.775 194.857 512.997 194.823 513.198 194.754C513.4 194.682 513.573 194.576 513.72 194.435C513.866 194.294 513.978 194.12 514.056 193.913L515.275 194.133C515.178 194.493 515.002 194.807 514.75 195.077C514.5 195.344 514.185 195.552 513.806 195.702C513.429 195.849 513 195.922 512.518 195.922ZM471.152 216.611C470.626 216.611 470.173 216.542 469.794 216.404C469.418 216.266 469.111 216.083 468.872 215.856C468.634 215.63 468.456 215.381 468.338 215.111L469.445 214.654C469.523 214.781 469.627 214.914 469.756 215.055C469.887 215.199 470.066 215.321 470.29 215.421C470.517 215.522 470.808 215.572 471.165 215.572C471.653 215.572 472.057 215.453 472.376 215.215C472.694 214.979 472.854 214.603 472.854 214.085V212.784H472.773C472.694 212.925 472.583 213.081 472.436 213.253C472.292 213.426 472.095 213.576 471.841 213.702C471.589 213.828 471.259 213.891 470.854 213.891C470.332 213.891 469.86 213.769 469.441 213.525C469.024 213.278 468.694 212.914 468.45 212.435C468.208 211.952 468.088 211.359 468.088 210.655C468.088 209.951 468.208 209.348 468.446 208.845C468.687 208.342 469.018 207.957 469.437 207.69C469.856 207.42 470.332 207.285 470.863 207.285C471.274 207.285 471.606 207.354 471.859 207.492C472.111 207.627 472.308 207.785 472.449 207.966C472.593 208.147 472.704 208.307 472.781 208.445H472.876V207.372H474.139V214.137C474.139 214.706 474.006 215.173 473.742 215.538C473.477 215.903 473.12 216.173 472.669 216.348C472.22 216.523 471.715 216.611 471.152 216.611ZM471.139 212.823C471.51 212.823 471.823 212.737 472.079 212.564C472.337 212.389 472.532 212.139 472.664 211.815C472.799 211.487 472.867 211.095 472.867 210.638C472.867 210.192 472.801 209.8 472.669 209.461C472.537 209.122 472.343 208.858 472.087 208.669C471.831 208.476 471.515 208.38 471.139 208.38C470.751 208.38 470.428 208.481 470.17 208.681C469.911 208.879 469.715 209.149 469.583 209.491C469.454 209.834 469.389 210.216 469.389 210.638C469.389 211.072 469.455 211.452 469.588 211.78C469.72 212.107 469.915 212.363 470.173 212.547C470.435 212.731 470.757 212.823 471.139 212.823ZM477.659 214.137C477.24 214.137 476.861 214.06 476.522 213.904C476.183 213.746 475.914 213.518 475.715 213.219C475.52 212.92 475.423 212.554 475.423 212.12C475.423 211.747 475.495 211.439 475.638 211.198C475.781 210.957 475.975 210.766 476.22 210.625C476.464 210.484 476.737 210.378 477.039 210.306C477.34 210.234 477.648 210.179 477.961 210.142C478.357 210.097 478.679 210.059 478.926 210.03C479.173 209.999 479.353 209.948 479.464 209.88C479.576 209.811 479.633 209.699 479.633 209.543V209.513C479.633 209.137 479.526 208.845 479.314 208.638C479.104 208.431 478.791 208.328 478.374 208.328C477.941 208.328 477.598 208.424 477.349 208.617C477.102 208.807 476.931 209.017 476.836 209.25L475.625 208.974C475.768 208.572 475.978 208.248 476.255 208C476.533 207.751 476.853 207.57 477.215 207.457C477.577 207.343 477.958 207.285 478.357 207.285C478.622 207.285 478.901 207.317 479.197 207.38C479.496 207.441 479.775 207.552 480.033 207.716C480.295 207.88 480.509 208.114 480.675 208.418C480.842 208.72 480.926 209.112 480.926 209.595V213.991H479.668V213.086H479.615C479.533 213.253 479.407 213.416 479.241 213.577C479.074 213.738 478.86 213.871 478.598 213.978C478.337 214.084 478.024 214.137 477.659 214.137ZM477.939 213.103C478.296 213.103 478.6 213.033 478.853 212.892C479.109 212.751 479.302 212.567 479.435 212.34C479.57 212.11 479.637 211.865 479.637 211.603V210.75C479.591 210.796 479.502 210.839 479.369 210.879C479.241 210.917 479.093 210.95 478.926 210.978C478.76 211.004 478.597 211.029 478.439 211.052C478.281 211.072 478.149 211.089 478.042 211.103C477.793 211.135 477.564 211.188 477.357 211.262C477.153 211.338 476.989 211.445 476.866 211.586C476.745 211.724 476.685 211.908 476.685 212.138C476.685 212.456 476.803 212.697 477.039 212.861C477.274 213.022 477.574 213.103 477.939 213.103ZM482.508 213.991V207.372H483.745V208.449H483.827C483.965 208.084 484.19 207.799 484.503 207.595C484.817 207.388 485.191 207.285 485.628 207.285C486.07 207.285 486.441 207.388 486.74 207.595C487.042 207.802 487.264 208.087 487.408 208.449H487.477C487.635 208.095 487.886 207.814 488.231 207.605C488.575 207.391 488.986 207.285 489.463 207.285C490.064 207.285 490.553 207.473 490.933 207.849C491.315 208.226 491.506 208.794 491.506 209.552V213.991H490.217V209.673C490.217 209.225 490.095 208.9 489.851 208.699C489.607 208.498 489.316 208.397 488.977 208.397C488.557 208.397 488.231 208.526 487.998 208.785C487.765 209.04 487.649 209.369 487.649 209.772V213.991H486.365V209.591C486.365 209.231 486.253 208.943 486.029 208.725C485.805 208.506 485.514 208.397 485.154 208.397C484.91 208.397 484.685 208.462 484.478 208.591C484.274 208.717 484.108 208.894 483.982 209.121C483.859 209.348 483.796 209.611 483.796 209.909V213.991H482.508ZM495.952 214.124C495.3 214.124 494.738 213.984 494.267 213.706C493.799 213.425 493.437 213.03 493.181 212.521C492.929 212.01 492.802 211.41 492.802 210.724C492.802 210.046 492.929 209.448 493.181 208.932C493.437 208.415 493.793 208.011 494.25 207.721C494.71 207.43 495.247 207.285 495.862 207.285C496.236 207.285 496.597 207.347 496.948 207.47C497.298 207.594 497.613 207.788 497.891 208.052C498.17 208.317 498.39 208.66 498.551 209.082C498.712 209.501 498.792 210.012 498.792 210.612V211.069H493.53V210.104H497.529C497.529 209.765 497.46 209.464 497.322 209.203C497.184 208.939 496.991 208.73 496.741 208.578C496.493 208.426 496.204 208.349 495.87 208.349C495.508 208.349 495.193 208.439 494.922 208.617C494.655 208.792 494.448 209.022 494.302 209.306C494.158 209.588 494.086 209.893 494.086 210.224V210.978C494.086 211.421 494.164 211.797 494.319 212.107C494.477 212.418 494.697 212.655 494.978 212.819C495.26 212.98 495.589 213.06 495.965 213.06C496.209 213.06 496.432 213.025 496.633 212.956C496.834 212.885 497.008 212.779 497.155 212.638C497.301 212.496 497.413 212.323 497.491 212.116L498.71 212.336C498.613 212.695 498.437 213.009 498.185 213.279C497.934 213.547 497.62 213.755 497.241 213.904C496.864 214.051 496.435 214.124 495.952 214.124ZM505.048 208.987L503.881 209.194C503.831 209.045 503.754 208.903 503.648 208.768C503.544 208.633 503.404 208.522 503.225 208.436C503.047 208.349 502.825 208.307 502.557 208.307C502.192 208.307 501.888 208.389 501.644 208.553C501.4 208.713 501.278 208.921 501.278 209.177C501.278 209.398 501.36 209.576 501.523 209.711C501.687 209.846 501.951 209.957 502.316 210.043L503.368 210.285C503.977 210.425 504.43 210.642 504.729 210.936C505.028 211.228 505.178 211.609 505.178 212.077C505.178 212.474 505.062 212.827 504.832 213.137C504.606 213.444 504.289 213.686 503.881 213.862C503.476 214.037 503.005 214.124 502.471 214.124C501.73 214.124 501.125 213.966 500.657 213.65C500.189 213.331 499.901 212.879 499.795 212.292L501.04 212.103C501.118 212.427 501.278 212.673 501.519 212.84C501.76 213.004 502.075 213.086 502.462 213.086C502.885 213.086 503.222 212.998 503.476 212.823C503.728 212.644 503.855 212.427 503.855 212.172C503.855 211.966 503.777 211.791 503.622 211.651C503.47 211.51 503.235 211.404 502.92 211.331L501.799 211.086C501.181 210.945 500.725 210.721 500.429 210.414C500.135 210.107 499.989 209.718 499.989 209.246C499.989 208.855 500.098 208.513 500.317 208.22C500.535 207.928 500.836 207.699 501.222 207.535C501.607 207.369 502.047 207.285 502.544 207.285C503.259 207.285 503.823 207.441 504.234 207.751C504.644 208.058 504.916 208.471 505.048 208.987ZM507.87 211.452V211.37C507.875 210.836 507.928 210.411 508.029 210.095C508.132 209.779 508.28 209.523 508.469 209.328C508.659 209.133 508.887 208.955 509.154 208.794C509.326 208.685 509.482 208.562 509.62 208.427C509.757 208.292 509.866 208.137 509.947 207.962C510.027 207.787 510.067 207.592 510.067 207.38C510.067 207.124 510.007 206.903 509.887 206.716C509.766 206.53 509.605 206.386 509.404 206.286C509.206 206.182 508.984 206.13 508.74 206.13C508.519 206.13 508.308 206.176 508.107 206.268C507.906 206.36 507.739 206.504 507.607 206.699C507.475 206.892 507.399 207.14 507.379 207.444H506.069C506.088 206.928 506.22 206.491 506.461 206.135C506.702 205.776 507.021 205.504 507.417 205.32C507.817 205.137 508.258 205.045 508.74 205.045C509.269 205.045 509.731 205.143 510.128 205.342C510.525 205.537 510.832 205.812 511.05 206.165C511.272 206.515 511.382 206.925 511.382 207.393C511.382 207.714 511.332 208.005 511.231 208.264C511.131 208.519 510.987 208.747 510.8 208.948C510.616 209.149 510.395 209.328 510.136 209.483C509.892 209.636 509.694 209.793 509.542 209.957C509.392 210.121 509.283 210.314 509.214 210.539C509.146 210.763 509.108 211.04 509.102 211.37V211.452H507.87ZM508.521 214.072C508.285 214.072 508.082 213.989 507.913 213.822C507.743 213.653 507.658 213.449 507.658 213.211C507.658 212.975 507.743 212.774 507.913 212.607C508.082 212.438 508.285 212.353 508.521 212.353C508.754 212.353 508.955 212.438 509.124 212.607C509.296 212.774 509.382 212.975 509.382 213.211C509.382 213.369 509.342 213.513 509.262 213.645C509.184 213.775 509.08 213.878 508.952 213.956C508.822 214.034 508.678 214.072 508.521 214.072Z" fill="#191617"/>
<path d="M294.822 199.203C294.194 199.203 293.685 199.712 293.685 200.34C293.685 200.968 294.194 201.478 294.822 201.478V199.203ZM419.252 201.145C419.696 200.701 419.696 199.98 419.252 199.536L412.012 192.296C411.568 191.852 410.847 191.852 410.403 192.296C409.959 192.74 409.959 193.461 410.403 193.905L416.839 200.34L410.403 206.776C409.959 207.22 409.959 207.941 410.403 208.385C410.847 208.829 411.568 208.829 412.012 208.385L419.252 201.145ZM294.822 201.478H418.447V199.203H294.822V201.478Z" fill="url(#paint0_linear_10180_12789)"/>
<path d="M488.603 59.2711C488.603 59.8994 489.112 60.4087 489.74 60.4087C490.368 60.4087 490.878 59.8994 490.878 59.2711H488.603ZM153.04 201.145C153.485 200.701 153.485 199.98 153.04 199.536L145.8 192.296C145.356 191.852 144.636 191.852 144.191 192.296C143.747 192.74 143.747 193.461 144.191 193.905L150.627 200.34L144.191 206.776C143.747 207.22 143.747 207.941 144.191 208.385C144.636 208.829 145.356 208.829 145.8 208.385L153.04 201.145ZM490.878 59.2711V57.7542H488.603V59.2711H490.878ZM471.538 38.4141H150.719V40.6894H471.538V38.4141ZM131.379 57.7542V182.138H133.654V57.7542H131.379ZM150.719 201.478H152.236V199.203H150.719V201.478ZM131.379 182.138C131.379 192.819 140.038 201.478 150.719 201.478V199.203C141.294 199.203 133.654 191.562 133.654 182.138H131.379ZM150.719 38.4141C140.038 38.4141 131.379 47.0729 131.379 57.7542H133.654C133.654 48.3296 141.294 40.6894 150.719 40.6894V38.4141ZM490.878 57.7542C490.878 47.0729 482.219 38.4141 471.538 38.4141V40.6894C480.962 40.6894 488.603 48.3296 488.603 57.7542H490.878Z" fill="url(#paint1_linear_10180_12789)"/>
<path d="M638.246 310.006V303.496H637.154V302.642H638.246V301.354C638.246 301.093 638.283 300.841 638.358 300.598C638.442 300.355 638.591 300.159 638.806 300.01C639.021 299.851 639.324 299.772 639.716 299.772C639.837 299.772 639.959 299.777 640.08 299.786C640.201 299.795 640.313 299.809 640.416 299.828C640.528 299.847 640.626 299.875 640.71 299.912V300.626H639.968C639.725 300.626 639.543 300.687 639.422 300.808C639.31 300.929 639.254 301.107 639.254 301.34V302.642H640.71V303.496H639.254V310.006H638.246ZM641.732 301.13V299.884H642.74V301.13H641.732ZM641.732 310.006V302.642H642.74V310.006H641.732ZM645.98 312.554C645.626 312.554 645.294 312.475 644.986 312.316C644.688 312.167 644.45 311.952 644.272 311.672C644.095 311.401 644.006 311.084 644.006 310.72C644.006 310.309 644.114 309.959 644.328 309.67C644.552 309.381 644.832 309.166 645.168 309.026C644.926 308.923 644.739 308.769 644.608 308.564C644.478 308.359 644.412 308.135 644.412 307.892C644.412 307.575 644.529 307.304 644.762 307.08C644.996 306.847 645.28 306.693 645.616 306.618C645.308 306.413 645.061 306.151 644.874 305.834C644.697 305.517 644.608 305.176 644.608 304.812C644.608 304.355 644.716 303.953 644.93 303.608C645.145 303.253 645.467 302.978 645.896 302.782C646.335 302.577 646.881 302.474 647.534 302.474C647.842 302.474 648.127 302.497 648.388 302.544C648.659 302.591 648.902 302.661 649.116 302.754C649.443 302.633 649.695 302.46 649.872 302.236C650.05 302.003 650.166 301.746 650.222 301.466H651.23C651.221 301.727 651.156 301.979 651.034 302.222C650.913 302.465 650.745 302.67 650.53 302.838C650.316 303.006 650.059 303.113 649.76 303.16C650.003 303.384 650.18 303.636 650.292 303.916C650.404 304.196 650.46 304.495 650.46 304.812C650.46 305.251 650.353 305.647 650.138 306.002C649.933 306.347 649.616 306.623 649.186 306.828C648.766 307.033 648.225 307.136 647.562 307.136H646.4C646.12 307.136 645.892 307.192 645.714 307.304C645.537 307.407 645.448 307.584 645.448 307.836C645.448 308.051 645.542 308.219 645.728 308.34C645.915 308.461 646.148 308.522 646.428 308.522H649.312C649.854 308.522 650.292 308.704 650.628 309.068C650.974 309.432 651.146 309.889 651.146 310.44C651.146 310.832 651.048 311.187 650.852 311.504C650.656 311.831 650.386 312.087 650.04 312.274C649.704 312.461 649.308 312.554 648.85 312.554H645.98ZM646.204 311.756H648.822C649.065 311.756 649.284 311.705 649.48 311.602C649.676 311.499 649.83 311.355 649.942 311.168C650.064 310.991 650.124 310.799 650.124 310.594C650.124 310.239 650.022 309.955 649.816 309.74C649.611 309.525 649.354 309.418 649.046 309.418H646.204C645.887 309.418 645.612 309.535 645.378 309.768C645.145 309.992 645.028 310.267 645.028 310.594C645.028 310.949 645.14 311.229 645.364 311.434C645.598 311.649 645.878 311.756 646.204 311.756ZM647.534 306.338C648.188 306.338 648.668 306.203 648.976 305.932C649.294 305.652 649.452 305.279 649.452 304.812C649.452 304.336 649.294 303.963 648.976 303.692C648.668 303.412 648.188 303.272 647.534 303.272C646.9 303.272 646.424 303.412 646.106 303.692C645.789 303.963 645.63 304.336 645.63 304.812C645.63 305.101 645.7 305.363 645.84 305.596C645.98 305.829 646.19 306.011 646.47 306.142C646.76 306.273 647.114 306.338 647.534 306.338ZM655.023 310.006V309.124H657.515V302.18H655.023V301.522C655.396 301.503 655.765 301.461 656.129 301.396C656.493 301.331 656.843 301.219 657.179 301.06C657.515 300.901 657.823 300.668 658.103 300.36H658.523V309.124H660.875V310.006H655.023ZM662.514 310.006V308.69H663.69V310.006H662.514ZM668.963 310.174C668.45 310.174 667.983 310.095 667.563 309.936C667.152 309.777 666.802 309.511 666.513 309.138C666.233 308.765 666.014 308.261 665.855 307.626C665.706 306.982 665.631 306.175 665.631 305.204C665.631 304.233 665.706 303.431 665.855 302.796C666.014 302.152 666.233 301.643 666.513 301.27C666.802 300.897 667.152 300.631 667.563 300.472C667.983 300.313 668.45 300.234 668.963 300.234C669.486 300.234 669.952 300.313 670.363 300.472C670.774 300.631 671.119 300.897 671.399 301.27C671.688 301.643 671.908 302.152 672.057 302.796C672.216 303.431 672.295 304.233 672.295 305.204C672.295 306.175 672.216 306.982 672.057 307.626C671.908 308.261 671.688 308.765 671.399 309.138C671.119 309.511 670.774 309.777 670.363 309.936C669.952 310.095 669.486 310.174 668.963 310.174ZM668.963 309.32C669.551 309.32 670.004 309.175 670.321 308.886C670.648 308.597 670.881 308.172 671.021 307.612C671.161 307.043 671.231 306.343 671.231 305.512V304.91C671.231 304.07 671.161 303.37 671.021 302.81C670.881 302.241 670.648 301.811 670.321 301.522C670.004 301.233 669.551 301.088 668.963 301.088C668.384 301.088 667.927 301.233 667.591 301.522C667.264 301.811 667.031 302.236 666.891 302.796C666.76 303.356 666.695 304.056 666.695 304.896V305.498C666.695 306.329 666.76 307.029 666.891 307.598C667.031 308.167 667.264 308.597 667.591 308.886C667.927 309.175 668.384 309.32 668.963 309.32Z" fill="#004771"/>
<defs>
<filter id="filter0_d_10180_12789" x="144.143" y="120.951" width="158.773" height="158.774" filterUnits="userSpaceOnUse" color-interpolation-filters="sRGB">
<feFlood flood-opacity="0" result="BackgroundImageFix"/>
<feColorMatrix in="SourceAlpha" type="matrix" values="0 0 0 0 0 0 0 0 0 0 0 0 0 0 0 0 0 0 127 0" result="hardAlpha"/>
<feOffset/>
<feGaussianBlur stdDeviation="5.56352"/>
<feComposite in2="hardAlpha" operator="out"/>
<feColorMatrix type="matrix" values="0 0 0 0 0.192157 0 0 0 0 0.682353 0 0 0 0 0.768627 0 0 0 0.6 0"/>
<feBlend mode="normal" in2="BackgroundImageFix" result="effect1_dropShadow_10180_12789"/>
<feBlend mode="normal" in="SourceGraphic" in2="effect1_dropShadow_10180_12789" result="shape"/>
</filter>
<filter id="filter1_d_10180_12789" x="473.402" y="81.3453" width="32.6796" height="35.4169" filterUnits="userSpaceOnUse" color-interpolation-filters="sRGB">
<feFlood flood-opacity="0" result="BackgroundImageFix"/>
<feColorMatrix in="SourceAlpha" type="matrix" values="0 0 0 0 0 0 0 0 0 0 0 0 0 0 0 0 0 0 127 0" result="hardAlpha"/>
<feOffset/>
<feGaussianBlur stdDeviation="3.33811"/>
<feComposite in2="hardAlpha" operator="out"/>
<feColorMatrix type="matrix" values="0 0 0 0 0.53 0 0 0 0 0.53 0 0 0 0 0.53 0 0 0 1 0"/>
<feBlend mode="normal" in2="BackgroundImageFix" result="effect1_dropShadow_10180_12789"/>
<feBlend mode="normal" in="SourceGraphic" in2="effect1_dropShadow_10180_12789" result="shape"/>
</filter>
<filter id="filter2_d_10180_12789" x="414.804" y="125.402" width="149.871" height="149.872" filterUnits="userSpaceOnUse" color-interpolation-filters="sRGB">
<feFlood flood-opacity="0" result="BackgroundImageFix"/>
<feColorMatrix in="SourceAlpha" type="matrix" values="0 0 0 0 0 0 0 0 0 0 0 0 0 0 0 0 0 0 127 0" result="hardAlpha"/>
<feOffset/>
<feGaussianBlur stdDeviation="3.33811"/>
<feComposite in2="hardAlpha" operator="out"/>
<feColorMatrix type="matrix" values="0 0 0 0 0.53 0 0 0 0 0.53 0 0 0 0 0.53 0 0 0 1 0"/>
<feBlend mode="normal" in2="BackgroundImageFix" result="effect1_dropShadow_10180_12789"/>
<feBlend mode="normal" in="SourceGraphic" in2="effect1_dropShadow_10180_12789" result="shape"/>
</filter>
<linearGradient id="paint0_linear_10180_12789" x1="293.685" y1="200.34" x2="419.585" y2="200.34" gradientUnits="userSpaceOnUse">
<stop stop-color="#DDDDDD"/>
<stop offset="1" stop-color="#343434"/>
</linearGradient>
<linearGradient id="paint1_linear_10180_12789" x1="131.379" y1="123.566" x2="490.878" y2="123.566" gradientUnits="userSpaceOnUse">
<stop stop-color="#343434"/>
<stop offset="1" stop-color="#DDDDDD"/>
</linearGradient>
</defs>
</svg>
