<svg width="440" height="279" viewBox="0 0 440 279" fill="none" xmlns="http://www.w3.org/2000/svg">
<rect width="440" height="277.743" transform="translate(0 0.974609)" fill="#F0F0F0"/>
<g filter="url(#filter0_d_10194_13326)">
<path d="M279.783 124.062H160.217C150.712 124.062 143.007 131.768 143.007 141.273V149.878C143.007 159.382 150.712 167.088 160.217 167.088H279.783C289.288 167.088 296.993 159.382 296.993 149.878V141.273C296.993 131.768 289.288 124.062 279.783 124.062Z" stroke="#31AEC4" stroke-width="2.1387" stroke-dasharray="8.55 5.35"/>
</g>
<path d="M182.718 148.657V142.436H184.033V147.573H186.7V148.657H182.718ZM189.561 148.748C189.089 148.748 188.681 148.648 188.337 148.448C187.995 148.245 187.73 147.964 187.544 147.603C187.358 147.24 187.265 146.82 187.265 146.342C187.265 145.86 187.358 145.439 187.544 145.079C187.73 144.716 187.995 144.434 188.337 144.234C188.681 144.031 189.089 143.93 189.561 143.93C190.033 143.93 190.44 144.031 190.783 144.234C191.127 144.434 191.392 144.716 191.578 145.079C191.765 145.439 191.858 145.86 191.858 146.342C191.858 146.82 191.765 147.24 191.578 147.603C191.392 147.964 191.127 148.245 190.783 148.448C190.44 148.648 190.033 148.748 189.561 148.748ZM189.567 147.745C189.782 147.745 189.961 147.685 190.105 147.564C190.249 147.44 190.357 147.272 190.43 147.059C190.505 146.847 190.543 146.604 190.543 146.333C190.543 146.062 190.505 145.82 190.43 145.607C190.357 145.395 190.249 145.226 190.105 145.103C189.961 144.979 189.782 144.918 189.567 144.918C189.351 144.918 189.168 144.979 189.021 145.103C188.875 145.226 188.764 145.395 188.689 145.607C188.616 145.82 188.58 146.062 188.58 146.333C188.58 146.604 188.616 146.847 188.689 147.059C188.764 147.272 188.875 147.44 189.021 147.564C189.168 147.685 189.351 147.745 189.567 147.745ZM193.936 148.745C193.638 148.745 193.373 148.693 193.14 148.59C192.907 148.485 192.723 148.33 192.587 148.126C192.453 147.919 192.387 147.662 192.387 147.354C192.387 147.095 192.434 146.877 192.529 146.701C192.625 146.524 192.754 146.383 192.918 146.275C193.082 146.168 193.269 146.087 193.477 146.032C193.688 145.978 193.909 145.939 194.14 145.917C194.411 145.889 194.63 145.862 194.796 145.838C194.962 145.812 195.082 145.773 195.157 145.722C195.232 145.672 195.27 145.597 195.27 145.498V145.48C195.27 145.287 195.209 145.138 195.087 145.033C194.968 144.928 194.798 144.875 194.577 144.875C194.344 144.875 194.159 144.927 194.021 145.03C193.883 145.131 193.792 145.259 193.748 145.413L192.551 145.315C192.611 145.032 192.731 144.787 192.909 144.58C193.087 144.372 193.317 144.212 193.599 144.1C193.882 143.987 194.21 143.93 194.583 143.93C194.842 143.93 195.09 143.961 195.327 144.021C195.566 144.082 195.778 144.176 195.963 144.304C196.149 144.432 196.296 144.595 196.403 144.796C196.51 144.995 196.564 145.233 196.564 145.51V148.657H195.337V148.01H195.3C195.225 148.156 195.125 148.284 194.999 148.396C194.874 148.505 194.723 148.591 194.547 148.654C194.37 148.715 194.167 148.745 193.936 148.745ZM194.307 147.852C194.497 147.852 194.665 147.814 194.811 147.74C194.957 147.663 195.071 147.559 195.154 147.43C195.237 147.3 195.279 147.153 195.279 146.989V146.494C195.238 146.521 195.183 146.545 195.112 146.567C195.043 146.587 194.965 146.607 194.878 146.625C194.791 146.641 194.704 146.656 194.617 146.67C194.529 146.683 194.45 146.694 194.38 146.704C194.228 146.726 194.095 146.762 193.982 146.81C193.868 146.858 193.78 146.924 193.717 147.008C193.654 147.088 193.623 147.19 193.623 147.311C193.623 147.487 193.687 147.622 193.814 147.716C193.944 147.806 194.108 147.852 194.307 147.852ZM199.193 148.733C198.839 148.733 198.518 148.642 198.23 148.46C197.945 148.275 197.718 148.005 197.549 147.649C197.384 147.29 197.3 146.85 197.3 146.33C197.3 145.796 197.386 145.351 197.559 144.996C197.731 144.64 197.96 144.374 198.246 144.197C198.533 144.019 198.848 143.93 199.19 143.93C199.451 143.93 199.669 143.974 199.843 144.064C200.02 144.151 200.161 144.26 200.269 144.392C200.378 144.521 200.461 144.649 200.518 144.775H200.557V142.436H201.848V148.657H200.573V147.91H200.518C200.457 148.04 200.371 148.168 200.26 148.296C200.15 148.421 200.007 148.526 199.831 148.608C199.657 148.691 199.444 148.733 199.193 148.733ZM199.603 147.703C199.812 147.703 199.988 147.647 200.132 147.533C200.278 147.418 200.389 147.257 200.466 147.05C200.545 146.843 200.585 146.601 200.585 146.324C200.585 146.046 200.546 145.806 200.469 145.601C200.392 145.397 200.281 145.238 200.135 145.127C199.989 145.015 199.812 144.96 199.603 144.96C199.391 144.96 199.211 145.018 199.066 145.133C198.92 145.249 198.809 145.408 198.734 145.613C198.659 145.817 198.622 146.055 198.622 146.324C198.622 146.595 198.659 146.835 198.734 147.044C198.811 147.25 198.922 147.412 199.066 147.53C199.211 147.646 199.391 147.703 199.603 147.703ZM202.818 148.657V143.991H204.113V148.657H202.818ZM203.468 143.389C203.276 143.389 203.111 143.325 202.973 143.198C202.837 143.068 202.77 142.914 202.77 142.733C202.77 142.555 202.837 142.402 202.973 142.274C203.111 142.145 203.276 142.08 203.468 142.08C203.661 142.08 203.825 142.145 203.961 142.274C204.098 142.402 204.167 142.555 204.167 142.733C204.167 142.914 204.098 143.068 203.961 143.198C203.825 143.325 203.661 143.389 203.468 143.389ZM206.349 145.96V148.657H205.055V143.991H206.288V144.814H206.343C206.446 144.543 206.62 144.328 206.862 144.17C207.106 144.01 207.4 143.93 207.747 143.93C208.071 143.93 208.353 144.001 208.594 144.143C208.835 144.285 209.023 144.487 209.156 144.75C209.29 145.012 209.357 145.323 209.357 145.686V148.657H208.063V145.917C208.064 145.631 207.992 145.408 207.844 145.249C207.696 145.087 207.492 145.005 207.233 145.005C207.059 145.005 206.905 145.043 206.772 145.118C206.64 145.193 206.536 145.302 206.461 145.446C206.389 145.588 206.351 145.759 206.349 145.96ZM212.385 150.504C211.965 150.504 211.606 150.447 211.306 150.331C211.009 150.218 210.771 150.063 210.596 149.866C210.419 149.67 210.305 149.449 210.252 149.204L211.449 149.043C211.486 149.136 211.544 149.223 211.622 149.304C211.701 149.385 211.806 149.45 211.935 149.499C212.067 149.549 212.227 149.575 212.415 149.575C212.697 149.575 212.929 149.506 213.111 149.368C213.295 149.232 213.388 149.005 213.388 148.684V147.831H213.333C213.276 147.96 213.191 148.083 213.077 148.198C212.964 148.314 212.818 148.408 212.64 148.481C212.462 148.554 212.249 148.59 212.002 148.59C211.652 148.59 211.333 148.509 211.045 148.347C210.76 148.183 210.532 147.933 210.361 147.597C210.193 147.258 210.11 146.831 210.11 146.315C210.11 145.786 210.196 145.345 210.368 144.99C210.54 144.636 210.769 144.371 211.054 144.194C211.342 144.018 211.657 143.93 211.999 143.93C212.261 143.93 212.479 143.974 212.655 144.064C212.832 144.151 212.973 144.26 213.081 144.392C213.19 144.521 213.274 144.649 213.333 144.775H213.381V143.991H214.667V148.703C214.667 149.1 214.569 149.432 214.375 149.699C214.18 149.967 213.911 150.167 213.567 150.301C213.225 150.437 212.83 150.504 212.385 150.504ZM212.412 147.618C212.621 147.618 212.797 147.566 212.941 147.463C213.087 147.358 213.198 147.208 213.275 147.014C213.354 146.817 213.393 146.582 213.393 146.309C213.393 146.036 213.355 145.798 213.278 145.598C213.201 145.396 213.09 145.238 212.944 145.127C212.798 145.015 212.621 144.96 212.412 144.96C212.2 144.96 212.02 145.018 211.874 145.133C211.729 145.246 211.618 145.405 211.544 145.607C211.469 145.809 211.431 146.044 211.431 146.309C211.431 146.578 211.469 146.811 211.544 147.008C211.621 147.202 211.731 147.353 211.874 147.46C212.02 147.565 212.2 147.618 212.412 147.618ZM218.818 148.745C218.521 148.745 218.255 148.693 218.023 148.59C217.79 148.485 217.606 148.33 217.47 148.126C217.336 147.919 217.269 147.662 217.269 147.354C217.269 147.095 217.317 146.877 217.412 146.701C217.507 146.524 217.637 146.383 217.801 146.275C217.965 146.168 218.151 146.087 218.36 146.032C218.57 145.978 218.791 145.939 219.022 145.917C219.294 145.889 219.512 145.862 219.678 145.838C219.844 145.812 219.965 145.773 220.04 145.722C220.115 145.672 220.152 145.597 220.152 145.498V145.48C220.152 145.287 220.091 145.138 219.97 145.033C219.85 144.928 219.68 144.875 219.459 144.875C219.227 144.875 219.041 144.927 218.904 145.03C218.766 145.131 218.675 145.259 218.63 145.413L217.433 145.315C217.494 145.032 217.614 144.787 217.792 144.58C217.97 144.372 218.2 144.212 218.481 144.1C218.765 143.987 219.093 143.93 219.466 143.93C219.725 143.93 219.973 143.961 220.21 144.021C220.449 144.082 220.661 144.176 220.845 144.304C221.031 144.432 221.178 144.595 221.285 144.796C221.393 144.995 221.446 145.233 221.446 145.51V148.657H220.219V148.01H220.183C220.107 148.156 220.007 148.284 219.882 148.396C219.756 148.505 219.605 148.591 219.429 148.654C219.253 148.715 219.049 148.745 218.818 148.745ZM219.189 147.852C219.38 147.852 219.548 147.814 219.694 147.74C219.84 147.663 219.954 147.559 220.037 147.43C220.12 147.3 220.161 147.153 220.161 146.989V146.494C220.121 146.521 220.065 146.545 219.994 146.567C219.926 146.587 219.848 146.607 219.76 146.625C219.673 146.641 219.586 146.656 219.499 146.67C219.412 146.683 219.333 146.694 219.262 146.704C219.11 146.726 218.978 146.762 218.864 146.81C218.751 146.858 218.663 146.924 218.6 147.008C218.537 147.088 218.506 147.19 218.506 147.311C218.506 147.487 218.57 147.622 218.697 147.716C218.827 147.806 218.99 147.852 219.189 147.852ZM223.651 145.96V148.657H222.356V143.991H223.59V144.814H223.644C223.747 144.543 223.921 144.328 224.164 144.17C224.407 144.01 224.701 143.93 225.048 143.93C225.372 143.93 225.655 144.001 225.895 144.143C226.136 144.285 226.324 144.487 226.458 144.75C226.591 145.012 226.658 145.323 226.658 145.686V148.657H225.364V145.917C225.366 145.631 225.293 145.408 225.145 145.249C224.997 145.087 224.794 145.005 224.535 145.005C224.36 145.005 224.206 145.043 224.073 145.118C223.941 145.193 223.838 145.302 223.763 145.446C223.69 145.588 223.652 145.759 223.651 145.96ZM227.584 148.657V143.991H228.878V148.657H227.584ZM228.234 143.389C228.041 143.389 227.877 143.325 227.739 143.198C227.603 143.068 227.535 142.914 227.535 142.733C227.535 142.555 227.603 142.402 227.739 142.274C227.877 142.145 228.041 142.08 228.234 142.08C228.426 142.08 228.591 142.145 228.726 142.274C228.864 142.402 228.933 142.555 228.933 142.733C228.933 142.914 228.864 143.068 228.726 143.198C228.591 143.325 228.426 143.389 228.234 143.389ZM229.821 148.657V143.991H231.054V144.814H231.109C231.206 144.541 231.368 144.325 231.595 144.167C231.822 144.009 232.093 143.93 232.409 143.93C232.729 143.93 233.001 144.01 233.226 144.17C233.451 144.328 233.601 144.543 233.676 144.814H233.725C233.82 144.547 233.992 144.333 234.241 144.173C234.492 144.011 234.789 143.93 235.131 143.93C235.566 143.93 235.92 144.069 236.191 144.347C236.465 144.622 236.601 145.013 236.601 145.519V148.657H235.31V145.774C235.31 145.515 235.241 145.32 235.103 145.191C234.966 145.061 234.794 144.996 234.587 144.996C234.352 144.996 234.169 145.072 234.037 145.221C233.906 145.369 233.84 145.565 233.84 145.807V148.657H232.585V145.747C232.585 145.518 232.519 145.336 232.388 145.2C232.258 145.064 232.087 144.996 231.875 144.996C231.731 144.996 231.601 145.033 231.485 145.106C231.372 145.177 231.282 145.277 231.215 145.406C231.148 145.534 231.115 145.684 231.115 145.856V148.657H229.821ZM238.86 148.745C238.562 148.745 238.297 148.693 238.064 148.59C237.831 148.485 237.647 148.33 237.511 148.126C237.377 147.919 237.311 147.662 237.311 147.354C237.311 147.095 237.358 146.877 237.453 146.701C237.549 146.524 237.678 146.383 237.843 146.275C238.006 146.168 238.193 146.087 238.401 146.032C238.612 145.978 238.833 145.939 239.064 145.917C239.335 145.889 239.554 145.862 239.72 145.838C239.886 145.812 240.006 145.773 240.081 145.722C240.156 145.672 240.194 145.597 240.194 145.498V145.48C240.194 145.287 240.133 145.138 240.011 145.033C239.892 144.928 239.722 144.875 239.501 144.875C239.268 144.875 239.083 144.927 238.945 145.03C238.807 145.131 238.716 145.259 238.672 145.413L237.475 145.315C237.536 145.032 237.655 144.787 237.833 144.58C238.012 144.372 238.241 144.212 238.523 144.1C238.807 143.987 239.134 143.93 239.507 143.93C239.766 143.93 240.014 143.961 240.251 144.021C240.49 144.082 240.702 144.176 240.886 144.304C241.073 144.432 241.22 144.595 241.327 144.796C241.434 144.995 241.488 145.233 241.488 145.51V148.657H240.26V148.01H240.224C240.149 148.156 240.049 148.284 239.924 148.396C239.798 148.505 239.647 148.591 239.471 148.654C239.294 148.715 239.091 148.745 238.86 148.745ZM239.231 147.852C239.421 147.852 239.589 147.814 239.735 147.74C239.881 147.663 239.995 147.559 240.078 147.43C240.161 147.3 240.203 147.153 240.203 146.989V146.494C240.163 146.521 240.106 146.545 240.036 146.567C239.967 146.587 239.889 146.607 239.802 146.625C239.714 146.641 239.628 146.656 239.541 146.67C239.454 146.683 239.374 146.694 239.304 146.704C239.151 146.726 239.019 146.762 238.906 146.81C238.792 146.858 238.704 146.924 238.641 147.008C238.578 147.088 238.547 147.19 238.547 147.311C238.547 147.487 238.611 147.622 238.739 147.716C238.868 147.806 239.032 147.852 239.231 147.852ZM244.88 143.991V144.963H242.07V143.991H244.88ZM242.708 142.873H244.002V147.223C244.002 147.343 244.02 147.436 244.057 147.503C244.093 147.567 244.144 147.613 244.208 147.64C244.275 147.666 244.352 147.679 244.439 147.679C244.5 147.679 244.561 147.674 244.622 147.664C244.682 147.651 244.729 147.642 244.761 147.636L244.965 148.599C244.9 148.62 244.809 148.643 244.691 148.669C244.574 148.698 244.431 148.715 244.263 148.721C243.951 148.733 243.678 148.691 243.443 148.596C243.21 148.501 243.029 148.353 242.899 148.153C242.77 147.952 242.705 147.699 242.708 147.393V142.873ZM245.629 148.657V143.991H246.923V148.657H245.629ZM246.279 143.389C246.086 143.389 245.922 143.325 245.784 143.198C245.648 143.068 245.58 142.914 245.58 142.733C245.58 142.555 245.648 142.402 245.784 142.274C245.922 142.145 246.086 142.08 246.279 142.08C246.471 142.08 246.635 142.145 246.771 142.274C246.909 142.402 246.977 142.555 246.977 142.733C246.977 142.914 246.909 143.068 246.771 143.198C246.635 143.325 246.471 143.389 246.279 143.389ZM249.974 148.748C249.502 148.748 249.094 148.648 248.749 148.448C248.407 148.245 248.143 147.964 247.956 147.603C247.77 147.24 247.677 146.82 247.677 146.342C247.677 145.86 247.77 145.439 247.956 145.079C248.143 144.716 248.407 144.434 248.749 144.234C249.094 144.031 249.502 143.93 249.974 143.93C250.445 143.93 250.853 144.031 251.195 144.234C251.539 144.434 251.805 144.716 251.991 145.079C252.177 145.439 252.27 145.86 252.27 146.342C252.27 146.82 252.177 147.24 251.991 147.603C251.805 147.964 251.539 148.245 251.195 148.448C250.853 148.648 250.445 148.748 249.974 148.748ZM249.98 147.745C250.195 147.745 250.374 147.685 250.518 147.564C250.661 147.44 250.77 147.272 250.843 147.059C250.918 146.847 250.955 146.604 250.955 146.333C250.955 146.062 250.918 145.82 250.843 145.607C250.77 145.395 250.661 145.226 250.518 145.103C250.374 144.979 250.195 144.918 249.98 144.918C249.763 144.918 249.581 144.979 249.433 145.103C249.287 145.226 249.177 145.395 249.102 145.607C249.029 145.82 248.993 146.062 248.993 146.333C248.993 146.604 249.029 146.847 249.102 147.059C249.177 147.272 249.287 147.44 249.433 147.564C249.581 147.685 249.763 147.745 249.98 147.745ZM254.312 145.96V148.657H253.018V143.991H254.251V144.814H254.306C254.409 144.543 254.582 144.328 254.825 144.17C255.068 144.01 255.363 143.93 255.709 143.93C256.033 143.93 256.316 144.001 256.557 144.143C256.798 144.285 256.986 144.487 257.119 144.75C257.253 145.012 257.32 145.323 257.32 145.686V148.657H256.025V145.917C256.027 145.631 255.955 145.408 255.807 145.249C255.659 145.087 255.455 145.005 255.196 145.005C255.022 145.005 254.868 145.043 254.734 145.118C254.603 145.193 254.499 145.302 254.424 145.446C254.352 145.588 254.314 145.759 254.312 145.96Z" fill="black" fill-opacity="0.8"/>
<g filter="url(#filter1_d_10194_13326)">
<path d="M279.783 213.354H160.217C150.712 213.354 143.007 221.059 143.007 230.564V239.169C143.007 248.673 150.712 256.379 160.217 256.379H279.783C289.288 256.379 296.993 248.673 296.993 239.169V230.564C296.993 221.059 289.288 213.354 279.783 213.354Z" fill="white"/>
</g>
<path d="M161.432 231.534V225.313H162.748V230.45H165.415V231.534H161.432ZM166.168 231.534V226.868H167.462V231.534H166.168ZM166.818 226.266C166.626 226.266 166.46 226.202 166.323 226.075C166.187 225.945 166.119 225.791 166.119 225.61C166.119 225.432 166.187 225.279 166.323 225.151C166.46 225.022 166.626 224.957 166.818 224.957C167.01 224.957 167.174 225.022 167.31 225.151C167.448 225.279 167.517 225.432 167.517 225.61C167.517 225.791 167.448 225.945 167.31 226.075C167.174 226.202 167.01 226.266 166.818 226.266ZM172.287 228.198L171.102 228.271C171.082 228.17 171.038 228.079 170.972 227.998C170.905 227.915 170.817 227.849 170.707 227.8C170.6 227.75 170.471 227.725 170.321 227.725C170.121 227.725 169.952 227.767 169.814 227.852C169.676 227.935 169.608 228.046 169.608 228.186C169.608 228.298 169.652 228.392 169.741 228.469C169.83 228.546 169.983 228.608 170.2 228.654L171.044 228.824C171.498 228.917 171.836 229.067 172.059 229.274C172.282 229.48 172.393 229.752 172.393 230.088C172.393 230.394 172.303 230.662 172.123 230.893C171.945 231.124 171.7 231.304 171.388 231.434C171.078 231.561 170.72 231.625 170.315 231.625C169.698 231.625 169.206 231.497 168.839 231.239C168.474 230.98 168.261 230.628 168.198 230.182L169.471 230.116C169.509 230.304 169.602 230.448 169.75 230.547C169.898 230.644 170.088 230.692 170.318 230.692C170.545 230.692 170.728 230.649 170.865 230.562C171.005 230.473 171.076 230.358 171.078 230.219C171.076 230.101 171.026 230.005 170.929 229.93C170.832 229.853 170.682 229.794 170.479 229.754L169.671 229.593C169.216 229.502 168.876 229.344 168.654 229.119C168.433 228.894 168.323 228.608 168.323 228.259C168.323 227.959 168.404 227.701 168.566 227.484C168.73 227.268 168.959 227.101 169.255 226.983C169.553 226.866 169.901 226.807 170.3 226.807C170.89 226.807 171.353 226.932 171.692 227.181C172.032 227.43 172.23 227.769 172.287 228.198ZM175.596 226.868V227.84H172.786V226.868H175.596ZM173.424 225.75H174.718V230.1C174.718 230.22 174.736 230.313 174.773 230.38C174.809 230.444 174.86 230.49 174.925 230.517C174.992 230.543 175.069 230.556 175.156 230.556C175.216 230.556 175.277 230.551 175.338 230.541C175.399 230.528 175.445 230.519 175.478 230.513L175.681 231.476C175.616 231.497 175.525 231.52 175.408 231.546C175.29 231.575 175.148 231.592 174.979 231.598C174.668 231.61 174.394 231.568 174.159 231.473C173.926 231.378 173.745 231.23 173.615 231.03C173.486 230.829 173.422 230.576 173.424 230.27V225.75ZM180.339 231.625C179.867 231.625 179.459 231.525 179.115 231.324C178.773 231.122 178.508 230.841 178.322 230.48C178.136 230.117 178.043 229.697 178.043 229.219C178.043 228.737 178.136 228.316 178.322 227.955C178.508 227.593 178.773 227.311 179.115 227.111C179.459 226.908 179.867 226.807 180.339 226.807C180.811 226.807 181.218 226.908 181.56 227.111C181.905 227.311 182.17 227.593 182.356 227.955C182.543 228.316 182.636 228.737 182.636 229.219C182.636 229.697 182.543 230.117 182.356 230.48C182.17 230.841 181.905 231.122 181.56 231.324C181.218 231.525 180.811 231.625 180.339 231.625ZM180.345 230.622C180.56 230.622 180.739 230.562 180.883 230.441C181.027 230.317 181.135 230.149 181.208 229.936C181.283 229.724 181.321 229.481 181.321 229.21C181.321 228.939 181.283 228.697 181.208 228.484C181.135 228.271 181.027 228.103 180.883 227.98C180.739 227.856 180.56 227.795 180.345 227.795C180.129 227.795 179.946 227.856 179.799 227.98C179.653 228.103 179.542 228.271 179.467 228.484C179.394 228.697 179.358 228.939 179.358 229.21C179.358 229.481 179.394 229.724 179.467 229.936C179.542 230.149 179.653 230.317 179.799 230.441C179.946 230.562 180.129 230.622 180.345 230.622ZM185.893 226.868V227.84H183.013V226.868H185.893ZM183.672 231.534V226.531C183.672 226.192 183.738 225.912 183.869 225.689C184.003 225.467 184.185 225.299 184.416 225.188C184.647 225.076 184.909 225.021 185.203 225.021C185.402 225.021 185.583 225.036 185.747 225.066C185.913 225.097 186.036 225.124 186.117 225.148L185.887 226.12C185.836 226.104 185.773 226.089 185.698 226.075C185.625 226.061 185.55 226.054 185.473 226.054C185.283 226.054 185.15 226.098 185.075 226.187C185.001 226.274 184.963 226.397 184.963 226.555V231.534H183.672ZM188.475 231.534V226.868H189.73V227.682H189.778C189.863 227.392 190.006 227.174 190.207 227.026C190.407 226.876 190.638 226.801 190.899 226.801C190.964 226.801 191.034 226.805 191.109 226.813C191.184 226.821 191.25 226.832 191.306 226.847V227.995C191.246 227.977 191.162 227.96 191.054 227.946C190.947 227.932 190.849 227.925 190.76 227.925C190.569 227.925 190.399 227.967 190.249 228.05C190.101 228.13 189.984 228.244 189.897 228.39C189.812 228.536 189.769 228.704 189.769 228.894V231.534H188.475ZM193.791 231.625C193.311 231.625 192.898 231.528 192.551 231.334C192.207 231.137 191.942 230.86 191.755 230.501C191.569 230.141 191.476 229.715 191.476 229.222C191.476 228.742 191.569 228.321 191.755 227.958C191.942 227.596 192.204 227.313 192.542 227.111C192.882 226.908 193.281 226.807 193.739 226.807C194.047 226.807 194.333 226.857 194.599 226.956C194.866 227.053 195.099 227.2 195.298 227.396C195.498 227.593 195.654 227.84 195.765 228.138C195.877 228.433 195.933 228.779 195.933 229.177V229.532H191.992V228.73H194.714C194.714 228.544 194.674 228.378 194.593 228.235C194.512 228.091 194.399 227.978 194.256 227.898C194.114 227.815 193.949 227.773 193.76 227.773C193.564 227.773 193.39 227.819 193.238 227.91C193.088 227.999 192.971 228.12 192.885 228.271C192.8 228.421 192.757 228.589 192.755 228.772V229.535C192.755 229.766 192.797 229.965 192.882 230.134C192.969 230.302 193.092 230.432 193.25 230.522C193.408 230.613 193.595 230.659 193.812 230.659C193.956 230.659 194.087 230.639 194.207 230.598C194.326 230.558 194.429 230.497 194.514 230.416C194.599 230.335 194.664 230.236 194.708 230.118L195.905 230.197C195.844 230.485 195.72 230.736 195.532 230.951C195.345 231.164 195.104 231.329 194.808 231.449C194.515 231.567 194.176 231.625 193.791 231.625ZM198.791 231.625C198.314 231.625 197.902 231.524 197.558 231.321C197.215 231.117 196.952 230.833 196.768 230.471C196.585 230.108 196.495 229.691 196.495 229.219C196.495 228.741 196.587 228.322 196.771 227.961C196.958 227.599 197.222 227.317 197.564 227.114C197.906 226.909 198.314 226.807 198.785 226.807C199.192 226.807 199.549 226.881 199.854 227.029C200.16 227.176 200.402 227.384 200.581 227.652C200.759 227.919 200.857 228.233 200.875 228.593H199.654C199.62 228.36 199.528 228.173 199.381 228.031C199.235 227.888 199.043 227.815 198.806 227.815C198.606 227.815 198.431 227.87 198.281 227.98C198.133 228.087 198.017 228.244 197.934 228.451C197.852 228.657 197.81 228.907 197.81 229.201C197.81 229.499 197.85 229.752 197.932 229.961C198.015 230.169 198.131 230.328 198.281 230.437C198.431 230.547 198.606 230.602 198.806 230.602C198.954 230.602 199.087 230.571 199.204 230.51C199.324 230.45 199.422 230.362 199.499 230.246C199.578 230.128 199.63 229.988 199.654 229.824H200.875C200.855 230.18 200.758 230.494 200.584 230.765C200.412 231.035 200.174 231.245 199.87 231.397C199.566 231.549 199.206 231.625 198.791 231.625ZM203.718 231.625C203.246 231.625 202.838 231.525 202.494 231.324C202.151 231.122 201.887 230.841 201.701 230.48C201.515 230.117 201.422 229.697 201.422 229.219C201.422 228.737 201.515 228.316 201.701 227.955C201.887 227.593 202.151 227.311 202.494 227.111C202.838 226.908 203.246 226.807 203.718 226.807C204.19 226.807 204.597 226.908 204.939 227.111C205.284 227.311 205.549 227.593 205.735 227.955C205.921 228.316 206.015 228.737 206.015 229.219C206.015 229.697 205.921 230.117 205.735 230.48C205.549 230.841 205.284 231.122 204.939 231.324C204.597 231.525 204.19 231.625 203.718 231.625ZM203.724 230.622C203.939 230.622 204.118 230.562 204.262 230.441C204.406 230.317 204.514 230.149 204.587 229.936C204.662 229.724 204.699 229.481 204.699 229.21C204.699 228.939 204.662 228.697 204.587 228.484C204.514 228.271 204.406 228.103 204.262 227.98C204.118 227.856 203.939 227.795 203.724 227.795C203.507 227.795 203.325 227.856 203.177 227.98C203.031 228.103 202.921 228.271 202.846 228.484C202.773 228.697 202.737 228.939 202.737 229.21C202.737 229.481 202.773 229.724 202.846 229.936C202.921 230.149 203.031 230.317 203.177 230.441C203.325 230.562 203.507 230.622 203.724 230.622ZM206.762 231.534V226.868H207.995V227.691H208.05C208.147 227.418 208.309 227.202 208.536 227.044C208.763 226.886 209.034 226.807 209.35 226.807C209.671 226.807 209.943 226.887 210.168 227.047C210.392 227.205 210.542 227.42 210.617 227.691H210.666C210.761 227.423 210.933 227.21 211.182 227.05C211.433 226.888 211.73 226.807 212.072 226.807C212.508 226.807 212.861 226.946 213.133 227.224C213.406 227.499 213.543 227.89 213.543 228.396V231.534H212.251V228.651C212.251 228.392 212.183 228.197 212.045 228.068C211.908 227.938 211.735 227.873 211.529 227.873C211.294 227.873 211.11 227.949 210.979 228.098C210.847 228.246 210.781 228.442 210.781 228.684V231.534H209.527V228.624C209.527 228.395 209.461 228.213 209.329 228.077C209.199 227.941 209.028 227.873 208.816 227.873C208.672 227.873 208.542 227.91 208.427 227.983C208.314 228.054 208.223 228.154 208.156 228.283C208.09 228.411 208.056 228.561 208.056 228.733V231.534H206.762ZM214.471 231.534V226.868H215.704V227.691H215.759C215.856 227.418 216.018 227.202 216.245 227.044C216.472 226.886 216.743 226.807 217.059 226.807C217.379 226.807 217.652 226.887 217.876 227.047C218.101 227.205 218.251 227.42 218.326 227.691H218.375C218.47 227.423 218.642 227.21 218.891 227.05C219.142 226.888 219.439 226.807 219.781 226.807C220.216 226.807 220.57 226.946 220.842 227.224C221.115 227.499 221.252 227.89 221.252 228.396V231.534H219.96V228.651C219.96 228.392 219.891 228.197 219.754 228.068C219.616 227.938 219.444 227.873 219.237 227.873C219.003 227.873 218.819 227.949 218.688 228.098C218.556 228.246 218.49 228.442 218.49 228.684V231.534H217.236V228.624C217.236 228.395 217.17 228.213 217.038 228.077C216.908 227.941 216.737 227.873 216.525 227.873C216.381 227.873 216.251 227.91 216.136 227.983C216.022 228.054 215.932 228.154 215.865 228.283C215.798 228.411 215.765 228.561 215.765 228.733V231.534H214.471ZM224.306 231.625C223.826 231.625 223.413 231.528 223.067 231.334C222.722 231.137 222.457 230.86 222.271 230.501C222.085 230.141 221.992 229.715 221.992 229.222C221.992 228.742 222.085 228.321 222.271 227.958C222.457 227.596 222.719 227.313 223.058 227.111C223.398 226.908 223.797 226.807 224.255 226.807C224.562 226.807 224.849 226.857 225.115 226.956C225.382 227.053 225.615 227.2 225.813 227.396C226.013 227.593 226.17 227.84 226.281 228.138C226.392 228.433 226.448 228.779 226.448 229.177V229.532H222.508V228.73H225.23C225.23 228.544 225.189 228.378 225.108 228.235C225.027 228.091 224.915 227.978 224.771 227.898C224.629 227.815 224.464 227.773 224.276 227.773C224.079 227.773 223.905 227.819 223.753 227.91C223.604 227.999 223.486 228.12 223.401 228.271C223.316 228.421 223.272 228.589 223.271 228.772V229.535C223.271 229.766 223.313 229.965 223.398 230.134C223.485 230.302 223.607 230.432 223.766 230.522C223.923 230.613 224.111 230.659 224.328 230.659C224.471 230.659 224.603 230.639 224.723 230.598C224.842 230.558 224.944 230.497 225.029 230.416C225.115 230.335 225.179 230.236 225.224 230.118L226.421 230.197C226.36 230.485 226.235 230.736 226.047 230.951C225.86 231.164 225.62 231.329 225.324 231.449C225.03 231.567 224.691 231.625 224.306 231.625ZM228.493 228.837V231.534H227.198V226.868H228.432V227.691H228.486C228.59 227.42 228.763 227.205 229.006 227.047C229.249 226.887 229.544 226.807 229.89 226.807C230.214 226.807 230.497 226.878 230.738 227.02C230.978 227.161 231.166 227.364 231.3 227.627C231.433 227.889 231.5 228.2 231.5 228.563V231.534H230.206V228.794C230.208 228.508 230.135 228.285 229.987 228.126C229.84 227.964 229.636 227.882 229.377 227.882C229.203 227.882 229.049 227.92 228.915 227.995C228.783 228.07 228.68 228.179 228.605 228.323C228.532 228.464 228.495 228.636 228.493 228.837ZM234.145 231.61C233.791 231.61 233.47 231.519 233.182 231.337C232.897 231.152 232.67 230.882 232.502 230.526C232.336 230.167 232.253 229.727 232.253 229.207C232.253 228.672 232.339 228.228 232.511 227.873C232.683 227.517 232.912 227.251 233.198 227.074C233.486 226.896 233.8 226.807 234.143 226.807C234.404 226.807 234.622 226.851 234.795 226.941C234.972 227.028 235.114 227.137 235.221 227.269C235.33 227.398 235.414 227.526 235.47 227.652H235.51V225.313H236.8V231.534H235.525V230.787H235.47C235.409 230.917 235.323 231.045 235.212 231.173C235.102 231.298 234.96 231.403 234.784 231.485C234.609 231.568 234.397 231.61 234.145 231.61ZM234.555 230.58C234.764 230.58 234.94 230.524 235.084 230.41C235.23 230.295 235.341 230.134 235.418 229.927C235.497 229.72 235.537 229.478 235.537 229.201C235.537 228.923 235.499 228.683 235.422 228.478C235.345 228.274 235.233 228.115 235.087 228.004C234.941 227.892 234.764 227.837 234.555 227.837C234.343 227.837 234.164 227.895 234.018 228.01C233.872 228.126 233.762 228.285 233.687 228.49C233.612 228.694 233.574 228.932 233.574 229.201C233.574 229.472 233.612 229.712 233.687 229.921C233.764 230.127 233.874 230.289 234.018 230.407C234.164 230.522 234.343 230.58 234.555 230.58ZM239.897 231.625C239.417 231.625 239.004 231.528 238.657 231.334C238.314 231.137 238.048 230.86 237.862 230.501C237.675 230.141 237.582 229.715 237.582 229.222C237.582 228.742 237.675 228.321 237.862 227.958C238.048 227.596 238.31 227.313 238.648 227.111C238.989 226.908 239.388 226.807 239.845 226.807C240.153 226.807 240.44 226.857 240.705 226.956C240.973 227.053 241.206 227.2 241.404 227.396C241.605 227.593 241.761 227.84 241.872 228.138C241.983 228.433 242.039 228.779 242.039 229.177V229.532H238.099V228.73H240.821C240.821 228.544 240.78 228.378 240.699 228.235C240.618 228.091 240.506 227.978 240.362 227.898C240.22 227.815 240.055 227.773 239.867 227.773C239.67 227.773 239.496 227.819 239.344 227.91C239.194 227.999 239.077 228.12 238.992 228.271C238.907 228.421 238.863 228.589 238.861 228.772V229.535C238.861 229.766 238.904 229.965 238.989 230.134C239.076 230.302 239.198 230.432 239.356 230.522C239.514 230.613 239.702 230.659 239.918 230.659C240.062 230.659 240.194 230.639 240.313 230.598C240.433 230.558 240.535 230.497 240.62 230.416C240.705 230.335 240.77 230.236 240.815 230.118L242.011 230.197C241.951 230.485 241.826 230.736 241.638 230.951C241.452 231.164 241.21 231.329 240.915 231.449C240.621 231.567 240.282 231.625 239.897 231.625ZM244.509 231.61C244.154 231.61 243.834 231.519 243.546 231.337C243.26 231.152 243.033 230.882 242.865 230.526C242.699 230.167 242.616 229.727 242.616 229.207C242.616 228.672 242.702 228.228 242.874 227.873C243.047 227.517 243.275 227.251 243.561 227.074C243.849 226.896 244.163 226.807 244.506 226.807C244.767 226.807 244.985 226.851 245.159 226.941C245.335 227.028 245.477 227.137 245.584 227.269C245.694 227.398 245.777 227.526 245.833 227.652H245.873V225.313H247.164V231.534H245.888V230.787H245.833C245.772 230.917 245.686 231.045 245.575 231.173C245.466 231.298 245.323 231.403 245.147 231.485C244.972 231.568 244.76 231.61 244.509 231.61ZM244.919 230.58C245.128 230.58 245.304 230.524 245.447 230.41C245.593 230.295 245.705 230.134 245.781 229.927C245.861 229.72 245.9 229.478 245.9 229.201C245.9 228.923 245.862 228.683 245.785 228.478C245.708 228.274 245.596 228.115 245.45 228.004C245.304 227.892 245.128 227.837 244.919 227.837C244.706 227.837 244.527 227.895 244.381 228.01C244.235 228.126 244.125 228.285 244.05 228.49C243.975 228.694 243.938 228.932 243.938 229.201C243.938 229.472 243.975 229.712 244.05 229.921C244.127 230.127 244.237 230.289 244.381 230.407C244.527 230.522 244.706 230.58 244.919 230.58ZM252.122 233.381C251.703 233.381 251.343 233.324 251.044 233.208C250.746 233.095 250.509 232.94 250.333 232.743C250.157 232.547 250.042 232.326 249.989 232.081L251.186 231.92C251.223 232.013 251.281 232.1 251.36 232.181C251.438 232.262 251.543 232.327 251.672 232.376C251.804 232.426 251.964 232.452 252.153 232.452C252.434 232.452 252.666 232.383 252.848 232.245C253.032 232.109 253.125 231.882 253.125 231.561V230.708H253.07C253.013 230.837 252.928 230.96 252.815 231.075C252.701 231.191 252.555 231.285 252.377 231.358C252.199 231.431 251.986 231.467 251.739 231.467C251.389 231.467 251.07 231.386 250.782 231.224C250.497 231.06 250.269 230.81 250.099 230.474C249.931 230.135 249.847 229.708 249.847 229.192C249.847 228.663 249.933 228.222 250.105 227.867C250.277 227.513 250.506 227.248 250.791 227.071C251.079 226.895 251.394 226.807 251.736 226.807C251.998 226.807 252.216 226.851 252.392 226.941C252.569 227.028 252.71 227.137 252.818 227.269C252.927 227.398 253.011 227.526 253.07 227.652H253.118V226.868H254.404V231.58C254.404 231.977 254.306 232.309 254.112 232.576C253.918 232.843 253.648 233.044 253.304 233.178C252.962 233.313 252.568 233.381 252.122 233.381ZM252.149 230.495C252.358 230.495 252.534 230.443 252.678 230.34C252.824 230.235 252.935 230.085 253.012 229.89C253.091 229.694 253.131 229.459 253.131 229.186C253.131 228.913 253.092 228.675 253.015 228.475C252.938 228.273 252.827 228.115 252.681 228.004C252.535 227.892 252.358 227.837 252.149 227.837C251.937 227.837 251.757 227.895 251.612 228.01C251.466 228.123 251.355 228.282 251.281 228.484C251.206 228.686 251.168 228.921 251.168 229.186C251.168 229.455 251.206 229.688 251.281 229.885C251.358 230.079 251.468 230.23 251.612 230.337C251.757 230.442 251.937 230.495 252.149 230.495ZM256.67 231.622C256.372 231.622 256.107 231.57 255.874 231.467C255.641 231.362 255.457 231.207 255.321 231.003C255.187 230.796 255.121 230.539 255.121 230.231C255.121 229.972 255.168 229.754 255.263 229.578C255.359 229.401 255.488 229.26 255.652 229.152C255.816 229.045 256.002 228.964 256.211 228.909C256.422 228.855 256.642 228.816 256.873 228.794C257.145 228.766 257.364 228.739 257.529 228.715C257.696 228.689 257.816 228.65 257.891 228.599C257.966 228.549 258.004 228.474 258.004 228.375V228.356C258.004 228.164 257.943 228.015 257.821 227.91C257.701 227.805 257.531 227.752 257.311 227.752C257.078 227.752 256.892 227.804 256.755 227.907C256.617 228.008 256.526 228.136 256.481 228.29L255.285 228.192C255.345 227.909 255.465 227.664 255.643 227.457C255.821 227.249 256.051 227.089 256.333 226.977C256.616 226.864 256.944 226.807 257.317 226.807C257.576 226.807 257.824 226.837 258.061 226.898C258.3 226.959 258.512 227.053 258.696 227.181C258.883 227.309 259.029 227.472 259.137 227.673C259.244 227.872 259.297 228.109 259.297 228.387V231.534H258.07V230.887H258.034C257.959 231.033 257.859 231.161 257.733 231.273C257.607 231.382 257.457 231.468 257.281 231.531C257.104 231.592 256.901 231.622 256.67 231.622ZM257.041 230.729C257.231 230.729 257.399 230.691 257.545 230.617C257.691 230.54 257.805 230.436 257.888 230.307C257.971 230.177 258.013 230.03 258.013 229.866V229.371C257.972 229.397 257.916 229.422 257.845 229.444C257.777 229.464 257.699 229.484 257.612 229.502C257.524 229.518 257.437 229.533 257.35 229.547C257.263 229.56 257.184 229.571 257.113 229.581C256.961 229.603 256.829 229.639 256.716 229.687C256.602 229.735 256.514 229.801 256.451 229.885C256.388 229.965 256.357 230.067 256.357 230.188C256.357 230.364 256.421 230.499 256.548 230.593C256.678 230.683 256.842 230.729 257.041 230.729ZM260.207 231.534V226.868H261.441V227.691H261.496C261.593 227.418 261.755 227.202 261.982 227.044C262.209 226.886 262.48 226.807 262.796 226.807C263.116 226.807 263.388 226.887 263.613 227.047C263.838 227.205 263.988 227.42 264.062 227.691H264.111C264.206 227.423 264.378 227.21 264.628 227.05C264.879 226.888 265.176 226.807 265.518 226.807C265.953 226.807 266.307 226.946 266.578 227.224C266.851 227.499 266.988 227.89 266.988 228.396V231.534H265.697V228.651C265.697 228.392 265.628 228.197 265.491 228.068C265.353 227.938 265.181 227.873 264.974 227.873C264.739 227.873 264.556 227.949 264.424 228.098C264.292 228.246 264.227 228.442 264.227 228.684V231.534H262.972V228.624C262.972 228.395 262.907 228.213 262.774 228.077C262.645 227.941 262.474 227.873 262.261 227.873C262.117 227.873 261.988 227.91 261.872 227.983C261.759 228.054 261.669 228.154 261.602 228.283C261.535 228.411 261.502 228.561 261.502 228.733V231.534H260.207ZM270.043 231.625C269.563 231.625 269.15 231.528 268.803 231.334C268.459 231.137 268.194 230.86 268.007 230.501C267.821 230.141 267.728 229.715 267.728 229.222C267.728 228.742 267.821 228.321 268.007 227.958C268.194 227.596 268.456 227.313 268.794 227.111C269.134 226.908 269.534 226.807 269.992 226.807C270.299 226.807 270.586 226.857 270.851 226.956C271.119 227.053 271.351 227.2 271.55 227.396C271.75 227.593 271.906 227.84 272.017 228.138C272.129 228.433 272.185 228.779 272.185 229.177V229.532H268.245V228.73H270.966C270.966 228.544 270.926 228.378 270.845 228.235C270.764 228.091 270.651 227.978 270.507 227.898C270.366 227.815 270.201 227.773 270.012 227.773C269.816 227.773 269.642 227.819 269.49 227.91C269.34 227.999 269.223 228.12 269.138 228.271C269.053 228.421 269.009 228.589 269.007 228.772V229.535C269.007 229.766 269.049 229.965 269.134 230.134C269.222 230.302 269.344 230.432 269.502 230.522C269.66 230.613 269.848 230.659 270.064 230.659C270.208 230.659 270.34 230.639 270.459 230.598C270.579 230.558 270.681 230.497 270.766 230.416C270.851 230.335 270.916 230.236 270.96 230.118L272.157 230.197C272.097 230.485 271.972 230.736 271.784 230.951C271.597 231.164 271.357 231.329 271.061 231.449C270.767 231.567 270.428 231.625 270.043 231.625ZM276.818 228.198L275.633 228.271C275.613 228.17 275.569 228.079 275.502 227.998C275.436 227.915 275.347 227.849 275.238 227.8C275.13 227.75 275.002 227.725 274.852 227.725C274.652 227.725 274.482 227.767 274.345 227.852C274.207 227.935 274.138 228.046 274.138 228.186C274.138 228.298 274.183 228.392 274.272 228.469C274.361 228.546 274.514 228.608 274.73 228.654L275.575 228.824C276.029 228.917 276.367 229.067 276.59 229.274C276.812 229.48 276.924 229.752 276.924 230.088C276.924 230.394 276.834 230.662 276.654 230.893C276.476 231.124 276.23 231.304 275.918 231.434C275.608 231.561 275.251 231.625 274.846 231.625C274.228 231.625 273.736 231.497 273.37 231.239C273.005 230.98 272.791 230.628 272.729 230.182L274.002 230.116C274.04 230.304 274.133 230.448 274.281 230.547C274.429 230.644 274.618 230.692 274.849 230.692C275.076 230.692 275.258 230.649 275.396 230.562C275.536 230.473 275.607 230.358 275.608 230.219C275.607 230.101 275.557 230.005 275.46 229.93C275.362 229.853 275.213 229.794 275.01 229.754L274.202 229.593C273.746 229.502 273.407 229.344 273.184 229.119C272.963 228.894 272.853 228.608 272.853 228.259C272.853 227.959 272.934 227.701 273.096 227.484C273.26 227.268 273.49 227.101 273.786 226.983C274.083 226.866 274.432 226.807 274.831 226.807C275.42 226.807 275.884 226.932 276.222 227.181C276.562 227.43 276.761 227.769 276.818 228.198ZM210.206 246.116V239.7H211.482V240.484H211.54C211.596 240.358 211.679 240.231 211.786 240.101C211.895 239.97 212.037 239.86 212.211 239.773C212.388 239.684 212.606 239.639 212.867 239.639C213.208 239.639 213.522 239.728 213.809 239.907C214.097 240.083 214.326 240.349 214.499 240.705C214.671 241.06 214.757 241.505 214.757 242.039C214.757 242.56 214.673 242.999 214.505 243.358C214.339 243.714 214.112 243.985 213.824 244.169C213.539 244.351 213.219 244.442 212.865 244.442C212.613 244.442 212.4 244.4 212.224 244.318C212.049 244.235 211.907 244.13 211.795 244.005C211.684 243.877 211.599 243.749 211.54 243.619H211.5V246.116H210.206ZM211.473 242.033C211.473 242.31 211.511 242.553 211.588 242.759C211.665 242.966 211.777 243.127 211.923 243.242C212.069 243.356 212.246 243.412 212.455 243.412C212.665 243.412 212.843 243.355 212.989 243.239C213.135 243.122 213.245 242.96 213.32 242.753C213.397 242.545 213.436 242.305 213.436 242.033C213.436 241.764 213.398 241.527 213.323 241.322C213.248 241.118 213.138 240.958 212.992 240.842C212.847 240.727 212.667 240.669 212.455 240.669C212.244 240.669 212.065 240.725 211.92 240.836C211.776 240.948 211.665 241.106 211.588 241.31C211.511 241.515 211.473 241.755 211.473 242.033ZM216.857 244.454C216.559 244.454 216.294 244.403 216.06 244.299C215.827 244.194 215.643 244.039 215.508 243.835C215.374 243.628 215.307 243.371 215.307 243.063C215.307 242.804 215.355 242.586 215.45 242.41C215.545 242.233 215.674 242.092 215.839 241.984C216.003 241.877 216.189 241.796 216.398 241.742C216.608 241.687 216.829 241.649 217.06 241.626C217.331 241.598 217.55 241.572 217.716 241.547C217.882 241.521 218.003 241.482 218.078 241.431C218.153 241.381 218.19 241.306 218.19 241.207V241.189C218.19 240.996 218.129 240.848 218.008 240.742C217.888 240.637 217.718 240.584 217.498 240.584C217.265 240.584 217.079 240.636 216.942 240.739C216.804 240.84 216.713 240.968 216.668 241.122L215.471 241.025C215.532 240.741 215.651 240.496 215.829 240.289C216.008 240.081 216.237 239.921 216.519 239.809C216.803 239.696 217.131 239.639 217.504 239.639C217.763 239.639 218.011 239.67 218.248 239.731C218.487 239.791 218.699 239.885 218.882 240.013C219.069 240.141 219.216 240.304 219.323 240.505C219.43 240.704 219.484 240.942 219.484 241.219V244.366H218.257V243.719H218.221C218.146 243.865 218.045 243.994 217.92 244.105C217.794 244.214 217.643 244.3 217.467 244.363C217.291 244.424 217.087 244.454 216.857 244.454ZM217.227 243.561C217.417 243.561 217.585 243.524 217.731 243.449C217.877 243.372 217.992 243.269 218.075 243.139C218.157 243.009 218.199 242.862 218.199 242.699V242.203C218.159 242.23 218.103 242.254 218.032 242.276C217.963 242.297 217.885 242.316 217.798 242.334C217.711 242.35 217.624 242.366 217.537 242.379C217.45 242.392 217.371 242.403 217.3 242.413C217.148 242.435 217.015 242.471 216.902 242.519C216.789 242.568 216.7 242.633 216.638 242.717C216.575 242.798 216.543 242.899 216.543 243.02C216.543 243.196 216.607 243.331 216.735 243.425C216.865 243.516 217.029 243.561 217.227 243.561ZM222.496 246.214C222.077 246.214 221.718 246.156 221.418 246.04C221.12 245.927 220.883 245.772 220.707 245.575C220.531 245.379 220.416 245.158 220.364 244.913L221.561 244.752C221.597 244.845 221.655 244.932 221.734 245.013C221.813 245.094 221.917 245.159 222.047 245.208C222.178 245.259 222.339 245.284 222.527 245.284C222.808 245.284 223.04 245.215 223.222 245.077C223.407 244.942 223.499 244.714 223.499 244.394V243.54H223.444C223.388 243.67 223.303 243.792 223.189 243.908C223.075 244.023 222.93 244.117 222.751 244.19C222.573 244.263 222.361 244.299 222.113 244.299C221.763 244.299 221.444 244.218 221.156 244.056C220.871 243.893 220.643 243.642 220.473 243.306C220.305 242.968 220.221 242.54 220.221 242.024C220.221 241.496 220.307 241.054 220.479 240.699C220.651 240.345 220.88 240.08 221.166 239.903C221.453 239.727 221.768 239.639 222.111 239.639C222.372 239.639 222.59 239.684 222.767 239.773C222.943 239.86 223.084 239.97 223.192 240.101C223.302 240.231 223.385 240.358 223.444 240.484H223.493V239.7H224.778V244.412C224.778 244.809 224.68 245.141 224.486 245.408C224.292 245.676 224.022 245.876 223.678 246.01C223.336 246.146 222.942 246.214 222.496 246.214ZM222.524 243.327C222.732 243.327 222.909 243.276 223.052 243.172C223.198 243.067 223.31 242.917 223.387 242.723C223.466 242.526 223.505 242.291 223.505 242.018C223.505 241.745 223.466 241.507 223.39 241.307C223.313 241.105 223.201 240.948 223.056 240.836C222.91 240.725 222.732 240.669 222.524 240.669C222.311 240.669 222.132 240.727 221.986 240.842C221.84 240.956 221.73 241.114 221.655 241.316C221.58 241.519 221.542 241.753 221.542 242.018C221.542 242.287 221.58 242.52 221.655 242.717C221.732 242.911 221.842 243.062 221.986 243.169C222.132 243.274 222.311 243.327 222.524 243.327ZM227.84 244.457C227.36 244.457 226.947 244.36 226.6 244.166C226.256 243.97 225.991 243.692 225.805 243.333C225.618 242.973 225.525 242.547 225.525 242.054C225.525 241.574 225.618 241.153 225.805 240.79C225.991 240.428 226.253 240.146 226.591 239.943C226.932 239.74 227.331 239.639 227.789 239.639C228.097 239.639 228.383 239.689 228.648 239.788C228.916 239.885 229.149 240.032 229.347 240.228C229.548 240.425 229.703 240.672 229.815 240.97C229.926 241.266 229.982 241.612 229.982 242.009V242.364H226.042V241.562H228.764C228.764 241.376 228.723 241.211 228.642 241.067C228.561 240.923 228.449 240.811 228.305 240.73C228.163 240.647 227.998 240.605 227.81 240.605C227.613 240.605 227.439 240.651 227.287 240.742C227.137 240.831 227.02 240.952 226.935 241.104C226.85 241.253 226.806 241.421 226.804 241.605V242.367C226.804 242.598 226.847 242.798 226.932 242.966C227.019 243.134 227.142 243.264 227.299 243.355C227.458 243.446 227.645 243.492 227.861 243.492C228.005 243.492 228.137 243.471 228.256 243.431C228.376 243.39 228.478 243.33 228.563 243.248C228.648 243.168 228.713 243.068 228.757 242.95L229.955 243.03C229.894 243.317 229.77 243.569 229.581 243.783C229.395 243.996 229.154 244.161 228.858 244.281C228.564 244.399 228.225 244.457 227.84 244.457Z" fill="#333333"/>
<path d="M220.802 170.296C220.802 169.853 220.443 169.494 220 169.494C219.557 169.494 219.198 169.853 219.198 170.296H220.802ZM216.439 202.125C215.996 202.125 215.683 202.668 215.904 203.051L219.465 209.219C219.687 209.603 220.313 209.603 220.535 209.219L224.096 203.051C224.317 202.668 224.004 202.125 223.561 202.125H216.439ZM219.198 170.296V202.927H220.802V170.296H219.198Z" fill="#CECCCC"/>
<path d="M220.802 170.296C220.802 169.853 220.443 169.494 220 169.494C219.557 169.494 219.198 169.853 219.198 170.296H220.802ZM216.439 202.125C215.996 202.125 215.683 202.668 215.904 203.051L219.465 209.219C219.687 209.603 220.313 209.603 220.535 209.219L224.096 203.051C224.317 202.668 224.004 202.125 223.561 202.125H216.439ZM219.198 170.296V202.927H220.802V170.296H219.198Z" fill="url(#paint0_linear_10194_13326)"/>
<g filter="url(#filter2_d_10194_13326)">
<path d="M279.783 34.7734H160.217C150.712 34.7734 143.007 42.4786 143.007 51.9834V60.5885C143.007 70.0933 150.712 77.7985 160.217 77.7985H279.783C289.288 77.7985 296.993 70.0933 296.993 60.5885V51.9834C296.993 42.4786 289.288 34.7734 279.783 34.7734Z" fill="white"/>
</g>
<path d="M169.285 54.935C169.261 54.6899 169.156 54.4995 168.972 54.3638C168.788 54.2282 168.538 54.1603 168.222 54.1603C168.007 54.1603 167.826 54.1907 167.678 54.2514C167.53 54.3102 167.417 54.3922 167.338 54.4975C167.261 54.6028 167.222 54.7223 167.222 54.856C167.218 54.9674 167.241 55.0646 167.292 55.1477C167.345 55.2307 167.417 55.3025 167.508 55.3633C167.599 55.422 167.704 55.4737 167.824 55.5182C167.943 55.5608 168.071 55.5973 168.206 55.6276L168.765 55.7613C169.037 55.822 169.286 55.903 169.513 56.0043C169.74 56.1056 169.936 56.2302 170.102 56.378C170.268 56.5258 170.397 56.7 170.488 56.9005C170.581 57.101 170.629 57.3309 170.631 57.5901C170.629 57.9709 170.531 58.301 170.339 58.5805C170.149 58.8579 169.873 59.0737 169.513 59.2275C169.154 59.3794 168.722 59.4554 168.216 59.4554C167.713 59.4554 167.276 59.3784 166.903 59.2245C166.533 59.0706 166.243 58.8427 166.034 58.541C165.828 58.2372 165.719 57.8615 165.709 57.4139H166.982C166.996 57.6225 167.056 57.7967 167.161 57.9365C167.269 58.0741 167.411 58.1785 167.59 58.2494C167.77 58.3182 167.973 58.3527 168.2 58.3527C168.423 58.3527 168.617 58.3203 168.781 58.2555C168.947 58.1906 169.075 58.1005 169.166 57.9851C169.258 57.8696 169.303 57.737 169.303 57.5871C169.303 57.4473 169.262 57.3299 169.179 57.2347C169.098 57.1395 168.978 57.0585 168.82 56.9916C168.664 56.9248 168.473 56.8641 168.246 56.8094L167.568 56.6392C167.044 56.5117 166.63 56.3122 166.326 56.0408C166.022 55.7694 165.871 55.4038 165.873 54.9441C165.871 54.5674 165.971 54.2383 166.174 53.9568C166.379 53.6753 166.659 53.4555 167.016 53.2975C167.372 53.1396 167.777 53.0605 168.231 53.0605C168.692 53.0605 169.095 53.1396 169.44 53.2975C169.786 53.4555 170.055 53.6753 170.248 53.9568C170.44 54.2383 170.54 54.5643 170.546 54.935H169.285ZM173.455 59.4585C172.975 59.4585 172.562 59.3612 172.216 59.1668C171.871 58.9704 171.606 58.6929 171.42 58.3344C171.233 57.9739 171.14 57.5476 171.14 57.0554C171.14 56.5754 171.233 56.1542 171.42 55.7917C171.606 55.4292 171.868 55.1466 172.207 54.9441C172.547 54.7416 172.946 54.6403 173.404 54.6403C173.711 54.6403 173.998 54.6899 174.263 54.7892C174.531 54.8864 174.764 55.0332 174.962 55.2297C175.162 55.4261 175.318 55.6732 175.43 55.9709C175.541 56.2666 175.597 56.6129 175.597 57.0099V57.3653H171.657V56.5633H174.379C174.379 56.377 174.338 56.2119 174.257 56.0681C174.176 55.9243 174.064 55.8119 173.92 55.7309C173.778 55.6479 173.613 55.6063 173.425 55.6063C173.228 55.6063 173.054 55.6519 172.902 55.7431C172.752 55.8322 172.635 55.9527 172.55 56.1046C172.465 56.2544 172.421 56.4215 172.419 56.6058V57.3684C172.419 57.5992 172.462 57.7987 172.547 57.9668C172.634 58.1349 172.756 58.2645 172.914 58.3557C173.072 58.4468 173.26 58.4924 173.476 58.4924C173.62 58.4924 173.752 58.4722 173.871 58.4316C173.991 58.3911 174.093 58.3304 174.178 58.2494C174.263 58.1684 174.328 58.0691 174.373 57.9516L175.57 58.0306C175.509 58.3182 175.384 58.5694 175.196 58.784C175.01 58.9967 174.769 59.1627 174.473 59.2822C174.179 59.3997 173.84 59.4585 173.455 59.4585ZM177.609 59.4554C177.312 59.4554 177.046 59.4038 176.814 59.3005C176.581 59.1951 176.396 59.0402 176.261 58.8357C176.127 58.6291 176.06 58.3719 176.06 58.064C176.06 57.8048 176.108 57.5871 176.203 57.4109C176.298 57.2347 176.428 57.0929 176.592 56.9856C176.756 56.8782 176.942 56.7972 177.151 56.7425C177.361 56.6878 177.582 56.6494 177.813 56.6271C178.084 56.5988 178.303 56.5724 178.469 56.5481C178.635 56.5218 178.756 56.4833 178.831 56.4327C178.906 56.3821 178.943 56.3071 178.943 56.2079V56.1896C178.943 55.9973 178.882 55.8484 178.761 55.7431C178.641 55.6377 178.471 55.5851 178.251 55.5851C178.018 55.5851 177.832 55.6367 177.695 55.74C177.557 55.8413 177.466 55.9689 177.421 56.1228L176.224 56.0256C176.285 55.742 176.404 55.497 176.583 55.2904C176.761 55.0818 176.991 54.9218 177.272 54.8104C177.556 54.697 177.884 54.6403 178.257 54.6403C178.516 54.6403 178.764 54.6707 179.001 54.7314C179.24 54.7922 179.452 54.8864 179.636 55.014C179.822 55.1416 179.969 55.3056 180.076 55.5061C180.184 55.7046 180.237 55.9426 180.237 56.22V59.3673H179.01V58.7202H178.974C178.899 58.8661 178.798 58.9946 178.673 59.1061C178.547 59.2154 178.396 59.3015 178.22 59.3643C178.044 59.4251 177.84 59.4554 177.609 59.4554ZM177.98 58.5622C178.171 58.5622 178.339 58.5248 178.484 58.4499C178.63 58.3729 178.745 58.2696 178.828 58.14C178.911 58.0104 178.952 57.8635 178.952 57.6995V57.2043C178.912 57.2306 178.856 57.2549 178.785 57.2772C178.716 57.2975 178.638 57.3167 178.551 57.335C178.464 57.3512 178.377 57.3663 178.29 57.3805C178.203 57.3926 178.124 57.4038 178.053 57.4139C177.901 57.4362 177.769 57.4716 177.655 57.5203C177.542 57.5689 177.454 57.6347 177.391 57.7177C177.328 57.7987 177.297 57.9 177.297 58.0215C177.297 58.1977 177.36 58.3324 177.488 58.4255C177.618 58.5167 177.782 58.5622 177.98 58.5622ZM181.079 59.3673V54.701H182.333V55.5152H182.382C182.467 55.2256 182.61 55.0069 182.81 54.859C183.011 54.7092 183.242 54.6342 183.503 54.6342C183.568 54.6342 183.638 54.6383 183.713 54.6464C183.788 54.6545 183.853 54.6656 183.91 54.6798V55.8281C183.849 55.8099 183.765 55.7937 183.658 55.7795C183.551 55.7654 183.452 55.7583 183.363 55.7583C183.173 55.7583 183.003 55.7998 182.853 55.8828C182.705 55.9638 182.588 56.0772 182.501 56.223C182.416 56.3688 182.373 56.537 182.373 56.7273V59.3673H181.079ZM186.308 59.4585C185.83 59.4585 185.419 59.3572 185.074 59.1547C184.732 58.9501 184.469 58.6666 184.285 58.3041C184.102 57.9415 184.011 57.5243 184.011 57.0524C184.011 56.5744 184.103 56.1552 184.288 55.7947C184.474 55.4322 184.738 55.1496 185.081 54.9471C185.423 54.7426 185.83 54.6403 186.302 54.6403C186.709 54.6403 187.065 54.7142 187.371 54.8621C187.677 55.0099 187.919 55.2175 188.097 55.4848C188.275 55.7522 188.374 56.0661 188.392 56.4266H187.171C187.136 56.1937 187.045 56.0063 186.897 55.8646C186.751 55.7208 186.56 55.6489 186.323 55.6489C186.123 55.6489 185.947 55.7036 185.797 55.8129C185.65 55.9203 185.534 56.0772 185.451 56.2838C185.368 56.4904 185.327 56.7405 185.327 57.0342C185.327 57.3319 185.367 57.5851 185.448 57.7937C185.531 58.0023 185.648 58.1612 185.797 58.2706C185.947 58.38 186.123 58.4347 186.323 58.4347C186.471 58.4347 186.604 58.4043 186.721 58.3435C186.84 58.2828 186.939 58.1947 187.016 58.0792C187.095 57.9618 187.146 57.821 187.171 57.6569H188.392C188.372 58.0134 188.274 58.3273 188.1 58.5987C187.928 58.8681 187.69 59.0787 187.386 59.2306C187.082 59.3825 186.723 59.4585 186.308 59.4585ZM190.352 56.6696V59.3673H189.058V53.1456H190.316V55.5243H190.37C190.476 55.2489 190.646 55.0332 190.881 54.8773C191.116 54.7193 191.41 54.6403 191.765 54.6403C192.089 54.6403 192.371 54.7112 192.612 54.8529C192.855 54.9927 193.044 55.1942 193.177 55.4575C193.313 55.7187 193.38 56.0317 193.378 56.3962V59.3673H192.084V56.6271C192.086 56.3395 192.013 56.1157 191.865 55.9557C191.719 55.7957 191.515 55.7157 191.251 55.7157C191.075 55.7157 190.919 55.7532 190.783 55.8281C190.65 55.903 190.544 56.0124 190.468 56.1562C190.393 56.298 190.354 56.4691 190.352 56.6696ZM197.382 59.4554C197.084 59.4554 196.819 59.4038 196.586 59.3005C196.353 59.1951 196.169 59.0402 196.033 58.8357C195.899 58.6291 195.833 58.3719 195.833 58.064C195.833 57.8048 195.88 57.5871 195.975 57.4109C196.07 57.2347 196.2 57.0929 196.364 56.9856C196.528 56.8782 196.714 56.7972 196.923 56.7425C197.134 56.6878 197.354 56.6494 197.585 56.6271C197.857 56.5988 198.076 56.5724 198.242 56.5481C198.408 56.5218 198.528 56.4833 198.603 56.4327C198.678 56.3821 198.716 56.3071 198.716 56.2079V56.1896C198.716 55.9973 198.655 55.8484 198.533 55.7431C198.413 55.6377 198.243 55.5851 198.023 55.5851C197.79 55.5851 197.604 55.6367 197.467 55.74C197.329 55.8413 197.238 55.9689 197.193 56.1228L195.997 56.0256C196.057 55.742 196.177 55.497 196.355 55.2904C196.533 55.0818 196.763 54.9218 197.045 54.8104C197.328 54.697 197.656 54.6403 198.029 54.6403C198.288 54.6403 198.536 54.6707 198.773 54.7314C199.012 54.7922 199.224 54.8864 199.408 55.014C199.595 55.1416 199.741 55.3056 199.848 55.5061C199.956 55.7046 200.009 55.9426 200.009 56.22V59.3673H198.782V58.7202H198.746C198.671 58.8661 198.571 58.9946 198.445 59.1061C198.319 59.2154 198.169 59.3015 197.993 59.3643C197.816 59.4251 197.612 59.4554 197.382 59.4554ZM197.753 58.5622C197.943 58.5622 198.111 58.5248 198.257 58.4499C198.403 58.3729 198.517 58.2696 198.6 58.14C198.683 58.0104 198.725 57.8635 198.725 57.6995V57.2043C198.684 57.2306 198.628 57.2549 198.557 57.2772C198.489 57.2975 198.411 57.3167 198.324 57.335C198.236 57.3512 198.149 57.3663 198.062 57.3805C197.975 57.3926 197.896 57.4038 197.825 57.4139C197.673 57.4362 197.541 57.4716 197.427 57.5203C197.314 57.5689 197.226 57.6347 197.163 57.7177C197.1 57.7987 197.069 57.9 197.069 58.0215C197.069 58.1977 197.133 58.3324 197.26 58.4255C197.39 58.5167 197.554 58.5622 197.753 58.5622ZM202.145 56.6696V59.3673H200.851V54.701H202.085V55.5243H202.139C202.242 55.2529 202.415 55.0383 202.659 54.8803C202.901 54.7203 203.197 54.6403 203.543 54.6403C203.867 54.6403 204.149 54.7112 204.39 54.8529C204.631 54.9947 204.819 55.1973 204.953 55.4605C205.086 55.7218 205.153 56.0337 205.153 56.3962V59.3673H203.859V56.6271C203.861 56.3415 203.788 56.1187 203.64 55.9588C203.492 55.7967 203.289 55.7157 203.029 55.7157C202.855 55.7157 202.701 55.7532 202.567 55.8281C202.436 55.903 202.333 56.0124 202.258 56.1562C202.184 56.298 202.147 56.4691 202.145 56.6696ZM207.73 59.4432C207.375 59.4432 207.054 59.3521 206.767 59.1699C206.481 58.9855 206.254 58.7152 206.086 58.3587C205.92 58.0003 205.837 57.5607 205.837 57.0402C205.837 56.5056 205.923 56.061 206.095 55.7066C206.267 55.3501 206.496 55.0838 206.782 54.9076C207.069 54.7294 207.384 54.6403 207.727 54.6403C207.988 54.6403 208.205 54.6848 208.38 54.774C208.556 54.8611 208.698 54.9704 208.805 55.102C208.914 55.2317 208.997 55.3593 209.054 55.4848H209.094V53.1456H210.385V59.3673H209.109V58.62H209.054C208.994 58.7496 208.907 58.8782 208.796 59.0058C208.687 59.1314 208.544 59.2357 208.367 59.3187C208.194 59.4017 207.981 59.4432 207.73 59.4432ZM208.14 58.4134C208.348 58.4134 208.525 58.3567 208.668 58.2433C208.814 58.1278 208.926 57.9668 209.003 57.7602C209.082 57.5537 209.121 57.3116 209.121 57.0342C209.121 56.7567 209.082 56.5157 209.006 56.3112C208.929 56.1066 208.817 55.9486 208.672 55.8372C208.526 55.7258 208.348 55.6701 208.14 55.6701C207.927 55.6701 207.748 55.7279 207.602 55.8433C207.456 55.9588 207.346 56.1187 207.271 56.3233C207.196 56.5279 207.159 56.7648 207.159 57.0342C207.159 57.3055 207.196 57.5456 207.271 57.7542C207.348 57.9607 207.459 58.1227 207.602 58.2402C207.748 58.3557 207.927 58.4134 208.14 58.4134ZM214.434 59.4554C214.137 59.4554 213.871 59.4038 213.638 59.3005C213.406 59.1951 213.221 59.0402 213.085 58.8357C212.952 58.6291 212.885 58.3719 212.885 58.064C212.885 57.8048 212.933 57.5871 213.028 57.4109C213.123 57.2347 213.253 57.0929 213.417 56.9856C213.581 56.8782 213.767 56.7972 213.976 56.7425C214.186 56.6878 214.407 56.6494 214.638 56.6271C214.909 56.5988 215.128 56.5724 215.294 56.5481C215.46 56.5218 215.581 56.4833 215.656 56.4327C215.73 56.3821 215.768 56.3071 215.768 56.2079V56.1896C215.768 55.9973 215.707 55.8484 215.586 55.7431C215.466 55.6377 215.296 55.5851 215.076 55.5851C214.842 55.5851 214.657 55.6367 214.519 55.74C214.381 55.8413 214.291 55.9689 214.246 56.1228L213.049 56.0256C213.11 55.742 213.229 55.497 213.407 55.2904C213.586 55.0818 213.816 54.9218 214.097 54.8104C214.381 54.697 214.709 54.6403 215.081 54.6403C215.341 54.6403 215.589 54.6707 215.826 54.7314C216.065 54.7922 216.276 54.8864 216.461 55.014C216.647 55.1416 216.794 55.3056 216.901 55.5061C217.008 55.7046 217.062 55.9426 217.062 56.22V59.3673H215.835V58.7202H215.798C215.724 58.8661 215.623 58.9946 215.498 59.1061C215.372 59.2154 215.221 59.3015 215.045 59.3643C214.869 59.4251 214.665 59.4554 214.434 59.4554ZM214.805 58.5622C214.995 58.5622 215.164 58.5248 215.309 58.4499C215.455 58.3729 215.57 58.2696 215.652 58.14C215.736 58.0104 215.777 57.8635 215.777 57.6995V57.2043C215.737 57.2306 215.681 57.2549 215.61 57.2772C215.541 57.2975 215.463 57.3167 215.376 57.335C215.289 57.3512 215.202 57.3663 215.115 57.3805C215.028 57.3926 214.949 57.4038 214.878 57.4139C214.726 57.4362 214.593 57.4716 214.48 57.5203C214.367 57.5689 214.278 57.6347 214.216 57.7177C214.153 57.7987 214.122 57.9 214.122 58.0215C214.122 58.1977 214.185 58.3324 214.313 58.4255C214.442 58.5167 214.607 58.5622 214.805 58.5622ZM219.623 59.4432C219.269 59.4432 218.948 59.3521 218.66 59.1699C218.374 58.9855 218.148 58.7152 217.98 58.3587C217.814 58.0003 217.731 57.5607 217.731 57.0402C217.731 56.5056 217.817 56.061 217.989 55.7066C218.161 55.3501 218.39 55.0838 218.675 54.9076C218.963 54.7294 219.278 54.6403 219.62 54.6403C219.881 54.6403 220.099 54.6848 220.273 54.774C220.45 54.8611 220.591 54.9704 220.699 55.102C220.808 55.2317 220.891 55.3593 220.948 55.4848H220.987V53.1456H222.278V59.3673H221.002V58.62H220.948C220.887 58.7496 220.801 58.8782 220.69 59.0058C220.58 59.1314 220.437 59.2357 220.261 59.3187C220.087 59.4017 219.874 59.4432 219.623 59.4432ZM220.033 58.4134C220.242 58.4134 220.418 58.3567 220.562 58.2433C220.708 58.1278 220.819 57.9668 220.896 57.7602C220.975 57.5537 221.015 57.3116 221.015 57.0342C221.015 56.7567 220.976 56.5157 220.899 56.3112C220.822 56.1066 220.711 55.9486 220.565 55.8372C220.419 55.7258 220.242 55.6701 220.033 55.6701C219.821 55.6701 219.642 55.7279 219.496 55.8433C219.35 55.9588 219.24 56.1187 219.164 56.3233C219.089 56.5279 219.052 56.7648 219.052 57.0342C219.052 57.3055 219.089 57.5456 219.164 57.7542C219.241 57.9607 219.352 58.1227 219.496 58.2402C219.642 58.3557 219.821 58.4134 220.033 58.4134ZM224.899 59.4432C224.545 59.4432 224.224 59.3521 223.936 59.1699C223.651 58.9855 223.424 58.7152 223.256 58.3587C223.09 58.0003 223.007 57.5607 223.007 57.0402C223.007 56.5056 223.093 56.061 223.265 55.7066C223.437 55.3501 223.666 55.0838 223.952 54.9076C224.239 54.7294 224.554 54.6403 224.896 54.6403C225.157 54.6403 225.375 54.6848 225.549 54.774C225.726 54.8611 225.867 54.9704 225.975 55.102C226.084 55.2317 226.167 55.3593 226.224 55.4848H226.263V53.1456H227.554V59.3673H226.279V58.62H226.224C226.163 58.7496 226.077 58.8782 225.966 59.0058C225.856 59.1314 225.713 59.2357 225.537 59.3187C225.363 59.4017 225.15 59.4432 224.899 59.4432ZM225.309 58.4134C225.518 58.4134 225.694 58.3567 225.838 58.2433C225.984 58.1278 226.095 57.9668 226.172 57.7602C226.251 57.5537 226.291 57.3116 226.291 57.0342C226.291 56.7567 226.252 56.5157 226.175 56.3112C226.098 56.1066 225.987 55.9486 225.841 55.8372C225.695 55.7258 225.518 55.6701 225.309 55.6701C225.097 55.6701 224.917 55.7279 224.772 55.8433C224.626 55.9588 224.516 56.1187 224.44 56.3233C224.365 56.5279 224.328 56.7648 224.328 57.0342C224.328 57.3055 224.365 57.5456 224.44 57.7542C224.517 57.9607 224.628 58.1227 224.772 58.2402C224.917 58.3557 225.097 58.4134 225.309 58.4134ZM232.375 61.2143C231.956 61.2143 231.597 61.1566 231.297 61.0412C230.999 60.9278 230.762 60.7729 230.586 60.5764C230.41 60.3799 230.296 60.1592 230.243 59.9141L231.44 59.7531C231.476 59.8463 231.534 59.9334 231.613 60.0144C231.692 60.0954 231.796 60.1602 231.926 60.2088C232.058 60.2595 232.218 60.2848 232.406 60.2848C232.688 60.2848 232.919 60.2159 233.102 60.0782C233.286 59.9425 233.378 59.7146 233.378 59.3946V58.541H233.323C233.267 58.6706 233.182 58.7931 233.068 58.9086C232.955 59.024 232.809 59.1182 232.631 59.1911C232.452 59.264 232.24 59.3005 231.993 59.3005C231.642 59.3005 231.323 59.2195 231.036 59.0575C230.75 58.8934 230.522 58.6432 230.352 58.307C230.184 57.9689 230.1 57.5415 230.1 57.0251C230.1 56.4965 230.186 56.0549 230.359 55.7005C230.53 55.3461 230.76 55.0808 231.045 54.9046C231.332 54.7284 231.647 54.6403 231.99 54.6403C232.251 54.6403 232.47 54.6848 232.646 54.774C232.822 54.8611 232.964 54.9704 233.071 55.102C233.181 55.2317 233.265 55.3593 233.323 55.4848H233.372V54.701H234.657V59.4129C234.657 59.8099 234.56 60.142 234.366 60.4093C234.171 60.6767 233.901 60.8772 233.557 61.0108C233.215 61.1465 232.821 61.2143 232.375 61.2143ZM232.403 58.3283C232.612 58.3283 232.788 58.2767 232.932 58.1734C233.077 58.0681 233.189 57.9182 233.266 57.7238C233.345 57.5273 233.384 57.2924 233.384 57.019C233.384 56.7456 233.346 56.5086 233.269 56.3081C233.192 56.1056 233.08 55.9486 232.935 55.8372C232.789 55.7258 232.612 55.6701 232.403 55.6701C232.19 55.6701 232.011 55.7279 231.865 55.8433C231.719 55.9567 231.609 56.1147 231.534 56.3173C231.459 56.5197 231.422 56.7537 231.422 57.019C231.422 57.2883 231.459 57.5212 231.534 57.7177C231.611 57.9121 231.722 58.063 231.865 58.1704C232.011 58.2757 232.19 58.3283 232.403 58.3283ZM236.855 59.4554C236.557 59.4554 236.292 59.4038 236.059 59.3005C235.826 59.1951 235.642 59.0402 235.506 58.8357C235.372 58.6291 235.305 58.3719 235.305 58.064C235.305 57.8048 235.353 57.5871 235.448 57.4109C235.543 57.2347 235.673 57.0929 235.837 56.9856C236.001 56.8782 236.188 56.7972 236.396 56.7425C236.607 56.6878 236.828 56.6494 237.059 56.6271C237.33 56.5988 237.548 56.5724 237.715 56.5481C237.881 56.5218 238.001 56.4833 238.076 56.4327C238.151 56.3821 238.188 56.3071 238.188 56.2079V56.1896C238.188 55.9973 238.128 55.8484 238.006 55.7431C237.887 55.6377 237.717 55.5851 237.496 55.5851C237.263 55.5851 237.078 55.6367 236.94 55.74C236.803 55.8413 236.711 55.9689 236.667 56.1228L235.47 56.0256C235.531 55.742 235.65 55.497 235.828 55.2904C236.006 55.0818 236.236 54.9218 236.518 54.8104C236.801 54.697 237.129 54.6403 237.502 54.6403C237.761 54.6403 238.009 54.6707 238.246 54.7314C238.485 54.7922 238.697 54.8864 238.881 55.014C239.067 55.1416 239.214 55.3056 239.322 55.5061C239.429 55.7046 239.483 55.9426 239.483 56.22V59.3673H238.255V58.7202H238.219C238.144 58.8661 238.044 58.9946 237.918 59.1061C237.793 59.2154 237.642 59.3015 237.466 59.3643C237.29 59.4251 237.086 59.4554 236.855 59.4554ZM237.225 58.5622C237.416 58.5622 237.584 58.5248 237.73 58.4499C237.876 58.3729 237.99 58.2696 238.073 58.14C238.156 58.0104 238.198 57.8635 238.198 57.6995V57.2043C238.157 57.2306 238.101 57.2549 238.031 57.2772C237.962 57.2975 237.884 57.3167 237.797 57.335C237.71 57.3512 237.623 57.3663 237.536 57.3805C237.448 57.3926 237.369 57.4038 237.299 57.4139C237.147 57.4362 237.014 57.4716 236.9 57.5203C236.787 57.5689 236.699 57.6347 236.636 57.7177C236.574 57.7987 236.542 57.9 236.542 58.0215C236.542 58.1977 236.606 58.3324 236.734 58.4255C236.863 58.5167 237.027 58.5622 237.225 58.5622ZM240.324 59.3673V54.701H241.557V55.5243H241.612C241.71 55.2509 241.872 55.0352 242.099 54.8773C242.325 54.7193 242.597 54.6403 242.913 54.6403C243.233 54.6403 243.505 54.7203 243.73 54.8803C243.954 55.0383 244.105 55.2529 244.179 55.5243H244.228C244.323 55.257 244.495 55.0433 244.745 54.8833C244.995 54.7213 245.292 54.6403 245.634 54.6403C246.07 54.6403 246.424 54.779 246.695 55.0565C246.968 55.332 247.105 55.7228 247.105 56.2291V59.3673H245.814V56.4843C245.814 56.2251 245.745 56.0307 245.607 55.901C245.47 55.7714 245.297 55.7066 245.091 55.7066C244.856 55.7066 244.672 55.7816 244.541 55.9314C244.409 56.0793 244.344 56.2747 244.344 56.5178V59.3673H243.089V56.457C243.089 56.2281 243.023 56.0459 242.891 55.9102C242.762 55.7745 242.59 55.7066 242.378 55.7066C242.234 55.7066 242.104 55.7431 241.989 55.816C241.876 55.8868 241.786 55.9871 241.719 56.1168C241.652 56.2443 241.618 56.3942 241.618 56.5664V59.3673H240.324ZM250.091 59.4585C249.611 59.4585 249.198 59.3612 248.852 59.1668C248.508 58.9704 248.242 58.6929 248.056 58.3344C247.869 57.9739 247.776 57.5476 247.776 57.0554C247.776 56.5754 247.869 56.1542 248.056 55.7917C248.242 55.4292 248.504 55.1466 248.842 54.9441C249.183 54.7416 249.582 54.6403 250.04 54.6403C250.347 54.6403 250.634 54.6899 250.899 54.7892C251.167 54.8864 251.4 55.0332 251.598 55.2297C251.799 55.4261 251.955 55.6732 252.066 55.9709C252.177 56.2666 252.233 56.6129 252.233 57.0099V57.3653H248.293V56.5633H251.015C251.015 56.377 250.974 56.2119 250.893 56.0681C250.812 55.9243 250.7 55.8119 250.556 55.7309C250.414 55.6479 250.249 55.6063 250.061 55.6063C249.864 55.6063 249.69 55.6519 249.539 55.7431C249.388 55.8322 249.271 55.9527 249.186 56.1046C249.101 56.2544 249.057 56.4215 249.055 56.6058V57.3684C249.055 57.5992 249.098 57.7987 249.183 57.9668C249.27 58.1349 249.393 58.2645 249.55 58.3557C249.709 58.4468 249.896 58.4924 250.112 58.4924C250.256 58.4924 250.388 58.4722 250.507 58.4316C250.627 58.3911 250.729 58.3304 250.814 58.2494C250.899 58.1684 250.964 58.0691 251.009 57.9516L252.205 58.0306C252.145 58.3182 252.02 58.5694 251.832 58.784C251.646 58.9967 251.405 59.1627 251.109 59.2822C250.815 59.3997 250.476 59.4585 250.091 59.4585ZM254.732 61.1171V54.701H256.008V55.4848H256.066C256.123 55.3593 256.205 55.2317 256.312 55.102C256.421 54.9704 256.563 54.8611 256.737 54.774C256.914 54.6848 257.133 54.6403 257.393 54.6403C257.734 54.6403 258.048 54.7294 258.336 54.9076C258.623 55.0838 258.853 55.3501 259.025 55.7066C259.197 56.061 259.283 56.5056 259.283 57.0402C259.283 57.5607 259.199 58.0003 259.031 58.3587C258.865 58.7152 258.638 58.9855 258.351 59.1699C258.065 59.3521 257.745 59.4432 257.391 59.4432C257.139 59.4432 256.926 59.4017 256.75 59.3187C256.575 59.2357 256.433 59.1314 256.321 59.0058C256.21 58.8782 256.125 58.7496 256.066 58.62H256.026V61.1171H254.732ZM255.999 57.0342C255.999 57.3116 256.037 57.5537 256.114 57.7602C256.191 57.9668 256.303 58.1278 256.449 58.2433C256.595 58.3567 256.772 58.4134 256.981 58.4134C257.191 58.4134 257.369 58.3557 257.515 58.2402C257.661 58.1227 257.771 57.9607 257.846 57.7542C257.923 57.5456 257.962 57.3055 257.962 57.0342C257.962 56.7648 257.924 56.5279 257.85 56.3233C257.774 56.1187 257.664 55.9588 257.518 55.8433C257.373 55.7279 257.193 55.6701 256.981 55.6701C256.77 55.6701 256.591 55.7258 256.446 55.8372C256.302 55.9486 256.191 56.1066 256.114 56.3112C256.037 56.5157 255.999 56.7567 255.999 57.0342ZM261.314 59.4554C261.016 59.4554 260.751 59.4038 260.518 59.3005C260.285 59.1951 260.101 59.0402 259.965 58.8357C259.832 58.6291 259.765 58.3719 259.765 58.064C259.765 57.8048 259.812 57.5871 259.907 57.4109C260.003 57.2347 260.132 57.0929 260.296 56.9856C260.46 56.8782 260.647 56.7972 260.855 56.7425C261.066 56.6878 261.287 56.6494 261.517 56.6271C261.789 56.5988 262.008 56.5724 262.174 56.5481C262.34 56.5218 262.461 56.4833 262.535 56.4327C262.61 56.3821 262.648 56.3071 262.648 56.2079V56.1896C262.648 55.9973 262.587 55.8484 262.465 55.7431C262.346 55.6377 262.176 55.5851 261.955 55.5851C261.722 55.5851 261.537 55.6367 261.399 55.74C261.261 55.8413 261.17 55.9689 261.125 56.1228L259.929 56.0256C259.989 55.742 260.109 55.497 260.287 55.2904C260.466 55.0818 260.695 54.9218 260.977 54.8104C261.26 54.697 261.588 54.6403 261.961 54.6403C262.22 54.6403 262.469 54.6707 262.705 54.7314C262.944 54.7922 263.156 54.8864 263.34 55.014C263.527 55.1416 263.674 55.3056 263.781 55.5061C263.888 55.7046 263.942 55.9426 263.942 56.22V59.3673H262.715V58.7202H262.678C262.603 58.8661 262.503 58.9946 262.377 59.1061C262.251 59.2154 262.101 59.3015 261.925 59.3643C261.748 59.4251 261.545 59.4554 261.314 59.4554ZM261.685 58.5622C261.875 58.5622 262.043 58.5248 262.189 58.4499C262.335 58.3729 262.449 58.2696 262.532 58.14C262.615 58.0104 262.657 57.8635 262.657 57.6995V57.2043C262.616 57.2306 262.561 57.2549 262.49 57.2772C262.421 57.2975 262.343 57.3167 262.256 57.335C262.169 57.3512 262.081 57.3663 261.994 57.3805C261.908 57.3926 261.829 57.4038 261.757 57.4139C261.606 57.4362 261.473 57.4716 261.36 57.5203C261.246 57.5689 261.158 57.6347 261.096 57.7177C261.032 57.7987 261.001 57.9 261.001 58.0215C261.001 58.1977 261.065 58.3324 261.192 58.4255C261.322 58.5167 261.486 58.5622 261.685 58.5622ZM266.886 61.2143C266.466 61.2143 266.107 61.1566 265.807 61.0412C265.509 60.9278 265.272 60.7729 265.096 60.5764C264.92 60.3799 264.806 60.1592 264.753 59.9141L265.95 59.7531C265.986 59.8463 266.044 59.9334 266.123 60.0144C266.202 60.0954 266.306 60.1602 266.436 60.2088C266.567 60.2595 266.728 60.2848 266.916 60.2848C267.197 60.2848 267.429 60.2159 267.612 60.0782C267.796 59.9425 267.888 59.7146 267.888 59.3946V58.541H267.833C267.777 58.6706 267.692 58.7931 267.578 58.9086C267.465 59.024 267.319 59.1182 267.141 59.1911C266.963 59.264 266.75 59.3005 266.503 59.3005C266.152 59.3005 265.833 59.2195 265.546 59.0575C265.26 58.8934 265.032 58.6432 264.862 58.307C264.694 57.9689 264.61 57.5415 264.61 57.0251C264.61 56.4965 264.696 56.0549 264.868 55.7005C265.04 55.3461 265.269 55.0808 265.555 54.9046C265.842 54.7284 266.157 54.6403 266.5 54.6403C266.761 54.6403 266.98 54.6848 267.156 54.774C267.332 54.8611 267.474 54.9704 267.581 55.102C267.691 55.2317 267.775 55.3593 267.833 55.4848H267.882V54.701H269.167V59.4129C269.167 59.8099 269.07 60.142 268.876 60.4093C268.681 60.6767 268.411 60.8772 268.067 61.0108C267.725 61.1465 267.331 61.2143 266.886 61.2143ZM266.913 58.3283C267.121 58.3283 267.298 58.2767 267.442 58.1734C267.588 58.0681 267.699 57.9182 267.776 57.7238C267.855 57.5273 267.894 57.2924 267.894 57.019C267.894 56.7456 267.855 56.5086 267.779 56.3081C267.702 56.1056 267.59 55.9486 267.445 55.8372C267.299 55.7258 267.121 55.6701 266.913 55.6701C266.701 55.6701 266.521 55.7279 266.375 55.8433C266.229 55.9567 266.119 56.1147 266.044 56.3173C265.969 56.5197 265.932 56.7537 265.932 57.019C265.932 57.2883 265.969 57.5212 266.044 57.7177C266.121 57.9121 266.232 58.063 266.375 58.1704C266.521 58.2757 266.701 58.3283 266.913 58.3283ZM272.161 59.4585C271.681 59.4585 271.268 59.3612 270.921 59.1668C270.577 58.9704 270.312 58.6929 270.126 58.3344C269.939 57.9739 269.846 57.5476 269.846 57.0554C269.846 56.5754 269.939 56.1542 270.126 55.7917C270.312 55.4292 270.574 55.1466 270.912 54.9441C271.253 54.7416 271.652 54.6403 272.109 54.6403C272.417 54.6403 272.704 54.6899 272.969 54.7892C273.236 54.8864 273.47 55.0332 273.668 55.2297C273.868 55.4261 274.024 55.6732 274.136 55.9709C274.247 56.2666 274.303 56.6129 274.303 57.0099V57.3653H270.363V56.5633H273.085C273.085 56.377 273.044 56.2119 272.963 56.0681C272.882 55.9243 272.77 55.8119 272.626 55.7309C272.484 55.6479 272.319 55.6063 272.131 55.6063C271.934 55.6063 271.76 55.6519 271.608 55.7431C271.458 55.8322 271.34 55.9527 271.255 56.1046C271.17 56.2544 271.127 56.4215 271.125 56.6058V57.3684C271.125 57.5992 271.168 57.7987 271.253 57.9668C271.34 58.1349 271.462 58.2645 271.62 58.3557C271.778 58.4468 271.965 58.4924 272.182 58.4924C272.326 58.4924 272.457 58.4722 272.577 58.4316C272.696 58.3911 272.799 58.3304 272.884 58.2494C272.969 58.1684 273.034 58.0691 273.078 57.9516L274.275 58.0306C274.214 58.3182 274.09 58.5694 273.902 58.784C273.715 58.9967 273.474 59.1627 273.179 59.2822C272.885 59.3997 272.546 59.4585 272.161 59.4585Z" fill="#333333"/>
<g filter="url(#filter3_d_10194_13326)">
<path d="M226.95 24.0781H290.577C294.12 24.0781 296.993 26.9507 296.993 30.4942V33.1676C296.993 36.7111 294.12 39.5837 290.577 39.5837H233.367C229.823 39.5837 226.95 36.7111 226.95 33.1676V24.0781Z" fill="#454545"/>
<path d="M227.218 24.3457H290.577C293.972 24.3457 296.726 27.0986 296.726 30.4945V33.1678C296.726 36.5637 293.972 39.3166 290.577 39.3166H233.367C229.971 39.3166 227.218 36.5637 227.218 33.1678V24.3457Z" stroke="#292929" stroke-width="0.534675"/>
<path d="M233.928 28.7923V34.2363H233.107V28.7923H233.928ZM235.856 31.812V34.2363H235.061V30.1533H235.824V30.8178H235.874C235.968 30.6017 236.115 30.428 236.316 30.2968C236.518 30.1657 236.772 30.1001 237.078 30.1001C237.357 30.1001 237.6 30.1586 237.809 30.2756C238.018 30.3908 238.18 30.5627 238.296 30.7912C238.411 31.0199 238.469 31.3025 238.469 31.6392V34.2363H237.674V31.7349C237.674 31.439 237.597 31.2077 237.443 31.0411C237.288 30.8728 237.076 30.7886 236.807 30.7886C236.623 30.7886 236.459 30.8285 236.316 30.9082C236.174 30.988 236.061 31.1049 235.978 31.2591C235.896 31.4115 235.856 31.5958 235.856 31.812ZM241.478 30.1533V30.7912H239.17V30.1533H241.478ZM239.803 34.2363V29.6801C239.803 29.4249 239.859 29.2132 239.971 29.0448C240.082 28.8747 240.23 28.748 240.414 28.6647C240.599 28.5797 240.799 28.5371 241.015 28.5371C241.175 28.5371 241.311 28.5504 241.424 28.577C241.538 28.6018 241.622 28.6248 241.677 28.6461L241.491 29.2894C241.454 29.2788 241.406 29.2664 241.347 29.2522C241.289 29.2362 241.218 29.2282 241.135 29.2282C240.942 29.2282 240.804 29.2761 240.72 29.3718C240.638 29.4675 240.598 29.6057 240.598 29.7865V34.2363H239.803ZM243.857 34.3187C243.474 34.3187 243.14 34.231 242.855 34.0555C242.569 33.8801 242.348 33.6346 242.19 33.3192C242.032 33.0037 241.954 32.6351 241.954 32.2134C241.954 31.7899 242.032 31.4195 242.19 31.1023C242.348 30.785 242.569 30.5387 242.855 30.3633C243.14 30.1879 243.474 30.1001 243.857 30.1001C244.239 30.1001 244.574 30.1879 244.859 30.3633C245.144 30.5387 245.365 30.785 245.523 31.1023C245.681 31.4195 245.76 31.7899 245.76 32.2134C245.76 32.6351 245.681 33.0037 245.523 33.3192C245.365 33.6346 245.144 33.8801 244.859 34.0555C244.574 34.231 244.239 34.3187 243.857 34.3187ZM243.859 33.6514C244.107 33.6514 244.313 33.5859 244.476 33.4548C244.639 33.3236 244.76 33.1491 244.838 32.9311C244.917 32.7131 244.957 32.473 244.957 32.2107C244.957 31.9502 244.917 31.711 244.838 31.493C244.76 31.2733 244.639 31.097 244.476 30.9641C244.313 30.8311 244.107 30.7647 243.859 30.7647C243.61 30.7647 243.402 30.8311 243.237 30.9641C243.074 31.097 242.953 31.2733 242.873 31.493C242.795 31.711 242.756 31.9502 242.756 32.2107C242.756 32.473 242.795 32.7131 242.873 32.9311C242.953 33.1491 243.074 33.3236 243.237 33.4548C243.402 33.5859 243.61 33.6514 243.859 33.6514ZM249.817 34.3266C249.558 34.3266 249.324 34.2788 249.115 34.1831C248.906 34.0856 248.74 33.9448 248.617 33.7605C248.497 33.5762 248.437 33.3502 248.437 33.0826C248.437 32.8523 248.481 32.6626 248.57 32.5138C248.658 32.3649 248.778 32.2471 248.928 32.1602C249.079 32.0734 249.248 32.0078 249.434 31.9635C249.62 31.9192 249.809 31.8856 250.003 31.8625C250.247 31.8341 250.445 31.8111 250.598 31.7934C250.75 31.7739 250.861 31.7429 250.93 31.7004C250.999 31.6578 251.034 31.5887 251.034 31.493V31.4744C251.034 31.2422 250.968 31.0624 250.837 30.9348C250.708 30.8072 250.514 30.7434 250.258 30.7434C249.99 30.7434 249.779 30.8028 249.625 30.9215C249.473 31.0385 249.367 31.1687 249.309 31.3122L248.562 31.1422C248.65 30.8941 248.78 30.6938 248.95 30.5414C249.122 30.3872 249.319 30.2756 249.542 30.2065C249.766 30.1356 250.001 30.1001 250.247 30.1001C250.41 30.1001 250.583 30.1196 250.765 30.1586C250.95 30.1958 251.122 30.2649 251.281 30.366C251.442 30.467 251.574 30.6114 251.677 30.7992C251.78 30.9853 251.831 31.2272 251.831 31.5249V34.2363H251.055V33.6781H251.023C250.972 33.7808 250.894 33.8818 250.792 33.9811C250.689 34.0803 250.557 34.1627 250.396 34.2283C250.235 34.2938 250.041 34.3266 249.817 34.3266ZM249.989 33.6887C250.209 33.6887 250.397 33.6452 250.553 33.5584C250.711 33.4716 250.83 33.3582 250.912 33.2182C250.995 33.0764 251.036 32.9249 251.036 32.7636V32.2373C251.008 32.2657 250.953 32.2922 250.872 32.317C250.792 32.3401 250.7 32.3605 250.598 32.3782C250.495 32.3941 250.395 32.4092 250.297 32.4234C250.2 32.4358 250.119 32.4464 250.053 32.4553C249.899 32.4748 249.758 32.5076 249.631 32.5536C249.504 32.5997 249.403 32.6661 249.327 32.753C249.253 32.838 249.216 32.9515 249.216 33.0932C249.216 33.2899 249.288 33.4388 249.434 33.5398C249.579 33.639 249.764 33.6887 249.989 33.6887ZM252.89 34.2363V30.1533H253.658V30.8019H253.7C253.775 30.5821 253.906 30.4094 254.094 30.2835C254.284 30.1559 254.498 30.0922 254.737 30.0922C254.787 30.0922 254.845 30.0939 254.913 30.0975C254.982 30.101 255.036 30.1054 255.075 30.1108V30.871C255.043 30.8621 254.986 30.8524 254.905 30.8418C254.823 30.8294 254.741 30.8232 254.66 30.8232C254.473 30.8232 254.305 30.8631 254.158 30.9428C254.013 31.0207 253.897 31.1297 253.812 31.2697C253.727 31.4079 253.684 31.5657 253.684 31.7429V34.2363H252.89ZM257.336 34.3187C256.941 34.3187 256.601 34.2292 256.316 34.0502C256.032 33.8694 255.814 33.6204 255.662 33.3033C255.509 32.986 255.433 32.6227 255.433 32.2134C255.433 31.7987 255.511 31.4327 255.667 31.1156C255.823 30.7966 256.043 30.5476 256.326 30.3686C256.61 30.1896 256.944 30.1001 257.328 30.1001C257.638 30.1001 257.915 30.1577 258.158 30.2729C258.4 30.3863 258.596 30.5458 258.745 30.7514C258.896 30.9569 258.985 31.1971 259.014 31.4717H258.24C258.198 31.2804 258.1 31.1156 257.948 30.9773C257.797 30.8391 257.595 30.77 257.342 30.77C257.12 30.77 256.926 30.8285 256.759 30.9454C256.595 31.0606 256.466 31.2254 256.374 31.4399C256.282 31.6525 256.236 31.9042 256.236 32.1948C256.236 32.4925 256.281 32.7494 256.371 32.9657C256.462 33.1818 256.589 33.3493 256.754 33.468C256.921 33.5868 257.117 33.6461 257.342 33.6461C257.492 33.6461 257.629 33.6187 257.751 33.5638C257.875 33.507 257.979 33.4264 258.062 33.3219C258.147 33.2173 258.207 33.0915 258.24 32.9444H259.014C258.985 33.2085 258.899 33.4441 258.756 33.6514C258.613 33.8588 258.42 34.0219 258.179 34.1406C257.94 34.2593 257.659 34.3187 257.336 34.3187ZM260.658 31.812V34.2363H259.864V28.7923H260.648V30.8178H260.698C260.794 30.5981 260.94 30.4235 261.137 30.2942C261.333 30.1648 261.591 30.1001 261.908 30.1001C262.188 30.1001 262.432 30.1577 262.641 30.2729C262.853 30.3881 263.016 30.56 263.131 30.7886C263.248 31.0154 263.306 31.299 263.306 31.6392V34.2363H262.511V31.7349C262.511 31.4354 262.434 31.2033 262.28 31.0385C262.126 30.8719 261.911 30.7886 261.637 30.7886C261.449 30.7886 261.281 30.8285 261.131 30.9082C260.984 30.988 260.868 31.1049 260.783 31.2591C260.7 31.4115 260.658 31.5958 260.658 31.812ZM264.367 34.2363V30.1533H265.161V34.2363H264.367ZM264.768 29.5233C264.63 29.5233 264.511 29.4772 264.412 29.3851C264.314 29.2912 264.266 29.1795 264.266 29.0501C264.266 28.919 264.314 28.8074 264.412 28.7152C264.511 28.6213 264.63 28.5743 264.768 28.5743C264.906 28.5743 265.024 28.6213 265.122 28.7152C265.221 28.8074 265.27 28.919 265.27 29.0501C265.27 29.1795 265.221 29.2912 265.122 29.3851C265.024 29.4772 264.906 29.5233 264.768 29.5233ZM268.137 30.1533V30.7912H265.907V30.1533H268.137ZM266.504 29.1751H267.299V33.0374C267.299 33.1916 267.322 33.3077 267.368 33.3856C267.414 33.4618 267.474 33.5141 267.546 33.5425C267.621 33.569 267.701 33.5824 267.788 33.5824C267.852 33.5824 267.908 33.5779 267.956 33.569C268.004 33.5602 268.041 33.5531 268.067 33.5478L268.211 34.2043C268.165 34.2221 268.099 34.2398 268.014 34.2575C267.929 34.277 267.823 34.2876 267.695 34.2894C267.486 34.293 267.291 34.2558 267.111 34.1778C266.93 34.0998 266.783 33.9793 266.672 33.8163C266.56 33.6533 266.504 33.4486 266.504 33.2023V29.1751ZM270.731 34.3187C270.329 34.3187 269.983 34.2327 269.692 34.0608C269.403 33.8872 269.18 33.6435 269.023 33.3298C268.867 33.0144 268.788 32.6449 268.788 32.2213C268.788 31.8031 268.867 31.4345 269.023 31.1156C269.18 30.7966 269.4 30.5476 269.681 30.3686C269.965 30.1896 270.297 30.1001 270.676 30.1001C270.906 30.1001 271.129 30.1382 271.346 30.2144C271.562 30.2906 271.756 30.4102 271.928 30.5733C272.1 30.7363 272.236 30.9481 272.334 31.2086C272.434 31.4673 272.484 31.7819 272.484 32.1523V32.434H269.238V31.8386H271.705C271.705 31.6295 271.662 31.4443 271.577 31.283C271.492 31.12 271.372 30.9915 271.218 30.8976C271.066 30.8036 270.887 30.7567 270.681 30.7567C270.458 30.7567 270.263 30.8116 270.096 30.9215C269.932 31.0296 269.804 31.1714 269.713 31.3468C269.625 31.5205 269.581 31.7092 269.581 31.913V32.3782C269.581 32.6511 269.628 32.8833 269.724 33.0746C269.821 33.266 269.957 33.4122 270.131 33.5132C270.304 33.6125 270.507 33.6621 270.739 33.6621C270.89 33.6621 271.028 33.6409 271.152 33.5983C271.276 33.554 271.383 33.4884 271.473 33.4016C271.563 33.3148 271.633 33.2075 271.681 33.08L272.433 33.2155C272.372 33.437 272.264 33.6311 272.109 33.7977C271.954 33.9625 271.76 34.0909 271.527 34.1831C271.294 34.2735 271.029 34.3187 270.731 34.3187ZM275.085 34.3187C274.69 34.3187 274.35 34.2292 274.064 34.0502C273.781 33.8694 273.563 33.6204 273.41 33.3033C273.258 32.986 273.182 32.6227 273.182 32.2134C273.182 31.7987 273.26 31.4327 273.416 31.1156C273.572 30.7966 273.791 30.5476 274.075 30.3686C274.359 30.1896 274.692 30.1001 275.077 30.1001C275.387 30.1001 275.664 30.1577 275.907 30.2729C276.149 30.3863 276.345 30.5458 276.494 30.7514C276.644 30.9569 276.734 31.1971 276.763 31.4717H275.989C275.946 31.2804 275.849 31.1156 275.696 30.9773C275.546 30.8391 275.344 30.77 275.09 30.77C274.869 30.77 274.675 30.8285 274.508 30.9454C274.343 31.0606 274.215 31.2254 274.123 31.4399C274.03 31.6525 273.984 31.9042 273.984 32.1948C273.984 32.4925 274.03 32.7494 274.12 32.9657C274.211 33.1818 274.338 33.3493 274.503 33.468C274.669 33.5868 274.865 33.6461 275.09 33.6461C275.241 33.6461 275.377 33.6187 275.5 33.5638C275.624 33.507 275.727 33.4264 275.811 33.3219C275.896 33.2173 275.955 33.0915 275.989 32.9444H276.763C276.734 33.2085 276.648 33.4441 276.504 33.6514C276.361 33.8588 276.169 34.0219 275.927 34.1406C275.688 34.2593 275.408 34.3187 275.085 34.3187ZM279.518 30.1533V30.7912H277.288V30.1533H279.518ZM277.886 29.1751H278.681V33.0374C278.681 33.1916 278.704 33.3077 278.75 33.3856C278.796 33.4618 278.855 33.5141 278.928 33.5425C279.002 33.569 279.083 33.5824 279.17 33.5824C279.234 33.5824 279.289 33.5779 279.338 33.569C279.385 33.5602 279.423 33.5531 279.449 33.5478L279.593 34.2043C279.547 34.2221 279.481 34.2398 279.396 34.2575C279.311 34.277 279.204 34.2876 279.077 34.2894C278.868 34.293 278.673 34.2558 278.492 34.1778C278.312 34.0998 278.165 33.9793 278.054 33.8163C277.942 33.6533 277.886 33.4486 277.886 33.2023V29.1751ZM282.984 32.543V30.1533H283.781V34.2363H283V33.5292H282.957C282.863 33.7471 282.712 33.9288 282.506 34.0741C282.3 34.2177 282.044 34.2894 281.737 34.2894C281.475 34.2894 281.243 34.2318 281.041 34.1167C280.841 33.9997 280.683 33.8269 280.567 33.5983C280.454 33.3697 280.397 33.087 280.397 32.7503V30.1533H281.192V32.6546C281.192 32.9329 281.269 33.1544 281.423 33.3192C281.578 33.484 281.778 33.5664 282.024 33.5664C282.173 33.5664 282.321 33.5292 282.468 33.4548C282.617 33.3803 282.74 33.2678 282.838 33.1172C282.937 32.9665 282.986 32.7752 282.984 32.543ZM284.849 34.2363V30.1533H285.617V30.8019H285.66C285.734 30.5821 285.865 30.4094 286.054 30.2835C286.243 30.1559 286.457 30.0922 286.697 30.0922C286.746 30.0922 286.805 30.0939 286.872 30.0975C286.941 30.101 286.995 30.1054 287.034 30.1108V30.871C287.002 30.8621 286.945 30.8524 286.864 30.8418C286.782 30.8294 286.701 30.8232 286.619 30.8232C286.432 30.8232 286.264 30.8631 286.117 30.9428C285.972 31.0207 285.857 31.1297 285.772 31.2697C285.686 31.4079 285.644 31.5657 285.644 31.7429V34.2363H284.849ZM289.335 34.3187C288.933 34.3187 288.587 34.2327 288.296 34.0608C288.007 33.8872 287.784 33.6435 287.626 33.3298C287.471 33.0144 287.392 32.6449 287.392 32.2213C287.392 31.8031 287.471 31.4345 287.626 31.1156C287.784 30.7966 288.004 30.5476 288.285 30.3686C288.569 30.1896 288.9 30.1001 289.28 30.1001C289.51 30.1001 289.733 30.1382 289.95 30.2144C290.166 30.2906 290.36 30.4102 290.532 30.5733C290.704 30.7363 290.839 30.9481 290.938 31.2086C291.038 31.4673 291.087 31.7819 291.087 32.1523V32.434H287.842V31.8386H290.309C290.309 31.6295 290.266 31.4443 290.181 31.283C290.096 31.12 289.976 30.9915 289.822 30.8976C289.67 30.8036 289.491 30.7567 289.285 30.7567C289.062 30.7567 288.867 30.8116 288.7 30.9215C288.536 31.0296 288.408 31.1714 288.317 31.3468C288.229 31.5205 288.184 31.7092 288.184 31.913V32.3782C288.184 32.6511 288.232 32.8833 288.328 33.0746C288.425 33.266 288.561 33.4122 288.735 33.5132C288.908 33.6125 289.111 33.6621 289.344 33.6621C289.494 33.6621 289.632 33.6409 289.756 33.5983C289.88 33.554 289.987 33.4884 290.077 33.4016C290.167 33.3148 290.237 33.2075 290.285 33.08L291.037 33.2155C290.976 33.437 290.868 33.6311 290.712 33.7977C290.558 33.9625 290.364 34.0909 290.131 34.1831C289.898 34.2735 289.633 34.3187 289.335 34.3187Z" fill="white"/>
</g>
<path d="M220.802 89.026L224.096 81.9319C224.317 81.548 224.004 81.0059 223.561 81.0059H216.439C215.996 81.0059 215.683 81.548 215.904 81.9319L219.198 89.026H220.802ZM219.198 120.855C219.198 121.298 219.557 121.657 220 121.657C220.443 121.657 220.802 121.298 220.802 120.855H219.198ZM219.198 88.224V120.855H220.802V88.224H219.198Z" fill="#CECCCC"/>
<path d="M220.802 89.026L224.096 81.9319C224.317 81.548 224.004 81.0059 223.561 81.0059H216.439C215.996 81.0059 215.683 81.548 215.904 81.9319L219.198 89.026H220.802ZM219.198 120.855C219.198 121.298 219.557 121.657 220 121.657C220.443 121.657 220.802 121.298 220.802 120.855H219.198ZM219.198 88.224V120.855H220.802V88.224H219.198Z" fill="url(#paint1_linear_10194_13326)"/>
<defs>
<filter id="filter0_d_10194_13326" x="137.83" y="118.885" width="164.34" height="53.3788" filterUnits="userSpaceOnUse" color-interpolation-filters="sRGB">
<feFlood flood-opacity="0" result="BackgroundImageFix"/>
<feColorMatrix in="SourceAlpha" type="matrix" values="0 0 0 0 0 0 0 0 0 0 0 0 0 0 0 0 0 0 127 0" result="hardAlpha"/>
<feOffset/>
<feGaussianBlur stdDeviation="2.05368"/>
<feColorMatrix type="matrix" values="0 0 0 0 0.0392157 0 0 0 0 0.576471 0 0 0 0 0.262745 0 0 0 1 0"/>
<feBlend mode="normal" in2="BackgroundImageFix" result="effect1_dropShadow_10194_13326"/>
<feBlend mode="normal" in="SourceGraphic" in2="effect1_dropShadow_10194_13326" result="shape"/>
</filter>
<filter id="filter1_d_10194_13326" x="140.822" y="211.169" width="158.355" height="47.3942" filterUnits="userSpaceOnUse" color-interpolation-filters="sRGB">
<feFlood flood-opacity="0" result="BackgroundImageFix"/>
<feColorMatrix in="SourceAlpha" type="matrix" values="0 0 0 0 0 0 0 0 0 0 0 0 0 0 0 0 0 0 127 0" result="hardAlpha"/>
<feOffset/>
<feGaussianBlur stdDeviation="1.09219"/>
<feComposite in2="hardAlpha" operator="out"/>
<feColorMatrix type="matrix" values="0 0 0 0 0.53 0 0 0 0 0.53 0 0 0 0 0.53 0 0 0 1 0"/>
<feBlend mode="normal" in2="BackgroundImageFix" result="effect1_dropShadow_10194_13326"/>
<feBlend mode="normal" in="SourceGraphic" in2="effect1_dropShadow_10194_13326" result="shape"/>
</filter>
<filter id="filter2_d_10194_13326" x="140.822" y="32.5891" width="158.355" height="47.3942" filterUnits="userSpaceOnUse" color-interpolation-filters="sRGB">
<feFlood flood-opacity="0" result="BackgroundImageFix"/>
<feColorMatrix in="SourceAlpha" type="matrix" values="0 0 0 0 0 0 0 0 0 0 0 0 0 0 0 0 0 0 127 0" result="hardAlpha"/>
<feOffset/>
<feGaussianBlur stdDeviation="1.09219"/>
<feComposite in2="hardAlpha" operator="out"/>
<feColorMatrix type="matrix" values="0 0 0 0 0.53 0 0 0 0 0.53 0 0 0 0 0.53 0 0 0 1 0"/>
<feBlend mode="normal" in2="BackgroundImageFix" result="effect1_dropShadow_10194_13326"/>
<feBlend mode="normal" in="SourceGraphic" in2="effect1_dropShadow_10194_13326" result="shape"/>
</filter>
<filter id="filter3_d_10194_13326" x="224.766" y="21.8937" width="74.4113" height="19.8746" filterUnits="userSpaceOnUse" color-interpolation-filters="sRGB">
<feFlood flood-opacity="0" result="BackgroundImageFix"/>
<feColorMatrix in="SourceAlpha" type="matrix" values="0 0 0 0 0 0 0 0 0 0 0 0 0 0 0 0 0 0 127 0" result="hardAlpha"/>
<feOffset/>
<feGaussianBlur stdDeviation="1.09219"/>
<feComposite in2="hardAlpha" operator="out"/>
<feColorMatrix type="matrix" values="0 0 0 0 0.53 0 0 0 0 0.53 0 0 0 0 0.53 0 0 0 1 0"/>
<feBlend mode="normal" in2="BackgroundImageFix" result="effect1_dropShadow_10194_13326"/>
<feBlend mode="normal" in="SourceGraphic" in2="effect1_dropShadow_10194_13326" result="shape"/>
</filter>
<linearGradient id="paint0_linear_10194_13326" x1="225.08" y1="135.559" x2="225.08" y2="216.028" gradientUnits="userSpaceOnUse">
<stop stop-color="#0A9343"/>
<stop offset="0.05" stop-color="#269D58" stop-opacity="0.982658"/>
<stop offset="1" stop-color="#DDDDDD" stop-opacity="0.87"/>
</linearGradient>
<linearGradient id="paint1_linear_10194_13326" x1="225.08" y1="78.1555" x2="225.08" y2="158.948" gradientUnits="userSpaceOnUse">
<stop stop-color="#DDDDDD" stop-opacity="0.87"/>
<stop offset="1" stop-color="#0A9343"/>
</linearGradient>
</defs>
</svg>
