<svg width="440" height="279" viewBox="0 0 440 279" fill="none" xmlns="http://www.w3.org/2000/svg">
<rect width="440" height="277.743" transform="translate(0 0.486328)" fill="#F0F0F0"/>
<g filter="url(#filter0_d_10194_13268)">
<path d="M183.1 117.961H62.0839C52.4639 117.961 44.6653 125.76 44.6653 135.38V144.089C44.6653 153.709 52.4639 161.508 62.0839 161.508H183.1C192.72 161.508 200.518 153.709 200.518 144.089V135.38C200.518 125.76 192.72 117.961 183.1 117.961Z" fill="#343434"/>
<path d="M183.1 117.42H62.0839C52.165 117.42 44.1241 125.461 44.1241 135.38V144.089C44.1241 154.008 52.165 162.049 62.0839 162.049H183.1C193.019 162.049 201.06 154.008 201.06 144.089V135.38C201.06 125.461 193.019 117.42 183.1 117.42Z" stroke="#C41635" stroke-width="1.08231"/>
</g>
<path d="M89.7776 144.477V135.031H91.7747V138.928H95.8287V135.031H97.8212V144.477H95.8287V140.575H91.7747V144.477H89.7776ZM102.385 144.615C101.668 144.615 101.049 144.463 100.526 144.159C100.007 143.851 99.6055 143.424 99.3225 142.876C99.0395 142.326 98.8982 141.688 98.8982 140.962C98.8982 140.231 99.0395 139.591 99.3225 139.044C99.6055 138.493 100.007 138.066 100.526 137.762C101.049 137.454 101.668 137.3 102.385 137.3C103.101 137.3 103.719 137.454 104.239 137.762C104.762 138.066 105.164 138.493 105.447 139.044C105.73 139.591 105.872 140.231 105.872 140.962C105.872 141.688 105.73 142.326 105.447 142.876C105.164 143.424 104.762 143.851 104.239 144.159C103.719 144.463 103.101 144.615 102.385 144.615ZM102.394 143.093C102.72 143.093 102.992 143.001 103.21 142.816C103.429 142.629 103.593 142.374 103.704 142.051C103.818 141.728 103.875 141.361 103.875 140.949C103.875 140.537 103.818 140.169 103.704 139.846C103.593 139.523 103.429 139.268 103.21 139.081C102.992 138.893 102.72 138.799 102.394 138.799C102.065 138.799 101.789 138.893 101.564 139.081C101.343 139.268 101.175 139.523 101.061 139.846C100.95 140.169 100.895 140.537 100.895 140.949C100.895 141.361 100.95 141.728 101.061 142.051C101.175 142.374 101.343 142.629 101.564 142.816C101.789 143.001 102.065 143.093 102.394 143.093ZM106.902 144.477V137.393H108.775V138.643H108.858C109.005 138.227 109.252 137.9 109.596 137.66C109.94 137.42 110.352 137.3 110.832 137.3C111.318 137.3 111.731 137.422 112.073 137.665C112.414 137.905 112.641 138.231 112.755 138.643H112.829C112.974 138.237 113.235 137.912 113.613 137.669C113.994 137.423 114.445 137.3 114.965 137.3C115.625 137.3 116.162 137.511 116.574 137.932C116.989 138.35 117.197 138.944 117.197 139.713V144.477H115.236V140.1C115.236 139.706 115.132 139.411 114.923 139.214C114.714 139.018 114.453 138.919 114.139 138.919C113.782 138.919 113.504 139.033 113.304 139.261C113.104 139.485 113.004 139.782 113.004 140.151V144.477H111.1V140.058C111.1 139.711 111 139.434 110.8 139.228C110.603 139.022 110.343 138.919 110.02 138.919C109.802 138.919 109.605 138.975 109.43 139.085C109.258 139.193 109.121 139.345 109.019 139.542C108.918 139.736 108.867 139.963 108.867 140.224V144.477H106.902ZM121.73 144.615C121.002 144.615 120.375 144.468 119.849 144.172C119.326 143.874 118.923 143.453 118.64 142.909C118.357 142.361 118.216 141.714 118.216 140.967C118.216 140.238 118.357 139.599 118.64 139.048C118.923 138.498 119.321 138.069 119.835 137.762C120.351 137.454 120.957 137.3 121.652 137.3C122.119 137.3 122.554 137.376 122.957 137.526C123.363 137.674 123.717 137.897 124.018 138.195C124.322 138.493 124.559 138.869 124.728 139.321C124.898 139.769 124.982 140.295 124.982 140.898V141.437H119V140.22H123.132C123.132 139.937 123.071 139.686 122.948 139.468C122.825 139.25 122.654 139.079 122.436 138.956C122.221 138.83 121.97 138.767 121.684 138.767C121.386 138.767 121.121 138.836 120.891 138.975C120.664 139.11 120.485 139.293 120.356 139.523C120.227 139.751 120.161 140.005 120.158 140.284V141.442C120.158 141.793 120.222 142.095 120.351 142.351C120.483 142.606 120.67 142.803 120.909 142.941C121.15 143.079 121.434 143.149 121.763 143.149C121.981 143.149 122.181 143.118 122.362 143.056C122.544 142.995 122.699 142.903 122.828 142.78C122.957 142.657 123.055 142.506 123.123 142.328L124.94 142.448C124.848 142.884 124.659 143.265 124.373 143.591C124.09 143.914 123.724 144.166 123.276 144.348C122.83 144.526 122.315 144.615 121.73 144.615ZM126.017 147.133V137.393H127.955V138.583H128.042C128.128 138.392 128.253 138.198 128.416 138.001C128.582 137.802 128.797 137.636 129.061 137.503C129.329 137.368 129.661 137.3 130.058 137.3C130.574 137.3 131.051 137.436 131.487 137.706C131.924 137.974 132.273 138.378 132.534 138.919C132.796 139.457 132.926 140.132 132.926 140.944C132.926 141.734 132.798 142.401 132.544 142.946C132.291 143.487 131.947 143.897 131.511 144.177C131.077 144.454 130.591 144.592 130.053 144.592C129.672 144.592 129.348 144.529 129.08 144.403C128.816 144.277 128.599 144.119 128.43 143.928C128.26 143.734 128.131 143.539 128.042 143.342H127.982V147.133H126.017ZM127.94 140.935C127.94 141.356 127.999 141.723 128.116 142.037C128.233 142.351 128.402 142.595 128.623 142.77C128.845 142.943 129.114 143.029 129.43 143.029C129.75 143.029 130.021 142.941 130.242 142.766C130.463 142.587 130.631 142.341 130.745 142.028C130.862 141.711 130.92 141.347 130.92 140.935C130.92 140.526 130.863 140.166 130.75 139.855C130.635 139.545 130.468 139.302 130.247 139.127C130.025 138.952 129.753 138.864 129.43 138.864C129.11 138.864 128.84 138.948 128.619 139.118C128.4 139.287 128.233 139.527 128.116 139.837C127.999 140.148 127.94 140.513 127.94 140.935ZM136.01 144.611C135.557 144.611 135.155 144.532 134.801 144.375C134.447 144.215 134.168 143.98 133.962 143.67C133.759 143.356 133.657 142.966 133.657 142.498C133.657 142.105 133.73 141.774 133.874 141.507C134.019 141.239 134.215 141.024 134.465 140.861C134.714 140.698 134.997 140.575 135.313 140.492C135.633 140.409 135.968 140.351 136.319 140.317C136.731 140.274 137.063 140.234 137.315 140.197C137.567 140.157 137.75 140.098 137.864 140.022C137.977 139.945 138.034 139.831 138.034 139.68V139.653C138.034 139.361 137.942 139.134 137.758 138.975C137.576 138.815 137.318 138.735 136.983 138.735C136.629 138.735 136.348 138.813 136.138 138.97C135.93 139.124 135.791 139.317 135.723 139.551L133.906 139.404C133.999 138.973 134.18 138.601 134.451 138.287C134.721 137.971 135.07 137.728 135.498 137.559C135.928 137.386 136.426 137.3 136.992 137.3C137.385 137.3 137.762 137.347 138.122 137.439C138.485 137.531 138.806 137.674 139.086 137.868C139.369 138.061 139.592 138.31 139.754 138.615C139.917 138.916 139.999 139.277 139.999 139.699V144.477H138.136V143.495H138.08C137.967 143.716 137.814 143.911 137.624 144.08C137.433 144.246 137.204 144.377 136.937 144.472C136.669 144.564 136.36 144.611 136.01 144.611ZM136.572 143.255C136.861 143.255 137.116 143.198 137.338 143.084C137.559 142.967 137.733 142.81 137.859 142.614C137.985 142.417 138.048 142.194 138.048 141.945V141.193C137.987 141.233 137.902 141.27 137.794 141.304C137.69 141.334 137.571 141.364 137.439 141.391C137.307 141.416 137.175 141.439 137.043 141.461C136.91 141.479 136.791 141.496 136.683 141.511C136.452 141.545 136.251 141.599 136.079 141.673C135.906 141.746 135.773 141.846 135.677 141.973C135.582 142.095 135.535 142.249 135.535 142.434C135.535 142.701 135.631 142.906 135.825 143.047C136.022 143.185 136.271 143.255 136.572 143.255ZM144.468 147.281C143.832 147.281 143.286 147.193 142.831 147.018C142.379 146.846 142.019 146.611 141.751 146.312C141.484 146.014 141.31 145.679 141.23 145.307L143.047 145.063C143.103 145.204 143.191 145.336 143.31 145.459C143.431 145.582 143.589 145.681 143.786 145.754C143.985 145.831 144.228 145.87 144.515 145.87C144.941 145.87 145.294 145.765 145.57 145.556C145.85 145.35 145.99 145.004 145.99 144.518V143.222H145.907C145.821 143.419 145.692 143.605 145.52 143.78C145.347 143.956 145.126 144.099 144.855 144.209C144.585 144.32 144.262 144.375 143.887 144.375C143.355 144.375 142.871 144.252 142.434 144.006C142.001 143.757 141.654 143.378 141.396 142.867C141.141 142.354 141.014 141.705 141.014 140.921C141.014 140.118 141.144 139.448 141.406 138.91C141.667 138.372 142.014 137.969 142.448 137.702C142.885 137.434 143.363 137.3 143.882 137.3C144.279 137.3 144.611 137.368 144.879 137.503C145.146 137.636 145.361 137.802 145.524 138.001C145.69 138.198 145.818 138.392 145.907 138.583H145.981V137.393H147.932V144.546C147.932 145.149 147.784 145.653 147.489 146.059C147.194 146.465 146.785 146.769 146.262 146.972C145.742 147.178 145.144 147.281 144.468 147.281ZM144.51 142.9C144.826 142.9 145.094 142.821 145.312 142.664C145.533 142.504 145.703 142.277 145.82 141.982C145.939 141.683 145.999 141.327 145.999 140.912C145.999 140.497 145.941 140.137 145.824 139.832C145.707 139.525 145.538 139.287 145.317 139.118C145.095 138.948 144.826 138.864 144.51 138.864C144.187 138.864 143.915 138.952 143.694 139.127C143.472 139.299 143.304 139.539 143.191 139.846C143.077 140.154 143.02 140.509 143.02 140.912C143.02 141.321 143.077 141.674 143.191 141.973C143.307 142.268 143.475 142.497 143.694 142.66C143.915 142.82 144.187 142.9 144.51 142.9ZM152.477 144.615C151.748 144.615 151.121 144.468 150.595 144.172C150.073 143.874 149.67 143.453 149.387 142.909C149.104 142.361 148.963 141.714 148.963 140.967C148.963 140.238 149.104 139.599 149.387 139.048C149.67 138.498 150.068 138.069 150.581 137.762C151.098 137.454 151.704 137.3 152.399 137.3C152.866 137.3 153.301 137.376 153.704 137.526C154.11 137.674 154.463 137.897 154.765 138.195C155.069 138.493 155.306 138.869 155.475 139.321C155.644 139.769 155.729 140.295 155.729 140.898V141.437H149.747V140.22H153.879C153.879 139.937 153.818 139.686 153.695 139.468C153.572 139.25 153.401 139.079 153.183 138.956C152.967 138.83 152.717 138.767 152.431 138.767C152.133 138.767 151.868 138.836 151.638 138.975C151.41 139.11 151.232 139.293 151.103 139.523C150.974 139.751 150.907 140.005 150.904 140.284V141.442C150.904 141.793 150.969 142.095 151.098 142.351C151.23 142.606 151.416 142.803 151.656 142.941C151.896 143.079 152.181 143.149 152.51 143.149C152.728 143.149 152.927 143.118 153.109 143.056C153.29 142.995 153.446 142.903 153.575 142.78C153.704 142.657 153.802 142.506 153.87 142.328L155.687 142.448C155.595 142.884 155.406 143.265 155.12 143.591C154.837 143.914 154.471 144.166 154.022 144.348C153.576 144.526 153.062 144.615 152.477 144.615Z" fill="white"/>
<g filter="url(#filter1_d_10194_13268)">
<path d="M129.627 107.137H194.025C197.611 107.137 200.518 110.044 200.518 113.631V116.336C200.518 119.923 197.611 122.83 194.025 122.83H136.121C132.535 122.83 129.627 119.923 129.627 116.336V107.137Z" fill="#454545"/>
<path d="M129.898 107.408H194.025C197.462 107.408 200.248 110.194 200.248 113.632V116.337C200.248 119.774 197.462 122.561 194.025 122.561H136.121C132.684 122.561 129.898 119.774 129.898 116.337V107.408Z" stroke="#292929" stroke-width="0.541157"/>
<path d="M136.689 111.909V117.419H135.858V111.909H136.689ZM138.64 114.965V117.419H137.836V113.286H138.608V113.959H138.659C138.754 113.74 138.903 113.564 139.106 113.431C139.31 113.299 139.567 113.232 139.878 113.232C140.159 113.232 140.406 113.292 140.618 113.41C140.829 113.527 140.993 113.701 141.11 113.932C141.226 114.163 141.285 114.449 141.285 114.79V117.419H140.48V114.887C140.48 114.587 140.402 114.353 140.246 114.185C140.09 114.014 139.876 113.929 139.603 113.929C139.417 113.929 139.251 113.97 139.106 114.05C138.962 114.131 138.848 114.249 138.764 114.405C138.681 114.56 138.64 114.746 138.64 114.965ZM144.33 113.286V113.932H141.995V113.286H144.33ZM142.636 117.419V112.807C142.636 112.549 142.692 112.335 142.805 112.164C142.918 111.992 143.067 111.864 143.254 111.78C143.441 111.693 143.643 111.65 143.862 111.65C144.024 111.65 144.162 111.664 144.276 111.691C144.391 111.716 144.477 111.739 144.532 111.761L144.344 112.412C144.306 112.401 144.257 112.388 144.198 112.374C144.139 112.358 144.067 112.35 143.983 112.35C143.788 112.35 143.648 112.398 143.564 112.495C143.481 112.592 143.44 112.732 143.44 112.915V117.419H142.636ZM146.738 117.502C146.351 117.502 146.013 117.413 145.724 117.236C145.435 117.058 145.211 116.81 145.051 116.49C144.892 116.171 144.812 115.798 144.812 115.371C144.812 114.943 144.892 114.568 145.051 114.247C145.211 113.926 145.435 113.676 145.724 113.499C146.013 113.321 146.351 113.232 146.738 113.232C147.126 113.232 147.464 113.321 147.753 113.499C148.041 113.676 148.265 113.926 148.425 114.247C148.585 114.568 148.665 114.943 148.665 115.371C148.665 115.798 148.585 116.171 148.425 116.49C148.265 116.81 148.041 117.058 147.753 117.236C147.464 117.413 147.126 117.502 146.738 117.502ZM146.741 116.827C146.992 116.827 147.2 116.76 147.365 116.628C147.53 116.495 147.652 116.318 147.731 116.098C147.812 115.877 147.852 115.634 147.852 115.369C147.852 115.105 147.812 114.863 147.731 114.642C147.652 114.42 147.53 114.241 147.365 114.107C147.2 113.972 146.992 113.905 146.741 113.905C146.488 113.905 146.278 113.972 146.111 114.107C145.946 114.241 145.824 114.42 145.743 114.642C145.664 114.863 145.624 115.105 145.624 115.369C145.624 115.634 145.664 115.877 145.743 116.098C145.824 116.318 145.946 116.495 146.111 116.628C146.278 116.76 146.488 116.827 146.741 116.827ZM152.77 117.51C152.508 117.51 152.271 117.462 152.06 117.365C151.848 117.266 151.68 117.124 151.557 116.937C151.435 116.751 151.374 116.522 151.374 116.251C151.374 116.018 151.419 115.826 151.508 115.675C151.598 115.525 151.719 115.405 151.872 115.317C152.024 115.23 152.195 115.163 152.383 115.118C152.571 115.073 152.763 115.039 152.959 115.016C153.206 114.987 153.407 114.964 153.561 114.946C153.715 114.926 153.827 114.895 153.898 114.852C153.967 114.809 154.003 114.739 154.003 114.642V114.623C154.003 114.388 153.936 114.206 153.803 114.077C153.672 113.948 153.477 113.883 153.217 113.883C152.946 113.883 152.733 113.944 152.577 114.064C152.422 114.182 152.315 114.314 152.256 114.459L151.5 114.287C151.59 114.036 151.721 113.833 151.893 113.679C152.067 113.523 152.267 113.41 152.493 113.34C152.719 113.268 152.957 113.232 153.206 113.232C153.371 113.232 153.546 113.252 153.73 113.292C153.917 113.329 154.091 113.399 154.253 113.501C154.415 113.604 154.549 113.75 154.654 113.94C154.758 114.128 154.809 114.373 154.809 114.674V117.419H154.024V116.854H153.992C153.94 116.958 153.861 117.06 153.757 117.16C153.654 117.261 153.52 117.344 153.356 117.411C153.194 117.477 152.998 117.51 152.77 117.51ZM152.945 116.864C153.168 116.864 153.358 116.82 153.516 116.733C153.675 116.645 153.796 116.53 153.879 116.388C153.963 116.245 154.005 116.091 154.005 115.928V115.395C153.976 115.424 153.921 115.451 153.838 115.476C153.757 115.499 153.665 115.52 153.561 115.538C153.457 115.554 153.356 115.569 153.257 115.584C153.158 115.596 153.076 115.607 153.01 115.616C152.854 115.636 152.711 115.669 152.582 115.716C152.454 115.762 152.352 115.829 152.275 115.917C152.2 116.003 152.162 116.118 152.162 116.262C152.162 116.461 152.236 116.611 152.383 116.714C152.53 116.814 152.717 116.864 152.945 116.864ZM155.881 117.419V113.286H156.659V113.943H156.701C156.777 113.72 156.91 113.545 157.1 113.418C157.292 113.289 157.509 113.224 157.751 113.224C157.801 113.224 157.86 113.226 157.928 113.23C157.998 113.233 158.053 113.238 158.093 113.243V114.013C158.06 114.004 158.003 113.994 157.92 113.983C157.838 113.97 157.755 113.964 157.673 113.964C157.483 113.964 157.313 114.005 157.164 114.085C157.017 114.164 156.9 114.274 156.814 114.416C156.728 114.556 156.685 114.716 156.685 114.895V117.419H155.881ZM160.381 117.502C159.981 117.502 159.637 117.411 159.348 117.23C159.061 117.047 158.841 116.795 158.686 116.474C158.532 116.153 158.455 115.786 158.455 115.371C158.455 114.952 158.534 114.581 158.692 114.26C158.85 113.937 159.072 113.685 159.359 113.504C159.646 113.323 159.984 113.232 160.373 113.232C160.687 113.232 160.967 113.291 161.212 113.407C161.458 113.522 161.657 113.683 161.807 113.891C161.96 114.1 162.05 114.343 162.079 114.621H161.296C161.253 114.427 161.155 114.26 161 114.12C160.848 113.98 160.643 113.91 160.387 113.91C160.163 113.91 159.966 113.97 159.797 114.088C159.631 114.204 159.501 114.371 159.407 114.588C159.314 114.804 159.268 115.058 159.268 115.352C159.268 115.654 159.313 115.914 159.404 116.133C159.496 116.351 159.625 116.521 159.792 116.641C159.961 116.761 160.159 116.821 160.387 116.821C160.539 116.821 160.677 116.794 160.801 116.738C160.927 116.681 161.032 116.599 161.116 116.493C161.202 116.387 161.262 116.26 161.296 116.111H162.079C162.05 116.378 161.963 116.617 161.818 116.827C161.673 117.037 161.478 117.202 161.234 117.322C160.992 117.442 160.708 117.502 160.381 117.502ZM163.743 114.965V117.419H162.939V111.909H163.733V113.959H163.784C163.881 113.736 164.029 113.56 164.228 113.429C164.427 113.298 164.687 113.232 165.008 113.232C165.292 113.232 165.539 113.291 165.751 113.407C165.964 113.524 166.129 113.698 166.246 113.929C166.364 114.159 166.423 114.446 166.423 114.79V117.419H165.619V114.887C165.619 114.584 165.541 114.349 165.385 114.182C165.229 114.013 165.012 113.929 164.734 113.929C164.544 113.929 164.373 113.97 164.222 114.05C164.074 114.131 163.956 114.249 163.87 114.405C163.786 114.56 163.743 114.746 163.743 114.965ZM167.497 117.419V113.286H168.301V117.419H167.497ZM167.903 112.649C167.763 112.649 167.643 112.602 167.542 112.509C167.444 112.414 167.395 112.301 167.395 112.17C167.395 112.037 167.444 111.924 167.542 111.831C167.643 111.736 167.763 111.688 167.903 111.688C168.043 111.688 168.162 111.736 168.261 111.831C168.361 111.924 168.411 112.037 168.411 112.17C168.411 112.301 168.361 112.414 168.261 112.509C168.162 112.602 168.043 112.649 167.903 112.649ZM171.313 113.286V113.932H169.055V113.286H171.313ZM169.66 112.296H170.465V116.205C170.465 116.361 170.488 116.479 170.535 116.558C170.581 116.635 170.642 116.688 170.715 116.716C170.79 116.743 170.872 116.757 170.96 116.757C171.025 116.757 171.081 116.752 171.13 116.743C171.178 116.734 171.216 116.727 171.242 116.722L171.388 117.386C171.341 117.404 171.275 117.422 171.189 117.44C171.103 117.46 170.995 117.471 170.866 117.472C170.654 117.476 170.457 117.438 170.274 117.359C170.091 117.281 169.943 117.159 169.83 116.994C169.717 116.829 169.66 116.621 169.66 116.372V112.296ZM173.939 117.502C173.532 117.502 173.181 117.415 172.887 117.241C172.595 117.065 172.369 116.819 172.209 116.501C172.051 116.182 171.972 115.808 171.972 115.379C171.972 114.956 172.051 114.583 172.209 114.26C172.369 113.937 172.591 113.685 172.876 113.504C173.163 113.323 173.499 113.232 173.883 113.232C174.116 113.232 174.341 113.271 174.561 113.348C174.779 113.425 174.976 113.546 175.149 113.711C175.324 113.876 175.461 114.091 175.561 114.354C175.662 114.616 175.712 114.935 175.712 115.309V115.595H172.427V114.992H174.924C174.924 114.78 174.88 114.593 174.794 114.43C174.708 114.265 174.587 114.135 174.431 114.039C174.277 113.944 174.096 113.897 173.888 113.897C173.662 113.897 173.465 113.952 173.296 114.064C173.129 114.173 173 114.317 172.908 114.494C172.819 114.67 172.774 114.861 172.774 115.067V115.538C172.774 115.814 172.822 116.049 172.919 116.243C173.018 116.437 173.155 116.585 173.331 116.687C173.506 116.787 173.712 116.837 173.947 116.837C174.1 116.837 174.239 116.816 174.364 116.773C174.49 116.728 174.598 116.662 174.689 116.574C174.781 116.486 174.851 116.377 174.899 116.248L175.661 116.386C175.6 116.61 175.49 116.806 175.333 116.975C175.176 117.142 174.98 117.272 174.744 117.365C174.509 117.456 174.24 117.502 173.939 117.502ZM178.345 117.502C177.945 117.502 177.601 117.411 177.312 117.23C177.025 117.047 176.804 116.795 176.65 116.474C176.496 116.153 176.419 115.786 176.419 115.371C176.419 114.952 176.498 114.581 176.655 114.26C176.813 113.937 177.036 113.685 177.323 113.504C177.61 113.323 177.948 113.232 178.337 113.232C178.651 113.232 178.931 113.291 179.177 113.407C179.422 113.522 179.62 113.683 179.771 113.891C179.923 114.1 180.014 114.343 180.043 114.621H179.26C179.217 114.427 179.118 114.26 178.964 114.12C178.811 113.98 178.607 113.91 178.35 113.91C178.126 113.91 177.93 113.97 177.762 114.088C177.594 114.204 177.464 114.371 177.371 114.588C177.278 114.804 177.231 115.058 177.231 115.352C177.231 115.654 177.277 115.914 177.369 116.133C177.46 116.351 177.589 116.521 177.756 116.641C177.924 116.761 178.122 116.821 178.35 116.821C178.503 116.821 178.641 116.794 178.765 116.738C178.89 116.681 178.995 116.599 179.08 116.493C179.166 116.387 179.226 116.26 179.26 116.111H180.043C180.014 116.378 179.927 116.617 179.782 116.827C179.637 117.037 179.442 117.202 179.198 117.322C178.956 117.442 178.672 117.502 178.345 117.502ZM182.832 113.286V113.932H180.575V113.286H182.832ZM181.18 112.296H181.985V116.205C181.985 116.361 182.008 116.479 182.055 116.558C182.101 116.635 182.161 116.688 182.235 116.716C182.31 116.743 182.392 116.757 182.48 116.757C182.544 116.757 182.601 116.752 182.649 116.743C182.697 116.734 182.735 116.727 182.762 116.722L182.907 117.386C182.861 117.404 182.794 117.422 182.708 117.44C182.622 117.46 182.515 117.471 182.386 117.472C182.174 117.476 181.977 117.438 181.794 117.359C181.611 117.281 181.463 117.159 181.35 116.994C181.237 116.829 181.18 116.621 181.18 116.372V112.296ZM186.34 115.705V113.286H187.147V117.419H186.356V116.703H186.313C186.218 116.924 186.065 117.107 185.856 117.255C185.647 117.4 185.388 117.472 185.078 117.472C184.812 117.472 184.577 117.414 184.373 117.298C184.17 117.179 184.011 117.004 183.894 116.773C183.779 116.542 183.722 116.255 183.722 115.915V113.286H184.527V115.818C184.527 116.099 184.604 116.324 184.76 116.49C184.917 116.657 185.119 116.741 185.369 116.741C185.519 116.741 185.669 116.703 185.818 116.628C185.968 116.552 186.093 116.438 186.192 116.286C186.292 116.133 186.342 115.94 186.34 115.705ZM188.228 117.419V113.286H189.005V113.943H189.048C189.124 113.72 189.256 113.545 189.447 113.418C189.638 113.289 189.855 113.224 190.098 113.224C190.148 113.224 190.207 113.226 190.275 113.23C190.345 113.233 190.4 113.238 190.439 113.243V114.013C190.407 114.004 190.349 113.994 190.267 113.983C190.184 113.97 190.102 113.964 190.019 113.964C189.829 113.964 189.66 114.005 189.511 114.085C189.364 114.164 189.248 114.274 189.162 114.416C189.075 114.556 189.032 114.716 189.032 114.895V117.419H188.228ZM192.768 117.502C192.361 117.502 192.011 117.415 191.716 117.241C191.424 117.065 191.198 116.819 191.038 116.501C190.881 116.182 190.802 115.808 190.802 115.379C190.802 114.956 190.881 114.583 191.038 114.26C191.198 113.937 191.42 113.685 191.706 113.504C191.993 113.323 192.328 113.232 192.712 113.232C192.945 113.232 193.171 113.271 193.39 113.348C193.609 113.425 193.805 113.546 193.979 113.711C194.153 113.876 194.29 114.091 194.391 114.354C194.491 114.616 194.541 114.935 194.541 115.309V115.595H191.256V114.992H193.753C193.753 114.78 193.71 114.593 193.624 114.43C193.538 114.265 193.417 114.135 193.261 114.039C193.107 113.944 192.925 113.897 192.717 113.897C192.491 113.897 192.294 113.952 192.125 114.064C191.959 114.173 191.829 114.317 191.738 114.494C191.648 114.67 191.603 114.861 191.603 115.067V115.538C191.603 115.814 191.652 116.049 191.749 116.243C191.847 116.437 191.985 116.585 192.161 116.687C192.336 116.787 192.542 116.837 192.776 116.837C192.929 116.837 193.068 116.816 193.194 116.773C193.319 116.728 193.427 116.662 193.519 116.574C193.61 116.486 193.681 116.377 193.729 116.248L194.49 116.386C194.429 116.61 194.32 116.806 194.162 116.975C194.006 117.142 193.81 117.272 193.573 117.365C193.338 117.456 193.07 117.502 192.768 117.502Z" fill="white"/>
</g>
<path d="M213.189 139.074C213.189 140.474 214.324 141.608 215.724 141.608C217.123 141.608 218.258 140.474 218.258 139.074C218.258 137.675 217.123 136.54 215.724 136.54C214.324 136.54 213.189 137.675 213.189 139.074ZM227.603 139.549C227.865 139.549 228.078 139.337 228.078 139.074C228.078 138.812 227.865 138.599 227.603 138.599V139.549ZM215.724 139.549H227.603V138.599H215.724V139.549Z" fill="url(#paint0_linear_10194_13268)"/>
<g filter="url(#filter2_d_10194_13268)">
<path d="M240.39 135.3C239.833 135.3 239.29 135.249 238.763 135.148C238.236 135.046 237.77 134.874 237.364 134.631C236.959 134.387 236.639 134.068 236.406 133.673C236.173 133.277 236.057 132.786 236.057 132.198C236.057 132.147 236.057 132.101 236.057 132.061C236.057 132.01 236.062 131.96 236.072 131.909H237.273C237.273 131.949 237.268 132.005 237.258 132.076C237.258 132.147 237.258 132.208 237.258 132.259C237.258 132.705 237.39 133.08 237.653 133.384C237.927 133.678 238.292 133.901 238.748 134.053C239.214 134.195 239.736 134.266 240.314 134.266C240.507 134.266 240.735 134.256 240.998 134.235C241.272 134.205 241.546 134.154 241.819 134.083C242.103 134.002 242.362 133.896 242.595 133.764C242.828 133.622 243.015 133.445 243.157 133.232C243.309 133.009 243.385 132.735 243.385 132.411C243.385 132.036 243.284 131.726 243.081 131.483C242.879 131.24 242.61 131.042 242.275 130.89C241.951 130.728 241.576 130.586 241.15 130.464C240.725 130.343 240.289 130.226 239.843 130.115C239.397 130.003 238.961 129.876 238.535 129.735C238.119 129.593 237.744 129.415 237.41 129.202C237.075 128.989 236.807 128.726 236.604 128.412C236.411 128.087 236.315 127.692 236.315 127.226C236.315 126.82 236.396 126.45 236.558 126.116C236.721 125.781 236.969 125.497 237.303 125.264C237.638 125.021 238.064 124.833 238.581 124.702C239.098 124.57 239.711 124.504 240.42 124.504C240.958 124.504 241.459 124.56 241.926 124.671C242.392 124.783 242.803 124.96 243.157 125.203C243.512 125.437 243.786 125.736 243.978 126.101C244.181 126.455 244.283 126.886 244.283 127.393V127.575H243.097V127.317C243.097 126.942 242.98 126.628 242.747 126.374C242.514 126.111 242.199 125.908 241.804 125.766C241.419 125.614 240.978 125.538 240.481 125.538C239.802 125.538 239.245 125.609 238.809 125.751C238.373 125.883 238.048 126.07 237.836 126.313C237.623 126.547 237.516 126.81 237.516 127.104C237.516 127.449 237.618 127.738 237.82 127.971C238.023 128.194 238.292 128.381 238.626 128.533C238.961 128.675 239.336 128.807 239.751 128.929C240.177 129.04 240.613 129.152 241.059 129.263C241.505 129.375 241.936 129.506 242.352 129.659C242.777 129.8 243.157 129.983 243.492 130.206C243.837 130.419 244.105 130.687 244.298 131.012C244.501 131.336 244.602 131.737 244.602 132.213C244.602 132.933 244.419 133.521 244.054 133.977C243.7 134.433 243.208 134.767 242.58 134.98C241.951 135.193 241.221 135.3 240.39 135.3ZM246.53 125.477V124.124H247.625V125.477H246.53ZM246.53 135.117V127.119H247.625V135.117H246.53ZM249.767 135.117V127.119H250.634L250.74 128.381H250.847C251.07 128.016 251.323 127.733 251.607 127.53C251.891 127.317 252.195 127.165 252.519 127.074C252.854 126.982 253.208 126.937 253.584 126.937C254.09 126.937 254.531 127.023 254.906 127.195C255.292 127.357 255.591 127.626 255.803 128.001C256.016 128.376 256.123 128.888 256.123 129.537V135.117H255.028V129.643C255.028 129.289 254.982 129 254.891 128.777C254.8 128.554 254.673 128.381 254.511 128.26C254.349 128.128 254.156 128.037 253.933 127.986C253.72 127.935 253.482 127.91 253.219 127.91C252.813 127.91 252.428 128.011 252.063 128.214C251.708 128.407 251.419 128.685 251.196 129.05C250.973 129.415 250.862 129.861 250.862 130.388V135.117H249.767ZM259.54 137.885C259.155 137.885 258.795 137.798 258.46 137.626C258.136 137.464 257.877 137.231 257.685 136.927C257.492 136.633 257.396 136.288 257.396 135.893C257.396 135.447 257.513 135.067 257.746 134.752C257.989 134.438 258.293 134.205 258.658 134.053C258.394 133.941 258.192 133.774 258.05 133.551C257.908 133.328 257.837 133.085 257.837 132.821C257.837 132.477 257.964 132.183 258.217 131.939C258.47 131.686 258.78 131.519 259.145 131.438C258.81 131.215 258.541 130.931 258.339 130.586C258.146 130.241 258.05 129.871 258.05 129.476C258.05 128.979 258.166 128.543 258.4 128.168C258.633 127.783 258.982 127.484 259.449 127.271C259.925 127.048 260.518 126.937 261.228 126.937C261.562 126.937 261.871 126.962 262.155 127.013C262.449 127.064 262.713 127.14 262.946 127.241C263.301 127.109 263.574 126.922 263.767 126.678C263.96 126.425 264.086 126.146 264.147 125.842H265.242C265.232 126.126 265.161 126.4 265.029 126.663C264.897 126.927 264.715 127.15 264.482 127.332C264.248 127.515 263.97 127.631 263.645 127.682C263.909 127.925 264.101 128.199 264.223 128.503C264.345 128.807 264.406 129.131 264.406 129.476C264.406 129.952 264.289 130.383 264.056 130.769C263.833 131.144 263.488 131.443 263.022 131.666C262.566 131.889 261.978 132 261.258 132H259.996C259.692 132 259.444 132.061 259.251 132.183C259.058 132.294 258.962 132.487 258.962 132.76C258.962 132.994 259.063 133.176 259.266 133.308C259.469 133.44 259.722 133.505 260.026 133.505H263.159C263.747 133.505 264.223 133.703 264.588 134.098C264.963 134.494 265.151 134.99 265.151 135.589C265.151 136.014 265.044 136.399 264.831 136.744C264.618 137.099 264.324 137.378 263.949 137.58C263.584 137.783 263.154 137.885 262.657 137.885H259.54ZM259.783 137.018H262.627C262.89 137.018 263.128 136.962 263.341 136.851C263.554 136.739 263.721 136.582 263.843 136.379C263.975 136.187 264.041 135.979 264.041 135.756C264.041 135.371 263.929 135.061 263.706 134.828C263.483 134.595 263.204 134.479 262.87 134.479H259.783C259.439 134.479 259.14 134.605 258.886 134.859C258.633 135.102 258.506 135.401 258.506 135.756C258.506 136.141 258.628 136.445 258.871 136.668C259.124 136.901 259.428 137.018 259.783 137.018ZM261.228 131.133C261.937 131.133 262.459 130.986 262.794 130.692C263.138 130.388 263.311 129.983 263.311 129.476C263.311 128.959 263.138 128.554 262.794 128.26C262.459 127.956 261.937 127.803 261.228 127.803C260.538 127.803 260.021 127.956 259.677 128.26C259.332 128.554 259.16 128.959 259.16 129.476C259.16 129.79 259.236 130.074 259.388 130.328C259.54 130.581 259.768 130.779 260.072 130.921C260.386 131.062 260.772 131.133 261.228 131.133ZM266.383 135.117V124.124H267.478V135.117H266.383ZM272.707 135.3C271.946 135.3 271.303 135.153 270.775 134.859C270.248 134.555 269.848 134.093 269.574 133.475C269.301 132.857 269.164 132.071 269.164 131.118C269.164 130.155 269.301 129.37 269.574 128.761C269.848 128.143 270.253 127.687 270.791 127.393C271.328 127.089 271.997 126.937 272.798 126.937C273.538 126.937 274.156 127.084 274.653 127.378C275.16 127.672 275.54 128.097 275.793 128.655C276.057 129.213 276.189 129.897 276.189 130.708V131.407H270.304C270.304 132.107 270.4 132.679 270.593 133.125C270.786 133.571 271.059 133.896 271.414 134.098C271.779 134.291 272.225 134.387 272.752 134.387C273.137 134.387 273.472 134.337 273.756 134.235C274.05 134.134 274.288 133.997 274.47 133.825C274.663 133.642 274.81 133.429 274.911 133.186C275.013 132.943 275.063 132.689 275.063 132.426H276.128C276.128 132.821 276.052 133.196 275.9 133.551C275.758 133.896 275.545 134.2 275.261 134.463C274.987 134.727 274.638 134.935 274.212 135.087C273.786 135.229 273.284 135.3 272.707 135.3ZM270.304 130.54H275.048C275.048 130.034 274.987 129.613 274.866 129.278C274.754 128.934 274.597 128.66 274.394 128.457C274.192 128.244 273.948 128.092 273.664 128.001C273.391 127.91 273.082 127.864 272.737 127.864C272.24 127.864 271.814 127.961 271.46 128.153C271.105 128.336 270.831 128.625 270.639 129.02C270.456 129.415 270.345 129.922 270.304 130.54ZM281.098 135.117V127.119H281.965L282.071 128.381H282.178C282.401 128.016 282.644 127.733 282.907 127.53C283.171 127.317 283.46 127.165 283.774 127.074C284.088 126.982 284.423 126.937 284.778 126.937C285.315 126.937 285.776 127.048 286.161 127.271C286.547 127.484 286.82 127.854 286.982 128.381H287.074C287.287 128.027 287.525 127.748 287.788 127.545C288.052 127.332 288.341 127.18 288.655 127.089C288.979 126.987 289.319 126.937 289.674 126.937C290.15 126.937 290.571 127.018 290.936 127.18C291.301 127.342 291.585 127.611 291.787 127.986C292 128.361 292.107 128.868 292.107 129.506V135.117H291.012V129.628C291.012 129.283 290.966 129 290.875 128.777C290.794 128.543 290.677 128.366 290.525 128.244C290.373 128.123 290.196 128.037 289.993 127.986C289.79 127.935 289.572 127.91 289.339 127.91C288.954 127.91 288.594 128.011 288.26 128.214C287.935 128.407 287.667 128.685 287.454 129.05C287.251 129.415 287.15 129.861 287.15 130.388V135.117H286.055V129.628C286.055 129.283 286.014 129 285.933 128.777C285.852 128.543 285.736 128.366 285.584 128.244C285.431 128.123 285.254 128.037 285.051 127.986C284.859 127.935 284.651 127.91 284.428 127.91C284.043 127.91 283.678 128.011 283.333 128.214C282.999 128.407 282.725 128.685 282.512 129.05C282.299 129.415 282.193 129.861 282.193 130.388V135.117H281.098ZM297.252 135.3C296.491 135.3 295.848 135.153 295.321 134.859C294.793 134.555 294.393 134.093 294.119 133.475C293.846 132.857 293.709 132.071 293.709 131.118C293.709 130.155 293.846 129.37 294.119 128.761C294.393 128.143 294.799 127.687 295.336 127.393C295.873 127.089 296.542 126.937 297.343 126.937C298.083 126.937 298.701 127.084 299.198 127.378C299.705 127.672 300.085 128.097 300.338 128.655C300.602 129.213 300.734 129.897 300.734 130.708V131.407H294.849C294.849 132.107 294.945 132.679 295.138 133.125C295.331 133.571 295.604 133.896 295.959 134.098C296.324 134.291 296.77 134.387 297.297 134.387C297.682 134.387 298.017 134.337 298.301 134.235C298.595 134.134 298.833 133.997 299.015 133.825C299.208 133.642 299.355 133.429 299.456 133.186C299.558 132.943 299.608 132.689 299.608 132.426H300.673C300.673 132.821 300.597 133.196 300.445 133.551C300.303 133.896 300.09 134.2 299.806 134.463C299.532 134.727 299.183 134.935 298.757 135.087C298.331 135.229 297.829 135.3 297.252 135.3ZM294.849 130.54H299.593C299.593 130.034 299.532 129.613 299.411 129.278C299.299 128.934 299.142 128.66 298.939 128.457C298.737 128.244 298.493 128.092 298.21 128.001C297.936 127.91 297.627 127.864 297.282 127.864C296.785 127.864 296.36 127.961 296.005 128.153C295.65 128.336 295.376 128.625 295.184 129.02C295.001 129.415 294.89 129.922 294.849 130.54ZM304.155 135.284C303.79 135.284 303.496 135.219 303.273 135.087C303.06 134.955 302.908 134.773 302.817 134.539C302.736 134.306 302.695 134.048 302.695 133.764V128.047H301.616V127.119H302.695L302.908 124.899H303.79V127.119H305.326V128.047H303.79V133.566C303.79 133.84 303.826 134.043 303.897 134.174C303.978 134.306 304.15 134.372 304.413 134.372H305.326V135.072C305.224 135.112 305.103 135.148 304.961 135.178C304.829 135.219 304.692 135.244 304.55 135.254C304.408 135.274 304.277 135.284 304.155 135.284ZM306.786 135.117V124.124H307.881V128.153H307.988C308.211 127.859 308.454 127.626 308.718 127.454C308.981 127.271 309.27 127.14 309.584 127.058C309.898 126.977 310.238 126.937 310.603 126.937C311.11 126.937 311.551 127.023 311.926 127.195C312.311 127.357 312.61 127.626 312.823 128.001C313.036 128.376 313.142 128.888 313.142 129.537V135.117H312.047V129.643C312.047 129.289 312.002 129 311.911 128.777C311.819 128.554 311.693 128.381 311.53 128.26C311.368 128.128 311.176 128.037 310.953 127.986C310.74 127.935 310.502 127.91 310.238 127.91C309.833 127.91 309.447 128.001 309.082 128.184C308.728 128.366 308.439 128.645 308.216 129.02C307.993 129.385 307.881 129.841 307.881 130.388V135.117H306.786ZM318.354 135.3C317.583 135.3 316.924 135.153 316.377 134.859C315.84 134.555 315.429 134.093 315.145 133.475C314.872 132.857 314.735 132.071 314.735 131.118C314.735 130.155 314.872 129.37 315.145 128.761C315.429 128.143 315.84 127.687 316.377 127.393C316.924 127.089 317.583 126.937 318.354 126.937C319.144 126.937 319.803 127.089 320.33 127.393C320.867 127.687 321.273 128.143 321.547 128.761C321.83 129.37 321.972 130.155 321.972 131.118C321.972 132.071 321.83 132.857 321.547 133.475C321.273 134.093 320.867 134.555 320.33 134.859C319.803 135.153 319.144 135.3 318.354 135.3ZM318.354 134.372C318.891 134.372 319.342 134.266 319.707 134.053C320.072 133.84 320.35 133.511 320.543 133.064C320.736 132.608 320.832 132.02 320.832 131.301V130.936C320.832 130.216 320.736 129.633 320.543 129.187C320.35 128.731 320.072 128.396 319.707 128.184C319.342 127.971 318.891 127.864 318.354 127.864C317.816 127.864 317.365 127.971 317 128.184C316.635 128.396 316.357 128.731 316.164 129.187C315.971 129.633 315.875 130.216 315.875 130.936V131.301C315.875 132.02 315.971 132.608 316.164 133.064C316.357 133.511 316.635 133.84 317 134.053C317.365 134.266 317.816 134.372 318.354 134.372ZM326.346 135.3C325.687 135.3 325.12 135.153 324.643 134.859C324.167 134.565 323.802 134.109 323.549 133.49C323.305 132.862 323.184 132.046 323.184 131.042C323.184 130.099 323.31 129.329 323.564 128.731C323.817 128.123 324.177 127.672 324.643 127.378C325.12 127.084 325.677 126.937 326.316 126.937C326.661 126.937 326.985 126.977 327.289 127.058C327.593 127.14 327.867 127.271 328.11 127.454C328.353 127.626 328.566 127.859 328.749 128.153H328.84V124.124H329.935V135.117H329.083L328.962 133.946H328.855C328.571 134.403 328.206 134.742 327.76 134.965C327.325 135.188 326.853 135.3 326.346 135.3ZM326.529 134.342C327.076 134.342 327.517 134.22 327.852 133.977C328.196 133.734 328.445 133.384 328.597 132.928C328.759 132.471 328.84 131.914 328.84 131.255V130.981C328.84 130.353 328.774 129.836 328.642 129.43C328.521 129.025 328.348 128.711 328.125 128.488C327.913 128.265 327.674 128.113 327.411 128.032C327.147 127.94 326.879 127.895 326.605 127.895C326.098 127.895 325.672 128.001 325.328 128.214C324.993 128.417 324.74 128.741 324.567 129.187C324.405 129.633 324.324 130.216 324.324 130.936V131.316C324.324 132.066 324.415 132.664 324.598 133.11C324.78 133.546 325.034 133.86 325.358 134.053C325.693 134.245 326.083 134.342 326.529 134.342ZM337.09 135.284C336.725 135.284 336.431 135.219 336.208 135.087C335.995 134.955 335.843 134.773 335.752 134.539C335.671 134.306 335.63 134.048 335.63 133.764V128.047H334.55V127.119H335.63L335.843 124.899H336.725V127.119H338.26V128.047H336.725V133.566C336.725 133.84 336.76 134.043 336.831 134.174C336.912 134.306 337.085 134.372 337.348 134.372H338.26V135.072C338.159 135.112 338.037 135.148 337.896 135.178C337.764 135.219 337.627 135.244 337.485 135.254C337.343 135.274 337.211 135.284 337.09 135.284ZM342.884 135.3C342.113 135.3 341.455 135.153 340.907 134.859C340.37 134.555 339.959 134.093 339.676 133.475C339.402 132.857 339.265 132.071 339.265 131.118C339.265 130.155 339.402 129.37 339.676 128.761C339.959 128.143 340.37 127.687 340.907 127.393C341.455 127.089 342.113 126.937 342.884 126.937C343.674 126.937 344.333 127.089 344.86 127.393C345.398 127.687 345.803 128.143 346.077 128.761C346.361 129.37 346.503 130.155 346.503 131.118C346.503 132.071 346.361 132.857 346.077 133.475C345.803 134.093 345.398 134.555 344.86 134.859C344.333 135.153 343.674 135.3 342.884 135.3ZM342.884 134.372C343.421 134.372 343.872 134.266 344.237 134.053C344.602 133.84 344.881 133.511 345.073 133.064C345.266 132.608 345.362 132.02 345.362 131.301V130.936C345.362 130.216 345.266 129.633 345.073 129.187C344.881 128.731 344.602 128.396 344.237 128.184C343.872 127.971 343.421 127.864 342.884 127.864C342.347 127.864 341.895 127.971 341.531 128.184C341.166 128.396 340.887 128.731 340.694 129.187C340.502 129.633 340.405 130.216 340.405 130.936V131.301C340.405 132.02 340.502 132.608 340.694 133.064C340.887 133.511 341.166 133.84 341.531 134.053C341.895 134.266 342.347 134.372 342.884 134.372ZM352.79 137.885C352.405 137.885 352.045 137.798 351.711 137.626C351.386 137.464 351.128 137.231 350.935 136.927C350.743 136.633 350.647 136.288 350.647 135.893C350.647 135.447 350.763 135.067 350.996 134.752C351.24 134.438 351.544 134.205 351.909 134.053C351.645 133.941 351.442 133.774 351.3 133.551C351.158 133.328 351.087 133.085 351.087 132.821C351.087 132.477 351.214 132.183 351.468 131.939C351.721 131.686 352.03 131.519 352.395 131.438C352.061 131.215 351.792 130.931 351.589 130.586C351.397 130.241 351.3 129.871 351.3 129.476C351.3 128.979 351.417 128.543 351.65 128.168C351.883 127.783 352.233 127.484 352.699 127.271C353.176 127.048 353.769 126.937 354.478 126.937C354.813 126.937 355.122 126.962 355.406 127.013C355.7 127.064 355.963 127.14 356.196 127.241C356.551 127.109 356.825 126.922 357.017 126.678C357.21 126.425 357.337 126.146 357.398 125.842H358.492C358.482 126.126 358.411 126.4 358.28 126.663C358.148 126.927 357.965 127.15 357.732 127.332C357.499 127.515 357.22 127.631 356.896 127.682C357.159 127.925 357.352 128.199 357.474 128.503C357.595 128.807 357.656 129.131 357.656 129.476C357.656 129.952 357.54 130.383 357.306 130.769C357.083 131.144 356.739 131.443 356.272 131.666C355.816 131.889 355.228 132 354.509 132H353.247C352.942 132 352.694 132.061 352.502 132.183C352.309 132.294 352.213 132.487 352.213 132.76C352.213 132.994 352.314 133.176 352.517 133.308C352.719 133.44 352.973 133.505 353.277 133.505H356.409C356.997 133.505 357.474 133.703 357.839 134.098C358.214 134.494 358.401 134.99 358.401 135.589C358.401 136.014 358.295 136.399 358.082 136.744C357.869 137.099 357.575 137.378 357.2 137.58C356.835 137.783 356.404 137.885 355.908 137.885H352.79ZM353.034 137.018H355.877C356.141 137.018 356.379 136.962 356.592 136.851C356.805 136.739 356.972 136.582 357.094 136.379C357.225 136.187 357.291 135.979 357.291 135.756C357.291 135.371 357.18 135.061 356.957 134.828C356.734 134.595 356.455 134.479 356.12 134.479H353.034C352.689 134.479 352.39 134.605 352.137 134.859C351.883 135.102 351.756 135.401 351.756 135.756C351.756 136.141 351.878 136.445 352.121 136.668C352.375 136.901 352.679 137.018 353.034 137.018ZM354.478 131.133C355.188 131.133 355.71 130.986 356.044 130.692C356.389 130.388 356.561 129.983 356.561 129.476C356.561 128.959 356.389 128.554 356.044 128.26C355.71 127.956 355.188 127.803 354.478 127.803C353.789 127.803 353.272 127.956 352.927 128.26C352.583 128.554 352.41 128.959 352.41 129.476C352.41 129.79 352.486 130.074 352.638 130.328C352.79 130.581 353.019 130.779 353.323 130.921C353.637 131.062 354.022 131.133 354.478 131.133ZM362.72 135.3C361.96 135.3 361.316 135.153 360.789 134.859C360.262 134.555 359.861 134.093 359.588 133.475C359.314 132.857 359.177 132.071 359.177 131.118C359.177 130.155 359.314 129.37 359.588 128.761C359.861 128.143 360.267 127.687 360.804 127.393C361.341 127.089 362.01 126.937 362.811 126.937C363.551 126.937 364.17 127.084 364.666 127.378C365.173 127.672 365.553 128.097 365.807 128.655C366.07 129.213 366.202 129.897 366.202 130.708V131.407H360.318C360.318 132.107 360.414 132.679 360.607 133.125C360.799 133.571 361.073 133.896 361.428 134.098C361.793 134.291 362.239 134.387 362.766 134.387C363.151 134.387 363.485 134.337 363.769 134.235C364.063 134.134 364.301 133.997 364.484 133.825C364.676 133.642 364.823 133.429 364.925 133.186C365.026 132.943 365.077 132.689 365.077 132.426H366.141C366.141 132.821 366.065 133.196 365.913 133.551C365.771 133.896 365.558 134.2 365.274 134.463C365.001 134.727 364.651 134.935 364.225 135.087C363.8 135.229 363.298 135.3 362.72 135.3ZM360.318 130.54H365.062C365.062 130.034 365.001 129.613 364.879 129.278C364.768 128.934 364.611 128.66 364.408 128.457C364.205 128.244 363.962 128.092 363.678 128.001C363.404 127.91 363.095 127.864 362.75 127.864C362.254 127.864 361.828 127.961 361.473 128.153C361.118 128.336 360.845 128.625 360.652 129.02C360.47 129.415 360.358 129.922 360.318 130.54ZM369.623 135.284C369.258 135.284 368.965 135.219 368.742 135.087C368.529 134.955 368.377 134.773 368.285 134.539C368.204 134.306 368.164 134.048 368.164 133.764V128.047H367.084V127.119H368.164L368.377 124.899H369.258V127.119H370.794V128.047H369.258V133.566C369.258 133.84 369.294 134.043 369.365 134.174C369.446 134.306 369.618 134.372 369.882 134.372H370.794V135.072C370.693 135.112 370.571 135.148 370.429 135.178C370.298 135.219 370.161 135.244 370.019 135.254C369.877 135.274 369.745 135.284 369.623 135.284ZM236.269 156.117V148.119H237.151L237.243 149.457H237.349C237.42 149.214 237.526 148.976 237.668 148.743C237.81 148.51 238.003 148.317 238.246 148.165C238.489 148.013 238.799 147.937 239.174 147.937C239.316 147.937 239.447 147.952 239.569 147.982C239.691 148.003 239.782 148.023 239.843 148.043V149.047H239.371C239.017 149.047 238.712 149.113 238.459 149.244C238.206 149.366 237.998 149.543 237.836 149.777C237.673 150.01 237.552 150.278 237.471 150.583C237.4 150.876 237.364 151.186 237.364 151.51V156.117H236.269ZM244.033 156.3C243.273 156.3 242.63 156.153 242.102 155.859C241.575 155.555 241.175 155.093 240.901 154.475C240.628 153.857 240.491 153.071 240.491 152.118C240.491 151.155 240.628 150.37 240.901 149.761C241.175 149.143 241.58 148.687 242.118 148.393C242.655 148.089 243.324 147.937 244.125 147.937C244.865 147.937 245.483 148.084 245.98 148.378C246.487 148.672 246.867 149.097 247.12 149.655C247.384 150.213 247.515 150.897 247.515 151.708V152.407H241.631C241.631 153.107 241.727 153.679 241.92 154.125C242.113 154.571 242.386 154.896 242.741 155.098C243.106 155.291 243.552 155.387 244.079 155.387C244.464 155.387 244.799 155.337 245.083 155.235C245.377 155.134 245.615 154.997 245.797 154.825C245.99 154.642 246.137 154.429 246.238 154.186C246.34 153.943 246.39 153.689 246.39 153.426H247.455C247.455 153.821 247.379 154.196 247.227 154.551C247.085 154.896 246.872 155.2 246.588 155.463C246.314 155.727 245.965 155.935 245.539 156.087C245.113 156.229 244.611 156.3 244.033 156.3ZM241.631 151.54H246.375C246.375 151.034 246.314 150.613 246.193 150.278C246.081 149.934 245.924 149.66 245.721 149.457C245.519 149.244 245.275 149.092 244.991 149.001C244.718 148.91 244.409 148.864 244.064 148.864C243.567 148.864 243.141 148.961 242.787 149.153C242.432 149.336 242.158 149.625 241.966 150.02C241.783 150.415 241.672 150.922 241.631 151.54ZM252.092 156.3C251.352 156.3 250.724 156.148 250.207 155.843C249.7 155.539 249.315 155.078 249.051 154.46C248.788 153.841 248.656 153.061 248.656 152.118C248.656 151.186 248.788 150.41 249.051 149.792C249.315 149.173 249.705 148.712 250.222 148.408C250.749 148.094 251.393 147.937 252.153 147.937C252.711 147.937 253.182 148.013 253.567 148.165C253.963 148.307 254.282 148.515 254.525 148.788C254.779 149.062 254.961 149.391 255.073 149.777C255.184 150.162 255.24 150.593 255.24 151.069H254.16C254.16 150.552 254.089 150.136 253.947 149.822C253.816 149.498 253.598 149.26 253.294 149.108C253 148.945 252.609 148.864 252.123 148.864C251.667 148.864 251.261 148.966 250.906 149.168C250.562 149.371 250.288 149.696 250.085 150.142C249.893 150.577 249.796 151.176 249.796 151.936V152.301C249.796 153.02 249.888 153.608 250.07 154.064C250.253 154.511 250.516 154.84 250.861 155.053C251.216 155.266 251.636 155.372 252.123 155.372C252.63 155.372 253.03 155.286 253.324 155.114C253.628 154.931 253.846 154.678 253.978 154.353C254.11 154.019 254.176 153.624 254.176 153.167H255.24C255.24 153.593 255.184 153.999 255.073 154.384C254.961 154.759 254.779 155.088 254.525 155.372C254.282 155.656 253.958 155.884 253.552 156.056C253.157 156.219 252.67 156.3 252.092 156.3ZM260.013 156.3C259.242 156.3 258.583 156.153 258.036 155.859C257.499 155.555 257.088 155.093 256.804 154.475C256.531 153.857 256.394 153.071 256.394 152.118C256.394 151.155 256.531 150.37 256.804 149.761C257.088 149.143 257.499 148.687 258.036 148.393C258.583 148.089 259.242 147.937 260.013 147.937C260.803 147.937 261.462 148.089 261.989 148.393C262.526 148.687 262.932 149.143 263.206 149.761C263.489 150.37 263.631 151.155 263.631 152.118C263.631 153.071 263.489 153.857 263.206 154.475C262.932 155.093 262.526 155.555 261.989 155.859C261.462 156.153 260.803 156.3 260.013 156.3ZM260.013 155.372C260.55 155.372 261.001 155.266 261.366 155.053C261.731 154.84 262.01 154.511 262.202 154.064C262.395 153.608 262.491 153.02 262.491 152.301V151.936C262.491 151.216 262.395 150.633 262.202 150.187C262.01 149.731 261.731 149.396 261.366 149.184C261.001 148.971 260.55 148.864 260.013 148.864C259.475 148.864 259.024 148.971 258.659 149.184C258.294 149.396 258.016 149.731 257.823 150.187C257.63 150.633 257.534 151.216 257.534 151.936V152.301C257.534 153.02 257.63 153.608 257.823 154.064C258.016 154.511 258.294 154.84 258.659 155.053C259.024 155.266 259.475 155.372 260.013 155.372ZM265.299 156.117V148.119H266.166L266.272 149.381H266.378C266.601 149.016 266.845 148.733 267.108 148.53C267.372 148.317 267.661 148.165 267.975 148.074C268.289 147.982 268.624 147.937 268.979 147.937C269.516 147.937 269.977 148.048 270.362 148.271C270.747 148.484 271.021 148.854 271.183 149.381H271.275C271.487 149.027 271.726 148.748 271.989 148.545C272.253 148.332 272.542 148.18 272.856 148.089C273.18 147.987 273.52 147.937 273.875 147.937C274.351 147.937 274.772 148.018 275.137 148.18C275.502 148.342 275.785 148.611 275.988 148.986C276.201 149.361 276.307 149.868 276.307 150.506V156.117H275.213V150.628C275.213 150.283 275.167 150 275.076 149.777C274.995 149.543 274.878 149.366 274.726 149.244C274.574 149.123 274.397 149.037 274.194 148.986C273.991 148.935 273.773 148.91 273.54 148.91C273.155 148.91 272.795 149.011 272.461 149.214C272.136 149.407 271.868 149.685 271.655 150.05C271.452 150.415 271.351 150.861 271.351 151.388V156.117H270.256V150.628C270.256 150.283 270.215 150 270.134 149.777C270.053 149.543 269.936 149.366 269.784 149.244C269.632 149.123 269.455 149.037 269.252 148.986C269.06 148.935 268.852 148.91 268.629 148.91C268.244 148.91 267.879 149.011 267.534 149.214C267.2 149.407 266.926 149.685 266.713 150.05C266.5 150.415 266.394 150.861 266.394 151.388V156.117H265.299ZM278.366 156.117V148.119H279.233L279.339 149.381H279.445C279.668 149.016 279.912 148.733 280.175 148.53C280.439 148.317 280.728 148.165 281.042 148.074C281.356 147.982 281.691 147.937 282.045 147.937C282.583 147.937 283.044 148.048 283.429 148.271C283.814 148.484 284.088 148.854 284.25 149.381H284.341C284.554 149.027 284.793 148.748 285.056 148.545C285.32 148.332 285.609 148.18 285.923 148.089C286.247 147.987 286.587 147.937 286.942 147.937C287.418 147.937 287.839 148.018 288.204 148.18C288.569 148.342 288.852 148.611 289.055 148.986C289.268 149.361 289.374 149.868 289.374 150.506V156.117H288.28V150.628C288.28 150.283 288.234 150 288.143 149.777C288.062 149.543 287.945 149.366 287.793 149.244C287.641 149.123 287.464 149.037 287.261 148.986C287.058 148.935 286.84 148.91 286.607 148.91C286.222 148.91 285.862 149.011 285.527 149.214C285.203 149.407 284.934 149.685 284.722 150.05C284.519 150.415 284.417 150.861 284.417 151.388V156.117H283.323V150.628C283.323 150.283 283.282 150 283.201 149.777C283.12 149.543 283.003 149.366 282.851 149.244C282.699 149.123 282.522 149.037 282.319 148.986C282.127 148.935 281.919 148.91 281.696 148.91C281.311 148.91 280.946 149.011 280.601 149.214C280.266 149.407 279.993 149.685 279.78 150.05C279.567 150.415 279.461 150.861 279.461 151.388V156.117H278.366ZM294.519 156.3C293.759 156.3 293.115 156.153 292.588 155.859C292.061 155.555 291.661 155.093 291.387 154.475C291.113 153.857 290.977 153.071 290.977 152.118C290.977 151.155 291.113 150.37 291.387 149.761C291.661 149.143 292.066 148.687 292.604 148.393C293.141 148.089 293.81 147.937 294.611 147.937C295.351 147.937 295.969 148.084 296.466 148.378C296.973 148.672 297.353 149.097 297.606 149.655C297.87 150.213 298.001 150.897 298.001 151.708V152.407H292.117C292.117 153.107 292.213 153.679 292.406 154.125C292.599 154.571 292.872 154.896 293.227 155.098C293.592 155.291 294.038 155.387 294.565 155.387C294.95 155.387 295.285 155.337 295.569 155.235C295.863 155.134 296.101 154.997 296.283 154.825C296.476 154.642 296.623 154.429 296.724 154.186C296.826 153.943 296.876 153.689 296.876 153.426H297.941C297.941 153.821 297.865 154.196 297.713 154.551C297.571 154.896 297.358 155.2 297.074 155.463C296.8 155.727 296.45 155.935 296.025 156.087C295.599 156.229 295.097 156.3 294.519 156.3ZM292.117 151.54H296.861C296.861 151.034 296.8 150.613 296.679 150.278C296.567 149.934 296.41 149.66 296.207 149.457C296.004 149.244 295.761 149.092 295.477 149.001C295.204 148.91 294.894 148.864 294.55 148.864C294.053 148.864 293.627 148.961 293.273 149.153C292.918 149.336 292.644 149.625 292.452 150.02C292.269 150.415 292.158 150.922 292.117 151.54ZM299.659 156.117V148.119H300.526L300.632 149.381H300.739C300.962 149.016 301.215 148.733 301.499 148.53C301.783 148.317 302.087 148.165 302.411 148.074C302.746 147.982 303.1 147.937 303.476 147.937C303.982 147.937 304.423 148.023 304.798 148.195C305.184 148.357 305.483 148.626 305.695 149.001C305.908 149.376 306.015 149.888 306.015 150.537V156.117H304.92V150.643C304.92 150.289 304.874 150 304.783 149.777C304.692 149.554 304.565 149.381 304.403 149.26C304.241 149.128 304.048 149.037 303.825 148.986C303.612 148.935 303.374 148.91 303.111 148.91C302.705 148.91 302.32 149.011 301.955 149.214C301.6 149.407 301.311 149.685 301.088 150.05C300.865 150.415 300.754 150.861 300.754 151.388V156.117H299.659ZM310.77 156.3C310.111 156.3 309.543 156.153 309.067 155.859C308.591 155.565 308.226 155.109 307.972 154.49C307.729 153.862 307.607 153.046 307.607 152.042C307.607 151.099 307.734 150.329 307.987 149.731C308.241 149.123 308.601 148.672 309.067 148.378C309.543 148.084 310.101 147.937 310.74 147.937C311.084 147.937 311.409 147.977 311.713 148.058C312.017 148.14 312.29 148.271 312.534 148.454C312.777 148.626 312.99 148.859 313.172 149.153H313.264V145.124H314.358V156.117H313.507L313.385 154.946H313.279C312.995 155.403 312.63 155.742 312.184 155.965C311.748 156.188 311.277 156.3 310.77 156.3ZM310.952 155.342C311.5 155.342 311.941 155.22 312.275 154.977C312.62 154.734 312.868 154.384 313.02 153.928C313.183 153.471 313.264 152.914 313.264 152.255V151.981C313.264 151.353 313.198 150.836 313.066 150.43C312.944 150.025 312.772 149.711 312.549 149.488C312.336 149.265 312.098 149.113 311.834 149.032C311.571 148.94 311.302 148.895 311.028 148.895C310.522 148.895 310.096 149.001 309.751 149.214C309.417 149.417 309.163 149.741 308.991 150.187C308.829 150.633 308.748 151.216 308.748 151.936V152.316C308.748 153.066 308.839 153.664 309.021 154.11C309.204 154.546 309.457 154.86 309.782 155.053C310.116 155.245 310.506 155.342 310.952 155.342ZM318.489 156.3C318.175 156.3 317.866 156.259 317.562 156.178C317.258 156.107 316.984 155.99 316.741 155.828C316.508 155.656 316.32 155.428 316.178 155.144C316.036 154.86 315.965 154.511 315.965 154.095C315.965 153.548 316.097 153.101 316.361 152.757C316.634 152.402 317.015 152.128 317.501 151.936C317.988 151.733 318.56 151.596 319.219 151.525C319.888 151.454 320.613 151.419 321.394 151.419V150.4C321.394 150.076 321.333 149.802 321.211 149.579C321.1 149.346 320.897 149.168 320.603 149.047C320.319 148.915 319.914 148.849 319.387 148.849C318.88 148.849 318.479 148.915 318.185 149.047C317.891 149.179 317.684 149.351 317.562 149.564C317.45 149.766 317.395 149.995 317.395 150.248V150.491H316.346C316.335 150.441 316.33 150.39 316.33 150.339C316.33 150.289 316.33 150.228 316.33 150.157C316.33 149.65 316.462 149.234 316.726 148.91C316.989 148.586 317.364 148.342 317.851 148.18C318.337 148.018 318.895 147.937 319.523 147.937C320.162 147.937 320.699 148.033 321.135 148.226C321.571 148.408 321.906 148.672 322.139 149.016C322.372 149.361 322.488 149.777 322.488 150.263V154.855C322.488 155.048 322.524 155.185 322.595 155.266C322.676 155.337 322.782 155.372 322.914 155.372H323.553V156.072C323.401 156.132 323.239 156.183 323.066 156.224C322.904 156.264 322.732 156.284 322.549 156.284C322.286 156.284 322.073 156.229 321.911 156.117C321.759 156.006 321.647 155.849 321.576 155.646C321.515 155.443 321.475 155.22 321.454 154.977H321.348C321.155 155.25 320.907 155.489 320.603 155.691C320.309 155.884 319.985 156.031 319.63 156.132C319.275 156.244 318.895 156.3 318.489 156.3ZM318.718 155.372C319.052 155.372 319.376 155.316 319.691 155.205C320.005 155.093 320.289 154.941 320.542 154.749C320.796 154.546 320.998 154.308 321.15 154.034C321.313 153.76 321.394 153.456 321.394 153.122V152.301C320.451 152.301 319.66 152.351 319.022 152.453C318.393 152.554 317.917 152.731 317.592 152.985C317.278 153.238 317.121 153.593 317.121 154.049C317.121 154.353 317.187 154.607 317.319 154.81C317.461 155.002 317.653 155.144 317.896 155.235C318.14 155.327 318.413 155.372 318.718 155.372ZM326.458 156.284C326.093 156.284 325.799 156.219 325.576 156.087C325.363 155.955 325.211 155.773 325.12 155.539C325.039 155.306 324.998 155.048 324.998 154.764V149.047H323.919V148.119H324.998L325.211 145.899H326.093V148.119H327.629V149.047H326.093V154.566C326.093 154.84 326.128 155.043 326.199 155.174C326.281 155.306 326.453 155.372 326.716 155.372H327.629V156.072C327.527 156.112 327.406 156.148 327.264 156.178C327.132 156.219 326.995 156.244 326.853 156.254C326.711 156.274 326.58 156.284 326.458 156.284ZM329.089 146.477V145.124H330.184V146.477H329.089ZM329.089 156.117V148.119H330.184V156.117H329.089ZM335.489 156.3C334.719 156.3 334.06 156.153 333.512 155.859C332.975 155.555 332.565 155.093 332.281 154.475C332.007 153.857 331.87 153.071 331.87 152.118C331.87 151.155 332.007 150.37 332.281 149.761C332.565 149.143 332.975 148.687 333.512 148.393C334.06 148.089 334.719 147.937 335.489 147.937C336.28 147.937 336.939 148.089 337.466 148.393C338.003 148.687 338.408 149.143 338.682 149.761C338.966 150.37 339.108 151.155 339.108 152.118C339.108 153.071 338.966 153.857 338.682 154.475C338.408 155.093 338.003 155.555 337.466 155.859C336.939 156.153 336.28 156.3 335.489 156.3ZM335.489 155.372C336.026 155.372 336.477 155.266 336.842 155.053C337.207 154.84 337.486 154.511 337.679 154.064C337.871 153.608 337.968 153.02 337.968 152.301V151.936C337.968 151.216 337.871 150.633 337.679 150.187C337.486 149.731 337.207 149.396 336.842 149.184C336.477 148.971 336.026 148.864 335.489 148.864C334.952 148.864 334.501 148.971 334.136 149.184C333.771 149.396 333.492 149.731 333.3 150.187C333.107 150.633 333.011 151.216 333.011 151.936V152.301C333.011 153.02 333.107 153.608 333.3 154.064C333.492 154.511 333.771 154.84 334.136 155.053C334.501 155.266 334.952 155.372 335.489 155.372ZM340.775 156.117V148.119H341.642L341.749 149.381H341.855C342.078 149.016 342.331 148.733 342.615 148.53C342.899 148.317 343.203 148.165 343.528 148.074C343.862 147.982 344.217 147.937 344.592 147.937C345.099 147.937 345.54 148.023 345.915 148.195C346.3 148.357 346.599 148.626 346.812 149.001C347.025 149.376 347.131 149.888 347.131 150.537V156.117H346.036V150.643C346.036 150.289 345.991 150 345.9 149.777C345.808 149.554 345.682 149.381 345.519 149.26C345.357 149.128 345.165 149.037 344.942 148.986C344.729 148.935 344.491 148.91 344.227 148.91C343.821 148.91 343.436 149.011 343.071 149.214C342.717 149.407 342.428 149.685 342.205 150.05C341.982 150.415 341.87 150.861 341.87 151.388V156.117H340.775ZM351.841 156.3C351.314 156.3 350.847 156.244 350.442 156.132C350.036 156.031 349.697 155.879 349.423 155.676C349.16 155.463 348.957 155.21 348.815 154.916C348.683 154.622 348.617 154.282 348.617 153.897C348.617 153.857 348.617 153.816 348.617 153.776C348.617 153.725 348.622 153.679 348.632 153.639H349.712C349.702 153.689 349.697 153.735 349.697 153.776C349.697 153.806 349.697 153.836 349.697 153.867C349.707 154.262 349.803 154.571 349.986 154.794C350.168 155.007 350.427 155.159 350.761 155.25C351.096 155.342 351.481 155.387 351.917 155.387C352.292 155.387 352.626 155.337 352.92 155.235C353.224 155.124 353.463 154.967 353.635 154.764C353.817 154.561 353.909 154.313 353.909 154.019C353.909 153.644 353.792 153.36 353.559 153.167C353.336 152.975 353.042 152.828 352.677 152.726C352.312 152.615 351.932 152.498 351.537 152.377C351.212 152.285 350.893 152.189 350.579 152.088C350.264 151.976 349.976 151.839 349.712 151.677C349.459 151.515 349.256 151.307 349.104 151.054C348.952 150.8 348.876 150.481 348.876 150.096C348.876 149.761 348.942 149.462 349.073 149.199C349.215 148.935 349.413 148.712 349.666 148.53C349.93 148.337 350.249 148.19 350.624 148.089C350.999 147.987 351.425 147.937 351.902 147.937C352.429 147.937 352.88 147.998 353.255 148.119C353.63 148.241 353.934 148.408 354.167 148.621C354.4 148.824 354.573 149.057 354.684 149.32C354.796 149.574 354.851 149.843 354.851 150.126C354.851 150.167 354.846 150.213 354.836 150.263C354.836 150.314 354.836 150.359 354.836 150.4H353.757V150.202C353.757 149.989 353.701 149.782 353.589 149.579C353.488 149.376 353.3 149.204 353.027 149.062C352.763 148.92 352.368 148.849 351.841 148.849C351.526 148.849 351.253 148.88 351.02 148.94C350.797 148.991 350.604 149.067 350.442 149.168C350.29 149.27 350.173 149.396 350.092 149.549C350.021 149.69 349.986 149.858 349.986 150.05C349.986 150.344 350.077 150.572 350.259 150.735C350.452 150.887 350.7 151.013 351.004 151.115C351.309 151.206 351.633 151.307 351.978 151.419C352.322 151.52 352.672 151.627 353.027 151.738C353.392 151.85 353.726 151.986 354.03 152.149C354.334 152.311 354.578 152.529 354.76 152.802C354.943 153.066 355.034 153.416 355.034 153.852C355.034 154.257 354.953 154.617 354.791 154.931C354.628 155.235 354.405 155.489 354.121 155.691C353.838 155.894 353.498 156.046 353.103 156.148C352.718 156.249 352.297 156.3 351.841 156.3Z" fill="#292929"/>
</g>
<defs>
<filter id="filter0_d_10194_13268" x="35.6821" y="108.978" width="173.82" height="61.5127" filterUnits="userSpaceOnUse" color-interpolation-filters="sRGB">
<feFlood flood-opacity="0" result="BackgroundImageFix"/>
<feColorMatrix in="SourceAlpha" type="matrix" values="0 0 0 0 0 0 0 0 0 0 0 0 0 0 0 0 0 0 127 0" result="hardAlpha"/>
<feOffset/>
<feGaussianBlur stdDeviation="3.95044"/>
<feComposite in2="hardAlpha" operator="out"/>
<feColorMatrix type="matrix" values="0 0 0 0 0.72549 0 0 0 0 0.0941176 0 0 0 0 0.105882 0 0 0 0.6 0"/>
<feBlend mode="normal" in2="BackgroundImageFix" result="effect1_dropShadow_10194_13268"/>
<feBlend mode="normal" in="SourceGraphic" in2="effect1_dropShadow_10194_13268" result="shape"/>
</filter>
<filter id="filter1_d_10194_13268" x="125.473" y="102.982" width="79.2004" height="24.0041" filterUnits="userSpaceOnUse" color-interpolation-filters="sRGB">
<feFlood flood-opacity="0" result="BackgroundImageFix"/>
<feColorMatrix in="SourceAlpha" type="matrix" values="0 0 0 0 0 0 0 0 0 0 0 0 0 0 0 0 0 0 127 0" result="hardAlpha"/>
<feOffset/>
<feGaussianBlur stdDeviation="2.0772"/>
<feComposite in2="hardAlpha" operator="out"/>
<feColorMatrix type="matrix" values="0 0 0 0 0.53 0 0 0 0 0.53 0 0 0 0 0.53 0 0 0 1 0"/>
<feBlend mode="normal" in2="BackgroundImageFix" result="effect1_dropShadow_10194_13268"/>
<feBlend mode="normal" in="SourceGraphic" in2="effect1_dropShadow_10194_13268" result="shape"/>
</filter>
<filter id="filter2_d_10194_13268" x="222.182" y="110.248" width="162.487" height="59.9252" filterUnits="userSpaceOnUse" color-interpolation-filters="sRGB">
<feFlood flood-opacity="0" result="BackgroundImageFix"/>
<feColorMatrix in="SourceAlpha" type="matrix" values="0 0 0 0 0 0 0 0 0 0 0 0 0 0 0 0 0 0 127 0" result="hardAlpha"/>
<feOffset/>
<feGaussianBlur stdDeviation="6.93737"/>
<feComposite in2="hardAlpha" operator="out"/>
<feColorMatrix type="matrix" values="0 0 0 0 0.72549 0 0 0 0 0.0941176 0 0 0 0 0.105882 0 0 0 0.6 0"/>
<feBlend mode="normal" in2="BackgroundImageFix" result="effect1_dropShadow_10194_13268"/>
<feBlend mode="normal" in="SourceGraphic" in2="effect1_dropShadow_10194_13268" result="shape"/>
</filter>
<linearGradient id="paint0_linear_10194_13268" x1="215.724" y1="139.574" x2="250.41" y2="139.574" gradientUnits="userSpaceOnUse">
<stop stop-color="#DDDDDD" stop-opacity="0.87"/>
<stop offset="1" stop-color="#B9181B" stop-opacity="0.6"/>
</linearGradient>
</defs>
</svg>
