<svg width="440" height="279" viewBox="0 0 440 279" fill="none" xmlns="http://www.w3.org/2000/svg">
<rect width="440" height="277.743" transform="translate(0 0.974609)" fill="#F0F0F0"/>
<g filter="url(#filter0_d_10194_13340)">
<path d="M279.788 124.062H160.212C150.706 124.062 143 131.768 143 141.274V149.88C143 159.385 150.706 167.091 160.212 167.091H279.788C289.294 167.091 297 159.385 297 149.88V141.274C297 131.768 289.294 124.062 279.788 124.062Z" stroke="#C41635" stroke-width="0.534722" stroke-dasharray="8.56 5.35"/>
</g>
<path d="M174.837 148.66V142.438H176.152V147.575H178.82V148.66H174.837ZM180.903 148.748C180.606 148.748 180.34 148.696 180.107 148.593C179.875 148.487 179.69 148.332 179.555 148.128C179.421 147.921 179.354 147.664 179.354 147.356C179.354 147.097 179.402 146.879 179.497 146.703C179.592 146.527 179.722 146.385 179.886 146.277C180.05 146.171 180.236 146.089 180.445 146.035C180.655 145.98 180.876 145.942 181.107 145.919C181.378 145.891 181.597 145.865 181.763 145.84C181.929 145.814 182.05 145.775 182.125 145.725C182.2 145.674 182.237 145.599 182.237 145.5V145.482C182.237 145.289 182.176 145.141 182.055 145.035C181.935 144.93 181.765 144.877 181.545 144.877C181.312 144.877 181.126 144.929 180.989 145.032C180.851 145.133 180.76 145.261 180.715 145.415L179.518 145.318C179.579 145.034 179.698 144.789 179.877 144.582C180.055 144.374 180.285 144.214 180.566 144.102C180.85 143.989 181.178 143.932 181.551 143.932C181.81 143.932 182.058 143.963 182.295 144.024C182.534 144.084 182.746 144.178 182.93 144.306C183.116 144.434 183.263 144.597 183.37 144.798C183.478 144.997 183.531 145.235 183.531 145.512V148.66H182.304V148.013H182.268C182.193 148.158 182.092 148.287 181.967 148.398C181.841 148.508 181.69 148.594 181.514 148.656C181.338 148.717 181.134 148.748 180.903 148.748ZM181.274 147.854C181.465 147.854 181.633 147.817 181.778 147.742C181.924 147.665 182.039 147.562 182.122 147.432C182.205 147.303 182.246 147.155 182.246 146.992V146.497C182.206 146.523 182.15 146.547 182.079 146.569C182.01 146.59 181.932 146.609 181.845 146.627C181.758 146.643 181.671 146.659 181.584 146.673C181.497 146.685 181.418 146.696 181.347 146.706C181.195 146.728 181.062 146.764 180.949 146.812C180.836 146.861 180.748 146.927 180.685 147.01C180.622 147.091 180.591 147.192 180.591 147.314C180.591 147.49 180.654 147.624 180.782 147.718C180.912 147.809 181.076 147.854 181.274 147.854ZM186.544 150.507C186.125 150.507 185.765 150.449 185.465 150.334C185.168 150.22 184.931 150.065 184.754 149.869C184.578 149.672 184.464 149.452 184.411 149.207L185.608 149.046C185.645 149.139 185.702 149.226 185.781 149.307C185.86 149.388 185.965 149.453 186.094 149.501C186.226 149.552 186.386 149.577 186.574 149.577C186.856 149.577 187.088 149.508 187.27 149.371C187.454 149.235 187.547 149.007 187.547 148.687V147.834H187.492C187.435 147.963 187.35 148.085 187.237 148.201C187.123 148.316 186.977 148.41 186.799 148.483C186.621 148.556 186.408 148.593 186.161 148.593C185.811 148.593 185.492 148.512 185.204 148.35C184.919 148.186 184.691 147.936 184.521 147.599C184.352 147.261 184.268 146.834 184.268 146.317C184.268 145.789 184.354 145.347 184.527 144.993C184.699 144.638 184.928 144.373 185.213 144.196C185.501 144.02 185.816 143.932 186.158 143.932C186.419 143.932 186.638 143.977 186.814 144.066C186.991 144.153 187.132 144.263 187.24 144.394C187.349 144.524 187.433 144.651 187.492 144.777H187.54V143.993H188.826V148.705C188.826 149.102 188.728 149.434 188.534 149.702C188.34 149.969 188.07 150.17 187.726 150.303C187.384 150.439 186.99 150.507 186.544 150.507ZM186.571 147.621C186.78 147.621 186.956 147.569 187.1 147.466C187.246 147.36 187.357 147.211 187.434 147.016C187.513 146.82 187.553 146.584 187.553 146.311C187.553 146.038 187.514 145.8 187.437 145.6C187.36 145.398 187.249 145.241 187.103 145.129C186.957 145.018 186.78 144.962 186.571 144.962C186.359 144.962 186.179 145.02 186.034 145.135C185.888 145.249 185.777 145.407 185.702 145.609C185.627 145.812 185.59 146.046 185.59 146.311C185.59 146.581 185.627 146.813 185.702 147.01C185.779 147.204 185.89 147.355 186.034 147.462C186.179 147.568 186.359 147.621 186.571 147.621ZM193.644 145.324L192.459 145.397C192.439 145.295 192.396 145.204 192.329 145.123C192.262 145.04 192.174 144.974 192.064 144.926C191.957 144.875 191.828 144.85 191.679 144.85C191.478 144.85 191.309 144.893 191.171 144.978C191.033 145.06 190.965 145.172 190.965 145.312C190.965 145.423 191.009 145.517 191.098 145.594C191.187 145.671 191.34 145.733 191.557 145.78L192.402 145.95C192.855 146.043 193.194 146.192 193.416 146.399C193.639 146.606 193.751 146.877 193.751 147.213C193.751 147.519 193.66 147.788 193.48 148.019C193.302 148.25 193.057 148.43 192.745 148.559C192.435 148.687 192.078 148.751 191.672 148.751C191.055 148.751 190.563 148.622 190.196 148.365C189.831 148.106 189.618 147.753 189.555 147.308L190.828 147.241C190.866 147.429 190.96 147.573 191.107 147.672C191.255 147.769 191.445 147.818 191.676 147.818C191.902 147.818 192.085 147.775 192.222 147.688C192.362 147.598 192.433 147.484 192.435 147.344C192.433 147.227 192.383 147.13 192.286 147.055C192.189 146.978 192.039 146.92 191.837 146.879L191.028 146.718C190.573 146.627 190.233 146.469 190.011 146.244C189.79 146.019 189.679 145.733 189.679 145.384C189.679 145.084 189.76 144.826 189.922 144.61C190.087 144.393 190.316 144.226 190.612 144.109C190.91 143.991 191.258 143.932 191.657 143.932C192.247 143.932 192.711 144.057 193.049 144.306C193.389 144.555 193.588 144.894 193.644 145.324ZM198.266 148.751C197.836 148.751 197.465 148.674 197.153 148.52C196.842 148.366 196.602 148.158 196.434 147.894C196.267 147.629 196.185 147.333 196.185 147.007C196.185 146.764 196.233 146.548 196.33 146.36C196.427 146.172 196.563 145.998 196.737 145.84C196.911 145.68 197.114 145.521 197.345 145.363L198.551 144.57C198.707 144.471 198.821 144.367 198.895 144.257C198.967 144.146 199.004 144.025 199.004 143.896C199.004 143.772 198.954 143.658 198.855 143.553C198.756 143.447 198.615 143.395 198.433 143.397C198.311 143.397 198.206 143.425 198.117 143.479C198.028 143.532 197.958 143.602 197.907 143.689C197.858 143.774 197.834 143.87 197.834 143.975C197.834 144.104 197.871 144.236 197.943 144.37C198.017 144.503 198.114 144.645 198.235 144.795C198.357 144.943 198.489 145.103 198.633 145.275L201.583 148.66H200.234L197.773 145.919C197.611 145.735 197.449 145.542 197.287 145.342C197.127 145.14 196.994 144.925 196.886 144.698C196.779 144.469 196.725 144.221 196.725 143.954C196.725 143.651 196.795 143.38 196.935 143.139C197.076 142.898 197.275 142.708 197.53 142.568C197.786 142.426 198.083 142.355 198.423 142.355C198.756 142.355 199.042 142.423 199.283 142.559C199.527 142.693 199.713 142.871 199.843 143.094C199.974 143.315 200.04 143.557 200.04 143.823C200.04 144.117 199.967 144.383 199.821 144.622C199.677 144.859 199.475 145.072 199.213 145.26L197.943 146.174C197.771 146.3 197.644 146.429 197.56 146.56C197.48 146.69 197.439 146.814 197.439 146.934C197.439 147.082 197.475 147.214 197.549 147.332C197.621 147.45 197.725 147.543 197.858 147.612C197.992 147.678 198.149 147.712 198.329 147.712C198.548 147.712 198.764 147.662 198.976 147.563C199.191 147.461 199.385 147.319 199.56 147.135C199.736 146.948 199.877 146.727 199.982 146.472C200.088 146.217 200.14 145.934 200.14 145.625H201.213C201.213 146.005 201.171 146.349 201.088 146.654C201.005 146.958 200.89 147.223 200.741 147.451C200.594 147.675 200.425 147.86 200.234 148.004C200.174 148.042 200.115 148.078 200.058 148.113C200.001 148.147 199.943 148.184 199.882 148.222C199.651 148.408 199.393 148.543 199.107 148.626C198.823 148.709 198.543 148.751 198.266 148.751ZM207.797 145.324L206.612 145.397C206.592 145.295 206.549 145.204 206.482 145.123C206.415 145.04 206.327 144.974 206.218 144.926C206.11 144.875 205.981 144.85 205.831 144.85C205.631 144.85 205.462 144.893 205.324 144.978C205.187 145.06 205.118 145.172 205.118 145.312C205.118 145.423 205.162 145.517 205.251 145.594C205.341 145.671 205.493 145.733 205.71 145.78L206.554 145.95C207.008 146.043 207.346 146.192 207.569 146.399C207.792 146.606 207.904 146.877 207.904 147.213C207.904 147.519 207.814 147.788 207.633 148.019C207.455 148.25 207.21 148.43 206.898 148.559C206.588 148.687 206.23 148.751 205.826 148.751C205.207 148.751 204.716 148.622 204.349 148.365C203.985 148.106 203.771 147.753 203.708 147.308L204.981 147.241C205.019 147.429 205.112 147.573 205.26 147.672C205.408 147.769 205.598 147.818 205.828 147.818C206.056 147.818 206.238 147.775 206.375 147.688C206.515 147.598 206.586 147.484 206.588 147.344C206.586 147.227 206.536 147.13 206.439 147.055C206.342 146.978 206.192 146.92 205.99 146.879L205.181 146.718C204.726 146.627 204.386 146.469 204.164 146.244C203.943 146.019 203.832 145.733 203.832 145.384C203.832 145.084 203.913 144.826 204.075 144.61C204.24 144.393 204.47 144.226 204.765 144.109C205.063 143.991 205.411 143.932 205.81 143.932C206.4 143.932 206.864 144.057 207.202 144.306C207.542 144.555 207.74 144.894 207.797 145.324ZM209.919 145.962V148.66H208.624V142.438H209.882V144.816H209.937C210.042 144.541 210.212 144.325 210.447 144.169C210.682 144.011 210.977 143.932 211.332 143.932C211.656 143.932 211.938 144.003 212.179 144.145C212.422 144.285 212.611 144.486 212.744 144.75C212.88 145.011 212.947 145.324 212.945 145.688V148.66H211.65V145.919C211.652 145.632 211.58 145.408 211.432 145.248C211.286 145.088 211.081 145.007 210.818 145.007C210.642 145.007 210.486 145.045 210.35 145.12C210.216 145.195 210.111 145.304 210.034 145.448C209.959 145.59 209.921 145.761 209.919 145.962ZM215.978 148.751C215.506 148.751 215.098 148.651 214.753 148.45C214.411 148.247 214.147 147.966 213.96 147.605C213.774 147.243 213.681 146.822 213.681 146.344C213.681 145.863 213.774 145.441 213.96 145.081C214.147 144.718 214.411 144.436 214.753 144.236C215.098 144.033 215.506 143.932 215.978 143.932C216.449 143.932 216.857 144.033 217.199 144.236C217.544 144.436 217.809 144.718 217.995 145.081C218.181 145.441 218.274 145.863 218.274 146.344C218.274 146.822 218.181 147.243 217.995 147.605C217.809 147.966 217.544 148.247 217.199 148.45C216.857 148.651 216.449 148.751 215.978 148.751ZM215.984 147.748C216.199 147.748 216.378 147.688 216.522 147.566C216.666 147.442 216.774 147.274 216.847 147.061C216.922 146.849 216.959 146.607 216.959 146.335C216.959 146.064 216.922 145.822 216.847 145.609C216.774 145.397 216.666 145.228 216.522 145.105C216.378 144.981 216.199 144.92 215.984 144.92C215.767 144.92 215.585 144.981 215.437 145.105C215.291 145.228 215.181 145.397 215.106 145.609C215.033 145.822 214.997 146.064 214.997 146.335C214.997 146.607 215.033 146.849 215.106 147.061C215.181 147.274 215.291 147.442 215.437 147.566C215.585 147.688 215.767 147.748 215.984 147.748ZM219.022 148.66V143.993H220.277V144.807H220.326C220.411 144.518 220.553 144.299 220.754 144.151C220.955 144.001 221.186 143.926 221.446 143.926C221.511 143.926 221.581 143.93 221.656 143.938C221.731 143.947 221.797 143.957 221.854 143.972V145.12C221.793 145.102 221.709 145.086 221.602 145.072C221.494 145.057 221.396 145.05 221.307 145.05C221.117 145.05 220.946 145.092 220.796 145.175C220.649 145.256 220.531 145.37 220.444 145.515C220.359 145.661 220.317 145.829 220.317 146.019V148.66H219.022ZM225.145 143.993V144.965H222.335V143.993H225.145ZM222.973 142.875H224.267V147.226C224.267 147.345 224.285 147.438 224.322 147.505C224.358 147.57 224.409 147.615 224.474 147.642C224.54 147.668 224.617 147.681 224.705 147.681C224.765 147.681 224.826 147.676 224.887 147.666C224.947 147.654 224.994 147.645 225.026 147.639L225.23 148.602C225.165 148.622 225.074 148.645 224.956 148.672C224.839 148.7 224.696 148.717 224.528 148.723C224.216 148.736 223.943 148.694 223.708 148.599C223.475 148.504 223.293 148.356 223.164 148.155C223.035 147.955 222.97 147.701 222.973 147.396V142.875ZM230.262 143.993V144.965H227.452V143.993H230.262ZM228.09 142.875H229.384V147.226C229.384 147.345 229.402 147.438 229.439 147.505C229.475 147.57 229.526 147.615 229.591 147.642C229.658 147.668 229.735 147.681 229.822 147.681C229.882 147.681 229.943 147.676 230.004 147.666C230.065 147.654 230.111 147.645 230.144 147.639L230.347 148.602C230.282 148.622 230.191 148.645 230.074 148.672C229.956 148.7 229.813 148.717 229.645 148.723C229.334 148.736 229.06 148.694 228.825 148.599C228.592 148.504 228.411 148.356 228.281 148.155C228.151 147.955 228.088 147.701 228.09 147.396V142.875ZM231.011 148.66V143.993H232.306V148.66H231.011ZM231.661 143.392C231.469 143.392 231.304 143.327 231.166 143.2C231.03 143.07 230.962 142.916 230.962 142.735C230.962 142.557 231.03 142.404 231.166 142.276C231.304 142.147 231.469 142.082 231.661 142.082C231.854 142.082 232.018 142.147 232.153 142.276C232.291 142.404 232.36 142.557 232.36 142.735C232.36 142.916 232.291 143.07 232.153 143.2C232.018 143.327 231.854 143.392 231.661 143.392ZM233.248 148.66V143.993H234.481V144.816H234.536C234.633 144.543 234.795 144.327 235.023 144.169C235.249 144.011 235.52 143.932 235.836 143.932C236.157 143.932 236.429 144.012 236.654 144.172C236.879 144.33 237.029 144.545 237.104 144.816H237.152C237.247 144.549 237.42 144.335 237.669 144.175C237.92 144.013 238.216 143.932 238.559 143.932C238.994 143.932 239.348 144.071 239.619 144.349C239.893 144.624 240.029 145.015 240.029 145.521V148.66H238.738V145.776C238.738 145.517 238.669 145.322 238.531 145.193C238.394 145.064 238.222 144.998 238.015 144.998C237.78 144.998 237.597 145.074 237.465 145.224C237.334 145.371 237.268 145.567 237.268 145.81V148.66H236.013V145.749C236.013 145.52 235.947 145.338 235.816 145.202C235.686 145.066 235.514 144.998 235.302 144.998C235.158 144.998 235.028 145.035 234.913 145.108C234.8 145.179 234.709 145.279 234.642 145.409C234.575 145.536 234.542 145.686 234.542 145.858V148.66H233.248ZM243.084 148.751C242.604 148.751 242.191 148.654 241.845 148.459C241.5 148.263 241.235 147.985 241.049 147.627C240.862 147.266 240.769 146.84 240.769 146.348C240.769 145.867 240.862 145.446 241.049 145.083C241.235 144.721 241.497 144.439 241.835 144.236C242.176 144.033 242.575 143.932 243.033 143.932C243.341 143.932 243.627 143.982 243.892 144.081C244.16 144.178 244.392 144.325 244.591 144.521C244.792 144.718 244.947 144.965 245.059 145.263C245.17 145.559 245.226 145.905 245.226 146.302V146.658H241.286V145.856H244.008C244.008 145.669 243.967 145.504 243.886 145.36C243.805 145.217 243.693 145.104 243.549 145.023C243.407 144.94 243.242 144.898 243.054 144.898C242.857 144.898 242.683 144.944 242.531 145.035C242.381 145.124 242.264 145.245 242.179 145.397C242.094 145.546 242.05 145.714 242.048 145.898V146.66C242.048 146.891 242.091 147.091 242.176 147.259C242.263 147.427 242.386 147.557 242.543 147.648C242.702 147.739 242.889 147.785 243.105 147.785C243.249 147.785 243.381 147.765 243.501 147.724C243.62 147.683 243.722 147.623 243.807 147.542C243.892 147.461 243.957 147.361 244.002 147.244L245.199 147.323C245.138 147.611 245.013 147.862 244.825 148.076C244.639 148.289 244.398 148.455 244.102 148.575C243.809 148.692 243.469 148.751 243.084 148.751ZM249.971 148.751C249.499 148.751 249.091 148.651 248.747 148.45C248.404 148.247 248.14 147.966 247.954 147.605C247.768 147.243 247.675 146.822 247.675 146.344C247.675 145.863 247.768 145.441 247.954 145.081C248.14 144.718 248.404 144.436 248.747 144.236C249.091 144.033 249.499 143.932 249.971 143.932C250.443 143.932 250.85 144.033 251.193 144.236C251.537 144.436 251.802 144.718 251.989 145.081C252.175 145.441 252.268 145.863 252.268 146.344C252.268 146.822 252.175 147.243 251.989 147.605C251.802 147.966 251.537 148.247 251.193 148.45C250.85 148.651 250.443 148.751 249.971 148.751ZM249.977 147.748C250.192 147.748 250.371 147.688 250.515 147.566C250.659 147.442 250.767 147.274 250.84 147.061C250.915 146.849 250.952 146.607 250.952 146.335C250.952 146.064 250.915 145.822 250.84 145.609C250.767 145.397 250.659 145.228 250.515 145.105C250.371 144.981 250.192 144.92 249.977 144.92C249.761 144.92 249.578 144.981 249.431 145.105C249.285 145.228 249.174 145.397 249.099 145.609C249.026 145.822 248.99 146.064 248.99 146.335C248.99 146.607 249.026 146.849 249.099 147.061C249.174 147.274 249.285 147.442 249.431 147.566C249.578 147.688 249.761 147.748 249.977 147.748ZM256.008 146.673V143.993H257.302V148.66H256.06V147.812H256.011C255.906 148.085 255.731 148.305 255.486 148.471C255.243 148.637 254.946 148.721 254.595 148.721C254.284 148.721 254.009 148.649 253.772 148.508C253.535 148.366 253.35 148.164 253.216 147.903C253.084 147.642 253.018 147.329 253.015 146.965V143.993H254.31V146.734C254.312 147.009 254.386 147.227 254.532 147.386C254.677 147.547 254.873 147.627 255.118 147.627C255.274 147.627 255.42 147.591 255.555 147.52C255.691 147.447 255.801 147.34 255.884 147.198C255.969 147.057 256.01 146.881 256.008 146.673ZM260.726 143.993V144.965H257.916V143.993H260.726ZM258.554 142.875H259.848V147.226C259.848 147.345 259.866 147.438 259.903 147.505C259.939 147.57 259.99 147.615 260.054 147.642C260.121 147.668 260.198 147.681 260.285 147.681C260.346 147.681 260.407 147.676 260.468 147.666C260.528 147.654 260.575 147.645 260.607 147.639L260.811 148.602C260.746 148.622 260.655 148.645 260.537 148.672C260.42 148.7 260.277 148.717 260.109 148.723C259.797 148.736 259.523 148.694 259.289 148.599C259.056 148.504 258.874 148.356 258.745 148.155C258.616 147.955 258.551 147.701 258.554 147.396V142.875ZM265.299 145.324L264.114 145.397C264.094 145.295 264.05 145.204 263.984 145.123C263.917 145.04 263.829 144.974 263.719 144.926C263.612 144.875 263.483 144.85 263.333 144.85C263.133 144.85 262.964 144.893 262.826 144.978C262.689 145.06 262.62 145.172 262.62 145.312C262.62 145.423 262.664 145.517 262.753 145.594C262.843 145.671 262.995 145.733 263.212 145.78L264.056 145.95C264.51 146.043 264.848 146.192 265.071 146.399C265.294 146.606 265.405 146.877 265.405 147.213C265.405 147.519 265.316 147.788 265.135 148.019C264.957 148.25 264.712 148.43 264.4 148.559C264.09 148.687 263.732 148.751 263.327 148.751C262.709 148.751 262.217 148.622 261.851 148.365C261.486 148.106 261.273 147.753 261.209 147.308L262.483 147.241C262.521 147.429 262.614 147.573 262.762 147.672C262.91 147.769 263.1 147.818 263.33 147.818C263.557 147.818 263.74 147.775 263.877 147.688C264.017 147.598 264.088 147.484 264.09 147.344C264.088 147.227 264.038 147.13 263.941 147.055C263.844 146.978 263.694 146.92 263.492 146.879L262.683 146.718C262.228 146.627 261.888 146.469 261.666 146.244C261.445 146.019 261.334 145.733 261.334 145.384C261.334 145.084 261.415 144.826 261.577 144.61C261.742 144.393 261.971 144.226 262.267 144.109C262.565 143.991 262.913 143.932 263.312 143.932C263.902 143.932 264.365 144.057 264.704 144.306C265.044 144.555 265.242 144.894 265.299 145.324Z" fill="black" fill-opacity="0.8"/>
<g filter="url(#filter1_d_10194_13340)">
<path d="M279.788 213.359H160.212C150.706 213.359 143 221.065 143 230.571V239.177C143 248.682 150.706 256.388 160.212 256.388H279.788C289.294 256.388 297 248.682 297 239.177V230.571C297 221.065 289.294 213.359 279.788 213.359Z" fill="white"/>
</g>
<path d="M161.427 231.541V225.318H162.743V230.456H165.41V231.541H161.427ZM166.163 231.541V226.874H167.457V231.541H166.163ZM166.813 226.272C166.621 226.272 166.456 226.208 166.318 226.081C166.182 225.951 166.114 225.797 166.114 225.616C166.114 225.438 166.182 225.285 166.318 225.157C166.456 225.028 166.621 224.963 166.813 224.963C167.006 224.963 167.17 225.028 167.305 225.157C167.443 225.285 167.512 225.438 167.512 225.616C167.512 225.797 167.443 225.951 167.305 226.081C167.17 226.208 167.006 226.272 166.813 226.272ZM172.283 228.204L171.098 228.278C171.078 228.176 171.034 228.085 170.967 228.004C170.9 227.921 170.812 227.855 170.703 227.807C170.596 227.756 170.467 227.731 170.317 227.731C170.117 227.731 169.947 227.773 169.81 227.858C169.672 227.941 169.603 228.053 169.603 228.193C169.603 228.304 169.648 228.398 169.737 228.475C169.826 228.552 169.979 228.614 170.196 228.66L171.04 228.831C171.494 228.924 171.832 229.073 172.055 229.28C172.278 229.487 172.389 229.758 172.389 230.094C172.389 230.4 172.299 230.668 172.119 230.899C171.941 231.13 171.695 231.311 171.384 231.44C171.074 231.568 170.716 231.631 170.311 231.631C169.693 231.631 169.201 231.503 168.834 231.246C168.47 230.987 168.256 230.634 168.193 230.189L169.466 230.122C169.505 230.31 169.598 230.454 169.746 230.553C169.894 230.65 170.083 230.699 170.314 230.699C170.541 230.699 170.723 230.656 170.861 230.568C171.001 230.479 171.072 230.365 171.074 230.225C171.072 230.107 171.022 230.011 170.925 229.936C170.828 229.859 170.678 229.801 170.475 229.76L169.667 229.599C169.211 229.508 168.872 229.35 168.649 229.125C168.428 228.9 168.318 228.614 168.318 228.265C168.318 227.965 168.399 227.707 168.561 227.491C168.725 227.274 168.955 227.107 169.251 226.989C169.548 226.872 169.897 226.813 170.296 226.813C170.885 226.813 171.349 226.938 171.687 227.187C172.028 227.436 172.226 227.775 172.283 228.204ZM175.592 226.874V227.846H172.782V226.874H175.592ZM173.42 225.756H174.714V230.106C174.714 230.226 174.732 230.319 174.769 230.386C174.805 230.451 174.856 230.496 174.921 230.523C174.988 230.549 175.065 230.562 175.152 230.562C175.212 230.562 175.273 230.557 175.334 230.547C175.395 230.535 175.441 230.526 175.474 230.52L175.677 231.483C175.613 231.503 175.521 231.526 175.404 231.553C175.286 231.581 175.144 231.598 174.976 231.604C174.664 231.616 174.39 231.575 174.155 231.48C173.922 231.384 173.741 231.237 173.611 231.036C173.482 230.836 173.418 230.582 173.42 230.276V225.756ZM180.336 231.631C179.864 231.631 179.456 231.531 179.111 231.331C178.769 231.128 178.505 230.847 178.318 230.486C178.132 230.124 178.039 229.703 178.039 229.225C178.039 228.743 178.132 228.322 178.318 227.962C178.505 227.599 178.769 227.317 179.111 227.117C179.456 226.914 179.864 226.813 180.336 226.813C180.808 226.813 181.215 226.914 181.557 227.117C181.901 227.317 182.167 227.599 182.353 227.962C182.54 228.322 182.633 228.743 182.633 229.225C182.633 229.703 182.54 230.124 182.353 230.486C182.167 230.847 181.901 231.128 181.557 231.331C181.215 231.531 180.808 231.631 180.336 231.631ZM180.342 230.629C180.557 230.629 180.736 230.568 180.88 230.447C181.023 230.323 181.132 230.155 181.205 229.942C181.28 229.73 181.317 229.488 181.317 229.216C181.317 228.945 181.28 228.703 181.205 228.49C181.132 228.278 181.023 228.109 180.88 227.986C180.736 227.862 180.557 227.801 180.342 227.801C180.125 227.801 179.943 227.862 179.795 227.986C179.649 228.109 179.539 228.278 179.464 228.49C179.391 228.703 179.354 228.945 179.354 229.216C179.354 229.488 179.391 229.73 179.464 229.942C179.539 230.155 179.649 230.323 179.795 230.447C179.943 230.568 180.125 230.629 180.342 230.629ZM185.89 226.874V227.846H183.009V226.874H185.89ZM183.669 231.541V226.537C183.669 226.198 183.735 225.918 183.866 225.695C184 225.472 184.182 225.305 184.413 225.194C184.644 225.082 184.906 225.027 185.2 225.027C185.399 225.027 185.58 225.042 185.744 225.072C185.91 225.102 186.034 225.13 186.115 225.154L185.884 226.126C185.833 226.11 185.77 226.095 185.695 226.081C185.622 226.067 185.547 226.06 185.47 226.06C185.28 226.06 185.147 226.104 185.072 226.193C184.997 226.28 184.96 226.403 184.96 226.561V231.541H183.669ZM188.472 231.541V226.874H189.727V227.688H189.776C189.861 227.399 190.004 227.18 190.204 227.032C190.405 226.882 190.635 226.807 190.897 226.807C190.962 226.807 191.031 226.811 191.106 226.819C191.181 226.827 191.247 226.838 191.304 226.853V228.001C191.243 227.983 191.159 227.966 191.052 227.953C190.944 227.938 190.846 227.931 190.757 227.931C190.567 227.931 190.396 227.973 190.247 228.056C190.099 228.136 189.981 228.25 189.894 228.396C189.809 228.542 189.767 228.71 189.767 228.9V231.541H188.472ZM193.788 231.631C193.308 231.631 192.895 231.535 192.549 231.34C192.205 231.144 191.939 230.866 191.753 230.507C191.567 230.147 191.473 229.721 191.473 229.228C191.473 228.748 191.567 228.327 191.753 227.964C191.939 227.602 192.202 227.319 192.54 227.117C192.88 226.914 193.279 226.813 193.737 226.813C194.045 226.813 194.331 226.863 194.597 226.962C194.864 227.059 195.097 227.206 195.295 227.402C195.496 227.599 195.652 227.846 195.763 228.144C195.875 228.44 195.931 228.786 195.931 229.183V229.539H191.99V228.736H194.712C194.712 228.55 194.672 228.385 194.591 228.241C194.509 228.097 194.397 227.985 194.253 227.904C194.112 227.821 193.946 227.779 193.758 227.779C193.562 227.779 193.387 227.825 193.236 227.916C193.086 228.005 192.968 228.126 192.883 228.278C192.798 228.427 192.754 228.595 192.752 228.779V229.541C192.752 229.772 192.795 229.972 192.88 230.14C192.967 230.308 193.09 230.438 193.248 230.529C193.406 230.62 193.593 230.666 193.81 230.666C193.954 230.666 194.085 230.645 194.205 230.605C194.324 230.564 194.426 230.504 194.512 230.422C194.597 230.342 194.661 230.242 194.706 230.125L195.903 230.204C195.842 230.491 195.718 230.743 195.529 230.957C195.343 231.17 195.102 231.336 194.806 231.455C194.513 231.573 194.173 231.631 193.788 231.631ZM198.789 231.631C198.312 231.631 197.9 231.53 197.556 231.328C197.213 231.123 196.95 230.839 196.766 230.477C196.583 230.114 196.493 229.697 196.493 229.225C196.493 228.748 196.584 228.328 196.769 227.967C196.956 227.605 197.22 227.323 197.562 227.12C197.904 226.915 198.312 226.813 198.783 226.813C199.19 226.813 199.547 226.887 199.853 227.035C200.159 227.183 200.401 227.391 200.579 227.658C200.757 227.925 200.855 228.239 200.873 228.6H199.652C199.618 228.366 199.527 228.179 199.379 228.038C199.233 227.894 199.042 227.822 198.805 227.822C198.604 227.822 198.429 227.877 198.279 227.986C198.131 228.093 198.015 228.25 197.933 228.457C197.85 228.663 197.808 228.913 197.808 229.207C197.808 229.505 197.849 229.758 197.93 229.967C198.013 230.175 198.129 230.334 198.279 230.444C198.429 230.553 198.604 230.608 198.805 230.608C198.952 230.608 199.085 230.577 199.202 230.517C199.322 230.456 199.42 230.368 199.497 230.252C199.576 230.135 199.628 229.994 199.652 229.83H200.873C200.853 230.187 200.756 230.5 200.582 230.772C200.41 231.041 200.172 231.252 199.868 231.404C199.564 231.555 199.205 231.631 198.789 231.631ZM203.717 231.631C203.245 231.631 202.836 231.531 202.492 231.331C202.15 231.128 201.886 230.847 201.699 230.486C201.513 230.124 201.42 229.703 201.42 229.225C201.42 228.743 201.513 228.322 201.699 227.962C201.886 227.599 202.15 227.317 202.492 227.117C202.836 226.914 203.245 226.813 203.717 226.813C204.189 226.813 204.596 226.914 204.938 227.117C205.282 227.317 205.547 227.599 205.734 227.962C205.92 228.322 206.014 228.743 206.014 229.225C206.014 229.703 205.92 230.124 205.734 230.486C205.547 230.847 205.282 231.128 204.938 231.331C204.596 231.531 204.189 231.631 203.717 231.631ZM203.722 230.629C203.937 230.629 204.117 230.568 204.26 230.447C204.404 230.323 204.513 230.155 204.586 229.942C204.66 229.73 204.698 229.488 204.698 229.216C204.698 228.945 204.66 228.703 204.586 228.49C204.513 228.278 204.404 228.109 204.26 227.986C204.117 227.862 203.937 227.801 203.722 227.801C203.506 227.801 203.324 227.862 203.176 227.986C203.03 228.109 202.92 228.278 202.844 228.49C202.772 228.703 202.735 228.945 202.735 229.216C202.735 229.488 202.772 229.73 202.844 229.942C202.92 230.155 203.03 230.323 203.176 230.447C203.324 230.568 203.506 230.629 203.722 230.629ZM206.761 231.541V226.874H207.994V227.697H208.049C208.146 227.424 208.308 227.208 208.536 227.05C208.762 226.892 209.033 226.813 209.349 226.813C209.67 226.813 209.942 226.893 210.167 227.053C210.392 227.211 210.541 227.426 210.617 227.697H210.665C210.761 227.43 210.933 227.216 211.181 227.056C211.433 226.894 211.729 226.813 212.072 226.813C212.507 226.813 212.861 226.952 213.132 227.23C213.406 227.505 213.542 227.896 213.542 228.402V231.541H212.251V228.657C212.251 228.398 212.182 228.203 212.044 228.074C211.907 227.944 211.735 227.879 211.528 227.879C211.293 227.879 211.11 227.955 210.978 228.104C210.847 228.252 210.78 228.448 210.78 228.69V231.541H209.526V228.63C209.526 228.401 209.46 228.219 209.329 228.083C209.199 227.947 209.027 227.879 208.815 227.879C208.671 227.879 208.541 227.916 208.426 227.989C208.313 228.06 208.222 228.16 208.155 228.289C208.088 228.417 208.055 228.567 208.055 228.739V231.541H206.761ZM214.47 231.541V226.874H215.704V227.697H215.759C215.856 227.424 216.018 227.208 216.245 227.05C216.472 226.892 216.743 226.813 217.059 226.813C217.379 226.813 217.651 226.893 217.876 227.053C218.101 227.211 218.251 227.426 218.326 227.697H218.374C218.47 227.43 218.642 227.216 218.891 227.056C219.142 226.894 219.439 226.813 219.781 226.813C220.217 226.813 220.57 226.952 220.842 227.23C221.115 227.505 221.252 227.896 221.252 228.402V231.541H219.96V228.657C219.96 228.398 219.891 228.203 219.754 228.074C219.616 227.944 219.444 227.879 219.237 227.879C219.003 227.879 218.819 227.955 218.688 228.104C218.556 228.252 218.49 228.448 218.49 228.69V231.541H217.235V228.63C217.235 228.401 217.17 228.219 217.038 228.083C216.908 227.947 216.737 227.879 216.524 227.879C216.38 227.879 216.251 227.916 216.136 227.989C216.022 228.06 215.932 228.16 215.865 228.289C215.798 228.417 215.765 228.567 215.765 228.739V231.541H214.47ZM224.307 231.631C223.826 231.631 223.414 231.535 223.067 231.34C222.723 231.144 222.458 230.866 222.271 230.507C222.085 230.147 221.992 229.721 221.992 229.228C221.992 228.748 222.085 228.327 222.271 227.964C222.458 227.602 222.72 227.319 223.058 227.117C223.398 226.914 223.798 226.813 224.255 226.813C224.563 226.813 224.849 226.863 225.115 226.962C225.382 227.059 225.615 227.206 225.813 227.402C226.014 227.599 226.17 227.846 226.281 228.144C226.393 228.44 226.449 228.786 226.449 229.183V229.539H222.508V228.736H225.23C225.23 228.55 225.19 228.385 225.109 228.241C225.028 228.097 224.915 227.985 224.771 227.904C224.63 227.821 224.465 227.779 224.276 227.779C224.08 227.779 223.906 227.825 223.754 227.916C223.604 228.005 223.486 228.126 223.401 228.278C223.316 228.427 223.272 228.595 223.271 228.779V229.541C223.271 229.772 223.313 229.972 223.398 230.14C223.485 230.308 223.608 230.438 223.766 230.529C223.924 230.62 224.111 230.666 224.328 230.666C224.472 230.666 224.603 230.645 224.723 230.605C224.842 230.564 224.945 230.504 225.03 230.422C225.115 230.342 225.18 230.242 225.224 230.125L226.421 230.204C226.36 230.491 226.236 230.743 226.048 230.957C225.861 231.17 225.62 231.336 225.325 231.455C225.031 231.573 224.692 231.631 224.307 231.631ZM228.493 228.843V231.541H227.199V226.874H228.433V227.697H228.487C228.591 227.426 228.764 227.211 229.007 227.053C229.25 226.893 229.545 226.813 229.891 226.813C230.215 226.813 230.498 226.884 230.739 227.026C230.979 227.168 231.167 227.37 231.301 227.633C231.434 227.895 231.501 228.207 231.501 228.569V231.541H230.207V228.8C230.209 228.515 230.136 228.292 229.988 228.132C229.84 227.97 229.637 227.888 229.377 227.888C229.204 227.888 229.05 227.926 228.916 228.001C228.784 228.076 228.681 228.185 228.606 228.329C228.533 228.471 228.496 228.642 228.493 228.843ZM234.147 231.616C233.793 231.616 233.471 231.526 233.184 231.343C232.898 231.159 232.671 230.888 232.503 230.532C232.337 230.173 232.254 229.734 232.254 229.213C232.254 228.679 232.34 228.234 232.512 227.879C232.685 227.523 232.914 227.257 233.199 227.08C233.487 226.902 233.802 226.813 234.144 226.813C234.405 226.813 234.623 226.857 234.797 226.947C234.973 227.034 235.115 227.143 235.222 227.275C235.332 227.404 235.415 227.532 235.472 227.658H235.511V225.318H236.802V231.541H235.526V230.793H235.472C235.411 230.923 235.325 231.051 235.213 231.179C235.104 231.305 234.961 231.409 234.785 231.492C234.611 231.575 234.398 231.616 234.147 231.616ZM234.557 230.587C234.766 230.587 234.942 230.53 235.086 230.417C235.232 230.301 235.343 230.14 235.42 229.933C235.499 229.727 235.538 229.484 235.538 229.207C235.538 228.929 235.5 228.689 235.423 228.484C235.346 228.28 235.235 228.121 235.089 228.01C234.943 227.899 234.766 227.843 234.557 227.843C234.344 227.843 234.165 227.901 234.019 228.016C233.873 228.132 233.763 228.292 233.688 228.496C233.613 228.701 233.575 228.938 233.575 229.207C233.575 229.479 233.613 229.719 233.688 229.927C233.765 230.134 233.875 230.296 234.019 230.413C234.165 230.529 234.344 230.587 234.557 230.587ZM239.899 231.631C239.419 231.631 239.006 231.535 238.659 231.34C238.315 231.144 238.05 230.866 237.863 230.507C237.677 230.147 237.584 229.721 237.584 229.228C237.584 228.748 237.677 228.327 237.863 227.964C238.05 227.602 238.312 227.319 238.65 227.117C238.991 226.914 239.39 226.813 239.847 226.813C240.155 226.813 240.442 226.863 240.707 226.962C240.974 227.059 241.208 227.206 241.406 227.402C241.606 227.599 241.763 227.846 241.874 228.144C241.985 228.44 242.041 228.786 242.041 229.183V229.539H238.1V228.736H240.823C240.823 228.55 240.782 228.385 240.701 228.241C240.62 228.097 240.508 227.985 240.364 227.904C240.222 227.821 240.057 227.779 239.869 227.779C239.672 227.779 239.498 227.825 239.346 227.916C239.196 228.005 239.079 228.126 238.993 228.278C238.908 228.427 238.865 228.595 238.863 228.779V229.541C238.863 229.772 238.906 229.972 238.991 230.14C239.078 230.308 239.2 230.438 239.358 230.529C239.516 230.62 239.703 230.666 239.92 230.666C240.064 230.666 240.196 230.645 240.315 230.605C240.435 230.564 240.537 230.504 240.622 230.422C240.707 230.342 240.772 230.242 240.817 230.125L242.013 230.204C241.953 230.491 241.828 230.743 241.64 230.957C241.454 231.17 241.212 231.336 240.917 231.455C240.623 231.573 240.284 231.631 239.899 231.631ZM244.511 231.616C244.157 231.616 243.836 231.526 243.548 231.343C243.263 231.159 243.035 230.888 242.867 230.532C242.701 230.173 242.618 229.734 242.618 229.213C242.618 228.679 242.704 228.234 242.876 227.879C243.049 227.523 243.277 227.257 243.563 227.08C243.851 226.902 244.166 226.813 244.508 226.813C244.769 226.813 244.987 226.857 245.161 226.947C245.337 227.034 245.479 227.143 245.586 227.275C245.696 227.404 245.779 227.532 245.836 227.658H245.875V225.318H247.167V231.541H245.89V230.793H245.836C245.775 230.923 245.689 231.051 245.577 231.179C245.468 231.305 245.325 231.409 245.149 231.492C244.975 231.575 244.762 231.616 244.511 231.616ZM244.921 230.587C245.13 230.587 245.306 230.53 245.45 230.417C245.596 230.301 245.707 230.14 245.784 229.933C245.863 229.727 245.902 229.484 245.902 229.207C245.902 228.929 245.864 228.689 245.787 228.484C245.71 228.28 245.599 228.121 245.453 228.01C245.307 227.899 245.13 227.843 244.921 227.843C244.708 227.843 244.529 227.901 244.383 228.016C244.237 228.132 244.127 228.292 244.052 228.496C243.977 228.701 243.94 228.938 243.94 229.207C243.94 229.479 243.977 229.719 244.052 229.927C244.129 230.134 244.239 230.296 244.383 230.413C244.529 230.529 244.708 230.587 244.921 230.587ZM252.125 233.388C251.706 233.388 251.346 233.33 251.046 233.215C250.749 233.101 250.512 232.946 250.335 232.75C250.159 232.553 250.045 232.332 249.992 232.088L251.189 231.927C251.226 232.02 251.283 232.107 251.362 232.188C251.441 232.269 251.545 232.334 251.675 232.382C251.807 232.433 251.967 232.458 252.155 232.458C252.437 232.458 252.669 232.389 252.851 232.252C253.035 232.116 253.128 231.888 253.128 231.568V230.714H253.073C253.016 230.844 252.931 230.966 252.817 231.082C252.704 231.197 252.558 231.291 252.38 231.364C252.202 231.437 251.989 231.474 251.742 231.474C251.392 231.474 251.073 231.392 250.785 231.23C250.499 231.067 250.272 230.816 250.102 230.48C249.933 230.142 249.849 229.714 249.849 229.198C249.849 228.67 249.935 228.228 250.108 227.873C250.28 227.519 250.509 227.254 250.794 227.077C251.082 226.901 251.397 226.813 251.739 226.813C252 226.813 252.219 226.857 252.395 226.947C252.572 227.034 252.713 227.143 252.821 227.275C252.93 227.404 253.014 227.532 253.073 227.658H253.121V226.874H254.407V231.586C254.407 231.983 254.309 232.315 254.115 232.583C253.921 232.85 253.651 233.051 253.307 233.184C252.965 233.32 252.57 233.388 252.125 233.388ZM252.152 230.502C252.361 230.502 252.537 230.45 252.681 230.346C252.827 230.241 252.938 230.091 253.015 229.897C253.094 229.701 253.134 229.465 253.134 229.192C253.134 228.919 253.095 228.681 253.018 228.481C252.941 228.279 252.83 228.121 252.684 228.01C252.538 227.899 252.361 227.843 252.152 227.843C251.939 227.843 251.76 227.901 251.614 228.016C251.468 228.13 251.358 228.288 251.283 228.49C251.208 228.693 251.171 228.927 251.171 229.192C251.171 229.462 251.208 229.694 251.283 229.891C251.36 230.085 251.471 230.236 251.614 230.343C251.76 230.449 251.939 230.502 252.152 230.502ZM256.673 231.629C256.376 231.629 256.11 231.577 255.877 231.474C255.644 231.368 255.46 231.213 255.324 231.009C255.191 230.802 255.124 230.545 255.124 230.237C255.124 229.978 255.171 229.76 255.267 229.584C255.362 229.408 255.491 229.266 255.655 229.158C255.819 229.051 256.005 228.97 256.215 228.916C256.425 228.861 256.646 228.823 256.877 228.8C257.148 228.772 257.367 228.746 257.533 228.721C257.699 228.695 257.819 228.656 257.895 228.605C257.97 228.555 258.007 228.48 258.007 228.381V228.363C258.007 228.17 257.946 228.021 257.825 227.916C257.705 227.811 257.535 227.758 257.314 227.758C257.081 227.758 256.896 227.81 256.758 227.913C256.62 228.014 256.53 228.142 256.485 228.296L255.288 228.198C255.348 227.915 255.468 227.67 255.646 227.463C255.824 227.255 256.054 227.095 256.336 226.983C256.619 226.87 256.948 226.813 257.32 226.813C257.58 226.813 257.828 226.843 258.065 226.904C258.304 226.965 258.515 227.059 258.699 227.187C258.886 227.315 259.033 227.478 259.14 227.679C259.248 227.878 259.301 228.116 259.301 228.393V231.541H258.074V230.893H258.037C257.963 231.039 257.862 231.168 257.736 231.279C257.611 231.389 257.46 231.475 257.284 231.537C257.108 231.598 256.904 231.629 256.673 231.629ZM257.044 230.735C257.234 230.735 257.402 230.698 257.548 230.623C257.694 230.546 257.809 230.443 257.891 230.313C257.974 230.183 258.016 230.036 258.016 229.873V229.378C257.975 229.404 257.92 229.428 257.849 229.45C257.78 229.471 257.702 229.49 257.615 229.508C257.528 229.524 257.441 229.54 257.354 229.553C257.266 229.566 257.188 229.577 257.117 229.587C256.965 229.609 256.832 229.645 256.719 229.693C256.605 229.742 256.517 229.807 256.454 229.891C256.392 229.972 256.36 230.073 256.36 230.195C256.36 230.371 256.424 230.505 256.551 230.599C256.681 230.69 256.846 230.735 257.044 230.735ZM260.211 231.541V226.874H261.445V227.697H261.499C261.597 227.424 261.759 227.208 261.985 227.05C262.213 226.892 262.484 226.813 262.8 226.813C263.12 226.813 263.392 226.893 263.617 227.053C263.842 227.211 263.992 227.426 264.066 227.697H264.115C264.21 227.43 264.382 227.216 264.632 227.056C264.883 226.894 265.18 226.813 265.522 226.813C265.957 226.813 266.311 226.952 266.582 227.23C266.856 227.505 266.992 227.896 266.992 228.402V231.541H265.701V228.657C265.701 228.398 265.632 228.203 265.495 228.074C265.357 227.944 265.185 227.879 264.978 227.879C264.743 227.879 264.56 227.955 264.428 228.104C264.296 228.252 264.231 228.448 264.231 228.69V231.541H262.976V228.63C262.976 228.401 262.91 228.219 262.778 228.083C262.649 227.947 262.478 227.879 262.265 227.879C262.121 227.879 261.992 227.916 261.876 227.989C261.763 228.06 261.672 228.16 261.606 228.289C261.539 228.417 261.506 228.567 261.506 228.739V231.541H260.211ZM270.047 231.631C269.567 231.631 269.154 231.535 268.808 231.34C268.463 231.144 268.198 230.866 268.012 230.507C267.826 230.147 267.732 229.721 267.732 229.228C267.732 228.748 267.826 228.327 268.012 227.964C268.198 227.602 268.46 227.319 268.799 227.117C269.139 226.914 269.538 226.813 269.996 226.813C270.303 226.813 270.59 226.863 270.856 226.962C271.123 227.059 271.356 227.206 271.554 227.402C271.755 227.599 271.911 227.846 272.022 228.144C272.134 228.44 272.189 228.786 272.189 229.183V229.539H268.249V228.736H270.971C270.971 228.55 270.931 228.385 270.849 228.241C270.769 228.097 270.656 227.985 270.512 227.904C270.37 227.821 270.206 227.779 270.017 227.779C269.821 227.779 269.646 227.825 269.494 227.916C269.345 228.005 269.227 228.126 269.142 228.278C269.057 228.427 269.013 228.595 269.012 228.779V229.541C269.012 229.772 269.054 229.972 269.139 230.14C269.226 230.308 269.348 230.438 269.507 230.529C269.664 230.62 269.852 230.666 270.069 230.666C270.213 230.666 270.344 230.645 270.464 230.605C270.583 230.564 270.685 230.504 270.77 230.422C270.856 230.342 270.92 230.242 270.965 230.125L272.162 230.204C272.101 230.491 271.977 230.743 271.788 230.957C271.602 231.17 271.361 231.336 271.065 231.455C270.771 231.573 270.432 231.631 270.047 231.631ZM276.823 228.204L275.638 228.278C275.617 228.176 275.574 228.085 275.507 228.004C275.441 227.921 275.352 227.855 275.243 227.807C275.135 227.756 275.007 227.731 274.857 227.731C274.657 227.731 274.487 227.773 274.35 227.858C274.212 227.941 274.143 228.053 274.143 228.193C274.143 228.304 274.188 228.398 274.276 228.475C274.366 228.552 274.519 228.614 274.735 228.66L275.58 228.831C276.034 228.924 276.372 229.073 276.595 229.28C276.817 229.487 276.929 229.758 276.929 230.094C276.929 230.4 276.839 230.668 276.659 230.899C276.481 231.13 276.235 231.311 275.923 231.44C275.613 231.568 275.256 231.631 274.851 231.631C274.233 231.631 273.741 231.503 273.374 231.246C273.01 230.987 272.796 230.634 272.733 230.189L274.006 230.122C274.045 230.31 274.138 230.454 274.286 230.553C274.434 230.65 274.623 230.699 274.854 230.699C275.081 230.699 275.263 230.656 275.401 230.568C275.54 230.479 275.612 230.365 275.613 230.225C275.612 230.107 275.562 230.011 275.465 229.936C275.367 229.859 275.218 229.801 275.015 229.76L274.207 229.599C273.751 229.508 273.412 229.35 273.189 229.125C272.968 228.9 272.858 228.614 272.858 228.265C272.858 227.965 272.939 227.707 273.101 227.491C273.265 227.274 273.495 227.107 273.79 226.989C274.088 226.872 274.437 226.813 274.836 226.813C275.425 226.813 275.889 226.938 276.227 227.187C276.567 227.436 276.766 227.775 276.823 228.204ZM210.205 246.124V239.707H211.481V240.491H211.539C211.596 240.366 211.678 240.238 211.786 240.108C211.895 239.977 212.036 239.867 212.211 239.78C212.387 239.691 212.606 239.646 212.867 239.646C213.207 239.646 213.521 239.736 213.809 239.914C214.097 240.09 214.326 240.356 214.498 240.713C214.67 241.067 214.756 241.512 214.756 242.047C214.756 242.567 214.673 243.007 214.505 243.365C214.338 243.721 214.112 243.992 213.824 244.177C213.538 244.359 213.219 244.45 212.864 244.45C212.613 244.45 212.399 244.408 212.223 244.325C212.049 244.242 211.906 244.138 211.795 244.012C211.683 243.885 211.598 243.756 211.539 243.626H211.499V246.124H210.205ZM211.472 242.04C211.472 242.318 211.511 242.56 211.588 242.766C211.665 242.973 211.776 243.134 211.922 243.25C212.068 243.363 212.245 243.42 212.454 243.42C212.665 243.42 212.843 243.362 212.989 243.247C213.134 243.129 213.245 242.967 213.32 242.761C213.397 242.552 213.435 242.312 213.435 242.04C213.435 241.771 213.398 241.534 213.323 241.33C213.247 241.125 213.137 240.965 212.991 240.849C212.846 240.734 212.666 240.676 212.454 240.676C212.243 240.676 212.065 240.732 211.919 240.844C211.775 240.955 211.665 241.113 211.588 241.317C211.511 241.522 211.472 241.763 211.472 242.04ZM216.856 244.462C216.558 244.462 216.293 244.41 216.06 244.307C215.827 244.202 215.643 244.047 215.507 243.842C215.374 243.635 215.307 243.378 215.307 243.07C215.307 242.811 215.354 242.593 215.449 242.417C215.545 242.241 215.674 242.099 215.838 241.992C216.002 241.885 216.189 241.803 216.398 241.749C216.608 241.694 216.829 241.656 217.06 241.633C217.331 241.605 217.55 241.579 217.716 241.554C217.882 241.528 218.003 241.49 218.078 241.439C218.153 241.388 218.19 241.314 218.19 241.214V241.196C218.19 241.003 218.129 240.855 218.008 240.749C217.888 240.644 217.718 240.591 217.497 240.591C217.264 240.591 217.079 240.643 216.941 240.746C216.803 240.847 216.713 240.975 216.668 241.129L215.471 241.032C215.531 240.748 215.651 240.503 215.829 240.297C216.008 240.088 216.237 239.928 216.519 239.816C216.802 239.703 217.131 239.646 217.503 239.646C217.763 239.646 218.011 239.677 218.248 239.738C218.487 239.798 218.698 239.892 218.882 240.02C219.069 240.148 219.216 240.312 219.323 240.512C219.43 240.711 219.484 240.949 219.484 241.226V244.374H218.257V243.727H218.22C218.146 243.872 218.045 244.001 217.919 244.112C217.794 244.222 217.643 244.308 217.467 244.371C217.291 244.432 217.087 244.462 216.856 244.462ZM217.227 243.569C217.417 243.569 217.585 243.531 217.731 243.456C217.877 243.379 217.992 243.276 218.074 243.147C218.157 243.017 218.199 242.87 218.199 242.706V242.211C218.158 242.237 218.103 242.261 218.032 242.284C217.963 242.304 217.885 242.323 217.798 242.341C217.711 242.357 217.624 242.373 217.537 242.387C217.45 242.399 217.371 242.41 217.3 242.42C217.148 242.442 217.015 242.478 216.902 242.526C216.788 242.575 216.7 242.641 216.638 242.724C216.575 242.805 216.543 242.907 216.543 243.028C216.543 243.204 216.607 243.339 216.734 243.432C216.864 243.523 217.029 243.569 217.227 243.569ZM222.497 246.221C222.077 246.221 221.718 246.164 221.418 246.048C221.12 245.935 220.883 245.78 220.707 245.583C220.531 245.387 220.417 245.166 220.364 244.921L221.561 244.76C221.597 244.853 221.655 244.94 221.734 245.021C221.813 245.102 221.917 245.167 222.047 245.215C222.178 245.266 222.339 245.291 222.527 245.291C222.808 245.291 223.04 245.222 223.223 245.085C223.407 244.949 223.499 244.721 223.499 244.401V243.548H223.445C223.388 243.677 223.303 243.8 223.19 243.915C223.076 244.031 222.93 244.125 222.752 244.197C222.574 244.271 222.361 244.307 222.114 244.307C221.763 244.307 221.444 244.226 221.157 244.064C220.871 243.9 220.643 243.65 220.473 243.313C220.305 242.975 220.221 242.548 220.221 242.031C220.221 241.503 220.307 241.061 220.479 240.707C220.651 240.352 220.88 240.087 221.166 239.911C221.453 239.735 221.768 239.646 222.111 239.646C222.372 239.646 222.591 239.691 222.767 239.78C222.943 239.867 223.085 239.977 223.192 240.108C223.302 240.238 223.386 240.366 223.445 240.491H223.493V239.707H224.778V244.419C224.778 244.817 224.681 245.149 224.487 245.416C224.292 245.683 224.023 245.884 223.678 246.018C223.336 246.153 222.942 246.221 222.497 246.221ZM222.524 243.335C222.732 243.335 222.909 243.283 223.053 243.18C223.199 243.074 223.31 242.925 223.387 242.73C223.466 242.534 223.505 242.299 223.505 242.025C223.505 241.752 223.467 241.515 223.39 241.314C223.313 241.112 223.201 240.955 223.056 240.844C222.91 240.732 222.732 240.676 222.524 240.676C222.312 240.676 222.132 240.734 221.986 240.849C221.84 240.963 221.73 241.121 221.655 241.323C221.58 241.526 221.543 241.76 221.543 242.025C221.543 242.295 221.58 242.527 221.655 242.724C221.732 242.918 221.843 243.07 221.986 243.177C222.132 243.282 222.312 243.335 222.524 243.335ZM227.841 244.465C227.361 244.465 226.948 244.368 226.601 244.173C226.257 243.977 225.992 243.7 225.805 243.341C225.619 242.98 225.526 242.554 225.526 242.062C225.526 241.582 225.619 241.161 225.805 240.798C225.992 240.435 226.254 240.153 226.592 239.95C226.933 239.747 227.332 239.646 227.789 239.646C228.097 239.646 228.384 239.696 228.649 239.796C228.916 239.892 229.15 240.039 229.348 240.236C229.549 240.432 229.704 240.679 229.816 240.977C229.927 241.273 229.983 241.619 229.983 242.016V242.372H226.042V241.57H228.765C228.765 241.383 228.724 241.218 228.643 241.075C228.562 240.931 228.45 240.818 228.306 240.737C228.164 240.654 227.999 240.613 227.811 240.613C227.614 240.613 227.44 240.658 227.288 240.749C227.138 240.838 227.02 240.959 226.935 241.111C226.85 241.261 226.807 241.428 226.805 241.612V242.375C226.805 242.606 226.848 242.805 226.933 242.973C227.02 243.141 227.142 243.271 227.3 243.362C227.458 243.453 227.645 243.499 227.862 243.499C228.006 243.499 228.137 243.479 228.257 243.438C228.376 243.397 228.479 243.337 228.564 243.256C228.649 243.175 228.714 243.076 228.758 242.958L229.955 243.037C229.894 243.325 229.77 243.576 229.582 243.79C229.396 244.003 229.154 244.169 228.859 244.289C228.565 244.406 228.226 244.465 227.841 244.465Z" fill="#333333"/>
<path d="M220.802 170.298C220.802 169.855 220.443 169.496 220 169.496C219.557 169.496 219.198 169.855 219.198 170.298H220.802ZM216.439 202.13C215.995 202.13 215.683 202.673 215.904 203.056L219.465 209.225C219.687 209.609 220.313 209.609 220.535 209.225L224.096 203.056C224.317 202.673 224.004 202.13 223.561 202.13H216.439ZM219.198 170.298V202.932H220.802V170.298H219.198Z" fill="#CECCCC"/>
<path d="M220.802 170.298C220.802 169.855 220.443 169.496 220 169.496C219.557 169.496 219.198 169.855 219.198 170.298H220.802ZM216.439 202.13C215.995 202.13 215.683 202.673 215.904 203.056L219.465 209.225C219.687 209.609 220.313 209.609 220.535 209.225L224.096 203.056C224.317 202.673 224.004 202.13 223.561 202.13H216.439ZM219.198 170.298V202.932H220.802V170.298H219.198Z" fill="#CECCCC"/>
<g filter="url(#filter2_d_10194_13340)">
<path d="M279.788 34.7637H160.212C150.706 34.7637 143 42.4695 143 51.9752V60.581C143 70.0866 150.706 77.7925 160.212 77.7925H279.788C289.294 77.7925 297 70.0866 297 60.581V51.9752C297 42.4695 289.294 34.7637 279.788 34.7637Z" fill="white"/>
</g>
<path d="M169.281 54.9273C169.256 54.6822 169.152 54.4918 168.968 54.3561C168.783 54.2205 168.533 54.1526 168.217 54.1526C168.002 54.1526 167.821 54.183 167.673 54.2437C167.525 54.3025 167.412 54.3845 167.333 54.4898C167.256 54.5951 167.218 54.7147 167.218 54.8483C167.214 54.9597 167.237 55.057 167.287 55.14C167.34 55.2231 167.412 55.2949 167.503 55.3557C167.594 55.4144 167.7 55.4661 167.819 55.5106C167.939 55.5532 168.066 55.5897 168.202 55.62L168.761 55.7537C169.032 55.8145 169.282 55.8955 169.508 55.9968C169.735 56.098 169.932 56.2226 170.098 56.3705C170.264 56.5183 170.392 56.6925 170.484 56.8931C170.577 57.0936 170.624 57.3235 170.626 57.5827C170.624 57.9635 170.527 58.2937 170.335 58.5732C170.144 58.8506 169.869 59.0664 169.508 59.2203C169.15 59.3722 168.717 59.4482 168.211 59.4482C167.709 59.4482 167.271 59.3712 166.899 59.2173C166.528 59.0633 166.238 58.8354 166.03 58.5336C165.823 58.2299 165.715 57.8541 165.705 57.4065H166.978C166.992 57.6151 167.052 57.7893 167.157 57.9291C167.264 58.0668 167.407 58.1711 167.585 58.242C167.766 58.3109 167.969 58.3453 168.196 58.3453C168.419 58.3453 168.612 58.3129 168.776 58.2481C168.942 58.1832 169.071 58.0931 169.162 57.9777C169.253 57.8622 169.299 57.7296 169.299 57.5797C169.299 57.4399 169.257 57.3224 169.174 57.2273C169.093 57.132 168.974 57.051 168.816 56.9842C168.66 56.9173 168.468 56.8566 168.241 56.8019L167.564 56.6317C167.039 56.5042 166.625 56.3046 166.321 56.0332C166.018 55.7618 165.867 55.3962 165.869 54.9365C165.867 54.5597 165.967 54.2306 166.169 53.949C166.374 53.6675 166.655 53.4477 167.011 53.2897C167.367 53.1318 167.773 53.0527 168.226 53.0527C168.688 53.0527 169.091 53.1318 169.436 53.2897C169.782 53.4477 170.051 53.6675 170.244 53.949C170.436 54.2306 170.535 54.5566 170.541 54.9273H169.281ZM173.451 59.4512C172.971 59.4512 172.558 59.354 172.212 59.1595C171.867 58.9631 171.602 58.6856 171.416 58.3271C171.229 57.9665 171.136 57.5402 171.136 57.048C171.136 56.5679 171.229 56.1466 171.416 55.7841C171.602 55.4216 171.864 55.139 172.203 54.9365C172.543 54.7339 172.942 54.6326 173.4 54.6326C173.707 54.6326 173.994 54.6822 174.259 54.7815C174.527 54.8787 174.76 55.0255 174.958 55.222C175.159 55.4185 175.315 55.6656 175.426 55.9633C175.537 56.2591 175.593 56.6054 175.593 57.0024V57.3579H171.653V56.5558H174.375C174.375 56.3695 174.334 56.2044 174.253 56.0605C174.172 55.9168 174.06 55.8044 173.916 55.7234C173.774 55.6403 173.609 55.5988 173.421 55.5988C173.224 55.5988 173.05 55.6443 172.898 55.7355C172.748 55.8246 172.631 55.9451 172.546 56.097C172.461 56.2469 172.417 56.414 172.415 56.5983V57.3609C172.415 57.5918 172.458 57.7913 172.543 57.9595C172.63 58.1276 172.752 58.2572 172.91 58.3484C173.068 58.4395 173.256 58.485 173.473 58.485C173.616 58.485 173.748 58.4648 173.867 58.4243C173.987 58.3838 174.089 58.323 174.174 58.242C174.259 58.161 174.324 58.0617 174.369 57.9443L175.566 58.0232C175.505 58.3109 175.38 58.562 175.192 58.7767C175.006 58.9894 174.765 59.1555 174.469 59.275C174.175 59.3925 173.836 59.4512 173.451 59.4512ZM177.606 59.4482C177.308 59.4482 177.043 59.3965 176.81 59.2932C176.577 59.1879 176.393 59.033 176.257 58.8284C176.123 58.6218 176.056 58.3646 176.056 58.0567C176.056 57.7974 176.104 57.5797 176.199 57.4034C176.294 57.2273 176.424 57.0855 176.588 56.9781C176.752 56.8708 176.939 56.7897 177.147 56.735C177.358 56.6803 177.579 56.6419 177.809 56.6196C178.081 56.5913 178.3 56.5649 178.466 56.5406C178.632 56.5143 178.752 56.4758 178.827 56.4252C178.902 56.3745 178.94 56.2996 178.94 56.2003V56.1821C178.94 55.9897 178.879 55.8408 178.757 55.7355C178.638 55.6302 178.468 55.5775 178.247 55.5775C178.014 55.5775 177.829 55.6291 177.691 55.7324C177.553 55.8337 177.462 55.9613 177.418 56.1153L176.22 56.018C176.281 55.7345 176.401 55.4894 176.579 55.2828C176.757 55.0741 176.987 54.9142 177.269 54.8028C177.552 54.6894 177.88 54.6326 178.253 54.6326C178.512 54.6326 178.76 54.663 178.997 54.7237C179.236 54.7845 179.448 54.8787 179.632 55.0063C179.819 55.1339 179.966 55.298 180.073 55.4985C180.18 55.697 180.234 55.935 180.234 56.2125V59.3601H179.007V58.7129H178.97C178.895 58.8588 178.795 58.9873 178.669 59.0988C178.544 59.2081 178.393 59.2942 178.217 59.357C178.04 59.4178 177.837 59.4482 177.606 59.4482ZM177.977 58.5549C178.167 58.5549 178.335 58.5174 178.481 58.4425C178.627 58.3656 178.741 58.2623 178.824 58.1326C178.907 58.003 178.949 57.8561 178.949 57.6921V57.1968C178.908 57.2232 178.853 57.2475 178.782 57.2698C178.713 57.29 178.635 57.3093 178.548 57.3275C178.461 57.3437 178.374 57.3589 178.287 57.3731C178.199 57.3852 178.12 57.3964 178.05 57.4065C177.898 57.4288 177.765 57.4642 177.652 57.5129C177.538 57.5615 177.45 57.6273 177.387 57.7103C177.324 57.7913 177.293 57.8926 177.293 58.0142C177.293 58.1903 177.357 58.325 177.484 58.4182C177.614 58.5094 177.778 58.5549 177.977 58.5549ZM181.076 59.3601V54.6934H182.33V55.5076H182.379C182.464 55.218 182.607 54.9992 182.807 54.8514C183.008 54.7015 183.239 54.6265 183.5 54.6265C183.565 54.6265 183.635 54.6306 183.71 54.6387C183.785 54.6468 183.85 54.6579 183.907 54.6721V55.8206C183.846 55.8023 183.762 55.7861 183.655 55.772C183.548 55.7578 183.449 55.7507 183.36 55.7507C183.17 55.7507 183 55.7922 182.85 55.8753C182.702 55.9563 182.584 56.0697 182.497 56.2155C182.412 56.3613 182.37 56.5294 182.37 56.7199V59.3601H181.076ZM186.305 59.4512C185.827 59.4512 185.416 59.3499 185.072 59.1474C184.729 58.9428 184.466 58.6592 184.282 58.2967C184.099 57.9341 184.008 57.5169 184.008 57.045C184.008 56.5669 184.1 56.1477 184.285 55.7871C184.471 55.4246 184.735 55.142 185.078 54.9395C185.42 54.7349 185.827 54.6326 186.299 54.6326C186.706 54.6326 187.063 54.7065 187.368 54.8544C187.674 55.0023 187.916 55.2099 188.095 55.4772C188.273 55.7446 188.371 56.0586 188.389 56.4191H187.168C187.133 56.1862 187.042 55.9988 186.894 55.857C186.749 55.7132 186.557 55.6413 186.32 55.6413C186.12 55.6413 185.944 55.696 185.795 55.8054C185.647 55.9127 185.531 56.0697 185.448 56.2763C185.365 56.4829 185.324 56.733 185.324 57.0267C185.324 57.3245 185.364 57.5777 185.445 57.7863C185.528 57.9949 185.645 58.1539 185.795 58.2633C185.944 58.3726 186.12 58.4273 186.32 58.4273C186.468 58.4273 186.601 58.397 186.718 58.3362C186.838 58.2754 186.936 58.1873 187.013 58.0719C187.092 57.9544 187.144 57.8136 187.168 57.6495H188.389C188.369 58.006 188.272 58.32 188.098 58.5914C187.925 58.8608 187.687 59.0714 187.384 59.2233C187.08 59.3752 186.72 59.4512 186.305 59.4512ZM190.35 56.6621V59.3601H189.055V53.1378H190.313V55.5167H190.368C190.473 55.2412 190.643 55.0255 190.878 54.8696C191.113 54.7116 191.408 54.6326 191.762 54.6326C192.086 54.6326 192.369 54.7035 192.61 54.8453C192.853 54.9851 193.041 55.1866 193.175 55.4499C193.311 55.7112 193.378 56.0241 193.376 56.3887V59.3601H192.081V56.6196C192.083 56.332 192.01 56.1082 191.863 55.9481C191.717 55.7882 191.512 55.7082 191.249 55.7082C191.073 55.7082 190.917 55.7456 190.781 55.8206C190.647 55.8955 190.542 56.0049 190.465 56.1487C190.39 56.2905 190.352 56.4616 190.35 56.6621ZM197.38 59.4482C197.082 59.4482 196.817 59.3965 196.584 59.2932C196.351 59.1879 196.167 59.033 196.031 58.8284C195.897 58.6218 195.831 58.3646 195.831 58.0567C195.831 57.7974 195.878 57.5797 195.973 57.4034C196.069 57.2273 196.198 57.0855 196.362 56.9781C196.526 56.8708 196.712 56.7897 196.921 56.735C197.132 56.6803 197.352 56.6419 197.583 56.6196C197.855 56.5913 198.074 56.5649 198.24 56.5406C198.406 56.5143 198.526 56.4758 198.602 56.4252C198.676 56.3745 198.714 56.2996 198.714 56.2003V56.1821C198.714 55.9897 198.653 55.8408 198.531 55.7355C198.412 55.6302 198.242 55.5775 198.021 55.5775C197.788 55.5775 197.603 55.6291 197.465 55.7324C197.327 55.8337 197.236 55.9613 197.191 56.1153L195.995 56.018C196.055 55.7345 196.175 55.4894 196.353 55.2828C196.531 55.0741 196.761 54.9142 197.043 54.8028C197.326 54.6894 197.655 54.6326 198.027 54.6326C198.287 54.6326 198.535 54.663 198.772 54.7237C199.011 54.7845 199.222 54.8787 199.406 55.0063C199.593 55.1339 199.739 55.298 199.847 55.4985C199.954 55.697 200.008 55.935 200.008 56.2125V59.3601H198.781V58.7129H198.744C198.669 58.8588 198.569 58.9873 198.443 59.0988C198.318 59.2081 198.167 59.2942 197.991 59.357C197.814 59.4178 197.611 59.4482 197.38 59.4482ZM197.751 58.5549C197.941 58.5549 198.109 58.5174 198.255 58.4425C198.401 58.3656 198.515 58.2623 198.598 58.1326C198.681 58.003 198.723 57.8561 198.723 57.6921V57.1968C198.682 57.2232 198.627 57.2475 198.556 57.2698C198.487 57.29 198.409 57.3093 198.322 57.3275C198.235 57.3437 198.148 57.3589 198.06 57.3731C197.973 57.3852 197.895 57.3964 197.823 57.4065C197.672 57.4288 197.539 57.4642 197.426 57.5129C197.312 57.5615 197.224 57.6273 197.161 57.7103C197.098 57.7913 197.067 57.8926 197.067 58.0142C197.067 58.1903 197.131 58.325 197.258 58.4182C197.388 58.5094 197.552 58.5549 197.751 58.5549ZM202.144 56.6621V59.3601H200.849V54.6934H202.083V55.5167H202.138C202.241 55.2453 202.414 55.0306 202.657 54.8727C202.9 54.7126 203.195 54.6326 203.541 54.6326C203.865 54.6326 204.148 54.7035 204.389 54.8453C204.63 54.9871 204.818 55.1896 204.951 55.4529C205.085 55.7142 205.152 56.0262 205.152 56.3887V59.3601H203.857V56.6196C203.859 56.334 203.787 56.1112 203.639 55.9512C203.491 55.7892 203.287 55.7082 203.028 55.7082C202.854 55.7082 202.7 55.7456 202.566 55.8206C202.434 55.8955 202.331 56.0049 202.256 56.1487C202.183 56.2905 202.146 56.4616 202.144 56.6621ZM207.729 59.436C207.374 59.436 207.053 59.3449 206.766 59.1626C206.48 58.9783 206.253 58.7079 206.085 58.3514C205.919 57.9929 205.836 57.5533 205.836 57.0328C205.836 56.4981 205.922 56.0535 206.094 55.699C206.266 55.3425 206.495 55.0762 206.781 54.9C207.068 54.7218 207.383 54.6326 207.726 54.6326C207.987 54.6326 208.205 54.6772 208.379 54.7663C208.555 54.8534 208.697 54.9628 208.805 55.0944C208.914 55.2241 208.997 55.3517 209.053 55.4772H209.093V53.1378H210.384V59.3601H209.108V58.6127H209.053C208.993 58.7423 208.907 58.8709 208.795 58.9985C208.686 59.1241 208.543 59.2284 208.367 59.3114C208.193 59.3945 207.98 59.436 207.729 59.436ZM208.139 58.4061C208.347 58.4061 208.524 58.3493 208.668 58.2359C208.814 58.1205 208.925 57.9595 209.002 57.7528C209.081 57.5463 209.12 57.3042 209.12 57.0267C209.12 56.7492 209.082 56.5082 209.005 56.3036C208.928 56.099 208.816 55.9411 208.671 55.8297C208.525 55.7183 208.347 55.6626 208.139 55.6626C207.927 55.6626 207.747 55.7203 207.601 55.8358C207.455 55.9512 207.345 56.1112 207.27 56.3158C207.195 56.5204 207.158 56.7573 207.158 57.0267C207.158 57.2981 207.195 57.5381 207.27 57.7468C207.347 57.9534 207.458 58.1154 207.601 58.2329C207.747 58.3484 207.927 58.4061 208.139 58.4061ZM214.434 59.4482C214.136 59.4482 213.871 59.3965 213.638 59.2932C213.405 59.1879 213.221 59.033 213.085 58.8284C212.951 58.6218 212.884 58.3646 212.884 58.0567C212.884 57.7974 212.932 57.5797 213.027 57.4034C213.122 57.2273 213.252 57.0855 213.417 56.9781C213.58 56.8708 213.767 56.7897 213.975 56.735C214.186 56.6803 214.407 56.6419 214.638 56.6196C214.909 56.5913 215.128 56.5649 215.294 56.5406C215.46 56.5143 215.581 56.4758 215.655 56.4252C215.73 56.3745 215.768 56.2996 215.768 56.2003V56.1821C215.768 55.9897 215.707 55.8408 215.585 55.7355C215.466 55.6302 215.296 55.5775 215.075 55.5775C214.842 55.5775 214.657 55.6291 214.519 55.7324C214.381 55.8337 214.29 55.9613 214.246 56.1153L213.049 56.018C213.11 55.7345 213.229 55.4894 213.407 55.2828C213.585 55.0741 213.815 54.9142 214.097 54.8028C214.381 54.6894 214.708 54.6326 215.081 54.6326C215.34 54.6326 215.589 54.663 215.825 54.7237C216.064 54.7845 216.276 54.8787 216.461 55.0063C216.647 55.1339 216.794 55.298 216.901 55.4985C217.008 55.697 217.062 55.935 217.062 56.2125V59.3601H215.835V58.7129H215.798C215.723 58.8588 215.623 58.9873 215.498 59.0988C215.372 59.2081 215.221 59.2942 215.045 59.357C214.868 59.4178 214.665 59.4482 214.434 59.4482ZM214.805 58.5549C214.995 58.5549 215.163 58.5174 215.309 58.4425C215.455 58.3656 215.569 58.2623 215.652 58.1326C215.736 58.003 215.777 57.8561 215.777 57.6921V57.1968C215.737 57.2232 215.681 57.2475 215.61 57.2698C215.541 57.29 215.463 57.3093 215.376 57.3275C215.289 57.3437 215.202 57.3589 215.115 57.3731C215.028 57.3852 214.949 57.3964 214.877 57.4065C214.726 57.4288 214.593 57.4642 214.48 57.5129C214.366 57.5615 214.278 57.6273 214.215 57.7103C214.152 57.7913 214.121 57.8926 214.121 58.0142C214.121 58.1903 214.185 58.325 214.313 58.4182C214.442 58.5094 214.606 58.5549 214.805 58.5549ZM219.623 59.436C219.269 59.436 218.948 59.3449 218.66 59.1626C218.374 58.9783 218.148 58.7079 217.98 58.3514C217.814 57.9929 217.731 57.5533 217.731 57.0328C217.731 56.4981 217.817 56.0535 217.989 55.699C218.161 55.3425 218.39 55.0762 218.676 54.9C218.963 54.7218 219.278 54.6326 219.62 54.6326C219.881 54.6326 220.099 54.6772 220.273 54.7663C220.45 54.8534 220.591 54.9628 220.699 55.0944C220.808 55.2241 220.891 55.3517 220.948 55.4772H220.988V53.1378H222.278V59.3601H221.003V58.6127H220.948C220.887 58.7423 220.801 58.8709 220.69 58.9985C220.58 59.1241 220.437 59.2284 220.262 59.3114C220.087 59.3945 219.874 59.436 219.623 59.436ZM220.033 58.4061C220.242 58.4061 220.418 58.3493 220.562 58.2359C220.708 58.1205 220.819 57.9595 220.896 57.7528C220.975 57.5463 221.015 57.3042 221.015 57.0267C221.015 56.7492 220.976 56.5082 220.899 56.3036C220.822 56.099 220.711 55.9411 220.565 55.8297C220.419 55.7183 220.242 55.6626 220.033 55.6626C219.821 55.6626 219.642 55.7203 219.496 55.8358C219.35 55.9512 219.24 56.1112 219.164 56.3158C219.089 56.5204 219.052 56.7573 219.052 57.0267C219.052 57.2981 219.089 57.5381 219.164 57.7468C219.241 57.9534 219.352 58.1154 219.496 58.2329C219.642 58.3484 219.821 58.4061 220.033 58.4061ZM224.9 59.436C224.545 59.436 224.224 59.3449 223.937 59.1626C223.651 58.9783 223.424 58.7079 223.256 58.3514C223.09 57.9929 223.007 57.5533 223.007 57.0328C223.007 56.4981 223.093 56.0535 223.266 55.699C223.437 55.3425 223.667 55.0762 223.952 54.9C224.239 54.7218 224.554 54.6326 224.897 54.6326C225.158 54.6326 225.376 54.6772 225.55 54.7663C225.726 54.8534 225.868 54.9628 225.976 55.0944C226.085 55.2241 226.168 55.3517 226.225 55.4772H226.264V53.1378H227.555V59.3601H226.279V58.6127H226.225C226.164 58.7423 226.078 58.8709 225.966 58.9985C225.857 59.1241 225.714 59.2284 225.538 59.3114C225.364 59.3945 225.151 59.436 224.9 59.436ZM225.31 58.4061C225.519 58.4061 225.695 58.3493 225.839 58.2359C225.985 58.1205 226.096 57.9595 226.173 57.7528C226.252 57.5463 226.292 57.3042 226.292 57.0267C226.292 56.7492 226.253 56.5082 226.176 56.3036C226.099 56.099 225.987 55.9411 225.842 55.8297C225.696 55.7183 225.519 55.6626 225.31 55.6626C225.098 55.6626 224.918 55.7203 224.772 55.8358C224.626 55.9512 224.516 56.1112 224.441 56.3158C224.366 56.5204 224.329 56.7573 224.329 57.0267C224.329 57.2981 224.366 57.5381 224.441 57.7468C224.518 57.9534 224.629 58.1154 224.772 58.2329C224.918 58.3484 225.098 58.4061 225.31 58.4061ZM232.377 61.2072C231.957 61.2072 231.598 61.1496 231.298 61.0341C231 60.9207 230.763 60.7657 230.588 60.5693C230.411 60.3728 230.297 60.152 230.244 59.9069L231.441 59.7459C231.477 59.8391 231.535 59.9262 231.614 60.0072C231.693 60.0882 231.798 60.153 231.927 60.2017C232.059 60.2523 232.219 60.2776 232.407 60.2776C232.689 60.2776 232.921 60.2087 233.103 60.071C233.287 59.9353 233.379 59.7074 233.379 59.3874V58.5336H233.325C233.268 58.6633 233.183 58.7858 233.07 58.9013C232.956 59.0168 232.81 59.1109 232.632 59.1839C232.454 59.2567 232.241 59.2932 231.994 59.2932C231.644 59.2932 231.324 59.2122 231.037 59.0502C230.751 58.8861 230.523 58.6359 230.353 58.2997C230.185 57.9615 230.101 57.5341 230.101 57.0176C230.101 56.489 230.188 56.0474 230.36 55.6929C230.531 55.3385 230.761 55.0732 231.046 54.8969C231.333 54.7207 231.648 54.6326 231.991 54.6326C232.252 54.6326 232.471 54.6772 232.647 54.7663C232.823 54.8534 232.965 54.9628 233.072 55.0944C233.182 55.2241 233.266 55.3517 233.325 55.4772H233.373V54.6934H234.658V59.4056C234.658 59.8026 234.561 60.1348 234.367 60.4022C234.172 60.6695 233.903 60.8701 233.558 61.0037C233.216 61.1394 232.823 61.2072 232.377 61.2072ZM232.404 58.321C232.613 58.321 232.789 58.2693 232.933 58.166C233.079 58.0607 233.19 57.9108 233.267 57.7164C233.346 57.5199 233.386 57.285 233.386 57.0116C233.386 56.7381 233.347 56.5011 233.27 56.3006C233.193 56.098 233.081 55.9411 232.936 55.8297C232.79 55.7183 232.613 55.6626 232.404 55.6626C232.192 55.6626 232.012 55.7203 231.867 55.8358C231.721 55.9492 231.61 56.1072 231.535 56.3097C231.46 56.5122 231.423 56.7462 231.423 57.0116C231.423 57.2809 231.46 57.5138 231.535 57.7103C231.612 57.9048 231.723 58.0556 231.867 58.163C232.012 58.2683 232.192 58.321 232.404 58.321ZM236.857 59.4482C236.559 59.4482 236.294 59.3965 236.06 59.2932C235.828 59.1879 235.643 59.033 235.508 58.8284C235.374 58.6218 235.307 58.3646 235.307 58.0567C235.307 57.7974 235.355 57.5797 235.45 57.4034C235.545 57.2273 235.675 57.0855 235.839 56.9781C236.003 56.8708 236.189 56.7897 236.398 56.735C236.608 56.6803 236.829 56.6419 237.06 56.6196C237.331 56.5913 237.55 56.5649 237.716 56.5406C237.883 56.5143 238.003 56.4758 238.078 56.4252C238.153 56.3745 238.19 56.2996 238.19 56.2003V56.1821C238.19 55.9897 238.13 55.8408 238.008 55.7355C237.889 55.6302 237.719 55.5775 237.498 55.5775C237.265 55.5775 237.08 55.6291 236.942 55.7324C236.804 55.8337 236.713 55.9613 236.668 56.1153L235.471 56.018C235.532 55.7345 235.651 55.4894 235.83 55.2828C236.008 55.0741 236.238 54.9142 236.519 54.8028C236.803 54.6894 237.131 54.6326 237.504 54.6326C237.763 54.6326 238.011 54.663 238.248 54.7237C238.487 54.7845 238.699 54.8787 238.883 55.0063C239.069 55.1339 239.216 55.298 239.324 55.4985C239.431 55.697 239.485 55.935 239.485 56.2125V59.3601H238.257V58.7129H238.221C238.146 58.8588 238.046 58.9873 237.92 59.0988C237.795 59.2081 237.644 59.2942 237.467 59.357C237.291 59.4178 237.088 59.4482 236.857 59.4482ZM237.227 58.5549C237.418 58.5549 237.586 58.5174 237.731 58.4425C237.877 58.3656 237.992 58.2623 238.075 58.1326C238.158 58.003 238.199 57.8561 238.199 57.6921V57.1968C238.159 57.2232 238.103 57.2475 238.032 57.2698C237.963 57.29 237.885 57.3093 237.798 57.3275C237.712 57.3437 237.624 57.3589 237.537 57.3731C237.45 57.3852 237.371 57.3964 237.3 57.4065C237.149 57.4288 237.015 57.4642 236.902 57.5129C236.789 57.5615 236.7 57.6273 236.638 57.7103C236.575 57.7913 236.544 57.8926 236.544 58.0142C236.544 58.1903 236.607 58.325 236.735 58.4182C236.865 58.5094 237.029 58.5549 237.227 58.5549ZM240.326 59.3601V54.6934H241.559V55.5167H241.615C241.712 55.2433 241.874 55.0276 242.101 54.8696C242.327 54.7116 242.599 54.6326 242.915 54.6326C243.235 54.6326 243.507 54.7126 243.732 54.8727C243.957 55.0306 244.107 55.2453 244.182 55.5167H244.23C244.326 55.2494 244.498 55.0357 244.747 54.8757C244.998 54.7136 245.295 54.6326 245.637 54.6326C246.073 54.6326 246.426 54.7714 246.697 55.0489C246.971 55.3243 247.107 55.7152 247.107 56.2216V59.3601H245.816V56.4768C245.816 56.2175 245.747 56.0231 245.609 55.8934C245.472 55.7638 245.3 55.699 245.093 55.699C244.858 55.699 244.675 55.774 244.543 55.9239C244.412 56.0717 244.346 56.2672 244.346 56.5103V59.3601H243.091V56.4495C243.091 56.2206 243.025 56.0383 242.894 55.9026C242.764 55.7669 242.593 55.699 242.38 55.699C242.236 55.699 242.107 55.7355 241.991 55.8084C241.878 55.8793 241.788 55.9795 241.721 56.1092C241.654 56.2368 241.62 56.3867 241.62 56.5589V59.3601H240.326ZM250.094 59.4512C249.614 59.4512 249.201 59.354 248.855 59.1595C248.51 58.9631 248.245 58.6856 248.059 58.3271C247.872 57.9665 247.779 57.5402 247.779 57.048C247.779 56.5679 247.872 56.1466 248.059 55.7841C248.245 55.4216 248.507 55.139 248.845 54.9365C249.186 54.7339 249.585 54.6326 250.042 54.6326C250.35 54.6326 250.637 54.6822 250.902 54.7815C251.17 54.8787 251.403 55.0255 251.601 55.222C251.802 55.4185 251.958 55.6656 252.069 55.9633C252.18 56.2591 252.236 56.6054 252.236 57.0024V57.3579H248.295V56.5558H251.018C251.018 56.3695 250.977 56.2044 250.896 56.0605C250.815 55.9168 250.703 55.8044 250.559 55.7234C250.417 55.6403 250.252 55.5988 250.064 55.5988C249.867 55.5988 249.693 55.6443 249.541 55.7355C249.391 55.8246 249.274 55.9451 249.189 56.097C249.103 56.2469 249.06 56.414 249.058 56.5983V57.3609C249.058 57.5918 249.101 57.7913 249.186 57.9595C249.273 58.1276 249.395 58.2572 249.553 58.3484C249.711 58.4395 249.898 58.485 250.115 58.485C250.259 58.485 250.391 58.4648 250.51 58.4243C250.63 58.3838 250.732 58.323 250.817 58.242C250.902 58.161 250.967 58.0617 251.012 57.9443L252.208 58.0232C252.148 58.3109 252.023 58.562 251.835 58.7767C251.649 58.9894 251.407 59.1555 251.112 59.275C250.818 59.3925 250.479 59.4512 250.094 59.4512ZM254.736 61.11V54.6934H256.011V55.4772H256.069C256.126 55.3517 256.208 55.2241 256.316 55.0944C256.425 54.9628 256.566 54.8534 256.741 54.7663C256.917 54.6772 257.136 54.6326 257.397 54.6326C257.738 54.6326 258.051 54.7218 258.339 54.9C258.627 55.0762 258.856 55.3425 259.028 55.699C259.201 56.0535 259.287 56.4981 259.287 57.0328C259.287 57.5533 259.203 57.9929 259.035 58.3514C258.868 58.7079 258.642 58.9783 258.354 59.1626C258.069 59.3449 257.749 59.436 257.394 59.436C257.143 59.436 256.929 59.3945 256.753 59.3114C256.579 59.2284 256.436 59.1241 256.325 58.9985C256.213 58.8709 256.128 58.7423 256.069 58.6127H256.03V61.11H254.736ZM256.002 57.0267C256.002 57.3042 256.041 57.5463 256.118 57.7528C256.195 57.9595 256.307 58.1205 256.452 58.2359C256.598 58.3493 256.775 58.4061 256.984 58.4061C257.195 58.4061 257.373 58.3484 257.519 58.2329C257.664 58.1154 257.775 57.9534 257.85 57.7468C257.927 57.5381 257.965 57.2981 257.965 57.0267C257.965 56.7573 257.928 56.5204 257.853 56.3158C257.778 56.1112 257.667 55.9512 257.521 55.8358C257.376 55.7203 257.196 55.6626 256.984 55.6626C256.773 55.6626 256.595 55.7183 256.449 55.8297C256.306 55.9411 256.195 56.099 256.118 56.3036C256.041 56.5082 256.002 56.7492 256.002 57.0267ZM261.318 59.4482C261.02 59.4482 260.755 59.3965 260.522 59.2932C260.289 59.1879 260.105 59.033 259.969 58.8284C259.835 58.6218 259.768 58.3646 259.768 58.0567C259.768 57.7974 259.816 57.5797 259.911 57.4034C260.006 57.2273 260.136 57.0855 260.3 56.9781C260.464 56.8708 260.651 56.7897 260.859 56.735C261.07 56.6803 261.291 56.6419 261.521 56.6196C261.793 56.5913 262.012 56.5649 262.178 56.5406C262.344 56.5143 262.464 56.4758 262.539 56.4252C262.614 56.3745 262.652 56.2996 262.652 56.2003V56.1821C262.652 55.9897 262.591 55.8408 262.469 55.7355C262.35 55.6302 262.179 55.5775 261.959 55.5775C261.726 55.5775 261.54 55.6291 261.403 55.7324C261.265 55.8337 261.174 55.9613 261.129 56.1153L259.933 56.018C259.993 55.7345 260.113 55.4894 260.291 55.2828C260.469 55.0741 260.699 54.9142 260.981 54.8028C261.264 54.6894 261.592 54.6326 261.965 54.6326C262.224 54.6326 262.472 54.663 262.709 54.7237C262.948 54.7845 263.16 54.8787 263.344 55.0063C263.531 55.1339 263.678 55.298 263.785 55.4985C263.892 55.697 263.946 55.935 263.946 56.2125V59.3601H262.718V58.7129H262.682C262.607 58.8588 262.507 58.9873 262.381 59.0988C262.255 59.2081 262.105 59.2942 261.929 59.357C261.752 59.4178 261.548 59.4482 261.318 59.4482ZM261.689 58.5549C261.879 58.5549 262.047 58.5174 262.193 58.4425C262.339 58.3656 262.453 58.2623 262.536 58.1326C262.619 58.003 262.661 57.8561 262.661 57.6921V57.1968C262.62 57.2232 262.564 57.2475 262.494 57.2698C262.425 57.29 262.347 57.3093 262.26 57.3275C262.173 57.3437 262.085 57.3589 261.998 57.3731C261.912 57.3852 261.832 57.3964 261.761 57.4065C261.609 57.4288 261.477 57.4642 261.363 57.5129C261.25 57.5615 261.162 57.6273 261.099 57.7103C261.036 57.7913 261.005 57.8926 261.005 58.0142C261.005 58.1903 261.069 58.325 261.196 58.4182C261.326 58.5094 261.49 58.5549 261.689 58.5549ZM266.89 61.2072C266.471 61.2072 266.111 61.1496 265.811 61.0341C265.513 60.9207 265.277 60.7657 265.101 60.5693C264.924 60.3728 264.81 60.152 264.757 59.9069L265.954 59.7459C265.99 59.8391 266.048 59.9262 266.127 60.0072C266.206 60.0882 266.311 60.153 266.44 60.2017C266.572 60.2523 266.732 60.2776 266.92 60.2776C267.202 60.2776 267.434 60.2087 267.616 60.071C267.8 59.9353 267.892 59.7074 267.892 59.3874V58.5336H267.838C267.781 58.6633 267.696 58.7858 267.583 58.9013C267.469 59.0168 267.323 59.1109 267.145 59.1839C266.967 59.2567 266.754 59.2932 266.507 59.2932C266.157 59.2932 265.837 59.2122 265.55 59.0502C265.264 58.8861 265.036 58.6359 264.866 58.2997C264.699 57.9615 264.614 57.5341 264.614 57.0176C264.614 56.489 264.7 56.0474 264.872 55.6929C265.044 55.3385 265.273 55.0732 265.559 54.8969C265.847 54.7207 266.162 54.6326 266.504 54.6326C266.765 54.6326 266.984 54.6772 267.16 54.7663C267.336 54.8534 267.478 54.9628 267.585 55.0944C267.695 55.2241 267.779 55.3517 267.838 55.4772H267.887V54.6934H269.171V59.4056C269.171 59.8026 269.074 60.1348 268.88 60.4022C268.685 60.6695 268.416 60.8701 268.072 61.0037C267.729 61.1394 267.335 61.2072 266.89 61.2072ZM266.917 58.321C267.126 58.321 267.302 58.2693 267.446 58.166C267.592 58.0607 267.703 57.9108 267.78 57.7164C267.859 57.5199 267.898 57.285 267.898 57.0116C267.898 56.7381 267.86 56.5011 267.783 56.3006C267.706 56.098 267.595 55.9411 267.449 55.8297C267.303 55.7183 267.126 55.6626 266.917 55.6626C266.705 55.6626 266.525 55.7203 266.38 55.8358C266.234 55.9492 266.123 56.1072 266.048 56.3097C265.973 56.5122 265.936 56.7462 265.936 57.0116C265.936 57.2809 265.973 57.5138 266.048 57.7103C266.125 57.9048 266.236 58.0556 266.38 58.163C266.525 58.2683 266.705 58.321 266.917 58.321ZM272.166 59.4512C271.686 59.4512 271.272 59.354 270.926 59.1595C270.582 58.9631 270.316 58.6856 270.13 58.3271C269.944 57.9665 269.851 57.5402 269.851 57.048C269.851 56.5679 269.944 56.1466 270.13 55.7841C270.316 55.4216 270.579 55.139 270.917 54.9365C271.257 54.7339 271.656 54.6326 272.114 54.6326C272.422 54.6326 272.709 54.6822 272.974 54.7815C273.241 54.8787 273.474 55.0255 273.673 55.222C273.873 55.4185 274.029 55.6656 274.141 55.9633C274.252 56.2591 274.307 56.6054 274.307 57.0024V57.3579H270.367V56.5558H273.089C273.089 56.3695 273.049 56.2044 272.968 56.0605C272.887 55.9168 272.774 55.8044 272.631 55.7234C272.489 55.6403 272.324 55.5988 272.135 55.5988C271.939 55.5988 271.765 55.6443 271.612 55.7355C271.463 55.8246 271.345 55.9451 271.26 56.097C271.175 56.2469 271.132 56.414 271.13 56.5983V57.3609C271.13 57.5918 271.172 57.7913 271.257 57.9595C271.345 58.1276 271.467 58.2572 271.625 58.3484C271.783 58.4395 271.97 58.485 272.187 58.485C272.331 58.485 272.462 58.4648 272.582 58.4243C272.701 58.3838 272.804 58.323 272.889 58.242C272.974 58.161 273.039 58.0617 273.083 57.9443L274.28 58.0232C274.219 58.3109 274.095 58.562 273.906 58.7767C273.72 58.9894 273.479 59.1555 273.184 59.275C272.89 59.3925 272.55 59.4512 272.166 59.4512Z" fill="#333333"/>
<g filter="url(#filter3_d_10194_13340)">
<path d="M226.952 24.0684H290.584C294.127 24.0684 297 26.9412 297 30.485V33.1586C297 36.7025 294.127 39.5753 290.584 39.5753H233.368C229.825 39.5753 226.952 36.7025 226.952 33.1586V24.0684Z" fill="#454545"/>
<path d="M227.219 24.3359H290.584C293.98 24.3359 296.733 27.0891 296.733 30.4852V33.1589C296.733 36.555 293.98 39.3082 290.584 39.3082H233.368C229.972 39.3082 227.219 36.555 227.219 33.1589V24.3359Z" stroke="#292929" stroke-width="0.534722"/>
<path d="M233.93 28.7845V34.229H233.109V28.7845H233.93ZM235.858 31.8045V34.229H235.063V30.1456H235.826V30.8102H235.876C235.97 30.594 236.117 30.4203 236.318 30.2892C236.52 30.158 236.774 30.0925 237.081 30.0925C237.359 30.0925 237.602 30.1509 237.812 30.2679C238.021 30.3831 238.183 30.555 238.298 30.7836C238.413 31.0123 238.471 31.2949 238.471 31.6317V34.229H237.676V31.7274C237.676 31.4314 237.599 31.2001 237.445 31.0335C237.29 30.8652 237.078 30.781 236.809 30.781C236.625 30.781 236.461 30.8208 236.318 30.9006C236.176 30.9804 236.063 31.0974 235.98 31.2515C235.898 31.404 235.858 31.5883 235.858 31.8045ZM241.48 30.1456V30.7836H239.172V30.1456H241.48ZM239.805 34.229V29.6724C239.805 29.4172 239.861 29.2054 239.973 29.0371C240.085 28.8669 240.232 28.7402 240.417 28.6569C240.601 28.5719 240.801 28.5293 241.018 28.5293C241.177 28.5293 241.313 28.5426 241.427 28.5692C241.54 28.594 241.625 28.617 241.68 28.6383L241.494 29.2817C241.456 29.271 241.408 29.2586 241.35 29.2444C241.291 29.2284 241.22 29.2205 241.137 29.2205C240.944 29.2205 240.806 29.2683 240.723 29.3641C240.641 29.4598 240.6 29.598 240.6 29.7788V34.229H239.805ZM243.859 34.3114C243.476 34.3114 243.143 34.2237 242.857 34.0482C242.572 33.8727 242.35 33.6273 242.192 33.3118C242.035 32.9963 241.956 32.6277 241.956 32.2059C241.956 31.7823 242.035 31.4119 242.192 31.0947C242.35 30.7774 242.572 30.5311 242.857 30.3556C243.143 30.1802 243.476 30.0925 243.859 30.0925C244.242 30.0925 244.576 30.1802 244.862 30.3556C245.147 30.5311 245.368 30.7774 245.526 31.0947C245.684 31.4119 245.763 31.7823 245.763 32.2059C245.763 32.6277 245.684 32.9963 245.526 33.3118C245.368 33.6273 245.147 33.8727 244.862 34.0482C244.576 34.2237 244.242 34.3114 243.859 34.3114ZM243.862 33.6441C244.11 33.6441 244.316 33.5785 244.479 33.4474C244.642 33.3162 244.762 33.1417 244.84 32.9236C244.92 32.7057 244.96 32.4655 244.96 32.2032C244.96 31.9427 244.92 31.7035 244.84 31.4855C244.762 31.2657 244.642 31.0894 244.479 30.9565C244.316 30.8235 244.11 30.7571 243.862 30.7571C243.612 30.7571 243.405 30.8235 243.24 30.9565C243.077 31.0894 242.956 31.2657 242.876 31.4855C242.798 31.7035 242.759 31.9427 242.759 32.2032C242.759 32.4655 242.798 32.7057 242.876 32.9236C242.956 33.1417 243.077 33.3162 243.24 33.4474C243.405 33.5785 243.612 33.6441 243.862 33.6441ZM249.82 34.3193C249.561 34.3193 249.327 34.2715 249.118 34.1758C248.909 34.0783 248.743 33.9374 248.62 33.7531C248.5 33.5688 248.44 33.3428 248.44 33.0752C248.44 32.8448 248.484 32.6552 248.573 32.5063C248.662 32.3574 248.781 32.2396 248.932 32.1527C249.082 32.0659 249.251 32.0003 249.437 31.956C249.623 31.9117 249.812 31.878 250.006 31.855C250.25 31.8266 250.449 31.8036 250.601 31.7859C250.753 31.7663 250.864 31.7353 250.934 31.6928C251.003 31.6503 251.037 31.5812 251.037 31.4855V31.4668C251.037 31.2347 250.972 31.0548 250.841 30.9272C250.711 30.7996 250.518 30.7358 250.261 30.7358C249.993 30.7358 249.782 30.7952 249.628 30.9139C249.476 31.0309 249.37 31.1611 249.312 31.3047L248.565 31.1346C248.654 30.8865 248.783 30.6862 248.953 30.5338C249.125 30.3795 249.322 30.2679 249.545 30.1988C249.769 30.1279 250.004 30.0925 250.25 30.0925C250.413 30.0925 250.586 30.112 250.768 30.1509C250.953 30.1882 251.125 30.2573 251.284 30.3583C251.445 30.4593 251.577 30.6038 251.681 30.7916C251.783 30.9777 251.835 31.2196 251.835 31.5174V34.229H251.058V33.6707H251.027C250.975 33.7735 250.898 33.8745 250.795 33.9737C250.692 34.073 250.56 34.1554 250.399 34.221C250.238 34.2865 250.044 34.3193 249.82 34.3193ZM249.992 33.6813C250.212 33.6813 250.4 33.6379 250.556 33.551C250.714 33.4642 250.833 33.3508 250.915 33.2108C250.998 33.069 251.039 32.9174 251.039 32.7562V32.2298C251.011 32.2582 250.957 32.2848 250.875 32.3096C250.795 32.3326 250.704 32.353 250.601 32.3707C250.498 32.3867 250.398 32.4018 250.3 32.4159C250.203 32.4283 250.122 32.439 250.056 32.4478C249.902 32.4673 249.761 32.5001 249.634 32.5462C249.507 32.5923 249.406 32.6587 249.331 32.7456C249.256 32.8306 249.219 32.9441 249.219 33.0858C249.219 33.2825 249.291 33.4314 249.437 33.5324C249.582 33.6317 249.767 33.6813 249.992 33.6813ZM252.893 34.229V30.1456H253.662V30.7943H253.704C253.778 30.5745 253.91 30.4017 254.098 30.2759C254.287 30.1483 254.502 30.0845 254.741 30.0845C254.791 30.0845 254.849 30.0862 254.916 30.0898C254.986 30.0934 255.04 30.0977 255.079 30.1031V30.8634C255.047 30.8545 254.99 30.8448 254.908 30.8342C254.827 30.8218 254.745 30.8156 254.664 30.8156C254.476 30.8156 254.308 30.8554 254.161 30.9352C254.016 31.0131 253.901 31.1222 253.816 31.2622C253.731 31.4004 253.688 31.5581 253.688 31.7353V34.229H252.893ZM257.34 34.3114C256.945 34.3114 256.605 34.2218 256.319 34.0429C256.036 33.8621 255.818 33.6131 255.665 33.2959C255.513 32.9786 255.437 32.6153 255.437 32.2059C255.437 31.7912 255.515 31.4252 255.671 31.108C255.827 30.789 256.047 30.54 256.33 30.3609C256.613 30.182 256.948 30.0925 257.332 30.0925C257.642 30.0925 257.919 30.15 258.161 30.2653C258.404 30.3787 258.6 30.5382 258.749 30.7437C258.9 30.9493 258.989 31.1895 259.018 31.4642H258.244C258.202 31.2728 258.104 31.108 257.952 30.9697C257.801 30.8315 257.599 30.7624 257.345 30.7624C257.124 30.7624 256.93 30.8208 256.763 30.9378C256.598 31.053 256.47 31.2178 256.378 31.4323C256.286 31.645 256.24 31.8967 256.24 32.1873C256.24 32.485 256.285 32.742 256.375 32.9582C256.466 33.1744 256.593 33.3419 256.758 33.4607C256.925 33.5794 257.12 33.6388 257.345 33.6388C257.496 33.6388 257.633 33.6113 257.755 33.5564C257.879 33.4996 257.983 33.419 258.066 33.3145C258.151 33.2099 258.211 33.0841 258.244 32.937H259.018C258.989 33.2011 258.903 33.4368 258.76 33.6441C258.616 33.8514 258.424 34.0145 258.183 34.1332C257.944 34.252 257.663 34.3114 257.34 34.3114ZM260.662 31.8045V34.229H259.868V28.7845H260.652V30.8102H260.702C260.798 30.5904 260.944 30.4159 261.141 30.2865C261.338 30.1572 261.595 30.0925 261.912 30.0925C262.192 30.0925 262.437 30.15 262.646 30.2653C262.857 30.3805 263.02 30.5524 263.135 30.781C263.252 31.0078 263.31 31.2914 263.31 31.6317V34.229H262.516V31.7274C262.516 31.4279 262.438 31.1957 262.284 31.0309C262.13 30.8643 261.916 30.781 261.641 30.781C261.453 30.781 261.285 30.8208 261.136 30.9006C260.989 30.9804 260.872 31.0974 260.787 31.2515C260.704 31.404 260.662 31.5883 260.662 31.8045ZM264.371 34.229V30.1456H265.166V34.229H264.371ZM264.772 29.5156C264.634 29.5156 264.516 29.4695 264.416 29.3773C264.319 29.2834 264.27 29.1718 264.27 29.0424C264.27 28.9112 264.319 28.7996 264.416 28.7074C264.516 28.6135 264.634 28.5665 264.772 28.5665C264.911 28.5665 265.028 28.6135 265.126 28.7074C265.225 28.7996 265.275 28.9112 265.275 29.0424C265.275 29.1718 265.225 29.2834 265.126 29.3773C265.028 29.4695 264.911 29.5156 264.772 29.5156ZM268.141 30.1456V30.7836H265.911V30.1456H268.141ZM266.509 29.1673H267.304V33.03C267.304 33.1842 267.327 33.3003 267.373 33.3783C267.419 33.4545 267.478 33.5068 267.551 33.5351C267.625 33.5617 267.706 33.575 267.793 33.575C267.857 33.575 267.913 33.5706 267.961 33.5617C268.008 33.5529 268.046 33.5457 268.072 33.5404L268.216 34.197C268.17 34.2148 268.104 34.2325 268.019 34.2502C267.934 34.2697 267.828 34.2803 267.7 34.2821C267.491 34.2857 267.296 34.2485 267.115 34.1705C266.935 34.0925 266.788 33.972 266.676 33.8089C266.565 33.6459 266.509 33.4412 266.509 33.1949V29.1673ZM270.737 34.3114C270.334 34.3114 269.988 34.2254 269.697 34.0535C269.408 33.8798 269.185 33.6361 269.028 33.3224C268.871 33.007 268.793 32.6375 268.793 32.2139C268.793 31.7956 268.871 31.427 269.028 31.108C269.185 30.789 269.405 30.54 269.686 30.3609C269.97 30.182 270.302 30.0925 270.681 30.0925C270.911 30.0925 271.134 30.1306 271.351 30.2068C271.567 30.283 271.761 30.4026 271.933 30.5656C272.105 30.7287 272.241 30.9405 272.34 31.201C272.439 31.4598 272.489 31.7744 272.489 32.1448V32.4266H269.242V31.831H271.71C271.71 31.6219 271.667 31.4367 271.582 31.2755C271.497 31.1124 271.377 30.9839 271.223 30.89C271.071 30.796 270.892 30.7491 270.686 30.7491C270.463 30.7491 270.268 30.804 270.101 30.9139C269.937 31.022 269.809 31.1638 269.718 31.3393C269.63 31.5129 269.586 31.7017 269.586 31.9055V32.3707C269.586 32.6437 269.633 32.8758 269.729 33.0672C269.826 33.2586 269.962 33.4048 270.136 33.5058C270.309 33.6051 270.512 33.6547 270.745 33.6547C270.895 33.6547 271.033 33.6335 271.157 33.5909C271.281 33.5466 271.388 33.481 271.478 33.3942C271.569 33.3074 271.638 33.2001 271.686 33.0726L272.438 33.2081C272.378 33.4297 272.27 33.6237 272.114 33.7903C271.959 33.9551 271.765 34.0836 271.532 34.1758C271.3 34.2662 271.034 34.3114 270.737 34.3114ZM275.09 34.3114C274.695 34.3114 274.355 34.2218 274.069 34.0429C273.786 33.8621 273.568 33.6131 273.415 33.2959C273.263 32.9786 273.187 32.6153 273.187 32.2059C273.187 31.7912 273.265 31.4252 273.421 31.108C273.577 30.789 273.797 30.54 274.08 30.3609C274.364 30.182 274.698 30.0925 275.083 30.0925C275.393 30.0925 275.669 30.15 275.912 30.2653C276.155 30.3787 276.351 30.5382 276.499 30.7437C276.65 30.9493 276.74 31.1895 276.768 31.4642H275.994C275.952 31.2728 275.854 31.108 275.702 30.9697C275.551 30.8315 275.349 30.7624 275.096 30.7624C274.874 30.7624 274.68 30.8208 274.514 30.9378C274.349 31.053 274.22 31.2178 274.128 31.4323C274.036 31.645 273.99 31.8967 273.99 32.1873C273.99 32.485 274.035 32.742 274.126 32.9582C274.216 33.1744 274.343 33.3419 274.508 33.4607C274.675 33.5794 274.87 33.6388 275.096 33.6388C275.246 33.6388 275.383 33.6113 275.505 33.5564C275.629 33.4996 275.733 33.419 275.816 33.3145C275.901 33.2099 275.961 33.0841 275.994 32.937H276.768C276.74 33.2011 276.654 33.4368 276.51 33.6441C276.367 33.8514 276.174 34.0145 275.933 34.1332C275.694 34.252 275.413 34.3114 275.09 34.3114ZM279.524 30.1456V30.7836H277.294V30.1456H279.524ZM277.892 29.1673H278.687V33.03C278.687 33.1842 278.71 33.3003 278.756 33.3783C278.802 33.4545 278.861 33.5068 278.934 33.5351C279.008 33.5617 279.089 33.575 279.176 33.575C279.24 33.575 279.295 33.5706 279.343 33.5617C279.391 33.5529 279.428 33.5457 279.455 33.5404L279.598 34.197C279.552 34.2148 279.487 34.2325 279.402 34.2502C279.317 34.2697 279.21 34.2803 279.083 34.2821C278.873 34.2857 278.679 34.2485 278.498 34.1705C278.317 34.0925 278.171 33.972 278.06 33.8089C277.948 33.6459 277.892 33.4412 277.892 33.1949V29.1673ZM282.99 32.5355V30.1456H283.787V34.229H283.006V33.5218H282.963C282.869 33.7398 282.719 33.9215 282.512 34.0668C282.306 34.2103 282.05 34.2821 281.743 34.2821C281.481 34.2821 281.249 34.2245 281.046 34.1093C280.846 33.9923 280.689 33.8196 280.573 33.5909C280.46 33.3623 280.403 33.0796 280.403 32.7429V30.1456H281.198V32.6472C281.198 32.9255 281.275 33.147 281.429 33.3118C281.584 33.4766 281.784 33.5591 282.03 33.5591C282.179 33.5591 282.327 33.5218 282.474 33.4474C282.623 33.3729 282.746 33.2604 282.844 33.1098C282.943 32.9591 282.992 32.7677 282.99 32.5355ZM284.855 34.229V30.1456H285.624V30.7943H285.666C285.741 30.5745 285.872 30.4017 286.06 30.2759C286.249 30.1483 286.464 30.0845 286.703 30.0845C286.753 30.0845 286.811 30.0862 286.879 30.0898C286.948 30.0934 287.002 30.0977 287.041 30.1031V30.8634C287.009 30.8545 286.952 30.8448 286.871 30.8342C286.789 30.8218 286.708 30.8156 286.626 30.8156C286.438 30.8156 286.271 30.8554 286.124 30.9352C285.978 31.0131 285.863 31.1222 285.778 31.2622C285.693 31.4004 285.65 31.5581 285.65 31.7353V34.229H284.855ZM289.342 34.3114C288.94 34.3114 288.594 34.2254 288.303 34.0535C288.014 33.8798 287.79 33.6361 287.633 33.3224C287.477 33.007 287.399 32.6375 287.399 32.2139C287.399 31.7956 287.477 31.427 287.633 31.108C287.79 30.789 288.01 30.54 288.292 30.3609C288.576 30.182 288.907 30.0925 289.287 30.0925C289.517 30.0925 289.74 30.1306 289.957 30.2068C290.173 30.283 290.367 30.4026 290.538 30.5656C290.711 30.7287 290.846 30.9405 290.945 31.201C291.045 31.4598 291.094 31.7744 291.094 32.1448V32.4266H287.848V31.831H290.315C290.315 31.6219 290.273 31.4367 290.188 31.2755C290.103 31.1124 289.983 30.9839 289.829 30.89C289.676 30.796 289.497 30.7491 289.292 30.7491C289.068 30.7491 288.874 30.804 288.707 30.9139C288.542 31.022 288.414 31.1638 288.324 31.3393C288.235 31.5129 288.191 31.7017 288.191 31.9055V32.3707C288.191 32.6437 288.239 32.8758 288.335 33.0672C288.432 33.2586 288.568 33.4048 288.742 33.5058C288.915 33.6051 289.118 33.6547 289.35 33.6547C289.501 33.6547 289.638 33.6335 289.762 33.5909C289.887 33.5466 289.993 33.481 290.084 33.3942C290.174 33.3074 290.244 33.2001 290.291 33.0726L291.044 33.2081C290.983 33.4297 290.875 33.6237 290.719 33.7903C290.565 33.9551 290.371 34.0836 290.137 34.1758C289.905 34.2662 289.64 34.3114 289.342 34.3114Z" fill="white"/>
</g>
<path d="M220.802 89.0208L224.096 81.9261C224.317 81.5422 224.004 81 223.561 81H216.439C215.995 81 215.683 81.5422 215.904 81.9261L219.198 89.0208H220.802ZM219.198 120.853C219.198 121.296 219.557 121.655 220 121.655C220.443 121.655 220.802 121.296 220.802 120.853H219.198ZM219.198 88.2187V120.853H220.802V88.2187H219.198Z" fill="#CECCCC"/>
<path d="M220.802 89.0208L224.096 81.9261C224.317 81.5422 224.004 81 223.561 81H216.439C215.995 81 215.683 81.5422 215.904 81.9261L219.198 89.0208H220.802ZM219.198 120.853C219.198 121.296 219.557 121.655 220 121.655C220.443 121.655 220.802 121.296 220.802 120.853H219.198ZM219.198 88.2187V120.853H220.802V88.2187H219.198Z" fill="url(#paint0_linear_10194_13340)"/>
<defs>
<filter id="filter0_d_10194_13340" x="138.878" y="119.94" width="162.245" height="51.2748" filterUnits="userSpaceOnUse" color-interpolation-filters="sRGB">
<feFlood flood-opacity="0" result="BackgroundImageFix"/>
<feColorMatrix in="SourceAlpha" type="matrix" values="0 0 0 0 0 0 0 0 0 0 0 0 0 0 0 0 0 0 127 0" result="hardAlpha"/>
<feOffset/>
<feGaussianBlur stdDeviation="1.92758"/>
<feColorMatrix type="matrix" values="0 0 0 0 0.72549 0 0 0 0 0.0941176 0 0 0 0 0.105882 0 0 0 0.8 0"/>
<feBlend mode="normal" in2="BackgroundImageFix" result="effect1_dropShadow_10194_13340"/>
<feBlend mode="normal" in="SourceGraphic" in2="effect1_dropShadow_10194_13340" result="shape"/>
</filter>
<filter id="filter1_d_10194_13340" x="140.973" y="211.332" width="158.054" height="47.0835" filterUnits="userSpaceOnUse" color-interpolation-filters="sRGB">
<feFlood flood-opacity="0" result="BackgroundImageFix"/>
<feColorMatrix in="SourceAlpha" type="matrix" values="0 0 0 0 0 0 0 0 0 0 0 0 0 0 0 0 0 0 127 0" result="hardAlpha"/>
<feOffset/>
<feGaussianBlur stdDeviation="1.01355"/>
<feComposite in2="hardAlpha" operator="out"/>
<feColorMatrix type="matrix" values="0 0 0 0 0.53 0 0 0 0 0.53 0 0 0 0 0.53 0 0 0 1 0"/>
<feBlend mode="normal" in2="BackgroundImageFix" result="effect1_dropShadow_10194_13340"/>
<feBlend mode="normal" in="SourceGraphic" in2="effect1_dropShadow_10194_13340" result="shape"/>
</filter>
<filter id="filter2_d_10194_13340" x="140.973" y="32.7366" width="158.054" height="47.0835" filterUnits="userSpaceOnUse" color-interpolation-filters="sRGB">
<feFlood flood-opacity="0" result="BackgroundImageFix"/>
<feColorMatrix in="SourceAlpha" type="matrix" values="0 0 0 0 0 0 0 0 0 0 0 0 0 0 0 0 0 0 127 0" result="hardAlpha"/>
<feOffset/>
<feGaussianBlur stdDeviation="1.01355"/>
<feComposite in2="hardAlpha" operator="out"/>
<feColorMatrix type="matrix" values="0 0 0 0 0.53 0 0 0 0 0.53 0 0 0 0 0.53 0 0 0 1 0"/>
<feBlend mode="normal" in2="BackgroundImageFix" result="effect1_dropShadow_10194_13340"/>
<feBlend mode="normal" in="SourceGraphic" in2="effect1_dropShadow_10194_13340" result="shape"/>
</filter>
<filter id="filter3_d_10194_13340" x="224.925" y="22.0413" width="74.1028" height="19.562" filterUnits="userSpaceOnUse" color-interpolation-filters="sRGB">
<feFlood flood-opacity="0" result="BackgroundImageFix"/>
<feColorMatrix in="SourceAlpha" type="matrix" values="0 0 0 0 0 0 0 0 0 0 0 0 0 0 0 0 0 0 127 0" result="hardAlpha"/>
<feOffset/>
<feGaussianBlur stdDeviation="1.01355"/>
<feComposite in2="hardAlpha" operator="out"/>
<feColorMatrix type="matrix" values="0 0 0 0 0.53 0 0 0 0 0.53 0 0 0 0 0.53 0 0 0 1 0"/>
<feBlend mode="normal" in2="BackgroundImageFix" result="effect1_dropShadow_10194_13340"/>
<feBlend mode="normal" in="SourceGraphic" in2="effect1_dropShadow_10194_13340" result="shape"/>
</filter>
<linearGradient id="paint0_linear_10194_13340" x1="225.081" y1="84.6362" x2="225.081" y2="159.35" gradientUnits="userSpaceOnUse">
<stop stop-color="#DDDDDD" stop-opacity="0.87"/>
<stop offset="1" stop-color="#B9181B" stop-opacity="0.6"/>
</linearGradient>
</defs>
</svg>
