<svg width="197" height="215" viewBox="0 0 197 215" fill="none" xmlns="http://www.w3.org/2000/svg">
<path d="M9.48025 7.49333C9.48025 7.96444 9.36913 8.40889 9.14691 8.82667C8.92469 9.24444 8.56913 9.58667 8.08024 9.85333C7.59136 10.1111 6.96469 10.24 6.20024 10.24H4.52024V14H3.00024V4.73333H6.20024C6.91136 4.73333 7.51136 4.85778 8.00024 5.10667C8.49802 5.34667 8.86691 5.67555 9.10691 6.09333C9.3558 6.51111 9.48025 6.97778 9.48025 7.49333ZM6.20024 9C6.77802 9 7.20913 8.87111 7.49358 8.61333C7.77802 8.34667 7.92024 7.97333 7.92024 7.49333C7.92024 6.48 7.34691 5.97333 6.20024 5.97333H4.52024V9H6.20024ZM12.5499 7.72C12.7722 7.34667 13.0655 7.05778 13.4299 6.85333C13.8033 6.64 14.2433 6.53333 14.7499 6.53333V8.10667H14.3633C13.7677 8.10667 13.3144 8.25778 13.0033 8.56C12.701 8.86222 12.5499 9.38667 12.5499 10.1333V14H11.0299V6.65333H12.5499V7.72ZM17.0205 5.68C16.7449 5.68 16.5138 5.58667 16.3271 5.4C16.1405 5.21333 16.0471 4.98222 16.0471 4.70667C16.0471 4.43111 16.1405 4.2 16.3271 4.01333C16.5138 3.82667 16.7449 3.73333 17.0205 3.73333C17.2871 3.73333 17.5138 3.82667 17.7005 4.01333C17.8871 4.2 17.9805 4.43111 17.9805 4.70667C17.9805 4.98222 17.8871 5.21333 17.7005 5.4C17.5138 5.58667 17.2871 5.68 17.0205 5.68ZM17.7671 6.65333V14H16.2471V6.65333H17.7671ZM28.7561 6.53333C29.3339 6.53333 29.8494 6.65333 30.3027 6.89333C30.765 7.13333 31.125 7.48889 31.3827 7.96C31.6494 8.43111 31.7827 9 31.7827 9.66667V14H30.2761V9.89333C30.2761 9.23555 30.1116 8.73333 29.7827 8.38667C29.4539 8.03111 29.005 7.85333 28.4361 7.85333C27.8672 7.85333 27.4139 8.03111 27.0761 8.38667C26.7472 8.73333 26.5827 9.23555 26.5827 9.89333V14H25.0761V9.89333C25.0761 9.23555 24.9116 8.73333 24.5827 8.38667C24.2539 8.03111 23.805 7.85333 23.2361 7.85333C22.6672 7.85333 22.2139 8.03111 21.8761 8.38667C21.5472 8.73333 21.3827 9.23555 21.3827 9.89333V14H19.8627V6.65333H21.3827V7.49333C21.6316 7.19111 21.9472 6.95556 22.3294 6.78667C22.7116 6.61778 23.1205 6.53333 23.5561 6.53333C24.1427 6.53333 24.6672 6.65778 25.1294 6.90667C25.5916 7.15556 25.9472 7.51556 26.1961 7.98667C26.4183 7.54222 26.765 7.19111 27.2361 6.93333C27.7072 6.66667 28.2139 6.53333 28.7561 6.53333ZM33.3102 10.2933C33.3102 9.55555 33.4614 8.90222 33.7636 8.33333C34.0747 7.76444 34.4925 7.32444 35.0169 7.01333C35.5502 6.69333 36.1369 6.53333 36.7769 6.53333C37.3547 6.53333 37.8569 6.64889 38.2836 6.88C38.7191 7.10222 39.0658 7.38222 39.3236 7.72V6.65333H40.8569V14H39.3236V12.9067C39.0658 13.2533 38.7147 13.5422 38.2702 13.7733C37.8258 14.0044 37.3191 14.12 36.7502 14.12C36.1191 14.12 35.5414 13.96 35.0169 13.64C34.4925 13.3111 34.0747 12.8578 33.7636 12.28C33.4614 11.6933 33.3102 11.0311 33.3102 10.2933ZM39.3236 10.32C39.3236 9.81333 39.2169 9.37333 39.0036 9C38.7991 8.62667 38.528 8.34222 38.1902 8.14667C37.8525 7.95111 37.488 7.85333 37.0969 7.85333C36.7058 7.85333 36.3414 7.95111 36.0036 8.14667C35.6658 8.33333 35.3902 8.61333 35.1769 8.98667C34.9725 9.35111 34.8702 9.78667 34.8702 10.2933C34.8702 10.8 34.9725 11.2444 35.1769 11.6267C35.3902 12.0089 35.6658 12.3022 36.0036 12.5067C36.3502 12.7022 36.7147 12.8 37.0969 12.8C37.488 12.8 37.8525 12.7022 38.1902 12.5067C38.528 12.3111 38.7991 12.0267 39.0036 11.6533C39.2169 11.2711 39.3236 10.8267 39.3236 10.32ZM44.4734 7.72C44.6956 7.34667 44.9889 7.05778 45.3534 6.85333C45.7267 6.64 46.1667 6.53333 46.6734 6.53333V8.10667H46.2867C45.6912 8.10667 45.2378 8.25778 44.9267 8.56C44.6245 8.86222 44.4734 9.38667 44.4734 10.1333V14H42.9534V6.65333H44.4734V7.72ZM54.7839 6.65333L50.2772 17.4533H48.7039L50.1972 13.88L47.3039 6.65333H48.9972L51.0639 12.2533L53.2106 6.65333H54.7839ZM59.0879 10.2933C59.0879 9.55555 59.239 8.90222 59.5412 8.33333C59.8523 7.76444 60.2701 7.32444 60.7945 7.01333C61.3279 6.69333 61.9145 6.53333 62.5545 6.53333C63.1323 6.53333 63.6345 6.64889 64.0612 6.88C64.4967 7.10222 64.8434 7.38222 65.1012 7.72V6.65333H66.6345V14H65.1012V12.9067C64.8434 13.2533 64.4923 13.5422 64.0479 13.7733C63.6034 14.0044 63.0967 14.12 62.5279 14.12C61.8967 14.12 61.319 13.96 60.7945 13.64C60.2701 13.3111 59.8523 12.8578 59.5412 12.28C59.239 11.6933 59.0879 11.0311 59.0879 10.2933ZM65.1012 10.32C65.1012 9.81333 64.9945 9.37333 64.7812 9C64.5767 8.62667 64.3056 8.34222 63.9679 8.14667C63.6301 7.95111 63.2656 7.85333 62.8745 7.85333C62.4834 7.85333 62.119 7.95111 61.7812 8.14667C61.4434 8.33333 61.1679 8.61333 60.9545 8.98667C60.7501 9.35111 60.6479 9.78667 60.6479 10.2933C60.6479 10.8 60.7501 11.2444 60.9545 11.6267C61.1679 12.0089 61.4434 12.3022 61.7812 12.5067C62.1279 12.7022 62.4923 12.8 62.8745 12.8C63.2656 12.8 63.6301 12.7022 63.9679 12.5067C64.3056 12.3111 64.5767 12.0267 64.7812 11.6533C64.9945 11.2711 65.1012 10.8267 65.1012 10.32ZM72.4376 6.53333C73.0154 6.53333 73.531 6.65333 73.9843 6.89333C74.4465 7.13333 74.8065 7.48889 75.0643 7.96C75.3221 8.43111 75.451 9 75.451 9.66667V14H73.9443V9.89333C73.9443 9.23555 73.7799 8.73333 73.451 8.38667C73.1221 8.03111 72.6732 7.85333 72.1043 7.85333C71.5354 7.85333 71.0821 8.03111 70.7443 8.38667C70.4154 8.73333 70.251 9.23555 70.251 9.89333V14H68.731V6.65333H70.251V7.49333C70.4999 7.19111 70.8154 6.95556 71.1976 6.78667C71.5888 6.61778 72.0021 6.53333 72.4376 6.53333ZM76.9832 10.2933C76.9832 9.55555 77.1343 8.90222 77.4365 8.33333C77.7476 7.76444 78.1654 7.32444 78.6898 7.01333C79.2232 6.69333 79.8143 6.53333 80.4632 6.53333C80.9432 6.53333 81.4143 6.64 81.8765 6.85333C82.3476 7.05778 82.7209 7.33333 82.9965 7.68V4.13333H84.5298V14H82.9965V12.8933C82.7476 13.2489 82.4009 13.5422 81.9565 13.7733C81.5209 14.0044 81.0187 14.12 80.4498 14.12C79.8098 14.12 79.2232 13.96 78.6898 13.64C78.1654 13.3111 77.7476 12.8578 77.4365 12.28C77.1343 11.6933 76.9832 11.0311 76.9832 10.2933ZM82.9965 10.32C82.9965 9.81333 82.8898 9.37333 82.6765 9C82.4721 8.62667 82.2009 8.34222 81.8632 8.14667C81.5254 7.95111 81.1609 7.85333 80.7698 7.85333C80.3787 7.85333 80.0143 7.95111 79.6765 8.14667C79.3387 8.33333 79.0632 8.61333 78.8498 8.98667C78.6454 9.35111 78.5432 9.78667 78.5432 10.2933C78.5432 10.8 78.6454 11.2444 78.8498 11.6267C79.0632 12.0089 79.3387 12.3022 79.6765 12.5067C80.0232 12.7022 80.3876 12.8 80.7698 12.8C81.1609 12.8 81.5254 12.7022 81.8632 12.5067C82.2009 12.3111 82.4721 12.0267 82.6765 11.6533C82.8898 11.2711 82.9965 10.8267 82.9965 10.32ZM92.8565 14.12C92.2787 14.12 91.7587 14.0178 91.2965 13.8133C90.8432 13.6 90.4832 13.3156 90.2165 12.96C89.9498 12.5956 89.8076 12.1911 89.7898 11.7467H91.3632C91.3898 12.0578 91.5365 12.32 91.8032 12.5333C92.0787 12.7378 92.4209 12.84 92.8298 12.84C93.2565 12.84 93.5854 12.76 93.8165 12.6C94.0565 12.4311 94.1765 12.2178 94.1765 11.96C94.1765 11.6844 94.0432 11.48 93.7765 11.3467C93.5187 11.2133 93.1054 11.0667 92.5365 10.9067C91.9854 10.7556 91.5365 10.6089 91.1898 10.4667C90.8432 10.3244 90.5409 10.1067 90.2832 9.81333C90.0343 9.52 89.9098 9.13333 89.9098 8.65333C89.9098 8.26222 90.0254 7.90667 90.2565 7.58667C90.4876 7.25778 90.8165 7 91.2432 6.81333C91.6787 6.62667 92.1765 6.53333 92.7365 6.53333C93.5721 6.53333 94.2432 6.74667 94.7498 7.17333C95.2654 7.59111 95.5409 8.16444 95.5765 8.89333H94.0565C94.0298 8.56444 93.8965 8.30222 93.6565 8.10667C93.4165 7.91111 93.0921 7.81333 92.6832 7.81333C92.2832 7.81333 91.9765 7.88889 91.7632 8.04C91.5498 8.19111 91.4432 8.39111 91.4432 8.64C91.4432 8.83556 91.5143 9 91.6565 9.13333C91.7987 9.26667 91.9721 9.37333 92.1765 9.45333C92.3809 9.52444 92.6832 9.61778 93.0832 9.73333C93.6165 9.87556 94.0521 10.0222 94.3898 10.1733C94.7365 10.3156 95.0343 10.5289 95.2832 10.8133C95.5321 11.0978 95.6609 11.4756 95.6698 11.9467C95.6698 12.3644 95.5543 12.7378 95.3232 13.0667C95.0921 13.3956 94.7632 13.6533 94.3365 13.84C93.9187 14.0267 93.4254 14.12 92.8565 14.12ZM101.212 6.53333C101.772 6.53333 102.27 6.65333 102.706 6.89333C103.15 7.13333 103.497 7.48889 103.746 7.96C104.003 8.43111 104.132 9 104.132 9.66667V14H102.626V9.89333C102.626 9.23555 102.461 8.73333 102.132 8.38667C101.803 8.03111 101.354 7.85333 100.786 7.85333C100.217 7.85333 99.7633 8.03111 99.4256 8.38667C99.0967 8.73333 98.9322 9.23555 98.9322 9.89333V14H97.4122V4.13333H98.9322V7.50667C99.19 7.19556 99.5145 6.95556 99.9056 6.78667C100.306 6.61778 100.741 6.53333 101.212 6.53333ZM105.664 10.2933C105.664 9.55555 105.816 8.90222 106.118 8.33333C106.429 7.76444 106.847 7.32444 107.371 7.01333C107.904 6.69333 108.491 6.53333 109.131 6.53333C109.709 6.53333 110.211 6.64889 110.638 6.88C111.073 7.10222 111.42 7.38222 111.678 7.72V6.65333H113.211V14H111.678V12.9067C111.42 13.2533 111.069 13.5422 110.624 13.7733C110.18 14.0044 109.673 14.12 109.104 14.12C108.473 14.12 107.896 13.96 107.371 13.64C106.847 13.3111 106.429 12.8578 106.118 12.28C105.816 11.6933 105.664 11.0311 105.664 10.2933ZM111.678 10.32C111.678 9.81333 111.571 9.37333 111.358 9C111.153 8.62667 110.882 8.34222 110.544 8.14667C110.207 7.95111 109.842 7.85333 109.451 7.85333C109.06 7.85333 108.696 7.95111 108.358 8.14667C108.02 8.33333 107.744 8.61333 107.531 8.98667C107.327 9.35111 107.224 9.78667 107.224 10.2933C107.224 10.8 107.327 11.2444 107.531 11.6267C107.744 12.0089 108.02 12.3022 108.358 12.5067C108.704 12.7022 109.069 12.8 109.451 12.8C109.842 12.8 110.207 12.7022 110.544 12.5067C110.882 12.3111 111.153 12.0267 111.358 11.6533C111.571 11.2711 111.678 10.8267 111.678 10.32ZM114.801 10.2933C114.801 9.55555 114.952 8.90222 115.254 8.33333C115.565 7.76444 115.983 7.32444 116.508 7.01333C117.041 6.69333 117.632 6.53333 118.281 6.53333C118.761 6.53333 119.232 6.64 119.694 6.85333C120.165 7.05778 120.539 7.33333 120.814 7.68V4.13333H122.348V14H120.814V12.8933C120.565 13.2489 120.219 13.5422 119.774 13.7733C119.339 14.0044 118.836 14.12 118.268 14.12C117.628 14.12 117.041 13.96 116.508 13.64C115.983 13.3111 115.565 12.8578 115.254 12.28C114.952 11.6933 114.801 11.0311 114.801 10.2933ZM120.814 10.32C120.814 9.81333 120.708 9.37333 120.494 9C120.29 8.62667 120.019 8.34222 119.681 8.14667C119.343 7.95111 118.979 7.85333 118.588 7.85333C118.196 7.85333 117.832 7.95111 117.494 8.14667C117.156 8.33333 116.881 8.61333 116.668 8.98667C116.463 9.35111 116.361 9.78667 116.361 10.2933C116.361 10.8 116.463 11.2444 116.668 11.6267C116.881 12.0089 117.156 12.3022 117.494 12.5067C117.841 12.7022 118.205 12.8 118.588 12.8C118.979 12.8 119.343 12.7022 119.681 12.5067C120.019 12.3111 120.29 12.0267 120.494 11.6533C120.708 11.2711 120.814 10.8267 120.814 10.32ZM131.177 10.1467C131.177 10.4222 131.16 10.6711 131.124 10.8933H125.511C125.555 11.48 125.773 11.9511 126.164 12.3067C126.555 12.6622 127.035 12.84 127.604 12.84C128.422 12.84 129 12.4978 129.337 11.8133H130.977C130.755 12.4889 130.351 13.0444 129.764 13.48C129.186 13.9067 128.466 14.12 127.604 14.12C126.902 14.12 126.271 13.9644 125.711 13.6533C125.16 13.3333 124.724 12.8889 124.404 12.32C124.093 11.7422 123.937 11.0756 123.937 10.32C123.937 9.56444 124.088 8.90222 124.391 8.33333C124.702 7.75556 125.133 7.31111 125.684 7C126.244 6.68889 126.884 6.53333 127.604 6.53333C128.297 6.53333 128.915 6.68444 129.457 6.98667C130 7.28889 130.422 7.71556 130.724 8.26667C131.026 8.80889 131.177 9.43556 131.177 10.1467ZM129.591 9.66667C129.582 9.10667 129.382 8.65778 128.991 8.32C128.6 7.98222 128.115 7.81333 127.537 7.81333C127.013 7.81333 126.564 7.98222 126.191 8.32C125.817 8.64889 125.595 9.09778 125.524 9.66667H129.591ZM135.44 14.12C134.862 14.12 134.342 14.0178 133.88 13.8133C133.426 13.6 133.066 13.3156 132.8 12.96C132.533 12.5956 132.391 12.1911 132.373 11.7467H133.946C133.973 12.0578 134.12 12.32 134.386 12.5333C134.662 12.7378 135.004 12.84 135.413 12.84C135.84 12.84 136.169 12.76 136.4 12.6C136.64 12.4311 136.76 12.2178 136.76 11.96C136.76 11.6844 136.626 11.48 136.36 11.3467C136.102 11.2133 135.689 11.0667 135.12 10.9067C134.569 10.7556 134.12 10.6089 133.773 10.4667C133.426 10.3244 133.124 10.1067 132.866 9.81333C132.618 9.52 132.493 9.13333 132.493 8.65333C132.493 8.26222 132.609 7.90667 132.84 7.58667C133.071 7.25778 133.4 7 133.826 6.81333C134.262 6.62667 134.76 6.53333 135.32 6.53333C136.155 6.53333 136.826 6.74667 137.333 7.17333C137.849 7.59111 138.124 8.16444 138.16 8.89333H136.64C136.613 8.56444 136.48 8.30222 136.24 8.10667C136 7.91111 135.675 7.81333 135.266 7.81333C134.866 7.81333 134.56 7.88889 134.346 8.04C134.133 8.19111 134.026 8.39111 134.026 8.64C134.026 8.83556 134.098 9 134.24 9.13333C134.382 9.26667 134.555 9.37333 134.76 9.45333C134.964 9.52444 135.266 9.61778 135.666 9.73333C136.2 9.87556 136.635 10.0222 136.973 10.1733C137.32 10.3156 137.618 10.5289 137.866 10.8133C138.115 11.0978 138.244 11.4756 138.253 11.9467C138.253 12.3644 138.138 12.7378 137.906 13.0667C137.675 13.3956 137.346 13.6533 136.92 13.84C136.502 14.0267 136.009 14.12 135.44 14.12Z" fill="#292929"/>
<path d="M164.667 25.332H180.667C189.503 25.332 196.667 32.4955 196.667 41.332V41.332C196.667 50.1686 189.503 57.332 180.667 57.332H164.667V25.332Z" fill="#FFF8EB"/>
<path d="M148.667 25.332H164.667C173.503 25.332 180.667 32.4955 180.667 41.332V41.332C180.667 50.1686 173.503 57.332 164.667 57.332H148.667V25.332Z" fill="#FEF1D5"/>
<path d="M132.667 25.332H148.667C157.503 25.332 164.667 32.4955 164.667 41.332V41.332C164.667 50.1686 157.503 57.332 148.667 57.332H132.667V25.332Z" fill="#FDDFAC"/>
<path d="M116.667 25.332H132.667C141.503 25.332 148.667 32.4955 148.667 41.332V41.332C148.667 50.1686 141.503 57.332 132.667 57.332H116.667V25.332Z" fill="#FBC782"/>
<path d="M100.667 25.332H116.667C125.503 25.332 132.667 32.4955 132.667 41.332V41.332C132.667 50.1686 125.503 57.332 116.667 57.332H100.667V25.332Z" fill="#F7B062"/>
<path d="M84.6667 25.332H100.667C109.503 25.332 116.667 32.4955 116.667 41.332V41.332C116.667 50.1686 109.503 57.332 100.667 57.332H84.6667V25.332Z" fill="#F28B30"/>
<path d="M68.6667 25.332H84.6667C93.5033 25.332 100.667 32.4955 100.667 41.332V41.332C100.667 50.1686 93.5033 57.332 84.6667 57.332H68.6667V25.332Z" fill="#D06B23"/>
<path d="M52.6667 25.332H68.6667C77.5033 25.332 84.6667 32.4955 84.6667 41.332V41.332C84.6667 50.1686 77.5033 57.332 68.6667 57.332H52.6667V25.332Z" fill="#AE4E18"/>
<path d="M36.6667 25.332H52.6667C61.5033 25.332 68.6667 32.4955 68.6667 41.332V41.332C68.6667 50.1686 61.5033 57.332 52.6667 57.332H36.6667V25.332Z" fill="#8C360F"/>
<path d="M20.6667 41.332C20.6667 32.4955 27.8302 25.332 36.6667 25.332V25.332C45.5033 25.332 52.6667 32.4955 52.6667 41.332V41.332C52.6667 50.1686 45.5033 57.332 36.6667 57.332V57.332C27.8302 57.332 20.6667 50.1686 20.6667 41.332V41.332Z" fill="#742409"/>
<circle cx="18.0002" cy="41.332" r="17" fill="#F28B30" stroke="#292929" stroke-width="2"/>
<path d="M6.05358 92.7613C5.43136 92.7613 4.87136 92.6546 4.37358 92.4413C3.8758 92.2191 3.48469 91.908 3.20024 91.508C2.9158 91.108 2.77358 90.6413 2.77358 90.108H4.40024C4.4358 90.508 4.59136 90.8369 4.86691 91.0946C5.15136 91.3524 5.54691 91.4813 6.05358 91.4813C6.57802 91.4813 6.98691 91.3569 7.28024 91.108C7.57358 90.8502 7.72024 90.5213 7.72024 90.1213C7.72024 89.8102 7.62691 89.5569 7.44024 89.3613C7.26247 89.1657 7.0358 89.0146 6.76024 88.908C6.49358 88.8013 6.12024 88.6857 5.64024 88.5613C5.0358 88.4013 4.54247 88.2413 4.16024 88.0813C3.78691 87.9124 3.46691 87.6546 3.20024 87.308C2.93358 86.9613 2.80024 86.4991 2.80024 85.9213C2.80024 85.388 2.93358 84.9213 3.20024 84.5213C3.46691 84.1213 3.84024 83.8146 4.32024 83.6013C4.80024 83.388 5.3558 83.2813 5.98691 83.2813C6.88469 83.2813 7.61802 83.508 8.18691 83.9613C8.76469 84.4057 9.08469 85.0191 9.14691 85.8013H7.46691C7.44024 85.4635 7.28024 85.1746 6.98691 84.9346C6.69358 84.6946 6.30691 84.5746 5.82691 84.5746C5.39136 84.5746 5.0358 84.6857 4.76024 84.908C4.48469 85.1302 4.34691 85.4502 4.34691 85.868C4.34691 86.1524 4.43136 86.388 4.60024 86.5746C4.77802 86.7524 5.00024 86.8946 5.26691 87.0013C5.53358 87.108 5.89802 87.2235 6.36024 87.348C6.97358 87.5169 7.47136 87.6857 7.85358 87.8546C8.24469 88.0235 8.57358 88.2857 8.84024 88.6413C9.1158 88.988 9.25358 89.4546 9.25358 90.0413C9.25358 90.5124 9.12469 90.9569 8.86691 91.3746C8.61802 91.7924 8.24913 92.1302 7.76024 92.388C7.28024 92.6369 6.71136 92.7613 6.05358 92.7613ZM17.8805 88.8146C17.8805 89.0902 17.8627 89.3391 17.8271 89.5613H12.2138C12.2582 90.148 12.476 90.6191 12.8671 90.9746C13.2582 91.3302 13.7382 91.508 14.3071 91.508C15.1249 91.508 15.7027 91.1657 16.0405 90.4813H17.6805C17.4582 91.1569 17.0538 91.7124 16.4671 92.148C15.8893 92.5746 15.1693 92.788 14.3071 92.788C13.6049 92.788 12.9738 92.6324 12.4138 92.3213C11.8627 92.0013 11.4271 91.5569 11.1071 90.988C10.796 90.4102 10.6405 89.7435 10.6405 88.988C10.6405 88.2324 10.7916 87.5702 11.0938 87.0013C11.4049 86.4235 11.836 85.9791 12.3871 85.668C12.9471 85.3569 13.5871 85.2013 14.3071 85.2013C15.0005 85.2013 15.6182 85.3524 16.1605 85.6546C16.7027 85.9569 17.1249 86.3835 17.4271 86.9346C17.7293 87.4769 17.8805 88.1035 17.8805 88.8146ZM16.2938 88.3346C16.2849 87.7746 16.0849 87.3257 15.6938 86.988C15.3027 86.6502 14.8182 86.4813 14.2405 86.4813C13.716 86.4813 13.2671 86.6502 12.8938 86.988C12.5205 87.3169 12.2982 87.7657 12.2271 88.3346H16.2938ZM18.9696 88.988C18.9696 88.2324 19.1207 87.5702 19.423 87.0013C19.7341 86.4235 20.1607 85.9791 20.703 85.668C21.2452 85.3569 21.8674 85.2013 22.5696 85.2013C23.4585 85.2013 24.1918 85.4146 24.7696 85.8413C25.3563 86.2591 25.7518 86.8591 25.9563 87.6413H24.3163C24.183 87.2769 23.9696 86.9924 23.6763 86.788C23.383 86.5835 23.0141 86.4813 22.5696 86.4813C21.9474 86.4813 21.4496 86.7035 21.0763 87.148C20.7118 87.5835 20.5296 88.1969 20.5296 88.988C20.5296 89.7791 20.7118 90.3969 21.0763 90.8413C21.4496 91.2857 21.9474 91.508 22.5696 91.508C23.4496 91.508 24.0318 91.1213 24.3163 90.348H25.9563C25.743 91.0946 25.343 91.6902 24.7563 92.1346C24.1696 92.5702 23.4407 92.788 22.5696 92.788C21.8674 92.788 21.2452 92.6324 20.703 92.3213C20.1607 92.0013 19.7341 91.5569 19.423 90.988C19.1207 90.4102 18.9696 89.7435 18.9696 88.988ZM30.7577 92.788C30.0644 92.788 29.4377 92.6324 28.8777 92.3213C28.3177 92.0013 27.8777 91.5569 27.5577 90.988C27.2377 90.4102 27.0777 89.7435 27.0777 88.988C27.0777 88.2413 27.2422 87.5791 27.5711 87.0013C27.9 86.4235 28.3489 85.9791 28.9177 85.668C29.4866 85.3569 30.1222 85.2013 30.8244 85.2013C31.5266 85.2013 32.1622 85.3569 32.7311 85.668C33.3 85.9791 33.7489 86.4235 34.0777 87.0013C34.4066 87.5791 34.5711 88.2413 34.5711 88.988C34.5711 89.7346 34.4022 90.3969 34.0644 90.9746C33.7266 91.5524 33.2644 92.0013 32.6777 92.3213C32.1 92.6324 31.46 92.788 30.7577 92.788ZM30.7577 91.468C31.1489 91.468 31.5133 91.3746 31.8511 91.188C32.1977 91.0013 32.4777 90.7213 32.6911 90.348C32.9044 89.9746 33.0111 89.5213 33.0111 88.988C33.0111 88.4546 32.9089 88.0057 32.7044 87.6413C32.5 87.268 32.2289 86.988 31.8911 86.8013C31.5533 86.6146 31.1889 86.5213 30.7977 86.5213C30.4066 86.5213 30.0422 86.6146 29.7044 86.8013C29.3755 86.988 29.1133 87.268 28.9177 87.6413C28.7222 88.0057 28.6244 88.4546 28.6244 88.988C28.6244 89.7791 28.8244 90.3924 29.2244 90.828C29.6333 91.2546 30.1444 91.468 30.7577 91.468ZM39.8804 85.2013C40.4581 85.2013 40.9737 85.3213 41.427 85.5613C41.8892 85.8013 42.2492 86.1569 42.507 86.628C42.7648 87.0991 42.8937 87.668 42.8937 88.3346V92.668H41.387V88.5613C41.387 87.9035 41.2226 87.4013 40.8937 87.0546C40.5648 86.6991 40.1159 86.5213 39.547 86.5213C38.9781 86.5213 38.5248 86.6991 38.187 87.0546C37.8581 87.4013 37.6937 87.9035 37.6937 88.5613V92.668H36.1737V85.3213H37.6937V86.1613C37.9426 85.8591 38.2581 85.6235 38.6404 85.4546C39.0315 85.2857 39.4448 85.2013 39.8804 85.2013ZM44.4259 88.9613C44.4259 88.2235 44.577 87.5702 44.8792 87.0013C45.1903 86.4324 45.6081 85.9924 46.1325 85.6813C46.6659 85.3613 47.257 85.2013 47.9059 85.2013C48.3859 85.2013 48.857 85.308 49.3192 85.5213C49.7903 85.7257 50.1636 86.0013 50.4392 86.348V82.8013H51.9725V92.668H50.4392V91.5613C50.1903 91.9169 49.8436 92.2102 49.3992 92.4413C48.9636 92.6724 48.4614 92.788 47.8925 92.788C47.2525 92.788 46.6659 92.628 46.1325 92.308C45.6081 91.9791 45.1903 91.5257 44.8792 90.948C44.577 90.3613 44.4259 89.6991 44.4259 88.9613ZM50.4392 88.988C50.4392 88.4813 50.3325 88.0413 50.1192 87.668C49.9148 87.2946 49.6436 87.0102 49.3059 86.8146C48.9681 86.6191 48.6036 86.5213 48.2125 86.5213C47.8214 86.5213 47.457 86.6191 47.1192 86.8146C46.7814 87.0013 46.5059 87.2813 46.2925 87.6546C46.0881 88.0191 45.9859 88.4546 45.9859 88.9613C45.9859 89.468 46.0881 89.9124 46.2925 90.2946C46.5059 90.6769 46.7814 90.9702 47.1192 91.1746C47.4659 91.3702 47.8303 91.468 48.2125 91.468C48.6036 91.468 48.9681 91.3702 49.3059 91.1746C49.6436 90.9791 49.9148 90.6946 50.1192 90.3213C50.3325 89.9391 50.4392 89.4946 50.4392 88.988ZM53.5623 88.9613C53.5623 88.2235 53.7134 87.5702 54.0157 87.0013C54.3268 86.4324 54.7446 85.9924 55.269 85.6813C55.8023 85.3613 56.389 85.2013 57.029 85.2013C57.6068 85.2013 58.109 85.3169 58.5357 85.548C58.9712 85.7702 59.3179 86.0502 59.5757 86.388V85.3213H61.109V92.668H59.5757V91.5746C59.3179 91.9213 58.9668 92.2102 58.5223 92.4413C58.0779 92.6724 57.5712 92.788 57.0023 92.788C56.3712 92.788 55.7934 92.628 55.269 92.308C54.7446 91.9791 54.3268 91.5257 54.0157 90.948C53.7134 90.3613 53.5623 89.6991 53.5623 88.9613ZM59.5757 88.988C59.5757 88.4813 59.469 88.0413 59.2557 87.668C59.0512 87.2946 58.7801 87.0102 58.4423 86.8146C58.1046 86.6191 57.7401 86.5213 57.349 86.5213C56.9579 86.5213 56.5934 86.6191 56.2557 86.8146C55.9179 87.0013 55.6423 87.2813 55.429 87.6546C55.2246 88.0191 55.1223 88.4546 55.1223 88.9613C55.1223 89.468 55.2246 89.9124 55.429 90.2946C55.6423 90.6769 55.9179 90.9702 56.2557 91.1746C56.6023 91.3702 56.9668 91.468 57.349 91.468C57.7401 91.468 58.1046 91.3702 58.4423 91.1746C58.7801 90.9791 59.0512 90.6946 59.2557 90.3213C59.469 89.9391 59.5757 89.4946 59.5757 88.988ZM64.7255 86.388C64.9477 86.0146 65.241 85.7257 65.6055 85.5213C65.9788 85.308 66.4188 85.2013 66.9255 85.2013V86.7746H66.5388C65.9432 86.7746 65.4899 86.9257 65.1788 87.228C64.8766 87.5302 64.7255 88.0546 64.7255 88.8013V92.668H63.2055V85.3213H64.7255V86.388ZM75.036 85.3213L70.5293 96.1213H68.956L70.4493 92.548L67.556 85.3213H69.2493L71.316 90.9213L73.4626 85.3213H75.036ZM79.3399 88.9613C79.3399 88.2235 79.491 87.5702 79.7933 87.0013C80.1044 86.4324 80.5222 85.9924 81.0466 85.6813C81.5799 85.3613 82.1666 85.2013 82.8066 85.2013C83.3844 85.2013 83.8866 85.3169 84.3133 85.548C84.7488 85.7702 85.0955 86.0502 85.3533 86.388V85.3213H86.8866V92.668H85.3533V91.5746C85.0955 91.9213 84.7444 92.2102 84.2999 92.4413C83.8555 92.6724 83.3488 92.788 82.7799 92.788C82.1488 92.788 81.571 92.628 81.0466 92.308C80.5222 91.9791 80.1044 91.5257 79.7933 90.948C79.491 90.3613 79.3399 89.6991 79.3399 88.9613ZM85.3533 88.988C85.3533 88.4813 85.2466 88.0413 85.0333 87.668C84.8288 87.2946 84.5577 87.0102 84.2199 86.8146C83.8822 86.6191 83.5177 86.5213 83.1266 86.5213C82.7355 86.5213 82.371 86.6191 82.0333 86.8146C81.6955 87.0013 81.4199 87.2813 81.2066 87.6546C81.0022 88.0191 80.8999 88.4546 80.8999 88.9613C80.8999 89.468 81.0022 89.9124 81.2066 90.2946C81.4199 90.6769 81.6955 90.9702 82.0333 91.1746C82.3799 91.3702 82.7444 91.468 83.1266 91.468C83.5177 91.468 83.8822 91.3702 84.2199 91.1746C84.5577 90.9791 84.8288 90.6946 85.0333 90.3213C85.2466 89.9391 85.3533 89.4946 85.3533 88.988ZM92.6897 85.2013C93.2675 85.2013 93.7831 85.3213 94.2364 85.5613C94.6986 85.8013 95.0586 86.1569 95.3164 86.628C95.5742 87.0991 95.7031 87.668 95.7031 88.3346V92.668H94.1964V88.5613C94.1964 87.9035 94.032 87.4013 93.7031 87.0546C93.3742 86.6991 92.9253 86.5213 92.3564 86.5213C91.7875 86.5213 91.3342 86.6991 90.9964 87.0546C90.6675 87.4013 90.5031 87.9035 90.5031 88.5613V92.668H88.9831V85.3213H90.5031V86.1613C90.752 85.8591 91.0675 85.6235 91.4497 85.4546C91.8408 85.2857 92.2542 85.2013 92.6897 85.2013ZM97.2352 88.9613C97.2352 88.2235 97.3864 87.5702 97.6886 87.0013C97.9997 86.4324 98.4175 85.9924 98.9419 85.6813C99.4752 85.3613 100.066 85.2013 100.715 85.2013C101.195 85.2013 101.666 85.308 102.129 85.5213C102.6 85.7257 102.973 86.0013 103.249 86.348V82.8013H104.782V92.668H103.249V91.5613C103 91.9169 102.653 92.2102 102.209 92.4413C101.773 92.6724 101.271 92.788 100.702 92.788C100.062 92.788 99.4752 92.628 98.9419 92.308C98.4175 91.9791 97.9997 91.5257 97.6886 90.948C97.3864 90.3613 97.2352 89.6991 97.2352 88.9613ZM103.249 88.988C103.249 88.4813 103.142 88.0413 102.929 87.668C102.724 87.2946 102.453 87.0102 102.115 86.8146C101.777 86.6191 101.413 86.5213 101.022 86.5213C100.631 86.5213 100.266 86.6191 99.9286 86.8146C99.5908 87.0013 99.3152 87.2813 99.1019 87.6546C98.8975 88.0191 98.7952 88.4546 98.7952 88.9613C98.7952 89.468 98.8975 89.9124 99.1019 90.2946C99.3152 90.6769 99.5908 90.9702 99.9286 91.1746C100.275 91.3702 100.64 91.468 101.022 91.468C101.413 91.468 101.777 91.3702 102.115 91.1746C102.453 90.9791 102.724 90.6946 102.929 90.3213C103.142 89.9391 103.249 89.4946 103.249 88.988ZM113.109 92.788C112.531 92.788 112.011 92.6857 111.549 92.4813C111.095 92.268 110.735 91.9835 110.469 91.628C110.202 91.2635 110.06 90.8591 110.042 90.4146H111.615C111.642 90.7257 111.789 90.988 112.055 91.2013C112.331 91.4057 112.673 91.508 113.082 91.508C113.509 91.508 113.837 91.428 114.069 91.268C114.309 91.0991 114.429 90.8857 114.429 90.628C114.429 90.3524 114.295 90.148 114.029 90.0146C113.771 89.8813 113.357 89.7346 112.789 89.5746C112.237 89.4235 111.789 89.2769 111.442 89.1346C111.095 88.9924 110.793 88.7746 110.535 88.4813C110.286 88.188 110.162 87.8013 110.162 87.3213C110.162 86.9302 110.277 86.5746 110.509 86.2546C110.74 85.9257 111.069 85.668 111.495 85.4813C111.931 85.2946 112.429 85.2013 112.989 85.2013C113.824 85.2013 114.495 85.4146 115.002 85.8413C115.517 86.2591 115.793 86.8324 115.829 87.5613H114.309C114.282 87.2324 114.149 86.9702 113.909 86.7746C113.669 86.5791 113.344 86.4813 112.935 86.4813C112.535 86.4813 112.229 86.5569 112.015 86.708C111.802 86.8591 111.695 87.0591 111.695 87.308C111.695 87.5035 111.766 87.668 111.909 87.8013C112.051 87.9346 112.224 88.0413 112.429 88.1213C112.633 88.1924 112.935 88.2857 113.335 88.4013C113.869 88.5435 114.304 88.6902 114.642 88.8413C114.989 88.9835 115.286 89.1969 115.535 89.4813C115.784 89.7657 115.913 90.1435 115.922 90.6146C115.922 91.0324 115.806 91.4057 115.575 91.7346C115.344 92.0635 115.015 92.3213 114.589 92.508C114.171 92.6946 113.677 92.788 113.109 92.788ZM121.464 85.2013C122.024 85.2013 122.522 85.3213 122.958 85.5613C123.402 85.8013 123.749 86.1569 123.998 86.628C124.255 87.0991 124.384 87.668 124.384 88.3346V92.668H122.878V88.5613C122.878 87.9035 122.713 87.4013 122.384 87.0546C122.055 86.6991 121.607 86.5213 121.038 86.5213C120.469 86.5213 120.015 86.6991 119.678 87.0546C119.349 87.4013 119.184 87.9035 119.184 88.5613V92.668H117.664V82.8013H119.184V86.1746C119.442 85.8635 119.767 85.6235 120.158 85.4546C120.558 85.2857 120.993 85.2013 121.464 85.2013ZM125.916 88.9613C125.916 88.2235 126.068 87.5702 126.37 87.0013C126.681 86.4324 127.099 85.9924 127.623 85.6813C128.156 85.3613 128.743 85.2013 129.383 85.2013C129.961 85.2013 130.463 85.3169 130.89 85.548C131.325 85.7702 131.672 86.0502 131.93 86.388V85.3213H133.463V92.668H131.93V91.5746C131.672 91.9213 131.321 92.2102 130.876 92.4413C130.432 92.6724 129.925 92.788 129.356 92.788C128.725 92.788 128.148 92.628 127.623 92.308C127.099 91.9791 126.681 91.5257 126.37 90.948C126.068 90.3613 125.916 89.6991 125.916 88.9613ZM131.93 88.988C131.93 88.4813 131.823 88.0413 131.61 87.668C131.405 87.2946 131.134 87.0102 130.796 86.8146C130.459 86.6191 130.094 86.5213 129.703 86.5213C129.312 86.5213 128.948 86.6191 128.61 86.8146C128.272 87.0013 127.996 87.2813 127.783 87.6546C127.579 88.0191 127.476 88.4546 127.476 88.9613C127.476 89.468 127.579 89.9124 127.783 90.2946C127.996 90.6769 128.272 90.9702 128.61 91.1746C128.956 91.3702 129.321 91.468 129.703 91.468C130.094 91.468 130.459 91.3702 130.796 91.1746C131.134 90.9791 131.405 90.6946 131.61 90.3213C131.823 89.9391 131.93 89.4946 131.93 88.988ZM135.053 88.9613C135.053 88.2235 135.204 87.5702 135.506 87.0013C135.817 86.4324 136.235 85.9924 136.76 85.6813C137.293 85.3613 137.884 85.2013 138.533 85.2013C139.013 85.2013 139.484 85.308 139.946 85.5213C140.417 85.7257 140.791 86.0013 141.066 86.348V82.8013H142.6V92.668H141.066V91.5613C140.817 91.9169 140.471 92.2102 140.026 92.4413C139.591 92.6724 139.089 92.788 138.52 92.788C137.88 92.788 137.293 92.628 136.76 92.308C136.235 91.9791 135.817 91.5257 135.506 90.948C135.204 90.3613 135.053 89.6991 135.053 88.9613ZM141.066 88.988C141.066 88.4813 140.96 88.0413 140.746 87.668C140.542 87.2946 140.271 87.0102 139.933 86.8146C139.595 86.6191 139.231 86.5213 138.84 86.5213C138.449 86.5213 138.084 86.6191 137.746 86.8146C137.409 87.0013 137.133 87.2813 136.92 87.6546C136.715 88.0191 136.613 88.4546 136.613 88.9613C136.613 89.468 136.715 89.9124 136.92 90.2946C137.133 90.6769 137.409 90.9702 137.746 91.1746C138.093 91.3702 138.457 91.468 138.84 91.468C139.231 91.468 139.595 91.3702 139.933 91.1746C140.271 90.9791 140.542 90.6946 140.746 90.3213C140.96 89.9391 141.066 89.4946 141.066 88.988ZM151.429 88.8146C151.429 89.0902 151.412 89.3391 151.376 89.5613H145.763C145.807 90.148 146.025 90.6191 146.416 90.9746C146.807 91.3302 147.287 91.508 147.856 91.508C148.674 91.508 149.252 91.1657 149.589 90.4813H151.229C151.007 91.1569 150.603 91.7124 150.016 92.148C149.438 92.5746 148.718 92.788 147.856 92.788C147.154 92.788 146.523 92.6324 145.963 92.3213C145.412 92.0013 144.976 91.5569 144.656 90.988C144.345 90.4102 144.189 89.7435 144.189 88.988C144.189 88.2324 144.341 87.5702 144.643 87.0013C144.954 86.4235 145.385 85.9791 145.936 85.668C146.496 85.3569 147.136 85.2013 147.856 85.2013C148.549 85.2013 149.167 85.3524 149.709 85.6546C150.252 85.9569 150.674 86.3835 150.976 86.9346C151.278 87.4769 151.429 88.1035 151.429 88.8146ZM149.843 88.3346C149.834 87.7746 149.634 87.3257 149.243 86.988C148.852 86.6502 148.367 86.4813 147.789 86.4813C147.265 86.4813 146.816 86.6502 146.443 86.988C146.069 87.3169 145.847 87.7657 145.776 88.3346H149.843ZM155.692 92.788C155.114 92.788 154.594 92.6857 154.132 92.4813C153.679 92.268 153.319 91.9835 153.052 91.628C152.785 91.2635 152.643 90.8591 152.625 90.4146H154.199C154.225 90.7257 154.372 90.988 154.639 91.2013C154.914 91.4057 155.256 91.508 155.665 91.508C156.092 91.508 156.421 91.428 156.652 91.268C156.892 91.0991 157.012 90.8857 157.012 90.628C157.012 90.3524 156.879 90.148 156.612 90.0146C156.354 89.8813 155.941 89.7346 155.372 89.5746C154.821 89.4235 154.372 89.2769 154.025 89.1346C153.679 88.9924 153.376 88.7746 153.119 88.4813C152.87 88.188 152.745 87.8013 152.745 87.3213C152.745 86.9302 152.861 86.5746 153.092 86.2546C153.323 85.9257 153.652 85.668 154.079 85.4813C154.514 85.2946 155.012 85.2013 155.572 85.2013C156.407 85.2013 157.079 85.4146 157.585 85.8413C158.101 86.2591 158.376 86.8324 158.412 87.5613H156.892C156.865 87.2324 156.732 86.9702 156.492 86.7746C156.252 86.5791 155.927 86.4813 155.519 86.4813C155.119 86.4813 154.812 86.5569 154.599 86.708C154.385 86.8591 154.279 87.0591 154.279 87.308C154.279 87.5035 154.35 87.668 154.492 87.8013C154.634 87.9346 154.807 88.0413 155.012 88.1213C155.216 88.1924 155.519 88.2857 155.919 88.4013C156.452 88.5435 156.887 88.6902 157.225 88.8413C157.572 88.9835 157.87 89.1969 158.119 89.4813C158.367 89.7657 158.496 90.1435 158.505 90.6146C158.505 91.0324 158.39 91.4057 158.159 91.7346C157.927 92.0635 157.599 92.3213 157.172 92.508C156.754 92.6946 156.261 92.788 155.692 92.788Z" fill="#292929"/>
<path d="M164.667 104H180.667C189.503 104 196.667 111.163 196.667 120V120C196.667 128.837 189.503 136 180.667 136H164.667V104Z" fill="#E8FDF4"/>
<path d="M148.667 104H164.667C173.503 104 180.667 111.163 180.667 120V120C180.667 128.837 173.503 136 164.667 136H148.667V104Z" fill="#C8FAE6"/>
<path d="M132.667 104H148.667C157.503 104 164.667 111.163 164.667 120V120C164.667 128.837 157.503 136 148.667 136H132.667V104Z" fill="#94F5D8"/>
<path d="M116.667 104H132.667C141.503 104 148.667 111.163 148.667 120V120C148.667 128.837 141.503 136 132.667 136H116.667V104Z" fill="#5BE3C6"/>
<path d="M100.667 104H116.667C125.503 104 132.667 111.163 132.667 120V120C132.667 128.837 125.503 136 116.667 136H100.667V104Z" fill="#32C7B5"/>
<path d="M84.6667 104H100.667C109.503 104 116.667 111.163 116.667 120V120C116.667 128.837 109.503 136 100.667 136H84.6667V104Z" fill="#01A39D"/>
<path d="M68.6667 104H84.6667C93.5033 104 100.667 111.163 100.667 120V120C100.667 128.837 93.5033 136 84.6667 136H68.6667V104Z" fill="#00858C"/>
<path d="M52.6667 104H68.6667C77.5033 104 84.6667 111.163 84.6667 120V120C84.6667 128.837 77.5033 136 68.6667 136H52.6667V104Z" fill="#006575"/>
<path d="M36.6667 104H52.6667C61.5033 104 68.6667 111.163 68.6667 120V120C68.6667 128.837 61.5033 136 52.6667 136H36.6667V104Z" fill="#00495E"/>
<path d="M20.6667 120C20.6667 111.163 27.8302 104 36.6667 104V104C45.5033 104 52.6667 111.163 52.6667 120V120C52.6667 128.837 45.5033 136 36.6667 136V136C27.8302 136 20.6667 128.837 20.6667 120V120Z" fill="#00354E"/>
<circle cx="18.0002" cy="120" r="17" fill="#01A39D" stroke="#292929" stroke-width="2"/>
<path d="M8.98691 162.069V163.309H6.52024V171.336H5.00024V163.309H2.52024V162.069H8.98691ZM17.3596 167.483C17.3596 167.758 17.3418 168.007 17.3063 168.229H11.693C11.7374 168.816 11.9552 169.287 12.3463 169.643C12.7374 169.998 13.2174 170.176 13.7863 170.176C14.6041 170.176 15.1818 169.834 15.5196 169.149H17.1596C16.9374 169.825 16.533 170.38 15.9463 170.816C15.3685 171.243 14.6485 171.456 13.7863 171.456C13.0841 171.456 12.453 171.3 11.893 170.989C11.3418 170.669 10.9063 170.225 10.5863 169.656C10.2752 169.078 10.1196 168.411 10.1196 167.656C10.1196 166.9 10.2707 166.238 10.573 165.669C10.8841 165.091 11.3152 164.647 11.8663 164.336C12.4263 164.025 13.0663 163.869 13.7863 163.869C14.4796 163.869 15.0974 164.02 15.6396 164.323C16.1818 164.625 16.6041 165.051 16.9063 165.603C17.2085 166.145 17.3596 166.771 17.3596 167.483ZM15.773 167.003C15.7641 166.443 15.5641 165.994 15.173 165.656C14.7818 165.318 14.2974 165.149 13.7196 165.149C13.1952 165.149 12.7463 165.318 12.373 165.656C11.9996 165.985 11.7774 166.434 11.7063 167.003H15.773ZM20.4755 165.056C20.6977 164.683 20.991 164.394 21.3555 164.189C21.7288 163.976 22.1688 163.869 22.6755 163.869V165.443H22.2888C21.6932 165.443 21.2399 165.594 20.9288 165.896C20.6266 166.198 20.4755 166.723 20.4755 167.469V171.336H18.9555V163.989H20.4755V165.056ZM25.946 165.229V169.296C25.946 169.571 26.0082 169.771 26.1326 169.896C26.266 170.011 26.4882 170.069 26.7993 170.069H27.7326V171.336H26.5326C25.8482 171.336 25.3238 171.176 24.9593 170.856C24.5949 170.536 24.4126 170.016 24.4126 169.296V165.229H23.546V163.989H24.4126V162.163H25.946V163.989H27.7326V165.229H25.946ZM30.0069 163.016C29.7314 163.016 29.5002 162.923 29.3136 162.736C29.1269 162.549 29.0336 162.318 29.0336 162.043C29.0336 161.767 29.1269 161.536 29.3136 161.349C29.5002 161.163 29.7314 161.069 30.0069 161.069C30.2736 161.069 30.5002 161.163 30.6869 161.349C30.8736 161.536 30.9669 161.767 30.9669 162.043C30.9669 162.318 30.8736 162.549 30.6869 162.736C30.5002 162.923 30.2736 163.016 30.0069 163.016ZM30.7536 163.989V171.336H29.2336V163.989H30.7536ZM32.3425 167.629C32.3425 166.891 32.4936 166.238 32.7959 165.669C33.107 165.1 33.5248 164.66 34.0492 164.349C34.5825 164.029 35.1692 163.869 35.8092 163.869C36.387 163.869 36.8892 163.985 37.3159 164.216C37.7514 164.438 38.0981 164.718 38.3559 165.056V163.989H39.8892V171.336H38.3559V170.243C38.0981 170.589 37.747 170.878 37.3025 171.109C36.8581 171.34 36.3514 171.456 35.7825 171.456C35.1514 171.456 34.5736 171.296 34.0492 170.976C33.5248 170.647 33.107 170.194 32.7959 169.616C32.4936 169.029 32.3425 168.367 32.3425 167.629ZM38.3559 167.656C38.3559 167.149 38.2492 166.709 38.0359 166.336C37.8314 165.963 37.5603 165.678 37.2225 165.483C36.8848 165.287 36.5203 165.189 36.1292 165.189C35.7381 165.189 35.3736 165.287 35.0359 165.483C34.6981 165.669 34.4225 165.949 34.2092 166.323C34.0048 166.687 33.9025 167.123 33.9025 167.629C33.9025 168.136 34.0048 168.58 34.2092 168.963C34.4225 169.345 34.6981 169.638 35.0359 169.843C35.3825 170.038 35.747 170.136 36.1292 170.136C36.5203 170.136 36.8848 170.038 37.2225 169.843C37.5603 169.647 37.8314 169.363 38.0359 168.989C38.2492 168.607 38.3559 168.163 38.3559 167.656ZM43.5057 165.056C43.7279 164.683 44.0212 164.394 44.3857 164.189C44.759 163.976 45.199 163.869 45.7057 163.869V165.443H45.319C44.7234 165.443 44.2701 165.594 43.959 165.896C43.6568 166.198 43.5057 166.723 43.5057 167.469V171.336H41.9857V163.989H43.5057V165.056ZM53.8162 163.989L49.3095 174.789H47.7362L49.2295 171.216L46.3362 163.989H48.0295L50.0962 169.589L52.2429 163.989H53.8162Z" fill="#292929"/>
<rect x="2.00024" y="182.668" width="32" height="32" rx="16" fill="#00202F"/>
<rect x="39.3333" y="182.668" width="32" height="32" rx="16" fill="#292929"/>
<rect x="76.6667" y="182.668" width="32" height="32" rx="16" fill="#454545"/>
<rect x="114" y="182.668" width="32" height="32" rx="16" fill="#BCBCBC"/>
<rect x="151.333" y="182.668" width="32" height="32" rx="16" fill="#DDDDDD"/>
</svg>
