<svg width="198" height="216" viewBox="0 0 198 216" fill="none" xmlns="http://www.w3.org/2000/svg">
<path d="M10.2817 14.0933C9.65968 14.0933 9.09982 13.9867 8.60216 13.7734C8.10451 13.5512 7.7135 13.2402 7.42912 12.8403C7.14475 12.4404 7.00256 11.9738 7.00256 11.4406H8.62882C8.66437 11.8405 8.81989 12.1693 9.09537 12.4271C9.37975 12.6848 9.7752 12.8136 10.2817 12.8136C10.8061 12.8136 11.2148 12.6892 11.5081 12.4404C11.8014 12.1827 11.948 11.8539 11.948 11.454C11.948 11.1429 11.8547 10.8897 11.6681 10.6942C11.4903 10.4987 11.2637 10.3476 10.9882 10.2409C10.7216 10.1343 10.3484 10.0188 9.86851 9.89436C9.26422 9.7344 8.77101 9.57444 8.38888 9.41448C8.01564 9.24563 7.69572 8.98792 7.42912 8.64134C7.16252 8.29476 7.02922 7.83265 7.02922 7.25502C7.02922 6.72182 7.16252 6.25527 7.42912 5.85537C7.69572 5.45547 8.06896 5.14888 8.54884 4.9356C9.02872 4.72232 9.58414 4.61568 10.2151 4.61568C11.1126 4.61568 11.8458 4.84229 12.4145 5.29551C12.9922 5.73984 13.3121 6.35302 13.3743 7.13505H11.6947C11.6681 6.79736 11.5081 6.50854 11.2148 6.2686C10.9216 6.02866 10.535 5.90869 10.0551 5.90869C9.61969 5.90869 9.26422 6.01977 8.98873 6.24194C8.71325 6.46411 8.5755 6.78403 8.5755 7.2017C8.5755 7.48607 8.65993 7.72157 8.82877 7.90819C9.00651 8.08592 9.22867 8.22811 9.49527 8.33475C9.76187 8.44139 10.1262 8.55692 10.5883 8.68133C11.2015 8.85018 11.6992 9.01902 12.0813 9.18787C12.4723 9.35672 12.8011 9.61887 13.0677 9.97434C13.3432 10.3209 13.4809 10.7875 13.4809 11.374C13.4809 11.845 13.3521 12.2893 13.0944 12.707C12.8455 13.1247 12.4768 13.4624 11.988 13.7201C11.5081 13.9689 10.9394 14.0933 10.2817 14.0933ZM22.1057 10.1476C22.1057 10.4231 22.0879 10.6719 22.0524 10.8941H16.4404C16.4849 11.4806 16.7026 11.9516 17.0936 12.3071C17.4846 12.6626 17.9645 12.8403 18.5332 12.8403C19.3508 12.8403 19.9285 12.4982 20.2661 11.8139H21.9057C21.6836 12.4893 21.2792 13.0447 20.6927 13.4801C20.1151 13.9067 19.3953 14.12 18.5332 14.12C17.8312 14.12 17.2002 13.9645 16.6404 13.6534C16.0894 13.3335 15.654 12.8892 15.334 12.3204C15.023 11.7428 14.8675 11.0763 14.8675 10.3209C14.8675 9.56555 15.0186 8.9035 15.3207 8.33475C15.6318 7.75712 16.0628 7.31278 16.6137 7.00175C17.1736 6.69072 17.8134 6.5352 18.5332 6.5352C19.2264 6.5352 19.844 6.68627 20.3861 6.98842C20.9282 7.29057 21.3503 7.71713 21.6525 8.2681C21.9546 8.81019 22.1057 9.4367 22.1057 10.1476ZM20.5194 9.66775C20.5105 9.10789 20.3106 8.65911 19.9196 8.32142C19.5286 7.98373 19.0442 7.81488 18.4666 7.81488C17.9423 7.81488 17.4935 7.98373 17.1203 8.32142C16.747 8.65023 16.5249 9.099 16.4538 9.66775H20.5194ZM32.5923 6.5352C33.1699 6.5352 33.6853 6.65517 34.1385 6.89511C34.6006 7.13505 34.9606 7.49052 35.2183 7.96151C35.4849 8.4325 35.6182 9.00125 35.6182 9.66775V14H34.1119V9.89436C34.1119 9.23675 33.9475 8.73465 33.6187 8.38807C33.2899 8.0326 32.8411 7.85487 32.2723 7.85487C31.7036 7.85487 31.2504 8.0326 30.9127 8.38807C30.5839 8.73465 30.4195 9.23675 30.4195 9.89436V14H28.9132V9.89436C28.9132 9.23675 28.7488 8.73465 28.42 8.38807C28.0912 8.0326 27.6424 7.85487 27.0736 7.85487C26.5049 7.85487 26.0517 8.0326 25.714 8.38807C25.3852 8.73465 25.2208 9.23675 25.2208 9.89436V14H23.7011V6.65517H25.2208V7.49496C25.4696 7.19281 25.7851 6.95732 26.1672 6.78847C26.5493 6.61962 26.9581 6.5352 27.3936 6.5352C27.9801 6.5352 28.5044 6.65961 28.9665 6.90844C29.4286 7.15727 29.7841 7.51718 30.0329 7.98817C30.2551 7.54384 30.6016 7.19281 31.0726 6.9351C31.5436 6.6685 32.0502 6.5352 32.5923 6.5352ZM37.1453 10.2943C37.1453 9.55667 37.2964 8.9035 37.5985 8.33475C37.9096 7.766 38.3272 7.32611 38.8515 7.01508C39.3847 6.69516 39.9713 6.5352 40.6111 6.5352C41.1887 6.5352 41.6908 6.65073 42.1174 6.88178C42.5528 7.10395 42.8994 7.38388 43.1571 7.72157V6.65517H44.6901V14H43.1571V12.9069C42.8994 13.2535 42.5484 13.5423 42.1041 13.7734C41.6597 14.0044 41.1532 14.12 40.5844 14.12C39.9535 14.12 39.3759 13.96 38.8515 13.6401C38.3272 13.3113 37.9096 12.8581 37.5985 12.2804C37.2964 11.6939 37.1453 11.0319 37.1453 10.2943ZM43.1571 10.3209C43.1571 9.81438 43.0505 9.37449 42.8372 9.00125C42.6328 8.62801 42.3618 8.34364 42.0241 8.14813C41.6864 7.95262 41.322 7.85487 40.931 7.85487C40.54 7.85487 40.1757 7.95262 39.838 8.14813C39.5003 8.33475 39.2248 8.61468 39.0115 8.98792C38.8071 9.35227 38.7049 9.78772 38.7049 10.2943C38.7049 10.8008 38.8071 11.2451 39.0115 11.6273C39.2248 12.0094 39.5003 12.3026 39.838 12.507C40.1845 12.7025 40.5489 12.8003 40.931 12.8003C41.322 12.8003 41.6864 12.7025 42.0241 12.507C42.3618 12.3115 42.6328 12.0272 42.8372 11.6539C43.0505 11.2718 43.1571 10.8275 43.1571 10.3209ZM50.4918 6.5352C51.0694 6.5352 51.5848 6.65517 52.0381 6.89511C52.5002 7.13505 52.8601 7.49052 53.1178 7.96151C53.3755 8.4325 53.5044 9.00125 53.5044 9.66775V14H51.9981V9.89436C51.9981 9.23675 51.8337 8.73465 51.5049 8.38807C51.1761 8.0326 50.7273 7.85487 50.1585 7.85487C49.5898 7.85487 49.1366 8.0326 48.7989 8.38807C48.4701 8.73465 48.3057 9.23675 48.3057 9.89436V14H46.786V6.65517H48.3057V7.49496C48.5545 7.19281 48.87 6.95732 49.2521 6.78847C49.6431 6.61962 50.0563 6.5352 50.4918 6.5352ZM57.3156 7.89486V11.9605C57.3156 12.236 57.3778 12.4359 57.5022 12.5604C57.6355 12.6759 57.8577 12.7336 58.1687 12.7336H59.1018V14H57.9021C57.2179 14 56.6936 13.84 56.3292 13.5201C55.9649 13.2002 55.7827 12.6803 55.7827 11.9605V7.89486H54.9162V6.65517H55.7827V4.82896H57.3156V6.65517H59.1018V7.89486H57.3156ZM61.3756 5.68208C61.1001 5.68208 60.869 5.58877 60.6824 5.40215C60.4958 5.21553 60.4025 4.98448 60.4025 4.70899C60.4025 4.4335 60.4958 4.20245 60.6824 4.01583C60.869 3.82921 61.1001 3.7359 61.3756 3.7359C61.6422 3.7359 61.8688 3.82921 62.0554 4.01583C62.242 4.20245 62.3353 4.4335 62.3353 4.70899C62.3353 4.98448 62.242 5.21553 62.0554 5.40215C61.8688 5.58877 61.6422 5.68208 61.3756 5.68208ZM62.1221 6.65517V14H60.6024V6.65517H62.1221ZM63.7106 10.3209C63.7106 9.56555 63.8617 8.9035 64.1639 8.33475C64.4749 7.75712 64.9015 7.31278 65.4435 7.00175C65.9856 6.69072 66.6077 6.5352 67.3097 6.5352C68.1984 6.5352 68.9316 6.74848 69.5092 7.17504C70.0957 7.59271 70.4912 8.19256 70.6956 8.97459H69.056C68.9227 8.61024 68.7094 8.32586 68.4161 8.12147C68.1229 7.91708 67.7541 7.81488 67.3097 7.81488C66.6877 7.81488 66.19 8.03705 65.8168 8.48138C65.4524 8.91683 65.2703 9.53001 65.2703 10.3209C65.2703 11.1118 65.4524 11.7295 65.8168 12.1738C66.19 12.6181 66.6877 12.8403 67.3097 12.8403C68.1895 12.8403 68.7716 12.4537 69.056 11.6806H70.6956C70.4823 12.4271 70.0824 13.0225 69.4959 13.4668C68.9093 13.9022 68.1806 14.12 67.3097 14.12C66.6077 14.12 65.9856 13.9645 65.4435 13.6534C64.9015 13.3335 64.4749 12.8892 64.1639 12.3204C63.8617 11.7428 63.7106 11.0763 63.7106 10.3209ZM73.9762 12.1738L72.3633 15.8529H71.3769L72.3233 12.1738H73.9762ZM79.7398 5.68208C79.4643 5.68208 79.2333 5.58877 79.0467 5.40215C78.8601 5.21553 78.7667 4.98448 78.7667 4.70899C78.7667 4.4335 78.8601 4.20245 79.0467 4.01583C79.2333 3.82921 79.4643 3.7359 79.7398 3.7359C80.0064 3.7359 80.233 3.82921 80.4197 4.01583C80.6063 4.20245 80.6996 4.4335 80.6996 4.70899C80.6996 4.98448 80.6063 5.21553 80.4197 5.40215C80.233 5.58877 80.0064 5.68208 79.7398 5.68208ZM80.4863 6.65517V14H78.9667V6.65517H80.4863ZM86.2872 6.5352C86.8648 6.5352 87.3802 6.65517 87.8335 6.89511C88.2956 7.13505 88.6555 7.49052 88.9132 7.96151C89.1709 8.4325 89.2998 9.00125 89.2998 9.66775V14H87.7935V9.89436C87.7935 9.23675 87.6291 8.73465 87.3003 8.38807C86.9715 8.0326 86.5227 7.85487 85.9539 7.85487C85.3852 7.85487 84.932 8.0326 84.5943 8.38807C84.2655 8.73465 84.1011 9.23675 84.1011 9.89436V14H82.5814V6.65517H84.1011V7.49496C84.3499 7.19281 84.6654 6.95732 85.0475 6.78847C85.4385 6.61962 85.8517 6.5352 86.2872 6.5352ZM94.4174 7.89486H93.0577V14H91.5247V7.89486H90.6583V6.65517H91.5247V6.1353C91.5247 5.29107 91.7469 4.67789 92.1912 4.29576C92.6445 3.90475 93.351 3.70924 94.3107 3.70924V4.97559C93.8486 4.97559 93.5242 5.06446 93.3376 5.24219C93.151 5.41104 93.0577 5.70874 93.0577 6.1353V6.65517H94.4174V7.89486ZM99.05 14.12C98.3568 14.12 97.7303 13.9645 97.1704 13.6534C96.6106 13.3335 96.1707 12.8892 95.8508 12.3204C95.5309 11.7428 95.3709 11.0763 95.3709 10.3209C95.3709 9.57444 95.5353 8.91238 95.8641 8.33475C96.1929 7.75712 96.6417 7.31278 97.2104 7.00175C97.7792 6.69072 98.4146 6.5352 99.1166 6.5352C99.8187 6.5352 100.454 6.69072 101.023 7.00175C101.592 7.31278 102.04 7.75712 102.369 8.33475C102.698 8.91238 102.862 9.57444 102.862 10.3209C102.862 11.0674 102.694 11.7295 102.356 12.3071C102.018 12.8847 101.556 13.3335 100.969 13.6534C100.392 13.9645 99.752 14.12 99.05 14.12ZM99.05 12.8003C99.441 12.8003 99.8053 12.707 100.143 12.5204C100.49 12.3337 100.77 12.0538 100.983 11.6806C101.196 11.3073 101.303 10.8541 101.303 10.3209C101.303 9.78772 101.201 9.33894 100.996 8.97459C100.792 8.60135 100.521 8.32142 100.183 8.1348C99.8453 7.94818 99.481 7.85487 99.09 7.85487C98.699 7.85487 98.3346 7.94818 97.9969 8.1348C97.6681 8.32142 97.4059 8.60135 97.2104 8.97459C97.0149 9.33894 96.9172 9.78772 96.9172 10.3209C96.9172 11.1118 97.1171 11.725 97.517 12.1605C97.9258 12.587 98.4368 12.8003 99.05 12.8003Z" fill="#454545"/>
<path d="M165.333 25.334H181.333C190.17 25.334 197.333 32.4974 197.333 41.334V41.334C197.333 50.1705 190.17 57.334 181.333 57.334H165.333V25.334Z" fill="#EBFAFF"/>
<path d="M149.333 25.334H165.333C174.17 25.334 181.333 32.4974 181.333 41.334V41.334C181.333 50.1705 174.17 57.334 165.333 57.334H149.333V25.334Z" fill="#D9F6FF"/>
<path d="M133.333 25.334H149.333C158.17 25.334 165.333 32.4974 165.333 41.334V41.334C165.333 50.1705 158.17 57.334 149.333 57.334H133.333V25.334Z" fill="#B3E9FF"/>
<path d="M117.333 25.334H133.333C142.17 25.334 149.333 32.4974 149.333 41.334V41.334C149.333 50.1705 142.17 57.334 133.333 57.334H117.333V25.334Z" fill="#8DD8FF"/>
<path d="M101.333 25.334H117.333C126.17 25.334 133.333 32.4974 133.333 41.334V41.334C133.333 50.1705 126.17 57.334 117.333 57.334H101.333V25.334Z" fill="#71C6FF"/>
<path d="M85.3334 25.334H101.333C110.17 25.334 117.333 32.4974 117.333 41.334V41.334C117.333 50.1705 110.17 57.334 101.333 57.334H85.3334V25.334Z" fill="#42AAFF"/>
<path d="M69.3334 25.334H85.3334C94.1699 25.334 101.333 32.4974 101.333 41.334V41.334C101.333 50.1705 94.1699 57.334 85.3334 57.334H69.3334V25.334Z" fill="#3085DB"/>
<path d="M53.3334 25.334H69.3334C78.1699 25.334 85.3334 32.4974 85.3334 41.334V41.334C85.3334 50.1705 78.1699 57.334 69.3334 57.334H53.3334V25.334Z" fill="#2163B7"/>
<path d="M37.3334 25.334H53.3334C62.1699 25.334 69.3334 32.4974 69.3334 41.334V41.334C69.3334 50.1705 62.1699 57.334 53.3334 57.334H37.3334V25.334Z" fill="#154693"/>
<rect x="21.3334" y="25.334" width="32" height="32" rx="16" fill="#0C317A"/>
<circle cx="18.6666" cy="41.334" r="17" fill="#42AAFF" stroke="#292929" stroke-width="2"/>
<path d="M10.2816 92.4273C9.65956 92.4273 9.0997 92.3207 8.60204 92.1074C8.10439 91.8852 7.71338 91.5742 7.429 91.1743C7.14463 90.7744 7.00244 90.3078 7.00244 89.7746H8.6287C8.66425 90.1745 8.81977 90.5033 9.09525 90.761C9.37963 91.0188 9.77508 91.1476 10.2816 91.1476C10.8059 91.1476 11.2147 91.0232 11.508 90.7744C11.8012 90.5167 11.9479 90.1879 11.9479 89.788C11.9479 89.4769 11.8546 89.2237 11.6679 89.0281C11.4902 88.8326 11.2636 88.6816 10.9881 88.5749C10.7215 88.4683 10.3483 88.3528 9.86839 88.2283C9.2641 88.0684 8.77089 87.9084 8.38876 87.7485C8.01552 87.5796 7.6956 87.3219 7.429 86.9753C7.1624 86.6287 7.0291 86.1666 7.0291 85.589C7.0291 85.0558 7.1624 84.5893 7.429 84.1894C7.6956 83.7895 8.06884 83.4829 8.54872 83.2696C9.0286 83.0563 9.58402 82.9497 10.215 82.9497C11.1125 82.9497 11.8457 83.1763 12.4144 83.6295C12.9921 84.0738 13.312 84.687 13.3742 85.469H11.6946C11.6679 85.1313 11.508 84.8425 11.2147 84.6026C10.9215 84.3626 10.5349 84.2427 10.055 84.2427C9.61957 84.2427 9.2641 84.3538 8.98861 84.5759C8.71313 84.7981 8.57538 85.118 8.57538 85.5357C8.57538 85.8201 8.65981 86.0556 8.82865 86.2422C9.00639 86.4199 9.22855 86.5621 9.49515 86.6687C9.76175 86.7754 10.1261 86.8909 10.5882 87.0153C11.2014 87.1842 11.699 87.353 12.0812 87.5219C12.4722 87.6907 12.801 87.9529 13.0676 88.3083C13.3431 88.6549 13.4808 89.1215 13.4808 89.708C13.4808 90.179 13.352 90.6233 13.0943 91.041C12.8454 91.4586 12.4766 91.7963 11.9879 92.0541C11.508 92.3029 10.9392 92.4273 10.2816 92.4273ZM22.1056 88.4816C22.1056 88.7571 22.0878 89.0059 22.0522 89.2281H16.4403C16.4847 89.8146 16.7025 90.2856 17.0935 90.6411C17.4845 90.9965 17.9644 91.1743 18.5331 91.1743C19.3507 91.1743 19.9283 90.8321 20.266 90.1479H21.9056C21.6834 90.8233 21.2791 91.3787 20.6926 91.8141C20.115 92.2407 19.3951 92.454 18.5331 92.454C17.8311 92.454 17.2001 92.2984 16.6403 91.9874C16.0893 91.6675 15.6538 91.2232 15.3339 90.6544C15.0229 90.0768 14.8674 89.4103 14.8674 88.6549C14.8674 87.8995 15.0184 87.2375 15.3206 86.6687C15.6316 86.0911 16.0626 85.6468 16.6136 85.3357C17.1735 85.0247 17.8133 84.8692 18.5331 84.8692C19.2263 84.8692 19.8439 85.0203 20.386 85.3224C20.9281 85.6246 21.3502 86.0511 21.6523 86.6021C21.9545 87.1442 22.1056 87.7707 22.1056 88.4816ZM20.5193 88.0017C20.5104 87.4419 20.3105 86.9931 19.9194 86.6554C19.5284 86.3177 19.0441 86.1489 18.4665 86.1489C17.9422 86.1489 17.4934 86.3177 17.1201 86.6554C16.7469 86.9842 16.5247 87.433 16.4536 88.0017H20.5193ZM32.5921 84.8692C33.1698 84.8692 33.6852 84.9892 34.1384 85.2291C34.6005 85.469 34.9604 85.8245 35.2181 86.2955C35.4847 86.7665 35.618 87.3352 35.618 88.0017V92.334H34.1118V88.2283C34.1118 87.5707 33.9474 87.0686 33.6185 86.7221C33.2897 86.3666 32.841 86.1889 32.2722 86.1889C31.7035 86.1889 31.2502 86.3666 30.9126 86.7221C30.5837 87.0686 30.4193 87.5707 30.4193 88.2283V92.334H28.9131V88.2283C28.9131 87.5707 28.7487 87.0686 28.4198 86.7221C28.091 86.3666 27.6423 86.1889 27.0735 86.1889C26.5048 86.1889 26.0515 86.3666 25.7139 86.7221C25.385 87.0686 25.2206 87.5707 25.2206 88.2283V92.334H23.701V84.9892H25.2206V85.8289C25.4695 85.5268 25.7849 85.2913 26.1671 85.1225C26.5492 84.9536 26.958 84.8692 27.3934 84.8692C27.98 84.8692 28.5043 84.9936 28.9664 85.2424C29.4285 85.4913 29.7839 85.8512 30.0328 86.3222C30.2549 85.8778 30.6015 85.5268 31.0725 85.2691C31.5435 85.0025 32.05 84.8692 32.5921 84.8692ZM37.1452 88.6282C37.1452 87.8907 37.2963 87.2375 37.5984 86.6687C37.9094 86.1 38.3271 85.6601 38.8514 85.3491C39.3846 85.0291 39.9711 84.8692 40.611 84.8692C41.1886 84.8692 41.6907 84.9847 42.1173 85.2158C42.5527 85.4379 42.8993 85.7179 43.157 86.0556V84.9892H44.69V92.334H43.157V91.2409C42.8993 91.5875 42.5483 91.8763 42.1039 92.1074C41.6596 92.3384 41.1531 92.454 40.5843 92.454C39.9534 92.454 39.3757 92.294 38.8514 91.9741C38.3271 91.6453 37.9094 91.192 37.5984 90.6144C37.2963 90.0279 37.1452 89.3658 37.1452 88.6282ZM43.157 88.6549C43.157 88.1484 43.0504 87.7085 42.8371 87.3352C42.6327 86.962 42.3617 86.6776 42.024 86.4821C41.6863 86.2866 41.3219 86.1889 40.9309 86.1889C40.5399 86.1889 40.1755 86.2866 39.8378 86.4821C39.5002 86.6687 39.2247 86.9487 39.0114 87.3219C38.807 87.6863 38.7048 88.1217 38.7048 88.6282C38.7048 89.1348 38.807 89.5791 39.0114 89.9612C39.2247 90.3434 39.5002 90.6366 39.8378 90.841C40.1844 91.0365 40.5488 91.1343 40.9309 91.1343C41.3219 91.1343 41.6863 91.0365 42.024 90.841C42.3617 90.6455 42.6327 90.3611 42.8371 89.9879C43.0504 89.6058 43.157 89.1614 43.157 88.6549ZM50.4917 84.8692C51.0693 84.8692 51.5847 84.9892 52.0379 85.2291C52.5001 85.469 52.86 85.8245 53.1177 86.2955C53.3754 86.7665 53.5042 87.3352 53.5042 88.0017V92.334H51.998V88.2283C51.998 87.5707 51.8336 87.0686 51.5047 86.7221C51.1759 86.3666 50.7272 86.1889 50.1584 86.1889C49.5897 86.1889 49.1364 86.3666 48.7988 86.7221C48.4699 87.0686 48.3055 87.5707 48.3055 88.2283V92.334H46.7859V84.9892H48.3055V85.8289C48.5544 85.5268 48.8698 85.2913 49.252 85.1225C49.643 84.9536 50.0562 84.8692 50.4917 84.8692ZM57.3155 86.2288V90.2945C57.3155 90.57 57.3777 90.7699 57.5021 90.8943C57.6354 91.0099 57.8576 91.0676 58.1686 91.0676H59.1017V92.334H57.902C57.2178 92.334 56.6934 92.174 56.3291 91.8541C55.9647 91.5342 55.7826 91.0143 55.7826 90.2945V86.2288H54.9161V84.9892H55.7826V83.1629H57.3155V84.9892H59.1017V86.2288H57.3155ZM61.3755 84.0161C61.1 84.0161 60.8689 83.9228 60.6823 83.7361C60.4957 83.5495 60.4024 83.3185 60.4024 83.043C60.4024 82.7675 60.4957 82.5364 60.6823 82.3498C60.8689 82.1632 61.1 82.0699 61.3755 82.0699C61.6421 82.0699 61.8687 82.1632 62.0553 82.3498C62.2419 82.5364 62.3352 82.7675 62.3352 83.043C62.3352 83.3185 62.2419 83.5495 62.0553 83.7361C61.8687 83.9228 61.6421 84.0161 61.3755 84.0161ZM62.1219 84.9892V92.334H60.6023V84.9892H62.1219ZM63.7105 88.6549C63.7105 87.8995 63.8616 87.2375 64.1637 86.6687C64.4748 86.0911 64.9013 85.6468 65.4434 85.3357C65.9855 85.0247 66.6076 84.8692 67.3096 84.8692C68.1983 84.8692 68.9314 85.0825 69.5091 85.509C70.0956 85.9267 70.491 86.5265 70.6954 87.3086H69.0558C68.9225 86.9442 68.7093 86.6598 68.416 86.4555C68.1227 86.2511 67.754 86.1489 67.3096 86.1489C66.6876 86.1489 66.1899 86.371 65.8167 86.8154C65.4523 87.2508 65.2701 87.864 65.2701 88.6549C65.2701 89.4458 65.4523 90.0634 65.8167 90.5078C66.1899 90.9521 66.6876 91.1743 67.3096 91.1743C68.1894 91.1743 68.7715 90.7877 69.0558 90.0146H70.6954C70.4822 90.761 70.0823 91.3565 69.4957 91.8008C68.9092 92.2362 68.1805 92.454 67.3096 92.454C66.6076 92.454 65.9855 92.2984 65.4434 91.9874C64.9013 91.6675 64.4748 91.2232 64.1637 90.6544C63.8616 90.0768 63.7105 89.4103 63.7105 88.6549ZM73.9761 90.5078L72.3632 94.1869H71.3768L72.3232 90.5078H73.9761ZM88.8308 84.9892L86.5513 92.334H84.9517L83.4721 86.9087L81.9925 92.334H80.3929L78.1001 84.9892H79.6464L81.1793 90.8943L82.739 84.9892H84.3252L85.8182 90.8677L87.3378 84.9892H88.8308ZM89.5599 88.6282C89.5599 87.8907 89.711 87.2375 90.0131 86.6687C90.3241 86.1 90.7418 85.6601 91.2661 85.3491C91.7993 85.0291 92.3858 84.8692 93.0257 84.8692C93.6033 84.8692 94.1054 84.9847 94.532 85.2158C94.9674 85.4379 95.314 85.7179 95.5717 86.0556V84.9892H97.1047V92.334H95.5717V91.2409C95.314 91.5875 94.963 91.8763 94.5186 92.1074C94.0743 92.3384 93.5678 92.454 92.999 92.454C92.3681 92.454 91.7904 92.294 91.2661 91.9741C90.7418 91.6453 90.3241 91.192 90.0131 90.6144C89.711 90.0279 89.5599 89.3658 89.5599 88.6282ZM95.5717 88.6549C95.5717 88.1484 95.4651 87.7085 95.2518 87.3352C95.0474 86.962 94.7764 86.6776 94.4387 86.4821C94.101 86.2866 93.7366 86.1889 93.3456 86.1889C92.9546 86.1889 92.5902 86.2866 92.2525 86.4821C91.9149 86.6687 91.6394 86.9487 91.4261 87.3219C91.2217 87.6863 91.1195 88.1217 91.1195 88.6282C91.1195 89.1348 91.2217 89.5791 91.4261 89.9612C91.6394 90.3434 91.9149 90.6366 92.2525 90.841C92.5991 91.0365 92.9635 91.1343 93.3456 91.1343C93.7366 91.1343 94.101 91.0365 94.4387 90.841C94.7764 90.6455 95.0474 90.3611 95.2518 89.9879C95.4651 89.6058 95.5717 89.1614 95.5717 88.6549ZM100.72 86.0556C100.942 85.6823 101.236 85.3935 101.6 85.1891C101.973 84.9758 102.413 84.8692 102.92 84.8692V86.4421H102.533C101.938 86.4421 101.484 86.5932 101.173 86.8953C100.871 87.1975 100.72 87.7218 100.72 88.4683V92.334H99.2006V84.9892H100.72V86.0556ZM108.122 84.8692C108.7 84.8692 109.215 84.9892 109.669 85.2291C110.131 85.469 110.491 85.8245 110.748 86.2955C111.006 86.7665 111.135 87.3352 111.135 88.0017V92.334H109.629V88.2283C109.629 87.5707 109.464 87.0686 109.135 86.7221C108.807 86.3666 108.358 86.1889 107.789 86.1889C107.22 86.1889 106.767 86.3666 106.429 86.7221C106.101 87.0686 105.936 87.5707 105.936 88.2283V92.334H104.417V84.9892H105.936V85.8289C106.185 85.5268 106.5 85.2913 106.883 85.1225C107.274 84.9536 107.687 84.8692 108.122 84.8692ZM113.946 84.0161C113.671 84.0161 113.44 83.9228 113.253 83.7361C113.067 83.5495 112.973 83.3185 112.973 83.043C112.973 82.7675 113.067 82.5364 113.253 82.3498C113.44 82.1632 113.671 82.0699 113.946 82.0699C114.213 82.0699 114.44 82.1632 114.626 82.3498C114.813 82.5364 114.906 82.7675 114.906 83.043C114.906 83.3185 114.813 83.5495 114.626 83.7361C114.44 83.9228 114.213 84.0161 113.946 84.0161ZM114.693 84.9892V92.334H113.173V84.9892H114.693ZM120.494 84.8692C121.071 84.8692 121.587 84.9892 122.04 85.2291C122.502 85.469 122.862 85.8245 123.12 86.2955C123.377 86.7665 123.506 87.3352 123.506 88.0017V92.334H122V88.2283C122 87.5707 121.836 87.0686 121.507 86.7221C121.178 86.3666 120.729 86.1889 120.16 86.1889C119.592 86.1889 119.138 86.3666 118.801 86.7221C118.472 87.0686 118.308 87.5707 118.308 88.2283V92.334H116.788V84.9892H118.308V85.8289C118.556 85.5268 118.872 85.2913 119.254 85.1225C119.645 84.9536 120.058 84.8692 120.494 84.8692ZM128.504 84.8692C129.073 84.8692 129.575 84.9847 130.01 85.2158C130.455 85.4379 130.801 85.7179 131.05 86.0556V84.9892H132.583V92.454C132.583 93.1293 132.441 93.7292 132.156 94.2535C131.872 94.7867 131.459 95.2044 130.917 95.5065C130.383 95.8087 129.744 95.9597 128.997 95.9597C128.002 95.9597 127.175 95.7242 126.518 95.2533C125.86 94.7911 125.487 94.1602 125.398 93.3604H126.904C127.02 93.7425 127.264 94.0491 127.637 94.2802C128.02 94.5201 128.473 94.6401 128.997 94.6401C129.61 94.6401 130.104 94.4535 130.477 94.0802C130.859 93.707 131.05 93.1649 131.05 92.454V91.2276C130.792 91.5742 130.441 91.8674 129.997 92.1074C129.561 92.3384 129.064 92.454 128.504 92.454C127.864 92.454 127.278 92.294 126.744 91.9741C126.22 91.6453 125.802 91.192 125.491 90.6144C125.189 90.0279 125.038 89.3658 125.038 88.6282C125.038 87.8907 125.189 87.2375 125.491 86.6687C125.802 86.1 126.22 85.6601 126.744 85.3491C127.278 85.0291 127.864 84.8692 128.504 84.8692ZM131.05 88.6549C131.05 88.1484 130.943 87.7085 130.73 87.3352C130.526 86.962 130.255 86.6776 129.917 86.4821C129.579 86.2866 129.215 86.1889 128.824 86.1889C128.433 86.1889 128.068 86.2866 127.731 86.4821C127.393 86.6687 127.118 86.9487 126.904 87.3219C126.7 87.6863 126.598 88.1217 126.598 88.6282C126.598 89.1348 126.7 89.5791 126.904 89.9612C127.118 90.3434 127.393 90.6366 127.731 90.841C128.077 91.0365 128.442 91.1343 128.824 91.1343C129.215 91.1343 129.579 91.0365 129.917 90.841C130.255 90.6455 130.526 90.3611 130.73 89.9879C130.943 89.6058 131.05 89.1614 131.05 88.6549Z" fill="#454545"/>
<path d="M165.333 103.668H181.333C190.17 103.668 197.333 110.831 197.333 119.668V119.668C197.333 128.505 190.17 135.668 181.333 135.668H165.333V103.668Z" fill="#FEFDEB"/>
<path d="M149.333 103.668H165.333C174.17 103.668 181.333 110.831 181.333 119.668V119.668C181.333 128.505 174.17 135.668 165.333 135.668H149.333V103.668Z" fill="#FEFBDA"/>
<path d="M133.333 103.668H149.333C158.17 103.668 165.333 110.831 165.333 119.668V119.668C165.333 128.505 158.17 135.668 149.333 135.668H133.333V103.668Z" fill="#FEF6B5"/>
<path d="M117.333 103.668H133.333C142.17 103.668 149.333 110.831 149.333 119.668V119.668C149.333 128.505 142.17 135.668 133.333 135.668H117.333V103.668Z" fill="#FEEF8F"/>
<path d="M101.333 103.668H117.333C126.17 103.668 133.333 110.831 133.333 119.668V119.668C133.333 128.505 126.17 135.668 117.333 135.668H101.333V103.668Z" fill="#FDE874"/>
<path d="M85.3334 103.668H101.333C110.17 103.668 117.333 110.831 117.333 119.668V119.668C117.333 128.505 110.17 135.668 101.333 135.668H85.3334V103.668Z" fill="#FCDE46"/>
<path d="M69.3334 103.668H85.3334C94.1699 103.668 101.333 110.831 101.333 119.668V119.668C101.333 128.505 94.1699 135.668 85.3334 135.668H69.3334V103.668Z" fill="#D8BA33"/>
<path d="M53.3334 103.668H69.3334C78.1699 103.668 85.3334 110.831 85.3334 119.668V119.668C85.3334 128.505 78.1699 135.668 69.3334 135.668H53.3334V103.668Z" fill="#B59823"/>
<path d="M37.3334 103.668H53.3334C62.1699 103.668 69.3334 110.831 69.3334 119.668V119.668C69.3334 128.505 62.1699 135.668 53.3334 135.668H37.3334V103.668Z" fill="#927716"/>
<rect x="21.3334" y="103.668" width="32" height="32" rx="16" fill="#785F0D"/>
<circle cx="18.6666" cy="119.668" r="17" fill="#FCDE46" stroke="#292929" stroke-width="2"/>
<path d="M10.2816 170.759C9.65956 170.759 9.0997 170.653 8.60204 170.439C8.10439 170.217 7.71338 169.906 7.429 169.506C7.14463 169.106 7.00244 168.64 7.00244 168.107H8.6287C8.66425 168.507 8.81977 168.835 9.09525 169.093C9.37963 169.351 9.77508 169.48 10.2816 169.48C10.8059 169.48 11.2147 169.355 11.508 169.106C11.8012 168.849 11.9479 168.52 11.9479 168.12C11.9479 167.809 11.8546 167.556 11.6679 167.36C11.4902 167.165 11.2636 167.014 10.9881 166.907C10.7215 166.8 10.3483 166.685 9.86839 166.56C9.2641 166.4 8.77089 166.24 8.38876 166.08C8.01552 165.912 7.6956 165.654 7.429 165.307C7.1624 164.961 7.0291 164.499 7.0291 163.921C7.0291 163.388 7.1624 162.921 7.429 162.521C7.6956 162.121 8.06884 161.815 8.54872 161.602C9.0286 161.388 9.58402 161.282 10.215 161.282C11.1125 161.282 11.8457 161.508 12.4144 161.962C12.9921 162.406 13.312 163.019 13.3742 163.801H11.6946C11.6679 163.463 11.508 163.175 11.2147 162.935C10.9215 162.695 10.5349 162.575 10.055 162.575C9.61957 162.575 9.2641 162.686 8.98861 162.908C8.71313 163.13 8.57538 163.45 8.57538 163.868C8.57538 164.152 8.65981 164.388 8.82865 164.574C9.00639 164.752 9.22855 164.894 9.49515 165.001C9.76175 165.107 10.1261 165.223 10.5882 165.347C11.2014 165.516 11.699 165.685 12.0812 165.854C12.4722 166.023 12.801 166.285 13.0676 166.64C13.3431 166.987 13.4808 167.453 13.4808 168.04C13.4808 168.511 13.352 168.955 13.0943 169.373C12.8454 169.791 12.4766 170.128 11.9879 170.386C11.508 170.635 10.9392 170.759 10.2816 170.759ZM22.1056 166.814C22.1056 167.089 22.0878 167.338 22.0522 167.56H16.4403C16.4847 168.147 16.7025 168.618 17.0935 168.973C17.4845 169.329 17.9644 169.506 18.5331 169.506C19.3507 169.506 19.9283 169.164 20.266 168.48H21.9056C21.6834 169.155 21.2791 169.711 20.6926 170.146C20.115 170.573 19.3951 170.786 18.5331 170.786C17.8311 170.786 17.2001 170.63 16.6403 170.319C16.0893 170 15.6538 169.555 15.3339 168.986C15.0229 168.409 14.8674 167.742 14.8674 166.987C14.8674 166.232 15.0184 165.57 15.3206 165.001C15.6316 164.423 16.0626 163.979 16.6136 163.668C17.1735 163.357 17.8133 163.201 18.5331 163.201C19.2263 163.201 19.8439 163.352 20.386 163.654C20.9281 163.957 21.3502 164.383 21.6523 164.934C21.9545 165.476 22.1056 166.103 22.1056 166.814ZM20.5193 166.334C20.5104 165.774 20.3105 165.325 19.9194 164.987C19.5284 164.65 19.0441 164.481 18.4665 164.481C17.9422 164.481 17.4934 164.65 17.1201 164.987C16.7469 165.316 16.5247 165.765 16.4536 166.334H20.5193ZM32.5921 163.201C33.1698 163.201 33.6852 163.321 34.1384 163.561C34.6005 163.801 34.9604 164.157 35.2181 164.628C35.4847 165.099 35.618 165.667 35.618 166.334V170.666H34.1118V166.56C34.1118 165.903 33.9474 165.401 33.6185 165.054C33.2897 164.699 32.841 164.521 32.2722 164.521C31.7035 164.521 31.2502 164.699 30.9126 165.054C30.5837 165.401 30.4193 165.903 30.4193 166.56V170.666H28.9131V166.56C28.9131 165.903 28.7487 165.401 28.4198 165.054C28.091 164.699 27.6423 164.521 27.0735 164.521C26.5048 164.521 26.0515 164.699 25.7139 165.054C25.385 165.401 25.2206 165.903 25.2206 166.56V170.666H23.701V163.321H25.2206V164.161C25.4695 163.859 25.7849 163.623 26.1671 163.454C26.5492 163.286 26.958 163.201 27.3934 163.201C27.98 163.201 28.5043 163.326 28.9664 163.574C29.4285 163.823 29.7839 164.183 30.0328 164.654C30.2549 164.21 30.6015 163.859 31.0725 163.601C31.5435 163.335 32.05 163.201 32.5921 163.201ZM37.1452 166.96C37.1452 166.223 37.2963 165.57 37.5984 165.001C37.9094 164.432 38.3271 163.992 38.8514 163.681C39.3846 163.361 39.9711 163.201 40.611 163.201C41.1886 163.201 41.6907 163.317 42.1173 163.548C42.5527 163.77 42.8993 164.05 43.157 164.388V163.321H44.69V170.666H43.157V169.573C42.8993 169.92 42.5483 170.208 42.1039 170.439C41.6596 170.67 41.1531 170.786 40.5843 170.786C39.9534 170.786 39.3757 170.626 38.8514 170.306C38.3271 169.977 37.9094 169.524 37.5984 168.946C37.2963 168.36 37.1452 167.698 37.1452 166.96ZM43.157 166.987C43.157 166.48 43.0504 166.041 42.8371 165.667C42.6327 165.294 42.3617 165.01 42.024 164.814C41.6863 164.619 41.3219 164.521 40.9309 164.521C40.5399 164.521 40.1755 164.619 39.8378 164.814C39.5002 165.001 39.2247 165.281 39.0114 165.654C38.807 166.018 38.7048 166.454 38.7048 166.96C38.7048 167.467 38.807 167.911 39.0114 168.293C39.2247 168.675 39.5002 168.969 39.8378 169.173C40.1844 169.369 40.5488 169.466 40.9309 169.466C41.3219 169.466 41.6863 169.369 42.024 169.173C42.3617 168.978 42.6327 168.693 42.8371 168.32C43.0504 167.938 43.157 167.493 43.157 166.987ZM50.4917 163.201C51.0693 163.201 51.5847 163.321 52.0379 163.561C52.5001 163.801 52.86 164.157 53.1177 164.628C53.3754 165.099 53.5042 165.667 53.5042 166.334V170.666H51.998V166.56C51.998 165.903 51.8336 165.401 51.5047 165.054C51.1759 164.699 50.7272 164.521 50.1584 164.521C49.5897 164.521 49.1364 164.699 48.7988 165.054C48.4699 165.401 48.3055 165.903 48.3055 166.56V170.666H46.7859V163.321H48.3055V164.161C48.5544 163.859 48.8698 163.623 49.252 163.454C49.643 163.286 50.0562 163.201 50.4917 163.201ZM57.3155 164.561V168.627C57.3155 168.902 57.3777 169.102 57.5021 169.226C57.6354 169.342 57.8576 169.4 58.1686 169.4H59.1017V170.666H57.902C57.2178 170.666 56.6934 170.506 56.3291 170.186C55.9647 169.866 55.7826 169.346 55.7826 168.627V164.561H54.9161V163.321H55.7826V161.495H57.3155V163.321H59.1017V164.561H57.3155ZM61.3755 162.348C61.1 162.348 60.8689 162.255 60.6823 162.068C60.4957 161.882 60.4024 161.65 60.4024 161.375C60.4024 161.1 60.4957 160.868 60.6823 160.682C60.8689 160.495 61.1 160.402 61.3755 160.402C61.6421 160.402 61.8687 160.495 62.0553 160.682C62.2419 160.868 62.3352 161.1 62.3352 161.375C62.3352 161.65 62.2419 161.882 62.0553 162.068C61.8687 162.255 61.6421 162.348 61.3755 162.348ZM62.1219 163.321V170.666H60.6023V163.321H62.1219ZM63.7105 166.987C63.7105 166.232 63.8616 165.57 64.1637 165.001C64.4748 164.423 64.9013 163.979 65.4434 163.668C65.9855 163.357 66.6076 163.201 67.3096 163.201C68.1983 163.201 68.9314 163.414 69.5091 163.841C70.0956 164.259 70.491 164.859 70.6954 165.641H69.0558C68.9225 165.276 68.7093 164.992 68.416 164.787C68.1227 164.583 67.754 164.481 67.3096 164.481C66.6876 164.481 66.1899 164.703 65.8167 165.147C65.4523 165.583 65.2701 166.196 65.2701 166.987C65.2701 167.778 65.4523 168.395 65.8167 168.84C66.1899 169.284 66.6876 169.506 67.3096 169.506C68.1894 169.506 68.7715 169.12 69.0558 168.347H70.6954C70.4822 169.093 70.0823 169.688 69.4957 170.133C68.9092 170.568 68.1805 170.786 67.3096 170.786C66.6076 170.786 65.9855 170.63 65.4434 170.319C64.9013 170 64.4748 169.555 64.1637 168.986C63.8616 168.409 63.7105 167.742 63.7105 166.987ZM73.9761 168.84L72.3632 172.519H71.3768L72.3232 168.84H73.9761ZM85.6982 166.814C85.6982 167.089 85.6804 167.338 85.6449 167.56H80.033C80.0774 168.147 80.2951 168.618 80.6861 168.973C81.0772 169.329 81.557 169.506 82.1258 169.506C82.9434 169.506 83.521 169.164 83.8587 168.48H85.4983C85.2761 169.155 84.8718 169.711 84.2852 170.146C83.7076 170.573 82.9878 170.786 82.1258 170.786C81.4237 170.786 80.7928 170.63 80.2329 170.319C79.6819 170 79.2465 169.555 78.9266 168.986C78.6155 168.409 78.46 167.742 78.46 166.987C78.46 166.232 78.6111 165.57 78.9132 165.001C79.2243 164.423 79.6553 163.979 80.2063 163.668C80.7661 163.357 81.406 163.201 82.1258 163.201C82.8189 163.201 83.4366 163.352 83.9787 163.654C84.5207 163.957 84.9429 164.383 85.245 164.934C85.5471 165.476 85.6982 166.103 85.6982 166.814ZM84.112 166.334C84.1031 165.774 83.9031 165.325 83.5121 164.987C83.1211 164.65 82.6368 164.481 82.0591 164.481C81.5348 164.481 81.086 164.65 80.7128 164.987C80.3396 165.316 80.1174 165.765 80.0463 166.334H84.112ZM88.8133 164.388C89.0355 164.014 89.3287 163.726 89.6931 163.521C90.0663 163.308 90.5062 163.201 91.0128 163.201V164.774H90.6262C90.0308 164.774 89.5776 164.925 89.2665 165.227C88.9644 165.53 88.8133 166.054 88.8133 166.8V170.666H87.2937V163.321H88.8133V164.388ZM94.0292 164.388C94.2514 164.014 94.5446 163.726 94.909 163.521C95.2822 163.308 95.7221 163.201 96.2287 163.201V164.774H95.8421C95.2467 164.774 94.7935 164.925 94.4824 165.227C94.1803 165.53 94.0292 166.054 94.0292 166.8V170.666H92.5096V163.321H94.0292V164.388ZM100.911 170.786C100.218 170.786 99.5917 170.63 99.0318 170.319C98.472 170 98.0321 169.555 97.7122 168.986C97.3922 168.409 97.2323 167.742 97.2323 166.987C97.2323 166.24 97.3967 165.578 97.7255 165.001C98.0543 164.423 98.5031 163.979 99.0718 163.668C99.6406 163.357 100.276 163.201 100.978 163.201C101.68 163.201 102.315 163.357 102.884 163.668C103.453 163.979 103.902 164.423 104.231 165.001C104.559 165.578 104.724 166.24 104.724 166.987C104.724 167.733 104.555 168.395 104.217 168.973C103.88 169.551 103.417 170 102.831 170.319C102.253 170.63 101.613 170.786 100.911 170.786ZM100.911 169.466C101.302 169.466 101.667 169.373 102.004 169.186C102.351 169 102.631 168.72 102.844 168.347C103.057 167.973 103.164 167.52 103.164 166.987C103.164 166.454 103.062 166.005 102.858 165.641C102.653 165.267 102.382 164.987 102.044 164.801C101.707 164.614 101.342 164.521 100.951 164.521C100.56 164.521 100.196 164.614 99.8583 164.801C99.5295 164.987 99.2673 165.267 99.0718 165.641C98.8763 166.005 98.7786 166.454 98.7786 166.987C98.7786 167.778 98.9785 168.391 99.3784 168.826C99.7872 169.253 100.298 169.466 100.911 169.466ZM107.846 164.388C108.068 164.014 108.361 163.726 108.725 163.521C109.099 163.308 109.539 163.201 110.045 163.201V164.774H109.658C109.063 164.774 108.61 164.925 108.299 165.227C107.997 165.53 107.846 166.054 107.846 166.8V170.666H106.326V163.321H107.846V164.388Z" fill="#454545"/>
<path d="M165.333 182H181.333C190.17 182 197.333 189.163 197.333 198V198C197.333 206.837 190.17 214 181.333 214H165.333V182Z" fill="#FFF5EB"/>
<path d="M149.333 182H165.333C174.17 182 181.333 189.163 181.333 198V198C181.333 206.837 174.17 214 165.333 214H149.333V182Z" fill="#FFEDDA"/>
<path d="M133.333 182H149.333C158.17 182 165.333 189.163 165.333 198V198C165.333 206.837 158.17 214 149.333 214H133.333V182Z" fill="#FFD6B6"/>
<path d="M117.333 182H133.333C142.17 182 149.333 189.163 149.333 198V198C149.333 206.837 142.17 214 133.333 214H117.333V182Z" fill="#FFB991"/>
<path d="M101.333 182H117.333C126.17 182 133.333 189.163 133.333 198V198C133.333 206.837 126.17 214 117.333 214H101.333V182Z" fill="#FF9E76"/>
<path d="M85.3334 182H101.333C110.17 182 117.333 189.163 117.333 198V198C117.333 206.837 110.17 214 101.333 214H85.3334V182Z" fill="#FF7149"/>
<path d="M69.3334 182H85.3334C94.1699 182 101.333 189.163 101.333 198V198C101.333 206.837 94.1699 214 85.3334 214H69.3334V182Z" fill="#DB4D35"/>
<path d="M53.3334 182H69.3334C78.1699 182 85.3334 189.163 85.3334 198V198C85.3334 206.837 78.1699 214 69.3334 214H53.3334V182Z" fill="#B72F24"/>
<path d="M37.3334 182H53.3334C62.1699 182 69.3334 189.163 69.3334 198V198C69.3334 206.837 62.1699 214 53.3334 214H37.3334V182Z" fill="#931717"/>
<rect x="21.3334" y="182" width="32" height="32" rx="16" fill="#7A0E15"/>
<circle cx="18.6666" cy="198" r="17" fill="#FF7149" stroke="#292929" stroke-width="2"/>
</svg>
