<svg width="228" height="160" viewBox="0 0 228 160" fill="none" xmlns="http://www.w3.org/2000/svg">
<path d="M84.1248 4.37359V10.2136H75.7248V54.4536H68.5247V10.2136H60.1248V4.37359H84.1248ZM95.2908 15.4136H103.131C108.144 15.4136 110.651 17.7869 110.651 22.5336V37.1736H94.8907V46.4536C94.8907 47.3603 95.0508 47.9736 95.3708 48.2936C95.6908 48.6136 96.3308 48.7736 97.2908 48.7736H100.971C101.931 48.7736 102.571 48.6136 102.891 48.2936C103.211 47.9736 103.371 47.3336 103.371 46.3736V43.1736H110.411V47.4136C110.411 52.1069 107.931 54.4536 102.971 54.4536H95.2908C90.3308 54.4536 87.8508 52.1069 87.8508 47.4136V22.5336C87.8508 17.7869 90.3308 15.4136 95.2908 15.4136ZM94.8907 31.8936H103.531V23.4136C103.531 22.5069 103.371 21.8936 103.051 21.5736C102.784 21.2536 102.171 21.0936 101.211 21.0936H97.2908C96.3308 21.0936 95.6908 21.2536 95.3708 21.5736C95.0508 21.8936 94.8907 22.5069 94.8907 23.4136V31.8936ZM141.639 15.4136L132.679 34.0536L141.639 54.4536H133.959L125.319 34.0536L133.959 15.4136H141.639ZM116.839 54.4536V0.933594H124.039V54.4536H116.839ZM152.393 15.4136H160.953C165.913 15.4136 168.393 17.7869 168.393 22.5336V47.4136C168.393 52.1069 165.913 54.4536 160.953 54.4536H152.393C147.486 54.4536 145.033 52.1069 145.033 47.4136V22.5336C145.033 17.7869 147.486 15.4136 152.393 15.4136ZM161.273 46.3736V23.4936C161.273 22.5336 161.113 21.8936 160.793 21.5736C160.473 21.2536 159.833 21.0936 158.873 21.0936H154.473C153.513 21.0936 152.873 21.2536 152.553 21.5736C152.286 21.8936 152.153 22.5336 152.153 23.4936V46.3736C152.153 47.3336 152.286 47.9736 152.553 48.2936C152.873 48.6136 153.513 48.7736 154.473 48.7736H158.873C159.833 48.7736 160.473 48.6136 160.793 48.2936C161.113 47.9736 161.273 47.3336 161.273 46.3736Z" fill="#292929"/>
<path d="M138.759 77.4531L138.759 74.4531L89.7588 74.4531L89.7588 77.4531L138.759 77.4531Z" fill="#292929"/>
<path d="M6.12674 126.373V143.413H0.666748V101.113H14.1068C18.9468 101.113 22.5667 102.253 24.9667 104.533C27.3667 106.773 28.5667 109.853 28.5667 113.773C28.5667 117.733 27.3267 120.833 24.8467 123.073C22.3667 125.273 18.7868 126.373 14.1068 126.373H6.12674ZM13.6267 121.813C16.9467 121.813 19.3268 121.113 20.7668 119.713C22.2468 118.313 22.9868 116.333 22.9868 113.773C22.9868 111.133 22.2468 109.133 20.7668 107.773C19.3268 106.373 16.9467 105.673 13.6267 105.673H6.12674V121.813H13.6267ZM49.3837 110.053C52.5437 110.053 55.3637 110.733 57.8438 112.093C60.3637 113.453 62.3238 115.413 63.7238 117.973C65.1638 120.533 65.8837 123.533 65.8837 126.973C65.8837 130.413 65.1638 133.413 63.7238 135.973C62.3238 138.493 60.3637 140.433 57.8438 141.793C55.3637 143.153 52.5437 143.833 49.3837 143.833C46.2237 143.833 43.3837 143.153 40.8637 141.793C38.3837 140.433 36.4237 138.493 34.9837 135.973C33.5437 133.413 32.8237 130.413 32.8237 126.973C32.8237 123.533 33.5437 120.533 34.9837 117.973C36.4237 115.413 38.3837 113.453 40.8637 112.093C43.3837 110.733 46.2237 110.053 49.3837 110.053ZM49.3837 114.853C47.4237 114.853 45.6037 115.293 43.9237 116.173C42.2837 117.053 40.9437 118.413 39.9037 120.253C38.9037 122.053 38.4037 124.293 38.4037 126.973C38.4037 129.613 38.9037 131.853 39.9037 133.693C40.9437 135.493 42.2837 136.833 43.9237 137.713C45.6037 138.593 47.4237 139.033 49.3837 139.033C51.3437 139.033 53.1438 138.593 54.7838 137.713C56.4638 136.833 57.8037 135.493 58.8037 133.693C59.8437 131.853 60.3637 129.613 60.3637 126.973C60.3637 124.293 59.8437 122.053 58.8037 120.253C57.8037 118.413 56.4638 117.053 54.7838 116.173C53.1438 115.293 51.3437 114.853 49.3837 114.853ZM90.6788 110.053C93.5988 110.053 96.1988 110.733 98.4788 112.093C100.759 113.453 102.539 115.413 103.819 117.973C105.139 120.533 105.799 123.533 105.799 126.973C105.799 130.413 105.139 133.413 103.819 135.973C102.539 138.493 100.759 140.433 98.4788 141.793C96.1988 143.153 93.5988 143.833 90.6788 143.833C87.4788 143.833 84.7587 143.033 82.5187 141.433C80.3187 139.793 78.7987 137.653 77.9587 135.013V159.013H72.4987V110.473H77.9587V118.873C78.7987 116.233 80.3187 114.113 82.5187 112.513C84.7587 110.873 87.4788 110.053 90.6788 110.053ZM89.1187 114.913C86.9987 114.913 85.0788 115.413 83.3588 116.413C81.6388 117.373 80.2987 118.773 79.3387 120.613C78.3787 122.453 77.8987 124.573 77.8987 126.973C77.8987 129.373 78.3787 131.493 79.3387 133.333C80.2987 135.133 81.6388 136.533 83.3588 137.533C85.0788 138.533 86.9987 139.033 89.1187 139.033C92.5187 139.033 95.2188 137.973 97.2188 135.853C99.2587 133.693 100.279 130.733 100.279 126.973C100.279 123.213 99.2587 120.273 97.2188 118.153C95.2188 115.993 92.5187 114.913 89.1187 114.913ZM130.609 110.053C133.529 110.053 136.129 110.733 138.409 112.093C140.689 113.453 142.469 115.413 143.749 117.973C145.069 120.533 145.729 123.533 145.729 126.973C145.729 130.413 145.069 133.413 143.749 135.973C142.469 138.493 140.689 140.433 138.409 141.793C136.129 143.153 133.529 143.833 130.609 143.833C127.409 143.833 124.689 143.033 122.449 141.433C120.249 139.793 118.729 137.653 117.889 135.013V159.013H112.429V110.473H117.889V118.873C118.729 116.233 120.249 114.113 122.449 112.513C124.689 110.873 127.409 110.053 130.609 110.053ZM129.049 114.913C126.929 114.913 125.009 115.413 123.289 116.413C121.569 117.373 120.229 118.773 119.269 120.613C118.309 122.453 117.829 124.573 117.829 126.973C117.829 129.373 118.309 131.493 119.269 133.333C120.229 135.133 121.569 136.533 123.289 137.533C125.009 138.533 126.929 139.033 129.049 139.033C132.449 139.033 135.149 137.973 137.149 135.853C139.189 133.693 140.209 130.733 140.209 126.973C140.209 123.213 139.189 120.273 137.149 118.153C135.149 115.993 132.449 114.913 129.049 114.913ZM151.398 100.813C151.398 99.8131 151.738 99.0131 152.418 98.4131C153.098 97.7731 153.998 97.4531 155.118 97.4531C156.238 97.4531 157.138 97.7731 157.818 98.4131C158.498 99.0131 158.838 99.8131 158.838 100.813C158.838 101.813 158.498 102.633 157.818 103.273C157.138 103.873 156.238 104.173 155.118 104.173C153.998 104.173 153.098 103.873 152.418 103.273C151.738 102.633 151.398 101.813 151.398 100.813ZM157.818 110.473V143.413H152.358V110.473H157.818ZM183.437 109.933C187.277 109.933 190.377 111.173 192.737 113.653C195.097 116.093 196.277 119.633 196.277 124.273V143.413H190.817V124.753C190.817 121.473 189.977 118.953 188.297 117.193C186.617 115.433 184.337 114.553 181.457 114.553C178.457 114.553 176.057 115.533 174.257 117.493C172.457 119.413 171.557 122.233 171.557 125.953V143.413H166.097V110.473H171.557V118.273C172.397 115.593 173.877 113.533 175.997 112.093C178.157 110.653 180.637 109.933 183.437 109.933ZM214.471 110.053C218.191 110.053 221.171 111.033 223.411 112.993C225.691 114.913 227.071 117.513 227.551 120.793H222.331C222.091 118.833 221.271 117.233 219.871 115.993C218.511 114.713 216.671 114.073 214.351 114.073C212.391 114.073 210.851 114.553 209.731 115.513C208.651 116.433 208.111 117.693 208.111 119.293C208.111 120.493 208.471 121.473 209.191 122.233C209.951 122.953 210.871 123.513 211.951 123.913C213.071 124.273 214.591 124.673 216.511 125.113C218.951 125.673 220.911 126.253 222.391 126.853C223.911 127.413 225.191 128.333 226.231 129.613C227.311 130.893 227.851 132.613 227.851 134.773C227.851 137.453 226.831 139.633 224.791 141.313C222.791 142.993 220.111 143.833 216.751 143.833C212.831 143.833 209.631 142.893 207.151 141.013C204.671 139.133 203.211 136.513 202.771 133.153H208.051C208.251 135.153 209.111 136.773 210.631 138.013C212.191 139.253 214.231 139.873 216.751 139.873C218.631 139.873 220.091 139.393 221.131 138.433C222.211 137.473 222.751 136.213 222.751 134.653C222.751 133.373 222.371 132.353 221.611 131.593C220.851 130.833 219.911 130.253 218.791 129.853C217.671 129.453 216.131 129.033 214.171 128.593C211.731 128.033 209.771 127.473 208.291 126.913C206.851 126.353 205.611 125.473 204.571 124.273C203.571 123.033 203.071 121.373 203.071 119.293C203.071 116.533 204.091 114.313 206.131 112.633C208.171 110.913 210.951 110.053 214.471 110.053Z" fill="#292929"/>
</svg>
