<svg width="440" height="248" viewBox="0 0 440 248" fill="none" xmlns="http://www.w3.org/2000/svg">
<rect width="440" height="247.084" transform="translate(0 0.595703)" fill="url(#paint0_linear_10364_51241)"/>
<g filter="url(#filter0_d_10364_51241)">
<rect x="176.528" y="21.6133" width="87.8934" height="14.6489" fill="white"/>
</g>
<rect x="136.244" y="57.3184" width="10.9867" height="9.15556" fill="white"/>
<rect x="161.879" y="60.0645" width="142.827" height="3.66222" fill="white"/>
<rect x="136.244" y="70.1367" width="10.9867" height="9.15556" fill="white"/>
<rect x="161.879" y="72.8828" width="142.827" height="3.66222" fill="white"/>
<rect x="136.244" y="82.9531" width="10.9867" height="9.15556" fill="white"/>
<rect x="161.879" y="85.6992" width="142.827" height="3.66222" fill="white"/>
<rect x="136.244" y="95.7715" width="10.9867" height="9.15556" fill="#DDDDDD"/>
<rect x="161.879" y="98.5176" width="142.827" height="3.66222" fill="#DDDDDD"/>
<rect x="136.244" y="108.59" width="10.9867" height="9.15556" fill="#DDDDDD"/>
<rect x="161.879" y="111.336" width="142.827" height="3.66222" fill="#DDDDDD"/>
<rect x="136.244" y="121.408" width="10.9867" height="9.15556" fill="#DDDDDD"/>
<rect x="161.879" y="124.154" width="142.827" height="3.66222" fill="#DDDDDD"/>
<rect x="136.244" y="134.225" width="10.9867" height="9.15556" fill="#DDDDDD"/>
<rect x="161.879" y="136.971" width="142.827" height="3.66222" fill="#DDDDDD"/>
<rect x="136.244" y="147.043" width="10.9867" height="9.15556" fill="#DDDDDD"/>
<rect x="161.879" y="149.789" width="142.827" height="3.66222" fill="#DDDDDD"/>
<rect x="136.244" y="159.861" width="10.9867" height="9.15556" fill="#DDDDDD"/>
<rect x="161.879" y="162.607" width="142.827" height="3.66222" fill="#DDDDDD"/>
<rect x="136.244" y="172.678" width="10.9867" height="9.15556" fill="#DDDDDD"/>
<rect x="161.879" y="175.424" width="142.827" height="3.66222" fill="#DDDDDD"/>
<rect x="136.244" y="185.496" width="10.9867" height="9.15556" fill="#BCBCBC"/>
<rect x="161.879" y="188.242" width="142.827" height="3.66222" fill="#BCBCBC"/>
<rect x="136.244" y="198.314" width="10.9867" height="9.15556" fill="#BCBCBC"/>
<rect x="161.879" y="201.061" width="142.827" height="3.66222" fill="#BCBCBC"/>
<rect x="136.244" y="211.131" width="10.9867" height="9.15556" fill="#BCBCBC"/>
<rect x="161.879" y="213.877" width="142.827" height="3.66222" fill="#BCBCBC"/>
<rect x="136.244" y="223.949" width="10.9867" height="9.15556" fill="#BCBCBC"/>
<rect x="161.879" y="226.695" width="142.827" height="3.66222" fill="#BCBCBC"/>
<defs>
<filter id="filter0_d_10364_51241" x="167.025" y="12.11" width="106.9" height="33.6549" filterUnits="userSpaceOnUse" color-interpolation-filters="sRGB">
<feFlood flood-opacity="0" result="BackgroundImageFix"/>
<feColorMatrix in="SourceAlpha" type="matrix" values="0 0 0 0 0 0 0 0 0 0 0 0 0 0 0 0 0 0 127 0" result="hardAlpha"/>
<feOffset/>
<feGaussianBlur stdDeviation="4.75162"/>
<feComposite in2="hardAlpha" operator="out"/>
<feColorMatrix type="matrix" values="0 0 0 0 1 0 0 0 0 1 0 0 0 0 1 0 0 0 0.35 0"/>
<feBlend mode="normal" in2="BackgroundImageFix" result="effect1_dropShadow_10364_51241"/>
<feBlend mode="normal" in="SourceGraphic" in2="effect1_dropShadow_10364_51241" result="shape"/>
</filter>
<linearGradient id="paint0_linear_10364_51241" x1="-176.76" y1="122.773" x2="616.761" y2="123.219" gradientUnits="userSpaceOnUse">
<stop stop-color="#191617"/>
<stop offset="1" stop-color="#292929"/>
</linearGradient>
</defs>
</svg>
