<svg xmlns="http://www.w3.org/2000/svg" width="440" height="311" fill="none" xmlns:v="https://vecta.io/nano"><style><![CDATA[.B{fill:#454545}.C{fill:#fff}.D{stroke:#ddd}.E{color-interpolation-filters:sRGB}.F{flood-opacity:0}.G{stroke-opacity:.2}.H{stroke-opacity:.6}]]></style><path d="M0 0h440v310.756H0z" class="C"/><path d="M66.4475 145.93C62.7673 143.292 59.1153 140.667 57.9696 135.897C55.9592 127.525 65.7535 114.534 72.6999 110.238L73.1748 110.238C69.8486 114.039 65.3346 121.134 64.1467 124.017C62.9588 126.901 62.5558 130.519 63.2843 133.552C64.1274 137.062 66.1932 139.956 68.8824 141.956L73.8342 133.874L77.7253 150.077L61.5231 153.968L66.4475 145.93Z" fill="url(#H)" stroke="url(#H)" stroke-width="6.652"/><g filter="url(#E)"><path d="M64.305 45.574h199.072V98.78H64.305z" class="C"/><path stroke-width="1.21" d="M64.91 46.179h197.861v51.995H64.91z" class="D G"/><g clip-path="url(#I)" class="B"><path d="M105.064 77.964v2.316H91.171v-2.316s0-4.631 6.947-4.631 6.946 4.631 6.946 4.631zm-3.473-10.42a3.48 3.48 0 0 0-.585-1.93c-.382-.571-.924-1.016-1.559-1.279a3.47 3.47 0 0 0-2.007-.198c-.674.134-1.293.465-1.778.95s-.817 1.105-.951 1.779-.065 1.372.198 2.007.708 1.177 1.279 1.559 1.243.585 1.93.585c.921 0 1.805-.366 2.456-1.017s1.017-1.535 1.017-2.456zm3.705 5.858c.633.584 1.143 1.288 1.501 2.071a6.48 6.48 0 0 1 .583 2.491v2.316h3.473v-2.316s0-3.994-5.557-4.562zm-1.389-9.332a3.36 3.36 0 0 0-1.031.162c.678.971 1.041 2.127 1.041 3.311s-.363 2.34-1.041 3.311a3.36 3.36 0 0 0 1.031.162c.921 0 1.804-.366 2.456-1.017s1.017-1.535 1.017-2.456-.366-1.805-1.017-2.456-1.535-1.017-2.456-1.017zm-11.578 5.789h-3.473v-3.473H86.54v3.473h-3.473v2.316h3.473v3.473h2.316v-3.473h3.473v-2.316z"/></g><path d="M131.154 78.678v-13.04h2.129v13.04h-2.129zm4.951 0v-9.999h1.634l.171 1.426h.133c.241-.368.526-.672.856-.912a3.79 3.79 0 0 1 1.083-.551c.406-.127.849-.19 1.331-.19.634 0 1.191.114 1.673.342.481.215.855.57 1.121 1.064.279.494.418 1.16.418 1.996v6.824h-1.977v-6.52c0-.38-.05-.697-.152-.95a1.37 1.37 0 0 0-.399-.608c-.177-.152-.386-.26-.627-.323a3.14 3.14 0 0 0-.798-.095 2.39 2.39 0 0 0-1.255.342c-.368.215-.665.519-.893.912s-.343.855-.343 1.388v5.855h-1.976zm13.5 0l-3.706-9.999h2.071l1.73 4.771.285.893.343 1.102.304 1.026h.095l.266-.988.342-1.122.304-.912 1.711-4.771h2.015l-3.726 9.999h-2.034zm7.197-11.728v-2.015h1.977v2.015h-1.977zm0 11.728v-9.999h1.977v9.999h-1.977zm7.02.228c-.57 0-1.02-.108-1.35-.323a1.94 1.94 0 0 1-.684-.855c-.127-.355-.19-.729-.19-1.121v-6.292h-1.255v-1.635h1.293l.361-2.794h1.578v2.794h1.806v1.635h-1.806v6.064c0 .291.063.513.19.665s.336.228.627.228h.989v1.331c-.127.051-.286.095-.476.133-.177.051-.361.089-.551.114a2.72 2.72 0 0 1-.532.057zm7.445 0c-1.026 0-1.888-.184-2.585-.551-.684-.38-1.204-.957-1.559-1.73s-.532-1.755-.532-2.946c0-1.204.178-2.186.532-2.946.355-.773.881-1.343 1.578-1.711.697-.38 1.565-.57 2.604-.57.951 0 1.743.184 2.376.551.647.355 1.135.9 1.464 1.635s.494 1.66.494 2.775v.76h-7.014c.025.71.133 1.305.323 1.787.19.469.475.817.856 1.045.392.215.887.323 1.482.323.368 0 .697-.044.989-.133.291-.101.538-.241.741-.418a2.06 2.06 0 0 0 .475-.665c.114-.266.171-.564.171-.893h1.939c0 .596-.101 1.121-.304 1.578s-.5.843-.893 1.159c-.38.304-.837.539-1.369.703s-1.121.247-1.768.247zm-2.604-6.178h4.904c0-.494-.057-.906-.171-1.236-.101-.342-.253-.621-.456-.836a1.68 1.68 0 0 0-.722-.456c-.279-.101-.596-.152-.951-.152-.532 0-.988.095-1.368.285-.368.19-.653.488-.856.893-.203.393-.329.893-.38 1.502zm15.412 6.178c-.317 0-.659-.038-1.026-.114s-.716-.215-1.046-.418c-.317-.203-.577-.482-.779-.836-.203-.367-.304-.843-.304-1.426 0-.684.158-1.248.475-1.692s.76-.792 1.33-1.045 1.249-.431 2.034-.532a20.75 20.75 0 0 1 2.605-.152v-.988c0-.329-.058-.621-.172-.874-.101-.253-.297-.45-.589-.589-.279-.139-.684-.209-1.216-.209s-.951.07-1.255.209c-.291.127-.501.291-.627.494-.114.19-.171.399-.171.627v.285h-1.901c-.013-.063-.019-.127-.019-.19v-.228c0-.596.165-1.096.494-1.502.342-.418.817-.735 1.426-.95s1.311-.323 2.11-.323c.861 0 1.577.127 2.148.38.583.241 1.02.589 1.311 1.046s.437 1.007.437 1.654v5.075c0 .241.057.412.171.513a.68.68 0 0 0 .438.152h.684v1.331a4.97 4.97 0 0 1-.57.19c-.228.063-.495.095-.799.095-.342 0-.633-.063-.874-.19-.228-.114-.418-.279-.57-.494a2.17 2.17 0 0 1-.285-.76h-.114c-.229.291-.507.551-.837.779-.317.215-.684.38-1.102.494-.419.127-.887.19-1.407.19zm.551-1.635c.393 0 .754-.057 1.084-.171.342-.127.633-.298.874-.513.241-.228.431-.494.57-.798a2.51 2.51 0 0 0 .21-1.026v-.665c-.875 0-1.642.051-2.301.152s-1.172.291-1.539.57c-.368.266-.551.64-.551 1.121 0 .291.063.539.19.741.126.19.316.336.57.437s.551.152.893.152zm11.707 1.407v-8.364h-1.463v-1.635h1.463v-1.445a3.61 3.61 0 0 1 .19-1.179c.14-.367.374-.672.704-.912.342-.241.823-.361 1.444-.361a3.76 3.76 0 0 1 .533.038 3.37 3.37 0 0 1 .532.076 2.99 2.99 0 0 1 .437.133v1.388h-.969c-.305 0-.533.076-.685.228-.139.152-.209.374-.209.665v1.369h1.863v1.635h-1.863v8.364h-1.977zm5.132 0v-9.999h1.635l.171 1.616h.114c.114-.317.26-.615.437-.893.19-.279.431-.507.722-.684.305-.177.672-.266 1.103-.266a2.2 2.2 0 0 1 .532.057l.38.095v1.863h-.665c-.405 0-.767.063-1.083.19a2.04 2.04 0 0 0-.78.57c-.203.241-.355.539-.456.893-.089.355-.133.754-.133 1.198v5.36h-1.977zm6.571-11.728v-2.015h1.977v2.015h-1.977zm0 11.728v-9.999h1.977v9.999h-1.977zm8.674.228c-1.027 0-1.889-.184-2.586-.551-.684-.38-1.203-.957-1.558-1.73s-.533-1.755-.533-2.946c0-1.204.178-2.186.533-2.946.355-.773.88-1.343 1.577-1.711.697-.38 1.565-.57 2.605-.57.95 0 1.742.184 2.376.551.646.355 1.134.9 1.463 1.635s.495 1.66.495 2.775v.76h-7.015c.026.71.133 1.305.324 1.787.19.469.475.817.855 1.045.393.215.887.323 1.483.323a3.39 3.39 0 0 0 .988-.133c.292-.101.539-.241.741-.418.203-.19.362-.412.476-.665.114-.266.171-.564.171-.893h1.939c0 .596-.102 1.121-.305 1.578s-.5.843-.893 1.159c-.38.304-.836.539-1.369.703s-1.121.247-1.767.247zm-2.605-6.178h4.905c0-.494-.057-.906-.171-1.236a2.05 2.05 0 0 0-.457-.836 1.67 1.67 0 0 0-.722-.456 2.77 2.77 0 0 0-.95-.152c-.533 0-.989.095-1.369.285-.368.19-.653.488-.855.893-.203.393-.33.893-.381 1.502zm8.986 5.95v-9.999h1.635l.171 1.426h.133a3.48 3.48 0 0 1 .855-.912 3.81 3.81 0 0 1 1.084-.551 4.44 4.44 0 0 1 1.33-.19c.634 0 1.192.114 1.673.342a2.34 2.34 0 0 1 1.122 1.064c.278.494.418 1.16.418 1.996v6.824h-1.977v-6.52c0-.38-.051-.697-.152-.95-.089-.254-.222-.456-.399-.608s-.387-.26-.628-.323-.507-.095-.798-.095c-.456 0-.874.114-1.255.342-.367.215-.665.519-.893.912s-.342.855-.342 1.388v5.855h-1.977zm14.337.228c-.811 0-1.514-.184-2.11-.551s-1.058-.938-1.388-1.711c-.316-.773-.475-1.774-.475-3.003 0-1.204.165-2.186.494-2.946s.786-1.324 1.369-1.692 1.255-.551 2.015-.551c.444 0 .855.051 1.236.152s.716.26 1.007.475c.304.215.558.488.76.817h.133v-4.961h1.977v13.743h-1.615l-.191-1.369h-.133c-.329.532-.766.931-1.311 1.198-.532.266-1.122.399-1.768.399zm.551-1.711c.583 0 1.052-.127 1.407-.38.367-.266.64-.646.817-1.14.178-.507.266-1.122.266-1.844v-.266c0-.608-.057-1.128-.171-1.559s-.278-.779-.494-1.045c-.215-.279-.475-.482-.779-.608a2.65 2.65 0 0 0-1.027-.19c-.583 0-1.058.12-1.425.361-.368.228-.64.589-.818 1.083-.164.494-.247 1.134-.247 1.92v.342c0 .786.089 1.426.266 1.92.178.482.444.836.799 1.065.367.228.836.342 1.406.342z" class="B"/></g><path d="M202.699 23.611h71.965V56.59h-71.965z" class="C"/><path stroke-width="1.105" d="M203.251 24.164h70.86v31.874h-70.86z" class="D H"/><mask id="A" maskUnits="userSpaceOnUse" x="209.68" y="37.6" width="8" height="8" fill="#000"><path d="M209.68 37.6h8v8h-8z" class="C"/><path d="M212.898 44.6v-2.45h-2.27v-1.273h2.27v-2.462h1.261v2.462h2.282v1.273h-2.282v2.45h-1.261z"/></mask><path d="M212.898 44.6v-2.45h-2.27v-1.273h2.27v-2.462h1.261v2.462h2.282v1.273h-2.282v2.45h-1.261z" class="B"/><path d="M212.898 44.6h-.364v.364h.364V44.6zm0-2.45h.364v-.364h-.364v.364zm-2.27 0h-.364v.364h.364v-.364zm0-1.273v-.364h-.364v.364h.364zm2.27 0v.364h.364v-.364h-.364zm0-2.462v-.364h-.364v.364h.364zm1.261 0h.364v-.364h-.364v.364zm0 2.462h-.364v.364h.364v-.364zm2.282 0h.364v-.364h-.364v.364zm0 1.273v.364h.364v-.364h-.364zm-2.282 0v-.364h-.364v.364h.364zm0 2.45v.364h.364V44.6h-.364zm-.897 0v-2.45h-.728v2.45h.728zm-.364-2.814h-2.27v.728h2.27v-.728zm-1.905.364v-1.273h-.729v1.273h.729zm-.365-.909h2.27v-.728h-2.27v.728zm2.634-.364v-2.462h-.728v2.462h.728zm-.364-2.098h1.261v-.728h-1.261v.728zm.897-.364v2.462h.728v-2.462h-.728zm.364 2.826h2.282v-.728h-2.282v.728zm1.918-.364v1.273h.728v-1.273h-.728zm.364.909h-2.282v.728h2.282v-.728zm-2.646.364v2.45h.728v-2.45h-.728zm.364 2.086h-1.261v.728h1.261v-.728z" mask="url(#A)" class="B"/><mask id="B" maskUnits="userSpaceOnUse" x="220.682" y="32.6" width="46" height="17" fill="#000"><path d="M220.682 32.6h46v17h-46z" class="C"/><path d="M221.166 45.6l.359-2.008h2.94l1.291-7.261h-2.976l.269-1.506a6.36 6.36 0 0 0 1.04-.179l1.201-.341 1.255-.466 1.147-.556h1.094l-1.811 10.309h2.743l-.359 2.008h-8.193zm14.929.215c-.824 0-1.53-.125-2.115-.377-.574-.251-1.01-.657-1.309-1.219-.299-.574-.448-1.327-.448-2.259l.018-.753.089-.843.144-.95c.203-1.183.46-2.175.771-2.976.31-.813.681-1.464 1.111-1.954.442-.502.944-.861 1.506-1.076.574-.215 1.213-.323 1.919-.323.848 0 1.559.126 2.133.377a2.62 2.62 0 0 1 1.327 1.237c.298.562.448 1.309.448 2.241l-.036.771-.09.843-.143.897c-.191 1.195-.448 2.199-.771 3.012-.311.801-.687 1.452-1.129 1.954-.443.49-.945.849-1.506 1.076-.562.215-1.202.323-1.919.323zm.036-1.936c.418 0 .771-.084 1.058-.251a1.98 1.98 0 0 0 .717-.753c.203-.347.376-.795.52-1.345l.43-1.936.162-.986.107-.753.072-.574.018-.448c0-.609-.114-1.064-.341-1.362-.215-.299-.586-.448-1.111-.448-.419 0-.771.084-1.058.251s-.532.424-.735.771c-.192.347-.359.789-.502 1.327l-.431 1.936-.179.986-.125.753-.054.574-.018.43c0 .61.114 1.07.341 1.381.227.299.603.448 1.129.448zm8.732 1.721l4.374-4.912-2.456-4.518h2.779l1.398 2.833h.108l2.366-2.833h2.833l-4.106 4.59 2.636 4.841h-2.779l-1.506-3.084h-.108l-2.653 3.084h-2.886zm10.69 3.191l2.223-12.622h2.026l.018 1.273h.125c.371-.514.813-.891 1.327-1.13s1.058-.359 1.631-.359c.682 0 1.261.132 1.739.395.49.263.867.657 1.13 1.183.263.514.394 1.159.394 1.936l-.036.753-.107.825c-.191 1.088-.502 1.984-.932 2.689-.419.705-.927 1.231-1.524 1.578-.586.335-1.231.502-1.937.502-.442 0-.842-.048-1.201-.143-.346-.084-.651-.221-.914-.412a2.29 2.29 0 0 1-.61-.699h-.125l-.735 4.231h-2.492zm5.378-5.02c.502 0 .914-.096 1.237-.287s.586-.484.789-.878.359-.879.466-1.452l.126-.681.053-.466.018-.358c0-.37-.059-.675-.179-.914a1.17 1.17 0 0 0-.538-.538c-.239-.132-.556-.197-.95-.197-.454 0-.855.108-1.201.323-.335.215-.61.526-.825.932s-.37.896-.466 1.47l-.09.556-.053.394v.305c0 .382.053.711.161.986.119.263.299.466.538.61.239.131.544.197.914.197z"/></mask><path d="M221.166 45.6l.359-2.008h2.94l1.291-7.261h-2.976l.269-1.506a6.36 6.36 0 0 0 1.04-.179l1.201-.341 1.255-.466 1.147-.556h1.094l-1.811 10.309h2.743l-.359 2.008h-8.193zm14.929.215c-.824 0-1.53-.125-2.115-.377-.574-.251-1.01-.657-1.309-1.219-.299-.574-.448-1.327-.448-2.259l.018-.753.089-.843.144-.95c.203-1.183.46-2.175.771-2.976.31-.813.681-1.464 1.111-1.954.442-.502.944-.861 1.506-1.076.574-.215 1.213-.323 1.919-.323.848 0 1.559.126 2.133.377a2.62 2.62 0 0 1 1.327 1.237c.298.562.448 1.309.448 2.241l-.036.771-.09.843-.143.897c-.191 1.195-.448 2.199-.771 3.012-.311.801-.687 1.452-1.129 1.954-.443.49-.945.849-1.506 1.076-.562.215-1.202.323-1.919.323zm.036-1.936c.418 0 .771-.084 1.058-.251a1.98 1.98 0 0 0 .717-.753c.203-.347.376-.795.52-1.345l.43-1.936.162-.986.107-.753.072-.574.018-.448c0-.609-.114-1.064-.341-1.362-.215-.299-.586-.448-1.111-.448-.419 0-.771.084-1.058.251s-.532.424-.735.771c-.192.347-.359.789-.502 1.327l-.431 1.936-.179.986-.125.753-.054.574-.018.43c0 .61.114 1.07.341 1.381.227.299.603.448 1.129.448zm8.732 1.721l4.374-4.912-2.456-4.518h2.779l1.398 2.833h.108l2.366-2.833h2.833l-4.106 4.59 2.636 4.841h-2.779l-1.506-3.084h-.108l-2.653 3.084h-2.886zm10.69 3.191l2.223-12.622h2.026l.018 1.273h.125c.371-.514.813-.891 1.327-1.13s1.058-.359 1.631-.359c.682 0 1.261.132 1.739.395.49.263.867.657 1.13 1.183.263.514.394 1.159.394 1.936l-.036.753-.107.825c-.191 1.088-.502 1.984-.932 2.689-.419.705-.927 1.231-1.524 1.578-.586.335-1.231.502-1.937.502-.442 0-.842-.048-1.201-.143-.346-.084-.651-.221-.914-.412a2.29 2.29 0 0 1-.61-.699h-.125l-.735 4.231h-2.492zm5.378-5.02c.502 0 .914-.096 1.237-.287s.586-.484.789-.878.359-.879.466-1.452l.126-.681.053-.466.018-.358c0-.37-.059-.675-.179-.914a1.17 1.17 0 0 0-.538-.538c-.239-.132-.556-.197-.95-.197-.454 0-.855.108-1.201.323-.335.215-.61.526-.825.932s-.37.896-.466 1.47l-.09.556-.053.394v.305c0 .382.053.711.161.986.119.263.299.466.538.61.239.131.544.197.914.197z" class="B"/><path d="M221.166 45.6l-.358-.064-.077.428h.435V45.6zm.359-2.008v-.364h-.305l-.054.3.359.064zm2.94 0v.364h.305l.053-.3-.358-.064zm1.291-7.261l.358.064.076-.428h-.434v.364zm-2.976 0l-.359-.064-.076.428h.435v-.364zm.269-1.506l-.028-.363-.281.022-.05.277.359.064zm1.04-.179l.088.353h0l-.088-.353zm1.201-.341l.109.347.006-.002-.115-.345zm1.255-.466l.138.337.009-.004-.147-.333zm1.147-.556v-.364h-.091l-.08.043.171.321zm1.094 0l.358.063.075-.427h-.433v.364zm-1.811 10.309l-.359-.063-.075.427h.434v-.364zm2.743 0l.358.064.077-.428h-.435v.364zm-.359 2.008v.364h.305l.054-.3-.359-.064zm-7.834.064l.358-2.008-.717-.128-.358 2.008.717.128zm0-1.708h2.94v-.728h-2.94v.728zm3.298-.3l1.291-7.261-.717-.127-1.29 7.261.716.127zm.933-7.689h-2.976v.728h2.976v-.728zm-2.618.428l.269-1.506-.717-.128-.269 1.506.717.128zm-.061-1.207c.335-.026.702-.09 1.1-.189l-.177-.706c-.367.092-.693.148-.979.169l.056.726zm1.1-.189l1.222-.347-.218-.695-1.181.335.177.706zm1.228-.349l1.278-.475-.277-.673-1.231.457.23.691zm1.287-.478l1.171-.568-.342-.642-1.123.544.294.666zm1-.525h1.094v-.728h-1.094v.728zm.735-.427l-1.811 10.309.718.126 1.81-10.309-.717-.126zm-1.452 10.736h2.743v-.728h-2.743v.728zm2.385-.428l-.359 2.008.717.128.358-2.008-.716-.128zm-.001 1.708h-8.193v.728h8.193v-.728zm4.621.203l-.146.334.002.001.144-.335zm-1.309-1.219l-.323.168.001.003.322-.171zm-.43-3.012l-.363-.032-.001.008v.008l.364.017zm.089-.843l.362.045v-.002l-.362-.043zm.144-.95l.358.064.001-.002-.359-.062zm.771-2.976l.339.132.001-.002-.34-.13zm1.111-1.954l-.273-.241v.001l.273.24zm1.506-1.076l-.128-.341-.002.001.13.34zm4.052.054l-.146.334.003.001.143-.335zm1.327 1.237l-.323.168.001.003.322-.171zm.412 3.012l.363.033v-.001l-.363-.032zm-.09.843l.362.045v-.002l-.362-.043zm-.143.897l-.358-.069-.002.011.36.058zm-.771 3.012l-.338-.134-.001.003.339.132zm-1.129 1.954l.27.244.003-.003-.273-.241zm-1.506 1.076l.13.34.006-.002-.136-.338zm-.825-1.864l-.184-.314h0l.184.314zm.717-.753l-.314-.184-.002.004.316.181zm.52-1.345l-.352-.092h0l.352.092zm.43-1.936l.358.069.002-.011-.36-.058zm.162-.986l.359.06h0l-.359-.06zm.107-.753l-.359-.06-.002.01-.001.01.362.04zm.072-.574l-.363-.026h0l.363.026zm-.323-1.811l-.295.213.005.008.29-.22zm-2.169-.197l-.184-.314h0l.184.314zm-.735.771l-.314-.184-.005.008.319.176zm-.502 1.327l.352.094h0l-.352-.094zm-.431 1.936l.358.069v-.001l-.358-.068zm-.179.986l-.359-.06h0l.359.06zm-.125.753l-.359-.06-.002.01-.001.01.362.04zm-.054.574l.363.028v-.002l-.363-.026zm.323 1.811l-.294.215.004.005.29-.22zm1.093 2.02c-.789 0-1.443-.12-1.972-.347l-.287.669c.642.275 1.399.406 2.259.406v-.728zm-1.969-.346c-.498-.218-.873-.566-1.134-1.056l-.643.342c.337.633.835 1.097 1.485 1.382l.292-.667zm-1.132-1.054c-.263-.504-.407-1.193-.407-2.091h-.728c0 .967.154 1.784.489 2.427l.646-.336zm-.407-2.091l.017-.736-.727-.033-.018.769h.728zm.016-.721l.089-.829-.723-.09-.091.856.725.063zm.089-.831l.14-.93-.717-.128-.146.971.723.087zm.141-.932c.2-1.168.452-2.135.751-2.906l-.679-.263c-.322.83-.584 1.848-.79 3.046l.718.123zm.752-2.908c.3-.785.651-1.395 1.045-1.844l-.547-.48c-.467.531-.857 1.224-1.178 2.064l.68.26zm1.044-1.843c.408-.463.863-.785 1.363-.976l-.26-.68c-.623.239-1.172.634-1.649 1.175l.546.481zm1.361-.975c.527-.198 1.122-.3 1.791-.3v-.728c-.743 0-1.426.113-2.047.346l.256.682zm1.791-.3c.815 0 1.473.121 1.987.346l.292-.667c-.633-.277-1.397-.407-2.279-.407v.728zm1.99.347a2.26 2.26 0 0 1 1.147 1.071l.646-.336c-.337-.647-.842-1.119-1.507-1.404l-.286.669zm1.148 1.073c.261.49.406 1.172.406 2.07h.728c0-.966-.154-1.779-.491-2.412l-.643.342zm.406 2.07l-.035.739.726.063.037-.803h-.728zm-.035.738l-.088.832.723.087.091-.853-.726-.066zm-.088.83l-.14.873.715.138.148-.92-.723-.09zm-.142.884c-.188 1.178-.439 2.155-.749 2.935l.676.269c.336-.845.598-1.876.792-3.089l-.719-.115zm-.75 2.938c-.3.772-.656 1.383-1.064 1.845l.547.481c.477-.542.873-1.233 1.195-2.063l-.678-.263zm-1.061 1.842c-.408.453-.866.777-1.372.982l.273.675c.617-.25 1.164-.642 1.64-1.169l-.541-.488zm-1.366.98c-.513.196-1.107.299-1.788.299v.728c.754 0 1.438-.113 2.049-.347l-.261-.68zm-1.752-.91c.466 0 .886-.093 1.241-.3l-.367-.629c-.218.127-.504.201-.874.201v.728zm1.241-.3c.351-.204.632-.506.85-.887l-.632-.361c-.165.288-.361.489-.585.619l.367.629zm.848-.883c.226-.385.41-.867.558-1.437l-.704-.184c-.139.53-.301.944-.482 1.252l.628.368zm.558-1.437l.436-1.959-.715-.138-.425 1.914.704.184zm.438-1.97l.161-.984-.719-.12-.161.988.719.116zm.161-.984l.11-.773-.724-.08-.105.733.719.12zm.107-.753l.076-.608-.726-.052c-.011.153-.033.333-.068.54l.718.12zm.076-.608l.019-.474h-.728l-.017.422.726.052zm.019-.474c0-.643-.118-1.192-.415-1.583l-.58.441c.157.207.267.567.267 1.142h.728zm-.409-1.575c-.31-.43-.818-.599-1.407-.599v.728c.462 0 .695.129.816.297l.591-.425zm-1.407-.599c-.467 0-.886.093-1.242.301l.367.629c.219-.127.504-.201.875-.201v-.728zm-1.242.301c-.351.205-.637.512-.865.901l.628.368c.178-.304.382-.511.604-.641l-.367-.629zm-.87.91c-.21.381-.387.853-.535 1.409l.704.188c.138-.52.296-.932.469-1.245l-.638-.352zm-.535 1.409l-.436 1.962.715.136.425-1.911-.704-.188zm-.436 1.961l-.181.995.718.12.178-.977-.715-.138zm-.181.995l-.125.753.718.12.125-.753-.718-.12zm-.128.773l-.055.588.726.052.053-.559-.724-.08zm-.055.586l-.019.458h.728l.017-.402-.726-.056zm-.019.458c0 .645.118 1.195.411 1.595l.588-.43c-.162-.221-.271-.592-.271-1.166h-.728zm.415 1.601c.321.422.828.592 1.419.592v-.728c-.461 0-.706-.129-.84-.304l-.579.441zm10.151 1.949l-.272-.242-.54.606h.812V45.6zm4.374-4.912l.272.242.17-.191-.122-.225-.32.174zm-2.456-4.518v-.364h-.612l.292.538.32-.174zm2.779 0l.326-.161-.1-.203h-.226v.364zm1.398 2.833l-.326.161.1.203h.226v-.364zm.108 0v.364h.17l.109-.131-.279-.233zm2.366-2.833v-.364h-.17l-.109.131.279.233zm2.833 0l.271.243.543-.607h-.814v.364zm-4.106 4.59l-.271-.243-.171.191.123.225.319-.174zm2.636 4.841v.364h.613l-.293-.538-.32.174zm-2.779 0l-.327.16.1.204h.227V45.6zm-1.506-3.084l.327-.16-.1-.204h-.227v.364zm-.108 0v-.364h-.167l-.109.127.276.237zm-2.653 3.084v.364h.167l.109-.127-.276-.237zm-2.615.242l4.375-4.912-.544-.484-4.374 4.912.543.484zm4.423-5.328l-2.456-4.518-.64.348 2.456 4.518.64-.348zm-2.776-3.98h2.779v-.728h-2.779v.728zm2.452-.203l1.399 2.833.653-.322-1.399-2.833-.653.322zm1.725 3.036h.108v-.728h-.108v.728zm.387-.131l2.367-2.833-.559-.467-2.367 2.833.559.467zm2.087-2.702h2.833v-.728h-2.833v.728zm2.562-.607l-4.106 4.59.543.486 4.105-4.59-.542-.486zm-4.154 5.007l2.635 4.841.64-.348-2.636-4.841-.639.348zm2.955 4.303h-2.779v.728h2.779v-.728zm-2.452.204l-1.506-3.084-.654.319 1.506 3.084.654-.32zm-1.833-3.288h-.108v.728h.108v-.728zm-.384.127l-2.653 3.084.552.475 2.653-3.084-.552-.475zm-2.377 2.957h-2.886v.728h2.886v-.728zm7.804 3.555l-.359-.063-.075.427h.434v-.364zm2.223-12.622v-.364h-.306l-.053.301.359.063zm2.026 0l.364-.005-.005-.359h-.359v.364zm.018 1.273l-.364.005.005.359h.359v-.364zm.125 0v.364h.186l.109-.151-.295-.213zm1.327-1.13l.153.33h0l-.153-.33zm3.37.036l-.175.319.003.002.172-.321zm1.13 1.183l-.326.163.002.003.324-.166zm.358 2.689l.363.033v-.001l-.363-.032zm-.107.825l.358.063.001-.003-.359-.06zm-.932 2.689l-.311-.19-.003.004.314.186zm-1.524 1.578l.18.316.002-.001-.182-.315zm-3.138.358l.094-.352-.008-.002-.086.354zm-.914-.412l-.221.29.007.005.214-.294zm-.61-.699l.317-.179-.104-.185h-.213v.364zm-.125 0v-.364h-.307l-.052.302.359.062zm-.735 4.231v.364h.306l.052-.302-.358-.062zm4.123-5.307l-.185-.313h0l.185.313zm.789-.878l-.324-.167h0l.324.167zm.466-1.452l-.356-.077-.002.01.358.067zm.126-.681l.361.048h0l-.361-.048zm.053-.466l.363.033h0l-.363-.033zm-.161-1.273l.326-.163h0l-.326.163zm-.538-.538l-.175.319.006.003.006.003.163-.326zm-2.151.126l-.192-.309-.005.003.197.306zm-.825.932l.322.17h0l-.322-.17zm-.466 1.47l.359.06h0l-.359-.06zm-.09.556l.36.055h0l-.36-.055zm-.053.394l-.362-.04-.003.02v.02h.365zm.161 1.291l-.339.133.003.009.004.009.332-.151zm.538.61l-.188.312.012.007.176-.319zm-4.106 5.28l2.223-12.622-.717-.126-2.223 12.622.717.126zm1.865-12.321h2.026v-.728h-2.026v.728zm1.662-.359l.018 1.273.728-.01-.018-1.273-.728.01zm.382 1.632h.125v-.728h-.125v.728zm.42-.151c.339-.469.734-.802 1.185-1.012l-.307-.66c-.577.268-1.066.688-1.468 1.247l.59.426zm1.185-1.012a3.46 3.46 0 0 1 1.478-.325v-.728c-.626 0-1.222.131-1.785.392l.307.66zm1.478-.325c.635 0 1.151.122 1.564.349l.351-.638c-.544-.299-1.187-.44-1.915-.44v.728zm1.567.351c.42.225.745.563.976 1.025l.651-.326c-.294-.589-.722-1.041-1.283-1.341l-.344.642zm.978 1.028c.229.448.354 1.032.354 1.77h.728c0-.816-.137-1.522-.434-2.102l-.648.332zm.354 1.77l-.034.721.725.063.037-.785h-.728zm-.034.72l-.104.798.718.12.111-.852-.725-.066zm-.104.795c-.186 1.057-.484 1.907-.884 2.563l.621.379c.461-.755.784-1.698.98-2.816l-.717-.126zm-.887 2.567c-.392.662-.859 1.139-1.393 1.448l.365.63c.661-.383 1.21-.958 1.655-1.707l-.627-.371zm-1.391 1.447a3.47 3.47 0 0 1-1.756.454v.728c.766 0 1.474-.182 2.117-.55l-.361-.632zm-1.756.454a4.3 4.3 0 0 1-1.107-.131l-.188.704c.395.105.827.156 1.295.156v-.728zm-1.115-.133c-.305-.074-.565-.192-.786-.353l-.428.589c.305.222.654.378 1.043.472l.171-.708zm-.78-.348c-.211-.161-.382-.357-.513-.589l-.634.358c.18.318.416.588.706.81l.441-.579zm-.83-.774h-.125v.728h.125v-.728zm-.484.302l-.735 4.231.717.125.735-4.231-.717-.125zm-.376 3.929h-2.492v.728h2.492v-.728zm2.886-4.292c.546 0 1.028-.104 1.423-.338l-.371-.626c-.251.148-.594.236-1.052.236v.728zm1.423-.338c.391-.232.698-.581.927-1.025l-.648-.334c-.177.345-.397.582-.65.732l.371.626zm.927-1.025c.223-.434.388-.954.5-1.552l-.716-.134c-.103.549-.249.998-.432 1.352l.648.334zm.498-1.542l.131-.71-.722-.096c-.022.166-.062.382-.121.652l.712.155zm.131-.71l.055-.481-.725-.066-.052.451.722.096zm.055-.481l.019-.392h-.728l-.016.326.725.066zm.019-.392c0-.406-.065-.772-.217-1.077l-.652.326c.087.173.141.417.141.752h.728zm-.217-1.077c-.155-.309-.391-.546-.701-.701l-.326.651c.169.084.291.206.375.375l.652-.326zm-.688-.694c-.312-.171-.696-.242-1.126-.242v.728c.359 0 .608.06.775.152l.351-.638zm-1.126-.242c-.514 0-.983.123-1.393.378l.384.619c.282-.175.615-.268 1.009-.268v-.728zm-1.398.381c-.395.254-.71.615-.95 1.068l.644.341c.19-.36.425-.62.7-.796l-.394-.612zm-.95 1.068c-.237.449-.403.978-.503 1.581l.718.12c.091-.545.236-.996.429-1.36l-.644-.341zm-.503 1.581l-.09.56.719.111.089-.551-.718-.12zm-.09.56l-.056.41.723.08.052-.379-.719-.111zm-.059.45v.02.021.02.02.02.02.02.02.02.021.02.02.021.02.02h.729v-.02-.02-.02-.02-.02-.02-.02-.02-.02-.021-.02-.02-.02-.021-.02l-.729-.001zm0 .305c0 .415.059.791.187 1.119l.678-.265c-.087-.222-.136-.504-.136-.853h-.729zm.194 1.137c.149.328.378.588.682.771l.375-.624c-.173-.104-.304-.25-.394-.448l-.663.301zm.694.778c.309.17.679.242 1.09.242v-.728c-.33 0-.569-.059-.739-.152l-.351.638z" mask="url(#B)" class="B"/><g filter="url(#F)"><path d="M44.96 174.973h340.23v88.113H44.96z" class="C"/><path stroke-width="2.005" d="M45.962 175.975h338.226v86.108H45.962z" class="D G"/><path d="M99.039 203.693c2.034 0 3.985.808 5.423 2.247a7.67 7.67 0 0 1 0 10.846 7.67 7.67 0 0 1-10.846 0 7.67 7.67 0 0 1 0-10.846c1.438-1.439 3.389-2.247 5.423-2.247zm0 19.174c8.474 0 15.338 3.432 15.338 7.669v3.835H83.7v-3.835c0-4.237 6.864-7.669 15.339-7.669z" class="B"/><path d="M155.669 230.029v-21.595h3.525v18.542h10.767v3.053h-14.292zm16.929-19.423v-3.337h3.273v3.337h-3.273zm0 19.423v-16.558h3.273v16.558h-3.273zm6.273 0v-1.637l8.815-12.214h-8.217v-2.707h12.939v1.605l-8.846 12.246h9.286v2.707h-13.977zm23.516-19.423v-3.337h3.274v3.337h-3.274zm0 19.423v-16.558h3.274v16.558h-3.274zm7.501 0v-16.558h2.708l.283 2.361h.22a5.75 5.75 0 0 1 1.417-1.512c.546-.398 1.144-.703 1.795-.912.671-.21 1.406-.315 2.203-.315 1.049 0 1.973.189 2.77.566.798.357 1.417.945 1.858 1.763.462.819.692 1.921.692 3.306v11.301h-3.274v-10.798c0-.629-.084-1.154-.251-1.574-.147-.419-.368-.755-.662-1.007s-.64-.43-1.038-.535-.84-.158-1.323-.158c-.755 0-1.448.189-2.077.567-.609.357-1.102.861-1.48 1.511s-.567 1.417-.567 2.298v9.696h-3.274zm22.359 0l-6.138-16.558h3.431l2.865 7.901.472 1.48.567 1.826.503 1.7h.158l.44-1.637.567-1.858.504-1.511 2.833-7.901h3.337l-6.17 16.558h-3.369zm11.92-19.423v-3.337h3.274v3.337h-3.274zm0 19.423v-16.558h3.274v16.558h-3.274zm11.625.378c-.945 0-1.69-.178-2.235-.535-.525-.378-.903-.85-1.134-1.417-.209-.587-.314-1.206-.314-1.857v-10.42h-2.078v-2.707h2.141l.598-4.628h2.613v4.628h2.99v2.707h-2.99v10.042c0 .483.105.85.314 1.102s.557.378 1.039.378h1.637v2.203c-.21.084-.472.158-.787.221-.294.084-.598.147-.913.189a4.5 4.5 0 0 1-.881.094zm12.33 0c-1.7 0-3.127-.304-4.281-.913-1.133-.629-1.994-1.584-2.581-2.865s-.882-2.906-.882-4.879c0-1.994.294-3.62.882-4.88.587-1.28 1.458-2.224 2.612-2.833 1.155-.629 2.592-.944 4.313-.944 1.574 0 2.886.304 3.935.913 1.071.587 1.879 1.49 2.424 2.707s.819 2.749.819 4.596v1.259h-11.616c.042 1.176.22 2.162.535 2.96.315.776.787 1.353 1.416 1.731.651.357 1.469.535 2.456.535.608 0 1.154-.073 1.637-.22.483-.168.892-.399 1.228-.693.335-.315.598-.682.787-1.102.188-.44.283-.934.283-1.479h3.211c0 .986-.168 1.857-.504 2.613s-.829 1.395-1.479 1.92c-.63.504-1.385.892-2.267 1.165s-1.857.409-2.928.409zm-4.312-10.231h8.122c0-.819-.095-1.501-.284-2.046-.168-.567-.42-1.029-.755-1.386a2.78 2.78 0 0 0-1.197-.755c-.461-.168-.986-.252-1.574-.252-.881 0-1.637.158-2.266.472-.609.315-1.081.808-1.417 1.48-.336.651-.546 1.479-.629 2.487zm20.579 10.231c-1.343 0-2.508-.304-3.495-.913s-1.752-1.553-2.298-2.833c-.524-1.28-.787-2.938-.787-4.974 0-1.994.273-3.62.819-4.88s1.301-2.193 2.266-2.801 2.078-.913 3.337-.913c.735 0 1.417.084 2.047.252s1.185.43 1.668.787a4.57 4.57 0 0 1 1.259 1.353h.221v-8.216h3.274v22.76h-2.676l-.315-2.266h-.22c-.546.881-1.27 1.542-2.173 1.983-.881.441-1.857.661-2.927.661zm.913-2.833c.965 0 1.742-.21 2.329-.63.609-.441 1.06-1.07 1.354-1.889.294-.839.441-1.857.441-3.053v-.441c0-1.007-.095-1.868-.284-2.581s-.461-1.291-.818-1.732c-.357-.462-.787-.797-1.291-1.007s-1.07-.315-1.7-.315c-.965 0-1.752.199-2.361.598-.609.378-1.06.976-1.354 1.795-.272.818-.409 1.878-.409 3.179v.567c0 1.301.147 2.361.441 3.179.294.798.734 1.385 1.322 1.763.609.378 1.385.567 2.33.567zm19.87 8.185c-.63 0-1.155-.053-1.574-.158l-.787-.157v-2.361h1.574c.461 0 .923-.105 1.385-.315.482-.21.913-.546 1.29-1.007s.693-1.039.945-1.732l-6.454-16.558h3.432l3.211 8.247.472 1.417.535 1.731.472 1.575h.158l.314-1.071.378-1.291.378-1.259.315-1.07 2.676-8.279h3.337l-5.604 15.929c-.315.881-.661 1.71-1.039 2.487s-.818 1.448-1.322 2.014c-.483.588-1.06 1.039-1.731 1.354-.672.336-1.459.504-2.361.504zm21.428-5.352c-1.721 0-3.18-.304-4.376-.913-1.176-.629-2.068-1.584-2.676-2.865-.588-1.28-.882-2.906-.882-4.879 0-1.994.294-3.62.882-4.88.608-1.28 1.5-2.224 2.676-2.833 1.196-.629 2.655-.944 4.376-.944 1.762 0 3.232.315 4.407.944 1.175.609 2.057 1.553 2.644 2.833.609 1.26.913 2.886.913 4.88 0 1.973-.304 3.599-.913 4.879-.587 1.281-1.469 2.236-2.644 2.865-1.175.609-2.645.913-4.407.913zm0-2.707c1.049 0 1.909-.2 2.581-.598.672-.42 1.165-1.05 1.48-1.889.335-.84.503-1.9.503-3.18v-.566c0-1.281-.168-2.34-.503-3.18-.315-.839-.808-1.459-1.48-1.857-.672-.42-1.532-.63-2.581-.63-1.029 0-1.879.21-2.55.63-.672.398-1.176 1.018-1.511 1.857-.315.84-.473 1.899-.473 3.18v.566c0 1.28.158 2.34.473 3.18.335.839.839 1.469 1.511 1.889.671.398 1.521.598 2.55.598zm16.496 2.707c-1.595 0-2.886-.42-3.873-1.259-.986-.861-1.479-2.319-1.479-4.376v-11.301h3.274v10.797c0 .63.073 1.155.22 1.574.168.42.399.756.693 1.008a2.58 2.58 0 0 0 1.039.535c.398.105.839.157 1.322.157.755 0 1.437-.178 2.046-.535.63-.378 1.133-.892 1.511-1.542.378-.672.567-1.438.567-2.298v-9.696h3.274v16.558h-2.676l-.283-2.361h-.221c-.399.609-.871 1.113-1.416 1.511s-1.155.703-1.826.913c-.651.21-1.375.315-2.172.315z" class="B"/></g><path d="M313.168 155.141h86.216v36.631h-86.216z" class="C"/><path stroke-width=".985" d="M313.66 155.633h85.231v35.646H313.66z" class="D H"/><g filter="url(#G)"><mask id="C" maskUnits="userSpaceOnUse" x="319.342" y="169.455" width="10" height="10" fill="#000"><path d="M319.342 169.455h10v10h-10z" class="C"/><path d="M323.488 178.455v-3.156h-2.924v-1.64h2.924v-3.171h1.625v3.171h2.939v1.64h-2.939v3.156h-1.625z"/></mask><path d="M323.488 178.455v-3.156h-2.924v-1.64h2.924v-3.171h1.625v3.171h2.939v1.64h-2.939v3.156h-1.625z" class="B"/><path d="M323.488 178.455h-.469v.469h.469v-.469zm0-3.156h.469v-.469h-.469v.469zm-2.924 0h-.469v.469h.469v-.469zm0-1.64v-.469h-.469v.469h.469zm2.924 0v.469h.469v-.469h-.469zm0-3.171v-.469h-.469v.469h.469zm1.625 0h.469v-.469h-.469v.469zm0 3.171h-.469v.469h.469v-.469zm2.939 0h.469v-.469h-.469v.469zm0 1.64v.469h.469v-.469h-.469zm-2.939 0v-.469h-.469v.469h.469zm0 3.156v.469h.469v-.469h-.469zm-1.156 0v-3.156h-.938v3.156h.938zm-.469-3.625h-2.924v.938h2.924v-.938zm-2.455.469v-1.64h-.938v1.64h.938zm-.469-1.171h2.924v-.938h-2.924v.938zm3.393-.469v-3.171h-.938v3.171h.938zm-.469-2.702h1.625v-.938h-1.625v.938zm1.156-.469v3.171h.938v-3.171h-.938zm.469 3.64h2.939v-.938h-2.939v.938zm2.47-.469v1.64h.938v-1.64h-.938zm.469 1.171h-2.939v.938h2.939v-.938zm-3.408.469v3.156h.938v-3.156h-.938zm.469 2.687h-1.625v.938h1.625v-.938z" mask="url(#C)" class="B"/></g><mask id="D" maskUnits="userSpaceOnUse" x="333.21" y="164.455" width="60" height="22" fill="#000"><path d="M333.21 164.455h60v22h-60z" class="C"/><path d="M333.834 181.455l.461-2.587h3.788l1.663-9.353h-3.834l.346-1.94c.401-.031.847-.107 1.34-.231l1.547-.438 1.617-.601 1.478-.716h1.409l-2.333 13.279h3.534l-.462 2.587h-10.554zm19.3.277c-1.124 0-2.094-.161-2.91-.485-.816-.338-1.448-.816-1.894-1.432-.431-.631-.647-1.378-.647-2.24l.023-.531.07-.554h3.164l-.047.346v.3c0 .432.077.809.231 1.132a1.75 1.75 0 0 0 .739.716c.324.169.709.254 1.155.254.416 0 .816-.077 1.201-.231a2.84 2.84 0 0 0 1.016-.693c.308-.308.555-.685.739-1.131.185-.462.277-.993.277-1.594 0-.693-.184-1.209-.554-1.547-.369-.354-.87-.531-1.501-.531-.416 0-.793.069-1.132.207a4.03 4.03 0 0 0-.877.462 4.97 4.97 0 0 0-.67.601l-2.794-.37 2.17-8.799h9.539l-.509 2.841h-6.836l-.877 3.556c.2-.123.439-.254.716-.392a4.38 4.38 0 0 1 1.016-.37c.4-.107.854-.161 1.363-.161.846 0 1.585.154 2.217.462s1.124.769 1.478 1.385c.369.616.554 1.386.554 2.31 0 1.339-.293 2.494-.878 3.464a5.86 5.86 0 0 1-2.309 2.24c-.97.523-2.048.785-3.233.785zm11.224-.277l5.635-6.328-3.164-5.82h3.58l1.801 3.649h.139l3.048-3.649h3.649l-5.289 5.913 3.395 6.235h-3.579l-1.94-3.972h-.139l-3.418 3.972h-3.718zm13.77 4.111l2.864-16.259h2.61l.023 1.64h.162c.477-.662 1.046-1.147 1.709-1.455a4.92 4.92 0 0 1 2.101-.462c.878 0 1.624.17 2.24.508.632.339 1.117.847 1.455 1.525.339.662.508 1.493.508 2.494l-.046.97-.138 1.062c-.247 1.401-.647 2.556-1.201 3.464-.539.909-1.194 1.586-1.963 2.033-.755.431-1.586.646-2.495.646-.569 0-1.085-.061-1.547-.185-.446-.107-.839-.284-1.178-.531-.323-.246-.585-.546-.785-.9h-.162l-.946 5.45h-3.211zm6.929-6.467c.646 0 1.178-.123 1.593-.369s.755-.624 1.016-1.132.462-1.131.601-1.87l.162-.878.069-.6.023-.462c0-.478-.077-.87-.231-1.178a1.51 1.51 0 0 0-.693-.693c-.308-.169-.716-.254-1.224-.254-.585 0-1.101.139-1.547.416-.431.277-.785.677-1.063 1.201s-.477 1.154-.6 1.893l-.115.716-.07.508v.393c0 .493.07.916.208 1.27.154.339.385.601.693.785.308.17.7.254 1.178.254z"/></mask><path d="M333.834 181.455l.461-2.587h3.788l1.663-9.353h-3.834l.346-1.94c.401-.031.847-.107 1.34-.231l1.547-.438 1.617-.601 1.478-.716h1.409l-2.333 13.279h3.534l-.462 2.587h-10.554zm19.3.277c-1.124 0-2.094-.161-2.91-.485-.816-.338-1.448-.816-1.894-1.432-.431-.631-.647-1.378-.647-2.24l.023-.531.07-.554h3.164l-.047.346v.3c0 .432.077.809.231 1.132a1.75 1.75 0 0 0 .739.716c.324.169.709.254 1.155.254.416 0 .816-.077 1.201-.231a2.84 2.84 0 0 0 1.016-.693c.308-.308.555-.685.739-1.131.185-.462.277-.993.277-1.594 0-.693-.184-1.209-.554-1.547-.369-.354-.87-.531-1.501-.531-.416 0-.793.069-1.132.207a4.03 4.03 0 0 0-.877.462 4.97 4.97 0 0 0-.67.601l-2.794-.37 2.17-8.799h9.539l-.509 2.841h-6.836l-.877 3.556c.2-.123.439-.254.716-.392a4.38 4.38 0 0 1 1.016-.37c.4-.107.854-.161 1.363-.161.846 0 1.585.154 2.217.462s1.124.769 1.478 1.385c.369.616.554 1.386.554 2.31 0 1.339-.293 2.494-.878 3.464a5.86 5.86 0 0 1-2.309 2.24c-.97.523-2.048.785-3.233.785zm11.224-.277l5.635-6.328-3.164-5.82h3.58l1.801 3.649h.139l3.048-3.649h3.649l-5.289 5.913 3.395 6.235h-3.579l-1.94-3.972h-.139l-3.418 3.972h-3.718zm13.77 4.111l2.864-16.259h2.61l.023 1.64h.162c.477-.662 1.046-1.147 1.709-1.455a4.92 4.92 0 0 1 2.101-.462c.878 0 1.624.17 2.24.508.632.339 1.117.847 1.455 1.525.339.662.508 1.493.508 2.494l-.046.97-.138 1.062c-.247 1.401-.647 2.556-1.201 3.464-.539.909-1.194 1.586-1.963 2.033-.755.431-1.586.646-2.495.646-.569 0-1.085-.061-1.547-.185-.446-.107-.839-.284-1.178-.531-.323-.246-.585-.546-.785-.9h-.162l-.946 5.45h-3.211zm6.929-6.467c.646 0 1.178-.123 1.593-.369s.755-.624 1.016-1.132.462-1.131.601-1.87l.162-.878.069-.6.023-.462c0-.478-.077-.87-.231-1.178a1.51 1.51 0 0 0-.693-.693c-.308-.169-.716-.254-1.224-.254-.585 0-1.101.139-1.547.416-.431.277-.785.677-1.063 1.201s-.477 1.154-.6 1.893l-.115.716-.07.508v.393c0 .493.07.916.208 1.27.154.339.385.601.693.785.308.17.7.254 1.178.254z" class="B"/><path d="M333.834 181.455l-.462-.082-.099.551h.561v-.469zm.461-2.587v-.468h-.392l-.069.386.461.082zm3.788 0v.469h.393l.069-.386-.462-.083zm1.663-9.353l.461.082.098-.551h-.559v.469zm-3.834 0l-.462-.082-.098.551h.56v-.469zm.346-1.94l-.036-.467-.361.028-.064.357.461.082zm1.34-.231l.114.455h0l-.114-.455zm1.547-.438l.141.447.008-.003-.149-.444zm1.617-.601l.178.434.011-.005-.189-.429zm1.478-.716v-.469h-.117l-.104.055.221.414zm1.409 0l.462.081.096-.55h-.558v.469zm-2.333 13.279l-.462-.081-.096.55h.558v-.469zm3.534 0l.461.083.099-.551h-.56v.468zm-.462 2.587v.469h.392l.069-.386-.461-.083zm-10.093.083l.462-2.587-.923-.165-.462 2.587.923.165zm0-2.201h3.788v-.937h-3.788v.937zm4.25-.386l1.662-9.354-.923-.164-1.663 9.353.924.165zm1.201-9.905h-3.834v.938h3.834v-.938zm-3.372.552l.346-1.94-.923-.165-.347 1.94.924.165zm-.08-1.555c.433-.033.906-.116 1.418-.244l-.228-.91a7.69 7.69 0 0 1-1.262.219l.072.935zm1.418-.244l1.574-.446-.281-.895-1.521.431.228.91zm1.582-.449l1.646-.611-.357-.868-1.586.59.297.889zm1.657-.616l1.51-.731-.442-.828-1.446.701.378.858zm1.289-.676h1.409v-.938h-1.409v.938zm.947-.55l-2.333 13.279.924.163 2.333-13.28-.924-.162zm-1.871 13.829h3.534v-.937h-3.534v.937zm3.072-.551l-.462 2.587.923.165.462-2.587-.923-.165zm0 2.2h-10.554v.938h10.554v-.938zm5.836.261l-.18.433.007.003.173-.436zm-1.894-1.432l-.387.265.007.011.38-.276zm-.624-2.771l.468.039h0l-.468-.039zm.07-.554v-.469h-.398l-.065.392.463.077zm3.164 0l.465.058.066-.527h-.531v.469zm-.047.346l-.464-.066-.004.033v.033h.468zm.231 1.432l-.423.202.006.012.007.012.41-.226zm.739.716l.218-.415h0l-.218.415zm2.356.023l-.174-.435h0l.174.435zm1.016-.693l-.331-.331-.009.008.34.323zm.739-1.131l.434.179.002-.005-.436-.174zm-.277-3.141l-.324.338.007.007.317-.345zm-2.633-.324l.167.439.011-.005-.178-.434zm-.877.462l-.271-.383-.011.008.282.375zm-.67.601l-.061.465.24.031.165-.177-.344-.319zm-2.794-.37l-.456-.112-.125.509.519.068.062-.465zm2.17-8.799v-.469h-.367l-.088.357.455.112zm9.539 0l.461.083.099-.552h-.56v.469zm-.509 2.841v.469h.393l.069-.387-.462-.082zm-6.836 0v-.469h-.367l-.088.357.455.112zm-.877 3.556l-.455-.112-.275 1.112.976-.6-.246-.4zm.716-.392l.21.419.008-.004-.218-.415zm1.016-.37l.109.457.013-.004-.122-.453zm5.058 1.686l-.407.234.005.007.402-.241zm-.324 5.774l-.401-.242-.003.004.404.238zm-2.309 2.24l-.223-.413h0l.223.413zm-3.233.316c-1.081 0-1.99-.155-2.738-.452l-.345.872c.884.35 1.915.518 3.083.518v-.938zm-2.73-.449c-.75-.311-1.306-.739-1.694-1.274l-.76.551c.505.696 1.211 1.223 2.094 1.589l.36-.866zm-1.687-1.263c-.371-.544-.565-1.195-.565-1.976h-.938c0 .944.238 1.786.729 2.505l.774-.529zm-.565-1.976l.022-.492-.935-.078-.025.57h.938zm.022-.492l.064-.516-.925-.154-.074.592.935.078zm-.398-.124h3.164v-.938h-3.164v.938zm2.698-.527l-.045.338.929.133.047-.355-.931-.116zm-.049.404v.021.02.021.02.021.02.02.021.02.021.02.021.02.02l.937.014v-.021-.02-.02-.021-.02-.021-.02-.021-.02-.02-.021-.02-.021-.02l-.937-.014zm0 .3c0 .487.087.936.276 1.334l.847-.404c-.119-.248-.186-.554-.186-.93h-.937zm.289 1.358c.215.392.53.695.932.905l.435-.83c-.245-.129-.422-.303-.546-.527l-.821.452zm.932.905c.404.212.867.308 1.372.308v-.938c-.387 0-.694-.073-.937-.2l-.435.83zm1.372.308c.475 0 .935-.088 1.375-.265l-.348-.87a2.75 2.75 0 0 1-1.027.197v.938zm1.375-.265c.449-.179.844-.449 1.182-.805l-.68-.646c-.247.26-.529.452-.85.581l.348.87zm1.174-.796a3.91 3.91 0 0 0 .841-1.284l-.867-.359c-.164.396-.378.72-.637.98l.663.663zm.843-1.289c.211-.528.31-1.12.31-1.768h-.938c0 .553-.085 1.023-.243 1.419l.871.349zm.31-1.768c0-.772-.207-1.436-.706-1.893l-.634.691c.24.22.402.589.402 1.202h.938zm-.698-1.886c-.477-.456-1.104-.661-1.826-.661v.938c.54 0 .914.148 1.177.4l.649-.677zm-1.826-.661a3.44 3.44 0 0 0-1.309.242l.355.868c.275-.112.591-.172.954-.172v-.938zm-1.299.238c-.357.136-.684.308-.981.517l.541.766c.227-.16.485-.296.774-.406l-.334-.877zm-.992.525c-.267.201-.512.42-.732.657l.688.638c.18-.194.382-.376.607-.545l-.563-.75zm-.326.511l-2.795-.37-.123.93 2.795.37.123-.93zm-2.401.208l2.171-8.799-.911-.225-2.171 8.799.911.225zm1.715-8.443h9.539v-.938h-9.539v.938zm9.077-.551l-.508 2.84.923.165.508-2.84-.923-.165zm-.047 2.454h-6.836v.938h6.836v-.938zm-7.291.357l-.877 3.556.91.225.878-3.557-.911-.224zm-.176 4.068c.185-.114.411-.238.68-.373l-.42-.839-.752.413.492.799zm.688-.377c.252-.133.553-.244.907-.329l-.218-.912c-.416.1-.793.236-1.126.411l.437.83zm.92-.332a4.79 4.79 0 0 1 1.241-.145v-.938c-.541 0-1.037.057-1.485.177l.244.906zm1.241-.145c.79 0 1.456.143 2.011.414l.411-.843c-.707-.345-1.519-.509-2.422-.509v.938zm2.011.414c.546.266.969.662 1.277 1.198l.813-.468c-.4-.696-.962-1.223-1.679-1.573l-.411.843zm1.282 1.205c.314.525.487 1.206.487 2.069h.938c0-.985-.197-1.844-.621-2.551l-.804.482zm.487 2.069c0 1.269-.277 2.337-.81 3.222l.803.484c.637-1.055.945-2.297.945-3.706h-.938zm-.813 3.226a5.4 5.4 0 0 1-2.128 2.065l.446.826c1.047-.565 1.879-1.373 2.491-2.416l-.809-.475zm-2.128 2.065c-.896.484-1.897.729-3.01.729v.938c1.257 0 2.412-.278 3.456-.841l-.446-.826zm8.214.921l-.35-.312-.696.781h1.046v-.469zm5.635-6.328l.35.312.219-.246-.157-.29-.412.224zm-3.164-5.82v-.469h-.789l.377.693.412-.224zm3.58 0l.42-.207-.129-.262h-.291v.469zm1.801 3.649l-.42.208.129.261h.291v-.469zm.139 0v.469h.219l.141-.168-.36-.301zm3.048-3.649v-.469h-.219l-.141.169.36.3zm3.649 0l.35.313.699-.782h-1.049v.469zm-5.289 5.913l-.349-.313-.221.246.159.291.411-.224zm3.395 6.235v.469h.79l-.378-.693-.412.224zm-3.579 0l-.422.206.129.263h.293v-.469zm-1.94-3.972l.421-.206-.128-.263h-.293v.469zm-.139 0v-.469h-.215l-.14.163.355.306zm-3.418 3.972v.469h.215l.141-.163-.356-.306zm-3.368.312l5.635-6.328-.7-.624-5.635 6.328.7.624zm5.697-6.864l-3.164-5.82-.824.448 3.164 5.82.824-.448zm-3.576-5.127h3.58v-.938h-3.58v.938zm3.159-.261l1.802 3.649.841-.415-1.802-3.649-.841.415zm2.222 3.91h.139v-.938h-.139v.938zm.499-.168l3.048-3.649-.72-.601-3.048 3.649.72.601zm2.688-3.481h3.649v-.938h-3.649v.938zm3.299-.781l-5.288 5.912.699.625 5.289-5.912-.7-.625zm-5.35 6.449l3.394 6.235.824-.448-3.395-6.236-.823.449zm3.806 5.542h-3.579v.938h3.579v-.938zm-3.158.263l-1.94-3.972-.843.412 1.94 3.972.843-.412zm-2.361-4.235h-.139v.938h.139v-.938zm-.494.163l-3.418 3.972.711.612 3.418-3.972-.711-.612zm-3.063 3.809h-3.718v.938h3.718v-.938zm10.052 4.58l-.461-.081-.097.55h.558v-.469zm2.864-16.259v-.469h-.393l-.069.388.462.081zm2.61 0l.469-.006-.007-.463h-.462v.469zm.023 1.64l-.469.007.006.462h.463v-.469zm.162 0v.469h.24l.14-.195-.38-.274zm1.709-1.455l.197.425h0l-.197-.425zm4.341.046l-.226.411.005.003.221-.414zm1.455 1.525l-.419.209.002.004.417-.213zm.462 3.464l.467.042v-.002l-.467-.04zm-.138 1.062l.461.081.001-.004-.462-.077zm-1.201 3.464l-.401-.244-.003.005.404.239zm-1.963 2.033l.232.407.003-.002-.235-.405zm-4.042.461l.121-.453-.011-.002-.11.455zm-1.178-.531l-.284.373.008.007.276-.38zm-.785-.9l.408-.231-.134-.238h-.274v.469zm-.162 0v-.469h-.394l-.068.388.462.081zm-.946 5.45v.469h.394l.068-.389-.462-.08zm5.311-6.836l-.239-.404h0l.239.404zm1.016-1.132l-.416-.214h0l.416.214zm.601-1.87l-.459-.1-.002.013.461.087zm.162-.878l.464.062h0l-.464-.062zm.069-.6l.467.042h0l-.467-.042zm-.208-1.64l.419-.21h0l-.419.21zm-.693-.693l-.226.411.008.004.008.005.21-.42zm-2.771.162l-.248-.399-.006.004.254.395zm-1.063 1.201l.415.219-.415-.219zm-.6 1.893l.463.077h0l-.463-.077zm-.115.716l.463.072h0l-.463-.072zm-.07.508l-.466-.051-.003.025v.026h.469zm.208 1.663l-.437.171.005.012.005.011.427-.194zm.693.785l-.241.403.007.004.008.004.226-.411zm-5.289 6.802l2.864-16.258-.924-.163-2.863 16.259.923.162zm2.402-15.871h2.61v-.938h-2.61v.938zm2.141-.462l.023 1.64.938-.014-.023-1.639-.938.013zm.492 2.102h.162v-.938h-.162v.938zm.542-.195c.436-.604.945-1.033 1.526-1.304l-.395-.85c-.743.346-1.373.886-1.892 1.606l.761.548zm1.526-1.304a4.47 4.47 0 0 1 1.904-.418v-.938c-.806 0-1.574.169-2.299.506l.395.85zm1.904-.418c.818 0 1.483.158 2.014.45l.452-.822c-.7-.385-1.529-.566-2.466-.566v.938zm2.019.453c.54.29.959.724 1.257 1.32l.839-.419c-.38-.759-.931-1.341-1.653-1.728l-.443.827zm1.259 1.324c.295.577.456 1.33.456 2.281h.938c0-1.051-.177-1.961-.559-2.708l-.835.427zm.456 2.281l-.044.929.934.081.048-1.01h-.938zm-.044.927l-.134 1.028.925.154.143-1.097-.934-.085zm-.133 1.024c-.24 1.362-.624 2.456-1.14 3.301l.801.489c.593-.973 1.009-2.187 1.262-3.628l-.923-.162zm-1.143 3.306c-.505.852-1.106 1.467-1.795 1.866l.471.811c.851-.493 1.559-1.234 2.131-2.198l-.807-.479zm-1.792 1.864c-.68.389-1.431.585-2.262.585v.938c.987 0 1.899-.235 2.727-.708l-.465-.815zm-2.262.585c-.536 0-1.01-.058-1.426-.169l-.242.907c.508.135 1.065.2 1.668.2v-.938zm-1.437-.171c-.392-.095-.728-.248-1.012-.455l-.552.759c.393.285.844.487 1.344.607l.22-.911zm-1.004-.449a2.48 2.48 0 0 1-.661-.758l-.816.461c.231.41.535.758.909 1.043l.568-.746zm-1.069-.996h-.162v.938h.162v-.938zm-.624.388l-.947 5.451.925.16.946-5.45-.924-.161zm-.484 5.062h-3.211v.938h3.211v-.938zm3.718-5.529c.703 0 1.324-.133 1.832-.435l-.478-.807c-.323.192-.764.304-1.354.304v.938zm1.832-.435c.505-.299.9-.748 1.194-1.32l-.833-.429c-.229.444-.512.749-.839.942l.478.807zm1.194-1.32c.288-.559.5-1.228.645-1.999l-.922-.173c-.133.708-.321 1.285-.556 1.743l.833.429zm.642-1.986l.168-.915-.929-.124-.155.84.916.199zm.168-.915l.072-.62-.934-.085-.067.581.929.124zm.072-.62l.025-.504h-.938c0 .121-.007.261-.021.419l.934.085zm.025-.504c0-.524-.084-.995-.281-1.388l-.839.42c.112.222.182.537.182.968h.938zm-.281-1.388a1.97 1.97 0 0 0-.902-.902l-.42.839a1.03 1.03 0 0 1 .483.483l.839-.42zm-.886-.894c-.401-.221-.896-.312-1.45-.312v.938c.462 0 .783.078.998.196l.452-.822zm-1.45-.312c-.662 0-1.266.158-1.795.486l.495.797c.364-.226.792-.345 1.3-.345v-.938zm-1.801.49c-.509.327-.914.793-1.223 1.376l.829.439c.245-.463.548-.799.901-1.026l-.507-.789zm-1.223 1.376c-.306.578-.519 1.26-.649 2.036l.926.154c.117-.701.304-1.282.552-1.751l-.829-.439zm-.649 2.036l-.116.722.927.143.115-.711-.926-.154zm-.116.722l-.072.528.932.103.067-.488-.927-.143zm-.075.579v.02.02.021.02.021.02.021.02.02.021.02.021.02.021.02.02.021.02.021l.938.005v-.021-.02-.021-.02-.02-.021-.02-.021-.02-.021-.02-.02-.021-.02-.021-.02-.021-.02-.02l-.938-.005zm0 .393c0 .535.075 1.019.24 1.441l.874-.342c-.112-.286-.176-.648-.176-1.099h-.938zm.25 1.464c.192.422.486.758.879.994l.482-.805a1.25 1.25 0 0 1-.507-.577l-.854.388zm.894 1.002c.397.219.874.312 1.404.312v-.938c-.426 0-.734-.075-.952-.196l-.452.822z" mask="url(#D)" class="B"/><defs><filter id="E" x="45.963" y="27.233" width="235.754" height="89.888" filterUnits="userSpaceOnUse" class="E"><feFlood result="A" class="F"/><feColorMatrix in="SourceAlpha" values="0 0 0 0 0 0 0 0 0 0 0 0 0 0 0 0 0 0 127 0" result="B"/><feOffset/><feGaussianBlur stdDeviation="9.171"/><feComposite in2="B" operator="out"/><feColorMatrix values="0 0 0 0 0 0 0 0 0 0 0 0 0 0 0 0 0 0 0.06 0"/><feBlend in2="A"/><feBlend in="SourceGraphic"/></filter><filter id="F" x="25.436" y="155.681" width="379.277" height="126.696" filterUnits="userSpaceOnUse" class="E"><feFlood result="A" class="F"/><feColorMatrix in="SourceAlpha" values="0 0 0 0 0 0 0 0 0 0 0 0 0 0 0 0 0 0 127 0" result="B"/><feOffset/><feGaussianBlur stdDeviation="9.646"/><feComposite in2="B" operator="out"/><feColorMatrix values="0 0 0 0 0 0 0 0 0 0 0 0 0 0 0 0 0 0 0.06 0"/><feBlend in2="A"/><feBlend in="SourceGraphic"/></filter><filter id="G" x="319.113" y="170.299" width="10.39" height="10.869" filterUnits="userSpaceOnUse" class="E"><feFlood result="A" class="F"/><feColorMatrix in="SourceAlpha" values="0 0 0 0 0 0 0 0 0 0 0 0 0 0 0 0 0 0 127 0" result="B"/><feOffset dy="1.26196"/><feGaussianBlur stdDeviation=".726"/><feComposite in2="B" operator="out"/><feColorMatrix values="0 0 0 0 0 0 0 0 0 0 0 0 0 0 0 0 0 0 0.25 0"/><feBlend in2="A"/><feBlend in="SourceGraphic"/></filter><linearGradient id="H" x1="1184540000" y1="4932300000" x2="1184540000" y2="4932300000" gradientUnits="userSpaceOnUse"><stop stop-color="#ddd"/><stop offset=".205" stop-color="#f0f0f0"/></linearGradient><clipPath id="I"><path transform="translate(83.066 58.283)" d="M0 0h27.787v27.787H0z" class="C"/></clipPath></defs></svg>