<svg width="440" height="312" viewBox="0 0 440 312" fill="none" xmlns="http://www.w3.org/2000/svg">
<rect width="440" height="310.756" transform="translate(0 0.755859)" fill="white"/>
<g filter="url(#filter0_d_10357_50984)">
<rect width="149.864" height="57.2572" transform="translate(74.2192 127.08)" fill="#454545"/>
<path d="M86.7767 163.709V146.297H93.8836C95.6941 146.297 97.234 146.61 98.5031 147.236C99.7721 147.862 100.745 148.818 101.422 150.104C102.116 151.373 102.463 153.006 102.463 155.003C102.463 156.983 102.116 158.616 101.422 159.902C100.745 161.188 99.7721 162.144 98.5031 162.77C97.234 163.396 95.6941 163.709 93.8836 163.709H86.7767ZM90.5586 160.587H93.8582C94.6196 160.587 95.2965 160.477 95.8887 160.257C96.481 160.037 96.9717 159.716 97.3609 159.293C97.7501 158.853 98.0462 158.311 98.2492 157.668C98.4523 157.008 98.5538 156.247 98.5538 155.384V154.622C98.5538 153.759 98.4523 153.006 98.2492 152.363C98.0462 151.703 97.7501 151.162 97.3609 150.739C96.9717 150.299 96.481 149.969 95.8887 149.749C95.2965 149.512 94.6196 149.394 93.8582 149.394H90.5586V160.587ZM105.236 148.404V145.358H108.764V148.404H105.236ZM105.236 163.709V150.358H108.764V163.709H105.236ZM112.612 163.709V153.074H110.708V150.358H112.612V148.886C112.612 148.158 112.73 147.515 112.967 146.957C113.221 146.382 113.619 145.933 114.16 145.612C114.702 145.29 115.421 145.13 116.318 145.13C116.571 145.13 116.834 145.146 117.104 145.18C117.392 145.214 117.663 145.265 117.917 145.333C118.187 145.383 118.416 145.443 118.602 145.51V147.845H117.333C116.927 147.845 116.622 147.947 116.419 148.15C116.233 148.353 116.14 148.649 116.14 149.038V150.358H120.252V148.886C120.252 148.158 120.37 147.515 120.607 146.957C120.861 146.382 121.258 145.933 121.8 145.612C122.341 145.29 123.069 145.13 123.983 145.13C124.22 145.13 124.474 145.146 124.744 145.18C125.032 145.214 125.303 145.265 125.556 145.333C125.81 145.383 126.03 145.443 126.216 145.51V147.845H124.973C124.55 147.845 124.237 147.947 124.034 148.15C123.847 148.353 123.754 148.649 123.754 149.038V150.358H126.216V153.074H123.754V163.709H120.252V153.074H116.14V163.709H112.612ZM127.866 148.404V145.358H131.394V148.404H127.866ZM127.866 163.709V150.358H131.394V163.709H127.866ZM140.496 164.014C139.075 164.014 137.882 163.768 136.917 163.277C135.953 162.77 135.217 162 134.709 160.968C134.218 159.919 133.973 158.607 133.973 157.034C133.973 155.426 134.218 154.115 134.709 153.099C135.217 152.067 135.953 151.297 136.917 150.79C137.899 150.282 139.092 150.028 140.496 150.028C141.41 150.028 142.231 150.138 142.958 150.358C143.703 150.578 144.346 150.917 144.887 151.373C145.429 151.83 145.835 152.397 146.106 153.074C146.393 153.734 146.537 154.521 146.537 155.435H143.009C143.009 154.825 142.916 154.326 142.73 153.937C142.544 153.548 142.256 153.252 141.867 153.049C141.495 152.846 141.021 152.744 140.445 152.744C139.769 152.744 139.219 152.896 138.796 153.201C138.373 153.506 138.06 153.954 137.857 154.546C137.653 155.138 137.552 155.874 137.552 156.754V157.338C137.552 158.201 137.653 158.929 137.857 159.521C138.076 160.113 138.406 160.562 138.846 160.866C139.286 161.154 139.862 161.298 140.572 161.298C141.148 161.298 141.621 161.196 141.994 160.993C142.383 160.79 142.679 160.485 142.882 160.079C143.085 159.673 143.187 159.183 143.187 158.607H146.537C146.537 159.47 146.393 160.24 146.106 160.917C145.835 161.594 145.429 162.161 144.887 162.618C144.363 163.074 143.728 163.421 142.984 163.658C142.239 163.895 141.41 164.014 140.496 164.014ZM153.498 164.014C152.144 164.014 151.07 163.641 150.274 162.897C149.479 162.152 149.081 160.951 149.081 159.293V150.358H152.609V158.709C152.609 159.149 152.66 159.521 152.762 159.826C152.863 160.113 153.007 160.35 153.193 160.536C153.396 160.722 153.642 160.858 153.929 160.942C154.217 161.027 154.539 161.069 154.894 161.069C155.418 161.069 155.892 160.942 156.315 160.689C156.738 160.435 157.068 160.088 157.305 159.648C157.542 159.191 157.66 158.683 157.66 158.125V150.358H161.189V163.709H158.295L158.041 161.881H157.864C157.542 162.305 157.161 162.677 156.721 162.998C156.298 163.32 155.816 163.565 155.275 163.734C154.733 163.92 154.141 164.014 153.498 164.014ZM164.427 163.709V145.358H167.955V163.709H164.427ZM175.179 164.014C174.333 164.014 173.647 163.861 173.123 163.557C172.598 163.252 172.217 162.846 171.981 162.338C171.744 161.814 171.625 161.238 171.625 160.612V153.074H169.975V150.358H171.752L172.412 146.551H175.153V150.358H177.59V153.074H175.153V160.029C175.153 160.435 175.246 160.748 175.432 160.968C175.619 161.171 175.923 161.272 176.346 161.272H177.59V163.607C177.387 163.675 177.15 163.734 176.879 163.785C176.608 163.853 176.321 163.904 176.016 163.937C175.712 163.988 175.432 164.014 175.179 164.014ZM181.798 168.481C181.172 168.481 180.648 168.43 180.224 168.328C179.818 168.244 179.556 168.185 179.438 168.151V165.765H180.986C181.409 165.765 181.79 165.663 182.128 165.46C182.467 165.274 182.763 165.02 183.016 164.699C183.27 164.394 183.456 164.064 183.575 163.709L178.346 150.358H182.077L184.362 156.526C184.463 156.814 184.573 157.177 184.692 157.617C184.827 158.04 184.962 158.489 185.098 158.963C185.233 159.419 185.343 159.826 185.428 160.181H185.555C185.622 159.944 185.698 159.665 185.783 159.343C185.868 159.022 185.952 158.692 186.037 158.353C186.138 158.015 186.232 157.694 186.316 157.389C186.418 157.067 186.502 156.788 186.57 156.551L188.474 150.358H192.027L187.484 163.074C187.23 163.819 186.934 164.513 186.595 165.156C186.274 165.816 185.893 166.391 185.453 166.882C185.013 167.389 184.489 167.779 183.879 168.049C183.287 168.337 182.593 168.481 181.798 168.481ZM199.341 163.709V160.765L208.859 157.11L199.341 153.455V150.485L211.651 155.511V158.709L199.341 163.709Z" fill="white"/>
</g>
<rect width="132.257" height="171.772" transform="translate(232.586 69.8223)" fill="white"/>
<rect x="233.436" y="70.6726" width="130.557" height="55.5567" stroke="#DDDDDD" stroke-opacity="0.4" stroke-width="1.70058"/>
<path d="M245.143 106.451V89.0393H255.093C256.007 89.0393 256.827 89.2169 257.555 89.5723C258.3 89.9276 258.883 90.4268 259.306 91.0698C259.729 91.7128 259.941 92.4658 259.941 93.3288C259.941 94.0226 259.814 94.6402 259.56 95.1817C259.306 95.7231 258.96 96.1715 258.52 96.5269C258.097 96.8822 257.614 97.1445 257.073 97.3137V97.4153C257.716 97.5506 258.283 97.8044 258.773 98.1767C259.281 98.549 259.679 99.0312 259.966 99.6235C260.271 100.199 260.423 100.884 260.423 101.679C260.423 102.729 260.178 103.608 259.687 104.319C259.213 105.03 258.579 105.563 257.784 105.918C256.988 106.273 256.1 106.451 255.118 106.451H245.143ZM248.925 103.355H254.382C255.008 103.355 255.516 103.177 255.905 102.822C256.311 102.466 256.514 101.916 256.514 101.172C256.514 100.732 256.43 100.351 256.261 100.03C256.091 99.7081 255.838 99.4627 255.499 99.2935C255.161 99.1074 254.729 99.0143 254.205 99.0143H248.925V103.355ZM248.925 96.07H253.951C254.408 96.07 254.788 95.9854 255.093 95.8162C255.415 95.6301 255.651 95.3932 255.804 95.1055C255.973 94.8009 256.058 94.454 256.058 94.0649C256.058 93.4049 255.871 92.9058 255.499 92.5673C255.144 92.2289 254.67 92.0597 254.078 92.0597H248.925V96.07ZM269.223 106.756C267.75 106.756 266.515 106.51 265.517 106.02C264.518 105.512 263.765 104.742 263.258 103.71C262.75 102.678 262.496 101.366 262.496 99.7758C262.496 98.1682 262.75 96.8569 263.258 95.8416C263.765 94.8094 264.51 94.0479 265.491 93.5572C266.49 93.0496 267.708 92.7958 269.146 92.7958C270.5 92.7958 271.642 93.0411 272.573 93.5318C273.504 94.0056 274.206 94.7502 274.68 95.7654C275.153 96.7638 275.39 98.0583 275.39 99.6489V100.563H266.075C266.109 101.341 266.228 102.001 266.431 102.542C266.651 103.084 266.98 103.49 267.42 103.761C267.877 104.015 268.478 104.141 269.223 104.141C269.629 104.141 269.992 104.091 270.314 103.989C270.652 103.888 270.94 103.735 271.177 103.532C271.414 103.329 271.6 103.075 271.735 102.771C271.871 102.466 271.938 102.119 271.938 101.73H275.39C275.39 102.576 275.238 103.312 274.933 103.938C274.629 104.564 274.206 105.089 273.664 105.512C273.123 105.918 272.471 106.231 271.71 106.451C270.965 106.654 270.136 106.756 269.223 106.756ZM266.126 98.329H271.761C271.761 97.8214 271.693 97.3814 271.558 97.0091C271.439 96.6369 271.27 96.3323 271.05 96.0954C270.83 95.8585 270.559 95.6893 270.238 95.5878C269.933 95.4693 269.586 95.4101 269.197 95.4101C268.554 95.4101 268.013 95.5201 267.573 95.7401C267.15 95.9431 266.82 96.2646 266.583 96.7046C266.363 97.1276 266.211 97.6691 266.126 98.329ZM280.162 111.223C279.569 111.223 279.011 111.096 278.487 110.842C277.962 110.605 277.539 110.25 277.217 109.776C276.896 109.302 276.735 108.736 276.735 108.076C276.735 107.331 276.947 106.739 277.37 106.299C277.81 105.842 278.3 105.504 278.842 105.284C278.453 105.064 278.131 104.776 277.877 104.421C277.64 104.065 277.522 103.651 277.522 103.177C277.522 102.517 277.759 101.984 278.233 101.578C278.723 101.155 279.282 100.884 279.908 100.766C279.282 100.376 278.791 99.8857 278.436 99.2935C278.097 98.6843 277.928 98.0075 277.928 97.263C277.928 96.2985 278.165 95.4862 278.639 94.8263C279.13 94.1664 279.823 93.6672 280.72 93.3288C281.634 92.9734 282.708 92.7958 283.944 92.7958C284.434 92.7958 284.891 92.8212 285.314 92.8719C285.754 92.9227 286.152 93.0073 286.507 93.1257C287.133 92.7535 287.556 92.3474 287.776 91.9074C288.013 91.4505 288.14 91.0867 288.157 90.816H291.431C291.431 91.4421 291.313 91.9836 291.076 92.4404C290.856 92.8973 290.534 93.278 290.111 93.5826C289.688 93.8703 289.181 94.0818 288.588 94.2172C289.028 94.5894 289.367 95.0378 289.604 95.5624C289.841 96.0869 289.959 96.6538 289.959 97.263C289.959 98.2106 289.731 99.0228 289.274 99.6996C288.817 100.36 288.165 100.867 287.319 101.223C286.49 101.578 285.492 101.756 284.324 101.756H282.294C281.888 101.756 281.583 101.832 281.38 101.984C281.177 102.119 281.075 102.322 281.075 102.593C281.075 102.813 281.16 103.008 281.329 103.177C281.515 103.329 281.812 103.405 282.218 103.405H287.776C288.893 103.405 289.781 103.752 290.441 104.446C291.118 105.123 291.457 105.994 291.457 107.06C291.457 107.873 291.245 108.592 290.822 109.218C290.399 109.844 289.815 110.335 289.071 110.69C288.326 111.045 287.472 111.223 286.507 111.223H280.162ZM281.634 108.862H286.329C286.634 108.862 286.905 108.803 287.142 108.685C287.379 108.583 287.565 108.431 287.7 108.228C287.835 108.042 287.903 107.822 287.903 107.568C287.903 107.128 287.768 106.798 287.497 106.578C287.226 106.358 286.888 106.248 286.482 106.248H281.634C281.228 106.248 280.889 106.367 280.619 106.603C280.365 106.84 280.238 107.153 280.238 107.543C280.238 107.932 280.365 108.245 280.619 108.482C280.889 108.736 281.228 108.862 281.634 108.862ZM283.944 99.4712C284.773 99.4712 285.399 99.285 285.822 98.9128C286.262 98.5236 286.482 97.9737 286.482 97.263C286.482 96.5523 286.262 96.0108 285.822 95.6385C285.399 95.2493 284.773 95.0547 283.944 95.0547C283.131 95.0547 282.505 95.2493 282.065 95.6385C281.642 96.0108 281.431 96.5523 281.431 97.263C281.431 97.7198 281.524 98.1175 281.71 98.4559C281.896 98.7943 282.175 99.0482 282.548 99.2174C282.92 99.3866 283.385 99.4712 283.944 99.4712ZM293.396 91.146V88.1001H296.924V91.146H293.396ZM293.396 106.451V93.1004H296.924V106.451H293.396ZM300.163 106.451V93.1004H303.082L303.361 94.9278H303.539C303.844 94.4879 304.207 94.1072 304.63 93.7857C305.07 93.4642 305.561 93.2188 306.102 93.0496C306.644 92.8804 307.236 92.7958 307.879 92.7958C308.759 92.7958 309.529 92.9565 310.189 93.278C310.849 93.5995 311.357 94.1072 311.712 94.8009C312.084 95.4947 312.27 96.4 312.27 97.5168V106.451H308.742V98.0752C308.742 97.6522 308.691 97.2968 308.59 97.0091C308.488 96.7046 308.336 96.4592 308.133 96.2731C307.947 96.07 307.71 95.9262 307.422 95.8416C307.135 95.757 306.813 95.7147 306.458 95.7147C305.933 95.7147 305.459 95.8416 305.036 96.0954C304.613 96.3492 304.283 96.6961 304.047 97.1361C303.81 97.576 303.691 98.0836 303.691 98.659V106.451H300.163ZM315.432 106.451V93.1004H318.351L318.63 94.9278H318.808C319.112 94.4879 319.476 94.1072 319.899 93.7857C320.339 93.4642 320.83 93.2188 321.371 93.0496C321.913 92.8804 322.505 92.7958 323.148 92.7958C324.028 92.7958 324.798 92.9565 325.458 93.278C326.118 93.5995 326.625 94.1072 326.981 94.8009C327.353 95.4947 327.539 96.4 327.539 97.5168V106.451H324.011V98.0752C324.011 97.6522 323.96 97.2968 323.859 97.0091C323.757 96.7046 323.605 96.4592 323.402 96.2731C323.216 96.07 322.979 95.9262 322.691 95.8416C322.403 95.757 322.082 95.7147 321.727 95.7147C321.202 95.7147 320.728 95.8416 320.305 96.0954C319.882 96.3492 319.552 96.6961 319.315 97.1361C319.078 97.576 318.96 98.0836 318.96 98.659V106.451H315.432ZM336.767 106.756C335.295 106.756 334.059 106.51 333.061 106.02C332.063 105.512 331.31 104.742 330.802 103.71C330.295 102.678 330.041 101.366 330.041 99.7758C330.041 98.1682 330.295 96.8569 330.802 95.8416C331.31 94.8094 332.054 94.0479 333.036 93.5572C334.034 93.0496 335.252 92.7958 336.691 92.7958C338.044 92.7958 339.187 93.0411 340.117 93.5318C341.048 94.0056 341.75 94.7502 342.224 95.7654C342.698 96.7638 342.935 98.0583 342.935 99.6489V100.563H333.62C333.653 101.341 333.772 102.001 333.975 102.542C334.195 103.084 334.525 103.49 334.965 103.761C335.422 104.015 336.022 104.141 336.767 104.141C337.173 104.141 337.537 104.091 337.858 103.989C338.197 103.888 338.484 103.735 338.721 103.532C338.958 103.329 339.144 103.075 339.28 102.771C339.415 102.466 339.483 102.119 339.483 101.73H342.935C342.935 102.576 342.782 103.312 342.478 103.938C342.173 104.564 341.75 105.089 341.209 105.512C340.667 105.918 340.016 106.231 339.254 106.451C338.51 106.654 337.681 106.756 336.767 106.756ZM333.67 98.329H339.305C339.305 97.8214 339.237 97.3814 339.102 97.0091C338.984 96.6369 338.814 96.3323 338.594 96.0954C338.374 95.8585 338.104 95.6893 337.782 95.5878C337.478 95.4693 337.131 95.4101 336.741 95.4101C336.098 95.4101 335.557 95.5201 335.117 95.7401C334.694 95.9431 334.364 96.2646 334.127 96.7046C333.907 97.1276 333.755 97.6691 333.67 98.329ZM345.523 106.451V93.1004H348.442L348.721 95.1817H348.899C349.068 94.7417 349.288 94.3441 349.559 93.9887C349.83 93.6164 350.168 93.3203 350.574 93.1004C350.98 92.8804 351.454 92.7704 351.996 92.7704C352.283 92.7704 352.545 92.8042 352.782 92.8719C353.019 92.9227 353.197 92.9734 353.315 93.0242V96.2223H352.224C351.699 96.2223 351.234 96.2985 350.828 96.4507C350.439 96.5861 350.109 96.8061 349.838 97.1107C349.567 97.4153 349.364 97.7875 349.229 98.2275C349.11 98.6674 349.051 99.1835 349.051 99.7758V106.451H345.523Z" fill="#454545"/>
<mask id="path-5-inside-1_10357_50984" fill="white">
<path d="M232.586 127.08H364.843V184.337H232.586V127.08Z"/>
</mask>
<path d="M363.143 127.08V184.337H366.544V127.08H363.143ZM234.287 184.337V127.08H230.885V184.337H234.287Z" fill="#DDDDDD" fill-opacity="0.4" mask="url(#path-5-inside-1_10357_50984)"/>
<path d="M245.143 163.709V146.297H248.621L255.626 155.688C255.728 155.807 255.854 155.976 256.007 156.196C256.159 156.399 256.303 156.602 256.438 156.805C256.574 157.008 256.667 157.169 256.717 157.287H256.844C256.844 157 256.844 156.721 256.844 156.45C256.844 156.162 256.844 155.908 256.844 155.688V146.297H260.423V163.709H256.946L249.788 154.089C249.619 153.852 249.441 153.59 249.255 153.302C249.069 153.015 248.934 152.795 248.849 152.643H248.722C248.722 152.896 248.722 153.15 248.722 153.404C248.722 153.641 248.722 153.869 248.722 154.089V163.709H245.143ZM270.117 164.014C268.661 164.014 267.426 163.768 266.411 163.277C265.396 162.77 264.626 162 264.101 160.968C263.577 159.919 263.314 158.607 263.314 157.034C263.314 155.426 263.577 154.115 264.101 153.099C264.626 152.067 265.396 151.306 266.411 150.815C267.426 150.307 268.661 150.054 270.117 150.054C271.606 150.054 272.849 150.307 273.848 150.815C274.863 151.306 275.633 152.067 276.158 153.099C276.682 154.115 276.944 155.426 276.944 157.034C276.944 158.607 276.682 159.919 276.158 160.968C275.633 162 274.863 162.77 273.848 163.277C272.849 163.768 271.606 164.014 270.117 164.014ZM270.117 161.272C270.895 161.272 271.513 161.129 271.97 160.841C272.443 160.553 272.79 160.113 273.01 159.521C273.23 158.929 273.34 158.201 273.34 157.338V156.729C273.34 155.866 273.23 155.138 273.01 154.546C272.79 153.954 272.443 153.514 271.97 153.226C271.513 152.922 270.895 152.769 270.117 152.769C269.355 152.769 268.738 152.922 268.264 153.226C267.807 153.514 267.469 153.954 267.249 154.546C267.029 155.138 266.919 155.866 266.919 156.729V157.338C266.919 158.201 267.029 158.929 267.249 159.521C267.469 160.113 267.807 160.553 268.264 160.841C268.738 161.129 269.355 161.272 270.117 161.272ZM282.992 163.709L278.018 150.358H281.749L283.703 155.993C283.805 156.281 283.923 156.661 284.058 157.135C284.211 157.609 284.363 158.108 284.515 158.633C284.668 159.157 284.794 159.631 284.896 160.054H285.023C285.141 159.665 285.268 159.216 285.404 158.709C285.539 158.184 285.674 157.685 285.81 157.211C285.962 156.721 286.089 156.314 286.19 155.993L288.145 150.358H291.698L286.698 163.709H282.992ZM293.421 148.404V145.358H296.949V148.404H293.421ZM293.421 163.709V150.358H296.949V163.709H293.421ZM306.051 164.014C304.63 164.014 303.437 163.768 302.472 163.277C301.508 162.77 300.772 162 300.264 160.968C299.773 159.919 299.528 158.607 299.528 157.034C299.528 155.426 299.773 154.115 300.264 153.099C300.772 152.067 301.508 151.297 302.472 150.79C303.454 150.282 304.647 150.028 306.051 150.028C306.965 150.028 307.786 150.138 308.513 150.358C309.258 150.578 309.901 150.917 310.442 151.373C310.984 151.83 311.39 152.397 311.661 153.074C311.948 153.734 312.092 154.521 312.092 155.435H308.564C308.564 154.825 308.471 154.326 308.285 153.937C308.099 153.548 307.811 153.252 307.422 153.049C307.049 152.846 306.576 152.744 306 152.744C305.324 152.744 304.774 152.896 304.351 153.201C303.928 153.506 303.614 153.954 303.411 154.546C303.208 155.138 303.107 155.874 303.107 156.754V157.338C303.107 158.201 303.208 158.929 303.411 159.521C303.631 160.113 303.961 160.562 304.401 160.866C304.841 161.154 305.417 161.298 306.127 161.298C306.703 161.298 307.176 161.196 307.549 160.993C307.938 160.79 308.234 160.485 308.437 160.079C308.64 159.673 308.742 159.183 308.742 158.607H312.092C312.092 159.47 311.948 160.24 311.661 160.917C311.39 161.594 310.984 162.161 310.442 162.618C309.918 163.074 309.283 163.421 308.539 163.658C307.794 163.895 306.965 164.014 306.051 164.014ZM320.804 164.014C319.332 164.014 318.097 163.768 317.098 163.277C316.1 162.77 315.347 162 314.839 160.968C314.332 159.936 314.078 158.624 314.078 157.034C314.078 155.426 314.332 154.115 314.839 153.099C315.347 152.067 316.092 151.306 317.073 150.815C318.071 150.307 319.29 150.054 320.728 150.054C322.082 150.054 323.224 150.299 324.154 150.79C325.085 151.263 325.787 152.008 326.261 153.023C326.735 154.022 326.972 155.316 326.972 156.907V157.82H317.657C317.691 158.599 317.809 159.259 318.012 159.8C318.232 160.342 318.562 160.748 319.002 161.019C319.459 161.272 320.06 161.399 320.804 161.399C321.21 161.399 321.574 161.348 321.896 161.247C322.234 161.145 322.522 160.993 322.758 160.79C322.995 160.587 323.182 160.333 323.317 160.029C323.452 159.724 323.52 159.377 323.52 158.988H326.972C326.972 159.834 326.82 160.57 326.515 161.196C326.21 161.822 325.787 162.347 325.246 162.77C324.704 163.176 324.053 163.489 323.292 163.709C322.547 163.912 321.718 164.014 320.804 164.014ZM317.708 155.587H323.342C323.342 155.079 323.275 154.639 323.139 154.267C323.021 153.895 322.852 153.59 322.632 153.353C322.412 153.116 322.141 152.947 321.819 152.846C321.515 152.727 321.168 152.668 320.779 152.668C320.136 152.668 319.594 152.778 319.154 152.998C318.731 153.201 318.401 153.522 318.164 153.962C317.944 154.385 317.792 154.927 317.708 155.587Z" fill="#454545"/>
<rect x="232.586" y="184.336" width="132.257" height="57.2572" fill="#DDDDDD"/>
<rect x="233.436" y="185.186" width="130.557" height="55.5567" stroke="#DDDDDD" stroke-opacity="0.4" stroke-width="1.70058"/>
<path d="M245.143 220.965V203.553H259.053V206.65H248.951V210.533H257.885V213.604H248.951V217.843H259.205V220.965H245.143ZM260.769 220.965L265.617 214.036L261.124 207.614H265.363L267.901 211.624H268.028L270.592 207.614H274.577L270.059 214.01L274.83 220.965H270.668L267.774 216.422H267.647L264.754 220.965H260.769ZM276.69 225.483V207.614H279.583L279.888 209.416H280.066C280.506 208.689 281.081 208.156 281.792 207.817C282.502 207.479 283.289 207.309 284.152 207.309C285.269 207.309 286.225 207.555 287.02 208.046C287.833 208.536 288.45 209.298 288.873 210.33C289.313 211.362 289.533 212.69 289.533 214.315C289.533 215.888 289.313 217.191 288.873 218.224C288.433 219.256 287.816 220.026 287.02 220.533C286.242 221.024 285.328 221.269 284.279 221.269C283.704 221.269 283.171 221.202 282.68 221.066C282.189 220.948 281.749 220.753 281.36 220.483C280.971 220.212 280.641 219.882 280.37 219.493H280.218V225.483H276.69ZM283.061 218.376C283.771 218.376 284.33 218.241 284.736 217.97C285.159 217.682 285.464 217.259 285.65 216.701C285.836 216.125 285.929 215.423 285.929 214.594V214.01C285.929 213.164 285.836 212.462 285.65 211.904C285.464 211.328 285.159 210.905 284.736 210.634C284.33 210.347 283.771 210.203 283.061 210.203C282.401 210.203 281.859 210.355 281.436 210.66C281.013 210.964 280.7 211.404 280.497 211.98C280.294 212.555 280.193 213.249 280.193 214.061V214.492C280.193 215.085 280.252 215.626 280.37 216.117C280.489 216.591 280.658 216.997 280.878 217.335C281.115 217.674 281.411 217.936 281.766 218.122C282.122 218.291 282.553 218.376 283.061 218.376ZM298.198 221.269C296.726 221.269 295.491 221.024 294.493 220.533C293.494 220.026 292.741 219.256 292.234 218.224C291.726 217.191 291.472 215.88 291.472 214.289C291.472 212.682 291.726 211.371 292.234 210.355C292.741 209.323 293.486 208.562 294.467 208.071C295.466 207.563 296.684 207.309 298.122 207.309C299.476 207.309 300.618 207.555 301.549 208.046C302.48 208.519 303.182 209.264 303.656 210.279C304.129 211.277 304.366 212.572 304.366 214.163V215.076H295.051C295.085 215.855 295.203 216.515 295.406 217.056C295.626 217.598 295.956 218.004 296.396 218.274C296.853 218.528 297.454 218.655 298.198 218.655C298.605 218.655 298.968 218.604 299.29 218.503C299.628 218.401 299.916 218.249 300.153 218.046C300.39 217.843 300.576 217.589 300.711 217.284C300.847 216.98 300.914 216.633 300.914 216.244H304.366C304.366 217.09 304.214 217.826 303.909 218.452C303.605 219.078 303.182 219.603 302.64 220.026C302.099 220.432 301.447 220.745 300.686 220.965C299.941 221.168 299.112 221.269 298.198 221.269ZM295.102 212.843H300.737C300.737 212.335 300.669 211.895 300.534 211.523C300.415 211.151 300.246 210.846 300.026 210.609C299.806 210.372 299.535 210.203 299.214 210.101C298.909 209.983 298.562 209.924 298.173 209.924C297.53 209.924 296.989 210.034 296.549 210.254C296.126 210.457 295.796 210.778 295.559 211.218C295.339 211.641 295.186 212.183 295.102 212.843ZM306.955 220.965V207.614H309.874L310.153 209.695H310.331C310.5 209.255 310.72 208.858 310.99 208.502C311.261 208.13 311.6 207.834 312.006 207.614C312.412 207.394 312.886 207.284 313.427 207.284C313.715 207.284 313.977 207.318 314.214 207.386C314.451 207.436 314.629 207.487 314.747 207.538V210.736H313.656C313.131 210.736 312.666 210.812 312.26 210.964C311.87 211.1 311.54 211.32 311.27 211.624C310.999 211.929 310.796 212.301 310.661 212.741C310.542 213.181 310.483 213.697 310.483 214.289V220.965H306.955ZM320.582 221.269C319.736 221.269 319.05 221.117 318.526 220.813C318.001 220.508 317.621 220.102 317.384 219.594C317.147 219.07 317.028 218.494 317.028 217.868V210.33H315.379V207.614H317.155L317.815 203.807H320.556V207.614H322.993V210.33H320.556V217.284C320.556 217.691 320.649 218.004 320.836 218.224C321.022 218.427 321.326 218.528 321.749 218.528H322.993V220.863C322.79 220.931 322.553 220.99 322.282 221.041C322.012 221.109 321.724 221.159 321.419 221.193C321.115 221.244 320.836 221.269 320.582 221.269Z" fill="#454545"/>
<path d="M378.256 237.815L351.469 228.074C351.252 227.996 351.016 227.981 350.791 228.031C350.565 228.082 350.358 228.195 350.195 228.359C350.032 228.522 349.918 228.729 349.868 228.954C349.817 229.18 349.832 229.415 349.911 229.633L359.651 256.42C359.737 256.655 359.892 256.859 360.097 257.003C360.302 257.146 360.546 257.223 360.796 257.224C361.04 257.224 361.278 257.151 361.48 257.014C361.682 256.877 361.838 256.683 361.928 256.457L366.604 244.768L378.293 240.092C378.524 240.004 378.723 239.848 378.863 239.645C379.004 239.442 379.079 239.201 379.079 238.953C379.079 238.706 379.004 238.465 378.863 238.262C378.723 238.058 378.524 237.903 378.293 237.815H378.256ZM365.216 242.685L364.729 242.88L364.534 243.367L360.796 252.597L353.089 231.252L374.433 238.96L365.216 242.685Z" fill="#454545"/>
<path d="M365.216 242.685L364.729 242.88L364.534 243.367L360.796 252.597L353.089 231.252L374.433 238.96L365.216 242.685Z" fill="#454545"/>
<defs>
<filter id="filter0_d_10357_50984" x="55.5929" y="108.454" width="187.116" height="94.5105" filterUnits="userSpaceOnUse" color-interpolation-filters="sRGB">
<feFlood flood-opacity="0" result="BackgroundImageFix"/>
<feColorMatrix in="SourceAlpha" type="matrix" values="0 0 0 0 0 0 0 0 0 0 0 0 0 0 0 0 0 0 127 0" result="hardAlpha"/>
<feOffset/>
<feGaussianBlur stdDeviation="9.31318"/>
<feComposite in2="hardAlpha" operator="out"/>
<feColorMatrix type="matrix" values="0 0 0 0 0 0 0 0 0 0 0 0 0 0 0 0 0 0 0.25 0"/>
<feBlend mode="normal" in2="BackgroundImageFix" result="effect1_dropShadow_10357_50984"/>
<feBlend mode="normal" in="SourceGraphic" in2="effect1_dropShadow_10357_50984" result="shape"/>
</filter>
</defs>
</svg>
