<svg width="24" height="25" viewBox="0 0 24 25" fill="none" xmlns="http://www.w3.org/2000/svg">
<g clip-path="url(#clip0_10311_40877)">
<path d="M14.4933 4.90208L7.4041 11.9913C7.27502 12.1261 7.17384 12.2851 7.10636 12.4591C6.96455 12.8043 6.96455 13.1915 7.10636 13.5367C7.17384 13.7107 7.27502 13.8697 7.4041 14.0046L14.4933 21.0938C14.6255 21.226 14.7824 21.3308 14.9551 21.4024C15.1279 21.4739 15.313 21.5107 15.4999 21.5107C15.8775 21.5107 16.2396 21.3608 16.5066 21.0938C16.7736 20.8268 16.9236 20.4647 16.9236 20.0871C16.9236 19.7095 16.7736 19.3474 16.5066 19.0804L11.8397 14.4276C11.836 14.424 11.8342 14.4222 11.8309 14.4188C11.8289 14.4168 11.8242 14.4119 11.8222 14.4099C11.819 14.4065 11.8182 14.4056 11.8166 14.4039C11.7184 14.2986 11.007 13.5175 11.007 12.9979C11.007 12.4783 11.7184 11.6972 11.8166 11.592C11.8182 11.5902 11.819 11.5894 11.8222 11.586C11.8242 11.5839 11.8289 11.579 11.8309 11.577C11.8342 11.5737 11.836 11.5719 11.8397 11.5682L16.5066 6.91541C16.6395 6.7836 16.745 6.62679 16.817 6.45401C16.8889 6.28123 16.926 6.09591 16.926 5.90874C16.926 5.72157 16.8889 5.53625 16.817 5.36348C16.745 5.1907 16.6395 5.03389 16.5066 4.90208C16.3748 4.76919 16.218 4.66371 16.0452 4.59173C15.8724 4.51974 15.6871 4.48269 15.4999 4.48269C15.3128 4.48269 15.1275 4.51974 14.9547 4.59173C14.7819 4.66371 14.6251 4.76919 14.4933 4.90208Z" fill="#6B6B6B"/>
</g>
<defs>
<clipPath id="clip0_10311_40877">
<rect width="24" height="24" fill="white" transform="translate(0 0.5)"/>
</clipPath>
</defs>
</svg>
