<svg width="440" height="312" viewBox="0 0 440 312" fill="none" xmlns="http://www.w3.org/2000/svg">
<rect width="440" height="310.756" transform="translate(0 0.679688)" fill="url(#paint0_linear_10364_51289)"/>
<rect x="81.3699" y="217.032" width="112.172" height="37.123" stroke="#CCCCCC" stroke-opacity="0.4" stroke-width="1.11577"/>
<path d="M97.6354 223.133C98.1745 223.134 98.4481 223.137 98.6844 223.144L98.7773 223.147C98.8847 223.151 98.9906 223.156 99.1185 223.162C99.6284 223.186 99.9763 223.266 100.282 223.384C100.598 223.506 100.864 223.671 101.131 223.937C101.374 224.176 101.563 224.466 101.683 224.786C101.802 225.091 101.882 225.439 101.906 225.95C101.912 226.077 101.917 226.183 101.92 226.291L101.923 226.384C101.93 226.619 101.933 226.893 101.934 227.432L101.935 227.79V228.417C101.936 228.767 101.932 229.116 101.924 229.466L101.921 229.559C101.917 229.667 101.912 229.773 101.906 229.9C101.883 230.41 101.801 230.758 101.683 231.063C101.563 231.383 101.374 231.673 101.131 231.913C100.891 232.156 100.601 232.345 100.282 232.465C99.9763 232.583 99.6284 232.664 99.1185 232.688L98.7773 232.702L98.6844 232.705C98.4481 232.712 98.1745 232.715 97.6354 232.716L97.2779 232.717H96.6507C96.301 232.718 95.9513 232.714 95.6017 232.706L95.5087 232.703C95.395 232.698 95.2813 232.694 95.1676 232.688C94.6577 232.664 94.3098 232.583 94.0041 232.465C93.6844 232.345 93.3948 232.156 93.1554 231.913C92.9115 231.673 92.7228 231.383 92.6024 231.063C92.4841 230.758 92.4036 230.41 92.3796 229.9L92.3652 229.559L92.3628 229.466C92.354 229.116 92.35 228.767 92.3509 228.417V227.432C92.3495 227.083 92.353 226.733 92.3614 226.384L92.3648 226.291C92.3686 226.183 92.3734 226.077 92.3791 225.95C92.4031 225.439 92.4836 225.092 92.602 224.786C92.7226 224.466 92.9116 224.176 93.1559 223.937C93.3951 223.693 93.6845 223.505 94.0041 223.384C94.3098 223.266 94.6572 223.186 95.1676 223.162C95.295 223.156 95.4014 223.151 95.5087 223.147L95.6017 223.144C95.9511 223.136 96.3007 223.132 96.6502 223.133L97.6354 223.133ZM97.1428 225.529C96.5074 225.529 95.8979 225.781 95.4486 226.231C94.9993 226.68 94.7468 227.289 94.7468 227.925C94.7468 228.56 94.9993 229.17 95.4486 229.619C95.8979 230.068 96.5074 230.321 97.1428 230.321C97.7783 230.321 98.3877 230.068 98.837 229.619C99.2863 229.17 99.5388 228.56 99.5388 227.925C99.5388 227.289 99.2863 226.68 98.837 226.231C98.3877 225.781 97.7783 225.529 97.1428 225.529ZM97.1428 226.487C97.3316 226.487 97.5185 226.524 97.693 226.597C97.8674 226.669 98.0259 226.775 98.1594 226.908C98.2929 227.042 98.3988 227.2 98.4711 227.374C98.5434 227.549 98.5806 227.736 98.5806 227.925C98.5807 228.113 98.5435 228.3 98.4713 228.475C98.3991 228.649 98.2932 228.808 98.1597 228.941C98.0263 229.075 97.8678 229.181 97.6934 229.253C97.519 229.325 97.3321 229.362 97.1433 229.362C96.762 229.362 96.3964 229.211 96.1268 228.941C95.8572 228.672 95.7057 228.306 95.7057 227.925C95.7057 227.543 95.8572 227.178 96.1268 226.908C96.3964 226.639 96.762 226.487 97.1433 226.487M99.6591 224.81C99.5002 224.81 99.3478 224.873 99.2355 224.985C99.1232 225.098 99.0601 225.25 99.0601 225.409C99.0601 225.568 99.1232 225.72 99.2355 225.833C99.3478 225.945 99.5002 226.008 99.6591 226.008C99.8179 226.008 99.9703 225.945 100.083 225.833C100.195 225.72 100.258 225.568 100.258 225.409C100.258 225.25 100.195 225.098 100.083 224.985C99.9703 224.873 99.8179 224.81 99.6591 224.81Z" fill="white"/>
<g clip-path="url(#clip0_10364_51289)">
<path d="M108.926 224.569C109.013 224.559 109.101 224.573 109.18 224.609C109.26 224.646 109.328 224.703 109.377 224.775C110.084 225.81 110.934 226.24 111.876 226.338C111.922 225.935 112.031 225.536 112.236 225.186C112.536 224.671 113.023 224.292 113.72 224.152C114.683 223.959 115.416 224.308 115.841 224.735L116.7 224.574C116.79 224.557 116.883 224.567 116.968 224.601C117.052 224.635 117.126 224.693 117.179 224.767C117.232 224.842 117.262 224.93 117.267 225.021C117.272 225.112 117.25 225.203 117.205 225.282L116.381 226.731C116.456 228.82 115.875 230.279 114.637 231.284C113.98 231.817 113.04 232.119 112.008 232.213C110.969 232.306 109.793 232.193 108.625 231.852C108.525 231.823 108.437 231.762 108.375 231.678C108.313 231.595 108.279 231.494 108.28 231.39C108.28 231.286 108.314 231.185 108.377 231.102C108.44 231.019 108.528 230.959 108.628 230.931C109.216 230.763 109.663 230.619 110.067 230.367C109.493 230.062 109.07 229.663 108.77 229.209C108.354 228.577 108.2 227.873 108.169 227.238C108.138 226.603 108.23 226.015 108.327 225.591C108.382 225.349 108.446 225.106 108.535 224.874C108.566 224.792 108.619 224.721 108.688 224.667C108.757 224.613 108.839 224.58 108.926 224.569Z" fill="white"/>
</g>
<path d="M101.408 238.465H92.8782C92.7384 238.465 92.6043 238.52 92.5055 238.619C92.4066 238.718 92.3511 238.852 92.3511 238.992V247.522C92.3511 247.661 92.4066 247.795 92.5055 247.894C92.6043 247.993 92.7384 248.049 92.8782 248.049H97.4689V244.335H96.223V242.897H97.4689V241.819C97.4431 241.566 97.4729 241.31 97.5564 241.07C97.6399 240.83 97.775 240.61 97.9521 240.428C98.1293 240.245 98.3443 240.104 98.582 240.013C98.8197 239.922 99.0743 239.884 99.3281 239.902C99.7011 239.9 100.074 239.919 100.445 239.96V241.254H99.6827C99.079 241.254 98.964 241.541 98.964 241.958V242.883H100.402L100.215 244.321H98.964V248.049H101.408C101.477 248.049 101.546 248.035 101.61 248.009C101.674 247.982 101.732 247.943 101.781 247.894C101.83 247.845 101.868 247.787 101.895 247.723C101.921 247.659 101.935 247.591 101.935 247.522V238.992C101.935 238.923 101.921 238.854 101.895 238.79C101.868 238.726 101.83 238.668 101.781 238.619C101.732 238.57 101.674 238.531 101.61 238.505C101.546 238.478 101.477 238.465 101.408 238.465Z" fill="white"/>
<path d="M114.681 240.295C114.353 239.921 114.173 239.44 114.173 238.943H112.692V244.885C112.681 245.207 112.545 245.511 112.314 245.735C112.082 245.958 111.773 246.083 111.451 246.083C110.771 246.083 110.205 245.527 110.205 244.837C110.205 244.013 111.001 243.395 111.82 243.649V242.135C110.167 241.914 108.72 243.199 108.72 244.837C108.72 246.433 110.042 247.569 111.446 247.569C112.951 247.569 114.173 246.347 114.173 244.837V241.823C114.773 242.255 115.494 242.486 116.233 242.485V241.004C116.233 241.004 115.333 241.047 114.681 240.295Z" fill="white"/>
<path d="M141.39 241.304C140.736 241.304 140.105 241.234 139.498 241.094C138.891 240.965 138.353 240.755 137.886 240.463C137.419 240.159 137.051 239.78 136.782 239.324C136.513 238.857 136.379 238.302 136.379 237.659C136.379 237.589 136.379 237.525 136.379 237.467C136.391 237.397 136.397 237.338 136.397 237.291H138.359C138.359 237.326 138.353 237.379 138.342 237.449C138.342 237.519 138.342 237.578 138.342 237.624C138.342 238.057 138.47 238.425 138.727 238.728C138.984 239.032 139.34 239.26 139.796 239.412C140.263 239.563 140.795 239.639 141.39 239.639C141.718 239.639 142.033 239.622 142.337 239.587C142.64 239.54 142.915 239.476 143.16 239.394C143.417 239.301 143.639 239.19 143.826 239.061C144.013 238.921 144.159 238.757 144.264 238.571C144.369 238.384 144.422 238.168 144.422 237.922C144.422 237.548 144.311 237.239 144.089 236.994C143.879 236.748 143.587 236.544 143.213 236.38C142.851 236.217 142.436 236.071 141.969 235.942C141.513 235.814 141.04 235.685 140.549 235.557C140.059 235.428 139.58 235.276 139.113 235.101C138.657 234.926 138.242 234.716 137.868 234.47C137.506 234.213 137.214 233.898 136.992 233.524C136.782 233.139 136.677 232.671 136.677 232.122C136.677 231.597 136.788 231.129 137.01 230.721C137.232 230.312 137.553 229.973 137.974 229.704C138.394 229.424 138.896 229.214 139.481 229.074C140.065 228.933 140.725 228.863 141.461 228.863C142.091 228.863 142.687 228.933 143.248 229.074C143.808 229.202 144.299 229.406 144.72 229.687C145.14 229.967 145.467 230.323 145.701 230.756C145.946 231.188 146.069 231.702 146.069 232.298V232.508H144.124V232.28C144.124 231.906 144.013 231.591 143.791 231.334C143.569 231.077 143.259 230.878 142.862 230.738C142.465 230.598 142.004 230.528 141.478 230.528C140.859 230.528 140.339 230.592 139.919 230.721C139.498 230.837 139.177 231.007 138.955 231.229C138.745 231.439 138.639 231.696 138.639 232C138.639 232.339 138.75 232.619 138.972 232.841C139.194 233.051 139.486 233.232 139.848 233.384C140.222 233.536 140.637 233.676 141.093 233.805C141.56 233.921 142.033 234.05 142.512 234.19C143.002 234.319 143.476 234.47 143.931 234.646C144.398 234.821 144.813 235.037 145.175 235.294C145.549 235.551 145.847 235.872 146.069 236.258C146.291 236.631 146.402 237.093 146.402 237.642C146.402 238.506 146.186 239.213 145.753 239.762C145.321 240.299 144.725 240.691 143.966 240.936C143.219 241.181 142.36 241.304 141.39 241.304ZM148.433 241.094V228.425H150.255V232.981H150.378C150.6 232.701 150.851 232.467 151.131 232.28C151.412 232.082 151.727 231.93 152.078 231.825C152.428 231.719 152.813 231.667 153.234 231.667C153.818 231.667 154.332 231.772 154.776 231.982C155.22 232.181 155.564 232.508 155.81 232.963C156.067 233.419 156.195 234.032 156.195 234.803V241.094H154.373V235.084C154.373 234.733 154.326 234.441 154.233 234.208C154.151 233.974 154.028 233.787 153.865 233.647C153.701 233.507 153.509 233.407 153.287 233.349C153.065 233.291 152.819 233.261 152.551 233.261C152.13 233.261 151.745 233.361 151.394 233.559C151.055 233.758 150.781 234.038 150.571 234.4C150.36 234.762 150.255 235.195 150.255 235.697V241.094H148.433ZM160.808 241.304C160.516 241.304 160.2 241.269 159.862 241.199C159.523 241.129 159.202 241 158.898 240.813C158.606 240.626 158.366 240.37 158.18 240.042C157.993 239.704 157.899 239.266 157.899 238.728C157.899 238.097 158.045 237.578 158.337 237.169C158.629 236.76 159.038 236.439 159.564 236.205C160.089 235.971 160.714 235.808 161.439 235.714C162.175 235.621 162.975 235.574 163.839 235.574V234.663C163.839 234.359 163.787 234.091 163.681 233.857C163.588 233.623 163.407 233.442 163.138 233.314C162.881 233.185 162.507 233.121 162.017 233.121C161.526 233.121 161.141 233.185 160.86 233.314C160.592 233.431 160.399 233.583 160.282 233.769C160.177 233.945 160.124 234.137 160.124 234.348V234.611H158.372C158.361 234.552 158.355 234.494 158.355 234.435C158.355 234.377 158.355 234.307 158.355 234.225C158.355 233.676 158.507 233.215 158.81 232.841C159.126 232.455 159.564 232.163 160.124 231.965C160.685 231.766 161.333 231.667 162.069 231.667C162.864 231.667 163.524 231.784 164.049 232.017C164.587 232.239 164.99 232.56 165.258 232.981C165.527 233.402 165.661 233.91 165.661 234.505V239.184C165.661 239.406 165.714 239.563 165.819 239.657C165.936 239.75 166.07 239.797 166.222 239.797H166.853V241.024C166.713 241.082 166.538 241.14 166.327 241.199C166.117 241.257 165.872 241.286 165.591 241.286C165.276 241.286 165.007 241.228 164.785 241.111C164.575 241.006 164.4 240.854 164.26 240.656C164.131 240.445 164.044 240.212 163.997 239.955H163.892C163.681 240.223 163.424 240.463 163.121 240.673C162.829 240.872 162.49 241.024 162.104 241.129C161.719 241.246 161.287 241.304 160.808 241.304ZM161.316 239.797C161.678 239.797 162.011 239.745 162.315 239.639C162.63 239.523 162.899 239.365 163.121 239.166C163.343 238.956 163.518 238.711 163.646 238.43C163.775 238.138 163.839 237.823 163.839 237.484V236.871C163.033 236.871 162.326 236.918 161.719 237.011C161.112 237.105 160.638 237.28 160.3 237.537C159.961 237.782 159.792 238.127 159.792 238.571C159.792 238.839 159.85 239.067 159.967 239.254C160.084 239.429 160.259 239.563 160.492 239.657C160.726 239.75 161.001 239.797 161.316 239.797ZM168.111 241.094V231.877H169.618L169.776 233.366H169.881C169.986 233.074 170.12 232.8 170.284 232.543C170.459 232.286 170.681 232.076 170.95 231.912C171.23 231.749 171.569 231.667 171.966 231.667C172.153 231.667 172.316 231.684 172.457 231.719C172.608 231.754 172.725 231.784 172.807 231.807V233.524H172.194C171.82 233.524 171.487 233.583 171.195 233.699C170.915 233.816 170.675 233.991 170.477 234.225C170.29 234.447 170.15 234.722 170.056 235.049C169.974 235.376 169.933 235.744 169.933 236.153V241.094H168.111ZM177.817 241.304C176.871 241.304 176.077 241.135 175.434 240.796C174.803 240.445 174.325 239.914 173.997 239.201C173.67 238.489 173.507 237.583 173.507 236.485C173.507 235.376 173.67 234.47 173.997 233.769C174.325 233.057 174.809 232.531 175.452 232.193C176.094 231.842 176.894 231.667 177.852 231.667C178.728 231.667 179.459 231.836 180.043 232.175C180.638 232.502 181.088 233.004 181.392 233.682C181.696 234.359 181.847 235.212 181.847 236.24V236.941H175.382C175.405 237.595 175.504 238.144 175.68 238.588C175.855 239.02 176.118 239.342 176.468 239.552C176.83 239.75 177.286 239.85 177.835 239.85C178.174 239.85 178.477 239.809 178.746 239.727C179.015 239.634 179.242 239.505 179.429 239.342C179.616 239.166 179.762 238.962 179.867 238.728C179.973 238.483 180.025 238.208 180.025 237.905H181.812C181.812 238.454 181.719 238.939 181.532 239.359C181.345 239.78 181.071 240.136 180.708 240.428C180.358 240.708 179.937 240.924 179.447 241.076C178.956 241.228 178.413 241.304 177.817 241.304ZM175.417 235.609H179.937C179.937 235.154 179.885 234.774 179.78 234.47C179.686 234.155 179.546 233.898 179.359 233.699C179.172 233.501 178.95 233.361 178.693 233.279C178.436 233.185 178.144 233.139 177.817 233.139C177.327 233.139 176.906 233.226 176.556 233.402C176.217 233.577 175.954 233.851 175.767 234.225C175.58 234.587 175.463 235.049 175.417 235.609Z" fill="white"/>
<g clip-path="url(#clip1_10364_51289)">
<path fill-rule="evenodd" clip-rule="evenodd" d="M40.9771 76.2549C39.7905 77.44 39.7905 79.3476 39.7905 83.1655V88.5616C39.7905 92.3795 39.7905 94.287 40.9771 95.4736C42.1622 96.6587 44.0697 96.6587 47.8876 96.6587H53.2838C57.1017 96.6587 59.0092 96.6587 60.1958 95.4736C61.3809 94.287 61.3809 92.3795 61.3809 88.5631V83.164C61.3809 79.349 61.3809 77.44 60.1958 76.2549C59.0092 75.0684 57.1017 75.0684 53.2852 75.0684H47.8862C44.0712 75.0684 42.1622 75.0684 40.9771 76.2549ZM46.3326 89.5538C46.4017 89.4602 46.4886 89.3811 46.5882 89.3211C46.6879 89.261 46.7984 89.2213 46.9135 89.204C47.0286 89.1868 47.1459 89.1924 47.2588 89.2206C47.3717 89.2487 47.4779 89.2989 47.5714 89.3681C48.4301 90.0064 49.4688 90.3748 50.5857 90.3748C51.7026 90.3748 52.7413 90.0064 53.6 89.3681C53.7887 89.2283 54.0252 89.1691 54.2575 89.2037C54.4899 89.2382 54.6989 89.3636 54.8388 89.5523C54.9786 89.741 55.0378 89.9776 55.0032 90.2099C54.9687 90.4422 54.8433 90.6513 54.6546 90.7911C53.4797 91.6693 52.0525 92.1445 50.5857 92.146C49.1189 92.1445 47.6917 91.6693 46.5168 90.7911C46.4233 90.722 46.3444 90.635 46.2845 90.5353C46.2246 90.4356 46.185 90.325 46.1679 90.2099C46.1508 90.0949 46.1565 89.9776 46.1848 89.8647C46.213 89.7519 46.2633 89.6472 46.3326 89.5538ZM55.3088 83.5847C55.3088 84.5638 54.7793 85.3558 54.128 85.3558C53.4752 85.3558 52.9472 84.5638 52.9472 83.5861C52.9472 82.607 53.4752 81.8135 54.128 81.8135C54.7808 81.8135 55.3088 82.607 55.3088 83.5847ZM47.0434 85.3558C47.6962 85.3558 48.2242 84.5638 48.2242 83.5861C48.2242 82.607 47.6962 81.8135 47.0434 81.8135C46.3906 81.8135 45.8626 82.607 45.8626 83.5847C45.8626 84.5638 46.3921 85.3558 47.0434 85.3558Z" fill="#BCBCBC"/>
<path d="M46.3326 89.5538C46.4017 89.4602 46.4886 89.3811 46.5882 89.3211C46.6879 89.261 46.7984 89.2213 46.9135 89.204C47.0286 89.1868 47.1459 89.1924 47.2588 89.2206C47.3717 89.2487 47.4779 89.2989 47.5714 89.3681C48.4301 90.0064 49.4688 90.3748 50.5857 90.3748C51.7026 90.3748 52.7413 90.0064 53.6 89.3681C53.7887 89.2283 54.0252 89.1691 54.2575 89.2037C54.4899 89.2382 54.6989 89.3636 54.8388 89.5523C54.9786 89.741 55.0378 89.9776 55.0032 90.2099C54.9687 90.4422 54.8433 90.6513 54.6546 90.7911C53.4797 91.6693 52.0525 92.1445 50.5857 92.146C49.1189 92.1445 47.6917 91.6693 46.5168 90.7911C46.4233 90.722 46.3444 90.635 46.2845 90.5353C46.2246 90.4356 46.185 90.325 46.1679 90.2099C46.1508 90.0949 46.1565 89.9776 46.1848 89.8647C46.213 89.7519 46.2633 89.6472 46.3326 89.5538Z" fill="white"/>
<g clip-path="url(#clip2_10364_51289)">
<path d="M44.9377 88.0219H41.6993C39.9506 88.0219 38.4177 86.6618 38.2018 84.9346L37.6621 81.707C37.5433 80.7894 37.8024 79.9259 38.3637 79.2998C38.9251 78.6737 39.7455 78.3066 40.6198 78.3066H47.0967C47.9927 78.3066 48.8023 78.6845 49.3204 79.3429C49.4392 79.5049 49.5471 79.6776 49.6335 79.8719C50.0976 79.7747 50.5726 79.7747 51.026 79.8719C51.1123 79.6776 51.2203 79.5049 51.3498 79.3429C51.8572 78.6845 52.6668 78.3066 53.5736 78.3066H60.0504C60.9248 78.3066 61.7452 78.6737 62.3065 79.2998C62.857 79.9259 63.1161 80.7894 63.0082 81.6638L62.4576 84.9778C62.2525 86.6618 60.7089 88.0219 58.9709 88.0219H55.7325C54.0485 88.0219 52.4077 86.7373 51.9975 85.1073L51.026 82.182C50.6158 81.8797 50.0437 81.8797 49.6335 82.182L48.6403 85.1829C48.2517 86.7481 46.6217 88.0219 44.9377 88.0219Z" fill="white"/>
</g>
</g>
<g filter="url(#filter0_d_10364_51289)">
<rect x="80.8115" y="74.5234" width="320.604" height="22.669" fill="white"/>
</g>
<rect x="80.8115" y="74.5234" width="107.387" height="22.669" fill="url(#paint1_linear_10364_51289)"/>
<path d="M226.163 92.8984L226.57 90.6176H229.91L231.377 82.3698H227.996L228.301 80.6591C228.654 80.632 229.048 80.5641 229.483 80.4555C229.917 80.3469 230.372 80.2179 230.847 80.0685C231.336 79.9056 231.811 79.7291 232.273 79.539C232.734 79.3354 233.169 79.125 233.576 78.9077H234.818L232.761 90.6176H235.877L235.47 92.8984H226.163ZM236.625 93.8963L243.528 77.9302H245.545L238.641 93.8963H236.625ZM249.878 92.8984L250.428 89.8437H244.156L244.522 87.5832C245.188 86.7414 245.819 85.8522 246.416 84.9154C247.027 83.9786 247.604 82.9875 248.147 81.9421C248.704 80.8967 249.227 79.8106 249.715 78.6837H252.79C252.532 79.3354 252.2 80.021 251.793 80.7406C251.399 81.4601 250.978 82.1729 250.53 82.8789C250.095 83.5849 249.647 84.2501 249.186 84.8747C248.738 85.4856 248.317 86.0287 247.923 86.5038C247.543 86.979 247.224 87.3388 246.966 87.5832H250.815L251.385 84.3452C251.562 84.0872 251.752 83.8021 251.955 83.4898C252.159 83.164 252.356 82.8382 252.546 82.5123C252.736 82.1729 252.913 81.8403 253.076 81.5144C253.252 81.175 253.401 80.8696 253.524 80.598H254.827L253.605 87.5832H255.377L254.99 89.8437H253.218L252.648 92.8984H249.878Z" fill="#292929"/>
<path d="M50.5859 142.89L45.9082 145.228L46.6878 139.771L43.5693 136.653L48.2471 135.873L50.5859 131.195L52.9248 135.873L57.6025 136.653L54.484 139.771L55.2637 145.228L50.5859 142.89Z" fill="white" stroke="white" stroke-width="3.11849" stroke-linecap="round" stroke-linejoin="round"/>
<path d="M46.2686 124.721V132.277" stroke="white" stroke-width="2.15895"/>
<path d="M54.9043 124.721V132.277" stroke="white" stroke-width="2.15895"/>
<path d="M50.5859 124.721V127.959" stroke="white" stroke-width="2.15895"/>
<g filter="url(#filter1_d_10364_51289)">
<g filter="url(#filter2_d_10364_51289)">
<rect x="80.8115" y="124.182" width="320.604" height="22.669" fill="white"/>
</g>
<path d="M230.99 142.801C230.053 142.801 229.252 142.658 228.587 142.373C227.935 142.088 227.439 141.627 227.1 140.989C226.761 140.337 226.591 139.482 226.591 138.423C226.591 138.151 226.598 137.866 226.611 137.567C226.638 137.255 226.672 136.936 226.713 136.61C226.754 136.271 226.808 135.911 226.876 135.531C227.107 134.187 227.399 133.06 227.752 132.15C228.105 131.227 228.525 130.487 229.014 129.93C229.517 129.36 230.087 128.953 230.725 128.708C231.377 128.464 232.103 128.342 232.904 128.342C233.868 128.342 234.676 128.484 235.327 128.77C235.993 129.055 236.495 129.523 236.834 130.175C237.174 130.813 237.343 131.661 237.343 132.72C237.343 132.992 237.33 133.284 237.303 133.596C237.276 133.895 237.242 134.214 237.201 134.553C237.16 134.879 237.106 135.218 237.038 135.571C236.821 136.929 236.529 138.07 236.162 138.993C235.809 139.902 235.382 140.642 234.879 141.213C234.377 141.769 233.807 142.176 233.169 142.434C232.531 142.679 231.804 142.801 230.99 142.801ZM231.03 140.602C231.506 140.602 231.906 140.507 232.232 140.316C232.558 140.126 232.829 139.841 233.046 139.461C233.277 139.067 233.474 138.558 233.637 137.934C233.8 137.309 233.963 136.576 234.126 135.734C234.194 135.314 234.255 134.94 234.309 134.614C234.363 134.288 234.404 134.003 234.431 133.759C234.472 133.515 234.499 133.297 234.513 133.107C234.526 132.917 234.533 132.748 234.533 132.598C234.533 131.906 234.404 131.39 234.146 131.05C233.902 130.711 233.481 130.541 232.884 130.541C232.408 130.541 232.008 130.636 231.682 130.826C231.356 131.017 231.078 131.308 230.847 131.702C230.63 132.096 230.44 132.598 230.277 133.209C230.114 133.82 229.951 134.553 229.788 135.409C229.707 135.829 229.639 136.203 229.584 136.529C229.53 136.854 229.483 137.14 229.442 137.384C229.415 137.628 229.394 137.846 229.381 138.036C229.367 138.212 229.36 138.375 229.36 138.524C229.36 139.217 229.489 139.739 229.747 140.092C230.005 140.432 230.433 140.602 231.03 140.602ZM236.605 143.555L243.508 127.588H245.525L238.621 143.555H236.605ZM244.38 142.557L244.788 140.276H248.127L249.594 132.028H246.213L246.519 130.317C246.872 130.29 247.265 130.222 247.7 130.114C248.134 130.005 248.589 129.876 249.064 129.727C249.553 129.564 250.028 129.387 250.49 129.197C250.951 128.994 251.386 128.783 251.793 128.566H253.035L250.978 140.276H254.094L253.687 142.557H244.38Z" fill="#292929"/>
</g>
<path d="M53.8248 176.535C56.1151 176.535 58.3117 177.445 59.9312 179.065C61.5507 180.684 62.4606 182.881 62.4606 185.171C62.4606 187.461 61.5507 189.658 59.9312 191.277C58.3117 192.897 56.1151 193.807 53.8248 193.807C51.5344 193.807 49.3379 192.897 47.7183 191.277C46.0988 189.658 45.189 187.461 45.189 185.171C45.189 182.881 46.0988 180.684 47.7183 179.065C49.3379 177.445 51.5344 176.535 53.8248 176.535ZM53.8248 178.694C52.107 178.694 50.4596 179.376 49.2449 180.591C48.0303 181.806 47.3479 183.453 47.3479 185.171C47.3479 186.889 48.0303 188.536 49.2449 189.751C50.4596 190.965 52.107 191.648 53.8248 191.648C55.5425 191.648 57.19 190.965 58.4046 189.751C59.6192 188.536 60.3016 186.889 60.3016 185.171C60.3016 183.453 59.6192 181.806 58.4046 180.591C57.19 179.376 55.5425 178.694 53.8248 178.694ZM52.7453 180.853H54.3645V184.933L56.8797 187.449L55.7354 188.593L52.7453 185.603V180.853Z" fill="white" stroke="white" stroke-width="0.475162"/>
<path d="M38.7118 178.693H44.1092L43.0297 180.852H37.6323L38.7118 178.693Z" fill="white"/>
<path d="M37.6323 184.092H43.0297V186.251H37.6323V184.092Z" fill="white"/>
<path d="M37.6323 189.488H43.0297L44.1092 191.647H38.7118L37.6323 189.488Z" fill="white"/>
<g filter="url(#filter3_d_10364_51289)">
<g filter="url(#filter4_d_10364_51289)">
<rect x="80.8115" y="173.838" width="320.604" height="22.669" fill="white"/>
</g>
<path d="M230.99 192.457C230.053 192.457 229.252 192.315 228.587 192.03C227.935 191.744 227.439 191.283 227.1 190.645C226.761 189.993 226.591 189.138 226.591 188.079C226.591 187.807 226.598 187.522 226.611 187.223C226.638 186.911 226.672 186.592 226.713 186.266C226.754 185.927 226.808 185.567 226.876 185.187C227.107 183.843 227.399 182.716 227.752 181.806C228.105 180.883 228.525 180.143 229.014 179.587C229.517 179.016 230.087 178.609 230.725 178.365C231.377 178.12 232.103 177.998 232.904 177.998C233.868 177.998 234.676 178.141 235.327 178.426C235.993 178.711 236.495 179.179 236.834 179.831C237.174 180.469 237.343 181.318 237.343 182.377C237.343 182.648 237.33 182.94 237.303 183.252C237.276 183.551 237.242 183.87 237.201 184.209C237.16 184.535 237.106 184.875 237.038 185.228C236.821 186.585 236.529 187.726 236.162 188.649C235.809 189.559 235.382 190.299 234.879 190.869C234.377 191.425 233.807 191.833 233.169 192.091C232.531 192.335 231.804 192.457 230.99 192.457ZM231.03 190.258C231.506 190.258 231.906 190.163 232.232 189.973C232.558 189.783 232.829 189.498 233.046 189.117C233.277 188.724 233.474 188.215 233.637 187.59C233.8 186.966 233.963 186.232 234.126 185.391C234.194 184.97 234.255 184.596 234.309 184.271C234.363 183.945 234.404 183.66 234.431 183.415C234.472 183.171 234.499 182.954 234.513 182.764C234.526 182.573 234.533 182.404 234.533 182.254C234.533 181.562 234.404 181.046 234.146 180.707C233.902 180.367 233.481 180.198 232.884 180.198C232.408 180.198 232.008 180.293 231.682 180.483C231.356 180.673 231.078 180.965 230.847 181.358C230.63 181.752 230.44 182.254 230.277 182.865C230.114 183.476 229.951 184.209 229.788 185.065C229.707 185.486 229.639 185.859 229.584 186.185C229.53 186.511 229.483 186.796 229.442 187.04C229.415 187.285 229.394 187.502 229.381 187.692C229.367 187.868 229.36 188.031 229.36 188.181C229.36 188.873 229.489 189.396 229.747 189.749C230.005 190.088 230.433 190.258 231.03 190.258ZM236.605 193.211L243.508 177.245H245.525L238.621 193.211H236.605ZM243.79 192.213L243.932 191.48C244.054 190.787 244.306 190.163 244.686 189.606C245.066 189.036 245.521 188.513 246.05 188.038C246.593 187.563 247.163 187.122 247.761 186.714C248.372 186.293 248.969 185.893 249.553 185.513C250.137 185.119 250.673 184.725 251.162 184.332C251.65 183.924 252.037 183.503 252.323 183.069C252.608 182.621 252.75 182.139 252.75 181.623C252.75 181.284 252.614 180.971 252.343 180.686C252.085 180.388 251.644 180.238 251.019 180.238C250.517 180.238 250.082 180.327 249.716 180.503C249.363 180.666 249.078 180.904 248.86 181.216C248.657 181.515 248.514 181.888 248.433 182.336L248.29 183.069H245.541C245.609 182.146 245.806 181.365 246.132 180.727C246.471 180.075 246.899 179.553 247.415 179.159C247.944 178.752 248.535 178.46 249.186 178.283C249.838 178.093 250.517 177.998 251.223 177.998C252.309 177.998 253.171 178.168 253.809 178.507C254.461 178.833 254.929 179.268 255.214 179.811C255.499 180.34 255.642 180.91 255.642 181.521C255.642 182.187 255.527 182.791 255.296 183.334C255.079 183.877 254.78 184.379 254.4 184.841C254.02 185.302 253.585 185.73 253.096 186.124C252.621 186.504 252.126 186.864 251.61 187.203C251.107 187.529 250.619 187.848 250.143 188.16C249.668 188.459 249.234 188.758 248.84 189.056C248.704 189.151 248.575 189.26 248.453 189.382C248.331 189.491 248.229 189.599 248.148 189.708H254.339L253.891 192.213H243.79Z" fill="#292929"/>
</g>
<defs>
<filter id="filter0_d_10364_51289" x="66.0815" y="59.7934" width="350.065" height="52.13" filterUnits="userSpaceOnUse" color-interpolation-filters="sRGB">
<feFlood flood-opacity="0" result="BackgroundImageFix"/>
<feColorMatrix in="SourceAlpha" type="matrix" values="0 0 0 0 0 0 0 0 0 0 0 0 0 0 0 0 0 0 127 0" result="hardAlpha"/>
<feOffset/>
<feGaussianBlur stdDeviation="7.36501"/>
<feComposite in2="hardAlpha" operator="out"/>
<feColorMatrix type="matrix" values="0 0 0 0 1 0 0 0 0 1 0 0 0 0 1 0 0 0 0.4 0"/>
<feBlend mode="normal" in2="BackgroundImageFix" result="effect1_dropShadow_10364_51289"/>
<feBlend mode="normal" in="SourceGraphic" in2="effect1_dropShadow_10364_51289" result="shape"/>
</filter>
<filter id="filter1_d_10364_51289" x="64.8461" y="94.7963" width="352.535" height="82.5207" filterUnits="userSpaceOnUse" color-interpolation-filters="sRGB">
<feFlood flood-opacity="0" result="BackgroundImageFix"/>
<feColorMatrix in="SourceAlpha" type="matrix" values="0 0 0 0 0 0 0 0 0 0 0 0 0 0 0 0 0 0 127 0" result="hardAlpha"/>
<feOffset/>
<feGaussianBlur stdDeviation="7.98272"/>
<feComposite in2="hardAlpha" operator="out"/>
<feColorMatrix type="matrix" values="0 0 0 0 0 0 0 0 0 0 0 0 0 0 0 0 0 0 0.35 0"/>
<feBlend mode="normal" in2="BackgroundImageFix" result="effect1_dropShadow_10364_51289"/>
<feBlend mode="normal" in="SourceGraphic" in2="effect1_dropShadow_10364_51289" result="shape"/>
</filter>
<filter id="filter2_d_10364_51289" x="68.9325" y="112.303" width="344.363" height="46.428" filterUnits="userSpaceOnUse" color-interpolation-filters="sRGB">
<feFlood flood-opacity="0" result="BackgroundImageFix"/>
<feColorMatrix in="SourceAlpha" type="matrix" values="0 0 0 0 0 0 0 0 0 0 0 0 0 0 0 0 0 0 127 0" result="hardAlpha"/>
<feOffset/>
<feGaussianBlur stdDeviation="5.93952"/>
<feComposite in2="hardAlpha" operator="out"/>
<feColorMatrix type="matrix" values="0 0 0 0 1 0 0 0 0 1 0 0 0 0 1 0 0 0 0.25 0"/>
<feBlend mode="normal" in2="BackgroundImageFix" result="effect1_dropShadow_10364_51289"/>
<feBlend mode="normal" in="SourceGraphic" in2="effect1_dropShadow_10364_51289" result="shape"/>
</filter>
<filter id="filter3_d_10364_51289" x="64.8461" y="144.453" width="352.535" height="82.5207" filterUnits="userSpaceOnUse" color-interpolation-filters="sRGB">
<feFlood flood-opacity="0" result="BackgroundImageFix"/>
<feColorMatrix in="SourceAlpha" type="matrix" values="0 0 0 0 0 0 0 0 0 0 0 0 0 0 0 0 0 0 127 0" result="hardAlpha"/>
<feOffset/>
<feGaussianBlur stdDeviation="7.98272"/>
<feComposite in2="hardAlpha" operator="out"/>
<feColorMatrix type="matrix" values="0 0 0 0 0 0 0 0 0 0 0 0 0 0 0 0 0 0 0.35 0"/>
<feBlend mode="normal" in2="BackgroundImageFix" result="effect1_dropShadow_10364_51289"/>
<feBlend mode="normal" in="SourceGraphic" in2="effect1_dropShadow_10364_51289" result="shape"/>
</filter>
<filter id="filter4_d_10364_51289" x="68.9325" y="161.959" width="344.363" height="46.428" filterUnits="userSpaceOnUse" color-interpolation-filters="sRGB">
<feFlood flood-opacity="0" result="BackgroundImageFix"/>
<feColorMatrix in="SourceAlpha" type="matrix" values="0 0 0 0 0 0 0 0 0 0 0 0 0 0 0 0 0 0 127 0" result="hardAlpha"/>
<feOffset/>
<feGaussianBlur stdDeviation="5.93952"/>
<feComposite in2="hardAlpha" operator="out"/>
<feColorMatrix type="matrix" values="0 0 0 0 1 0 0 0 0 1 0 0 0 0 1 0 0 0 0.25 0"/>
<feBlend mode="normal" in2="BackgroundImageFix" result="effect1_dropShadow_10364_51289"/>
<feBlend mode="normal" in="SourceGraphic" in2="effect1_dropShadow_10364_51289" result="shape"/>
</filter>
<linearGradient id="paint0_linear_10364_51289" x1="-176.76" y1="154.411" x2="616.761" y2="154.766" gradientUnits="userSpaceOnUse">
<stop stop-color="#191617"/>
<stop offset="1" stop-color="#292929"/>
</linearGradient>
<linearGradient id="paint1_linear_10364_51289" x1="80.8115" y1="85.8579" x2="188.198" y2="85.8579" gradientUnits="userSpaceOnUse">
<stop stop-color="#565656"/>
<stop offset="0.504112" stop-color="#565656"/>
<stop offset="1" stop-color="white"/>
</linearGradient>
<clipPath id="clip0_10364_51289">
<rect width="11.5007" height="11.5007" fill="white" transform="translate(106.725 222.176)"/>
</clipPath>
<clipPath id="clip1_10364_51289">
<rect width="25.9074" height="25.9074" fill="white" transform="translate(37.6323 72.9043)"/>
</clipPath>
<clipPath id="clip2_10364_51289">
<rect width="25.9074" height="25.9074" fill="white" transform="translate(37.6328 69.6699)"/>
</clipPath>
</defs>
</svg>
