<svg width="440" height="248" viewBox="0 0 440 248" fill="none" xmlns="http://www.w3.org/2000/svg">
<rect width="440" height="247.084" transform="translate(0 0.511719)" fill="url(#paint0_linear_10364_51061)"/>
<g opacity="0.3" filter="url(#filter0_df_10364_51061)">
<rect x="63.6719" y="140.053" width="64.0014" height="96.0021" rx="12.0003" stroke="#DDDDDD" stroke-width="1.20003" stroke-linecap="round" stroke-linejoin="round"/>
<rect x="69.272" y="153.654" width="15.2003" height="4.80011" fill="#DDDDDD"/>
<rect x="69.272" y="214.455" width="52.8012" height="4.80011" fill="#DDDDDD"/>
<rect x="69.272" y="172.055" width="23.2005" height="2.40005" fill="#DDDDDD"/>
<rect x="69.272" y="192.855" width="21.6005" height="2.40005" fill="#DDDDDD"/>
<rect x="69.272" y="196.855" width="25.6006" height="2.40005" fill="#DDDDDD"/>
<rect x="69.272" y="176.854" width="26.4006" height="2.40005" fill="#DDDDDD"/>
<rect x="146.874" y="12.0508" width="64.0014" height="96.0021" rx="12.0003" stroke="#DDDDDD" stroke-width="1.20003" stroke-linecap="round" stroke-linejoin="round"/>
<rect x="152.474" y="25.6504" width="15.2003" height="4.80011" fill="#DDDDDD"/>
<rect x="152.474" y="86.4531" width="52.8012" height="4.80011" fill="#DDDDDD"/>
<rect x="152.474" y="44.0508" width="23.2005" height="2.40005" fill="#DDDDDD"/>
<rect x="152.474" y="64.8516" width="21.6005" height="2.40005" fill="#DDDDDD"/>
<rect x="152.474" y="68.8535" width="25.6006" height="2.40005" fill="#DDDDDD"/>
<rect x="152.474" y="48.8516" width="26.4006" height="2.40005" fill="#DDDDDD"/>
<rect x="146.874" y="140.053" width="64.0014" height="96.0021" rx="12.0003" stroke="#DDDDDD" stroke-width="1.20003" stroke-linecap="round" stroke-linejoin="round"/>
<rect x="152.474" y="153.654" width="15.2003" height="4.80011" fill="#DDDDDD"/>
<rect x="152.474" y="214.455" width="52.8012" height="4.80011" fill="#DDDDDD"/>
<rect x="152.474" y="172.055" width="23.2005" height="2.40005" fill="#DDDDDD"/>
<rect x="152.474" y="192.855" width="21.6005" height="2.40005" fill="#DDDDDD"/>
<rect x="152.474" y="196.855" width="25.6006" height="2.40005" fill="#DDDDDD"/>
<rect x="152.474" y="176.854" width="26.4006" height="2.40005" fill="#DDDDDD"/>
<rect x="230.075" y="12.0508" width="64.0014" height="96.0021" rx="12.0003" stroke="#DDDDDD" stroke-width="1.20003" stroke-linecap="round" stroke-linejoin="round"/>
<rect x="235.676" y="25.6504" width="15.2003" height="4.80011" fill="#DDDDDD"/>
<rect x="235.676" y="86.4531" width="52.8012" height="4.80011" fill="#DDDDDD"/>
<rect x="235.676" y="44.0508" width="23.2005" height="2.40005" fill="#DDDDDD"/>
<rect x="235.676" y="64.8516" width="21.6005" height="2.40005" fill="#DDDDDD"/>
<rect x="235.676" y="68.8535" width="25.6006" height="2.40005" fill="#DDDDDD"/>
<rect x="235.676" y="48.8516" width="26.4006" height="2.40005" fill="#DDDDDD"/>
<rect x="230.075" y="140.053" width="64.0014" height="96.0021" rx="12.0003" stroke="#DDDDDD" stroke-width="1.20003" stroke-linecap="round" stroke-linejoin="round"/>
<rect x="235.676" y="153.654" width="15.2003" height="4.80011" fill="#DDDDDD"/>
<rect x="235.676" y="214.455" width="52.8012" height="4.80011" fill="#DDDDDD"/>
<rect x="235.676" y="172.055" width="23.2005" height="2.40005" fill="#DDDDDD"/>
<rect x="235.676" y="192.855" width="21.6005" height="2.40005" fill="#DDDDDD"/>
<rect x="235.676" y="196.855" width="25.6006" height="2.40005" fill="#DDDDDD"/>
<rect x="235.676" y="176.854" width="26.4006" height="2.40005" fill="#DDDDDD"/>
<rect x="313.277" y="12.0508" width="64.0014" height="96.0021" rx="12.0003" stroke="#DDDDDD" stroke-width="1.20003" stroke-linecap="round" stroke-linejoin="round"/>
<rect x="318.877" y="25.6504" width="15.2003" height="4.80011" fill="#DDDDDD"/>
<rect x="318.877" y="86.4531" width="52.8012" height="4.80011" fill="#DDDDDD"/>
<rect x="318.877" y="44.0508" width="23.2005" height="2.40005" fill="#DDDDDD"/>
<rect x="318.877" y="64.8516" width="21.6005" height="2.40005" fill="#DDDDDD"/>
<rect x="318.877" y="68.8535" width="25.6006" height="2.40005" fill="#DDDDDD"/>
<rect x="318.877" y="48.8516" width="26.4006" height="2.40005" fill="#DDDDDD"/>
<rect x="313.277" y="140.053" width="64.0014" height="96.0021" rx="12.0003" stroke="#DDDDDD" stroke-width="1.20003" stroke-linecap="round" stroke-linejoin="round"/>
<rect x="318.877" y="153.654" width="15.2003" height="4.80011" fill="#DDDDDD"/>
<rect x="318.877" y="214.455" width="52.8012" height="4.80011" fill="#DDDDDD"/>
<rect x="318.877" y="172.055" width="23.2005" height="2.40005" fill="#DDDDDD"/>
<rect x="318.877" y="192.855" width="21.6005" height="2.40005" fill="#DDDDDD"/>
<rect x="318.877" y="196.855" width="25.6006" height="2.40005" fill="#DDDDDD"/>
<rect x="318.877" y="176.854" width="26.4006" height="2.40005" fill="#DDDDDD"/>
<rect x="63.6719" y="12.0508" width="64.0014" height="96.0021" rx="12.0003" stroke="#DDDDDD" stroke-width="1.20003" stroke-linecap="round" stroke-linejoin="round"/>
<rect x="69.272" y="25.6504" width="15.2003" height="4.80011" fill="#DDDDDD"/>
<rect x="69.272" y="86.4531" width="52.8012" height="4.80011" fill="#DDDDDD"/>
<rect x="69.272" y="44.0508" width="23.2005" height="2.40005" fill="#DDDDDD"/>
<rect x="69.272" y="64.8516" width="21.6005" height="2.40005" fill="#DDDDDD"/>
<rect x="69.272" y="68.8535" width="25.6006" height="2.40005" fill="#DDDDDD"/>
<rect x="69.272" y="48.8516" width="26.4006" height="2.40005" fill="#DDDDDD"/>
</g>
<g filter="url(#filter1_dd_10364_51061)">
<rect x="142.874" y="32.8516" width="166.404" height="176.004" rx="12.0003" fill="#454545"/>
<rect x="142.208" y="32.1863" width="167.734" height="177.334" rx="12.6655" stroke="#DDDDDD" stroke-width="1.33045"/>
<rect x="160.474" y="174.453" width="59.2013" height="11.2002" fill="white"/>
<rect x="232.476" y="174.453" width="59.2013" height="11.2002" fill="white"/>
<rect x="160.474" y="57.6523" width="38.4008" height="6.40014" fill="white"/>
<rect x="160.474" y="76.0527" width="131.203" height="2.40005" fill="white"/>
<rect x="160.474" y="81.6523" width="123.203" height="2.40005" fill="white"/>
<rect x="160.474" y="87.2539" width="79.2017" height="2.40005" fill="white"/>
<rect x="252.476" y="87.2539" width="39.2009" height="2.40005" fill="white"/>
<rect x="160.474" y="92.8535" width="128.003" height="2.40005" fill="white"/>
<rect x="160.474" y="98.4531" width="116.803" height="2.40005" fill="white"/>
<rect x="160.474" y="104.053" width="120.803" height="2.40005" fill="white"/>
</g>
<defs>
<filter id="filter0_df_10364_51061" x="56.6716" y="5.05103" width="327.606" height="238.003" filterUnits="userSpaceOnUse" color-interpolation-filters="sRGB">
<feFlood flood-opacity="0" result="BackgroundImageFix"/>
<feColorMatrix in="SourceAlpha" type="matrix" values="0 0 0 0 0 0 0 0 0 0 0 0 0 0 0 0 0 0 127 0" result="hardAlpha"/>
<feOffset dy="3.20007"/>
<feGaussianBlur stdDeviation="1.60004"/>
<feComposite in2="hardAlpha" operator="out"/>
<feColorMatrix type="matrix" values="0 0 0 0 0 0 0 0 0 0 0 0 0 0 0 0 0 0 0.25 0"/>
<feBlend mode="normal" in2="BackgroundImageFix" result="effect1_dropShadow_10364_51061"/>
<feBlend mode="normal" in="SourceGraphic" in2="effect1_dropShadow_10364_51061" result="shape"/>
<feGaussianBlur stdDeviation="3.20007" result="effect2_foregroundBlur_10364_51061"/>
</filter>
<filter id="filter1_dd_10364_51061" x="118.545" y="8.52364" width="215.06" height="224.66" filterUnits="userSpaceOnUse" color-interpolation-filters="sRGB">
<feFlood flood-opacity="0" result="BackgroundImageFix"/>
<feColorMatrix in="SourceAlpha" type="matrix" values="0 0 0 0 0 0 0 0 0 0 0 0 0 0 0 0 0 0 127 0" result="hardAlpha"/>
<feOffset dy="3.20007"/>
<feGaussianBlur stdDeviation="1.60004"/>
<feComposite in2="hardAlpha" operator="out"/>
<feColorMatrix type="matrix" values="0 0 0 0 0 0 0 0 0 0 0 0 0 0 0 0 0 0 0.25 0"/>
<feBlend mode="normal" in2="BackgroundImageFix" result="effect1_dropShadow_10364_51061"/>
<feColorMatrix in="SourceAlpha" type="matrix" values="0 0 0 0 0 0 0 0 0 0 0 0 0 0 0 0 0 0 127 0" result="hardAlpha"/>
<feOffset/>
<feGaussianBlur stdDeviation="11.4989"/>
<feComposite in2="hardAlpha" operator="out"/>
<feColorMatrix type="matrix" values="0 0 0 0 1 0 0 0 0 1 0 0 0 0 1 0 0 0 0.15 0"/>
<feBlend mode="normal" in2="effect1_dropShadow_10364_51061" result="effect2_dropShadow_10364_51061"/>
<feBlend mode="normal" in="SourceGraphic" in2="effect2_dropShadow_10364_51061" result="shape"/>
</filter>
<linearGradient id="paint0_linear_10364_51061" x1="-176.76" y1="122.773" x2="616.761" y2="123.219" gradientUnits="userSpaceOnUse">
<stop stop-color="#191617"/>
<stop offset="1" stop-color="#292929"/>
</linearGradient>
</defs>
</svg>
