<svg width="440" height="311" viewBox="0 0 440 311" fill="none" xmlns="http://www.w3.org/2000/svg">
<g clip-path="url(#clip0_10357_50954)">
<rect width="440" height="310.756" fill="white"/>
<g filter="url(#filter0_d_10357_50954)">
<path d="M159.442 167.652C167.481 167.652 173.996 161.163 173.996 153.15C173.996 145.138 167.481 138.648 159.442 138.648C151.411 138.648 144.905 145.138 144.905 153.15C144.905 161.163 151.411 167.652 159.442 167.652Z" fill="#BCBCBC"/>
</g>
<g filter="url(#filter1_d_10357_50954)">
<path d="M122.758 161.566C123.066 162.572 123.633 163.481 124.387 164.213L141.808 180.97V198.846C143.323 198.753 144.871 198.874 146.386 199.339C146.97 199.516 147.496 199.783 148.031 200.029C149.675 197.532 151.977 195.584 154.886 194.7C161.425 192.688 168.921 196.554 170.955 203.213C175.443 217.796 173.969 212.996 177.51 224.524L179.61 226.548C179.496 225.635 179.334 224.742 179.334 223.8C179.334 223.461 179.423 223.142 179.432 222.807L177.073 218.588V180.974L194.495 164.213C195.256 163.482 195.816 162.573 196.123 161.566L202.614 140.466C203.619 137.193 201.771 133.722 198.49 132.716C195.175 131.698 191.732 133.561 190.718 136.83L184.698 156.399L170.096 170.444H148.794L134.184 156.395L128.163 136.829C127.15 133.56 123.714 131.701 120.392 132.716C117.11 133.722 115.263 137.193 116.268 140.465L122.758 161.566Z" fill="#BCBCBC"/>
</g>
<path d="M151.533 227.57L148.324 237.988L152.464 230.597L151.533 227.57Z" fill="#454545"/>
<path d="M126.633 313.215H175.738V284.082H126.625L126.633 313.215Z" fill="#BCBCBC"/>
<path d="M144.346 245.241L131.576 257.525L134.453 274.237C135.077 277.865 138.236 280.424 141.802 280.424C142.223 280.424 142.644 280.391 143.073 280.319C147.134 279.623 149.864 275.773 149.167 271.724L144.564 244.971C144.484 245.051 144.435 245.161 144.346 245.241Z" fill="#BCBCBC"/>
<path d="M100.532 244.648C109.908 244.648 116.916 236.777 116.916 228.299C116.916 219.269 109.583 211.955 100.532 211.955C91.4818 211.955 84.1484 219.269 84.1484 228.299C84.1484 237.435 91.7161 244.648 100.532 244.648Z" fill="#454545"/>
<path d="M120.401 259.646L140.043 240.756C140.902 239.936 141.534 238.909 141.883 237.779L148.284 216.99L146.357 210.73C145.87 209.159 145.716 207.546 145.838 205.958C145.417 205.724 145.043 205.417 144.558 205.267C140.829 204.132 136.932 206.209 135.798 209.898L129.015 231.948L112.549 247.783H87.9964C85.4763 247.783 81.02 249.682 79.8047 253L60.3082 305.653C58.9633 309.274 60.8191 313.295 64.4493 314.632C68.1123 315.978 72.1148 314.103 73.4513 310.494L80.6704 290.994C80.6704 295.159 80.6466 306.991 80.6466 371.169C80.6466 375.804 84.4143 379.557 89.0579 379.557C93.6998 379.557 97.4686 375.804 97.4686 371.169V321.178H103.594V371.169C103.594 375.804 107.362 379.557 112.005 379.557C116.648 379.557 120.416 375.804 120.416 371.169C120.418 290.727 120.401 340.104 120.401 259.646Z" fill="#454545"/>
<path d="M169.717 271.213C169.028 275.237 171.727 279.052 175.738 279.78L175.745 258.476L172.448 255.309L169.717 271.213Z" fill="#BCBCBC"/>
<path d="M293.402 250.31L306.498 219.125C307.932 215.703 306.319 211.771 302.891 210.34C299.472 208.902 295.518 210.518 294.084 213.937L282.399 241.76C282.374 241.777 267.376 252.981 267.294 253.046C266.614 253.046 250.148 253.151 244.856 253.203C240.935 253.257 237.904 253.087 236.081 257.062L227.962 274.797L227.97 307.126L236.73 287.994C236.73 302.529 236.705 326.78 236.705 371.506C236.705 375.955 240.328 379.559 244.784 379.559C249.241 379.559 252.862 375.955 252.862 371.506V323.511H258.755V371.506C258.755 375.955 262.376 379.559 266.833 379.559C271.289 379.559 274.911 375.955 274.911 371.506C274.911 297.142 274.878 315.515 274.878 264.15L293.402 250.31Z" fill="#454545"/>
<path d="M246.452 240.696L243.284 243.747C246.153 247.541 250.674 250.03 255.804 250.03C264.498 250.03 271.54 243.003 271.54 234.34C271.54 225.665 264.498 218.646 255.804 218.646C255.496 218.646 255.204 218.719 254.896 218.739L249.824 235.221C249.176 237.314 248.008 239.202 246.452 240.696Z" fill="#454545"/>
<path d="M184.982 223.802C184.982 233.415 193.078 240.631 201.853 240.631C210.621 240.631 218.724 233.427 218.724 223.802C218.724 214.5 211.18 206.969 201.853 206.969C192.526 206.969 184.982 214.5 184.982 223.802Z" fill="#454545"/>
<path d="M222.314 256.078L242.531 236.631C243.415 235.786 244.063 234.728 244.427 233.56L251.955 209.073C253.122 205.275 250.975 201.246 247.167 200.083C243.334 198.883 239.323 201.057 238.148 204.855L231.17 227.559L214.219 243.867H189.48L172.528 227.559L165.552 204.855C164.376 201.057 160.341 198.882 156.533 200.083C152.724 201.246 150.576 205.275 151.744 209.073L159.272 233.56C159.636 234.728 160.285 235.786 161.168 236.631L181.392 256.087C181.392 330.948 181.369 271.574 181.369 370.922C181.369 375.694 185.251 379.561 190.031 379.561C194.812 379.561 198.693 375.694 198.693 370.922V319.44H205.014V370.922C205.014 375.694 208.895 379.561 213.676 379.561C218.456 379.561 222.338 375.694 222.338 370.922C222.338 288.153 222.314 338.831 222.314 256.078Z" fill="#454545"/>
<g filter="url(#filter2_d_10357_50954)">
<path fill-rule="evenodd" clip-rule="evenodd" d="M400.746 20.9082H190.064V97.6566H205.414L203.608 121.734L235.289 97.6566H287.163L283.367 148.822L349.98 97.6566H400.746V20.9082Z" fill="white" shape-rendering="crispEdges"/>
<path d="M190.064 20.9082V19.7043H188.861V20.9082H190.064ZM400.746 20.9082H401.95V19.7043H400.746V20.9082ZM190.064 97.6566H188.861V98.8605H190.064V97.6566ZM205.414 97.6566L206.615 97.7466L206.712 96.4527H205.414V97.6566ZM203.608 121.734L202.408 121.644L202.208 124.311L204.337 122.693L203.608 121.734ZM235.289 97.6566V96.4527H234.884L234.561 96.6981L235.289 97.6566ZM287.163 97.6566L288.364 97.7457L288.46 96.4527H287.163V97.6566ZM283.367 148.822L282.166 148.733L281.967 151.415L284.1 149.777L283.367 148.822ZM349.98 97.6566V96.4527H349.571L349.247 96.7018L349.98 97.6566ZM400.746 97.6566V98.8605H401.95V97.6566H400.746ZM190.064 22.1121H400.746V19.7043H190.064V22.1121ZM191.268 97.6566V20.9082H188.861V97.6566H191.268ZM205.414 96.4527H190.064V98.8605H205.414V96.4527ZM204.809 121.824L206.615 97.7466L204.214 97.5665L202.408 121.644L204.809 121.824ZM234.561 96.6981L202.88 120.776L204.337 122.693L236.018 98.6151L234.561 96.6981ZM287.163 96.4527H235.289V98.8605H287.163V96.4527ZM284.567 148.911L288.364 97.7457L285.963 97.5675L282.166 148.733L284.567 148.911ZM349.247 96.7018L282.633 147.867L284.1 149.777L350.714 98.6113L349.247 96.7018ZM400.746 96.4527H349.98V98.8605H400.746V96.4527ZM399.542 20.9082V97.6566H401.95V20.9082H399.542Z" fill="#DDDDDD" fill-opacity="0.2"/>
</g>
<path d="M213.816 70.5176L217.626 48.9219H222.316L219.231 66.5195H230.06L229.368 70.5176H213.816ZM240.192 70.8953C238.513 70.8953 237.096 70.6645 235.942 70.2028C234.808 69.7411 233.948 69.038 233.36 68.0936C232.794 67.1282 232.51 65.9109 232.51 64.4418C232.51 63.8752 232.531 63.319 232.573 62.7734C232.636 62.2277 232.72 61.6925 232.825 61.1678C233.119 59.6778 233.633 58.3661 234.368 57.2328C235.102 56.0995 236.078 55.2075 237.295 54.5569C238.513 53.9063 240.003 53.581 241.766 53.581C243.319 53.581 244.62 53.8014 245.669 54.2421C246.74 54.6828 247.537 55.3544 248.062 56.2569C248.607 57.1593 248.88 58.3136 248.88 59.7197C248.88 60.1605 248.849 60.6851 248.786 61.2938C248.723 61.8814 248.607 62.5215 248.439 63.2141H236.949C236.928 63.4449 236.897 63.6758 236.855 63.9067C236.834 64.1165 236.823 64.3159 236.823 64.5048C236.823 65.1974 236.939 65.785 237.169 66.2677C237.4 66.7294 237.757 67.0757 238.24 67.3066C238.743 67.5164 239.373 67.6214 240.129 67.6214C240.653 67.6214 241.125 67.5584 241.545 67.4325C241.965 67.3066 242.332 67.1282 242.647 66.8973C242.983 66.6455 243.256 66.3412 243.466 65.9844C243.696 65.6066 243.843 65.1659 243.906 64.6622H248.188C248.02 65.7115 247.705 66.6245 247.243 67.401C246.802 68.1775 246.225 68.8281 245.512 69.3528C244.819 69.8565 244.022 70.2447 243.119 70.5176C242.217 70.7694 241.241 70.8953 240.192 70.8953ZM237.484 60.4438H244.441C244.483 60.2549 244.504 60.0765 244.504 59.9086C244.525 59.7197 244.536 59.5623 244.536 59.4364C244.536 58.8278 244.431 58.3346 244.221 57.9568C244.011 57.5791 243.696 57.2957 243.277 57.1069C242.878 56.918 242.406 56.8235 241.86 56.8235C241.084 56.8235 240.401 56.9704 239.814 57.2643C239.247 57.5371 238.775 57.9463 238.397 58.492C238.019 59.0167 237.715 59.6673 237.484 60.4438ZM255.554 70.8953C254.63 70.8953 253.896 70.7589 253.35 70.4861C252.804 70.1923 252.406 69.804 252.154 69.3213C251.902 68.8176 251.776 68.2405 251.776 67.5899C251.776 67.401 251.786 67.1911 251.807 66.9603C251.849 66.7294 251.891 66.4461 251.933 66.1103L253.444 57.3272H251.398L251.965 53.9588H254.168L255.837 49.2367H259.237L258.387 53.9588H261.409L260.811 57.3272H257.82L256.372 65.4177C256.351 65.5436 256.32 65.722 256.278 65.9529C256.257 66.1628 256.246 66.3097 256.246 66.3936C256.246 66.7504 256.341 67.0232 256.529 67.2121C256.739 67.401 257.065 67.4954 257.505 67.4954H259.048L258.513 70.3917C258.282 70.4756 257.988 70.5491 257.631 70.612C257.296 70.696 256.939 70.7589 256.561 70.8009C256.204 70.8639 255.868 70.8953 255.554 70.8953ZM263.197 58.555L263.543 56.792C264.047 56.7081 264.498 56.5087 264.897 56.1939C265.317 55.8581 265.663 55.4384 265.936 54.9347C266.209 54.41 266.397 53.8539 266.502 53.2662H264.33L265.117 48.9219H269.493L268.801 52.857C268.591 54.0952 268.213 55.1236 267.667 55.9421C267.122 56.7606 266.46 57.3797 265.684 57.7994C264.907 58.2192 264.078 58.471 263.197 58.555ZM275.213 70.8953C274.122 70.8953 273.125 70.7904 272.223 70.5805C271.341 70.3917 270.575 70.1083 269.924 69.7306C269.295 69.3528 268.812 68.8911 268.476 68.3454C268.162 67.7998 268.004 67.1911 268.004 66.5195C268.004 66.2887 268.025 66.0578 268.067 65.827C268.109 65.5961 268.151 65.4072 268.193 65.2603H272.411C272.369 65.3653 272.338 65.4807 272.317 65.6066C272.296 65.7115 272.286 65.7955 272.286 65.8585C272.286 66.2992 272.422 66.656 272.695 66.9288C272.989 67.2016 273.366 67.401 273.828 67.5269C274.29 67.6528 274.793 67.7158 275.339 67.7158C275.738 67.7158 276.137 67.6843 276.535 67.6214C276.955 67.5584 277.333 67.464 277.669 67.338C278.025 67.1911 278.298 67.0022 278.487 66.7714C278.697 66.5405 278.802 66.2467 278.802 65.8899C278.802 65.5541 278.687 65.2813 278.456 65.0714C278.246 64.8406 277.952 64.6517 277.574 64.5048C277.217 64.3369 276.798 64.19 276.315 64.0641C275.832 63.9171 275.329 63.7807 274.804 63.6548C274.195 63.4869 273.576 63.298 272.947 63.0882C272.338 62.8783 271.782 62.616 271.278 62.3011C270.774 61.9863 270.365 61.5876 270.05 61.1049C269.757 60.6012 269.61 60.0031 269.61 59.3105C269.61 58.3451 269.809 57.5056 270.208 56.792C270.607 56.0785 271.163 55.4804 271.876 54.9977C272.59 54.5149 273.408 54.1582 274.332 53.9273C275.276 53.6755 276.294 53.5495 277.385 53.5495C278.351 53.5495 279.243 53.644 280.061 53.8329C280.88 54.0008 281.593 54.2526 282.202 54.5884C282.811 54.9242 283.283 55.3334 283.619 55.8161C283.954 56.2988 284.122 56.855 284.122 57.4846C284.122 57.7784 284.091 58.0618 284.028 58.3346C283.986 58.5864 283.954 58.7438 283.933 58.8068H279.746C279.767 58.7019 279.778 58.6179 279.778 58.555C279.799 58.471 279.809 58.3976 279.809 58.3346C279.809 57.9988 279.704 57.7155 279.495 57.4846C279.285 57.2328 278.991 57.0544 278.613 56.9494C278.235 56.8235 277.763 56.7606 277.196 56.7606C276.714 56.7606 276.284 56.8025 275.906 56.8865C275.528 56.9494 275.203 57.0544 274.93 57.2013C274.657 57.3482 274.447 57.5266 274.3 57.7365C274.174 57.9463 274.111 58.1667 274.111 58.3976C274.111 58.7753 274.279 59.0796 274.615 59.3105C274.972 59.5204 275.434 59.6988 276 59.8457C276.567 59.9926 277.175 60.171 277.826 60.3808C278.456 60.5487 279.085 60.7376 279.715 60.9475C280.366 61.1364 280.964 61.3882 281.509 61.703C282.055 62.0178 282.485 62.4271 282.8 62.9308C283.136 63.4344 283.304 64.0746 283.304 64.8511C283.304 65.9844 283.083 66.9393 282.643 67.7158C282.223 68.4713 281.635 69.0905 280.88 69.5732C280.124 70.0349 279.264 70.3707 278.298 70.5805C277.333 70.7904 276.305 70.8953 275.213 70.8953ZM297.972 76.4359C296.65 76.4359 295.496 76.2785 294.509 75.9637C293.544 75.6699 292.799 75.2292 292.274 74.6415C291.75 74.0749 291.487 73.3823 291.487 72.5638C291.487 72.4169 291.487 72.228 291.487 71.9972C291.508 71.7873 291.561 71.5355 291.645 71.2416H295.863C295.842 71.3256 295.832 71.3885 295.832 71.4305C295.832 71.4725 295.832 71.525 295.832 71.5879C295.832 71.9237 295.936 72.1965 296.146 72.4064C296.356 72.6163 296.65 72.7632 297.028 72.8471C297.427 72.9521 297.867 73.0045 298.35 73.0045C299.231 73.0045 299.966 72.8471 300.554 72.5323C301.162 72.2175 301.645 71.7558 302.002 71.1472C302.379 70.5386 302.642 69.8145 302.789 68.975C302.831 68.7442 302.862 68.5238 302.883 68.3139C302.925 68.0831 302.967 67.8942 303.009 67.7473H302.789C302.39 68.23 301.928 68.6392 301.404 68.975C300.9 69.3108 300.344 69.5627 299.735 69.7306C299.126 69.8775 298.476 69.9509 297.783 69.9509C296.671 69.9509 295.695 69.7411 294.856 69.3213C294.037 68.8806 293.397 68.2195 292.935 67.338C292.495 66.4356 292.274 65.3023 292.274 63.9381C292.274 63.5814 292.285 63.2036 292.306 62.8048C292.348 62.4061 292.411 61.9758 292.495 61.5141C292.977 58.7858 293.901 56.7816 295.265 55.5013C296.65 54.2211 298.339 53.581 300.333 53.581C301.467 53.581 302.453 53.8014 303.292 54.2421C304.153 54.6619 304.793 55.3125 305.213 56.1939H305.433L306.189 53.9588H309.777L307.196 68.6602C306.86 70.5281 306.304 72.0286 305.528 73.1619C304.751 74.3162 303.733 75.1452 302.474 75.6489C301.236 76.1736 299.735 76.4359 297.972 76.4359ZM299.704 66.3936C300.27 66.3936 300.795 66.2887 301.278 66.0788C301.781 65.8689 302.212 65.5751 302.568 65.1974C302.925 64.7986 303.229 64.3264 303.481 63.7807C303.733 63.2351 303.912 62.6264 304.016 61.9549C304.079 61.6401 304.121 61.3777 304.142 61.1678C304.184 60.937 304.205 60.7376 304.205 60.5697C304.226 60.4018 304.237 60.2339 304.237 60.066C304.237 59.4574 304.132 58.9327 303.922 58.492C303.712 58.0513 303.397 57.726 302.978 57.5161C302.558 57.2852 302.012 57.1698 301.341 57.1698C300.543 57.1698 299.84 57.3272 299.231 57.642C298.644 57.9568 298.161 58.4395 297.783 59.0901C297.406 59.7197 297.143 60.5172 296.996 61.4827C296.933 61.8604 296.881 62.1857 296.839 62.4585C296.797 62.7314 296.765 62.9517 296.744 63.1196C296.744 63.2875 296.744 63.4554 296.744 63.6233C296.744 64.232 296.839 64.7356 297.028 65.1344C297.238 65.5332 297.563 65.848 298.004 66.0788C298.444 66.2887 299.011 66.3936 299.704 66.3936ZM318.763 70.8953C317.147 70.8953 315.782 70.6645 314.67 70.2028C313.579 69.7411 312.75 69.038 312.183 68.0936C311.617 67.1282 311.333 65.9214 311.333 64.4733C311.333 64.0536 311.354 63.6338 311.396 63.2141C311.438 62.7734 311.501 62.3326 311.585 61.8919C311.9 59.9821 312.477 58.4185 313.317 57.2013C314.156 55.9631 315.237 55.0501 316.559 54.4625C317.881 53.8748 319.424 53.581 321.187 53.581C322.824 53.581 324.198 53.8119 325.311 54.2736C326.423 54.7353 327.262 55.4489 327.829 56.4143C328.396 57.3587 328.679 58.5655 328.679 60.0345C328.679 60.6642 328.616 61.2728 328.49 61.8604C328.385 62.4271 328.228 62.9937 328.018 63.5604C327.619 65.2393 327.011 66.6245 326.192 67.7158C325.395 68.7861 324.377 69.5837 323.138 70.1083C321.921 70.633 320.463 70.8953 318.763 70.8953ZM319.077 67.4954C320.022 67.4954 320.809 67.3171 321.439 66.9603C322.089 66.6035 322.614 66.0578 323.013 65.3233C323.411 64.5887 323.705 63.6863 323.894 62.616C323.978 62.1542 324.041 61.7765 324.083 61.4827C324.125 61.1888 324.146 60.9475 324.146 60.7586C324.167 60.5487 324.177 60.3494 324.177 60.1605C324.177 59.4679 324.062 58.8803 323.831 58.3976C323.6 57.9149 323.243 57.5581 322.761 57.3272C322.299 57.0754 321.68 56.9494 320.903 56.9494C319.959 56.9494 319.161 57.1383 318.511 57.5161C317.881 57.8939 317.367 58.45 316.968 59.1846C316.59 59.8981 316.297 60.7901 316.087 61.8604C316.003 62.3221 315.94 62.7104 315.898 63.0252C315.856 63.319 315.824 63.5709 315.803 63.7807C315.782 63.9696 315.772 64.148 315.772 64.3159C315.772 65.0085 315.887 65.5961 316.118 66.0788C316.349 66.5405 316.706 66.8973 317.189 67.1492C317.692 67.38 318.322 67.4954 319.077 67.4954ZM338.069 70.8953C336.453 70.8953 335.089 70.6645 333.977 70.2028C332.885 69.7411 332.056 69.038 331.49 68.0936C330.923 67.1282 330.64 65.9214 330.64 64.4733C330.64 64.0536 330.661 63.6338 330.703 63.2141C330.745 62.7734 330.808 62.3326 330.892 61.8919C331.206 59.9821 331.783 58.4185 332.623 57.2013C333.462 55.9631 334.543 55.0501 335.865 54.4625C337.188 53.8748 338.73 53.581 340.493 53.581C342.13 53.581 343.505 53.8119 344.617 54.2736C345.729 54.7353 346.569 55.4489 347.136 56.4143C347.702 57.3587 347.985 58.5655 347.985 60.0345C347.985 60.6642 347.923 61.2728 347.797 61.8604C347.692 62.4271 347.534 62.9937 347.324 63.5604C346.926 65.2393 346.317 66.6245 345.499 67.7158C344.701 68.7861 343.683 69.5837 342.445 70.1083C341.228 70.633 339.769 70.8953 338.069 70.8953ZM338.384 67.4954C339.328 67.4954 340.115 67.3171 340.745 66.9603C341.396 66.6035 341.92 66.0578 342.319 65.3233C342.718 64.5887 343.012 63.6863 343.2 62.616C343.284 62.1542 343.347 61.7765 343.389 61.4827C343.431 61.1888 343.452 60.9475 343.452 60.7586C343.473 60.5487 343.484 60.3494 343.484 60.1605C343.484 59.4679 343.368 58.8803 343.137 58.3976C342.907 57.9149 342.55 57.5581 342.067 57.3272C341.605 57.0754 340.986 56.9494 340.21 56.9494C339.265 56.9494 338.468 57.1383 337.817 57.5161C337.188 57.8939 336.673 58.45 336.275 59.1846C335.897 59.8981 335.603 60.7901 335.393 61.8604C335.309 62.3221 335.246 62.7104 335.204 63.0252C335.162 63.319 335.131 63.5709 335.11 63.7807C335.089 63.9696 335.078 64.148 335.078 64.3159C335.078 65.0085 335.194 65.5961 335.425 66.0788C335.656 66.5405 336.012 66.8973 336.495 67.1492C336.999 67.38 337.628 67.4954 338.384 67.4954ZM357.376 70.8953C355.76 70.8953 354.395 70.6645 353.283 70.2028C352.192 69.7411 351.363 69.038 350.796 68.0936C350.229 67.1282 349.946 65.9214 349.946 64.4733C349.946 64.0536 349.967 63.6338 350.009 63.2141C350.051 62.7734 350.114 62.3326 350.198 61.8919C350.513 59.9821 351.09 58.4185 351.929 57.2013C352.769 55.9631 353.85 55.0501 355.172 54.4625C356.494 53.8748 358.037 53.581 359.8 53.581C361.437 53.581 362.811 53.8119 363.924 54.2736C365.036 54.7353 365.875 55.4489 366.442 56.4143C367.009 57.3587 367.292 58.5655 367.292 60.0345C367.292 60.6642 367.229 61.2728 367.103 61.8604C366.998 62.4271 366.841 62.9937 366.631 63.5604C366.232 65.2393 365.623 66.6245 364.805 67.7158C364.007 68.7861 362.99 69.5837 361.751 70.1083C360.534 70.633 359.076 70.8953 357.376 70.8953ZM357.69 67.4954C358.635 67.4954 359.422 67.3171 360.051 66.9603C360.702 66.6035 361.227 66.0578 361.625 65.3233C362.024 64.5887 362.318 63.6863 362.507 62.616C362.591 62.1542 362.654 61.7765 362.696 61.4827C362.738 61.1888 362.759 60.9475 362.759 60.7586C362.78 60.5487 362.79 60.3494 362.79 60.1605C362.79 59.4679 362.675 58.8803 362.444 58.3976C362.213 57.9149 361.856 57.5581 361.374 57.3272C360.912 57.0754 360.293 56.9494 359.516 56.9494C358.572 56.9494 357.774 57.1383 357.124 57.5161C356.494 57.8939 355.98 58.45 355.581 59.1846C355.203 59.8981 354.91 60.7901 354.7 61.8604C354.616 62.3221 354.553 62.7104 354.511 63.0252C354.469 63.319 354.437 63.5709 354.416 63.7807C354.395 63.9696 354.385 64.148 354.385 64.3159C354.385 65.0085 354.5 65.5961 354.731 66.0788C354.962 66.5405 355.319 66.8973 355.802 67.1492C356.305 67.38 356.935 67.4954 357.69 67.4954ZM371.33 64.2215L372.936 48.9219H377.815L373.975 64.2215H371.33ZM369.379 70.5176L370.166 66.2362H374.51L373.754 70.5176H369.379Z" fill="#454545"/>
</g>
<defs>
<filter id="filter0_d_10357_50954" x="138.443" y="132.186" width="42.0142" height="41.9283" filterUnits="userSpaceOnUse" color-interpolation-filters="sRGB">
<feFlood flood-opacity="0" result="BackgroundImageFix"/>
<feColorMatrix in="SourceAlpha" type="matrix" values="0 0 0 0 0 0 0 0 0 0 0 0 0 0 0 0 0 0 127 0" result="hardAlpha"/>
<feOffset/>
<feGaussianBlur stdDeviation="3.2311"/>
<feComposite in2="hardAlpha" operator="out"/>
<feColorMatrix type="matrix" values="0 0 0 0 0 0 0 0 0 0 0 0 0 0 0 0 0 0 0.15 0"/>
<feBlend mode="normal" in2="BackgroundImageFix" result="effect1_dropShadow_10357_50954"/>
<feBlend mode="normal" in="SourceGraphic" in2="effect1_dropShadow_10357_50954" result="shape"/>
</filter>
<filter id="filter1_d_10357_50954" x="106.871" y="123.314" width="105.14" height="112.358" filterUnits="userSpaceOnUse" color-interpolation-filters="sRGB">
<feFlood flood-opacity="0" result="BackgroundImageFix"/>
<feColorMatrix in="SourceAlpha" type="matrix" values="0 0 0 0 0 0 0 0 0 0 0 0 0 0 0 0 0 0 127 0" result="hardAlpha"/>
<feOffset/>
<feGaussianBlur stdDeviation="4.56155"/>
<feComposite in2="hardAlpha" operator="out"/>
<feColorMatrix type="matrix" values="0 0 0 0 0 0 0 0 0 0 0 0 0 0 0 0 0 0 0.15 0"/>
<feBlend mode="normal" in2="BackgroundImageFix" result="effect1_dropShadow_10357_50954"/>
<feBlend mode="normal" in="SourceGraphic" in2="effect1_dropShadow_10357_50954" result="shape"/>
</filter>
<filter id="filter2_d_10357_50954" x="172.895" y="3.73964" width="245.021" height="163.64" filterUnits="userSpaceOnUse" color-interpolation-filters="sRGB">
<feFlood flood-opacity="0" result="BackgroundImageFix"/>
<feColorMatrix in="SourceAlpha" type="matrix" values="0 0 0 0 0 0 0 0 0 0 0 0 0 0 0 0 0 0 127 0" result="hardAlpha"/>
<feOffset/>
<feGaussianBlur stdDeviation="7.98272"/>
<feComposite in2="hardAlpha" operator="out"/>
<feColorMatrix type="matrix" values="0 0 0 0 0 0 0 0 0 0 0 0 0 0 0 0 0 0 0.08 0"/>
<feBlend mode="normal" in2="BackgroundImageFix" result="effect1_dropShadow_10357_50954"/>
<feBlend mode="normal" in="SourceGraphic" in2="effect1_dropShadow_10357_50954" result="shape"/>
</filter>
<clipPath id="clip0_10357_50954">
<rect width="440" height="310.756" fill="white"/>
</clipPath>
</defs>
</svg>
