<svg width="440" height="312" viewBox="0 0 440 312" fill="none" xmlns="http://www.w3.org/2000/svg">
<rect width="440" height="310.756" transform="translate(0 0.755859)" fill="white"/>
<path d="M406.739 146.154H33.2612V166.111H406.739V146.154Z" fill="#DDDDDD" fill-opacity="0.3"/>
<path d="M188.164 146.154H33.2612V166.111H188.164V146.154Z" fill="url(#paint0_linear_10357_51007)"/>
<path d="M38.963 178.942C51.5594 178.942 61.7708 168.73 61.7708 156.134C61.7708 143.538 51.5594 133.326 38.963 133.326C26.3667 133.326 16.1553 143.538 16.1553 156.134C16.1553 168.73 26.3667 178.942 38.963 178.942Z" fill="#BCBCBC"/>
<path d="M38.9632 176.091C49.985 176.091 58.92 167.156 58.92 156.135C58.92 145.113 49.985 136.178 38.9632 136.178C27.9413 136.178 19.0063 145.113 19.0063 156.135C19.0063 167.156 27.9413 176.091 38.9632 176.091Z" fill="#454545"/>
<path d="M33.7451 161.834L34.1037 159.826H37.0439L38.3348 152.565H35.3587L35.6276 151.059C35.9384 151.035 36.285 150.976 36.6675 150.88C37.0499 150.784 37.4503 150.671 37.8687 150.539C38.2989 150.396 38.7172 150.241 39.1236 150.073C39.53 149.894 39.9124 149.709 40.271 149.518H41.3646L39.5539 159.826H42.2969L41.9383 161.834H33.7451Z" fill="white"/>
<g filter="url(#filter0_d_10357_51007)">
<path d="M134.471 190.841C153.079 190.841 168.164 175.302 168.164 156.133C168.164 136.965 153.079 121.426 134.471 121.426C115.862 121.426 100.777 136.965 100.777 156.133C100.777 175.302 115.862 190.841 134.471 190.841Z" fill="#BCBCBC"/>
</g>
<path d="M134.471 186.502C150.753 186.502 163.952 172.905 163.952 156.133C163.952 139.36 150.753 125.764 134.471 125.764C118.189 125.764 104.989 139.36 104.989 156.133C104.989 172.905 118.189 186.502 134.471 186.502Z" fill="#454545"/>
<path d="M123.881 167.635L124.128 166.363C124.34 165.161 124.776 164.077 125.437 163.111C126.096 162.122 126.886 161.215 127.805 160.39C128.746 159.565 129.736 158.8 130.773 158.093C131.834 157.363 132.87 156.668 133.883 156.008C134.896 155.324 135.826 154.641 136.674 153.958C137.524 153.251 138.194 152.521 138.689 151.767C139.185 150.989 139.432 150.153 139.432 149.258C139.432 148.669 139.196 148.127 138.725 147.632C138.277 147.114 137.511 146.854 136.427 146.854C135.555 146.854 134.802 147.008 134.165 147.314C133.553 147.597 133.059 148.009 132.682 148.551C132.328 149.069 132.081 149.717 131.939 150.495L131.691 151.767H126.921C127.038 150.165 127.38 148.81 127.946 147.703C128.534 146.572 129.277 145.665 130.173 144.981C131.091 144.275 132.116 143.768 133.246 143.462C134.378 143.132 135.555 142.967 136.781 142.967C138.666 142.967 140.163 143.261 141.269 143.85C142.401 144.416 143.214 145.17 143.708 146.112C144.203 147.031 144.45 148.021 144.45 149.081C144.45 150.235 144.25 151.284 143.849 152.226C143.472 153.169 142.954 154.041 142.294 154.842C141.635 155.643 140.881 156.385 140.033 157.068C139.207 157.728 138.348 158.352 137.452 158.941C136.581 159.507 135.733 160.06 134.907 160.602C134.083 161.121 133.329 161.639 132.646 162.157C132.411 162.322 132.187 162.511 131.975 162.723C131.763 162.911 131.585 163.1 131.444 163.288H142.188L141.41 167.635H123.881Z" fill="white"/>
<path d="M229.978 178.942C242.574 178.942 252.785 168.73 252.785 156.134C252.785 143.538 242.574 133.326 229.978 133.326C217.381 133.326 207.17 143.538 207.17 156.134C207.17 168.73 217.381 178.942 229.978 178.942Z" fill="#DDDDDD"/>
<path d="M229.978 176.091C241 176.091 249.935 167.156 249.935 156.135C249.935 145.113 241 136.178 229.978 136.178C218.956 136.178 210.021 145.113 210.021 156.135C210.021 167.156 218.956 176.091 229.978 176.091Z" fill="#454545"/>
<path d="M229.062 162.051C228.119 162.051 227.323 161.932 226.678 161.693C226.044 161.442 225.566 161.095 225.244 160.653C224.933 160.199 224.777 159.673 224.777 159.075C224.777 158.956 224.784 158.824 224.795 158.681C224.808 158.526 224.837 158.328 224.885 158.089H227.305C227.281 158.269 227.263 158.412 227.252 158.52C227.24 158.615 227.234 158.699 227.234 158.771C227.234 159.213 227.389 159.547 227.7 159.775C228.01 160.002 228.453 160.115 229.026 160.115C229.48 160.115 229.887 160.032 230.246 159.864C230.605 159.697 230.891 159.446 231.107 159.111C231.321 158.777 231.429 158.358 231.429 157.856C231.429 157.51 231.345 157.241 231.178 157.049C231.023 156.858 230.807 156.727 230.533 156.655C230.269 156.571 229.983 156.53 229.672 156.53H228.579L228.919 154.629H229.977C230.252 154.629 230.514 154.587 230.765 154.504C231.016 154.42 231.243 154.288 231.447 154.109C231.65 153.93 231.812 153.709 231.931 153.446C232.05 153.183 232.11 152.872 232.11 152.514C232.11 152.239 232.044 152.012 231.913 151.832C231.781 151.641 231.603 151.498 231.375 151.402C231.16 151.306 230.897 151.259 230.587 151.259C230.192 151.259 229.845 151.324 229.546 151.456C229.26 151.587 229.021 151.772 228.83 152.012C228.65 152.251 228.53 152.537 228.471 152.872L228.435 153.141H226.051L226.122 152.747C226.254 152.053 226.529 151.45 226.947 150.936C227.365 150.422 227.903 150.027 228.561 149.753C229.218 149.466 229.953 149.322 230.765 149.322C231.579 149.322 232.277 149.436 232.864 149.663C233.449 149.89 233.898 150.219 234.208 150.649C234.531 151.079 234.692 151.599 234.692 152.209C234.692 152.782 234.578 153.284 234.351 153.715C234.136 154.133 233.838 154.486 233.455 154.773C233.084 155.047 232.672 155.269 232.217 155.436L232.2 155.508C232.726 155.687 233.144 155.992 233.455 156.422C233.778 156.84 233.939 157.372 233.939 158.018C233.939 158.866 233.718 159.589 233.276 160.187C232.846 160.785 232.259 161.245 231.519 161.567C230.778 161.89 229.959 162.051 229.062 162.051Z" fill="white"/>
<path d="M315.507 178.942C328.103 178.942 338.315 168.73 338.315 156.134C338.315 143.538 328.103 133.326 315.507 133.326C302.911 133.326 292.699 143.538 292.699 156.134C292.699 168.73 302.911 178.942 315.507 178.942Z" fill="#DDDDDD"/>
<path d="M315.508 176.091C326.529 176.091 335.464 167.156 335.464 156.135C335.464 145.113 326.529 136.178 315.508 136.178C304.486 136.178 295.551 145.113 295.551 156.135C295.551 167.156 304.486 176.091 315.508 176.091Z" fill="#454545"/>
<path d="M315.112 161.836L315.597 159.147H310.074L310.397 157.157C310.983 156.416 311.539 155.633 312.064 154.808C312.602 153.984 313.111 153.111 313.589 152.191C314.078 151.271 314.539 150.314 314.968 149.322H317.676C317.449 149.896 317.156 150.5 316.798 151.133C316.451 151.766 316.08 152.394 315.686 153.016C315.303 153.637 314.909 154.223 314.503 154.773C314.108 155.31 313.738 155.788 313.391 156.207C313.056 156.625 312.775 156.942 312.548 157.157H315.937L316.439 154.306C316.594 154.079 316.762 153.828 316.94 153.553C317.12 153.267 317.294 152.98 317.461 152.693C317.628 152.394 317.783 152.101 317.927 151.814C318.083 151.516 318.214 151.247 318.321 151.008H319.469L318.393 157.157H319.953L319.612 159.147H318.052L317.55 161.836H315.112Z" fill="white"/>
<path d="M401.038 178.942C413.635 178.942 423.846 168.73 423.846 156.134C423.846 143.538 413.635 133.326 401.038 133.326C388.442 133.326 378.23 143.538 378.23 156.134C378.23 168.73 388.442 178.942 401.038 178.942Z" fill="#DDDDDD"/>
<path d="M401.037 176.091C412.059 176.091 420.994 167.156 420.994 156.135C420.994 145.113 412.059 136.178 401.037 136.178C390.015 136.178 381.08 145.113 381.08 156.135C381.08 167.156 390.015 176.091 401.037 176.091Z" fill="#454545"/>
<path d="M396.997 149.353L397.094 149.438L405.831 158.174C405.945 158.288 406.032 158.428 406.082 158.582C406.133 158.736 406.146 158.899 406.121 159.059C406.097 159.219 406.034 159.371 405.94 159.503C405.846 159.634 405.721 159.741 405.578 159.816L405.458 159.867L394.767 163.807C392.757 164.549 390.8 162.66 391.41 160.653L391.463 160.503L395.401 149.811C395.453 149.67 395.536 149.541 395.643 149.435C395.75 149.329 395.88 149.247 396.021 149.197C396.164 149.146 396.315 149.127 396.465 149.142C396.615 149.156 396.761 149.203 396.891 149.28L396.997 149.353ZM406.294 153.825C407.232 153.875 408.518 154.072 409.637 154.744C409.863 154.878 410.029 155.094 410.101 155.348C410.173 155.601 410.146 155.872 410.023 156.106C409.902 156.34 409.695 156.517 409.446 156.603C409.197 156.688 408.924 156.675 408.684 156.566L408.577 156.509C407.875 156.087 406.977 155.922 406.186 155.881C405.861 155.863 405.534 155.865 405.208 155.885L404.883 155.917C404.614 155.952 404.343 155.879 404.127 155.715C403.912 155.551 403.77 155.309 403.732 155.041C403.694 154.773 403.763 154.5 403.924 154.283C404.086 154.065 404.326 153.92 404.593 153.879C405.158 153.806 405.727 153.788 406.294 153.824M408.379 150.956C408.642 150.957 408.893 151.057 409.084 151.237C409.274 151.418 409.389 151.664 409.405 151.926C409.42 152.188 409.334 152.445 409.166 152.647C408.998 152.848 408.759 152.977 408.499 153.008L408.379 153.015H407.65C407.388 153.014 407.135 152.914 406.945 152.734C406.754 152.553 406.64 152.307 406.625 152.045C406.61 151.783 406.694 151.526 406.863 151.325C407.032 151.123 407.27 150.994 407.531 150.963L407.65 150.956H408.379ZM405.103 150.166C405.28 150.344 405.387 150.579 405.403 150.83C405.418 151.08 405.342 151.327 405.189 151.525L405.103 151.622L404.011 152.714C403.825 152.899 403.577 153.006 403.316 153.014C403.055 153.022 402.8 152.93 402.603 152.757C402.407 152.584 402.284 152.343 402.259 152.083C402.234 151.822 402.31 151.562 402.47 151.355L402.555 151.259L403.647 150.167C403.742 150.072 403.856 149.996 403.98 149.944C404.106 149.892 404.24 149.865 404.375 149.865C404.51 149.865 404.644 149.892 404.769 149.944C404.894 149.996 405.008 150.071 405.103 150.166ZM402.44 144.746C402.901 146.132 402.654 147.649 402.366 148.71C402.194 149.371 401.955 150.013 401.656 150.628C401.533 150.872 401.319 151.058 401.061 151.145C400.801 151.231 400.519 151.211 400.274 151.089C400.03 150.967 399.844 150.753 399.757 150.494C399.67 150.235 399.69 149.953 399.812 149.708C400.053 149.215 400.242 148.699 400.378 148.168C400.612 147.311 400.73 146.382 400.55 145.62L400.487 145.398C400.442 145.269 400.423 145.132 400.432 144.996C400.439 144.86 400.474 144.727 400.535 144.605C400.595 144.482 400.679 144.373 400.781 144.284C400.884 144.194 401.004 144.125 401.133 144.082C401.262 144.039 401.399 144.022 401.535 144.032C401.671 144.042 401.804 144.079 401.926 144.141C402.047 144.203 402.155 144.288 402.243 144.392C402.331 144.496 402.399 144.616 402.44 144.746ZM408.014 147.256C408.207 147.449 408.317 147.711 408.317 147.984C408.317 148.257 408.207 148.519 408.014 148.712L407.286 149.44C407.192 149.538 407.078 149.616 406.953 149.67C406.827 149.724 406.692 149.753 406.556 149.754C406.419 149.755 406.283 149.729 406.156 149.677C406.03 149.625 405.915 149.549 405.818 149.452C405.722 149.356 405.645 149.241 405.594 149.114C405.542 148.988 405.516 148.852 405.517 148.715C405.518 148.579 405.546 148.444 405.601 148.318C405.655 148.192 405.733 148.079 405.831 147.984L406.559 147.256C406.752 147.063 407.014 146.954 407.286 146.954C407.56 146.954 407.821 147.063 408.014 147.256Z" fill="white"/>
<path d="M406.785 128.006H406.694V125.114C406.694 123.219 405.158 121.684 403.264 121.684H398.81C396.915 121.684 395.38 123.219 395.38 125.114V128.006H395.289C394.347 128.006 393.584 128.769 393.584 129.712V136.609C393.584 137.551 394.347 138.314 395.289 138.314H406.785C407.727 138.314 408.49 137.551 408.49 136.609V129.712C408.49 128.769 407.727 128.006 406.785 128.006ZM398.935 128.006V125.238H403.139V128.006H398.935ZM404.936 134.76H397.138V131.561H404.936V134.76Z" fill="#454545" stroke="#DDDDDD" stroke-width="1.42549"/>
<path d="M396.008 135.89H406.067V130.43H396.008V135.89ZM401.037 131.831C401.22 131.831 401.398 131.889 401.545 131.996C401.693 132.104 401.802 132.255 401.858 132.429C401.913 132.603 401.913 132.79 401.856 132.963C401.799 133.136 401.689 133.287 401.541 133.393V134.345C401.541 134.424 401.475 134.489 401.397 134.489H400.678C400.599 134.489 400.534 134.424 400.534 134.345V133.393C400.386 133.287 400.276 133.136 400.219 132.963C400.161 132.79 400.161 132.603 400.216 132.429C400.272 132.255 400.382 132.104 400.53 131.996C400.677 131.889 400.855 131.831 401.037 131.831Z" fill="#454545"/>
<path d="M400.383 133.463V134.701C400.383 134.804 400.467 134.888 400.57 134.888H401.503C401.606 134.888 401.69 134.804 401.69 134.701V133.463C401.883 133.325 402.026 133.129 402.101 132.904C402.175 132.678 402.176 132.435 402.103 132.209C402.031 131.983 401.888 131.786 401.697 131.647C401.505 131.507 401.274 131.432 401.036 131.432C400.799 131.432 400.568 131.507 400.376 131.647C400.184 131.786 400.042 131.983 399.969 132.209C399.896 132.435 399.897 132.678 399.972 132.904C400.046 133.129 400.189 133.325 400.383 133.463Z" fill="#DDDDDD"/>
<defs>
<filter id="filter0_d_10357_51007" x="77.1143" y="97.7627" width="114.713" height="116.74" filterUnits="userSpaceOnUse" color-interpolation-filters="sRGB">
<feFlood flood-opacity="0" result="BackgroundImageFix"/>
<feColorMatrix in="SourceAlpha" type="matrix" values="0 0 0 0 0 0 0 0 0 0 0 0 0 0 0 0 0 0 127 0" result="hardAlpha"/>
<feOffset/>
<feGaussianBlur stdDeviation="11.8315"/>
<feComposite in2="hardAlpha" operator="out"/>
<feColorMatrix type="matrix" values="0 0 0 0 0 0 0 0 0 0 0 0 0 0 0 0 0 0 0.45 0"/>
<feBlend mode="normal" in2="BackgroundImageFix" result="effect1_dropShadow_10357_51007"/>
<feBlend mode="normal" in="SourceGraphic" in2="effect1_dropShadow_10357_51007" result="shape"/>
</filter>
<linearGradient id="paint0_linear_10357_51007" x1="33.2612" y1="156.133" x2="188.164" y2="156.133" gradientUnits="userSpaceOnUse">
<stop stop-color="#565656"/>
<stop offset="0.67832" stop-color="#565656"/>
<stop offset="1" stop-color="#F5F5F5"/>
</linearGradient>
</defs>
</svg>
