<svg width="36" height="36" viewBox="0 0 36 36" fill="none" xmlns="http://www.w3.org/2000/svg">
<rect width="36" height="36" rx="4.5" fill="#FBFBFB"/>
<path d="M27.1076 16.3049L19.1323 8.32962C18.9806 8.1844 18.8017 8.07057 18.6059 7.99465C18.2176 7.83512 17.782 7.83512 17.3936 7.99465C17.1979 8.07057 17.019 8.1844 16.8673 8.32962L8.89195 16.3049C8.74323 16.4537 8.62525 16.6302 8.54477 16.8245C8.46428 17.0189 8.42285 17.2271 8.42285 17.4374C8.42285 17.8622 8.59159 18.2696 8.89195 18.5699C9.1923 18.8703 9.59968 19.039 10.0244 19.039C10.4492 19.039 10.8566 18.8703 11.1569 18.5699L13.7867 15.9322C14.6076 15.1087 15.0181 14.697 15.3706 14.6689C15.6765 14.6445 15.9755 14.7681 16.1749 15.0013C16.4047 15.2701 16.4047 15.8515 16.4047 17.0143V25.4128C16.4047 25.8358 16.5728 26.2415 16.8719 26.5407C17.171 26.8398 17.5767 27.0078 17.9998 27.0078C18.4228 27.0078 18.8285 26.8398 19.1277 26.5407C19.4268 26.2415 19.5948 25.8358 19.5948 25.4128V17.0143C19.5948 15.8515 19.5948 15.2701 19.8246 15.0013C20.024 14.7681 20.323 14.6445 20.6289 14.6689C20.9814 14.697 21.3919 15.1087 22.2129 15.9322L24.8426 18.5699C24.9909 18.7194 25.1673 18.8381 25.3617 18.9191C25.556 19.0001 25.7645 19.0418 25.9751 19.0418C26.1857 19.0418 26.3942 19.0001 26.5885 18.9191C26.7829 18.8381 26.9593 18.7194 27.1076 18.5699C27.2571 18.4217 27.3758 18.2452 27.4567 18.0509C27.5377 17.8565 27.5794 17.648 27.5794 17.4374C27.5794 17.2269 27.5377 17.0184 27.4567 16.824C27.3758 16.6296 27.2571 16.4532 27.1076 16.3049Z" fill="#6B6B6B"/>
</svg>
