<svg width="440" height="343" viewBox="0 0 440 343" fill="none" xmlns="http://www.w3.org/2000/svg">
<rect width="440" height="342.117" transform="translate(0 0.0117188)" fill="white"/>
<g filter="url(#filter0_d_10387_51940)">
<rect width="173.56" height="65.6184" transform="translate(42.7646 122.65)" fill="#454545"/>
<path d="M57.3078 164.959V144.794H65.5384C67.6353 144.794 69.4186 145.156 70.8883 145.882C72.3581 146.607 73.4849 147.714 74.2688 149.203C75.0722 150.673 75.474 152.564 75.474 154.876C75.474 157.169 75.0722 159.06 74.2688 160.55C73.4849 162.039 72.3581 163.146 70.8883 163.871C69.4186 164.596 67.6353 164.959 65.5384 164.959H57.3078ZM61.6876 161.343H65.509C66.3909 161.343 67.1747 161.216 67.8606 160.961C68.5465 160.706 69.1148 160.334 69.5655 159.844C70.0163 159.335 70.3592 158.708 70.5944 157.963C70.8295 157.199 70.9471 156.317 70.9471 155.317V154.436C70.9471 153.436 70.8295 152.564 70.5944 151.819C70.3592 151.055 70.0163 150.428 69.5655 149.938C69.1148 149.429 68.5465 149.046 67.8606 148.792C67.1747 148.517 66.3909 148.38 65.509 148.38H61.6876V161.343ZM78.6856 147.234V143.706H82.7715V147.234H78.6856ZM78.6856 164.959V149.497H82.7715V164.959H78.6856ZM87.2279 164.959V152.642H85.0233V149.497H87.2279V147.792C87.2279 146.95 87.3651 146.205 87.6394 145.558C87.9334 144.892 88.3939 144.373 89.021 144C89.6481 143.628 90.481 143.442 91.5196 143.442C91.8135 143.442 92.1173 143.461 92.4308 143.501C92.764 143.54 93.0775 143.599 93.3715 143.677C93.685 143.736 93.9496 143.804 94.1652 143.883V146.587H92.6954C92.2251 146.587 91.8723 146.705 91.6372 146.94C91.4216 147.175 91.3138 147.518 91.3138 147.969V149.497H96.0758V147.792C96.0758 146.95 96.213 146.205 96.4874 145.558C96.7813 144.892 97.2419 144.373 97.8689 144C98.496 143.628 99.3387 143.442 100.397 143.442C100.671 143.442 100.965 143.461 101.279 143.501C101.612 143.54 101.925 143.599 102.219 143.677C102.513 143.736 102.768 143.804 102.984 143.883V146.587H101.543C101.053 146.587 100.691 146.705 100.456 146.94C100.24 147.175 100.132 147.518 100.132 147.969V149.497H102.984V152.642H100.132V164.959H96.0758V152.642H91.3138V164.959H87.2279ZM104.894 147.234V143.706H108.98V147.234H104.894ZM104.894 164.959V149.497H108.98V164.959H104.894ZM119.521 165.312C117.875 165.312 116.494 165.028 115.377 164.459C114.26 163.871 113.407 162.98 112.819 161.784C112.251 160.569 111.967 159.051 111.967 157.228C111.967 155.366 112.251 153.848 112.819 152.672C113.407 151.476 114.26 150.585 115.377 149.997C116.513 149.409 117.895 149.115 119.521 149.115C120.58 149.115 121.53 149.242 122.373 149.497C123.235 149.752 123.98 150.144 124.607 150.673C125.234 151.202 125.704 151.859 126.018 152.642C126.351 153.407 126.518 154.318 126.518 155.376H122.432C122.432 154.671 122.324 154.093 122.108 153.642C121.893 153.191 121.56 152.848 121.109 152.613C120.678 152.378 120.129 152.26 119.463 152.26C118.679 152.26 118.042 152.437 117.552 152.789C117.062 153.142 116.7 153.661 116.464 154.347C116.229 155.033 116.112 155.886 116.112 156.905V157.581C116.112 158.58 116.229 159.423 116.464 160.109C116.719 160.795 117.101 161.314 117.611 161.667C118.12 162 118.787 162.166 119.61 162.166C120.276 162.166 120.825 162.049 121.256 161.814C121.707 161.579 122.049 161.226 122.285 160.755C122.52 160.285 122.637 159.717 122.637 159.051H126.518C126.518 160.05 126.351 160.942 126.018 161.726C125.704 162.509 125.234 163.166 124.607 163.695C123.999 164.224 123.264 164.626 122.402 164.9C121.54 165.175 120.58 165.312 119.521 165.312ZM134.579 165.312C133.011 165.312 131.767 164.881 130.846 164.018C129.925 163.156 129.464 161.765 129.464 159.844V149.497H133.55V159.168C133.55 159.678 133.609 160.109 133.726 160.462C133.844 160.795 134.011 161.069 134.226 161.285C134.461 161.5 134.745 161.657 135.079 161.755C135.412 161.853 135.784 161.902 136.196 161.902C136.803 161.902 137.352 161.755 137.842 161.461C138.332 161.167 138.714 160.765 138.988 160.256C139.263 159.727 139.4 159.139 139.4 158.492V149.497H143.486V164.959H140.135L139.841 162.843H139.635C139.263 163.332 138.822 163.764 138.312 164.136C137.822 164.508 137.264 164.792 136.637 164.988C136.009 165.204 135.324 165.312 134.579 165.312ZM147.236 164.959V143.706H151.322V164.959H147.236ZM159.688 165.312C158.708 165.312 157.914 165.135 157.307 164.783C156.699 164.43 156.258 163.96 155.984 163.372C155.71 162.764 155.573 162.098 155.573 161.373V152.642H153.662V149.497H155.72L156.484 145.088H159.658V149.497H162.48V152.642H159.658V160.697C159.658 161.167 159.766 161.53 159.982 161.784C160.197 162.019 160.55 162.137 161.04 162.137H162.48V164.841C162.245 164.92 161.971 164.988 161.657 165.047C161.344 165.126 161.011 165.184 160.658 165.224C160.305 165.282 159.982 165.312 159.688 165.312ZM167.354 170.485C166.629 170.485 166.021 170.426 165.532 170.309C165.061 170.211 164.757 170.142 164.62 170.103V167.34H166.413C166.903 167.34 167.344 167.222 167.736 166.987C168.128 166.772 168.471 166.478 168.765 166.105C169.059 165.753 169.275 165.371 169.412 164.959L163.356 149.497H167.677L170.323 156.64C170.441 156.973 170.568 157.395 170.705 157.904C170.862 158.394 171.019 158.913 171.175 159.462C171.332 159.991 171.46 160.462 171.558 160.873H171.705C171.783 160.599 171.871 160.275 171.969 159.903C172.067 159.531 172.165 159.149 172.263 158.757C172.381 158.365 172.488 157.992 172.586 157.64C172.704 157.267 172.802 156.944 172.88 156.67L175.085 149.497H179.2L173.939 164.224C173.645 165.086 173.302 165.89 172.91 166.635C172.537 167.399 172.096 168.065 171.587 168.633C171.077 169.221 170.47 169.672 169.764 169.986C169.079 170.319 168.275 170.485 167.354 170.485ZM187.671 164.959V161.549L198.694 157.316L187.671 153.083V149.644L201.928 155.464V159.168L187.671 164.959Z" fill="white"/>
</g>
<rect width="152.634" height="196.855" transform="translate(226.172 57.0312)" fill="white"/>
<rect x="227.157" y="58.016" width="150.665" height="63.649" stroke="#DDDDDD" stroke-opacity="0.4" stroke-width="1.96948"/>
<path d="M240.715 99.3398V79.1748H252.238C253.297 79.1748 254.247 79.3805 255.09 79.7921C255.952 80.2036 256.628 80.7817 257.118 81.5264C257.608 82.2711 257.853 83.1431 257.853 84.1425C257.853 84.946 257.706 85.6613 257.412 86.2884C257.118 86.9155 256.716 87.4348 256.207 87.8463C255.717 88.2579 255.158 88.5616 254.531 88.7576V88.8752C255.276 89.0319 255.932 89.3259 256.501 89.757C257.089 90.1882 257.549 90.7467 257.882 91.4325C258.235 92.0988 258.411 92.8925 258.411 93.8136C258.411 95.0286 258.127 96.0476 257.559 96.8707C257.01 97.6937 256.275 98.311 255.354 98.7225C254.433 99.1341 253.404 99.3398 252.268 99.3398H240.715ZM245.095 95.7536H251.415C252.14 95.7536 252.728 95.5479 253.179 95.1363C253.649 94.7248 253.885 94.0879 253.885 93.2257C253.885 92.7161 253.787 92.2752 253.591 91.9029C253.395 91.5305 253.101 91.2464 252.709 91.0504C252.317 90.8348 251.817 90.7271 251.21 90.7271H245.095V95.7536ZM245.095 87.3172H250.916C251.445 87.3172 251.886 87.2192 252.238 87.0233C252.611 86.8077 252.885 86.5334 253.061 86.2002C253.257 85.8475 253.355 85.4457 253.355 84.995C253.355 84.2307 253.14 83.6526 252.709 83.2607C252.297 82.8688 251.748 82.6728 251.063 82.6728H245.095V87.3172ZM268.602 99.6926C266.897 99.6926 265.467 99.4084 264.31 98.8401C263.154 98.2522 262.282 97.3606 261.694 96.1652C261.106 94.9698 260.812 93.451 260.812 91.6089C260.812 89.7472 261.106 88.2285 261.694 87.0527C262.282 85.8573 263.144 84.9754 264.281 84.4071C265.437 83.8192 266.848 83.5252 268.514 83.5252C270.082 83.5252 271.404 83.8094 272.482 84.3777C273.56 84.9264 274.373 85.7887 274.922 86.9645C275.471 88.1207 275.745 89.6198 275.745 91.4619V92.5202H264.957C264.996 93.4216 265.133 94.1859 265.369 94.813C265.623 95.4401 266.005 95.9104 266.515 96.224C267.044 96.5179 267.74 96.6649 268.602 96.6649C269.072 96.6649 269.494 96.6061 269.866 96.4885C270.258 96.3709 270.591 96.1946 270.865 95.9594C271.14 95.7242 271.355 95.4303 271.512 95.0775C271.669 94.7248 271.747 94.3231 271.747 93.8723H275.745C275.745 94.8522 275.569 95.7046 275.216 96.4297C274.863 97.1548 274.373 97.7623 273.746 98.2522C273.119 98.7225 272.365 99.0851 271.483 99.3398C270.621 99.575 269.66 99.6926 268.602 99.6926ZM265.016 89.9334H271.542C271.542 89.3455 271.463 88.836 271.306 88.4048C271.169 87.9737 270.973 87.621 270.719 87.3466C270.464 87.0723 270.15 86.8763 269.778 86.7587C269.425 86.6215 269.023 86.5529 268.573 86.5529C267.828 86.5529 267.201 86.6803 266.691 86.9351C266.201 87.1702 265.819 87.5426 265.545 88.0521C265.29 88.542 265.114 89.1691 265.016 89.9334ZM281.271 104.866C280.585 104.866 279.938 104.719 279.331 104.425C278.723 104.151 278.233 103.739 277.861 103.191C277.489 102.642 277.303 101.985 277.303 101.221C277.303 100.359 277.548 99.673 278.037 99.1635C278.547 98.6344 279.115 98.2424 279.742 97.9877C279.292 97.7329 278.919 97.3998 278.625 96.9882C278.351 96.5767 278.214 96.0966 278.214 95.5479C278.214 94.7836 278.488 94.1663 279.037 93.696C279.605 93.2061 280.252 92.8925 280.977 92.7553C280.252 92.3046 279.684 91.7363 279.272 91.0504C278.88 90.3449 278.684 89.5611 278.684 88.6988C278.684 87.5818 278.959 86.6411 279.507 85.8769C280.076 85.1126 280.879 84.5345 281.918 84.1425C282.976 83.731 284.22 83.5252 285.651 83.5252C286.219 83.5252 286.748 83.5546 287.238 83.6134C287.748 83.6722 288.208 83.7702 288.62 83.9074C289.345 83.4763 289.835 83.0059 290.089 82.4964C290.364 81.9673 290.511 81.546 290.53 81.2324H294.322C294.322 81.9575 294.185 82.5846 293.911 83.1137C293.656 83.6428 293.284 84.0838 292.794 84.4365C292.304 84.7696 291.716 85.0146 291.03 85.1714C291.54 85.6025 291.932 86.1218 292.206 86.7293C292.48 87.3368 292.617 87.9933 292.617 88.6988C292.617 89.7962 292.353 90.7369 291.824 91.5207C291.295 92.285 290.54 92.8729 289.56 93.2844C288.6 93.696 287.444 93.9017 286.092 93.9017H283.74C283.27 93.9017 282.917 93.9899 282.682 94.1663C282.447 94.3231 282.329 94.5582 282.329 94.8718C282.329 95.1265 282.427 95.3519 282.623 95.5479C282.839 95.7242 283.182 95.8124 283.652 95.8124H290.089C291.383 95.8124 292.412 96.2142 293.176 97.0176C293.96 97.8015 294.352 98.8107 294.352 100.045C294.352 100.986 294.107 101.819 293.617 102.544C293.127 103.269 292.451 103.837 291.589 104.249C290.726 104.66 289.737 104.866 288.62 104.866H281.271ZM282.976 102.132H288.414C288.767 102.132 289.08 102.064 289.355 101.927C289.629 101.809 289.845 101.633 290.001 101.398C290.158 101.182 290.236 100.927 290.236 100.633C290.236 100.124 290.08 99.7416 289.766 99.4868C289.453 99.2321 289.061 99.1047 288.59 99.1047H282.976C282.506 99.1047 282.114 99.2419 281.8 99.5162C281.506 99.7906 281.359 100.153 281.359 100.604C281.359 101.055 281.506 101.417 281.8 101.691C282.114 101.985 282.506 102.132 282.976 102.132ZM285.651 91.2562C286.611 91.2562 287.336 91.0406 287.826 90.6095C288.336 90.1588 288.59 89.5219 288.59 88.6988C288.59 87.8757 288.336 87.2486 287.826 86.8175C287.336 86.3668 286.611 86.1414 285.651 86.1414C284.71 86.1414 283.985 86.3668 283.476 86.8175C282.986 87.2486 282.741 87.8757 282.741 88.6988C282.741 89.2279 282.848 89.6884 283.064 90.0804C283.28 90.4723 283.603 90.7663 284.034 90.9622C284.465 91.1582 285.004 91.2562 285.651 91.2562ZM296.598 81.6146V78.0871H300.684V81.6146H296.598ZM296.598 99.3398V83.878H300.684V99.3398H296.598ZM304.435 99.3398V83.878H307.815L308.139 85.9944H308.345C308.697 85.4849 309.119 85.044 309.609 84.6717C310.118 84.2993 310.686 84.0152 311.313 83.8192C311.941 83.6232 312.626 83.5252 313.371 83.5252C314.39 83.5252 315.282 83.7114 316.046 84.0838C316.81 84.4561 317.398 85.044 317.81 85.8475C318.241 86.6509 318.456 87.6994 318.456 88.9927V99.3398H314.371V89.6394C314.371 89.1495 314.312 88.738 314.194 88.4048C314.077 88.0521 313.9 87.7679 313.665 87.5524C313.45 87.3172 313.175 87.1507 312.842 87.0527C312.509 86.9547 312.137 86.9057 311.725 86.9057C311.117 86.9057 310.569 87.0527 310.079 87.3466C309.589 87.6406 309.207 88.0423 308.932 88.5518C308.658 89.0613 308.521 89.6492 308.521 90.3155V99.3398H304.435ZM322.118 99.3398V83.878H325.498L325.822 85.9944H326.028C326.38 85.4849 326.802 85.044 327.292 84.6717C327.801 84.2993 328.369 84.0152 328.996 83.8192C329.624 83.6232 330.309 83.5252 331.054 83.5252C332.073 83.5252 332.965 83.7114 333.729 84.0838C334.493 84.4561 335.081 85.044 335.493 85.8475C335.924 86.6509 336.14 87.6994 336.14 88.9927V99.3398H332.054V89.6394C332.054 89.1495 331.995 88.738 331.877 88.4048C331.76 88.0521 331.583 87.7679 331.348 87.5524C331.133 87.3172 330.858 87.1507 330.525 87.0527C330.192 86.9547 329.82 86.9057 329.408 86.9057C328.801 86.9057 328.252 87.0527 327.762 87.3466C327.272 87.6406 326.89 88.0423 326.615 88.5518C326.341 89.0613 326.204 89.6492 326.204 90.3155V99.3398H322.118ZM346.826 99.6926C345.122 99.6926 343.691 99.4084 342.535 98.8401C341.379 98.2522 340.507 97.3606 339.919 96.1652C339.331 94.9698 339.037 93.451 339.037 91.6089C339.037 89.7472 339.331 88.2285 339.919 87.0527C340.507 85.8573 341.369 84.9754 342.505 84.4071C343.662 83.8192 345.073 83.5252 346.738 83.5252C348.306 83.5252 349.629 83.8094 350.707 84.3777C351.784 84.9264 352.598 85.7887 353.146 86.9645C353.695 88.1207 353.97 89.6198 353.97 91.4619V92.5202H343.181C343.221 93.4216 343.358 94.1859 343.593 94.813C343.848 95.4401 344.23 95.9104 344.739 96.224C345.269 96.5179 345.964 96.6649 346.826 96.6649C347.297 96.6649 347.718 96.6061 348.09 96.4885C348.482 96.3709 348.816 96.1946 349.09 95.9594C349.364 95.7242 349.58 95.4303 349.737 95.0775C349.893 94.7248 349.972 94.3231 349.972 93.8723H353.97C353.97 94.8522 353.793 95.7046 353.44 96.4297C353.088 97.1548 352.598 97.7623 351.971 98.2522C351.344 98.7225 350.589 99.0851 349.707 99.3398C348.845 99.575 347.885 99.6926 346.826 99.6926ZM343.24 89.9334H349.766C349.766 89.3455 349.688 88.836 349.531 88.4048C349.394 87.9737 349.198 87.621 348.943 87.3466C348.688 87.0723 348.375 86.8763 348.002 86.7587C347.65 86.6215 347.248 86.5529 346.797 86.5529C346.052 86.5529 345.425 86.6803 344.916 86.9351C344.426 87.1702 344.044 87.5426 343.769 88.0521C343.515 88.542 343.338 89.1691 343.24 89.9334ZM356.967 99.3398V83.878H360.348L360.671 86.2884H360.877C361.073 85.7789 361.328 85.3184 361.641 84.9068C361.955 84.4757 362.347 84.1327 362.817 83.878C363.287 83.6232 363.836 83.4959 364.463 83.4959C364.796 83.4959 365.1 83.535 365.374 83.6134C365.649 83.6722 365.854 83.731 365.992 83.7898V87.4936H364.728C364.12 87.4936 363.581 87.5818 363.111 87.7582C362.66 87.9149 362.278 88.1697 361.965 88.5224C361.651 88.8752 361.416 89.3063 361.259 89.8158C361.122 90.3253 361.053 90.923 361.053 91.6089V99.3398H356.967Z" fill="#454545"/>
<mask id="path-5-inside-1_10387_51940" fill="white">
<path d="M226.172 122.65H378.806V188.269H226.172V122.65Z"/>
</mask>
<path d="M376.837 122.65V188.269H380.776V122.65H376.837ZM228.141 188.269V122.65H224.202V188.269H228.141Z" fill="#DDDDDD" fill-opacity="0.4" mask="url(#path-5-inside-1_10387_51940)"/>
<path d="M240.715 164.959V144.794H244.743L252.856 155.67C252.973 155.807 253.12 156.003 253.297 156.258C253.473 156.493 253.64 156.728 253.796 156.964C253.953 157.199 254.061 157.385 254.12 157.522H254.267C254.267 157.189 254.267 156.866 254.267 156.552C254.267 156.219 254.267 155.925 254.267 155.67V144.794H258.411V164.959H254.384L246.095 153.818C245.899 153.544 245.693 153.24 245.477 152.907C245.262 152.574 245.105 152.319 245.007 152.143H244.86C244.86 152.437 244.86 152.731 244.86 153.025C244.86 153.299 244.86 153.563 244.86 153.818V164.959H240.715ZM269.638 165.312C267.952 165.312 266.522 165.028 265.346 164.459C264.17 163.871 263.278 162.98 262.671 161.784C262.063 160.569 261.76 159.051 261.76 157.228C261.76 155.366 262.063 153.848 262.671 152.672C263.278 151.476 264.17 150.595 265.346 150.026C266.522 149.438 267.952 149.144 269.638 149.144C271.362 149.144 272.802 149.438 273.959 150.026C275.134 150.595 276.026 151.476 276.634 152.672C277.241 153.848 277.545 155.366 277.545 157.228C277.545 159.051 277.241 160.569 276.634 161.784C276.026 162.98 275.134 163.871 273.959 164.459C272.802 165.028 271.362 165.312 269.638 165.312ZM269.638 162.137C270.539 162.137 271.254 161.97 271.783 161.637C272.332 161.304 272.734 160.795 272.989 160.109C273.243 159.423 273.371 158.58 273.371 157.581V156.875C273.371 155.876 273.243 155.033 272.989 154.347C272.734 153.661 272.332 153.152 271.783 152.819C271.254 152.466 270.539 152.29 269.638 152.29C268.756 152.29 268.04 152.466 267.492 152.819C266.963 153.152 266.571 153.661 266.316 154.347C266.061 155.033 265.934 155.876 265.934 156.875V157.581C265.934 158.58 266.061 159.423 266.316 160.109C266.571 160.795 266.963 161.304 267.492 161.637C268.04 161.97 268.756 162.137 269.638 162.137ZM284.549 164.959L278.788 149.497H283.109L285.372 156.023C285.49 156.356 285.627 156.797 285.784 157.346C285.96 157.894 286.137 158.472 286.313 159.08C286.489 159.687 286.636 160.236 286.754 160.726H286.901C287.038 160.275 287.185 159.756 287.342 159.168C287.498 158.561 287.655 157.983 287.812 157.434C287.988 156.866 288.135 156.395 288.253 156.023L290.516 149.497H294.632L288.841 164.959H284.549ZM296.627 147.234V143.706H300.713V147.234H296.627ZM296.627 164.959V149.497H300.713V164.959H296.627ZM311.254 165.312C309.608 165.312 308.226 165.028 307.109 164.459C305.992 163.871 305.14 162.98 304.552 161.784C303.984 160.569 303.699 159.051 303.699 157.228C303.699 155.366 303.984 153.848 304.552 152.672C305.14 151.476 305.992 150.585 307.109 149.997C308.246 149.409 309.627 149.115 311.254 149.115C312.312 149.115 313.263 149.242 314.105 149.497C314.968 149.752 315.712 150.144 316.339 150.673C316.966 151.202 317.437 151.859 317.75 152.642C318.083 153.407 318.25 154.318 318.25 155.376H314.164C314.164 154.671 314.056 154.093 313.841 153.642C313.625 153.191 313.292 152.848 312.841 152.613C312.41 152.378 311.861 152.26 311.195 152.26C310.411 152.26 309.774 152.437 309.285 152.789C308.795 153.142 308.432 153.661 308.197 154.347C307.962 155.033 307.844 155.886 307.844 156.905V157.581C307.844 158.58 307.962 159.423 308.197 160.109C308.452 160.795 308.834 161.314 309.343 161.667C309.853 162 310.519 162.166 311.342 162.166C312.008 162.166 312.557 162.049 312.988 161.814C313.439 161.579 313.782 161.226 314.017 160.755C314.252 160.285 314.37 159.717 314.37 159.051H318.25C318.25 160.05 318.083 160.942 317.75 161.726C317.437 162.509 316.966 163.166 316.339 163.695C315.732 164.224 314.997 164.626 314.135 164.9C313.272 165.175 312.312 165.312 311.254 165.312ZM328.34 165.312C326.635 165.312 325.204 165.028 324.048 164.459C322.892 163.871 322.02 162.98 321.432 161.784C320.844 160.589 320.55 159.07 320.55 157.228C320.55 155.366 320.844 153.848 321.432 152.672C322.02 151.476 322.882 150.595 324.019 150.026C325.175 149.438 326.586 149.144 328.252 149.144C329.819 149.144 331.142 149.429 332.22 149.997C333.298 150.546 334.111 151.408 334.66 152.584C335.208 153.74 335.483 155.239 335.483 157.081V158.139H324.695C324.734 159.041 324.871 159.805 325.106 160.432C325.361 161.059 325.743 161.53 326.253 161.843C326.782 162.137 327.477 162.284 328.34 162.284C328.81 162.284 329.231 162.225 329.604 162.108C329.996 161.99 330.329 161.814 330.603 161.579C330.877 161.343 331.093 161.049 331.25 160.697C331.407 160.344 331.485 159.942 331.485 159.491H335.483C335.483 160.471 335.306 161.324 334.954 162.049C334.601 162.774 334.111 163.381 333.484 163.871C332.857 164.342 332.102 164.704 331.22 164.959C330.358 165.194 329.398 165.312 328.34 165.312ZM324.753 155.553H331.279C331.279 154.965 331.201 154.455 331.044 154.024C330.907 153.593 330.711 153.24 330.456 152.966C330.201 152.691 329.888 152.495 329.516 152.378C329.163 152.241 328.761 152.172 328.31 152.172C327.566 152.172 326.939 152.299 326.429 152.554C325.939 152.789 325.557 153.162 325.283 153.671C325.028 154.161 324.851 154.788 324.753 155.553Z" fill="#454545"/>
<rect x="226.172" y="188.268" width="152.634" height="65.6184" fill="#DDDDDD"/>
<rect x="227.157" y="189.252" width="150.665" height="63.649" stroke="#DDDDDD" stroke-opacity="0.4" stroke-width="1.96948"/>
<path d="M240.715 230.576V210.411H256.824V213.997H245.125V218.495H255.472V222.052H245.125V226.961H257V230.576H240.715ZM258.812 230.576L264.426 222.551L259.223 215.114H264.132L267.072 219.759H267.219L270.188 215.114H274.803L269.57 222.522L275.097 230.576H270.276L266.925 225.314H266.778L263.427 230.576H258.812ZM277.25 235.809V215.114H280.601L280.954 217.201H281.16C281.669 216.359 282.336 215.741 283.159 215.349C283.982 214.958 284.893 214.762 285.892 214.762C287.186 214.762 288.293 215.046 289.214 215.614C290.155 216.182 290.87 217.064 291.36 218.26C291.869 219.455 292.124 220.993 292.124 222.875C292.124 224.697 291.869 226.206 291.36 227.401C290.85 228.597 290.135 229.489 289.214 230.076C288.313 230.645 287.254 230.929 286.039 230.929C285.373 230.929 284.756 230.851 284.187 230.694C283.619 230.557 283.11 230.331 282.659 230.018C282.208 229.704 281.826 229.322 281.513 228.871H281.336V235.809H277.25ZM284.628 227.578C285.451 227.578 286.098 227.421 286.568 227.108C287.058 226.774 287.411 226.284 287.627 225.638C287.842 224.971 287.95 224.158 287.95 223.198V222.522C287.95 221.542 287.842 220.729 287.627 220.082C287.411 219.416 287.058 218.926 286.568 218.612C286.098 218.279 285.451 218.113 284.628 218.113C283.864 218.113 283.237 218.289 282.747 218.642C282.257 218.994 281.895 219.504 281.659 220.17C281.424 220.837 281.307 221.64 281.307 222.581V223.08C281.307 223.766 281.375 224.393 281.513 224.962C281.65 225.51 281.846 225.981 282.1 226.373C282.375 226.765 282.718 227.068 283.129 227.284C283.541 227.48 284.04 227.578 284.628 227.578ZM302.16 230.929C300.455 230.929 299.024 230.645 297.868 230.076C296.712 229.489 295.84 228.597 295.252 227.401C294.664 226.206 294.37 224.687 294.37 222.845C294.37 220.984 294.664 219.465 295.252 218.289C295.84 217.094 296.702 216.212 297.839 215.643C298.995 215.056 300.406 214.762 302.071 214.762C303.639 214.762 304.962 215.046 306.04 215.614C307.118 216.163 307.931 217.025 308.48 218.201C309.028 219.357 309.303 220.856 309.303 222.698V223.756H298.515C298.554 224.658 298.691 225.422 298.926 226.049C299.181 226.676 299.563 227.147 300.073 227.46C300.602 227.754 301.297 227.901 302.16 227.901C302.63 227.901 303.051 227.842 303.424 227.725C303.816 227.607 304.149 227.431 304.423 227.196C304.697 226.961 304.913 226.667 305.07 226.314C305.227 225.961 305.305 225.559 305.305 225.109H309.303C309.303 226.089 309.126 226.941 308.774 227.666C308.421 228.391 307.931 228.999 307.304 229.489C306.677 229.959 305.922 230.321 305.04 230.576C304.178 230.811 303.218 230.929 302.16 230.929ZM298.573 221.17H305.099C305.099 220.582 305.021 220.072 304.864 219.641C304.727 219.21 304.531 218.857 304.276 218.583C304.021 218.309 303.708 218.113 303.335 217.995C302.983 217.858 302.581 217.789 302.13 217.789C301.386 217.789 300.758 217.917 300.249 218.171C299.759 218.407 299.377 218.779 299.103 219.288C298.848 219.778 298.671 220.405 298.573 221.17ZM312.3 230.576V215.114H315.681L316.004 217.525H316.21C316.406 217.015 316.661 216.555 316.974 216.143C317.288 215.712 317.68 215.369 318.15 215.114C318.62 214.86 319.169 214.732 319.796 214.732C320.129 214.732 320.433 214.771 320.708 214.85C320.982 214.909 321.188 214.967 321.325 215.026V218.73H320.061C319.453 218.73 318.914 218.818 318.444 218.994C317.993 219.151 317.611 219.406 317.298 219.759C316.984 220.111 316.749 220.543 316.592 221.052C316.455 221.562 316.386 222.159 316.386 222.845V230.576H312.3ZM328.082 230.929C327.102 230.929 326.309 230.753 325.701 230.4C325.094 230.047 324.653 229.577 324.378 228.989C324.104 228.381 323.967 227.715 323.967 226.99V218.26H322.056V215.114H324.114L324.878 210.705H328.053V215.114H330.875V218.26H328.053V226.314C328.053 226.784 328.161 227.147 328.376 227.401C328.592 227.637 328.945 227.754 329.434 227.754H330.875V230.459C330.64 230.537 330.365 230.606 330.052 230.664C329.738 230.743 329.405 230.802 329.052 230.841C328.7 230.9 328.376 230.929 328.082 230.929Z" fill="#454545"/>
<path d="M363.647 247.809L363.647 247.809L391.709 258.013H391.754L391.921 258.076C392.348 258.238 392.716 258.527 392.976 258.903C393.236 259.279 393.375 259.726 393.375 260.183C393.375 260.64 393.236 261.086 392.976 261.463C392.718 261.836 392.353 262.123 391.93 262.286L380.008 267.055L375.237 278.982C375.237 278.983 375.237 278.983 375.237 278.983C375.07 279.402 374.781 279.761 374.407 280.014C374.034 280.267 373.593 280.402 373.141 280.402M363.647 247.809L373.142 279.432M363.647 247.809L363.645 247.808C363.243 247.663 362.807 247.635 362.39 247.728C361.972 247.822 361.59 248.032 361.287 248.334C360.985 248.637 360.775 249.019 360.681 249.437C360.588 249.854 360.616 250.29 360.761 250.692L360.761 250.692L360.762 250.694L371.024 278.915L363.647 247.809ZM373.141 280.402L373.142 279.432M373.141 280.402C373.142 280.402 373.142 280.402 373.142 280.402L373.142 279.432M373.141 280.402C372.678 280.402 372.227 280.259 371.848 279.993C371.469 279.727 371.182 279.351 371.024 278.916L371.025 278.917L371.936 278.585C372.026 278.833 372.19 279.047 372.406 279.199C372.621 279.35 372.879 279.431 373.142 279.432" fill="#454545" stroke="white" stroke-width="1.94054"/>
<defs>
<filter id="filter0_d_10387_51940" x="21.1931" y="101.079" width="216.703" height="108.762" filterUnits="userSpaceOnUse" color-interpolation-filters="sRGB">
<feFlood flood-opacity="0" result="BackgroundImageFix"/>
<feColorMatrix in="SourceAlpha" type="matrix" values="0 0 0 0 0 0 0 0 0 0 0 0 0 0 0 0 0 0 127 0" result="hardAlpha"/>
<feOffset/>
<feGaussianBlur stdDeviation="10.7858"/>
<feComposite in2="hardAlpha" operator="out"/>
<feColorMatrix type="matrix" values="0 0 0 0 0 0 0 0 0 0 0 0 0 0 0 0 0 0 0.25 0"/>
<feBlend mode="normal" in2="BackgroundImageFix" result="effect1_dropShadow_10387_51940"/>
<feBlend mode="normal" in="SourceGraphic" in2="effect1_dropShadow_10387_51940" result="shape"/>
</filter>
</defs>
</svg>
