<svg width="440" height="248" fill="none" xmlns="http://www.w3.org/2000/svg"><g clip-path="url(#a)"><path fill="#F0F0F0" d="M0 .512h440v247.084H0z"/><g clip-path="url(#b)"><path d="m248.922 173.215 29.988-28.917a10.634 10.634 0 0 0 2.809-4.558l9.774-31.824-2.943-9.582c-.743-2.406-.978-4.875-.792-7.305-.643-.359-1.214-.828-1.955-1.058a10.685 10.685 0 0 0-13.374 7.089l-10.354 33.754-25.139 24.24h-37.485c-3.848 0-10.651 2.908-12.507 7.987l-29.765 80.603c-2.053 5.542.78 11.697 6.322 13.745a10.687 10.687 0 0 0 13.744-6.335l11.021-29.851c0 6.376-.036 24.488-.036 122.733 0 7.095 5.752 12.841 12.841 12.841 7.087 0 12.841-5.746 12.841-12.841v-76.527h9.352v76.527c0 7.095 5.752 12.841 12.84 12.841 7.089 0 12.842-5.746 12.842-12.841.002-123.142-.024-47.555-.024-170.721z" fill="#454545"/><path d="m143.369 195.973.003-.001c4.5-1.308 10.028-2.041 14.857-.021 3.784-3.616 9.207-4.913 13.881-5.3h.001c6.188-.511 12.633.431 16.736 1.452a4.226 4.226 0 0 1 3.14 3.335l7.759 41.903a4.232 4.232 0 0 1-5.183 4.876c-3.468-.86-8.966-1.645-13.998-1.229-5.284.438-8.549 2.039-9.822 4.412l-.001.001a4.226 4.226 0 0 1-2.957 2.158 4.24 4.24 0 0 1-3.534-.956l-.001-.001c-2.038-1.759-5.659-2.086-10.754-.601-4.844 1.412-9.691 4.112-12.627 6.159l2.5-56.187zm0 0c-5.961 1.738-11.641 4.926-15.106 7.348l15.106-7.348zm-16.844 11.587v-.001a4.236 4.236 0 0 1 1.738-4.238l-1.738 4.239zm0 0 7.759 41.902v.001m-7.759-41.903 7.759 41.903m0 0c.13.696.431 1.348.878 1.898m-.878-1.898.878 1.898m0 0a4.234 4.234 0 0 0 1.679 1.246m-1.679-1.246 1.679 1.246m0 0a4.24 4.24 0 0 0 2.071.29m-2.071-.29 2.071.29m0 0a4.229 4.229 0 0 0 1.955-.736l-1.955.736z" fill="#454545" stroke="url(#c)" stroke-width="4.59"/><path d="M114.548 88.793a10.491 10.491 0 0 1-3.072-7.418v-7.867c0-2.783 1.105-5.451 3.072-7.418 1.968-1.968 5.292-2.417 8.074-2.417h10.49c10.491 0 8.524 27.537-1.967 27.537h7.213c10.49 0 9.834 24.259-.656 24.259h2.623c10.49 0 10.49 35.406 0 35.406h-5.901c10.49 0 9.834 29.504-.656 29.504h4.589c10.491 0 8.524 22.948-1.966 22.948l3.934.656c10.49 0 10.49 36.061-.001 36.061h-18.358c-5.793 0-7.868-3.386-7.868-9.179v-15.736c0-5.793 2.075-10.49 7.868-10.49h-10.49a10.49 10.49 0 0 1-10.491-10.491v-2.623c0-2.782 1.105-5.45 3.073-7.417a10.486 10.486 0 0 1 7.418-3.073h13.113a10.488 10.488 0 0 1-10.491-10.49v-7.868a10.49 10.49 0 0 1 10.491-10.491h-2.623c-5.793 0-7.868-4.697-7.868-10.49V125.96c0-5.793 2.075-10.491 7.868-10.491h-10.49a10.49 10.49 0 0 1-10.491-10.49v-2.623a10.488 10.488 0 0 1 10.491-10.49h10.49c-2.782 0-5.45-1.105-7.418-3.073zM109.216 318.554c0 5.778 2.069 10.464 7.848 10.464h18.312c10.464 0 10.464-36.624 0-36.624h-18.312c-5.779 0-7.848 4.685-7.848 10.464v15.696z" fill="#454545"/><path d="M114.448 229.61c0 5.779 2.07 10.464 7.848 10.464h18.312c10.464 0 10.464-36.624 0-36.624h-18.312c-5.778 0-7.848 4.685-7.848 10.464v15.696zM114.448 140.667c0 5.779 2.07 10.464 7.848 10.464h18.312c10.464 0 10.464-36.623 0-36.623h-18.312c-5.778 0-7.848 4.685-7.848 10.464v15.695zM59.512 323.786h2.616v-26.16h-2.616a2.618 2.618 0 0 1-2.616-2.616 2.617 2.617 0 0 1 2.616-2.616h62.784c10.464 0 10.464 36.624 0 36.624H59.512a2.615 2.615 0 0 1-2.616-2.616 2.615 2.615 0 0 1 2.616-2.616z" fill="#454545"/><path d="M64.745 234.842h2.615v-26.16h-2.615a2.614 2.614 0 0 1-2.616-2.616 2.617 2.617 0 0 1 2.616-2.616h62.783c10.464 0 10.464 36.624 0 36.624H64.745a2.618 2.618 0 0 1-2.616-2.616 2.617 2.617 0 0 1 2.616-2.616zM64.745 145.899h2.615V119.74h-2.615a2.615 2.615 0 0 1 0-5.232h62.783c10.464 0 10.464 36.623 0 36.623H64.745a2.614 2.614 0 0 1-1.85-4.465 2.615 2.615 0 0 1 1.85-.767zM59.063 323.785h60.618c5.232 0 5.232-26.16 0-26.16H59.063c-2.888 0-2.888 26.16 0 26.16z" fill="#454545"/><path d="M64.295 234.843h60.618c5.232 0 5.232-26.159 0-26.159H64.295c-2.888 0-2.888 26.159 0 26.159zM64.295 145.9h60.618c5.232 0 5.232-26.16 0-26.16H64.295c-2.888 0-2.888 26.16 0 26.16zM118.37 302.857H57.287c.353-3.074.941-5.232 1.773-5.232h60.618c4.319 0 5.069 17.809 2.257 24.035 1.026-7.74-.162-18.803-3.565-18.803z" fill="#454545"/><path d="M123.604 213.916H62.521c.353-3.074.941-5.232 1.773-5.232h60.618c4.319 0 5.069 17.809 2.257 24.035 1.026-7.74-.162-18.803-3.565-18.803zM123.604 124.972H62.521c.353-3.074.941-5.232 1.773-5.232h60.618c4.319 0 5.069 17.809 2.257 24.035 1.026-7.74-.162-18.803-3.565-18.803zM111.831 258.388a10.463 10.463 0 0 0 10.464 10.463h10.464c10.464 0 10.464-28.775 0-28.775h-10.464a10.46 10.46 0 0 0-10.464 10.464v7.848zM114.448 169.444a10.467 10.467 0 0 0 10.464 10.464h10.464c10.464 0 10.464-28.776 0-28.776h-10.464a10.46 10.46 0 0 0-10.464 10.464v7.848zM111.831 80.501a10.461 10.461 0 0 0 10.464 10.464h10.464c10.464 0 10.464-28.776 0-28.776h-10.464a10.463 10.463 0 0 0-10.464 10.464v7.848z" fill="#454545"/><path d="M62.128 263.62h2.616v-18.312h-2.616a2.615 2.615 0 0 1-1.85-4.466 2.614 2.614 0 0 1 1.85-.766h62.784c10.464 0 10.464 28.775 0 28.775H62.128a2.614 2.614 0 0 1-1.85-4.465 2.614 2.614 0 0 1 1.85-.766zM64.745 174.676h2.615v-18.312h-2.615a2.618 2.618 0 0 1-2.616-2.616 2.617 2.617 0 0 1 2.616-2.617h62.783c10.464 0 10.464 28.777 0 28.777H64.745a2.615 2.615 0 0 1 0-5.232zM62.128 85.733h2.616V67.421h-2.616a2.616 2.616 0 1 1 0-5.232h62.784c10.464 0 10.464 28.776 0 28.776H62.128a2.616 2.616 0 0 1 0-5.232z" fill="#454545"/><path d="M61.679 263.616h60.617c5.232 0 5.232-18.312 0-18.312H61.679c-2.888 0-2.888 18.312 0 18.312zM64.295 174.673h60.618c5.232 0 5.232-18.312 0-18.312H64.295c-2.888 0-2.888 18.312 0 18.312zM61.679 85.734h60.617c5.232 0 5.232-18.312 0-18.312H61.679c-2.888 0-2.888 18.312 0 18.312z" fill="#454545"/><path d="M122.294 250.536H59.707c.298-2.943.952-5.232 1.97-5.232h60.617c3.121 0 4.366 6.511 3.762 11.772-.408-3.553-1.651-6.54-3.762-6.54zM124.911 161.593H62.324c.298-2.943.952-5.232 1.97-5.232h60.617c3.121 0 4.366 6.512 3.762 11.772-.408-3.552-1.651-6.54-3.762-6.54zM122.294 72.654H59.707c.298-2.943.952-5.232 1.97-5.232h60.617c3.121 0 4.366 6.51 3.762 11.772-.408-3.553-1.651-6.54-3.762-6.54zM96.135 281.931a10.463 10.463 0 0 0 10.464 10.464h26.16c10.464 0 10.464-23.544 0-23.544h-26.16a10.46 10.46 0 0 0-10.464 10.464v2.616zM101.368 192.99a10.467 10.467 0 0 0 10.464 10.464h26.16c10.464 0 10.464-23.544 0-23.544h-26.16a10.463 10.463 0 0 0-10.464 10.464v2.616zM101.368 104.049a10.467 10.467 0 0 0 10.464 10.463h26.16c10.464 0 10.464-23.543 0-23.543h-26.16a10.465 10.465 0 0 0-10.464 10.464v2.616z" fill="#454545"/><path d="M56.897 287.163h2.616v-13.08h-2.616a2.618 2.618 0 0 1-2.616-2.616 2.617 2.617 0 0 1 2.616-2.616h52.319c10.464 0 10.464 23.544 0 23.544H56.897a2.618 2.618 0 0 1-2.616-2.616 2.617 2.617 0 0 1 2.616-2.616zM62.128 198.222h2.615v-13.08h-2.615a2.618 2.618 0 0 1-2.616-2.616 2.617 2.617 0 0 1 2.616-2.616h52.319c10.464 0 10.464 23.544 0 23.544h-52.32a2.615 2.615 0 0 1 0-5.232zM62.128 109.281h2.615v-13.08h-2.615a2.616 2.616 0 1 1 0-5.232h52.319c10.464 0 10.464 23.543 0 23.543h-52.32a2.614 2.614 0 0 1-1.85-4.465 2.614 2.614 0 0 1 1.85-.766z" fill="#454545"/><path d="M56.447 287.166H106.6c5.232 0 5.232-13.08 0-13.08H56.447c-2.888 0-2.888 13.08 0 13.08zM61.68 198.221h50.154c5.232 0 5.232-13.08 0-13.08H61.68c-2.888 0-2.888 13.08 0 13.08zM61.68 109.274h50.154c5.232 0 5.232-13.08 0-13.08H61.68c-2.888 0-2.888 13.08 0 13.08z" fill="#454545"/><path d="M106.599 279.318H54.322c.17-2.778.873-5.232 2.124-5.232h50.153c3.333 0 4.534 5.302 3.618 9.156-.518-2.195-1.719-3.924-3.618-3.924zM111.831 190.373H59.554c.17-2.778.874-5.232 2.124-5.232h50.153c3.333 0 4.534 5.302 3.618 9.156-.518-2.195-1.718-3.924-3.618-3.924zM111.831 101.426H59.554c.17-2.778.874-5.232 2.124-5.232h50.153c3.333 0 4.534 5.303 3.618 9.156-.518-2.195-1.718-3.924-3.618-3.924z" fill="#454545"/><g filter="url(#d)"><path d="M150.774 112.96a12.209 12.209 0 0 1-1.221 1.689c1.801 1.336 3.067 3.469 3.911 5.604 1.451 3.671 2.128 8.406 2.128 13.014 0 4.609-.677 9.343-2.128 13.014-1.24 3.139-3.393 6.271-6.817 6.878.287.477.543.972.771 1.476 1.433 3.171 2.031 7.226 1.944 11.138-.087 3.915-.866 7.959-2.431 11.111a14.8 14.8 0 0 1-.956 1.658c2.329.708 4.033 2.391 5.113 4.453 1.387 2.648 1.816 5.987 1.545 9.149-.272 3.175-1.272 6.452-3.046 9.002-.333.48-.698.938-1.094 1.368 2.389 1.223 3.981 3.803 4.976 6.368 1.446 3.729 2.123 8.54 2.123 13.226 0 4.687-.677 9.498-2.123 13.226-1.371 3.536-3.877 7.1-8.04 7.1h-18.358c-3.357 0-6.098-1.003-7.906-3.288-1.718-2.171-2.257-5.094-2.257-8.186v-15.736c0-2.907.478-5.84 1.841-8.196h-2.169a12.782 12.782 0 0 1-9.04-3.745 12.782 12.782 0 0 1-3.745-9.04v-2.623c0-3.391 1.347-6.643 3.745-9.04a12.782 12.782 0 0 1 9.04-3.745h3.3a12.789 12.789 0 0 1-2.972-8.196v-7.868a12.785 12.785 0 0 1 4.57-9.796 8.92 8.92 0 0 1-2.434-2.51c-1.59-2.43-2.136-5.567-2.136-8.674v-15.736c0-2.907.478-5.84 1.841-8.196h-2.169a12.782 12.782 0 0 1-9.04-3.745 12.782 12.782 0 0 1-3.745-9.04v-2.623a12.784 12.784 0 0 1 12.785-12.785h.678a12.784 12.784 0 0 1-2.973-8.196v-7.868c0-3.39 1.347-6.642 3.745-9.04 1.376-1.377 3.13-2.13 4.794-2.55 1.673-.42 3.404-.54 4.902-.54h10.491c3.876 0 6.364 2.627 7.697 5.68 1.32 3.026 1.739 6.868 1.476 10.548-.263 3.689-1.231 7.493-2.946 10.453a15.99 15.99 0 0 1-.542.868c3.454.167 5.901 2.297 7.37 4.97 1.498 2.726 2.114 6.191 2.024 9.506-.09 3.318-.893 6.765-2.522 9.463z" stroke="#F0F0F0" stroke-width="4.59" shape-rendering="crispEdges"/></g><path d="M119.553 229.703c0 5.778 2.069 10.464 7.848 10.464h18.312c10.464 0 10.464-36.624 0-36.624h-18.312c-5.779 0-7.848 4.685-7.848 10.464v15.696zM119.553 140.761c0 5.779 2.069 10.464 7.848 10.464h18.312c10.464 0 10.464-36.623 0-36.623h-18.312c-5.779 0-7.848 4.685-7.848 10.463v15.696z" fill="#454545"/><path d="M69.85 234.935h2.615v-26.16H69.85a2.618 2.618 0 0 1-2.616-2.616 2.617 2.617 0 0 1 2.616-2.616h62.784c10.463 0 10.463 36.624 0 36.624H69.849a2.615 2.615 0 0 1 0-5.232zM69.85 145.993h2.615v-26.159H69.85a2.615 2.615 0 0 1 0-5.232h62.784c10.463 0 10.463 36.623 0 36.623H69.849a2.614 2.614 0 0 1-2.616-2.616 2.617 2.617 0 0 1 2.616-2.616z" fill="#454545"/><path d="M69.4 234.937h60.617c5.232 0 5.232-26.16 0-26.16H69.4c-2.888 0-2.888 26.16 0 26.16zM69.4 145.994h60.617c5.232 0 5.232-26.16 0-26.16H69.4c-2.888 0-2.888 26.16 0 26.16z" fill="#454545"/><path d="M128.708 214.009H67.625c.353-3.073.942-5.232 1.774-5.232h60.617c4.319 0 5.07 17.81 2.258 24.036 1.025-7.741-.163-18.804-3.566-18.804zM128.708 125.066H67.625c.353-3.074.942-5.232 1.774-5.232h60.617c4.319 0 5.07 17.81 2.258 24.036 1.025-7.741-.163-18.804-3.566-18.804zM116.936 258.48a10.46 10.46 0 0 0 10.464 10.464h10.464c10.463 0 10.463-28.776 0-28.776H127.4a10.46 10.46 0 0 0-10.464 10.464v7.848zM119.552 169.536A10.466 10.466 0 0 0 130.016 180h10.464c10.464 0 10.464-28.775 0-28.775h-10.464a10.466 10.466 0 0 0-10.464 10.464v7.847zM116.936 80.595A10.461 10.461 0 0 0 127.4 91.059h10.464c10.463 0 10.463-28.776 0-28.776H127.4a10.461 10.461 0 0 0-10.464 10.464v7.848z" fill="#454545"/><path d="M67.233 263.712h2.616V245.4h-2.616a2.618 2.618 0 0 1-2.616-2.616 2.617 2.617 0 0 1 2.616-2.616h62.783c10.464 0 10.464 28.776 0 28.776H67.233a2.615 2.615 0 0 1 0-5.232zM69.85 174.768h2.615v-18.311H69.85a2.615 2.615 0 0 1 0-5.232h62.784c10.463 0 10.463 28.775 0 28.775H69.849a2.614 2.614 0 0 1-1.85-4.465 2.615 2.615 0 0 1 1.85-.767zM67.233 85.827h2.616V67.515h-2.616a2.616 2.616 0 1 1 0-5.232h62.783c10.464 0 10.464 28.776 0 28.776H67.233a2.616 2.616 0 1 1 0-5.232z" fill="#454545"/><path d="M66.783 263.708h60.618c5.232 0 5.232-18.312 0-18.312H66.783c-2.888 0-2.888 18.312 0 18.312zM69.4 174.767h60.617c5.232 0 5.232-18.312 0-18.312H69.4c-2.888 0-2.888 18.312 0 18.312zM66.783 85.826h60.618c5.232 0 5.232-18.312 0-18.312H66.783c-2.888 0-2.888 18.312 0 18.312z" fill="#454545"/><path d="M127.398 250.628H64.811c.298-2.943.952-5.232 1.97-5.232h60.617c3.121 0 4.366 6.512 3.762 11.772-.408-3.552-1.651-6.54-3.762-6.54zM130.016 161.687H67.428c.299-2.943.953-5.232 1.97-5.232h60.618c3.12 0 4.366 6.511 3.761 11.772-.408-3.553-1.65-6.54-3.761-6.54zM127.398 72.746H64.811c.298-2.943.952-5.232 1.97-5.232h60.617c3.121 0 4.366 6.51 3.762 11.772-.408-3.553-1.651-6.54-3.762-6.54zM106.473 193.084a10.46 10.46 0 0 0 10.464 10.464h26.159c10.464 0 10.464-23.544 0-23.544h-26.159a10.46 10.46 0 0 0-10.464 10.464v2.616zM106.473 104.142a10.46 10.46 0 0 0 3.065 7.399 10.46 10.46 0 0 0 7.399 3.065h26.159c10.464 0 10.464-23.543 0-23.543h-26.159a10.461 10.461 0 0 0-10.464 10.463v2.616z" fill="#454545"/><path d="M67.232 198.316h2.616v-13.08h-2.616a2.618 2.618 0 0 1-2.616-2.616 2.617 2.617 0 0 1 2.616-2.616h52.319c10.464 0 10.464 23.544 0 23.544H67.232a2.615 2.615 0 0 1-1.85-4.466 2.614 2.614 0 0 1 1.85-.766zM67.232 109.374h2.616v-13.08h-2.616a2.616 2.616 0 1 1 0-5.231h52.319c10.464 0 10.464 23.543 0 23.543H67.232a2.614 2.614 0 0 1-1.85-4.465 2.615 2.615 0 0 1 1.85-.767z" fill="#454545"/><path d="M66.785 198.314h50.153c5.232 0 5.232-13.08 0-13.08H66.785c-2.888 0-2.888 13.08 0 13.08zM66.785 109.367h50.153c5.232 0 5.232-13.08 0-13.08H66.785c-2.888 0-2.888 13.08 0 13.08z" fill="#454545"/><path d="M116.936 190.466H64.658c.17-2.778.874-5.232 2.124-5.232h50.154c3.333 0 4.533 5.303 3.618 9.156-.518-2.195-1.719-3.924-3.618-3.924zM116.936 101.519H64.658c.17-2.778.874-5.232 2.124-5.232h50.154c3.333 0 4.533 5.303 3.618 9.156-.518-2.195-1.719-3.924-3.618-3.924z" fill="#454545"/><circle cx="217.228" cy="133.995" r="28.328" fill="#454545"/><g filter="url(#e)"><path d="M273.217 140.171c.36.595.767 1.164 1.222 1.689-1.801 1.336-3.068 3.469-3.911 5.604-1.451 3.671-2.128 8.405-2.128 13.014 0 4.608.677 9.343 2.128 13.014 1.24 3.139 3.393 6.271 6.816 6.878-.286.477-.542.972-.77 1.476-1.433 3.171-2.032 7.226-1.945 11.138.087 3.915.867 7.959 2.431 11.111.283.569.601 1.126.956 1.658-2.328.708-4.032 2.391-5.113 4.453-1.387 2.648-1.815 5.987-1.544 9.149.272 3.175 1.272 6.452 3.045 9.002.333.48.698.938 1.095 1.368-2.389 1.223-3.982 3.803-4.977 6.368-1.446 3.728-2.122 8.54-2.122 13.226 0 4.687.676 9.498 2.122 13.226 1.372 3.536 3.878 7.1 8.041 7.1h18.358c3.357 0 6.097-1.003 7.906-3.288 1.718-2.171 2.257-5.094 2.257-8.186v-15.736c0-2.907-.478-5.84-1.842-8.196h2.17a12.785 12.785 0 0 0 12.785-12.785v-2.623a12.785 12.785 0 0 0-12.785-12.785h-3.301a12.784 12.784 0 0 0 2.973-8.196v-7.868a12.785 12.785 0 0 0-4.57-9.796 8.944 8.944 0 0 0 2.433-2.51c1.591-2.43 2.137-5.567 2.137-8.675v-15.735c0-2.907-.478-5.84-1.842-8.196h2.17a12.785 12.785 0 0 0 12.785-12.785v-2.623a12.785 12.785 0 0 0-12.785-12.785h-.678a12.783 12.783 0 0 0 2.972-8.196v-7.868c0-3.39-1.347-6.642-3.744-9.04-1.377-1.376-3.13-2.13-4.795-2.55-1.672-.42-3.404-.54-4.902-.54h-10.49c-3.876 0-6.364 2.627-7.697 5.68-1.321 3.026-1.739 6.868-1.476 10.548.263 3.689 1.231 7.493 2.946 10.453.171.294.351.584.542.868-3.454.167-5.901 2.297-7.37 4.969-1.498 2.727-2.114 6.192-2.024 9.507.089 3.318.893 6.765 2.521 9.463z" stroke="url(#f)" stroke-width="4.59" shape-rendering="crispEdges"/></g><path d="M304.438 256.916c0 5.778-2.069 10.463-7.848 10.463h-18.311c-10.464 0-10.464-36.623 0-36.623h18.311c5.779 0 7.848 4.685 7.848 10.464v15.696zM304.438 167.974c0 5.779-2.069 10.464-7.848 10.464h-18.311c-10.464 0-10.464-36.624 0-36.624h18.311c5.779 0 7.848 4.686 7.848 10.464v15.696z" fill="#454545"/><path d="M354.142 262.148h-2.616v-26.16h2.616a2.62 2.62 0 0 0 2.616-2.616 2.62 2.62 0 0 0-2.616-2.616h-62.783c-10.464 0-10.464 36.623 0 36.623h62.783a2.615 2.615 0 1 0 0-5.231zM354.142 173.206h-2.616v-26.16h2.616a2.615 2.615 0 1 0 0-5.232h-62.783c-10.464 0-10.464 36.624 0 36.624h62.783a2.62 2.62 0 0 0 2.616-2.616 2.62 2.62 0 0 0-2.616-2.616z" fill="#454545"/><path d="M354.591 262.15h-60.617c-5.232 0-5.232-26.16 0-26.16h60.617c2.888 0 2.888 26.16 0 26.16zM354.591 173.207h-60.617c-5.232 0-5.232-26.16 0-26.16h60.617c2.888 0 2.888 26.16 0 26.16z" fill="#454545"/><path d="M295.283 241.222h61.083c-.353-3.074-.942-5.232-1.773-5.232h-60.618c-4.319 0-5.07 17.81-2.257 24.036-1.026-7.741.162-18.804 3.565-18.804zM295.283 152.279h61.083c-.353-3.074-.942-5.232-1.773-5.232h-60.618c-4.319 0-5.07 17.809-2.257 24.035-1.026-7.74.162-18.803 3.565-18.803zM304.439 196.751a10.465 10.465 0 0 1-10.464 10.464h-10.464c-10.464 0-10.464-28.776 0-28.776h10.464a10.465 10.465 0 0 1 10.464 10.464v7.848zM307.055 107.808a10.464 10.464 0 0 1-10.463 10.464h-10.464c-10.464 0-10.464-28.776 0-28.776h10.464a10.465 10.465 0 0 1 10.463 10.464v7.848z" fill="#454545"/><path d="M354.142 201.983h-2.616v-18.312h2.616a2.615 2.615 0 1 0 0-5.232h-62.783c-10.464 0-10.464 28.776 0 28.776h62.783a2.615 2.615 0 1 0 0-5.232zM356.758 113.04h-2.616V94.728h2.616a2.617 2.617 0 0 0 0-5.232h-62.783c-10.464 0-10.464 28.776 0 28.776h62.783a2.62 2.62 0 0 0 2.616-2.616 2.615 2.615 0 0 0-2.616-2.616z" fill="#454545"/><path d="M354.591 201.982h-60.617c-5.232 0-5.232-18.312 0-18.312h60.617c2.888 0 2.888 18.312 0 18.312zM357.208 113.04H296.59c-5.231 0-5.231-18.312 0-18.312h60.618c2.888 0 2.888 18.312 0 18.312z" fill="#454545"/><path d="M293.976 188.902h62.587c-.298-2.943-.952-5.232-1.97-5.232h-60.617c-3.121 0-4.366 6.511-3.762 11.772.408-3.553 1.651-6.54 3.762-6.54zM296.593 99.96h62.587c-.298-2.942-.952-5.231-1.97-5.231h-60.617c-3.121 0-4.366 6.511-3.762 11.771.408-3.552 1.651-6.54 3.762-6.54zM317.518 220.297a10.466 10.466 0 0 1-10.463 10.464h-26.16c-10.464 0-10.464-23.544 0-23.544h26.16a10.463 10.463 0 0 1 10.463 10.464v2.616zM317.518 131.355a10.464 10.464 0 0 1-10.463 10.464h-26.16c-10.464 0-10.464-23.544 0-23.544h26.16a10.467 10.467 0 0 1 10.463 10.464v2.616z" fill="#454545"/><path d="M356.759 225.529h-2.616v-13.08h2.616a2.62 2.62 0 0 0 2.616-2.616 2.615 2.615 0 0 0-2.616-2.616H304.44c-10.464 0-10.464 23.544 0 23.544h52.319a2.616 2.616 0 0 0 0-5.232zM356.759 136.587h-2.616v-13.08h2.616a2.615 2.615 0 1 0 0-5.232H304.44c-10.464 0-10.464 23.544 0 23.544h52.319a2.615 2.615 0 1 0 0-5.232z" fill="#454545"/><path d="M357.206 225.527h-50.153c-5.232 0-5.232-13.08 0-13.08h50.153c2.888 0 2.888 13.08 0 13.08zM357.206 136.58h-50.153c-5.232 0-5.232-13.08 0-13.08h50.153c2.888 0 2.888 13.08 0 13.08z" fill="#454545"/><path d="M307.055 217.679h52.278c-.17-2.778-.874-5.232-2.124-5.232h-50.154c-3.332 0-4.533 5.303-3.617 9.156.518-2.195 1.718-3.924 3.617-3.924zM307.055 128.732h52.278c-.17-2.778-.874-5.232-2.124-5.232h-50.154c-3.332 0-4.533 5.303-3.617 9.156.518-2.195 1.718-3.924 3.617-3.924z" fill="#454545"/></g><g filter="url(#g)"><path d="M339.928 91.04c.454.751.968 1.469 1.541 2.131-2.272 1.686-3.869 4.375-4.933 7.069-1.83 4.631-2.684 10.602-2.684 16.415 0 5.814.854 11.785 2.684 16.416 1.564 3.959 4.28 7.91 8.598 8.676a18.081 18.081 0 0 0-.972 1.861c-1.807 4.001-2.562 9.115-2.453 14.05.11 4.938 1.093 10.039 3.067 14.015.356.718.757 1.421 1.206 2.091-2.937.894-5.087 3.016-6.45 5.617-1.749 3.341-2.29 7.552-1.948 11.541.344 4.005 1.605 8.138 3.842 11.355.42.605.88 1.183 1.381 1.725-3.014 1.542-5.023 4.797-6.278 8.033-1.824 4.703-2.677 10.771-2.677 16.683 0 5.912.853 11.98 2.677 16.683 1.73 4.46 4.891 8.955 10.142 8.955h23.157c4.234 0 7.691-1.264 9.972-4.147 2.167-2.739 2.847-6.425 2.847-10.326v-19.849c0-3.666-.603-7.366-2.323-10.338h2.736a16.13 16.13 0 0 0 11.404-4.723 16.13 16.13 0 0 0 4.723-11.404v-3.308a16.127 16.127 0 0 0-16.127-16.127h-4.162a16.129 16.129 0 0 0 3.749-10.338v-9.924a16.127 16.127 0 0 0-5.764-12.357 11.298 11.298 0 0 0 3.069-3.166c2.007-3.065 2.695-7.023 2.695-10.942v-19.849c0-3.666-.603-7.367-2.323-10.338h2.736a16.13 16.13 0 0 0 16.127-16.127v-3.308a16.128 16.128 0 0 0-16.127-16.127h-.854a16.13 16.13 0 0 0 3.749-10.338v-9.924c0-4.278-1.699-8.38-4.724-11.404-1.736-1.736-3.947-2.687-6.047-3.215-2.11-.53-4.294-.681-6.183-.681h-13.233c-4.889 0-8.027 3.312-9.708 7.164-1.666 3.816-2.194 8.663-1.863 13.304.333 4.654 1.554 9.452 3.717 13.185.215.372.443.737.684 1.095-4.357.21-7.444 2.897-9.297 6.269-1.89 3.44-2.666 7.81-2.553 11.99.113 4.187 1.127 8.534 3.18 11.937z" stroke="url(#h)" stroke-width="5.789" shape-rendering="crispEdges"/></g><path d="M379.311 238.302c0 7.289-2.61 13.199-9.9 13.199h-23.098c-13.199 0-13.199-46.196 0-46.196h23.098c7.29 0 9.9 5.91 9.9 13.199v19.798zM379.311 126.111c0 7.289-2.61 13.199-9.9 13.199h-23.098c-13.199 0-13.199-46.197 0-46.197h23.098c7.29 0 9.9 5.91 9.9 13.199v19.799z" fill="#454545"/><path d="M442.006 244.902h-3.299v-32.998h3.299a3.3 3.3 0 1 0 0-6.599h-79.193c-13.199 0-13.199 46.196 0 46.196h79.193a3.3 3.3 0 0 0 0-6.599zM442.006 132.71h-3.299V99.713h3.299a3.3 3.3 0 1 0 0-6.6h-79.193c-13.199 0-13.199 46.197 0 46.197h79.193a3.3 3.3 0 1 0 0-6.6z" fill="#BCBCBC"/><path d="M442.573 244.906h-76.462c-6.599 0-6.599-32.998 0-32.998h76.462c3.643 0 3.643 32.998 0 32.998zM442.573 132.71h-76.462c-6.599 0-6.599-32.997 0-32.997h76.462c3.643 0 3.643 32.997 0 32.997z" fill="#DDD"/><path d="M367.762 218.508h77.049c-.445-3.878-1.188-6.6-2.237-6.6h-76.461c-5.448 0-6.395 22.465-2.848 30.318-1.294-9.764.205-23.718 4.497-23.718zM367.762 106.312h77.049c-.445-3.877-1.188-6.6-2.237-6.6h-76.461c-5.448 0-6.395 22.465-2.848 30.319-1.294-9.764.205-23.719 4.497-23.719z" fill="#DDD"/><path d="M379.311 162.411a13.198 13.198 0 0 1-13.199 13.199h-13.199c-13.199 0-13.199-36.298 0-36.298h13.199a13.199 13.199 0 0 1 13.199 13.199v9.9zM382.613 50.22a13.2 13.2 0 0 1-13.199 13.198h-13.199c-13.199 0-13.199-36.297 0-36.297h13.199a13.201 13.201 0 0 1 13.199 13.199v9.9z" fill="#454545"/><path d="M442.006 169.01h-3.299v-23.098h3.299a3.3 3.3 0 0 0 0-6.6h-79.193c-13.199 0-13.199 36.298 0 36.298h79.193a3.3 3.3 0 1 0 0-6.6zM445.306 56.819h-3.299V33.72h3.299a3.302 3.302 0 0 0 3.3-3.3 3.303 3.303 0 0 0-3.3-3.3h-79.193c-13.199 0-13.199 36.297 0 36.297h79.193a3.302 3.302 0 0 0 3.3-3.3 3.303 3.303 0 0 0-3.3-3.3z" fill="#BCBCBC"/><path d="M442.573 169.008h-76.462c-6.599 0-6.599-23.098 0-23.098h76.462c3.643 0 3.643 23.098 0 23.098zM445.873 56.82h-76.461c-6.6 0-6.6-23.097 0-23.097h76.461c3.643 0 3.643 23.098 0 23.098z" fill="#DDD"/><path d="M366.113 152.51h78.946c-.376-3.713-1.201-6.6-2.484-6.6h-76.462c-3.936 0-5.507 8.213-4.745 14.849.515-4.481 2.082-8.249 4.745-8.249zM369.414 40.322h78.946c-.376-3.712-1.201-6.6-2.484-6.6h-76.462c-3.936 0-5.507 8.214-4.745 14.85.515-4.482 2.082-8.25 4.745-8.25z" fill="#DDD"/><path d="M395.81 192.112a13.199 13.199 0 0 1-13.199 13.199h-32.997c-13.199 0-13.199-29.698 0-29.698h32.997a13.2 13.2 0 0 1 13.199 13.199v3.3zM395.81 79.922a13.2 13.2 0 0 1-13.199 13.2h-32.997c-13.199 0-13.199-29.698 0-29.698h32.997a13.2 13.2 0 0 1 13.199 13.199v3.3z" fill="#454545"/><path d="M445.307 198.711h-3.3v-16.498h3.3a3.3 3.3 0 0 0 0-6.6h-65.995c-13.199 0-13.199 29.698 0 29.698h65.995a3.3 3.3 0 0 0 0-6.6zM445.307 86.522h-3.3V70.023h3.3a3.3 3.3 0 0 0 0-6.6h-65.995c-13.199 0-13.199 29.698 0 29.698h65.995a3.3 3.3 0 0 0 0-6.599z" fill="#BCBCBC"/><path d="M445.871 198.71h-63.262c-6.6 0-6.6-16.499 0-16.499h63.262c3.643 0 3.643 16.499 0 16.499zM445.871 86.51h-63.262c-6.6 0-6.6-16.498 0-16.498h63.262c3.643 0 3.643 16.498 0 16.498z" fill="#DDD"/><path d="M382.612 188.81h65.942c-.215-3.504-1.102-6.599-2.68-6.599h-63.262c-4.204 0-5.719 6.689-4.564 11.549.654-2.768 2.168-4.95 4.564-4.95zM382.612 76.611h65.942c-.215-3.504-1.102-6.6-2.68-6.6h-63.262c-4.204 0-5.719 6.69-4.564 11.55.654-2.769 2.168-4.95 4.564-4.95z" fill="#DDD"/><path d="M37.513 36.765a11.752 11.752 0 0 1-3.442-8.31v-8.813c0-3.117 1.239-6.106 3.442-8.31 2.204-2.204 5.928-2.707 9.045-2.707H58.31c11.751 0 9.548 30.848-2.204 30.848h8.08c11.751 0 11.017 27.176-.735 27.176h2.938c11.752 0 11.752 39.662 0 39.662h-6.61c11.751 0 11.017 33.052-.735 33.052h5.141c11.752 0 9.549 25.707-2.203 25.707l4.407.735c11.752 0 11.752 40.396 0 40.396H45.823c-6.49 0-8.814-3.792-8.814-10.282v-17.628c0-6.49 2.324-11.752 8.814-11.752H34.071a11.751 11.751 0 0 1-11.751-11.752v-2.938a11.751 11.751 0 0 1 11.751-11.751h14.69a11.751 11.751 0 0 1-11.752-11.752v-8.814a11.752 11.752 0 0 1 11.752-11.752h-2.938c-6.49 0-8.814-5.262-8.814-11.752V78.401c0-6.49 2.324-11.752 8.814-11.752H34.071A11.752 11.752 0 0 1 22.32 54.897V51.96A11.752 11.752 0 0 1 34.07 40.207h11.752a11.752 11.752 0 0 1-8.31-3.442zM31.54 294.151c0 6.473 2.318 11.722 8.792 11.722h20.513c11.722 0 11.722-41.027 0-41.027H40.332c-6.474 0-8.792 5.248-8.792 11.722v17.583z" fill="#EEE"/><path d="M37.401 194.513c0 6.473 2.319 11.722 8.792 11.722h20.514c11.722 0 11.722-41.027 0-41.027H46.193c-6.473 0-8.791 5.248-8.791 11.722v17.583zM37.401 94.876c0 6.474 2.319 11.723 8.792 11.723h20.514c11.722 0 11.722-41.028 0-41.028H46.193c-6.473 0-8.791 5.25-8.791 11.722v17.583zM-24.14 300.012h2.93v-29.305h-2.93a2.93 2.93 0 0 1 0-5.861h70.332c11.722 0 11.722 41.027 0 41.027H-24.14a2.93 2.93 0 0 1 0-5.861z" fill="#EEE"/><path d="M-18.278 200.374h2.93v-29.305h-2.93a2.933 2.933 0 0 1-2.93-2.931 2.932 2.932 0 0 1 2.93-2.93h70.332c11.722 0 11.722 41.027 0 41.027h-70.332a2.933 2.933 0 0 1-2.93-2.931 2.932 2.932 0 0 1 2.93-2.93zM-18.278 100.738h2.93V71.433h-2.93a2.93 2.93 0 1 1 0-5.862h70.332c11.722 0 11.722 41.028 0 41.028h-70.332a2.93 2.93 0 0 1 0-5.861zM-24.643 300.011h67.906c5.86 0 5.86-29.305 0-29.305h-67.906c-3.235 0-3.235 29.305 0 29.305z" fill="#EEE"/><path d="M-18.782 200.376h67.906c5.86 0 5.86-29.305 0-29.305h-67.906c-3.235 0-3.235 29.305 0 29.305zM-18.782 100.738h67.906c5.86 0 5.86-29.305 0-29.305h-67.906c-3.235 0-3.235 29.305 0 29.305zM41.794 276.567h-68.427c.396-3.444 1.055-5.861 1.987-5.861H43.26c4.838 0 5.679 19.95 2.529 26.925 1.148-8.671-.182-21.064-3.995-21.064z" fill="#EEE"/><path d="M47.657 176.932H-20.77c.396-3.444 1.055-5.861 1.987-5.861h67.906c4.838 0 5.68 19.951 2.529 26.925 1.148-8.671-.182-21.064-3.995-21.064zM47.657 77.294H-20.77c.396-3.444 1.055-5.861 1.987-5.861h67.906c4.838 0 5.68 19.95 2.529 26.925 1.148-8.671-.182-21.064-3.995-21.064zM34.47 226.751a11.721 11.721 0 0 0 11.721 11.722h11.722c11.722 0 11.722-32.236 0-32.236H46.191a11.723 11.723 0 0 0-11.722 11.722v8.792zM37.401 127.113a11.72 11.72 0 0 0 11.722 11.722h11.722c11.722 0 11.722-32.236 0-32.236H49.123a11.72 11.72 0 0 0-11.722 11.722v8.792zM34.47 27.476A11.722 11.722 0 0 0 46.19 39.198h11.722c11.722 0 11.722-32.235 0-32.235H46.191A11.722 11.722 0 0 0 34.47 18.685v8.791z" fill="#EEE"/><path d="M-21.209 232.612h2.93v-20.514h-2.93a2.933 2.933 0 0 1-2.93-2.93 2.932 2.932 0 0 1 2.93-2.931h70.332c11.722 0 11.722 32.236 0 32.236h-70.332a2.93 2.93 0 0 1-2.072-5.003 2.928 2.928 0 0 1 2.072-.858zM-18.278 132.974h2.93V112.46h-2.93a2.933 2.933 0 0 1-2.93-2.93 2.93 2.93 0 0 1 2.93-2.931h70.332c11.722 0 11.722 32.236 0 32.236h-70.332a2.93 2.93 0 0 1 0-5.861zM-21.209 33.337h2.93V12.824h-2.93a2.93 2.93 0 0 1 0-5.861h70.332c11.722 0 11.722 32.235 0 32.235h-70.332a2.93 2.93 0 0 1 0-5.86z" fill="#EEE"/><path d="M-21.713 232.607h67.906c5.86 0 5.86-20.513 0-20.513h-67.906c-3.235 0-3.235 20.513 0 20.513zM-18.782 132.971h67.906c5.86 0 5.86-20.513 0-20.513h-67.906c-3.235 0-3.235 20.513 0 20.513zM-21.713 33.338h67.906c5.86 0 5.86-20.514 0-20.514h-67.906c-3.235 0-3.235 20.514 0 20.514z" fill="#EEE"/><path d="M46.19 217.955h-70.112c.334-3.297 1.067-5.861 2.207-5.861H46.19c3.497 0 4.892 7.294 4.215 13.187-.458-3.979-1.85-7.326-4.215-7.326zM49.122 118.319H-20.99c.334-3.297 1.067-5.861 2.207-5.861h67.905c3.496 0 4.891 7.294 4.214 13.187-.457-3.98-1.849-7.326-4.214-7.326zM46.19 18.685h-70.112c.334-3.297 1.067-5.86 2.207-5.86H46.19c3.497 0 4.892 7.293 4.215 13.187-.458-3.98-1.85-7.327-4.215-7.327zM16.886 253.125a11.721 11.721 0 0 0 11.722 11.722h29.305c11.722 0 11.722-26.374 0-26.374l-29.305-.001a11.723 11.723 0 0 0-11.722 11.722v2.931zM22.749 153.49a11.72 11.72 0 0 0 11.722 11.722h29.305c11.722 0 11.722-26.375 0-26.375H34.47a11.72 11.72 0 0 0-11.722 11.722v2.931zM22.749 53.855A11.722 11.722 0 0 0 34.47 65.577h29.305c11.722 0 11.722-26.375 0-26.375H34.47a11.722 11.722 0 0 0-11.722 11.722v2.93z" fill="#EEE"/><path d="M-27.07 258.986h2.931v-14.653h-2.93a2.933 2.933 0 0 1-2.931-2.93 2.932 2.932 0 0 1 2.93-2.931h58.61c11.723 0 11.723 26.375 0 26.375h-58.61a2.93 2.93 0 0 1 0-5.861zM-21.21 159.351h2.93v-14.653h-2.93a2.933 2.933 0 0 1-2.93-2.93 2.928 2.928 0 0 1 2.93-2.931H37.4c11.722 0 11.722 26.375 0 26.375h-58.61a2.93 2.93 0 0 1 0-5.861zM-21.21 59.716h2.93V45.063h-2.93a2.93 2.93 0 0 1 0-5.86H37.4c11.722 0 11.722 26.374 0 26.374h-58.61a2.93 2.93 0 0 1 0-5.861z" fill="#EEE"/><path d="M-27.574 258.989H28.61c5.861 0 5.861-14.653 0-14.653h-56.184c-3.235 0-3.235 14.653 0 14.653zM-21.711 159.35h56.183c5.861 0 5.861-14.653 0-14.653H-21.71c-3.235 0-3.235 14.653 0 14.653zM-21.711 59.709h56.183c5.861 0 5.861-14.653 0-14.653H-21.71c-3.235 0-3.235 14.653 0 14.653z" fill="#EEE"/><path d="M28.609 250.197h-58.563c.19-3.112.978-5.861 2.38-5.861h56.183c3.733 0 5.078 5.94 4.052 10.257-.58-2.459-1.925-4.396-4.052-4.396zM34.47 150.558h-58.563c.19-3.112.979-5.861 2.38-5.861H34.47c3.733 0 5.078 5.94 4.053 10.257-.58-2.459-1.926-4.396-4.053-4.396zM34.47 50.917h-58.563c.19-3.112.979-5.86 2.38-5.86H34.47c3.733 0 5.078 5.94 4.053 10.256-.58-2.459-1.926-4.396-4.053-4.396z" fill="#EEE"/><path d="M46.026 227.246a11.724 11.724 0 0 0 11.722 11.722H69.47c11.722 0 11.722-32.236 0-32.236H57.748a11.72 11.72 0 0 0-11.722 11.722v8.792z" fill="#F0F0F0"/><path d="M46.026 227.246a11.724 11.724 0 0 0 11.722 11.722H69.47c11.722 0 11.722-32.236 0-32.236H57.748a11.72 11.72 0 0 0-11.722 11.722v8.792z" stroke="#F0F0F0"/><g filter="url(#i)"><path d="M78.096 63.837a13.707 13.707 0 0 1-1.369 1.893c2.018 1.496 3.437 3.885 4.382 6.278 1.625 4.112 2.383 9.416 2.383 14.578 0 5.163-.758 10.466-2.383 14.579-1.39 3.516-3.802 7.025-7.637 7.705.321.534.609 1.089.863 1.653 1.606 3.553 2.276 8.095 2.179 12.477-.098 4.386-.97 8.916-2.724 12.448a16.65 16.65 0 0 1-1.07 1.856c2.608.794 4.517 2.679 5.727 4.989 1.554 2.967 2.034 6.706 1.73 10.249-.304 3.557-1.425 7.228-3.411 10.085a14.202 14.202 0 0 1-1.227 1.532c2.677 1.37 4.46 4.26 5.576 7.134 1.62 4.176 2.377 9.566 2.377 14.816s-.758 10.64-2.377 14.816c-1.537 3.961-4.344 7.953-9.007 7.953H51.541c-3.76 0-6.83-1.123-8.857-3.683-1.924-2.432-2.528-5.706-2.528-9.17v-17.628c0-3.256.535-6.542 2.063-9.181h-2.43a14.323 14.323 0 0 1-14.322-14.323v-2.938a14.322 14.322 0 0 1 14.322-14.322h3.697a14.323 14.323 0 0 1-3.33-9.181v-8.814a14.323 14.323 0 0 1 5.12-10.974 10.03 10.03 0 0 1-2.727-2.812c-1.781-2.722-2.393-6.237-2.393-9.718V78.507c0-3.257.535-6.543 2.063-9.181h-2.43a14.322 14.322 0 0 1-14.322-14.323v-2.938A14.322 14.322 0 0 1 39.79 37.743h.76a14.323 14.323 0 0 1-3.33-9.181v-8.814c0-3.799 1.508-7.442 4.194-10.128 1.542-1.542 3.506-2.386 5.37-2.855 1.875-.472 3.814-.605 5.492-.605h11.752c4.342 0 7.13 2.942 8.622 6.362 1.48 3.39 1.949 7.694 1.654 11.816-.295 4.133-1.38 8.394-3.3 11.71-.191.33-.394.654-.608.972 3.87.187 6.611 2.573 8.257 5.567 1.678 3.055 2.368 6.936 2.267 10.65-.1 3.717-1 7.578-2.824 10.6z" stroke="#F0F0F0" stroke-width="5.141" shape-rendering="crispEdges"/></g><path d="M43.12 194.616c0 6.473 2.318 11.722 8.792 11.722h20.513c11.722 0 11.722-41.027 0-41.027H51.912c-6.474 0-8.792 5.248-8.792 11.722v17.583zM43.12 94.98c0 6.474 2.318 11.723 8.792 11.723h20.513c11.722 0 11.722-41.027 0-41.027H51.912c-6.474 0-8.792 5.248-8.792 11.722V94.98z" fill="#454545"/><path d="M-12.56 200.477h2.93v-29.305h-2.93a2.93 2.93 0 0 1-2.93-2.931 2.93 2.93 0 0 1 2.93-2.93h70.332c11.723 0 11.723 41.027 0 41.027H-12.56a2.93 2.93 0 0 1-2.93-2.931 2.93 2.93 0 0 1 2.93-2.93zM-12.56 100.842h2.93V71.537h-2.93a2.93 2.93 0 0 1 0-5.861h70.332c11.723 0 11.723 41.027 0 41.027H-12.56a2.93 2.93 0 0 1-2.93-2.931 2.931 2.931 0 0 1 2.93-2.93z" fill="#BCBCBC"/><path d="M-13.063 200.479h67.906c5.86 0 5.86-29.305 0-29.305h-67.906c-3.235 0-3.235 29.305 0 29.305zM-13.063 100.844h67.906c5.86 0 5.86-29.305 0-29.305h-67.906c-3.235 0-3.235 29.305 0 29.305z" fill="#DDD"/><path d="M53.376 177.035h-68.428c.396-3.444 1.055-5.861 1.987-5.861h67.906c4.838 0 5.68 19.951 2.529 26.925 1.149-8.671-.182-21.064-3.994-21.064zM53.376 77.4h-68.428c.396-3.443 1.055-5.86 1.987-5.86h67.906c4.838 0 5.68 19.95 2.529 26.924 1.149-8.67-.182-21.064-3.994-21.064z" fill="#DDD"/><path d="M40.188 226.855a11.722 11.722 0 0 0 11.722 11.722h11.722c11.722 0 11.722-32.235 0-32.235H51.91a11.723 11.723 0 0 0-11.722 11.722v8.791z" fill="#454545"/><path d="M40.188 226.855a11.722 11.722 0 0 0 11.722 11.722h11.722c11.722 0 11.722-32.235 0-32.235H51.91a11.723 11.723 0 0 0-11.722 11.722v8.791z" stroke="#F0F0F0"/><path d="M43.12 127.215a11.72 11.72 0 0 0 11.722 11.722h11.722c11.722 0 11.722-32.236 0-32.236H54.842a11.723 11.723 0 0 0-11.722 11.722v8.792zM40.188 27.582A11.722 11.722 0 0 0 51.91 39.304h11.722c11.722 0 11.722-32.236 0-32.236H51.91A11.722 11.722 0 0 0 40.188 18.79v8.792z" fill="#454545"/><path d="M-15.49 232.716h2.93v-20.513h-2.93a2.93 2.93 0 0 1 0-5.861h70.332c11.722 0 11.722 32.235 0 32.235H-15.49a2.929 2.929 0 0 1-2.072-5.002 2.93 2.93 0 0 1 2.072-.859zM-12.56 133.076h2.93v-20.514h-2.93a2.932 2.932 0 0 1-2.93-2.93 2.932 2.932 0 0 1 2.93-2.931h70.332c11.723 0 11.723 32.236 0 32.236H-12.56a2.93 2.93 0 0 1-2.93-2.931 2.931 2.931 0 0 1 2.93-2.93zM-15.49 33.443h2.93V12.929h-2.93a2.93 2.93 0 0 1 0-5.86h70.332c11.722 0 11.722 32.235 0 32.235H-15.49a2.93 2.93 0 0 1 0-5.861z" fill="#BCBCBC"/><path d="M-15.994 232.711H51.91c5.861 0 5.861-20.514 0-20.514h-67.905c-3.236 0-3.236 20.514 0 20.514zM-13.063 133.076h67.906c5.86 0 5.86-20.514 0-20.514h-67.906c-3.235 0-3.235 20.514 0 20.514zM-15.994 33.441H51.91c5.861 0 5.861-20.513 0-20.513h-67.905c-3.236 0-3.236 20.513 0 20.513z" fill="#DDD"/><path d="M54.84 118.424H-15.27c.334-3.297 1.066-5.862 2.206-5.862h67.906c3.496 0 4.89 7.295 4.214 13.188-.457-3.98-1.85-7.326-4.214-7.326zM51.91 18.789h-70.113c.334-3.297 1.067-5.861 2.207-5.861h67.905c3.496 0 4.891 7.294 4.214 13.187-.457-3.98-1.849-7.326-4.214-7.326z" fill="#DDD"/><path d="M29.87 253.229a11.72 11.72 0 0 0 11.723 11.722h29.305c11.722 0 11.722-26.375 0-26.375H41.593a11.723 11.723 0 0 0-11.722 11.722v2.931z" fill="#F0F0F0"/><path d="M22.605 253.229a11.72 11.72 0 0 0 11.722 11.722h29.305c11.722 0 11.722-26.375 0-26.375H34.327a11.723 11.723 0 0 0-11.722 11.722v2.931zM28.468 153.594a11.724 11.724 0 0 0 11.722 11.722h29.305c11.722 0 11.722-26.375 0-26.375H40.19a11.72 11.72 0 0 0-11.722 11.722v2.931zM28.468 53.96A11.722 11.722 0 0 0 40.19 65.68h29.305c11.722 0 11.722-26.374 0-26.374H40.19a11.722 11.722 0 0 0-11.722 11.722v2.93z" fill="#454545"/><path d="M-21.35 259.09h2.93v-14.653h-2.93a2.933 2.933 0 0 1-2.931-2.93 2.932 2.932 0 0 1 2.93-2.931h58.61c11.722 0 11.722 26.375 0 26.375h-58.61a2.93 2.93 0 0 1-2.072-5.003 2.928 2.928 0 0 1 2.072-.858zM-15.491 159.455h2.93v-14.653h-2.93a2.928 2.928 0 0 1-2.93-2.93 2.93 2.93 0 0 1 2.93-2.931h58.61c11.722 0 11.722 26.375 0 26.375h-58.61a2.932 2.932 0 0 1-2.93-2.931 2.931 2.931 0 0 1 2.93-2.93zM-15.491 59.82h2.93V45.168h-2.93a2.93 2.93 0 1 1 0-5.861h58.61c11.722 0 11.722 26.374 0 26.374h-58.61a2.93 2.93 0 1 1 0-5.86z" fill="#BCBCBC"/><path d="M-21.855 259.092h56.183c5.861 0 5.861-14.653 0-14.653h-56.183c-3.235 0-3.235 14.653 0 14.653zM-15.992 159.453H40.19c5.861 0 5.861-14.652 0-14.652h-56.183c-3.236 0-3.236 14.652 0 14.652zM-15.992 59.813H40.19c5.861 0 5.861-14.653 0-14.653h-56.183c-3.236 0-3.236 14.653 0 14.653z" fill="#DDD"/><path d="M40.188 150.662h-58.563c.19-3.112.979-5.861 2.38-5.861h56.183c3.734 0 5.079 5.94 4.053 10.257-.58-2.459-1.925-4.396-4.053-4.396zM40.188 51.021h-58.563c.19-3.112.979-5.86 2.38-5.86h56.183c3.734 0 5.079 5.94 4.053 10.256-.58-2.459-1.925-4.396-4.053-4.396z" fill="#DDD"/></g><defs><filter id="d" x="80.553" y="38.231" width="98.28" height="227.444" filterUnits="userSpaceOnUse" color-interpolation-filters="sRGB"><feFlood flood-opacity="0" result="BackgroundImageFix"/><feColorMatrix in="SourceAlpha" values="0 0 0 0 0 0 0 0 0 0 0 0 0 0 0 0 0 0 127 0" result="hardAlpha"/><feOffset/><feGaussianBlur stdDeviation="10.473"/><feComposite in2="hardAlpha" operator="out"/><feColorMatrix values="0 0 0 0 1 0 0 0 0 1 0 0 0 0 1 0 0 0 0.1 0"/><feBlend in2="BackgroundImageFix" result="effect1_dropShadow_10379_51357"/><feBlend in="SourceGraphic" in2="effect1_dropShadow_10379_51357" result="shape"/></filter><filter id="e" x="245.159" y="65.442" width="98.28" height="227.444" filterUnits="userSpaceOnUse" color-interpolation-filters="sRGB"><feFlood flood-opacity="0" result="BackgroundImageFix"/><feColorMatrix in="SourceAlpha" values="0 0 0 0 0 0 0 0 0 0 0 0 0 0 0 0 0 0 127 0" result="hardAlpha"/><feOffset/><feGaussianBlur stdDeviation="10.473"/><feComposite in2="hardAlpha" operator="out"/><feColorMatrix values="0 0 0 0 1 0 0 0 0 1 0 0 0 0 1 0 0 0 0.1 0"/><feBlend in2="BackgroundImageFix" result="effect1_dropShadow_10379_51357"/><feBlend in="SourceGraphic" in2="effect1_dropShadow_10379_51357" result="shape"/></filter><filter id="g" x="304.536" y="-3.221" width="123.968" height="286.892" filterUnits="userSpaceOnUse" color-interpolation-filters="sRGB"><feFlood flood-opacity="0" result="BackgroundImageFix"/><feColorMatrix in="SourceAlpha" values="0 0 0 0 0 0 0 0 0 0 0 0 0 0 0 0 0 0 127 0" result="hardAlpha"/><feOffset/><feGaussianBlur stdDeviation="13.211"/><feComposite in2="hardAlpha" operator="out"/><feColorMatrix values="0 0 0 0 1 0 0 0 0 1 0 0 0 0 1 0 0 0 0.1 0"/><feBlend in2="BackgroundImageFix" result="effect1_dropShadow_10379_51357"/><feBlend in="SourceGraphic" in2="effect1_dropShadow_10379_51357" result="shape"/></filter><filter id="i" x="-.568" y="-19.875" width="110.096" height="254.79" filterUnits="userSpaceOnUse" color-interpolation-filters="sRGB"><feFlood flood-opacity="0" result="BackgroundImageFix"/><feColorMatrix in="SourceAlpha" values="0 0 0 0 0 0 0 0 0 0 0 0 0 0 0 0 0 0 127 0" result="hardAlpha"/><feOffset/><feGaussianBlur stdDeviation="11.733"/><feComposite in2="hardAlpha" operator="out"/><feColorMatrix values="0 0 0 0 1 0 0 0 0 1 0 0 0 0 1 0 0 0 0.1 0"/><feBlend in2="BackgroundImageFix" result="effect1_dropShadow_10379_51357"/><feBlend in="SourceGraphic" in2="effect1_dropShadow_10379_51357" result="shape"/></filter><linearGradient id="c" x1="216.654" y1="134.697" x2="240.078" y2="216.871" gradientUnits="userSpaceOnUse"><stop stop-color="#BCBCBC"/><stop offset=".331" stop-color="#F0F0F0"/><stop offset="1" stop-color="#F0F0F0"/></linearGradient><linearGradient id="f" x1="349.04" y1="55.902" x2="235.156" y2="267.082" gradientUnits="userSpaceOnUse"><stop stop-color="#BCBCBC"/><stop offset=".331" stop-color="#F0F0F0"/><stop offset="1" stop-color="#F0F0F0"/></linearGradient><linearGradient id="h" x1="435.57" y1="-15.255" x2="291.919" y2="251.124" gradientUnits="userSpaceOnUse"><stop stop-color="#BCBCBC"/><stop offset=".331" stop-color="#F0F0F0"/><stop offset="1" stop-color="#F0F0F0"/></linearGradient><clipPath id="a"><path fill="#fff" transform="translate(0 .512)" d="M0 0h440v247.084H0z"/></clipPath><clipPath id="b"><rect x="63.671" y="62.283" width="311.707" height="185.54" rx="18.702" fill="#fff"/></clipPath></defs></svg>