<svg width="440" height="248" fill="none" xmlns="http://www.w3.org/2000/svg"><g clip-path="url(#a)"><path fill="#F0F0F0" d="M0 .596h440V247.68H0z"/><g clip-path="url(#b)"><path d="M20.415 22.473c-.397 0-.774-.04-1.131-.12a3.051 3.051 0 0 1-.952-.376 2.059 2.059 0 0 1-.645-.665c-.152-.271-.228-.599-.228-.982v-.1a.3.3 0 0 1 .01-.089h1.468a.258.258 0 0 0-.01.08v.089c0 .212.056.39.169.536.119.145.29.254.515.327.225.073.486.11.784.11.192 0 .36-.01.506-.03.152-.027.284-.06.397-.1.119-.046.215-.099.287-.159a.503.503 0 0 0 .169-.208.59.59 0 0 0 .06-.268.573.573 0 0 0-.179-.436 1.361 1.361 0 0 0-.476-.288 5.8 5.8 0 0 0-.675-.218c-.251-.066-.509-.132-.774-.198a7.593 7.593 0 0 1-.773-.258 3.302 3.302 0 0 1-.675-.377 1.616 1.616 0 0 1-.476-.556 1.719 1.719 0 0 1-.178-.813c0-.337.069-.628.208-.873.145-.245.347-.447.605-.605.258-.159.556-.275.893-.347.337-.08.704-.12 1.1-.12.371 0 .722.04 1.052.12.331.072.622.191.873.357a1.751 1.751 0 0 1 .803 1.518v.118h-1.438v-.079a.685.685 0 0 0-.158-.456 1.059 1.059 0 0 0-.447-.298 1.897 1.897 0 0 0-.674-.109c-.278 0-.516.026-.715.08a.991.991 0 0 0-.446.238c-.1.099-.149.218-.149.357 0 .158.057.29.169.396.119.1.278.189.476.268.205.073.433.14.685.199.25.06.509.125.773.198.265.073.523.159.774.258.251.1.476.225.675.377.198.145.357.327.476.546.119.218.178.479.178.783 0 .523-.125.942-.377 1.26-.25.317-.595.549-1.031.694a4.73 4.73 0 0 1-1.498.219zm5.522 0c-.33 0-.598-.06-.803-.179a1.067 1.067 0 0 1-.447-.476 1.62 1.62 0 0 1-.139-.675v-2.946h-.644v-1.061h.694l.258-1.488h1.071v1.488h.953v1.061h-.953v2.718c0 .159.037.281.11.367.072.08.191.12.357.12h.486v.912c-.08.026-.172.05-.278.07a2.556 2.556 0 0 1-.337.059c-.12.02-.229.03-.328.03zm3.212 0a2.84 2.84 0 0 1-.555-.06 1.823 1.823 0 0 1-.546-.208 1.258 1.258 0 0 1-.426-.447c-.106-.198-.16-.45-.16-.754 0-.363.08-.664.239-.902.159-.238.383-.424.674-.556a3.598 3.598 0 0 1 1.062-.287c.41-.053.863-.08 1.359-.08v-.387a.924.924 0 0 0-.08-.397.532.532 0 0 0-.257-.267c-.12-.066-.288-.1-.506-.1-.218 0-.397.027-.536.08a.614.614 0 0 0-.288.208.472.472 0 0 0-.079.268v.119h-1.34a.46.46 0 0 1-.009-.09v-.118c0-.305.093-.566.278-.784.185-.225.446-.397.783-.516.338-.119.731-.178 1.18-.178.484 0 .887.063 1.211.188.33.126.582.311.754.556.179.244.268.552.268.922v2.371c0 .12.033.208.099.268.073.053.152.08.238.08h.327v.902a1.521 1.521 0 0 1-.307.1c-.139.039-.308.059-.506.059-.192 0-.364-.03-.516-.09a.99.99 0 0 1-.367-.228.88.88 0 0 1-.208-.377h-.07a1.926 1.926 0 0 1-.982.615c-.211.06-.456.09-.734.09zm.466-1.042c.186 0 .351-.027.497-.08.145-.059.267-.135.367-.227.099-.1.175-.219.228-.358.06-.138.089-.287.089-.446v-.288c-.37 0-.701.027-.992.08-.291.046-.522.129-.694.248a.577.577 0 0 0-.248.496c0 .119.03.221.089.307.06.086.145.152.258.198.112.047.248.07.407.07zm3.91.922v-5.217h1.14l.11.813h.069c.066-.172.152-.327.258-.466.106-.146.238-.261.397-.347.158-.086.344-.13.555-.13.113 0 .215.014.308.04.092.02.162.04.208.06v1.25h-.426c-.206 0-.387.03-.546.09a.908.908 0 0 0-.387.257c-.106.12-.185.265-.238.437-.046.171-.07.373-.07.605v2.608h-1.378zm5.325.12c-.33 0-.598-.06-.803-.179a1.067 1.067 0 0 1-.447-.476 1.62 1.62 0 0 1-.138-.675v-2.946h-.645v-1.061h.694l.258-1.488h1.072v1.488h.952v1.061h-.953v2.718c0 .159.037.281.11.367.072.08.191.12.357.12h.486v.912c-.08.026-.172.05-.278.07a2.557 2.557 0 0 1-.337.059c-.12.02-.228.03-.328.03zm5.626 0c-.43 0-.804-.096-1.121-.288-.311-.198-.552-.5-.724-.903-.172-.403-.258-.92-.258-1.547 0-.629.086-1.141.258-1.538.178-.403.42-.7.724-.893.31-.191.668-.287 1.071-.287.225 0 .433.026.625.079.198.046.37.122.516.228.152.106.281.235.387.387h.06v-2.53h1.378v7.173h-1.13l-.11-.705h-.07a1.654 1.654 0 0 1-.674.625 2.142 2.142 0 0 1-.932.199zm.436-1.131c.258 0 .467-.06.625-.179.166-.119.288-.29.367-.516.08-.224.12-.492.12-.803v-.179c0-.231-.024-.443-.07-.635a1.205 1.205 0 0 0-.199-.476.883.883 0 0 0-.347-.297 1.055 1.055 0 0 0-.496-.11c-.277 0-.5.057-.664.17a.886.886 0 0 0-.357.495c-.073.218-.11.493-.11.823v.229c0 .33.037.605.11.823a.934.934 0 0 0 .357.496c.165.106.387.159.664.159zm5.133 1.13c-.172 0-.357-.02-.556-.059a1.824 1.824 0 0 1-.545-.208 1.259 1.259 0 0 1-.427-.447c-.106-.198-.159-.45-.159-.754 0-.363.08-.664.238-.902.16-.238.384-.424.675-.556a3.598 3.598 0 0 1 1.061-.287c.41-.053.863-.08 1.36-.08v-.387a.924.924 0 0 0-.08-.397.532.532 0 0 0-.258-.267c-.119-.066-.288-.1-.506-.1-.218 0-.397.027-.535.08a.614.614 0 0 0-.288.208.472.472 0 0 0-.08.268v.119h-1.339a.453.453 0 0 1-.01-.09v-.118c0-.305.093-.566.278-.784.185-.225.447-.397.784-.516s.73-.178 1.18-.178c.483 0 .886.063 1.21.188.331.126.582.311.754.556.179.244.268.552.268.922v2.371c0 .12.033.208.1.268.072.053.151.08.237.08h.328v.902a1.525 1.525 0 0 1-.308.1c-.139.039-.307.059-.505.059-.192 0-.364-.03-.516-.09a.989.989 0 0 1-.367-.228.88.88 0 0 1-.209-.377h-.07a1.925 1.925 0 0 1-.982.615c-.21.06-.456.09-.733.09zm.466-1.041c.185 0 .35-.027.496-.08.145-.059.268-.135.367-.227.1-.1.175-.219.228-.358.06-.138.09-.287.09-.446v-.288c-.37 0-.702.027-.993.08-.29.046-.522.129-.694.248a.577.577 0 0 0-.248.496c0 .119.03.221.09.307.059.086.145.152.257.198.113.047.248.07.407.07zm5.466 1.042c-.33 0-.598-.06-.803-.179a1.067 1.067 0 0 1-.446-.476 1.62 1.62 0 0 1-.14-.675v-2.946h-.644v-1.061h.694l.258-1.488h1.072v1.488h.952v1.061h-.952v2.718c0 .159.036.281.109.367.073.08.192.12.357.12h.486v.912c-.08.026-.172.05-.278.07a2.557 2.557 0 0 1-.337.059c-.12.02-.228.03-.328.03zm4.205 0c-.576 0-1.059-.096-1.449-.288-.39-.198-.684-.5-.883-.903-.198-.403-.297-.916-.297-1.537 0-.629.099-1.141.297-1.538.199-.403.49-.7.873-.893.39-.198.867-.297 1.429-.297.529 0 .975.096 1.339.287.364.186.638.477.823.873.185.39.278.896.278 1.518v.357h-3.64c.013.304.059.562.138.774.086.212.215.37.387.476.179.1.414.149.705.149.158 0 .3-.02.426-.06a.827.827 0 0 0 .556-.476.992.992 0 0 0 .079-.407h1.349c0 .331-.06.619-.179.864a1.73 1.73 0 0 1-.496.614 2.344 2.344 0 0 1-.763.367 3.69 3.69 0 0 1-.973.12zm-1.21-3.294h2.201c0-.198-.026-.37-.079-.516a.93.93 0 0 0-.198-.357.72.72 0 0 0-.318-.198 1.116 1.116 0 0 0-.406-.07 1.41 1.41 0 0 0-.635.13.852.852 0 0 0-.387.376 1.91 1.91 0 0 0-.179.635z" fill="#454545"/><path fill="#fff" d="M70.446 8.2h71.447v22.307H70.446z"/><path fill="#DDD" d="M70.778 8.532h70.782v21.643H70.778z"/><path stroke="#CCC" stroke-width=".665" d="M70.778 8.532h70.782v21.643H70.778z"/><path d="M80.55 22.354v-1.111h1.627v-4.018H80.54v-.833c.219-.02.47-.07.754-.15.291-.085.582-.188.873-.307.291-.125.552-.258.784-.396h.615v5.704h1.518v1.11H80.55zm8.27 0v-1.488h-3.065v-1.101c.258-.41.5-.844.724-1.3.225-.456.434-.94.625-1.448.199-.51.364-1.039.496-1.587h1.419a7.74 7.74 0 0 1-.308 1.001c-.125.35-.27.698-.436 1.042a16.611 16.611 0 0 1-.982 1.766 4.748 4.748 0 0 1-.387.526h1.914v-1.647c.067-.126.133-.261.199-.407a8.366 8.366 0 0 0 .387-.923c.06-.152.105-.294.139-.426h.635v3.403h.872v1.1h-.873v1.489H88.82zm2.567.486 2.033-7.777h.942L92.33 22.84h-.942zm5.93-.367c-.41 0-.77-.06-1.082-.179a1.868 1.868 0 0 1-.783-.595c-.205-.278-.36-.642-.467-1.091-.099-.45-.148-1.002-.148-1.657 0-.661.05-1.213.148-1.657.106-.45.262-.813.467-1.09.211-.279.472-.477.783-.596.311-.119.672-.178 1.082-.178.416 0 .777.059 1.08.178.305.12.56.317.765.595.211.278.367.642.466 1.091.106.444.159.996.159 1.657 0 .655-.053 1.207-.16 1.657-.098.45-.254.813-.465 1.09-.205.272-.46.47-.764.596a2.963 2.963 0 0 1-1.081.179zm0-1.072c.29 0 .512-.076.664-.228.152-.159.258-.397.318-.714.06-.318.089-.714.089-1.19v-.616c0-.482-.03-.882-.09-1.2-.059-.324-.165-.565-.317-.724-.152-.159-.373-.238-.664-.238-.291 0-.516.08-.675.238-.152.159-.258.397-.317.714-.06.311-.09.708-.09 1.19v.616c0 .482.03.886.09 1.21.06.317.165.555.317.714.159.152.384.228.675.228zm3.935.953v-1.111h1.627v-4.018h-1.637v-.833c.218-.02.47-.07.754-.15.291-.085.582-.188.873-.307a6.68 6.68 0 0 0 .784-.396h.615v5.704h1.517v1.11h-4.533zm4.917.486 2.034-7.777h.942l-2.033 7.777h-.943zm3.48-.486v-.358c0-.297.053-.568.159-.813.106-.245.251-.47.436-.675.186-.205.391-.4.615-.585a13.9 13.9 0 0 1 .695-.535c.271-.206.526-.407.764-.606.244-.198.443-.41.595-.634.152-.232.228-.486.228-.764a.882.882 0 0 0-.099-.397.79.79 0 0 0-.318-.327c-.139-.093-.327-.14-.565-.14a1.26 1.26 0 0 0-.605.13.845.845 0 0 0-.367.347c-.08.145-.119.327-.119.545v.357h-1.33a1.785 1.785 0 0 1-.029-.357c0-.482.109-.88.327-1.19a2.02 2.02 0 0 1 .903-.694 3.495 3.495 0 0 1 1.299-.228c.437 0 .8.062 1.091.188.298.119.536.281.715.486.178.198.304.417.377.655a2.12 2.12 0 0 1-.05 1.528c-.112.257-.265.499-.456.724-.192.224-.42.443-.685.654-.264.205-.545.41-.843.615a35.45 35.45 0 0 0-.436.308c-.133.099-.248.195-.348.287a1.275 1.275 0 0 0-.218.258h3.204v1.22h-4.94zm8.36.119c-.41 0-.771-.06-1.082-.179a1.868 1.868 0 0 1-.783-.595c-.205-.278-.361-.642-.467-1.091-.099-.45-.148-1.002-.148-1.657 0-.661.049-1.213.148-1.657.106-.45.262-.813.467-1.09.211-.279.473-.477.783-.596.311-.119.672-.178 1.082-.178.416 0 .777.059 1.081.178.304.12.559.317.764.595.211.278.367.642.466 1.091.106.444.159.996.159 1.657 0 .655-.053 1.207-.159 1.657-.099.45-.255.813-.466 1.09-.205.272-.46.47-.764.596a2.964 2.964 0 0 1-1.081.179zm0-1.072c.291 0 .512-.076.664-.228.152-.159.258-.397.318-.714a6.67 6.67 0 0 0 .089-1.19v-.616c0-.482-.03-.882-.089-1.2-.06-.324-.166-.565-.318-.724-.152-.159-.373-.238-.664-.238-.291 0-.516.08-.675.238-.152.159-.258.397-.317.714-.06.311-.09.708-.09 1.19v.616c0 .482.03.886.09 1.21.059.317.165.555.317.714.159.152.384.228.675.228zm3.449.953v-.358c0-.297.053-.568.159-.813a2.44 2.44 0 0 1 .436-.675c.185-.205.39-.4.615-.585.225-.185.456-.364.695-.535.271-.206.525-.407.763-.606.245-.198.443-.41.596-.634.152-.232.228-.486.228-.764a.882.882 0 0 0-.099-.397.796.796 0 0 0-.318-.327c-.139-.093-.327-.14-.565-.14a1.26 1.26 0 0 0-.605.13.84.84 0 0 0-.367.347c-.08.145-.12.327-.12.545v.357h-1.329a2.194 2.194 0 0 1-.03-.357c0-.482.11-.88.328-1.19a2.02 2.02 0 0 1 .903-.694 3.495 3.495 0 0 1 1.299-.228c.436 0 .8.062 1.091.188a1.817 1.817 0 0 1 1.091 1.14 2.12 2.12 0 0 1-.049 1.528 2.91 2.91 0 0 1-.457.725 4.934 4.934 0 0 1-.684.654c-.265.205-.546.41-.843.615l-.437.308a4.23 4.23 0 0 0-.347.287 1.275 1.275 0 0 0-.218.258h3.204v1.22h-4.94zm8.756 0v-1.488h-3.065v-1.101c.258-.41.499-.844.724-1.3.225-.456.433-.94.625-1.448.198-.51.364-1.039.496-1.587h1.419a7.841 7.841 0 0 1-.308 1.001c-.126.35-.271.698-.436 1.042a16.922 16.922 0 0 1-.982 1.766 4.99 4.99 0 0 1-.387.526h1.914v-1.647a15.355 15.355 0 0 0 .407-.863c.066-.159.126-.314.178-.466.06-.153.106-.295.139-.427h.635v3.403h.873v1.1h-.873v1.489h-1.359zM22.029 50.603V43.8h5.436v1.21h-3.948v1.517h3.491v1.2h-3.491v1.657h4.007v1.22H22.03zm6.652 0v-5.217h1.14l.11.714H30c.118-.172.26-.32.426-.446.172-.126.364-.222.575-.288.212-.066.443-.1.695-.1.344 0 .644.064.902.19.258.125.457.323.596.594.145.272.218.625.218 1.062v3.491h-1.38V47.33c0-.165-.019-.304-.059-.417a.667.667 0 0 0-.178-.287.595.595 0 0 0-.278-.169 1.333 1.333 0 0 0-.377-.05c-.205 0-.39.05-.555.15a1.04 1.04 0 0 0-.387.406c-.093.172-.14.37-.14.595v3.045h-1.378zm7.812.12c-.43 0-.803-.096-1.12-.288-.311-.199-.553-.5-.725-.903-.172-.403-.258-.92-.258-1.547 0-.629.086-1.141.258-1.538.179-.403.42-.7.724-.893.311-.191.669-.287 1.072-.287.225 0 .433.026.625.079.198.046.37.122.516.228.152.106.28.235.386.387h.06v-2.53h1.379v7.172h-1.131l-.11-.704H38.1a1.654 1.654 0 0 1-.674.625 2.142 2.142 0 0 1-.933.199zm.437-1.131c.258 0 .466-.06.625-.179a1.04 1.04 0 0 0 .367-.516 2.42 2.42 0 0 0 .119-.803v-.179c0-.231-.023-.443-.07-.635a1.205 1.205 0 0 0-.198-.476.883.883 0 0 0-.347-.297 1.055 1.055 0 0 0-.496-.11c-.278 0-.5.057-.665.17a.885.885 0 0 0-.357.495c-.073.218-.109.493-.109.824v.228c0 .33.036.605.11.823a.933.933 0 0 0 .356.496c.166.106.387.159.665.159zm7.546 1.13c-.43 0-.804-.095-1.121-.287-.311-.199-.552-.5-.724-.903-.172-.403-.258-.92-.258-1.547 0-.629.086-1.141.258-1.538.178-.403.42-.7.724-.893.31-.191.668-.287 1.071-.287.225 0 .433.026.625.079.198.046.37.122.516.228.152.106.281.235.387.387h.06v-2.53h1.378v7.172h-1.13l-.11-.704h-.07a1.654 1.654 0 0 1-.674.625 2.142 2.142 0 0 1-.932.199zm.436-1.13c.258 0 .467-.06.625-.179.166-.119.288-.29.367-.516.08-.224.12-.492.12-.803v-.179c0-.231-.024-.443-.07-.635a1.205 1.205 0 0 0-.199-.476.883.883 0 0 0-.347-.297 1.055 1.055 0 0 0-.496-.11c-.277 0-.5.057-.664.17a.886.886 0 0 0-.357.495c-.073.218-.11.493-.11.824v.228c0 .33.037.605.11.823a.934.934 0 0 0 .357.496c.165.106.387.159.664.159zm5.133 1.13c-.172 0-.357-.02-.556-.059a1.824 1.824 0 0 1-.545-.208 1.259 1.259 0 0 1-.427-.447c-.106-.198-.159-.45-.159-.754 0-.363.08-.664.238-.902.16-.238.384-.423.675-.556a3.598 3.598 0 0 1 1.061-.288c.41-.052.863-.079 1.36-.079v-.387a.924.924 0 0 0-.08-.397.532.532 0 0 0-.258-.267c-.119-.066-.288-.1-.506-.1-.218 0-.397.027-.535.08a.614.614 0 0 0-.288.208.472.472 0 0 0-.08.268v.119h-1.339a.46.46 0 0 1-.01-.09v-.118c0-.304.093-.566.278-.784.185-.225.447-.397.784-.516s.73-.178 1.18-.178c.483 0 .886.063 1.21.188.331.126.582.311.754.556.179.244.268.552.268.922v2.371c0 .12.033.208.1.268.072.053.151.08.237.08h.328v.902a1.525 1.525 0 0 1-.308.1c-.139.039-.307.059-.506.059-.191 0-.363-.03-.515-.09a.989.989 0 0 1-.367-.228.88.88 0 0 1-.209-.377h-.07a1.925 1.925 0 0 1-.982.615c-.21.06-.456.09-.733.09zm.466-1.041c.185 0 .35-.026.496-.08.145-.059.268-.135.367-.227.1-.1.175-.219.228-.358.06-.139.09-.287.09-.446v-.288c-.37 0-.702.027-.993.08-.29.046-.522.129-.694.248a.577.577 0 0 0-.248.496c0 .119.03.221.09.307.059.086.145.152.257.199.113.046.248.069.407.069zm5.466 1.042c-.33 0-.598-.06-.803-.179a1.067 1.067 0 0 1-.446-.476 1.62 1.62 0 0 1-.14-.675v-2.946h-.644v-1.061h.694l.258-1.488h1.072v1.488h.952v1.061h-.952v2.718c0 .159.036.281.109.367.073.08.192.12.357.12h.486v.912c-.08.026-.172.05-.278.07a2.557 2.557 0 0 1-.337.059c-.12.02-.228.03-.328.03zm4.205 0c-.576 0-1.059-.096-1.449-.288-.39-.199-.684-.5-.883-.903-.198-.403-.297-.916-.297-1.537 0-.629.099-1.141.297-1.538.199-.403.49-.7.873-.893.39-.198.867-.297 1.429-.297.529 0 .975.096 1.339.287.364.185.638.477.823.873.185.39.278.896.278 1.518v.357h-3.64c.013.304.059.562.138.774.086.212.215.37.387.476.179.1.414.149.705.149.158 0 .3-.02.426-.06a.827.827 0 0 0 .556-.476.992.992 0 0 0 .079-.407h1.349c0 .331-.06.619-.179.863a1.73 1.73 0 0 1-.496.615 2.344 2.344 0 0 1-.763.367 3.69 3.69 0 0 1-.973.12zm-1.21-3.294h2.201c0-.198-.026-.37-.079-.516a.93.93 0 0 0-.198-.357.72.72 0 0 0-.318-.198 1.116 1.116 0 0 0-.406-.07 1.41 1.41 0 0 0-.635.13.852.852 0 0 0-.387.376 1.907 1.907 0 0 0-.179.635z" fill="#454545"/><path fill="#fff" d="M70.446 36.45h71.447v22.307H70.446z"/><path fill="#DDD" d="M70.778 36.782h70.782v21.643H70.778z"/><path stroke="#CCC" stroke-width=".665" d="M70.778 36.782h70.782v21.643H70.778z"/><path d="M80.55 50.603v-1.11h1.627v-4.018H80.54v-.833c.219-.02.47-.07.754-.15.291-.085.582-.188.873-.307.291-.125.552-.258.784-.396h.615v5.703h1.518v1.111H80.55zm8.27 0v-1.487h-3.065v-1.102c.258-.41.5-.843.724-1.299.225-.456.434-.94.625-1.448.199-.51.364-1.039.496-1.588h1.419a7.74 7.74 0 0 1-.308 1.002c-.125.35-.27.698-.436 1.042a16.611 16.611 0 0 1-.982 1.766 4.748 4.748 0 0 1-.387.526h1.914v-1.647c.067-.126.133-.261.199-.407a8.366 8.366 0 0 0 .387-.923c.06-.152.105-.294.139-.426h.635v3.402h.872v1.102h-.873v1.487H88.82zm2.567.487 2.033-7.778h.942L92.33 51.09h-.942zm5.93-.367c-.41 0-.77-.06-1.082-.179a1.868 1.868 0 0 1-.783-.595c-.205-.278-.36-.642-.467-1.091-.099-.45-.148-1.002-.148-1.657 0-.661.05-1.214.148-1.657.106-.45.262-.813.467-1.09.211-.279.472-.477.783-.596.311-.119.672-.178 1.082-.178.416 0 .777.059 1.08.178.305.12.56.318.765.595.211.278.367.642.466 1.091.106.444.159.996.159 1.657 0 .655-.053 1.207-.16 1.657-.098.45-.254.813-.465 1.09-.205.272-.46.47-.764.596a2.963 2.963 0 0 1-1.081.179zm0-1.072c.29 0 .512-.076.664-.228.152-.159.258-.397.318-.714.06-.318.089-.714.089-1.19v-.616c0-.482-.03-.882-.09-1.2-.059-.324-.165-.565-.317-.724-.152-.159-.373-.238-.664-.238-.291 0-.516.08-.675.238-.152.159-.258.397-.317.714-.06.311-.09.708-.09 1.19v.616c0 .482.03.886.09 1.21.06.317.165.555.317.714.159.152.384.228.675.228zm3.935.952v-1.11h1.627v-4.018h-1.637v-.833c.218-.02.47-.07.754-.15.291-.085.582-.188.873-.307a6.68 6.68 0 0 0 .784-.396h.615v5.703h1.517v1.111h-4.533zm4.917.487 2.034-7.778h.942l-2.033 7.778h-.943zm3.48-.487v-.357c0-.297.053-.568.159-.813.106-.245.251-.47.436-.675.186-.205.391-.4.615-.585a13.9 13.9 0 0 1 .695-.535c.271-.206.526-.407.764-.606.244-.198.443-.41.595-.634.152-.232.228-.487.228-.764a.882.882 0 0 0-.099-.397.79.79 0 0 0-.318-.327c-.139-.093-.327-.14-.565-.14a1.26 1.26 0 0 0-.605.13.845.845 0 0 0-.367.347c-.08.145-.119.327-.119.545v.358h-1.33a1.785 1.785 0 0 1-.029-.358c0-.482.109-.88.327-1.19a2.02 2.02 0 0 1 .903-.694 3.495 3.495 0 0 1 1.299-.229c.437 0 .8.063 1.091.189.298.119.536.281.715.486.178.199.304.417.377.655a2.12 2.12 0 0 1-.05 1.528c-.112.257-.265.499-.456.724-.192.224-.42.443-.685.654-.264.205-.545.41-.843.615a35.45 35.45 0 0 0-.436.308c-.133.099-.248.195-.348.288a1.275 1.275 0 0 0-.218.257h3.204v1.22h-4.94zm8.36.12c-.41 0-.771-.06-1.082-.179a1.868 1.868 0 0 1-.783-.595c-.205-.278-.361-.642-.467-1.091-.099-.45-.148-1.002-.148-1.657 0-.661.049-1.214.148-1.657.106-.45.262-.813.467-1.09.211-.279.473-.477.783-.596.311-.119.672-.178 1.082-.178.416 0 .777.059 1.081.178.304.12.559.318.764.595.211.278.367.642.466 1.091.106.444.159.996.159 1.657 0 .655-.053 1.207-.159 1.657-.099.45-.255.813-.466 1.09-.205.272-.46.47-.764.596a2.964 2.964 0 0 1-1.081.179zm0-1.072c.291 0 .512-.076.664-.228.152-.159.258-.397.318-.714a6.67 6.67 0 0 0 .089-1.19v-.616c0-.482-.03-.882-.089-1.2-.06-.324-.166-.565-.318-.724-.152-.159-.373-.238-.664-.238-.291 0-.516.08-.675.238-.152.159-.258.397-.317.714-.06.311-.09.708-.09 1.19v.616c0 .482.03.886.09 1.21.059.317.165.555.317.714.159.152.384.228.675.228zm3.449.952v-.357c0-.297.053-.568.159-.813a2.44 2.44 0 0 1 .436-.675c.185-.205.39-.4.615-.585.225-.185.456-.364.695-.535.271-.206.525-.407.763-.606.245-.198.443-.41.596-.634.152-.232.228-.487.228-.764a.882.882 0 0 0-.099-.397.796.796 0 0 0-.318-.327c-.139-.093-.327-.14-.565-.14a1.26 1.26 0 0 0-.605.13.84.84 0 0 0-.367.347c-.08.145-.12.327-.12.545v.358h-1.329a2.194 2.194 0 0 1-.03-.357c0-.483.11-.88.328-1.19a2.02 2.02 0 0 1 .903-.695 3.495 3.495 0 0 1 1.299-.229c.436 0 .8.063 1.091.189a1.817 1.817 0 0 1 1.091 1.14 2.12 2.12 0 0 1-.049 1.528 2.91 2.91 0 0 1-.457.725 4.934 4.934 0 0 1-.684.654c-.265.205-.546.41-.843.615l-.437.308a4.23 4.23 0 0 0-.347.288 1.275 1.275 0 0 0-.218.257h3.204v1.22h-4.94zm8.756 0v-1.487h-3.065v-1.102c.258-.41.499-.843.724-1.299.225-.456.433-.94.625-1.448.198-.51.364-1.039.496-1.588h1.419a7.841 7.841 0 0 1-.308 1.002c-.126.35-.271.698-.436 1.042a16.922 16.922 0 0 1-.982 1.766 4.99 4.99 0 0 1-.387.526h1.914v-1.647a15.355 15.355 0 0 0 .407-.863c.066-.159.126-.314.178-.466.06-.153.106-.295.139-.427h.635v3.402h.873v1.102h-.873v1.487h-1.359zM25.071 78.853V73.29h-2.182v-1.24h5.862v1.24H26.56v5.564h-1.488zm4.56-5.981v-1.19h1.378v1.19H29.63zm0 5.981v-5.217h1.378v5.218H29.63zm2.644 0v-5.217h1.14l.11.714h.07a1.98 1.98 0 0 1 .396-.446 1.77 1.77 0 0 1 .526-.288c.198-.066.41-.1.635-.1.33 0 .615.067.853.2.244.131.433.343.565.634h.07a1.87 1.87 0 0 1 .406-.446 1.72 1.72 0 0 1 .546-.288c.205-.066.423-.1.655-.1.33 0 .615.06.853.18.244.118.436.313.575.585.139.264.209.608.209 1.031v3.541h-1.38V75.56c0-.165-.02-.304-.059-.416a.619.619 0 0 0-.149-.278.572.572 0 0 0-.248-.159.996.996 0 0 0-.317-.05.86.86 0 0 0-.496.15c-.146.098-.261.234-.347.406-.08.172-.12.37-.12.595v3.045H35.39V75.56c0-.165-.02-.304-.06-.416a.619.619 0 0 0-.148-.278.572.572 0 0 0-.248-.159.94.94 0 0 0-.318-.05.89.89 0 0 0-.496.15c-.145.098-.261.234-.347.406-.08.172-.12.37-.12.595v3.045h-1.378zm11.206.12c-.576 0-1.059-.096-1.449-.288-.39-.198-.684-.5-.882-.903-.199-.403-.298-.916-.298-1.537 0-.629.1-1.141.298-1.538.198-.403.489-.7.872-.893.39-.198.867-.297 1.429-.297.529 0 .975.096 1.339.287.364.186.638.477.823.873.185.39.278.896.278 1.518v.357h-3.64c.013.304.06.562.138.774.086.212.215.37.387.476.179.1.414.149.705.149.158 0 .3-.02.426-.06a.828.828 0 0 0 .555-.476.992.992 0 0 0 .08-.407h1.35c0 .331-.06.619-.18.864-.119.244-.284.45-.495.615a2.345 2.345 0 0 1-.764.367c-.291.079-.615.119-.972.119zm-1.21-3.294h2.202c0-.198-.027-.37-.08-.516a.93.93 0 0 0-.198-.357.72.72 0 0 0-.318-.198 1.115 1.115 0 0 0-.406-.07 1.41 1.41 0 0 0-.635.13.852.852 0 0 0-.387.376 1.91 1.91 0 0 0-.179.635zm6.579 3.174v-7.171h1.379v7.171h-1.38zm5.045.12c-.569 0-1.051-.096-1.448-.288a1.989 1.989 0 0 1-.903-.903c-.205-.41-.307-.922-.307-1.537 0-.629.102-1.141.307-1.538.205-.403.506-.7.903-.893.397-.198.88-.297 1.448-.297.582 0 1.068.099 1.458.297.397.192.698.49.903.893.205.397.308.91.308 1.538 0 .615-.103 1.127-.308 1.537a1.989 1.989 0 0 1-.903.903c-.39.192-.876.288-1.458.288zm0-1.072c.304 0 .546-.056.724-.168a.977.977 0 0 0 .407-.516c.086-.232.129-.516.129-.853v-.238c0-.338-.043-.622-.129-.854a.976.976 0 0 0-.407-.515c-.178-.12-.42-.179-.724-.179-.298 0-.539.06-.724.179a.992.992 0 0 0-.397.515 2.464 2.464 0 0 0-.129.854v.238c0 .337.043.621.13.853a.993.993 0 0 0 .396.516c.185.112.426.168.724.168zm4.536 2.817c-.231 0-.45-.05-.654-.148a1.168 1.168 0 0 1-.496-.417 1.155 1.155 0 0 1-.189-.665c0-.29.083-.522.248-.694.172-.179.364-.31.575-.397a1.156 1.156 0 0 1-.377-.337.855.855 0 0 1-.138-.486c0-.258.092-.466.277-.625a1.38 1.38 0 0 1 .655-.317 1.71 1.71 0 0 1-.575-.576 1.606 1.606 0 0 1-.199-.793c0-.377.093-.695.278-.953.192-.258.463-.453.814-.585.357-.139.776-.208 1.26-.208.191 0 .37.01.535.03.172.02.327.052.466.099.245-.146.41-.305.496-.477.093-.178.142-.32.149-.426h1.28c0 .245-.047.456-.14.635a1.168 1.168 0 0 1-.376.446 1.736 1.736 0 0 1-.595.248c.172.146.304.32.396.526.093.205.14.427.14.665 0 .37-.09.687-.269.952a1.7 1.7 0 0 1-.763.595c-.324.139-.715.208-1.17.208h-.794c-.16 0-.278.03-.358.09a.267.267 0 0 0-.119.238c0 .086.033.162.1.228.072.06.188.09.347.09h2.172c.437 0 .784.135 1.042.406.264.264.397.605.397 1.022 0 .317-.083.598-.248.843a1.677 1.677 0 0 1-.685.575 2.3 2.3 0 0 1-1.002.208h-2.48zm.576-.922h1.835a.702.702 0 0 0 .317-.07.485.485 0 0 0 .298-.436c0-.172-.053-.3-.159-.387a.609.609 0 0 0-.397-.129h-1.894a.58.58 0 0 0-.397.139.479.479 0 0 0-.149.367c0 .152.05.275.149.367.106.1.238.149.397.149zm.902-3.67c.324 0 .569-.073.734-.219.172-.152.258-.367.258-.644 0-.278-.086-.49-.258-.635-.165-.152-.41-.228-.734-.228-.317 0-.562.076-.734.228-.165.145-.248.357-.248.635 0 .178.037.334.11.466a.685.685 0 0 0 .327.297c.145.067.327.1.545.1z" fill="#454545"/><path fill="#fff" d="M70.446 64.7h71.447v22.307H70.446z"/><path fill="#DDD" d="M70.778 65.031h70.782v21.643H70.778z"/><path stroke="#CCC" stroke-width=".665" d="M70.778 65.031h70.782v21.643H70.778z"/><path d="M95.66 78.973c-.41 0-.77-.06-1.081-.179a1.87 1.87 0 0 1-.784-.595c-.205-.278-.36-.642-.466-1.091-.1-.45-.149-1.002-.149-1.657 0-.661.05-1.213.149-1.657.106-.45.261-.813.466-1.09.212-.278.473-.477.784-.596.31-.119.671-.178 1.081-.178.417 0 .777.059 1.081.178.305.12.56.317.764.595.212.278.367.642.466 1.091.106.444.16.996.16 1.657 0 .655-.054 1.207-.16 1.657-.099.45-.254.813-.466 1.09-.205.272-.46.47-.764.596a2.963 2.963 0 0 1-1.08.179zm0-1.072c.291 0 .513-.076.665-.228.152-.159.258-.397.317-.714.06-.318.09-.714.09-1.19v-.616c0-.482-.03-.882-.09-1.2-.06-.324-.165-.565-.317-.724-.152-.159-.374-.238-.665-.238-.29 0-.516.08-.674.238-.153.159-.258.397-.318.714-.06.311-.09.708-.09 1.19v.616c0 .482.03.886.09 1.21.06.317.165.555.317.714.16.152.384.228.675.228zm5.9 1.072c-.576 0-1.052-.086-1.429-.258-.37-.172-.648-.407-.833-.705a1.98 1.98 0 0 1-.268-1.021c0-.384.09-.708.268-.973.185-.27.463-.486.833-.644-.317-.192-.549-.414-.694-.665a1.791 1.791 0 0 1-.209-.863c0-.37.09-.698.268-.982.179-.291.443-.52.794-.684.35-.166.774-.248 1.27-.248.489 0 .906.082 1.249.247.351.166.619.394.804.685.185.284.278.612.278.982 0 .318-.076.605-.228.863-.146.258-.374.48-.685.665.377.158.655.373.833.644.179.265.268.589.268.973 0 .377-.092.717-.278 1.021-.178.298-.456.533-.833.705-.37.172-.84.258-1.408.258zm0-1.062c.35 0 .621-.09.813-.268.198-.178.298-.423.298-.734 0-.324-.1-.572-.298-.744-.198-.178-.47-.268-.813-.268-.351 0-.625.09-.824.268-.198.172-.297.42-.297.744 0 .311.096.556.287.734.199.179.476.268.834.268zm0-3.055c.297 0 .539-.08.724-.238.185-.159.278-.39.278-.695 0-.304-.093-.535-.278-.694-.179-.165-.42-.248-.724-.248-.311 0-.556.083-.734.248-.179.159-.268.39-.268.694 0 .305.089.536.268.695.178.159.423.238.734.238zm3.895.198v-1.418h1.438v1.418h-1.438zm0 3.8v-1.419h1.438v1.418h-1.438zm5.337.119c-.41 0-.771-.06-1.082-.179a1.868 1.868 0 0 1-.783-.595c-.205-.278-.361-.642-.467-1.091-.099-.45-.148-1.002-.148-1.657 0-.661.049-1.213.148-1.657.106-.45.262-.813.467-1.09.211-.278.473-.477.783-.596.311-.119.672-.178 1.082-.178.416 0 .777.059 1.081.178.304.12.559.317.764.595.211.278.367.642.466 1.091.106.444.159.996.159 1.657 0 .655-.053 1.207-.159 1.657-.099.45-.255.813-.466 1.09-.205.272-.46.47-.764.596a2.964 2.964 0 0 1-1.081.179zm0-1.072c.291 0 .512-.076.664-.228.152-.159.258-.397.318-.714a6.67 6.67 0 0 0 .089-1.19v-.616c0-.482-.03-.882-.089-1.2-.06-.324-.166-.565-.318-.724-.152-.159-.373-.238-.664-.238-.291 0-.516.08-.675.238-.152.159-.258.397-.317.714-.06.311-.09.708-.09 1.19v.616c0 .482.03.886.09 1.21.059.317.165.555.317.714.159.152.384.228.675.228zm5.899 1.072c-.41 0-.77-.06-1.081-.179a1.87 1.87 0 0 1-.784-.595c-.205-.278-.36-.642-.466-1.091-.099-.45-.149-1.002-.149-1.657 0-.661.05-1.213.149-1.657.106-.45.261-.813.466-1.09.212-.278.473-.477.784-.596a3.01 3.01 0 0 1 1.081-.178c.417 0 .777.059 1.081.178.305.12.559.317.764.595.212.278.367.642.466 1.091.106.444.159.996.159 1.657 0 .655-.053 1.207-.159 1.657-.099.45-.254.813-.466 1.09-.205.272-.459.47-.764.596-.304.119-.664.179-1.081.179zm0-1.072c.291 0 .513-.076.665-.228.152-.159.258-.397.317-.714.06-.318.089-.714.089-1.19v-.616c0-.482-.029-.882-.089-1.2-.059-.324-.165-.565-.317-.724-.152-.159-.374-.238-.665-.238-.291 0-.516.08-.674.238-.153.159-.258.397-.318.714a6.57 6.57 0 0 0-.089 1.19v.616c0 .482.03.886.089 1.21.06.317.165.555.318.714.158.152.383.228.674.228zM151.825 78.973c-.33 0-.598-.06-.803-.179a1.07 1.07 0 0 1-.447-.476 1.628 1.628 0 0 1-.138-.675v-2.946h-.645v-1.061h.694l.258-1.488h1.071v1.488h.953v1.061h-.953v2.718c0 .159.037.281.11.367.072.08.191.12.357.12h.486v.912c-.08.026-.172.05-.278.07a2.56 2.56 0 0 1-.337.059c-.119.02-.228.03-.328.03zm4.234 0c-.569 0-1.051-.096-1.448-.288a1.988 1.988 0 0 1-.903-.903c-.205-.41-.307-.922-.307-1.537 0-.629.102-1.141.307-1.538.205-.403.506-.7.903-.893.397-.198.879-.297 1.448-.297.582 0 1.068.099 1.458.297.397.192.698.49.903.893.205.397.307.91.307 1.538 0 .615-.102 1.127-.307 1.537a1.988 1.988 0 0 1-.903.903c-.39.192-.876.288-1.458.288zm0-1.072c.304 0 .546-.056.724-.168a.977.977 0 0 0 .407-.516c.086-.232.129-.516.129-.853v-.238c0-.338-.043-.622-.129-.854a.977.977 0 0 0-.407-.515c-.178-.12-.42-.179-.724-.179-.298 0-.539.06-.724.179a.99.99 0 0 0-.397.515 2.464 2.464 0 0 0-.129.854v.238c0 .337.043.621.129.853a.991.991 0 0 0 .397.516c.185.112.426.168.724.168z" fill="#454545"/><path fill="#fff" d="M166.847 64.7h71.447v22.307h-71.447z"/><path fill="#DDD" d="M167.179 65.031h70.782v21.643h-70.782z"/><path stroke="#CCC" stroke-width=".665" d="M167.179 65.031h70.782v21.643h-70.782z"/><path d="M190.097 78.853v-1.11h1.627v-4.018h-1.637v-.833c.219-.02.47-.07.754-.15.291-.085.582-.188.873-.307a6.68 6.68 0 0 0 .784-.396h.615v5.704h1.518v1.11h-4.534zm7.874.12c-.41 0-.771-.06-1.082-.179a1.868 1.868 0 0 1-.783-.595c-.205-.278-.361-.642-.466-1.091-.1-.45-.149-1.002-.149-1.657 0-.661.049-1.213.149-1.657.105-.45.261-.813.466-1.09.211-.278.473-.477.783-.596.311-.119.672-.178 1.082-.178.416 0 .777.059 1.081.178.304.12.559.317.764.595.211.278.367.642.466 1.091.106.444.159.996.159 1.657 0 .655-.053 1.207-.159 1.657-.099.45-.255.813-.466 1.09-.205.272-.46.47-.764.596a2.964 2.964 0 0 1-1.081.179zm0-1.072c.291 0 .512-.076.664-.228.152-.159.258-.397.318-.714a6.67 6.67 0 0 0 .089-1.19v-.616c0-.482-.03-.882-.089-1.2-.06-.324-.166-.565-.318-.724-.152-.159-.373-.238-.664-.238-.291 0-.516.08-.675.238-.152.159-.258.397-.317.714-.06.311-.09.708-.09 1.19v.616c0 .482.03.886.09 1.21.059.317.165.555.317.714.159.152.384.228.675.228zm3.885-2.847v-1.418h1.439v1.418h-1.439zm0 3.8v-1.419h1.439v1.418h-1.439zm5.337.119c-.41 0-.77-.06-1.081-.179a1.87 1.87 0 0 1-.784-.595c-.205-.278-.36-.642-.466-1.091-.099-.45-.149-1.002-.149-1.657 0-.661.05-1.213.149-1.657.106-.45.261-.813.466-1.09.212-.278.473-.477.784-.596a3.01 3.01 0 0 1 1.081-.178c.417 0 .777.059 1.081.178.304.12.559.317.764.595.212.278.367.642.466 1.091.106.444.159.996.159 1.657 0 .655-.053 1.207-.159 1.657-.099.45-.254.813-.466 1.09-.205.272-.46.47-.764.596-.304.119-.664.179-1.081.179zm0-1.072c.291 0 .512-.076.665-.228.152-.159.257-.397.317-.714.06-.318.089-.714.089-1.19v-.616c0-.482-.029-.882-.089-1.2-.06-.324-.165-.565-.317-.724-.153-.159-.374-.238-.665-.238-.291 0-.516.08-.675.238-.152.159-.258.397-.317.714a6.48 6.48 0 0 0-.089 1.19v.616c0 .482.029.886.089 1.21.059.317.165.555.317.714.159.152.384.228.675.228zm5.899 1.072c-.41 0-.77-.06-1.081-.179a1.861 1.861 0 0 1-.783-.595c-.205-.278-.361-.642-.467-1.091-.099-.45-.148-1.002-.148-1.657 0-.661.049-1.213.148-1.657.106-.45.262-.813.467-1.09a1.76 1.76 0 0 1 .783-.596 3.01 3.01 0 0 1 1.081-.178c.417 0 .778.059 1.082.178.304.12.559.317.764.595.211.278.367.642.466 1.091.106.444.159.996.159 1.657 0 .655-.053 1.207-.159 1.657-.099.45-.255.813-.466 1.09-.205.272-.46.47-.764.596-.304.119-.665.179-1.082.179zm0-1.072c.291 0 .513-.076.665-.228.152-.159.258-.397.318-.714a6.67 6.67 0 0 0 .089-1.19v-.616c0-.482-.03-.882-.089-1.2-.06-.324-.166-.565-.318-.724-.152-.159-.374-.238-.665-.238-.29 0-.515.08-.674.238-.152.159-.258.397-.317.714-.06.311-.09.708-.09 1.19v.616c0 .482.03.886.09 1.21.059.317.165.555.317.714.159.152.384.228.674.228z" fill="#454545"/><path fill="#fff" d="M70.446 98.893h71.447V121.2H70.446z"/><path fill="#454545" d="M70.778 99.225h70.782v21.643H70.778z"/><path stroke="#CCC" stroke-width=".665" d="M70.778 99.225h70.782v21.643H70.778z"/><path d="M97.72 113.166c-.397 0-.774-.04-1.132-.119a3.042 3.042 0 0 1-.952-.377 2.062 2.062 0 0 1-.645-.665c-.152-.271-.228-.598-.228-.982v-.099c0-.04.004-.069.01-.089h1.468a.257.257 0 0 0-.01.079v.089a.85.85 0 0 0 .169.536c.12.146.291.255.516.327.225.073.486.11.784.11.191 0 .36-.01.505-.03.153-.027.285-.06.397-.099.12-.047.215-.1.288-.159a.506.506 0 0 0 .168-.208c.04-.08.06-.169.06-.268a.575.575 0 0 0-.178-.437 1.36 1.36 0 0 0-.477-.287 5.648 5.648 0 0 0-.674-.219c-.252-.066-.51-.132-.774-.198a7.687 7.687 0 0 1-.774-.258 3.287 3.287 0 0 1-.674-.377 1.618 1.618 0 0 1-.476-.555 1.72 1.72 0 0 1-.179-.814c0-.337.07-.628.208-.873.146-.244.348-.446.605-.605.258-.159.556-.274.893-.347a4.824 4.824 0 0 1 1.101-.119c.37 0 .721.04 1.052.119.33.073.621.192.873.357a1.746 1.746 0 0 1 .803 1.518v.119h-1.438v-.08a.686.686 0 0 0-.159-.456 1.049 1.049 0 0 0-.446-.297 1.892 1.892 0 0 0-.675-.11c-.278 0-.516.027-.714.08a.989.989 0 0 0-.446.238.486.486 0 0 0-.15.357c0 .159.057.291.17.397.119.099.277.188.476.268.205.072.433.138.684.198.251.059.51.126.774.198.264.073.522.159.774.258.25.099.476.225.674.377.199.146.357.328.476.546.119.218.179.479.179.783 0 .523-.126.943-.377 1.26-.251.318-.595.549-1.032.695a4.745 4.745 0 0 1-1.498.218zm5.343 0c-.172 0-.357-.02-.555-.06a1.813 1.813 0 0 1-.546-.208 1.26 1.26 0 0 1-.426-.446c-.106-.199-.159-.45-.159-.754 0-.364.079-.665.238-.903.159-.238.384-.423.675-.555a3.587 3.587 0 0 1 1.061-.288c.41-.053.863-.079 1.359-.079v-.387a.937.937 0 0 0-.079-.397.535.535 0 0 0-.258-.268c-.119-.066-.288-.099-.506-.099-.218 0-.397.026-.536.079a.62.62 0 0 0-.288.209.476.476 0 0 0-.079.267v.119h-1.339a.425.425 0 0 1-.01-.089v-.119c0-.304.093-.565.278-.784.185-.224.446-.396.783-.515a3.551 3.551 0 0 1 1.181-.179c.483 0 .886.063 1.21.189.331.125.582.31.754.555.179.245.268.552.268.923v2.37c0 .119.033.209.099.268.073.053.152.08.238.08h.327v.902a1.512 1.512 0 0 1-.307.099c-.139.04-.308.06-.506.06-.192 0-.364-.03-.516-.089a.994.994 0 0 1-.367-.228.89.89 0 0 1-.208-.377h-.07a1.747 1.747 0 0 1-.416.367 1.958 1.958 0 0 1-.566.248 2.737 2.737 0 0 1-.734.089zm.466-1.042c.186 0 .351-.026.496-.079.146-.06.268-.136.368-.228.099-.099.175-.218.228-.357.059-.139.089-.288.089-.447v-.287c-.37 0-.701.026-.992.079-.291.046-.522.129-.694.248a.575.575 0 0 0-.248.496c0 .119.029.222.089.308a.563.563 0 0 0 .258.198c.112.046.248.069.406.069zm5.259.923-1.945-5.218h1.459l.763 2.202c.04.113.086.261.139.447.06.185.119.38.179.585.059.205.109.39.149.555h.049c.047-.152.096-.327.149-.525.053-.205.106-.4.159-.586l.149-.476.763-2.202h1.389l-1.954 5.218h-1.448zm6.446.119c-.575 0-1.058-.096-1.448-.288a1.95 1.95 0 0 1-.883-.902c-.198-.404-.297-.916-.297-1.538 0-.628.099-1.141.297-1.538.199-.403.49-.701.873-.892.39-.199.866-.298 1.429-.298.529 0 .975.096 1.339.288.363.185.638.476.823.873.185.39.278.896.278 1.517v.357h-3.641c.014.305.06.563.139.774a.959.959 0 0 0 .387.476c.179.1.413.149.704.149.159 0 .301-.02.427-.059.132-.04.245-.1.337-.179a.808.808 0 0 0 .218-.297.995.995 0 0 0 .08-.407h1.349c0 .33-.06.618-.179.863a1.72 1.72 0 0 1-.496.615 2.33 2.33 0 0 1-.764.367c-.29.079-.615.119-.972.119zm-1.21-3.293h2.202c0-.199-.026-.371-.079-.516a.917.917 0 0 0-.198-.357.721.721 0 0 0-.318-.199 1.12 1.12 0 0 0-.407-.069c-.251 0-.462.043-.634.129a.845.845 0 0 0-.387.377 1.904 1.904 0 0 0-.179.635z" fill="#fff"/><g filter="url(#c)"><ellipse cx="225.15" cy="120.919" rx="13.105" ry="13.499" fill="#BCBCBC"/></g><path fill="#BCBCBC" fill-opacity=".1" d="M-30.41 261.936 480.094-22.61l.936 1.68-510.504 284.545z"/><ellipse cx="225.149" cy="120.919" rx="11.467" ry="11.812" fill="#292929"/><path d="m219.941 124.686-1.375-7.427h1.656l.682 4.06c.036.209.069.418.098.628.036.202.065.389.086.563.029.166.051.303.065.411h.065l.271-.541c.101-.21.202-.412.303-.607l.26-.519 2.056-3.995h1.722l-4.006 7.427h-1.883zm8.653.129c-.448 0-.866-.036-1.256-.108a3.611 3.611 0 0 1-1.007-.335 1.837 1.837 0 0 1-.682-.596 1.583 1.583 0 0 1-.238-.877c0-.101.007-.209.022-.324.021-.116.043-.217.065-.304h1.602a2.475 2.475 0 0 0-.043.184.824.824 0 0 0-.022.185c0 .187.058.346.173.476.116.13.282.227.498.292.217.065.473.098.769.098.281 0 .527-.022.736-.065.209-.044.386-.105.53-.184a.856.856 0 0 0 .325-.293.684.684 0 0 0 .119-.4.55.55 0 0 0-.151-.39 1.316 1.316 0 0 0-.401-.281 3.382 3.382 0 0 0-.563-.206 12.366 12.366 0 0 0-.66-.184c-.267-.08-.534-.166-.801-.26a3.892 3.892 0 0 1-.736-.368 1.808 1.808 0 0 1-.52-.552 1.59 1.59 0 0 1-.195-.812c0-.411.087-.765.26-1.061.173-.303.408-.552.704-.747a3.228 3.228 0 0 1 1.017-.433c.39-.094.79-.141 1.202-.141.418 0 .801.036 1.147.109.354.065.661.169.92.314.268.144.473.332.618.562.144.224.216.491.216.802 0 .065-.004.137-.011.216a4.152 4.152 0 0 1-.043.314h-1.581a.616.616 0 0 0 .033-.162.487.487 0 0 0 .011-.087c0-.238-.109-.429-.325-.574-.217-.144-.523-.216-.92-.216a2.89 2.89 0 0 0-.834.108 1.286 1.286 0 0 0-.541.281.605.605 0 0 0-.184.444.52.52 0 0 0 .108.325.918.918 0 0 0 .303.227c.137.065.293.127.466.184.18.058.371.112.574.163.281.079.573.169.876.27.303.094.585.221.845.379.26.152.469.347.628.585.158.231.238.516.238.855 0 .462-.094.859-.282 1.191-.18.325-.429.592-.747.801-.31.202-.66.354-1.05.455-.389.094-.794.14-1.212.14z" fill="#fff"/><path d="M263.911 150.484v-5.922h2.417c.616 0 1.139.107 1.571.32.432.213.762.538.993.975.236.432.354.987.354 1.666 0 .674-.118 1.229-.354 1.666a2.2 2.2 0 0 1-.993.976c-.432.213-.955.319-1.571.319h-2.417zm1.286-1.061h1.122c.259 0 .489-.038.691-.113.201-.074.368-.184.5-.328.133-.149.234-.333.303-.552.069-.225.103-.484.103-.777v-.259c0-.294-.034-.55-.103-.768a1.41 1.41 0 0 0-.303-.553 1.231 1.231 0 0 0-.5-.337 1.864 1.864 0 0 0-.691-.12h-1.122v3.807zm6.192 1.165c-.15 0-.311-.017-.484-.052a1.586 1.586 0 0 1-.475-.181 1.102 1.102 0 0 1-.371-.389c-.092-.172-.138-.391-.138-.656 0-.316.069-.578.207-.785.138-.207.334-.369.587-.484.259-.12.567-.204.924-.25a9.298 9.298 0 0 1 1.183-.069v-.337a.805.805 0 0 0-.069-.345.462.462 0 0 0-.225-.233c-.103-.058-.25-.086-.44-.086s-.345.023-.466.069a.537.537 0 0 0-.251.181.411.411 0 0 0-.069.233v.104h-1.165a.39.39 0 0 1-.009-.078v-.104c0-.264.081-.492.242-.682.161-.195.389-.345.682-.449a3.103 3.103 0 0 1 1.027-.155c.42 0 .771.055 1.053.164.288.109.507.271.657.484.155.212.233.48.233.802v2.064c0 .103.028.181.086.233a.343.343 0 0 0 .207.069h.285v.785a1.33 1.33 0 0 1-.268.087c-.12.034-.267.051-.44.051-.167 0-.316-.026-.449-.077a.865.865 0 0 1-.319-.199.76.76 0 0 1-.181-.328h-.061a1.678 1.678 0 0 1-.854.535 2.368 2.368 0 0 1-.639.078zm.405-.906c.162 0 .305-.023.432-.07.127-.051.233-.117.319-.198a.86.86 0 0 0 .199-.311.971.971 0 0 0 .078-.388v-.251c-.323 0-.61.023-.864.069a1.48 1.48 0 0 0-.604.216.503.503 0 0 0-.216.432c0 .103.026.193.078.267a.491.491 0 0 0 .225.173c.097.04.215.061.353.061zm4.758.906c-.288 0-.521-.052-.7-.155a.934.934 0 0 1-.388-.415 1.401 1.401 0 0 1-.121-.587v-2.564h-.561v-.923h.604l.225-1.295h.932v1.295h.829v.923h-.829v2.366c0 .138.032.244.095.319.063.069.167.104.311.104h.423v.794a1.82 1.82 0 0 1-.242.06 2.15 2.15 0 0 1-.293.052 1.783 1.783 0 0 1-.285.026zm3.658 0c-.501 0-.921-.083-1.26-.25a1.698 1.698 0 0 1-.769-.786c-.172-.351-.259-.797-.259-1.338 0-.547.087-.993.259-1.338a1.66 1.66 0 0 1 .76-.777c.34-.173.754-.259 1.243-.259.461 0 .849.084 1.166.25.316.162.555.415.716.76.161.34.242.78.242 1.321v.311h-3.168c.011.264.051.489.12.673a.843.843 0 0 0 .337.414c.156.087.36.13.613.13.138 0 .262-.017.371-.052a.81.81 0 0 0 .294-.155.732.732 0 0 0 .19-.259.867.867 0 0 0 .069-.354h1.174c0 .287-.052.538-.156.751a1.5 1.5 0 0 1-.431.535 2.025 2.025 0 0 1-.665.319 3.213 3.213 0 0 1-.846.104zm-1.053-2.866h1.916c0-.173-.023-.322-.069-.449a.817.817 0 0 0-.172-.311.627.627 0 0 0-.277-.172.952.952 0 0 0-.354-.061 1.24 1.24 0 0 0-.552.112.752.752 0 0 0-.337.328 1.67 1.67 0 0 0-.155.553z" fill="#454545"/><path fill="#fff" d="M241.857 159.99h62.176v19.23h-62.176z"/><path fill="#DDD" d="M242.147 160.279h61.597v18.651h-61.597z"/><path stroke="#CCC" stroke-width=".578" d="M242.147 160.279h61.597v18.651h-61.597z"/><path d="M250.659 172.605v-.966h1.416v-3.497h-1.425v-.725c.19-.017.409-.06.657-.129.253-.075.506-.164.759-.268.253-.109.481-.224.682-.345h.535v4.964h1.321v.966h-3.945zm6.852.104c-.357 0-.671-.052-.941-.155a1.627 1.627 0 0 1-.682-.518c-.179-.242-.314-.559-.406-.95-.086-.391-.129-.872-.129-1.441 0-.576.043-1.057.129-1.442.092-.391.227-.708.406-.95.184-.241.411-.414.682-.518.27-.103.584-.155.941-.155.362 0 .676.052.941.155.264.104.486.277.664.518.185.242.32.559.406.95.092.385.138.866.138 1.442 0 .569-.046 1.05-.138 1.441-.086.391-.221.708-.406.95-.178.236-.4.408-.664.518a2.595 2.595 0 0 1-.941.155zm0-.932c.253 0 .446-.066.578-.199.133-.138.225-.345.276-.621.052-.277.078-.622.078-1.036v-.535c0-.421-.026-.769-.078-1.045-.051-.282-.143-.492-.276-.63-.132-.138-.325-.207-.578-.207-.253 0-.449.069-.587.207-.133.138-.225.345-.276.621a5.657 5.657 0 0 0-.078 1.036v.535c0 .421.026.772.078 1.054.051.276.143.483.276.621.138.133.334.199.587.199zm2.561 1.251 1.77-6.767h.82l-1.77 6.767h-.82zm5.161-.319c-.357 0-.671-.052-.941-.155a1.627 1.627 0 0 1-.682-.518c-.178-.242-.314-.559-.406-.95-.086-.391-.129-.872-.129-1.441 0-.576.043-1.057.129-1.442.092-.391.228-.708.406-.95.184-.241.411-.414.682-.518.27-.103.584-.155.941-.155.362 0 .676.052.941.155.265.104.486.277.664.518.185.242.32.559.406.95.092.385.138.866.138 1.442 0 .569-.046 1.05-.138 1.441-.086.391-.221.708-.406.95a1.575 1.575 0 0 1-.664.518 2.595 2.595 0 0 1-.941.155zm0-.932c.253 0 .446-.066.578-.199.133-.138.225-.345.276-.621.052-.277.078-.622.078-1.036v-.535c0-.421-.026-.769-.078-1.045-.051-.282-.143-.492-.276-.63-.132-.138-.325-.207-.578-.207-.253 0-.449.069-.587.207-.133.138-.225.345-.276.621a5.657 5.657 0 0 0-.078 1.036v.535c0 .421.026.772.078 1.054.051.276.143.483.276.621.138.133.334.199.587.199zm3.425.828v-.966h1.415v-3.497h-1.424v-.725c.19-.017.409-.06.656-.129.253-.075.506-.164.76-.268a5.77 5.77 0 0 0 .682-.345h.535v4.964h1.321v.966h-3.945zm4.279.423 1.769-6.767h.821l-1.77 6.767h-.82zm3.028-.423v-.31c0-.259.046-.495.138-.708.092-.213.219-.409.38-.587a4.99 4.99 0 0 1 .535-.509c.196-.162.397-.317.605-.467.235-.178.457-.354.664-.526.213-.173.386-.357.518-.553a1.18 1.18 0 0 0 .199-.664.761.761 0 0 0-.087-.346.685.685 0 0 0-.276-.285c-.121-.08-.285-.12-.492-.12-.213 0-.388.037-.526.112a.736.736 0 0 0-.32.302.985.985 0 0 0-.103.475v.31h-1.157a1.69 1.69 0 0 1-.026-.31c0-.42.095-.766.285-1.036.195-.271.457-.472.785-.604a3.036 3.036 0 0 1 1.131-.199c.38 0 .697.055.95.164.259.104.466.245.621.423.156.173.265.363.328.57a1.834 1.834 0 0 1-.043 1.329c-.098.225-.23.435-.397.63a4.29 4.29 0 0 1-.596.57c-.23.178-.474.357-.733.535-.133.092-.259.182-.38.268-.115.086-.216.17-.302.25-.081.075-.144.15-.19.225h2.788v1.061h-4.299zm7.275.104c-.357 0-.671-.052-.941-.155a1.627 1.627 0 0 1-.682-.518c-.179-.242-.314-.559-.406-.95-.086-.391-.129-.872-.129-1.441 0-.576.043-1.057.129-1.442.092-.391.227-.708.406-.95.184-.241.411-.414.682-.518.27-.103.584-.155.941-.155.362 0 .676.052.941.155.264.104.486.277.664.518.185.242.32.559.406.95.092.385.138.866.138 1.442 0 .569-.046 1.05-.138 1.441-.086.391-.221.708-.406.95-.178.236-.4.408-.664.518a2.595 2.595 0 0 1-.941.155zm0-.932c.253 0 .446-.066.578-.199.132-.138.225-.345.276-.621.052-.277.078-.622.078-1.036v-.535c0-.421-.026-.769-.078-1.045-.051-.282-.144-.492-.276-.63-.132-.138-.325-.207-.578-.207-.253 0-.449.069-.587.207-.133.138-.225.345-.277.621a5.76 5.76 0 0 0-.077 1.036v.535c0 .421.026.772.077 1.054.052.276.144.483.277.621.138.133.334.199.587.199zm3.001.828v-.31c0-.259.047-.495.139-.708a2.13 2.13 0 0 1 .379-.587 5 5 0 0 1 .536-.509c.195-.162.397-.317.604-.467.236-.178.457-.354.665-.526.213-.173.385-.357.518-.553.132-.201.198-.423.198-.664a.773.773 0 0 0-.086-.346.698.698 0 0 0-.276-.285c-.121-.08-.285-.12-.492-.12-.213 0-.389.037-.527.112a.733.733 0 0 0-.319.302.973.973 0 0 0-.104.475v.31h-1.157a1.488 1.488 0 0 1-.026-.31c0-.42.095-.766.285-1.036.196-.271.458-.472.786-.604.334-.133.71-.199 1.131-.199.379 0 .696.055.949.164.259.104.466.245.622.423.155.173.264.363.328.57a1.85 1.85 0 0 1-.043 1.329 2.503 2.503 0 0 1-.398.63 4.28 4.28 0 0 1-.595.57c-.23.178-.475.357-.734.535l-.38.268c-.115.086-.216.17-.302.25-.08.075-.144.15-.19.225h2.788v1.061h-4.299zm7.62 0v-1.294h-2.667v-.959c.224-.356.434-.733.63-1.13.196-.398.377-.818.544-1.261.173-.443.317-.903.432-1.381h1.234a6.582 6.582 0 0 1-.268.872 9.297 9.297 0 0 1-.379.906c-.144.3-.291.582-.441.846-.143.259-.282.489-.414.691a4.067 4.067 0 0 1-.337.457h1.666v-1.433c.058-.109.116-.227.173-.354a6.944 6.944 0 0 0 .337-.802c.052-.133.092-.256.121-.372h.552v2.961h.76v.959h-.76v1.294h-1.183z" fill="#454545"/><path fill="#fff" d="M241.857 182.113h62.176v19.23h-62.176z"/><path fill="#DDD" d="M242.147 182.402h61.597v18.651h-61.597z"/><path stroke="#CCC" stroke-width=".578" d="M242.147 182.402h61.597v18.651h-61.597z"/><path d="M250.655 194.729v-.967h1.416v-3.496h-1.425v-.726c.19-.017.409-.06.656-.129.254-.075.507-.164.76-.268.253-.109.481-.224.682-.345h.535v4.964h1.321v.967h-3.945zm4.719 0v-.311c0-.259.046-.495.138-.708.093-.213.219-.409.38-.587a4.99 4.99 0 0 1 .535-.509c.196-.162.398-.317.605-.467.236-.178.457-.354.664-.526.213-.173.386-.357.518-.553a1.18 1.18 0 0 0 .199-.664.776.776 0 0 0-.086-.346.694.694 0 0 0-.277-.285c-.12-.08-.284-.12-.492-.12-.213 0-.388.037-.526.112a.741.741 0 0 0-.32.302.985.985 0 0 0-.103.475v.311h-1.157a1.69 1.69 0 0 1-.026-.311c0-.42.095-.766.285-1.036.196-.271.458-.472.786-.604.333-.133.71-.199 1.13-.199.38 0 .697.055.95.164.259.104.466.245.622.423.155.173.264.363.328.57a1.834 1.834 0 0 1-.044 1.329c-.097.225-.23.435-.397.63a4.336 4.336 0 0 1-.595.57c-.231.179-.475.357-.734.535l-.38.268c-.115.086-.216.17-.302.25-.081.075-.144.15-.19.225h2.788v1.062h-4.299zm4.702.423 1.77-6.768h.82l-1.769 6.768h-.821zm5.161-.32c-.357 0-.67-.052-.941-.155a1.633 1.633 0 0 1-.682-.518c-.178-.242-.314-.558-.406-.95-.086-.391-.129-.872-.129-1.441 0-.576.043-1.056.129-1.442.092-.391.228-.708.406-.95.184-.241.412-.414.682-.518.271-.103.584-.155.941-.155.363 0 .676.052.941.155.265.104.486.277.665.518.184.242.319.559.405.95.092.386.139.866.139 1.442 0 .569-.047 1.05-.139 1.441-.086.392-.221.708-.405.95-.179.236-.4.408-.665.518a2.59 2.59 0 0 1-.941.155zm0-.932c.253 0 .446-.066.578-.199.133-.138.225-.345.277-.621.051-.277.077-.622.077-1.036v-.535a5.9 5.9 0 0 0-.077-1.045c-.052-.282-.144-.492-.277-.63-.132-.138-.325-.207-.578-.207-.253 0-.449.069-.587.207-.132.138-.224.345-.276.621a5.657 5.657 0 0 0-.078 1.036v.536c0 .42.026.771.078 1.053.052.276.144.483.276.621.138.133.334.199.587.199zm3.425.829v-.967h1.416v-3.496h-1.425v-.726c.19-.017.409-.06.656-.129a7.92 7.92 0 0 0 .76-.268 5.77 5.77 0 0 0 .682-.345h.535v4.964h1.321v.967h-3.945zm4.279.423 1.77-6.768h.82l-1.77 6.768h-.82zm3.028-.423v-.311c0-.259.046-.495.138-.708.092-.213.219-.409.38-.587a4.99 4.99 0 0 1 .535-.509c.196-.162.398-.317.605-.467.236-.178.457-.354.664-.526.213-.173.386-.357.518-.553a1.18 1.18 0 0 0 .199-.664.776.776 0 0 0-.086-.346.694.694 0 0 0-.277-.285c-.12-.08-.285-.12-.492-.12-.213 0-.388.037-.526.112a.741.741 0 0 0-.32.302.985.985 0 0 0-.103.475v.311h-1.157a1.69 1.69 0 0 1-.026-.311c0-.42.095-.766.285-1.036.196-.271.457-.472.786-.604.333-.133.71-.199 1.13-.199.38 0 .697.055.95.164a1.592 1.592 0 0 1 .95.993 1.834 1.834 0 0 1-.044 1.329c-.097.225-.23.435-.397.63a4.336 4.336 0 0 1-.595.57c-.231.179-.475.357-.734.535l-.38.268c-.115.086-.216.17-.302.25-.081.075-.144.15-.19.225h2.788v1.062h-4.299zm7.275.103c-.357 0-.671-.052-.941-.155a1.633 1.633 0 0 1-.682-.518c-.178-.242-.314-.558-.406-.95-.086-.391-.129-.872-.129-1.441 0-.576.043-1.056.129-1.442.092-.391.228-.708.406-.95.184-.241.412-.414.682-.518.27-.103.584-.155.941-.155.363 0 .676.052.941.155.265.104.486.277.665.518.184.242.319.559.405.95.092.386.138.866.138 1.442 0 .569-.046 1.05-.138 1.441-.086.392-.221.708-.405.95-.179.236-.4.408-.665.518a2.59 2.59 0 0 1-.941.155zm0-.932c.253 0 .446-.066.578-.199.133-.138.225-.345.277-.621.051-.277.077-.622.077-1.036v-.535a5.9 5.9 0 0 0-.077-1.045c-.052-.282-.144-.492-.277-.63-.132-.138-.325-.207-.578-.207-.253 0-.449.069-.587.207-.132.138-.225.345-.276.621a5.657 5.657 0 0 0-.078 1.036v.536c0 .42.026.771.078 1.053.051.276.144.483.276.621.138.133.334.199.587.199zm3.002.829v-.311c0-.259.046-.495.138-.708.092-.213.219-.409.38-.587.161-.179.339-.348.535-.509.196-.162.397-.317.604-.467.236-.178.458-.354.665-.526.213-.173.385-.357.518-.553.132-.201.198-.423.198-.664a.763.763 0 0 0-.086-.346.698.698 0 0 0-.276-.285c-.121-.08-.285-.12-.492-.12-.213 0-.389.037-.527.112a.739.739 0 0 0-.319.302.985.985 0 0 0-.104.475v.311h-1.157a1.69 1.69 0 0 1-.026-.311c0-.42.095-.766.285-1.036.196-.271.458-.472.786-.604a3.036 3.036 0 0 1 1.131-.199c.38 0 .696.055.949.164.259.104.467.245.622.423.155.173.265.363.328.57a1.834 1.834 0 0 1-.043 1.329c-.098.225-.23.435-.397.63a4.347 4.347 0 0 1-.596.57c-.23.179-.475.357-.734.535l-.38.268c-.115.086-.215.17-.302.25-.08.075-.144.15-.19.225h2.789v1.062h-4.299zm7.62 0v-1.295h-2.668v-.959c.225-.356.435-.733.63-1.13.196-.398.377-.818.544-1.261.173-.443.317-.903.432-1.381h1.234a6.723 6.723 0 0 1-.267.872 9.56 9.56 0 0 1-.38.906 14.397 14.397 0 0 1-.855 1.537 4.082 4.082 0 0 1-.336.457h1.666v-1.433c.057-.109.115-.227.172-.354.064-.132.124-.264.182-.397a7.71 7.71 0 0 0 .155-.405c.052-.133.092-.256.121-.372h.552v2.961h.76v.959h-.76v1.295h-1.182z" fill="#454545"/><path fill="#fff" d="M241.857 204.234h62.176v19.23h-62.176z"/><path fill="#DDD" d="M242.147 204.524h61.597v18.651h-61.597z"/><path stroke="#CCC" stroke-width=".578" d="M242.147 204.524h61.597v18.651h-61.597z"/><path d="M250.651 216.85v-.967h1.415v-3.496h-1.424v-.726c.19-.017.409-.06.656-.129a7.92 7.92 0 0 0 .76-.268 5.77 5.77 0 0 0 .682-.345h.535v4.964h1.321v.967h-3.945zm7.197 0v-1.295h-2.668v-.958c.225-.357.435-.734.63-1.131.196-.397.377-.818.544-1.261.173-.443.317-.903.432-1.381h1.234a6.723 6.723 0 0 1-.267.872 9.56 9.56 0 0 1-.38.906 14.397 14.397 0 0 1-.855 1.537 4.208 4.208 0 0 1-.336.458h1.666v-1.433a7.38 7.38 0 0 0 .172-.354c.064-.133.124-.265.182-.398a7.71 7.71 0 0 0 .155-.405c.052-.133.092-.256.121-.371h.552v2.961h.76v.958h-.76v1.295h-1.182zm2.233.423 1.769-6.768h.82l-1.769 6.768h-.82zm5.16-.32c-.357 0-.67-.052-.941-.155a1.64 1.64 0 0 1-.682-.518c-.178-.242-.313-.558-.405-.95-.087-.391-.13-.872-.13-1.441 0-.576.043-1.056.13-1.442.092-.391.227-.708.405-.95.185-.241.412-.414.682-.518.271-.103.584-.155.941-.155.363 0 .676.052.941.155.265.104.486.277.665.518.184.242.319.559.406.95.092.386.138.866.138 1.442 0 .569-.046 1.05-.138 1.441-.087.392-.222.708-.406.95-.179.236-.4.408-.665.518a2.59 2.59 0 0 1-.941.155zm0-.932c.253 0 .446-.066.579-.199.132-.138.224-.345.276-.621.052-.276.078-.622.078-1.036v-.535c0-.42-.026-.769-.078-1.045-.052-.282-.144-.492-.276-.63-.133-.138-.326-.207-.579-.207-.253 0-.449.069-.587.207-.132.138-.224.345-.276.622-.052.27-.078.615-.078 1.035v.536c0 .42.026.771.078 1.053.052.276.144.483.276.621.138.133.334.199.587.199zm3.425.829v-.967h1.416v-3.496h-1.425v-.726c.19-.017.409-.06.656-.129.254-.075.507-.164.76-.268.253-.109.481-.224.682-.345h.535v4.964h1.321v.967h-3.945zm4.279.423 1.77-6.768h.82l-1.77 6.768h-.82zm3.029-.423v-.311c0-.259.046-.495.138-.708a2.13 2.13 0 0 1 .379-.587c.162-.178.34-.348.536-.509.195-.161.397-.317.604-.467.236-.178.457-.353.665-.526.213-.173.385-.357.518-.553.132-.201.198-.423.198-.664a.779.779 0 0 0-.086-.346.69.69 0 0 0-.276-.284c-.121-.081-.285-.121-.492-.121-.213 0-.389.037-.527.112a.733.733 0 0 0-.319.302.973.973 0 0 0-.104.475v.311h-1.157a1.525 1.525 0 0 1-.026-.311c0-.42.095-.766.285-1.036.196-.271.458-.472.786-.604.334-.133.71-.199 1.131-.199.379 0 .696.055.949.164.259.104.466.245.622.423.155.173.264.363.328.57a1.85 1.85 0 0 1-.043 1.329 2.503 2.503 0 0 1-.398.63 4.28 4.28 0 0 1-.595.57c-.23.179-.475.357-.734.535l-.38.268c-.115.086-.216.17-.302.25-.08.075-.144.15-.19.225h2.789v1.062h-4.299zm7.274.103c-.357 0-.67-.052-.941-.155a1.633 1.633 0 0 1-.682-.518c-.178-.242-.313-.558-.405-.95-.087-.391-.13-.872-.13-1.441 0-.576.043-1.056.13-1.442.092-.391.227-.708.405-.95.184-.241.412-.414.682-.518.271-.103.584-.155.941-.155.363 0 .676.052.941.155.265.104.486.277.665.518.184.242.319.559.406.95.092.386.138.866.138 1.442 0 .569-.046 1.05-.138 1.441-.087.392-.222.708-.406.95-.179.236-.4.408-.665.518a2.59 2.59 0 0 1-.941.155zm0-.932c.253 0 .446-.066.579-.199.132-.138.224-.345.276-.621.052-.276.077-.622.077-1.036v-.535c0-.42-.025-.769-.077-1.045-.052-.282-.144-.492-.276-.63-.133-.138-.326-.207-.579-.207-.253 0-.449.069-.587.207-.132.138-.224.345-.276.622-.052.27-.078.615-.078 1.035v.536c0 .42.026.771.078 1.053.052.276.144.483.276.621.138.133.334.199.587.199zm3.002.829v-.311c0-.259.046-.495.138-.708.092-.213.219-.409.38-.587s.339-.348.535-.509c.196-.161.397-.317.604-.467.236-.178.458-.353.665-.526.213-.173.386-.357.518-.553.132-.201.199-.423.199-.664a.767.767 0 0 0-.087-.346.678.678 0 0 0-.276-.284c-.121-.081-.285-.121-.492-.121-.213 0-.389.037-.527.112a.739.739 0 0 0-.319.302.985.985 0 0 0-.104.475v.311h-1.156a1.446 1.446 0 0 1-.026-.311c0-.42.095-.766.285-1.036.195-.271.457-.472.785-.604a3.036 3.036 0 0 1 1.131-.199c.38 0 .696.055.95.164.259.104.466.245.621.423.156.173.265.363.328.57a1.834 1.834 0 0 1-.043 1.329c-.098.225-.23.435-.397.63a4.347 4.347 0 0 1-.596.57c-.23.179-.475.357-.734.535-.132.092-.258.182-.379.268-.115.086-.216.17-.302.25-.081.075-.144.15-.19.225h2.788v1.062h-4.299zm7.62 0v-1.295h-2.668v-.958c.225-.357.435-.734.631-1.131.195-.397.377-.818.543-1.261.173-.443.317-.903.432-1.381h1.235a6.894 6.894 0 0 1-.268.872 9.306 9.306 0 0 1-.38.906 14.397 14.397 0 0 1-.855 1.537 4.208 4.208 0 0 1-.336.458h1.666v-1.433a14.001 14.001 0 0 0 .354-.752 7.71 7.71 0 0 0 .155-.405c.052-.133.092-.256.121-.371h.553v2.961h.759v.958h-.759v1.295h-1.183zM269.674 235.355v-1.234h1.252v1.234h-1.252zm2.647 0v-1.234h1.252v1.234h-1.252zm2.647 0v-1.234h1.252v1.234h-1.252zM330.321 150.588c-.345 0-.673-.035-.984-.104a2.648 2.648 0 0 1-.829-.328 1.787 1.787 0 0 1-.561-.578c-.132-.236-.198-.521-.198-.855v-.086c0-.035.002-.06.008-.078h1.278a.222.222 0 0 0-.009.069v.078c0 .184.049.34.147.466a.928.928 0 0 0 .449.285c.196.063.423.095.682.095.167 0 .313-.009.44-.026.132-.023.248-.052.345-.086a.918.918 0 0 0 .251-.138.433.433 0 0 0 .146-.182.506.506 0 0 0 .052-.233.498.498 0 0 0-.155-.379 1.183 1.183 0 0 0-.414-.251 5.21 5.21 0 0 0-.587-.19 59.29 59.29 0 0 0-.674-.172 6.897 6.897 0 0 1-.673-.225 2.826 2.826 0 0 1-.587-.328 1.407 1.407 0 0 1-.415-.483 1.505 1.505 0 0 1-.155-.708c0-.294.061-.547.181-.76.127-.213.303-.388.527-.526.224-.139.483-.239.777-.303.293-.069.613-.103.958-.103.322 0 .627.034.915.103.288.064.541.167.76.311a1.522 1.522 0 0 1 .699 1.321v.104h-1.252v-.069a.599.599 0 0 0-.138-.398.93.93 0 0 0-.388-.259 1.662 1.662 0 0 0-.587-.094c-.242 0-.449.023-.622.069a.859.859 0 0 0-.388.207.421.421 0 0 0-.13.311c0 .138.049.253.147.345.104.086.242.164.414.233.179.063.377.121.596.173.219.051.443.109.673.172.231.064.455.138.674.225.218.086.414.195.587.328.172.126.31.285.414.474.104.19.155.418.155.682 0 .455-.109.821-.328 1.097a1.864 1.864 0 0 1-.897.604 4.11 4.11 0 0 1-1.304.19zm4.806 0c-.288 0-.521-.052-.699-.155a.93.93 0 0 1-.389-.415 1.417 1.417 0 0 1-.121-.587v-2.564h-.561v-.923h.605l.224-1.295h.932v1.295h.829v.923h-.829v2.366c0 .138.032.244.095.319.064.069.167.104.311.104h.423v.794a1.82 1.82 0 0 1-.242.06 2.15 2.15 0 0 1-.293.052 1.783 1.783 0 0 1-.285.026zm2.795 0c-.15 0-.311-.017-.483-.052a1.586 1.586 0 0 1-.475-.181 1.094 1.094 0 0 1-.371-.389c-.092-.172-.138-.391-.138-.656 0-.316.069-.578.207-.785.138-.207.334-.369.587-.484.259-.12.567-.204.923-.25a9.298 9.298 0 0 1 1.183-.069v-.337a.805.805 0 0 0-.069-.345.46.46 0 0 0-.224-.233c-.104-.058-.251-.086-.441-.086s-.345.023-.466.069a.533.533 0 0 0-.25.181.411.411 0 0 0-.069.233v.104h-1.166a.469.469 0 0 1-.008-.078v-.104c0-.264.08-.492.241-.682.162-.195.389-.345.682-.449a3.105 3.105 0 0 1 1.028-.155c.42 0 .771.055 1.053.164.288.109.506.271.656.484.155.212.233.48.233.802v2.064c0 .103.029.181.086.233a.348.348 0 0 0 .208.069h.284v.785a1.295 1.295 0 0 1-.267.087 1.647 1.647 0 0 1-.44.051 1.24 1.24 0 0 1-.449-.077.869.869 0 0 1-.32-.199.76.76 0 0 1-.181-.328h-.06a1.502 1.502 0 0 1-.363.319 1.655 1.655 0 0 1-.492.216 2.358 2.358 0 0 1-.639.078zm.406-.906c.161 0 .305-.023.431-.07a1.01 1.01 0 0 0 .32-.198.872.872 0 0 0 .198-.311.971.971 0 0 0 .078-.388v-.251c-.322 0-.61.023-.863.069-.253.041-.455.113-.604.216a.503.503 0 0 0-.216.432c0 .103.026.193.077.267a.491.491 0 0 0 .225.173c.098.04.216.061.354.061zm3.402.802v-4.54h.992l.095.708h.061c.057-.15.132-.285.224-.406a.996.996 0 0 1 .829-.415c.098 0 .187.012.268.035.08.017.141.035.181.052v1.087h-.371a1.34 1.34 0 0 0-.475.078.79.79 0 0 0-.337.225c-.092.103-.161.23-.207.379-.04.15-.06.326-.06.527v2.27h-1.2zm4.634.104c-.287 0-.52-.052-.699-.155a.928.928 0 0 1-.388-.415 1.401 1.401 0 0 1-.121-.587v-2.564h-.561v-.923h.604l.224-1.295h.933v1.295h.828v.923h-.828v2.366c0 .138.031.244.095.319.063.069.167.104.31.104h.423v.794a1.802 1.802 0 0 1-.241.06c-.092.023-.19.041-.294.052a1.763 1.763 0 0 1-.285.026z" fill="#454545"/><path fill="#fff" d="M306.296 159.99h62.176v19.23h-62.176z"/><path fill="#DDD" d="M306.585 160.279h61.597v18.651h-61.597z"/><path stroke="#CCC" stroke-width=".578" d="M306.585 160.279h61.597v18.651h-61.597z"/><path d="M328.238 172.709c-.357 0-.67-.052-.941-.155a1.633 1.633 0 0 1-.682-.518c-.178-.242-.313-.559-.405-.95-.087-.391-.13-.872-.13-1.441 0-.576.043-1.057.13-1.442.092-.391.227-.708.405-.95.184-.241.412-.414.682-.518.271-.103.584-.155.941-.155.363 0 .676.052.941.155.265.104.486.277.665.518.184.242.319.559.406.95.092.385.138.866.138 1.442 0 .569-.046 1.05-.138 1.441-.087.391-.222.708-.406.95-.179.236-.4.408-.665.518a2.59 2.59 0 0 1-.941.155zm0-.932c.253 0 .446-.066.579-.199.132-.138.224-.345.276-.621a5.76 5.76 0 0 0 .077-1.036v-.535c0-.421-.025-.769-.077-1.045-.052-.282-.144-.492-.276-.63-.133-.138-.326-.207-.579-.207-.253 0-.449.069-.587.207-.132.138-.224.345-.276.621a5.657 5.657 0 0 0-.078 1.036v.535c0 .421.026.772.078 1.054.052.276.144.483.276.621.138.133.334.199.587.199zm5.134.932c-.501 0-.915-.075-1.243-.224-.322-.15-.564-.354-.725-.613a1.728 1.728 0 0 1-.233-.889c0-.334.078-.616.233-.846.161-.236.403-.423.725-.562-.276-.166-.478-.359-.604-.578a1.556 1.556 0 0 1-.181-.751c0-.322.077-.607.233-.855.155-.253.385-.451.69-.595.305-.144.674-.216 1.105-.216.426 0 .789.072 1.088.216.305.144.538.342.699.595.161.248.242.533.242.855 0 .276-.066.527-.199.751a1.592 1.592 0 0 1-.595.578c.328.139.569.326.725.562.155.23.233.512.233.846 0 .328-.081.624-.242.889-.155.259-.397.463-.725.613-.322.149-.731.224-1.226.224zm0-.924c.305 0 .541-.077.708-.233.173-.155.259-.368.259-.639 0-.282-.086-.497-.259-.647-.173-.155-.409-.233-.708-.233-.305 0-.544.078-.716.233-.173.15-.259.365-.259.647 0 .271.083.484.25.639.173.156.414.233.725.233zm0-2.658c.259 0 .469-.069.63-.208.161-.138.242-.339.242-.604 0-.265-.081-.466-.242-.604-.155-.144-.365-.216-.63-.216-.27 0-.483.072-.639.216-.155.138-.233.339-.233.604 0 .265.078.466.233.604.156.139.369.208.639.208zm3.39.172v-1.234h1.252v1.234h-1.252zm0 3.306v-1.234h1.252v1.234h-1.252zm4.644.104c-.357 0-.67-.052-.941-.155a1.633 1.633 0 0 1-.682-.518c-.178-.242-.313-.559-.406-.95-.086-.391-.129-.872-.129-1.441 0-.576.043-1.057.129-1.442.093-.391.228-.708.406-.95.184-.241.412-.414.682-.518.271-.103.584-.155.941-.155.363 0 .676.052.941.155.265.104.486.277.665.518.184.242.319.559.406.95.092.385.138.866.138 1.442 0 .569-.046 1.05-.138 1.441-.087.391-.222.708-.406.95-.179.236-.4.408-.665.518a2.59 2.59 0 0 1-.941.155zm0-.932c.253 0 .446-.066.579-.199.132-.138.224-.345.276-.621a5.76 5.76 0 0 0 .077-1.036v-.535c0-.421-.025-.769-.077-1.045-.052-.282-.144-.492-.276-.63-.133-.138-.326-.207-.579-.207-.253 0-.449.069-.587.207-.132.138-.224.345-.276.621a5.657 5.657 0 0 0-.078 1.036v.535c0 .421.026.772.078 1.054.052.276.144.483.276.621.138.133.334.199.587.199zm5.134.932c-.357 0-.67-.052-.941-.155a1.633 1.633 0 0 1-.682-.518c-.178-.242-.313-.559-.406-.95-.086-.391-.129-.872-.129-1.441 0-.576.043-1.057.129-1.442.093-.391.228-.708.406-.95.184-.241.412-.414.682-.518.271-.103.584-.155.941-.155.363 0 .676.052.941.155.265.104.486.277.665.518.184.242.319.559.406.95.092.385.138.866.138 1.442 0 .569-.046 1.05-.138 1.441-.087.391-.222.708-.406.95-.179.236-.4.408-.665.518a2.59 2.59 0 0 1-.941.155zm0-.932c.253 0 .446-.066.579-.199.132-.138.224-.345.276-.621a5.76 5.76 0 0 0 .077-1.036v-.535c0-.421-.025-.769-.077-1.045-.052-.282-.144-.492-.276-.63-.133-.138-.326-.207-.579-.207-.253 0-.449.069-.587.207-.132.138-.224.345-.276.621a5.657 5.657 0 0 0-.078 1.036v.535c0 .421.026.772.078 1.054.052.276.144.483.276.621.138.133.334.199.587.199z" fill="#454545"/><path fill="#fff" d="M306.296 182.113h62.176v19.23h-62.176z"/><path fill="#DDD" d="M306.585 182.402h61.597v18.651h-61.597z"/><path stroke="#CCC" stroke-width=".578" d="M306.585 182.402h61.597v18.651h-61.597z"/><path d="M328.238 194.832c-.357 0-.67-.052-.941-.155a1.633 1.633 0 0 1-.682-.518c-.178-.242-.313-.558-.405-.95-.087-.391-.13-.872-.13-1.441 0-.576.043-1.056.13-1.442.092-.391.227-.708.405-.95.184-.241.412-.414.682-.518.271-.103.584-.155.941-.155.363 0 .676.052.941.155.265.104.486.277.665.518.184.242.319.559.406.95.092.386.138.866.138 1.442 0 .569-.046 1.05-.138 1.441-.087.392-.222.708-.406.95-.179.236-.4.408-.665.518a2.59 2.59 0 0 1-.941.155zm0-.932c.253 0 .446-.066.579-.199.132-.138.224-.345.276-.621a5.76 5.76 0 0 0 .077-1.036v-.535c0-.421-.025-.769-.077-1.045-.052-.282-.144-.492-.276-.63-.133-.138-.326-.207-.579-.207-.253 0-.449.069-.587.207-.132.138-.224.345-.276.621a5.657 5.657 0 0 0-.078 1.036v.536c0 .42.026.771.078 1.053.052.276.144.483.276.621.138.133.334.199.587.199zm5.134.932c-.501 0-.915-.075-1.243-.224-.322-.15-.564-.354-.725-.613a1.728 1.728 0 0 1-.233-.889c0-.334.078-.616.233-.846.161-.236.403-.423.725-.562-.276-.166-.478-.359-.604-.578a1.556 1.556 0 0 1-.181-.751c0-.322.077-.607.233-.855.155-.253.385-.451.69-.595.305-.144.674-.216 1.105-.216.426 0 .789.072 1.088.216.305.144.538.342.699.595.161.248.242.533.242.855 0 .276-.066.527-.199.751a1.592 1.592 0 0 1-.595.578c.328.139.569.326.725.562.155.23.233.512.233.846 0 .328-.081.624-.242.889-.155.259-.397.463-.725.613-.322.149-.731.224-1.226.224zm0-.924c.305 0 .541-.077.708-.233.173-.155.259-.368.259-.638 0-.282-.086-.498-.259-.648-.173-.155-.409-.233-.708-.233-.305 0-.544.078-.716.233-.173.15-.259.366-.259.648 0 .27.083.483.25.638.173.156.414.233.725.233zm0-2.658c.259 0 .469-.069.63-.208.161-.138.242-.339.242-.604 0-.265-.081-.466-.242-.604-.155-.144-.365-.216-.63-.216-.27 0-.483.072-.639.216-.155.138-.233.339-.233.604 0 .265.078.466.233.604.156.139.369.208.639.208zm3.39.172v-1.234h1.252v1.234h-1.252zm0 3.307v-1.235h1.252v1.235h-1.252zm4.644.103c-.357 0-.67-.052-.941-.155a1.633 1.633 0 0 1-.682-.518c-.178-.242-.313-.558-.406-.95-.086-.391-.129-.872-.129-1.441 0-.576.043-1.056.129-1.442.093-.391.228-.708.406-.95.184-.241.412-.414.682-.518.271-.103.584-.155.941-.155.363 0 .676.052.941.155.265.104.486.277.665.518.184.242.319.559.406.95.092.386.138.866.138 1.442 0 .569-.046 1.05-.138 1.441-.087.392-.222.708-.406.95-.179.236-.4.408-.665.518a2.59 2.59 0 0 1-.941.155zm0-.932c.253 0 .446-.066.579-.199.132-.138.224-.345.276-.621a5.76 5.76 0 0 0 .077-1.036v-.535c0-.421-.025-.769-.077-1.045-.052-.282-.144-.492-.276-.63-.133-.138-.326-.207-.579-.207-.253 0-.449.069-.587.207-.132.138-.224.345-.276.621a5.657 5.657 0 0 0-.078 1.036v.536c0 .42.026.771.078 1.053.052.276.144.483.276.621.138.133.334.199.587.199zm5.134.932c-.357 0-.67-.052-.941-.155a1.633 1.633 0 0 1-.682-.518c-.178-.242-.313-.558-.406-.95-.086-.391-.129-.872-.129-1.441 0-.576.043-1.056.129-1.442.093-.391.228-.708.406-.95.184-.241.412-.414.682-.518.271-.103.584-.155.941-.155.363 0 .676.052.941.155.265.104.486.277.665.518.184.242.319.559.406.95.092.386.138.866.138 1.442 0 .569-.046 1.05-.138 1.441-.087.392-.222.708-.406.95-.179.236-.4.408-.665.518a2.59 2.59 0 0 1-.941.155zm0-.932c.253 0 .446-.066.579-.199.132-.138.224-.345.276-.621a5.76 5.76 0 0 0 .077-1.036v-.535c0-.421-.025-.769-.077-1.045-.052-.282-.144-.492-.276-.63-.133-.138-.326-.207-.579-.207-.253 0-.449.069-.587.207-.132.138-.224.345-.276.621a5.657 5.657 0 0 0-.078 1.036v.536c0 .42.026.771.078 1.053.052.276.144.483.276.621.138.133.334.199.587.199z" fill="#454545"/><path fill="#fff" d="M306.296 204.234h62.176v19.23h-62.176z"/><path fill="#DDD" d="M306.585 204.524h61.597v18.651h-61.597z"/><path stroke="#CCC" stroke-width=".578" d="M306.585 204.524h61.597v18.651h-61.597z"/><path d="M326.52 216.85v-.967h1.416v-3.496h-1.424v-.726c.19-.017.408-.06.656-.129.253-.075.506-.164.76-.268a5.77 5.77 0 0 0 .682-.345h.535v4.964h1.321v.967h-3.946zm7.197 0v-1.295h-2.667v-.958c.224-.357.435-.734.63-1.131.196-.397.377-.818.544-1.261.173-.443.317-.903.432-1.381h1.234a6.723 6.723 0 0 1-.267.872 9.56 9.56 0 0 1-.38.906c-.144.3-.291.582-.441.846-.143.259-.282.49-.414.691a4.193 4.193 0 0 1-.337.458h1.666v-1.433c.058-.11.116-.228.173-.354a6.944 6.944 0 0 0 .337-.803c.052-.133.092-.256.121-.371h.552v2.961h.76v.958h-.76v1.295h-1.183zm3.054-3.307v-1.234h1.251v1.234h-1.251zm0 3.307v-1.235h1.251v1.235h-1.251zm4.644.103c-.357 0-.671-.052-.941-.155a1.627 1.627 0 0 1-.682-.518c-.179-.242-.314-.558-.406-.95-.086-.391-.13-.872-.13-1.441 0-.576.044-1.056.13-1.442.092-.391.227-.708.406-.95.184-.241.411-.414.682-.518.27-.103.584-.155.941-.155.362 0 .676.052.941.155.264.104.486.277.664.518.184.242.32.559.406.95.092.386.138.866.138 1.442 0 .569-.046 1.05-.138 1.441-.086.392-.222.708-.406.95-.178.236-.4.408-.664.518a2.595 2.595 0 0 1-.941.155zm0-.932c.253 0 .446-.066.578-.199.132-.138.224-.345.276-.621.052-.276.078-.622.078-1.036v-.535c0-.42-.026-.769-.078-1.045-.052-.282-.144-.492-.276-.63-.132-.138-.325-.207-.578-.207-.254 0-.449.069-.587.207-.133.138-.225.345-.277.622a5.74 5.74 0 0 0-.077 1.035v.536c0 .42.026.771.077 1.053.052.276.144.483.277.621.138.133.333.199.587.199zm5.134.932c-.357 0-.671-.052-.941-.155a1.627 1.627 0 0 1-.682-.518c-.179-.242-.314-.558-.406-.95-.086-.391-.13-.872-.13-1.441 0-.576.044-1.056.13-1.442.092-.391.227-.708.406-.95.184-.241.411-.414.682-.518.27-.103.584-.155.941-.155.362 0 .676.052.941.155.264.104.486.277.664.518.184.242.32.559.406.95.092.386.138.866.138 1.442 0 .569-.046 1.05-.138 1.441-.086.392-.222.708-.406.95-.178.236-.4.408-.664.518a2.595 2.595 0 0 1-.941.155zm0-.932c.253 0 .446-.066.578-.199.132-.138.224-.345.276-.621.052-.276.078-.622.078-1.036v-.535c0-.42-.026-.769-.078-1.045-.052-.282-.144-.492-.276-.63-.132-.138-.325-.207-.578-.207-.254 0-.449.069-.587.207-.133.138-.225.345-.277.622a5.74 5.74 0 0 0-.077 1.035v.536c0 .42.026.771.077 1.053.052.276.144.483.277.621.138.133.333.199.587.199zM334.112 235.355v-1.234h1.252v1.234h-1.252zm2.647 0v-1.234h1.252v1.234h-1.252zm2.647 0v-1.234h1.252v1.234h-1.252zM394.31 150.484v-5.922h4.731v1.054h-3.436v1.32h3.039v1.045h-3.039v1.442h3.488v1.061h-4.783zm5.789 0v-4.54h.993l.095.621h.061c.103-.149.227-.279.371-.388a1.69 1.69 0 0 1 .5-.251c.185-.057.386-.086.605-.086.299 0 .561.055.785.164.225.109.397.282.518.518.127.236.19.544.19.924v3.038h-1.2v-2.848a1.09 1.09 0 0 0-.052-.363.57.57 0 0 0-.155-.25.52.52 0 0 0-.242-.147 1.153 1.153 0 0 0-.328-.043.918.918 0 0 0-.82.483c-.08.15-.121.323-.121.518v2.65h-1.2zm6.799.104c-.374 0-.699-.083-.975-.25-.271-.173-.481-.435-.631-.786-.149-.351-.224-.8-.224-1.347 0-.546.075-.992.224-1.338.156-.351.366-.61.631-.777.27-.166.581-.25.932-.25.196 0 .377.023.544.069.172.04.322.107.449.199.132.092.244.204.336.336h.052v-2.201h1.2v6.241h-.984l-.095-.613h-.06c-.15.242-.346.423-.587.544a1.87 1.87 0 0 1-.812.173zm.38-.984c.224 0 .406-.052.544-.156a.9.9 0 0 0 .319-.448c.069-.196.104-.429.104-.7v-.155c0-.201-.02-.386-.061-.553a1.05 1.05 0 0 0-.172-.414.781.781 0 0 0-.302-.259.924.924 0 0 0-.432-.095c-.242 0-.435.049-.578.147a.768.768 0 0 0-.311.432 2.269 2.269 0 0 0-.095.716v.199c0 .287.031.526.095.716.063.19.167.334.311.432.143.092.336.138.578.138z" fill="#454545"/><path fill="#fff" d="M370.734 159.99h62.176v19.23h-62.176z"/><path fill="#DDD" d="M371.024 160.279h61.597v18.651h-61.597z"/><path stroke="#CCC" stroke-width=".578" d="M371.024 160.279h61.597v18.651h-61.597z"/><path d="M390.968 172.605v-.966h1.416v-3.497h-1.425v-.725c.19-.017.409-.06.656-.129.254-.075.507-.164.76-.268.253-.109.481-.224.682-.345h.535v4.964h1.321v.966h-3.945zm6.852.104c-.357 0-.671-.052-.941-.155a1.627 1.627 0 0 1-.682-.518c-.179-.242-.314-.559-.406-.95-.086-.391-.13-.872-.13-1.441 0-.576.044-1.057.13-1.442.092-.391.227-.708.406-.95.184-.241.411-.414.682-.518.27-.103.584-.155.941-.155.362 0 .676.052.94.155.265.104.487.277.665.518.184.242.32.559.406.95.092.385.138.866.138 1.442 0 .569-.046 1.05-.138 1.441-.086.391-.222.708-.406.95-.178.236-.4.408-.665.518a2.585 2.585 0 0 1-.94.155zm0-.932c.253 0 .446-.066.578-.199.132-.138.224-.345.276-.621.052-.277.078-.622.078-1.036v-.535c0-.421-.026-.769-.078-1.045-.052-.282-.144-.492-.276-.63-.132-.138-.325-.207-.578-.207-.254 0-.449.069-.587.207-.133.138-.225.345-.277.621a5.76 5.76 0 0 0-.077 1.036v.535c0 .421.026.772.077 1.054.052.276.144.483.277.621.138.133.333.199.587.199zm3.381-2.478v-1.234h1.252v1.234h-1.252zm0 3.306v-1.234h1.252v1.234h-1.252zm4.644.104c-.357 0-.67-.052-.941-.155a1.633 1.633 0 0 1-.682-.518c-.178-.242-.313-.559-.406-.95-.086-.391-.129-.872-.129-1.441 0-.576.043-1.057.129-1.442.093-.391.228-.708.406-.95.184-.241.412-.414.682-.518.271-.103.584-.155.941-.155.363 0 .676.052.941.155.265.104.486.277.665.518.184.242.319.559.405.95.093.385.139.866.139 1.442 0 .569-.046 1.05-.139 1.441-.086.391-.221.708-.405.95-.179.236-.4.408-.665.518a2.59 2.59 0 0 1-.941.155zm0-.932c.253 0 .446-.066.578-.199.133-.138.225-.345.277-.621a5.76 5.76 0 0 0 .077-1.036v-.535c0-.421-.025-.769-.077-1.045-.052-.282-.144-.492-.277-.63-.132-.138-.325-.207-.578-.207-.253 0-.449.069-.587.207-.132.138-.224.345-.276.621a5.657 5.657 0 0 0-.078 1.036v.535c0 .421.026.772.078 1.054.052.276.144.483.276.621.138.133.334.199.587.199zm5.134.932c-.357 0-.67-.052-.941-.155a1.633 1.633 0 0 1-.682-.518c-.178-.242-.313-.559-.406-.95-.086-.391-.129-.872-.129-1.441 0-.576.043-1.057.129-1.442.093-.391.228-.708.406-.95.184-.241.412-.414.682-.518.271-.103.584-.155.941-.155.363 0 .676.052.941.155.265.104.486.277.665.518.184.242.319.559.405.95.093.385.139.866.139 1.442 0 .569-.046 1.05-.139 1.441-.086.391-.221.708-.405.95-.179.236-.4.408-.665.518a2.59 2.59 0 0 1-.941.155zm0-.932c.253 0 .446-.066.578-.199.133-.138.225-.345.277-.621a5.76 5.76 0 0 0 .077-1.036v-.535c0-.421-.025-.769-.077-1.045-.052-.282-.144-.492-.277-.63-.132-.138-.325-.207-.578-.207-.253 0-.449.069-.587.207-.132.138-.224.345-.276.621a5.657 5.657 0 0 0-.078 1.036v.535c0 .421.026.772.078 1.054.052.276.144.483.276.621.138.133.334.199.587.199z" fill="#454545"/><path fill="#fff" d="M370.734 182.113h62.176v19.23h-62.176z"/><path fill="#DDD" d="M371.024 182.402h61.597v18.651h-61.597z"/><path stroke="#CCC" stroke-width=".578" d="M371.024 182.402h61.597v18.651h-61.597z"/><path d="M390.964 194.729v-.967h1.415v-3.496h-1.424v-.726c.19-.017.409-.06.656-.129a7.92 7.92 0 0 0 .76-.268 5.77 5.77 0 0 0 .682-.345h.535v4.964h1.321v.967h-3.945zm4.719 0v-.311c0-.259.046-.495.138-.708.092-.213.219-.409.38-.587a4.99 4.99 0 0 1 .535-.509c.196-.162.397-.317.605-.467.236-.178.457-.354.664-.526.213-.173.386-.357.518-.553a1.18 1.18 0 0 0 .199-.664.764.764 0 0 0-.087-.346.685.685 0 0 0-.276-.285c-.121-.08-.285-.12-.492-.12-.213 0-.388.037-.526.112a.736.736 0 0 0-.32.302.985.985 0 0 0-.103.475v.311h-1.157a1.69 1.69 0 0 1-.026-.311c0-.42.095-.766.285-1.036.195-.271.457-.472.785-.604a3.036 3.036 0 0 1 1.131-.199c.38 0 .697.055.95.164.259.104.466.245.621.423.156.173.265.363.328.57a1.834 1.834 0 0 1-.043 1.329c-.098.225-.23.435-.397.63a4.29 4.29 0 0 1-.596.57c-.23.179-.474.357-.733.535-.133.092-.259.182-.38.268-.115.086-.216.17-.302.25-.081.075-.144.15-.19.225h2.788v1.062h-4.299zm5.522-3.307v-1.234h1.252v1.234h-1.252zm0 3.307v-1.235h1.252v1.235h-1.252zm4.644.103a2.64 2.64 0 0 1-.941-.155 1.64 1.64 0 0 1-.682-.518c-.178-.242-.313-.558-.405-.95-.087-.391-.13-.872-.13-1.441 0-.576.043-1.056.13-1.442.092-.391.227-.708.405-.95.185-.241.412-.414.682-.518a2.64 2.64 0 0 1 .941-.155c.363 0 .677.052.941.155.265.104.487.277.665.518.184.242.319.559.406.95.092.386.138.866.138 1.442 0 .569-.046 1.05-.138 1.441-.087.392-.222.708-.406.95-.178.236-.4.408-.665.518a2.587 2.587 0 0 1-.941.155zm0-.932c.254 0 .446-.066.579-.199.132-.138.224-.345.276-.621.052-.277.078-.622.078-1.036v-.535c0-.421-.026-.769-.078-1.045-.052-.282-.144-.492-.276-.63-.133-.138-.325-.207-.579-.207-.253 0-.449.069-.587.207-.132.138-.224.345-.276.621a5.657 5.657 0 0 0-.078 1.036v.536c0 .42.026.771.078 1.053.052.276.144.483.276.621.138.133.334.199.587.199zm5.134.932a2.64 2.64 0 0 1-.941-.155 1.64 1.64 0 0 1-.682-.518c-.178-.242-.313-.558-.405-.95-.087-.391-.13-.872-.13-1.441 0-.576.043-1.056.13-1.442.092-.391.227-.708.405-.95.185-.241.412-.414.682-.518a2.64 2.64 0 0 1 .941-.155c.363 0 .677.052.941.155.265.104.487.277.665.518.184.242.319.559.406.95.092.386.138.866.138 1.442 0 .569-.046 1.05-.138 1.441-.087.392-.222.708-.406.95-.178.236-.4.408-.665.518a2.587 2.587 0 0 1-.941.155zm0-.932c.254 0 .446-.066.579-.199.132-.138.224-.345.276-.621.052-.277.078-.622.078-1.036v-.535c0-.421-.026-.769-.078-1.045-.052-.282-.144-.492-.276-.63-.133-.138-.325-.207-.579-.207-.253 0-.449.069-.587.207-.132.138-.224.345-.276.621a5.657 5.657 0 0 0-.078 1.036v.536c0 .42.026.771.078 1.053.052.276.144.483.276.621.138.133.334.199.587.199z" fill="#454545"/><path fill="#fff" d="M370.734 204.234h62.176v19.23h-62.176z"/><path fill="#DDD" d="M371.024 204.524h61.597v18.651h-61.597z"/><path stroke="#CCC" stroke-width=".578" d="M371.024 204.524h61.597v18.651h-61.597z"/><path d="M390.964 216.85v-.967h1.415v-3.496h-1.424v-.726c.19-.017.409-.06.656-.129a7.92 7.92 0 0 0 .76-.268 5.77 5.77 0 0 0 .682-.345h.535v4.964h1.321v.967h-3.945zm6.964.103c-.363 0-.685-.052-.967-.155a1.739 1.739 0 0 1-.708-.492c-.196-.225-.343-.521-.44-.889-.098-.374-.147-.829-.147-1.364 0-.605.049-1.114.147-1.528.097-.415.238-.746.423-.993.19-.253.423-.435.699-.544.276-.109.595-.164.958-.164.437 0 .8.081 1.088.242.293.161.509.383.647.665.144.276.216.598.216.966h-1.165c0-.201-.029-.371-.087-.509a.657.657 0 0 0-.267-.328.856.856 0 0 0-.458-.112c-.27 0-.478.072-.621.216-.139.138-.233.342-.285.613-.046.27-.072.598-.078.984.058-.058.144-.127.259-.208.121-.08.27-.149.449-.207.178-.063.371-.095.578-.095.409 0 .751.084 1.028.251.282.161.492.385.63.673.138.288.207.622.207 1.001 0 .409-.092.763-.276 1.062a1.808 1.808 0 0 1-.743.682c-.311.156-.673.233-1.087.233zm-.044-.932a.973.973 0 0 0 .527-.13.849.849 0 0 0 .311-.371c.069-.161.103-.339.103-.535 0-.207-.034-.388-.103-.544a.798.798 0 0 0-.311-.362.925.925 0 0 0-.527-.139.948.948 0 0 0-.526.139.798.798 0 0 0-.311.362 1.333 1.333 0 0 0-.104.544c0 .201.035.383.104.544a.798.798 0 0 0 .311.362c.144.087.319.13.526.13zm3.321-2.478v-1.234h1.252v1.234h-1.252zm0 3.307v-1.235h1.252v1.235h-1.252zm4.644.103a2.64 2.64 0 0 1-.941-.155 1.64 1.64 0 0 1-.682-.518c-.178-.242-.313-.558-.405-.95-.087-.391-.13-.872-.13-1.441 0-.576.043-1.056.13-1.442.092-.391.227-.708.405-.95.185-.241.412-.414.682-.518a2.64 2.64 0 0 1 .941-.155c.363 0 .677.052.941.155.265.104.487.277.665.518.184.242.319.559.406.95.092.386.138.866.138 1.442 0 .569-.046 1.05-.138 1.441-.087.392-.222.708-.406.95-.178.236-.4.408-.665.518a2.587 2.587 0 0 1-.941.155zm0-.932c.254 0 .446-.066.579-.199.132-.138.224-.345.276-.621.052-.276.078-.622.078-1.036v-.535c0-.42-.026-.769-.078-1.045-.052-.282-.144-.492-.276-.63-.133-.138-.325-.207-.579-.207-.253 0-.449.069-.587.207-.132.138-.224.345-.276.622-.052.27-.078.615-.078 1.035v.536c0 .42.026.771.078 1.053.052.276.144.483.276.621.138.133.334.199.587.199zm5.134.932a2.64 2.64 0 0 1-.941-.155 1.64 1.64 0 0 1-.682-.518c-.178-.242-.313-.558-.405-.95-.087-.391-.13-.872-.13-1.441 0-.576.043-1.056.13-1.442.092-.391.227-.708.405-.95.185-.241.412-.414.682-.518a2.64 2.64 0 0 1 .941-.155c.363 0 .677.052.941.155.265.104.487.277.665.518.184.242.319.559.406.95.092.386.138.866.138 1.442 0 .569-.046 1.05-.138 1.441-.087.392-.222.708-.406.95-.178.236-.4.408-.665.518a2.587 2.587 0 0 1-.941.155zm0-.932c.254 0 .446-.066.579-.199.132-.138.224-.345.276-.621.052-.276.078-.622.078-1.036v-.535c0-.42-.026-.769-.078-1.045-.052-.282-.144-.492-.276-.63-.133-.138-.325-.207-.579-.207-.253 0-.449.069-.587.207-.132.138-.224.345-.276.622-.052.27-.078.615-.078 1.035v.536c0 .42.026.771.078 1.053.052.276.144.483.276.621.138.133.334.199.587.199zM398.551 235.355v-1.234h1.252v1.234h-1.252zm2.647 0v-1.234h1.252v1.234h-1.252zm2.647 0v-1.234h1.252v1.234h-1.252z" fill="#454545"/></g></g><defs><clipPath id="a"><path fill="#fff" transform="translate(0 .596)" d="M0 0h440v247.084H0z"/></clipPath><clipPath id="b"><path fill="#fff" transform="translate(.95 .596)" d="M0 0h439.591v247.084H0z"/></clipPath><filter id="c" x="193.419" y="88.794" width="63.462" height="64.251" filterUnits="userSpaceOnUse" color-interpolation-filters="sRGB"><feFlood flood-opacity="0" result="BackgroundImageFix"/><feColorMatrix in="SourceAlpha" values="0 0 0 0 0 0 0 0 0 0 0 0 0 0 0 0 0 0 127 0" result="hardAlpha"/><feOffset/><feGaussianBlur stdDeviation="9.313"/><feComposite in2="hardAlpha" operator="out"/><feColorMatrix values="0 0 0 0 0 0 0 0 0 0 0 0 0 0 0 0 0 0 0.3 0"/><feBlend in2="BackgroundImageFix" result="effect1_dropShadow_10379_51657"/><feBlend in="SourceGraphic" in2="effect1_dropShadow_10379_51657" result="shape"/></filter></defs></svg>