<svg width="440" height="248" viewBox="0 0 440 248" fill="none" xmlns="http://www.w3.org/2000/svg">
<g clip-path="url(#clip0_10379_51765)">
<rect width="440" height="247.084" transform="translate(0 0.679688)" fill="#F0F0F0"/>
<path d="M287.767 181.723L222.099 152.62C211.414 147.885 208.544 134.02 216.477 125.433L267.997 69.6654C274.397 62.7386 285.195 62.3171 292.117 68.7105C299.041 75.1067 299.468 85.9059 293.072 92.83L257.738 131.077L301.597 150.515L287.767 181.723Z" fill="#454545"/>
<path d="M315.096 145.461L351.001 144.725C361.464 144.511 371.119 150.15 376.102 159.267L363.032 156.839L432.162 187.459C443.411 192.441 446.434 207.035 438.086 216.075L383.867 274.79C377.132 282.083 365.766 282.529 358.478 275.801C351.188 269.07 350.736 257.702 357.468 250.412L394.652 210.144L348.481 189.693L372.33 207.834L344.268 238.223C330.804 252.803 331.71 275.537 346.29 289.001C355.371 297.385 367.608 300.171 378.806 297.576V495.824C378.806 508.421 368.593 518.633 355.997 518.633C343.4 518.633 333.188 508.421 333.188 495.824V324.219L315.449 324.5V495.823C315.449 503.385 317.525 510.46 321.131 516.52C318.225 517.861 315.002 518.631 311.59 518.631C298.993 518.631 288.276 508.419 288.276 495.822V174.766C288.253 158.601 299.982 145.48 315.096 145.461Z" fill="#454545"/>
<g clip-path="url(#clip1_10379_51765)">
<circle cx="333.161" cy="99.1941" r="40.2084" fill="#454545" stroke="black" stroke-width="1.23718"/>
<path d="M337.633 56.5474C326.32 55.3615 315 58.7181 306.163 65.8786C297.325 73.0391 291.694 83.4171 290.508 94.7294C289.322 106.042 292.679 117.362 299.84 126.199C307 135.037 317.378 140.668 328.69 141.854C340.003 143.04 351.323 139.683 360.16 132.523C368.998 125.362 374.629 114.984 375.815 103.672C377.001 92.3595 373.644 81.0394 366.484 72.2019C359.323 63.3643 348.945 57.7332 337.633 56.5474ZM326.002 90.3648C325.854 91.7789 325.15 93.0761 324.046 93.9712C322.941 94.8662 321.526 95.2858 320.112 95.1376C318.698 94.9893 317.401 94.2855 316.506 93.1808C315.61 92.0761 315.191 90.6611 315.339 89.247C315.487 87.833 316.191 86.5357 317.296 85.6407C318.401 84.7456 319.816 84.326 321.23 84.4743C322.644 84.6225 323.941 85.3264 324.836 86.4311C325.731 87.5358 326.151 88.9508 326.002 90.3648ZM347.888 87.2688C349.302 87.417 350.599 88.1209 351.494 89.2256C352.389 90.3303 352.809 91.7453 352.661 93.1593C352.512 94.5734 351.809 95.8706 350.704 96.7657C349.599 97.6607 348.184 98.0803 346.77 97.9321C345.356 97.7838 344.059 97.08 343.164 95.9753C342.269 94.8706 341.849 93.4556 341.997 92.0415C342.146 90.6275 342.85 89.3302 343.954 88.4352C345.059 87.5401 346.474 87.1205 347.888 87.2688ZM346.988 111.431L351.238 111.876C351.945 111.95 352.593 112.302 353.041 112.854C353.488 113.407 353.698 114.114 353.624 114.821C353.55 115.528 353.198 116.177 352.646 116.624C352.093 117.072 351.386 117.282 350.679 117.208L346.429 116.762C340.687 116.16 334.895 117.273 329.784 119.955C329.471 120.131 329.127 120.242 328.77 120.282C328.414 120.322 328.053 120.291 327.709 120.189C327.365 120.087 327.045 119.917 326.768 119.69C326.491 119.462 326.263 119.181 326.096 118.863C325.93 118.546 325.828 118.198 325.799 117.841C325.769 117.483 325.811 117.124 325.923 116.783C326.035 116.442 326.214 116.127 326.45 115.857C326.685 115.587 326.973 115.366 327.295 115.209C333.342 112.032 340.195 110.717 346.988 111.431Z" fill="#454545"/>
</g>
<g filter="url(#filter0_d_10379_51765)">
<path d="M145.209 134.522L139.637 165.102L170.217 170.674L175.789 140.094L145.209 134.522Z" fill="#BCBCBC"/>
<path d="M175.811 140.125L166.343 132.743L135.849 127.187L130.211 157.738L139.621 165.038L145.178 134.544L175.811 140.125Z" fill="#454545"/>
<path d="M135.849 127.187L166.343 132.743L175.811 140.125L145.178 134.544M135.849 127.187L145.178 134.544M135.849 127.187L130.211 157.738L139.621 165.038L145.178 134.544M145.209 134.522L139.637 165.102L170.217 170.674L175.789 140.094L145.209 134.522Z" stroke="url(#paint0_linear_10379_51765)" stroke-width="0.199253"/>
</g>
<rect x="0.679485" y="-0.679485" width="55.7178" height="55.7178" transform="matrix(1 0 0 -1 124.161 175.813)" stroke="#DDDDDD" stroke-width="1.35897" stroke-dasharray="9.51 9.51"/>
<path d="M124.84 120.773L81.353 135.722" stroke="#DDDDDD" stroke-width="1.35897" stroke-dasharray="4.08 4.08"/>
<path d="M124.84 120.772L111.25 75.9258" stroke="#DDDDDD" stroke-width="1.35897" stroke-dasharray="4.08 4.08"/>
<path d="M180.558 120.774L183.955 82.7227" stroke="#DDDDDD" stroke-width="1.35897" stroke-dasharray="4.08 4.08"/>
<rect x="73.1985" y="194.158" width="31.2563" height="31.2563" rx="15.6282" stroke="#DDDDDD" stroke-width="1.35897" stroke-dasharray="6.79 6.79"/>
<path d="M88.8268 200.271C87.5775 200.271 86.3405 200.518 85.1864 200.996C84.0322 201.474 82.9835 202.174 82.1002 203.058C80.3162 204.842 79.314 207.261 79.314 209.784C79.314 212.307 80.3162 214.727 82.1002 216.511C82.9835 217.394 84.0322 218.095 85.1864 218.573C86.3405 219.051 87.5775 219.297 88.8268 219.297C91.3497 219.297 93.7693 218.295 95.5533 216.511C97.3373 214.727 98.3396 212.307 98.3396 209.784C98.3396 208.535 98.0935 207.298 97.6154 206.144C97.1374 204.99 96.4367 203.941 95.5533 203.058C94.67 202.174 93.6213 201.474 92.4671 200.996C91.313 200.518 90.076 200.271 88.8268 200.271ZM92.8221 213.78L87.8755 210.736V205.028H89.3024V209.975L93.5832 212.543L92.8221 213.78Z" fill="#454545"/>
<path d="M100.081 198.591L125.138 176.135" stroke="#DDDDDD" stroke-width="1.35897" stroke-dasharray="4.08 4.08"/>
<rect x="50.0965" y="120.773" width="31.2563" height="31.2563" rx="15.6282" stroke="#DDDDDD" stroke-width="1.35897" stroke-dasharray="6.79 6.79"/>
<path d="M61.8413 136.059V144.166C61.8413 144.681 62.0458 145.175 62.4099 145.539C62.774 145.903 63.2678 146.107 63.7827 146.107H67.6654C68.1803 146.107 68.6741 145.903 69.0382 145.539C69.4023 145.175 69.6068 144.681 69.6068 144.166V136.059C70.6426 135.523 72.5189 134.187 72.5189 131.547V129.605H58.9292V131.547C58.9292 134.187 60.8055 135.523 61.8413 136.059ZM64.7534 135.43H66.6947V138.342H64.7534V135.43ZM58.9292 126.693H72.5189V128.635H58.9292V126.693Z" fill="#454545"/>
<rect x="93.5833" y="44.6717" width="31.2563" height="31.2563" rx="15.6282" stroke="#DDDDDD" stroke-width="1.35897" stroke-dasharray="6.79 6.79"/>
<path d="M102.498 69.9493L104.265 62.3119L98.3398 57.175L106.168 56.4955L109.212 49.293L112.256 56.4955L120.083 57.175L114.158 62.3119L115.925 69.9493L109.212 65.8996L102.498 69.9493Z" fill="#454545"/>
<rect x="166.968" y="48.7463" width="33.9743" height="33.9743" rx="16.9871" stroke="#DDDDDD" stroke-width="1.35897" stroke-dasharray="6.79 6.79"/>
<path d="M189.634 61.0999L186.903 63.8306V67.6416L189.634 70.3723C189.703 70.4408 189.757 70.522 189.794 70.6115C189.831 70.7009 189.85 70.7968 189.85 70.8936C189.85 70.9904 189.831 71.0862 189.794 71.1757C189.757 71.2651 189.703 71.3464 189.634 71.4148C189.566 71.4833 189.485 71.5376 189.395 71.5746C189.306 71.6117 189.21 71.6308 189.113 71.6308C189.016 71.6308 188.92 71.6117 188.831 71.5746C188.741 71.5376 188.66 71.4833 188.592 71.4148L185.861 68.6832H182.05L179.319 71.4148C179.181 71.5531 178.994 71.6308 178.798 71.6308C178.603 71.6308 178.415 71.5531 178.277 71.4148C178.139 71.2766 178.061 71.0891 178.061 70.8936C178.061 70.6981 178.139 70.5105 178.277 70.3723L181.008 67.6416V63.8306L178.277 61.0999C178.139 60.9616 178.061 60.7741 178.061 60.5786C178.061 60.3831 178.139 60.1956 178.277 60.0573C178.415 59.9191 178.603 59.8414 178.798 59.8414C178.994 59.8414 179.181 59.9191 179.319 60.0573L182.05 62.789H185.861L188.592 60.0573C188.73 59.9191 188.918 59.8414 189.113 59.8414C189.309 59.8414 189.496 59.9191 189.634 60.0573C189.773 60.1956 189.85 60.3831 189.85 60.5786C189.85 60.7741 189.773 60.9616 189.634 61.0999ZM185.372 60.5363C185.556 60.6014 185.759 60.5908 185.935 60.5067C186.111 60.4226 186.247 60.2719 186.312 60.0877C186.458 59.6772 186.705 59.3102 187.03 59.0209C187.356 58.7316 187.749 58.5294 188.174 58.4333C188.599 58.3372 189.041 58.3502 189.459 58.4712C189.878 58.5921 190.259 58.8171 190.567 59.125C190.875 59.433 191.1 59.8139 191.22 60.2323C191.341 60.6507 191.354 61.0928 191.258 61.5176C191.162 61.9424 190.96 62.3359 190.671 62.6614C190.381 62.987 190.014 63.2339 189.604 63.3793C189.437 63.4349 189.295 63.5485 189.204 63.6996C189.114 63.8507 189.08 64.0292 189.11 64.2028C189.14 64.3765 189.231 64.5337 189.367 64.646C189.502 64.7583 189.674 64.8183 189.85 64.8151C189.934 64.8153 190.017 64.8009 190.096 64.7728C190.741 64.5444 191.318 64.1563 191.772 63.6448C192.227 63.1332 192.545 62.5148 192.696 61.8473C192.847 61.1798 192.827 60.4849 192.636 59.8274C192.446 59.1699 192.093 58.5712 191.609 58.0873C191.125 57.6033 190.526 57.2498 189.869 57.0598C189.211 56.8697 188.516 56.8493 187.849 57.0004C187.181 57.1515 186.563 57.4692 186.051 57.9238C185.54 58.3785 185.152 58.9554 184.923 59.6005C184.86 59.7841 184.871 59.9855 184.955 60.1607C185.039 60.336 185.189 60.471 185.372 60.5363ZM190.096 66.7068C189.913 66.6455 189.713 66.6586 189.539 66.7433C189.365 66.828 189.232 66.9775 189.167 67.1596C189.103 67.3417 189.113 67.5418 189.194 67.7169C189.276 67.892 189.423 68.028 189.604 68.0956C190.014 68.241 190.381 68.488 190.671 68.8135C190.96 69.1391 191.162 69.5326 191.258 69.9573C191.354 70.3821 191.341 70.8243 191.22 71.2427C191.1 71.6611 190.875 72.042 190.567 72.3499C190.259 72.6579 189.878 72.8828 189.459 73.0038C189.041 73.1247 188.599 73.1378 188.174 73.0416C187.749 72.9455 187.356 72.7434 187.03 72.4541C186.705 72.1648 186.458 71.7977 186.312 71.3872C186.245 71.2063 186.109 71.0591 185.934 70.9775C185.759 70.8958 185.558 70.8862 185.376 70.9507C185.194 71.0152 185.045 71.1486 184.96 71.3222C184.875 71.4959 184.862 71.6958 184.923 71.879C185.152 72.5242 185.54 73.101 186.051 73.5557C186.563 74.0104 187.181 74.3281 187.849 74.4792C188.516 74.6303 189.211 74.6098 189.869 74.4198C190.526 74.2297 191.125 73.8762 191.609 73.3923C192.093 72.9083 192.446 72.3097 192.636 71.6522C192.827 70.9947 192.847 70.2998 192.696 69.6323C192.545 68.9647 192.227 68.3463 191.772 67.8348C191.318 67.3232 190.741 66.9352 190.096 66.7068ZM182.544 70.9433C182.36 70.8781 182.157 70.8887 181.981 70.9729C181.804 71.057 181.669 71.2077 181.603 71.3918C181.458 71.8024 181.211 72.1694 180.885 72.4587C180.56 72.748 180.166 72.9501 179.742 73.0462C179.317 73.1424 178.875 73.1293 178.456 73.0084C178.038 72.8874 177.657 72.6625 177.349 72.3545C177.041 72.0466 176.816 71.6657 176.695 71.2473C176.574 70.8289 176.561 70.3867 176.657 69.9619C176.753 69.5372 176.956 69.1437 177.245 68.8181C177.534 68.4926 177.901 68.2456 178.312 68.1002C178.493 68.0326 178.64 67.8966 178.722 67.7215C178.803 67.5464 178.813 67.3463 178.748 67.1642C178.684 66.9821 178.55 66.8326 178.377 66.7479C178.203 66.6632 178.003 66.6501 177.82 66.7114C177.175 66.9398 176.598 67.3278 176.143 67.8394C175.689 68.351 175.371 68.9693 175.22 69.6369C175.069 70.3044 175.089 70.9993 175.279 71.6568C175.469 72.3143 175.823 72.9129 176.307 73.3969C176.791 73.8808 177.389 74.2343 178.047 74.4244C178.704 74.6144 179.399 74.6349 180.067 74.4838C180.734 74.3327 181.353 74.015 181.864 73.5603C182.376 73.1056 182.764 72.5288 182.992 71.8836C183.025 71.7917 183.04 71.6941 183.035 71.5964C183.031 71.4988 183.006 71.4031 182.964 71.3148C182.922 71.2266 182.863 71.1477 182.79 71.0827C182.717 71.0176 182.632 70.9677 182.539 70.9359L182.544 70.9433ZM177.82 64.7728C177.897 64.8004 177.979 64.8147 178.061 64.8151C178.235 64.815 178.403 64.7536 178.536 64.6416C178.669 64.5296 178.758 64.3743 178.787 64.2031C178.817 64.0319 178.784 63.8558 178.697 63.7059C178.609 63.556 178.471 63.442 178.307 63.3839C177.897 63.2386 177.53 62.9916 177.24 62.666C176.951 62.3405 176.749 61.947 176.653 61.5222C176.557 61.0975 176.57 60.6553 176.691 60.2369C176.812 59.8185 177.037 59.4376 177.344 59.1296C177.652 58.8217 178.033 58.5967 178.452 58.4758C178.87 58.3548 179.312 58.3418 179.737 58.4379C180.162 58.534 180.555 58.7362 180.881 59.0255C181.206 59.3148 181.453 59.6818 181.599 60.0923C181.63 60.1851 181.679 60.2708 181.744 60.3444C181.808 60.4179 181.887 60.4779 181.974 60.5208C182.062 60.5637 182.158 60.5886 182.256 60.5942C182.353 60.5997 182.451 60.5857 182.543 60.5531C182.636 60.5204 182.72 60.4697 182.793 60.4039C182.865 60.3382 182.924 60.2586 182.965 60.1699C183.007 60.0813 183.03 59.9853 183.034 59.8875C183.038 59.7897 183.022 59.6922 182.988 59.6005C182.759 58.9554 182.371 58.3785 181.86 57.9238C181.348 57.4692 180.73 57.1515 180.062 57.0004C179.395 56.8493 178.7 56.8697 178.042 57.0598C177.385 57.2498 176.786 57.6033 176.302 58.0873C175.818 58.5712 175.465 59.1699 175.275 59.8274C175.085 60.4849 175.064 61.1798 175.215 61.8473C175.366 62.5148 175.684 63.1332 176.139 63.6448C176.593 64.1563 177.17 64.5444 177.815 64.7728H177.82Z" fill="#454545"/>
</g>
<defs>
<filter id="filter0_d_10379_51765" x="110.145" y="107.115" width="85.7168" height="83.6304" filterUnits="userSpaceOnUse" color-interpolation-filters="sRGB">
<feFlood flood-opacity="0" result="BackgroundImageFix"/>
<feColorMatrix in="SourceAlpha" type="matrix" values="0 0 0 0 0 0 0 0 0 0 0 0 0 0 0 0 0 0 127 0" result="hardAlpha"/>
<feOffset/>
<feGaussianBlur stdDeviation="9.9784"/>
<feComposite in2="hardAlpha" operator="out"/>
<feColorMatrix type="matrix" values="0 0 0 0 0 0 0 0 0 0 0 0 0 0 0 0 0 0 0.3 0"/>
<feBlend mode="normal" in2="BackgroundImageFix" result="effect1_dropShadow_10379_51765"/>
<feBlend mode="normal" in="SourceGraphic" in2="effect1_dropShadow_10379_51765" result="shape"/>
</filter>
<linearGradient id="paint0_linear_10379_51765" x1="153.011" y1="127.187" x2="153.011" y2="170.674" gradientUnits="userSpaceOnUse">
<stop stop-color="#292929"/>
<stop offset="1" stop-color="#BCBCBC"/>
</linearGradient>
<clipPath id="clip0_10379_51765">
<rect width="440" height="247.084" fill="white" transform="translate(0 0.679688)"/>
</clipPath>
<clipPath id="clip1_10379_51765">
<rect width="97.7373" height="97.7373" fill="white" transform="translate(284.911 50.2949)"/>
</clipPath>
</defs>
</svg>
