<svg width="440" height="248" viewBox="0 0 440 248" fill="none" xmlns="http://www.w3.org/2000/svg">
<g clip-path="url(#clip0_10379_51742)">
<rect width="440" height="247.084" transform="translate(0 0.679688)" fill="#F0F0F0"/>
<g clip-path="url(#clip1_10379_51742)">
<g filter="url(#filter0_d_10379_51742)">
<ellipse cx="224.878" cy="121.388" rx="13.1048" ry="13.4993" fill="#BCBCBC"/>
</g>
<rect x="-30.6816" y="262.402" width="584.449" height="1.92243" transform="rotate(-29.1345 -30.6816 262.402)" fill="#BCBCBC" fill-opacity="0.1"/>
<ellipse cx="224.878" cy="121.388" rx="11.4667" ry="11.8119" fill="#292929"/>
<path d="M219.941 124.768L218.566 117.341H220.222L220.904 121.401C220.94 121.61 220.973 121.819 221.002 122.029C221.038 122.231 221.067 122.418 221.088 122.592C221.117 122.758 221.139 122.895 221.153 123.003H221.218C221.297 122.844 221.388 122.664 221.489 122.462C221.59 122.252 221.691 122.05 221.792 121.856C221.893 121.653 221.979 121.48 222.052 121.336L224.108 117.341H225.83L221.824 124.768H219.941ZM228.594 124.897C228.146 124.897 227.728 124.861 227.338 124.789C226.956 124.717 226.62 124.605 226.331 124.454C226.043 124.302 225.815 124.104 225.649 123.858C225.491 123.613 225.411 123.321 225.411 122.981C225.411 122.88 225.418 122.772 225.433 122.657C225.454 122.541 225.476 122.44 225.498 122.353H227.1C227.086 122.404 227.071 122.465 227.057 122.538C227.042 122.602 227.035 122.664 227.035 122.722C227.035 122.909 227.093 123.068 227.208 123.198C227.324 123.328 227.49 123.425 227.706 123.49C227.923 123.555 228.179 123.588 228.475 123.588C228.756 123.588 229.002 123.566 229.211 123.523C229.42 123.479 229.597 123.418 229.741 123.339C229.886 123.259 229.994 123.162 230.066 123.046C230.146 122.931 230.185 122.797 230.185 122.646C230.185 122.494 230.135 122.364 230.034 122.256C229.933 122.148 229.799 122.054 229.633 121.975C229.467 121.895 229.279 121.827 229.07 121.769C228.861 121.704 228.641 121.643 228.41 121.585C228.143 121.506 227.876 121.419 227.609 121.325C227.342 121.224 227.096 121.101 226.873 120.957C226.656 120.805 226.483 120.621 226.353 120.405C226.223 120.181 226.158 119.911 226.158 119.593C226.158 119.182 226.245 118.828 226.418 118.532C226.591 118.229 226.826 117.98 227.122 117.785C227.417 117.59 227.757 117.446 228.139 117.352C228.529 117.258 228.929 117.211 229.341 117.211C229.759 117.211 230.142 117.247 230.488 117.32C230.842 117.385 231.149 117.489 231.408 117.634C231.676 117.778 231.881 117.966 232.026 118.197C232.17 118.42 232.242 118.687 232.242 118.998C232.242 119.063 232.238 119.135 232.231 119.214C232.224 119.293 232.21 119.398 232.188 119.528H230.607C230.629 119.456 230.64 119.402 230.64 119.366C230.647 119.33 230.651 119.301 230.651 119.279C230.651 119.041 230.542 118.85 230.326 118.705C230.109 118.561 229.803 118.489 229.406 118.489C229.088 118.489 228.81 118.525 228.572 118.597C228.341 118.662 228.161 118.756 228.031 118.879C227.908 119.001 227.847 119.149 227.847 119.322C227.847 119.445 227.883 119.553 227.955 119.647C228.027 119.734 228.128 119.81 228.258 119.874C228.395 119.939 228.551 120.001 228.724 120.058C228.904 120.116 229.095 120.17 229.298 120.221C229.579 120.3 229.871 120.39 230.174 120.492C230.477 120.585 230.759 120.712 231.019 120.87C231.279 121.022 231.488 121.217 231.647 121.455C231.805 121.686 231.885 121.971 231.885 122.31C231.885 122.772 231.791 123.169 231.603 123.501C231.423 123.826 231.174 124.093 230.856 124.302C230.546 124.504 230.196 124.656 229.806 124.757C229.417 124.851 229.012 124.897 228.594 124.897Z" fill="white"/>
<g clip-path="url(#clip2_10379_51742)">
<path d="M60.748 65.1231H101.757V73.0111H105.758V61.0254H83.2531V52.8301H79.2522V61.0254H56.7471V73.0111H60.748V65.1231Z" fill="#454545"/>
<path d="M42.0577 103.283H69.9267H73.5644V99.5372V82.8158C73.5644 81.3375 73.5644 78.7773 73.5644 78.7773H69.9412C69.9412 78.7773 43.5504 78.7773 42.0721 78.7773C40.5939 78.7773 38.0218 78.7773 38.0218 78.7773L38.0073 82.8158V99.5372V103.283H42.0577ZM42.0577 82.8158H69.9267V99.5372H42.0577V82.8158Z" fill="#454545"/>
<path d="M92.0299 103.283H119.899H123.537V99.5372V82.8158C123.537 81.3375 123.537 78.7773 123.537 78.7773H119.913C119.913 78.7773 93.5226 78.7773 92.0443 78.7773C90.5661 78.7773 87.9939 78.7773 87.9939 78.7773L87.9795 82.8158V99.5372V103.283H92.0299ZM92.0299 82.8158H119.899V99.5372H92.0299V82.8158Z" fill="#454545"/>
<path d="M67.044 47.5446H94.9131H98.5507V43.799V27.0775C98.5507 25.5993 98.5507 23.0391 98.5507 23.0391H94.9275C94.9275 23.0391 68.5367 23.0391 67.0585 23.0391C65.5802 23.0391 63.0081 23.0391 63.0081 23.0391L62.9937 27.0775V43.799V47.5446H67.044ZM67.044 27.0775H94.9131V43.799H67.044V27.0775Z" fill="#454545"/>
</g>
<path d="M72.4879 156.382L56.2588 140.152L63.6547 132.757L72.4879 141.616L98.3082 115.77L105.704 123.165L72.4879 156.382Z" fill="#39BE63"/>
<path d="M376.859 127.271V131.593H361.351L353.807 127.821V122.948H355.968C357.953 122.948 359.57 121.333 359.57 119.346C359.57 118.173 358.998 117.14 358.129 116.483V114.951C359.969 113.306 361.011 111.009 361.011 108.541C361.011 103.774 357.134 99.8965 352.366 99.8965C347.598 99.8965 343.721 103.774 343.721 108.541C343.721 111.009 344.763 113.307 346.603 114.951V116.483C345.734 117.141 345.162 118.174 345.162 119.346C345.162 121.333 346.779 122.948 348.764 122.948H350.926V127.821L340.499 133.034L350.925 138.247V143.12H319.227V138.797H327.872V127.271H307.701V138.797H316.345V143.12V144.56V150.323H307.701V161.85H327.872V150.323H319.227V146.001H350.925V150.323H342.28V161.85H350.925V167.613H348.043C344.865 167.613 342.28 170.198 342.28 173.377C342.28 176.555 344.865 179.14 348.043 179.14H356.688C359.866 179.14 362.451 176.555 362.451 173.377C362.451 170.198 359.866 167.613 356.688 167.613H353.806V161.85H362.451V150.323H353.806V146.001V143.119V138.246L361.35 134.474H376.859V138.797H385.504V150.528C383.026 151.172 381.181 153.408 381.181 156.086C381.181 159.265 383.766 161.849 386.945 161.849C390.123 161.849 392.708 159.265 392.708 156.086C392.708 153.408 390.864 151.171 388.385 150.528V138.797H397.031V127.271H376.859ZM324.99 153.205V158.968H310.582V153.205H324.99ZM310.582 135.915V130.152H324.99V135.915H310.582ZM352.366 102.777C355.544 102.777 358.129 105.362 358.129 108.54C358.129 110.342 357.288 112.012 355.82 113.122L355.248 113.553V115.744H353.807V112.597C355.48 112.001 356.689 110.416 356.689 108.54C356.689 106.157 354.749 104.217 352.366 104.217C349.983 104.217 348.044 106.157 348.044 108.54C348.044 110.416 349.252 112.001 350.925 112.597V115.744H349.484V113.553L348.913 113.12C347.444 112.012 346.603 110.342 346.603 108.54C346.602 105.362 349.187 102.777 352.366 102.777ZM353.806 108.54C353.806 109.335 353.159 109.981 352.365 109.981C351.572 109.981 350.925 109.335 350.925 108.54C350.925 107.745 351.572 107.099 352.365 107.099C353.159 107.099 353.806 107.745 353.806 108.54ZM348.763 120.066C348.366 120.066 348.043 119.742 348.043 119.346C348.043 118.95 348.366 118.626 348.763 118.626H355.968C356.365 118.626 356.688 118.95 356.688 119.346C356.688 119.742 356.365 120.066 355.968 120.066H348.763ZM356.688 170.495C358.277 170.495 359.57 171.787 359.57 173.376C359.57 174.965 358.278 176.258 356.688 176.258H348.044C346.454 176.258 345.162 174.966 345.162 173.376C345.162 171.787 346.454 170.495 348.044 170.495H356.688ZM359.57 153.205V158.968H345.162V153.205H359.57ZM352.366 135.745L346.942 133.034L352.366 130.322L357.789 133.034L352.366 135.745ZM389.827 156.087C389.827 157.676 388.535 158.968 386.945 158.968C385.356 158.968 384.064 157.676 384.064 156.087C384.064 154.497 385.356 153.205 386.945 153.205C388.535 153.205 389.827 154.497 389.827 156.087ZM394.149 135.915H379.741V130.152H394.149V135.915Z" fill="#454545"/>
<path d="M333.635 98.4533C335.51 98.4533 337.095 97.2446 337.692 95.5716H343.282C339.569 98.181 337.022 102.335 336.59 107.098H333.635V115.743H342.279V107.098H339.483C340.203 100.625 345.703 95.5719 352.365 95.5719C359.027 95.5719 364.528 100.625 365.247 107.098H362.45V115.743H371.095V107.098H368.14C367.708 102.335 365.162 98.1813 361.447 95.5719H367.038C367.634 97.2449 369.219 98.4536 371.095 98.4536C373.478 98.4536 375.418 96.5141 375.418 94.1311C375.418 91.7481 373.479 89.8086 371.096 89.8086C369.22 89.8086 367.635 91.0174 367.038 92.6903H337.692C337.095 91.0174 335.511 89.8086 333.635 89.8086C331.251 89.8086 329.312 91.7481 329.312 94.1311C329.312 96.5141 331.252 98.4533 333.635 98.4533ZM339.398 112.861H336.517V109.98H339.398V112.861ZM365.333 109.98H368.214V112.861H365.333V109.98ZM371.096 92.6903C371.89 92.6903 372.537 93.3357 372.537 94.1311C372.537 94.9266 371.89 95.5719 371.096 95.5719C370.302 95.5719 369.655 94.9266 369.655 94.1311C369.655 93.3357 370.302 92.6903 371.096 92.6903ZM333.635 92.6903C334.428 92.6903 335.075 93.3357 335.075 94.1311C335.075 94.9266 334.428 95.5719 333.635 95.5719C332.841 95.5719 332.194 94.9266 332.194 94.1311C332.194 93.3357 332.841 92.6903 333.635 92.6903Z" fill="#454545"/>
<path d="M330.593 225L344.972 210.619L330.599 196.24L337.987 188.844L352.368 203.223L366.747 188.844L374.138 196.24L359.764 210.619L374.138 224.997L366.742 232.388L352.368 218.009L337.995 232.388L330.593 225Z" fill="#B9181B"/>
</g>
</g>
<defs>
<filter id="filter0_d_10379_51742" x="193.147" y="89.2623" width="63.4622" height="64.2507" filterUnits="userSpaceOnUse" color-interpolation-filters="sRGB">
<feFlood flood-opacity="0" result="BackgroundImageFix"/>
<feColorMatrix in="SourceAlpha" type="matrix" values="0 0 0 0 0 0 0 0 0 0 0 0 0 0 0 0 0 0 127 0" result="hardAlpha"/>
<feOffset/>
<feGaussianBlur stdDeviation="9.31318"/>
<feComposite in2="hardAlpha" operator="out"/>
<feColorMatrix type="matrix" values="0 0 0 0 0 0 0 0 0 0 0 0 0 0 0 0 0 0 0.3 0"/>
<feBlend mode="normal" in2="BackgroundImageFix" result="effect1_dropShadow_10379_51742"/>
<feBlend mode="normal" in="SourceGraphic" in2="effect1_dropShadow_10379_51742" result="shape"/>
</filter>
<clipPath id="clip0_10379_51742">
<rect width="440" height="247.084" fill="white" transform="translate(0 0.679688)"/>
</clipPath>
<clipPath id="clip1_10379_51742">
<rect width="439.591" height="247.084" fill="white" transform="translate(0.679199 1.06445)"/>
</clipPath>
<clipPath id="clip2_10379_51742">
<rect width="85.5292" height="80.7241" fill="white" transform="translate(38.4878 23.0391)"/>
</clipPath>
</defs>
</svg>
