<svg width="440" height="248" viewBox="0 0 440 248" fill="none" xmlns="http://www.w3.org/2000/svg">
<g clip-path="url(#clip0_10379_51607)">
<rect width="440" height="247.084" transform="translate(0 0.511719)" fill="#F0F0F0"/>
<g clip-path="url(#clip1_10379_51607)">
<g filter="url(#filter0_d_10379_51607)">
<path fill-rule="evenodd" clip-rule="evenodd" d="M331.561 12.3633H253.383V70.9964H260.944L259.898 84.9423L278.248 70.9964H331.561V12.3633Z" fill="#BCBCBC"/>
</g>
<path d="M285.844 21.8656C285.256 21.9977 284.714 22.2866 284.276 22.7017L279.26 27.4069L283.754 32.3161L287.724 28.5539H295.77L298.907 32.1121V37.0247L290.336 42.7699C289.877 43.0819 289.504 43.5029 289.249 43.995C288.994 44.4871 288.865 45.0348 288.874 45.589V52.2773H295.563V47.4685L304.134 41.7232C304.592 41.4109 304.966 40.9894 305.221 40.4967C305.476 40.004 305.605 39.4555 305.595 38.9007V30.8547C305.591 30.0464 305.294 29.2671 304.759 28.6609L299.743 23.016C299.431 22.6569 299.045 22.3685 298.613 22.1701C298.18 21.9717 297.71 21.8679 297.235 21.8656H286.573C286.331 21.8391 286.087 21.8391 285.844 21.8656ZM288.874 55.6215V62.3098H295.563V55.6215H288.874Z" fill="#292929"/>
<path d="M186.432 171.443C212.171 171.443 231.41 149.776 231.41 126.439C231.41 101.581 211.278 81.4492 186.432 81.4492C161.585 81.4492 141.453 101.581 141.453 126.439C141.453 151.588 162.228 171.443 186.432 171.443Z" fill="#454545"/>
<path d="M148.551 151.736H150.452V149.836V114.08V112.179H148.551H144.079V105.141C144.079 97.609 148.344 90.179 156.336 84.5746C164.334 78.9654 175.285 75.7556 186.79 75.7556C198.294 75.7556 209.245 78.9654 217.244 84.5746C225.235 90.179 229.501 97.609 229.501 105.141V112.179H226.394H224.493V114.08V149.836V151.736H226.394H229.501V152.404H186.79H184.889V154.305V163.244V165.145H186.79H225.028C230.426 165.145 235.685 163.646 239.639 160.873C243.599 158.096 246.048 154.157 246.048 149.836V105.141C246.048 93.1805 239.171 82.6019 228.436 75.091C217.698 67.5777 202.967 63.0154 186.79 63.0154C170.519 63.0154 155.786 67.5768 145.07 75.0922C134.355 82.6063 127.531 93.1857 127.531 105.141V136.427C127.531 140.749 129.98 144.687 133.94 147.465C137.894 150.237 143.153 151.736 148.551 151.736Z" fill="#BCBCBC" stroke="#F0F0F0" stroke-width="3.8013"/>
<path fill-rule="evenodd" clip-rule="evenodd" d="M219.423 180.07H218.43H152.018H151.026L151.003 180.105C143.963 180.573 132.708 185.73 129.529 194.431L76.0064 339.369C72.3142 349.335 77.409 360.403 87.3748 364.085C97.4307 367.788 108.419 362.627 112.088 352.694L129.468 305.621C129.463 339.321 129.456 352.634 129.45 365.64C129.439 387.229 129.428 407.969 129.43 519.711C129.43 532.469 139.773 542.801 152.521 542.801C152.925 542.801 153.327 542.791 153.726 542.77C154.126 542.791 154.528 542.801 154.932 542.801C167.675 542.801 178.022 532.469 178.022 519.711V382.103H192.427V519.711C192.427 532.469 202.773 542.801 215.516 542.801C215.921 542.801 216.323 542.791 216.722 542.77C217.121 542.791 217.523 542.801 217.927 542.801C230.675 542.801 241.018 532.469 241.018 519.711C241.02 407.969 241.01 387.229 240.998 365.64C240.992 352.634 240.985 339.321 240.981 305.621L258.361 352.694C262.03 362.627 273.018 367.788 283.073 364.085C293.039 360.403 298.134 349.335 294.442 339.369L240.919 194.431C237.74 185.73 226.485 180.573 219.446 180.105L219.423 180.07Z" fill="#454545"/>
</g>
</g>
<defs>
<filter id="filter0_d_10379_51607" x="234.757" y="-6.26307" width="115.43" height="109.831" filterUnits="userSpaceOnUse" color-interpolation-filters="sRGB">
<feFlood flood-opacity="0" result="BackgroundImageFix"/>
<feColorMatrix in="SourceAlpha" type="matrix" values="0 0 0 0 0 0 0 0 0 0 0 0 0 0 0 0 0 0 127 0" result="hardAlpha"/>
<feOffset/>
<feGaussianBlur stdDeviation="9.31318"/>
<feComposite in2="hardAlpha" operator="out"/>
<feColorMatrix type="matrix" values="0 0 0 0 0 0 0 0 0 0 0 0 0 0 0 0 0 0 0.25 0"/>
<feBlend mode="normal" in2="BackgroundImageFix" result="effect1_dropShadow_10379_51607"/>
<feBlend mode="normal" in="SourceGraphic" in2="effect1_dropShadow_10379_51607" result="shape"/>
</filter>
<clipPath id="clip0_10379_51607">
<rect width="440" height="247.084" fill="white" transform="translate(0 0.511719)"/>
</clipPath>
<clipPath id="clip1_10379_51607">
<rect x="9.50342" y="-1.13867" width="421.944" height="251.157" rx="25.3166" fill="white"/>
</clipPath>
</defs>
</svg>
