<svg width="950" height="201" fill="none" xmlns="http://www.w3.org/2000/svg"><path fill="#F0F0F0" d="M0 .512h950v200H0z"/><g clip-path="url(#a)"><rect x="100" y="22.512" width="270.88" height="355.531" rx="12.697" fill="url(#b)"/><rect x="100" y="22.512" width="270.88" height="355.531" rx="12.697" stroke="#DDD" stroke-opacity=".27"/><g clip-path="url(#c)"><path d="M120.316 38.935a6.34 6.34 0 0 0-6.349 6.35 6.34 6.34 0 0 0 6.349 6.348 6.34 6.34 0 0 0 6.349-6.349 6.34 6.34 0 0 0-6.349-6.349zm4.656 6.35c0 .973-.296 1.883-.826 2.645l-6.475-6.476a4.656 4.656 0 0 1 7.301 3.83zm-9.312 0c0-.974.297-1.884.826-2.646l6.475 6.476a4.607 4.607 0 0 1-2.645.825 4.67 4.67 0 0 1-4.656-4.656z" fill="#D82E22"/></g><path d="M141.389 40.682v11.375h-1.945V40.682h1.945zm3.57 0v1.562h-9.054v-1.562h9.054zm5.743 9.383v-6.462h1.89v8.454h-1.781l-.109-1.992zm.265-1.758.633-.016c0 .568-.062 1.091-.187 1.57a3.63 3.63 0 0 1-.579 1.242c-.26.35-.593.623-1 .82-.406.194-.893.29-1.46.29-.412 0-.79-.06-1.133-.18a2.322 2.322 0 0 1-.891-.555c-.245-.25-.435-.575-.57-.976-.136-.401-.203-.88-.203-1.438v-5.46h1.882v5.476c0 .307.037.565.11.773.073.204.172.368.297.493s.271.213.437.265c.167.052.344.079.531.079.537 0 .959-.105 1.266-.313.313-.214.534-.5.664-.86a3.4 3.4 0 0 0 .203-1.21zm7.43-4.704v1.375h-4.766v-1.375h4.766zm-3.391-2.07h1.883v8.188c0 .26.037.46.11.601a.582.582 0 0 0 .32.274c.135.047.294.07.476.07.131 0 .256-.008.375-.023.12-.016.217-.032.289-.047l.008 1.437a4.765 4.765 0 0 1-.547.125 4.007 4.007 0 0 1-.703.055c-.432 0-.815-.076-1.148-.227a1.689 1.689 0 0 1-.781-.758c-.188-.348-.282-.812-.282-1.39v-8.305zm4.297 6.39v-.179c0-.61.089-1.174.266-1.695.177-.526.432-.982.765-1.367.339-.391.75-.693 1.235-.907.489-.218 1.042-.328 1.656-.328.62 0 1.172.11 1.656.328.49.214.904.516 1.243.907.338.385.596.84.773 1.367.177.52.266 1.086.266 1.695v.18c0 .61-.089 1.174-.266 1.695-.177.521-.435.977-.773 1.367-.339.386-.75.688-1.235.907-.484.213-1.034.32-1.648.32-.62 0-1.175-.107-1.664-.32a3.585 3.585 0 0 1-1.235-.907 4.062 4.062 0 0 1-.773-1.367 5.237 5.237 0 0 1-.266-1.695zm1.883-.179v.18c0 .38.039.74.117 1.078.078.338.201.635.367.89.167.256.381.456.641.602.26.146.57.219.93.219.349 0 .651-.073.906-.219.26-.146.474-.346.641-.601.166-.256.289-.553.367-.891.083-.339.125-.698.125-1.078v-.18c0-.375-.042-.729-.125-1.062a2.724 2.724 0 0 0-.375-.899 1.792 1.792 0 0 0-.641-.61 1.763 1.763 0 0 0-.914-.226c-.354 0-.661.076-.922.227a1.82 1.82 0 0 0-.633.61c-.166.26-.289.56-.367.898a4.653 4.653 0 0 0-.117 1.062zm9.445-2.531v6.844h-1.882v-8.454h1.796l.086 1.61zm2.586-1.664-.015 1.75a4.886 4.886 0 0 0-.766-.063c-.323 0-.607.047-.852.141-.244.088-.45.219-.617.39-.161.167-.286.37-.375.61-.088.24-.14.508-.156.805l-.43.03c0-.53.052-1.023.157-1.476.104-.453.26-.851.468-1.195.214-.344.48-.612.797-.805a2.14 2.14 0 0 1 1.117-.289c.115 0 .237.01.368.031.135.021.237.045.304.07zm3.196.054v8.454h-1.891v-8.454h1.891zm-2.016-2.218c0-.287.094-.524.281-.711.193-.193.459-.29.797-.29.333 0 .596.097.789.29a.949.949 0 0 1 .289.71.94.94 0 0 1-.289.704c-.193.187-.456.281-.789.281-.338 0-.604-.094-.797-.281a.956.956 0 0 1-.281-.703zm8.844 8.976v-4.03c0-.303-.055-.563-.164-.782a1.152 1.152 0 0 0-.5-.508c-.219-.12-.495-.18-.828-.18-.308 0-.573.052-.797.157a1.29 1.29 0 0 0-.524.422 1.017 1.017 0 0 0-.187.601h-1.875c0-.333.08-.656.242-.969.161-.312.396-.59.703-.836a3.511 3.511 0 0 1 1.102-.578 4.58 4.58 0 0 1 1.437-.21c.636 0 1.198.106 1.688.32.494.213.882.536 1.164.968.286.427.429.964.429 1.61v3.758c0 .385.026.731.078 1.039.058.302.138.565.243.789v.125h-1.93a3.307 3.307 0 0 1-.211-.774 6.297 6.297 0 0 1-.07-.922zm.273-3.445.016 1.164h-1.352c-.349 0-.656.034-.922.102a1.897 1.897 0 0 0-.664.28 1.216 1.216 0 0 0-.531 1.056c0 .224.052.43.156.617.104.182.255.325.453.43.204.104.448.156.735.156.385 0 .721-.078 1.008-.235a2.08 2.08 0 0 0 .687-.586c.167-.234.255-.455.266-.664l.609.836a2.841 2.841 0 0 1-.32.688c-.151.245-.349.479-.594.703a2.954 2.954 0 0 1-2.023.75c-.552 0-1.045-.11-1.477-.328a2.63 2.63 0 0 1-1.016-.899 2.336 2.336 0 0 1-.367-1.289c0-.448.084-.844.25-1.187.172-.35.422-.64.75-.875.334-.235.74-.412 1.219-.532a6.52 6.52 0 0 1 1.641-.187h1.476zm5.602-6.86v12h-1.891v-12h1.891z" fill="#454545"/><rect x="133.86" y="97.049" width="270.88" height="355.531" rx="12.697" fill="url(#d)"/><rect x="133.86" y="97.049" width="270.88" height="355.531" rx="12.697" stroke="#DDD" stroke-opacity=".2"/><g clip-path="url(#e)"><path d="M154.176 113.473a6.339 6.339 0 0 0-6.348 6.348 6.34 6.34 0 0 0 6.348 6.349 6.34 6.34 0 0 0 6.349-6.349 6.34 6.34 0 0 0-6.349-6.348zm4.656 6.348c0 .974-.296 1.884-.825 2.646l-6.476-6.476a4.656 4.656 0 0 1 7.301 3.83zm-9.311 0c0-.973.296-1.883.825-2.645l6.476 6.476a4.613 4.613 0 0 1-2.646.825 4.67 4.67 0 0 1-4.655-4.656z" fill="#D82E22"/></g><path d="M177.288 122.891h1.953a4.509 4.509 0 0 1-.625 1.992 3.714 3.714 0 0 1-1.492 1.367c-.641.333-1.419.5-2.336.5-.703 0-1.336-.125-1.898-.375a4.163 4.163 0 0 1-1.446-1.078 4.891 4.891 0 0 1-.922-1.695c-.208-.662-.312-1.401-.312-2.219v-.945c0-.818.107-1.558.32-2.219a4.915 4.915 0 0 1 .938-1.696 4.045 4.045 0 0 1 1.461-1.085c.573-.25 1.216-.376 1.929-.376.907 0 1.672.167 2.297.5.625.334 1.11.795 1.453 1.383.349.589.563 1.263.641 2.024h-1.953c-.052-.49-.167-.909-.344-1.258a1.772 1.772 0 0 0-.765-.797c-.339-.187-.782-.281-1.329-.281-.448 0-.838.083-1.171.25a2.2 2.2 0 0 0-.836.734c-.224.323-.394.722-.508 1.195a7.091 7.091 0 0 0-.164 1.61v.961c0 .573.049 1.094.148 1.562.104.464.261.862.469 1.196.213.333.484.591.812.773.329.182.722.274 1.18.274.557 0 1.008-.089 1.352-.266.349-.177.612-.435.789-.774.182-.343.302-.763.359-1.257zm3.188-.43v-.18c0-.609.088-1.174.265-1.695.177-.526.433-.982.766-1.367.338-.391.75-.693 1.234-.907a4.032 4.032 0 0 1 1.656-.328c.62 0 1.172.11 1.657.328a3.45 3.45 0 0 1 1.242.907c.338.385.596.841.773 1.367.177.521.266 1.086.266 1.695v.18c0 .609-.089 1.174-.266 1.695a4.055 4.055 0 0 1-.773 1.367c-.339.386-.75.688-1.234.907-.485.213-1.034.32-1.649.32-.62 0-1.174-.107-1.664-.32a3.578 3.578 0 0 1-1.234-.907 4.04 4.04 0 0 1-.774-1.367 5.237 5.237 0 0 1-.265-1.695zm1.882-.18v.18c0 .38.039.74.118 1.078.078.339.2.635.367.891.166.255.38.455.64.601.261.146.571.219.93.219.349 0 .651-.073.906-.219.261-.146.474-.346.641-.601.167-.256.289-.552.367-.891.083-.338.125-.698.125-1.078v-.18c0-.375-.042-.729-.125-1.062a2.728 2.728 0 0 0-.375-.899 1.8 1.8 0 0 0-.64-.609 1.767 1.767 0 0 0-.915-.227c-.354 0-.661.076-.921.227a1.806 1.806 0 0 0-.633.609c-.167.261-.289.56-.367.899a4.59 4.59 0 0 0-.118 1.062zm9.438-2.422v6.735h-1.883v-8.453h1.774l.109 1.718zm-.305 2.196-.64-.008c0-.583.073-1.123.218-1.617.146-.495.36-.925.641-1.289.281-.37.63-.654 1.047-.852.422-.203.909-.305 1.461-.305.385 0 .737.058 1.054.172.323.11.602.284.836.524.24.239.422.547.547.922.13.375.196.828.196 1.359v5.633h-1.883v-5.469c0-.411-.063-.734-.188-.969a1.041 1.041 0 0 0-.523-.5 1.898 1.898 0 0 0-.805-.156c-.354 0-.656.068-.906.203-.245.136-.445.32-.602.555-.156.234-.27.505-.343.812-.073.308-.11.636-.11.985zm5.242-.5-.882.195c0-.51.07-.992.211-1.445.145-.459.356-.86.632-1.203a2.983 2.983 0 0 1 1.039-.821c.412-.198.883-.297 1.414-.297.433 0 .818.06 1.157.18.343.115.635.297.875.547.239.25.422.575.547.977.125.395.187.874.187 1.437v5.469h-1.891v-5.477c0-.427-.062-.758-.187-.992a.972.972 0 0 0-.516-.484 2.072 2.072 0 0 0-.804-.141c-.292 0-.55.055-.774.164a1.535 1.535 0 0 0-.554.445 1.97 1.97 0 0 0-.344.649c-.073.245-.11.51-.11.797zm9-1.696v6.735h-1.882v-8.453h1.773l.109 1.718zm-.304 2.196-.641-.008c0-.583.073-1.123.219-1.617.146-.495.359-.925.64-1.289.282-.37.631-.654 1.047-.852.422-.203.909-.305 1.461-.305.386 0 .737.058 1.055.172.323.11.602.284.836.524.239.239.422.547.547.922.13.375.195.828.195 1.359v5.633h-1.883v-5.469c0-.411-.062-.734-.187-.969a1.04 1.04 0 0 0-.524-.5 1.897 1.897 0 0 0-.804-.156c-.355 0-.657.068-.907.203a1.71 1.71 0 0 0-.601.555 2.489 2.489 0 0 0-.344.812 4.26 4.26 0 0 0-.109.985zm5.242-.5-.883.195c0-.51.07-.992.211-1.445.146-.459.357-.86.633-1.203a2.964 2.964 0 0 1 1.039-.821c.411-.198.883-.297 1.414-.297.432 0 .818.06 1.156.18.344.115.636.297.875.547.24.25.422.575.547.977.125.395.188.874.188 1.437v5.469h-1.891v-5.477c0-.427-.063-.758-.188-.992a.967.967 0 0 0-.515-.484 2.074 2.074 0 0 0-.805-.141c-.292 0-.549.055-.773.164a1.538 1.538 0 0 0-.555.445 1.989 1.989 0 0 0-.344.649c-.073.245-.109.51-.109.797zm12.203 3.047v-6.461h1.891v8.453h-1.782l-.109-1.992zm.266-1.758.632-.016c0 .568-.062 1.091-.187 1.57a3.659 3.659 0 0 1-.578 1.243 2.71 2.71 0 0 1-1 .82c-.406.193-.893.289-1.461.289-.412 0-.789-.06-1.133-.18a2.31 2.31 0 0 1-.891-.554c-.244-.25-.434-.576-.57-.977-.135-.401-.203-.88-.203-1.437v-5.461h1.883v5.476c0 .307.036.565.109.774.073.203.172.367.297.492s.271.213.438.265c.166.053.343.079.531.079.536 0 .958-.105 1.265-.313.313-.213.534-.5.665-.859.135-.36.203-.763.203-1.211zm5.422-2.899v6.649h-1.883v-8.453h1.773l.11 1.804zm-.336 2.11-.61-.008a5.51 5.51 0 0 1 .25-1.649c.167-.5.396-.929.688-1.289a3.045 3.045 0 0 1 1.062-.828c.412-.198.87-.297 1.375-.297.406 0 .774.058 1.102.172.333.11.617.289.851.539.24.25.422.576.547.977.125.396.188.883.188 1.461v5.461h-1.891v-5.469c0-.406-.06-.727-.18-.961a1 1 0 0 0-.507-.508c-.219-.104-.493-.156-.821-.156-.323 0-.612.068-.867.203a1.95 1.95 0 0 0-.648.555 2.687 2.687 0 0 0-.399.812c-.094.308-.14.636-.14.985zm9.39-3.914v8.453h-1.89v-8.453h1.89zm-2.015-2.219a.96.96 0 0 1 .281-.711c.193-.193.458-.289.797-.289.333 0 .596.096.789.289a.951.951 0 0 1 .289.711.943.943 0 0 1-.289.703c-.193.187-.456.281-.789.281-.339 0-.604-.094-.797-.281a.951.951 0 0 1-.281-.703zm7.953 2.219v1.375h-4.766v-1.375h4.766zm-3.391-2.071h1.883v8.188c0 .26.036.461.109.601a.583.583 0 0 0 .321.274c.135.047.294.07.476.07.13 0 .255-.008.375-.023.12-.016.216-.032.289-.047l.008 1.437a4.689 4.689 0 0 1-.547.125 3.957 3.957 0 0 1-.703.055c-.432 0-.815-.076-1.148-.227a1.688 1.688 0 0 1-.782-.757c-.187-.349-.281-.813-.281-1.391v-8.305zm7.297 9.602 2.297-7.531h2.015l-3.39 9.742c-.078.208-.18.435-.305.679a3.09 3.09 0 0 1-.492.696 2.19 2.19 0 0 1-.742.539c-.297.141-.656.211-1.078.211-.167 0-.328-.016-.485-.047a7.926 7.926 0 0 1-.429-.086l-.008-1.437a6.938 6.938 0 0 0 .375.023c.312 0 .573-.039.781-.117.208-.073.378-.193.508-.36.135-.166.25-.39.344-.672l.609-1.64zm-1.297-7.531 2.008 6.328.336 1.984-1.305.336-3.07-8.648h2.031zm16.844 5.523c0-.234-.037-.443-.11-.625a1.216 1.216 0 0 0-.367-.5 3.009 3.009 0 0 0-.75-.437 9.902 9.902 0 0 0-1.218-.446 13.356 13.356 0 0 1-1.5-.554 5.723 5.723 0 0 1-1.188-.719 3.06 3.06 0 0 1-.789-.945c-.188-.36-.281-.774-.281-1.243 0-.463.096-.885.289-1.265.198-.381.476-.709.836-.985a3.994 3.994 0 0 1 1.289-.648 5.433 5.433 0 0 1 1.64-.235c.844 0 1.571.157 2.18.469.615.313 1.086.732 1.414 1.258.333.526.5 1.107.5 1.742h-1.945c0-.375-.081-.705-.242-.992a1.64 1.64 0 0 0-.719-.687c-.318-.167-.721-.25-1.211-.25-.464 0-.849.07-1.156.21-.308.141-.537.331-.688.571-.151.239-.226.51-.226.812 0 .214.049.409.148.586.099.172.25.334.453.485.203.145.459.283.766.414.307.13.669.255 1.086.375.63.187 1.179.396 1.648.625.469.224.86.479 1.172.765.313.287.547.612.703.977.156.359.235.768.235 1.226 0 .48-.097.912-.289 1.297a2.794 2.794 0 0 1-.829.977 3.955 3.955 0 0 1-1.281.617 6.04 6.04 0 0 1-1.656.211 6.072 6.072 0 0 1-1.617-.219 4.782 4.782 0 0 1-1.438-.664 3.43 3.43 0 0 1-1.031-1.125c-.255-.453-.383-.982-.383-1.586h1.961c0 .37.063.685.188.946.13.26.309.474.539.64.229.162.494.281.797.36.307.078.635.117.984.117.458 0 .841-.065 1.148-.196.313-.13.547-.312.703-.546.157-.235.235-.506.235-.813zm8.601.938v-6.461h1.891v8.453h-1.781l-.11-1.992zm.266-1.758.633-.016c0 .568-.063 1.091-.188 1.57a3.64 3.64 0 0 1-.578 1.243c-.26.349-.594.622-1 .82-.406.193-.893.289-1.461.289-.411 0-.789-.06-1.133-.18a2.314 2.314 0 0 1-.89-.554c-.245-.25-.435-.576-.57-.977-.136-.401-.204-.88-.204-1.437v-5.461h1.883v5.476c0 .307.037.565.11.774.073.203.171.367.296.492.125.125.271.213.438.265.167.053.344.079.531.079.537 0 .959-.105 1.266-.313.312-.213.534-.5.664-.859.135-.36.203-.763.203-1.211zm5.445-3.078v10.078h-1.882v-11.703h1.734l.148 1.625zm5.508 2.523v.164c0 .615-.073 1.185-.219 1.711-.14.521-.351.977-.632 1.367a2.919 2.919 0 0 1-1.024.899c-.406.213-.875.32-1.406.32-.526 0-.987-.096-1.383-.289a2.836 2.836 0 0 1-.992-.836 4.506 4.506 0 0 1-.656-1.266 8.1 8.1 0 0 1-.344-1.609v-.633c.068-.62.182-1.182.344-1.687.166-.506.385-.94.656-1.305s.601-.646.992-.844c.391-.198.846-.297 1.367-.297.532 0 1.003.105 1.414.313a2.84 2.84 0 0 1 1.039.875c.282.375.493.828.633 1.359a6.79 6.79 0 0 1 .211 1.758zm-1.883.164v-.164c0-.391-.036-.753-.109-1.086a2.86 2.86 0 0 0-.344-.891 1.68 1.68 0 0 0-.601-.593c-.24-.146-.529-.219-.868-.219a1.97 1.97 0 0 0-.859.172c-.239.109-.44.263-.601.461a2.151 2.151 0 0 0-.375.695 4.109 4.109 0 0 0-.188.852v1.515c.063.375.169.719.32 1.032.151.312.365.562.641.75.281.182.641.273 1.078.273.339 0 .628-.073.867-.219.24-.146.435-.346.586-.601.156-.261.271-.56.344-.899.073-.338.109-.698.109-1.078zm5.375-2.687v10.078h-1.882v-11.703h1.734l.148 1.625zm5.508 2.523v.164c0 .615-.073 1.185-.219 1.711-.14.521-.351.977-.632 1.367a2.919 2.919 0 0 1-1.024.899c-.406.213-.875.32-1.406.32-.526 0-.987-.096-1.383-.289a2.836 2.836 0 0 1-.992-.836 4.506 4.506 0 0 1-.656-1.266 8.1 8.1 0 0 1-.344-1.609v-.633c.068-.62.182-1.182.344-1.687.166-.506.385-.94.656-1.305s.601-.646.992-.844c.391-.198.846-.297 1.367-.297.532 0 1.003.105 1.414.313a2.84 2.84 0 0 1 1.039.875c.282.375.493.828.633 1.359a6.79 6.79 0 0 1 .211 1.758zm-1.883.164v-.164c0-.391-.036-.753-.109-1.086a2.86 2.86 0 0 0-.344-.891 1.68 1.68 0 0 0-.601-.593c-.24-.146-.529-.219-.868-.219a1.97 1.97 0 0 0-.859.172c-.239.109-.44.263-.601.461a2.151 2.151 0 0 0-.375.695 4.109 4.109 0 0 0-.188.852v1.515c.063.375.169.719.32 1.032.151.312.365.562.641.75.281.182.641.273 1.078.273.339 0 .628-.073.867-.219.24-.146.435-.346.586-.601.156-.261.271-.56.344-.899.073-.338.109-.698.109-1.078zm3.125.008v-.18c0-.609.089-1.174.266-1.695.177-.526.432-.982.766-1.367.338-.391.75-.693 1.234-.907a4.032 4.032 0 0 1 1.656-.328c.62 0 1.172.11 1.656.328.49.214.904.516 1.243.907.338.385.596.841.773 1.367.177.521.266 1.086.266 1.695v.18c0 .609-.089 1.174-.266 1.695a4.055 4.055 0 0 1-.773 1.367c-.339.386-.75.688-1.235.907-.484.213-1.034.32-1.648.32-.62 0-1.175-.107-1.664-.32a3.582 3.582 0 0 1-1.235-.907 4.055 4.055 0 0 1-.773-1.367 5.237 5.237 0 0 1-.266-1.695zm1.883-.18v.18c0 .38.039.74.117 1.078.078.339.201.635.368.891.166.255.38.455.64.601.261.146.57.219.93.219.349 0 .651-.073.906-.219.261-.146.474-.346.641-.601.166-.256.289-.552.367-.891.083-.338.125-.698.125-1.078v-.18c0-.375-.042-.729-.125-1.062a2.728 2.728 0 0 0-.375-.899 1.795 1.795 0 0 0-.641-.609 1.763 1.763 0 0 0-.914-.227c-.354 0-.661.076-.922.227a1.812 1.812 0 0 0-.632.609 2.83 2.83 0 0 0-.368.899 4.646 4.646 0 0 0-.117 1.062zm9.445-2.531v6.844h-1.882v-8.453h1.797l.085 1.609zm2.586-1.664-.015 1.75a3.55 3.55 0 0 0-.375-.047 5.11 5.11 0 0 0-.391-.016 2.36 2.36 0 0 0-.851.141 1.614 1.614 0 0 0-.618.391 1.72 1.72 0 0 0-.375.609 2.76 2.76 0 0 0-.156.805l-.43.031c0-.531.053-1.023.157-1.477a4.04 4.04 0 0 1 .468-1.195c.214-.344.48-.612.797-.805a2.147 2.147 0 0 1 1.118-.289c.114 0 .237.011.367.032.135.02.237.044.304.07zm5.446.055v1.375h-4.766v-1.375h4.766zm-3.391-2.071h1.883v8.188c0 .26.036.461.109.601a.583.583 0 0 0 .321.274c.135.047.294.07.476.07.13 0 .255-.008.375-.023.12-.016.216-.032.289-.047l.008 1.437a4.689 4.689 0 0 1-.547.125 3.957 3.957 0 0 1-.703.055c-.432 0-.815-.076-1.148-.227a1.688 1.688 0 0 1-.782-.757c-.187-.349-.281-.813-.281-1.391v-8.305zm10.774 4.336 1.96-1.32c.329-.219.563-.432.704-.641.14-.213.211-.479.211-.797 0-.27-.105-.52-.313-.75-.208-.229-.503-.343-.883-.343a1.139 1.139 0 0 0-1.086.672 1.613 1.613 0 0 0-.133.664c0 .234.06.476.18.726.12.245.284.503.492.774.209.265.443.552.703.859l5.375 6.344h-2.179l-4.391-5.164a44.81 44.81 0 0 1-1.008-1.258 5.87 5.87 0 0 1-.679-1.117 2.746 2.746 0 0 1-.243-1.125c0-.594.123-1.104.368-1.532a2.456 2.456 0 0 1 1.039-.984c.448-.234.971-.352 1.57-.352.578 0 1.076.118 1.492.352.422.229.745.534.969.914.229.38.344.797.344 1.25 0 .36-.065.688-.196.984a2.85 2.85 0 0 1-.539.813 5.412 5.412 0 0 1-.797.695l-2.382 1.735c-.276.224-.482.44-.618.648a1.876 1.876 0 0 0-.32 1.016c0 .333.07.635.211.906.146.271.357.487.633.648.281.157.622.235 1.023.235a2.91 2.91 0 0 0 1.258-.289 3.576 3.576 0 0 0 1.094-.836c.323-.36.578-.789.766-1.289a4.61 4.61 0 0 0 .289-1.664h1.625c0 .552-.055 1.075-.164 1.57a4.922 4.922 0 0 1-.508 1.375 4.186 4.186 0 0 1-.907 1.133 2.015 2.015 0 0 0-.125.14.898.898 0 0 1-.125.133c-.447.412-.95.719-1.507.922a5.193 5.193 0 0 1-1.766.297c-.755 0-1.409-.138-1.961-.414a3.102 3.102 0 0 1-1.281-1.141c-.297-.484-.445-1.039-.445-1.664 0-.463.096-.87.289-1.219.192-.354.455-.682.789-.984a11.55 11.55 0 0 1 1.172-.922zm-149.243 16.813h4.024c.864 0 1.601.13 2.211.39.609.261 1.075.646 1.398 1.157.328.505.492 1.13.492 1.875 0 .567-.104 1.067-.312 1.5a3.043 3.043 0 0 1-.883 1.093c-.38.292-.833.519-1.359.68l-.594.289h-3.617l-.016-1.555h2.711c.469 0 .859-.083 1.172-.25.312-.166.547-.393.703-.679.161-.292.242-.62.242-.985 0-.395-.078-.739-.234-1.031a1.516 1.516 0 0 0-.703-.68c-.318-.161-.722-.242-1.211-.242h-2.063v9.813h-1.961v-11.375zm6.493 11.375-2.672-5.11 2.054-.007 2.711 5.015v.102h-2.093zm7.125.156a4.514 4.514 0 0 1-1.696-.305 3.732 3.732 0 0 1-1.281-.867 3.856 3.856 0 0 1-.805-1.305 4.58 4.58 0 0 1-.281-1.617v-.312c0-.662.096-1.261.289-1.797.193-.537.461-.995.805-1.375a3.45 3.45 0 0 1 1.219-.883 3.787 3.787 0 0 1 1.523-.305c.604 0 1.133.102 1.586.305.453.203.828.49 1.125.859.302.365.526.8.672 1.305.151.505.226 1.063.226 1.672v.805h-6.531v-1.352h4.672v-.148a2.628 2.628 0 0 0-.203-.953 1.62 1.62 0 0 0-.555-.719c-.25-.182-.583-.274-1-.274-.312 0-.591.068-.836.204-.239.13-.44.32-.601.57-.162.25-.287.552-.375.906a5.056 5.056 0 0 0-.125 1.18v.312c0 .37.049.714.148 1.032.104.312.255.585.453.82.198.234.438.419.719.554.281.131.602.196.961.196a2.6 2.6 0 0 0 1.211-.274c.354-.182.661-.44.922-.773l.992.961a3.847 3.847 0 0 1-.711.766 3.57 3.57 0 0 1-1.07.585c-.417.151-.901.227-1.453.227zm9.593-2.445a.949.949 0 0 0-.14-.508c-.094-.156-.274-.297-.539-.422-.261-.125-.646-.24-1.157-.344a10.047 10.047 0 0 1-1.234-.351 3.91 3.91 0 0 1-.953-.508 2.122 2.122 0 0 1-.617-.703 1.948 1.948 0 0 1-.219-.938c0-.343.075-.669.226-.976.152-.308.368-.578.649-.813a3.151 3.151 0 0 1 1.023-.554c.407-.136.86-.204 1.36-.204.708 0 1.315.12 1.82.36.51.234.901.554 1.172.961.271.401.406.854.406 1.359h-1.883c0-.224-.057-.432-.172-.625a1.196 1.196 0 0 0-.5-.477c-.223-.124-.505-.187-.843-.187-.323 0-.591.052-.805.156a1.1 1.1 0 0 0-.469.391.994.994 0 0 0-.148.531c0 .141.026.268.078.383a.906.906 0 0 0 .281.305c.13.088.308.171.531.25.23.078.516.153.86.226.646.136 1.2.31 1.664.524.469.208.828.479 1.078.812.25.328.375.745.375 1.25 0 .375-.081.719-.242 1.031a2.332 2.332 0 0 1-.688.805 3.428 3.428 0 0 1-1.086.523 4.848 4.848 0 0 1-1.406.188c-.765 0-1.414-.135-1.945-.406-.531-.276-.935-.628-1.211-1.055a2.494 2.494 0 0 1-.406-1.344h1.82c.021.349.117.628.289.836.177.203.396.352.656.446.266.088.539.132.821.132.338 0 .622-.044.851-.132.229-.094.404-.219.524-.375a.901.901 0 0 0 .179-.547zm3.133-1.844v-.18c0-.609.089-1.174.266-1.695.177-.526.432-.982.765-1.367a3.46 3.46 0 0 1 1.235-.907c.489-.218 1.041-.328 1.656-.328.62 0 1.172.11 1.656.328.49.214.904.516 1.242.907.339.385.597.841.774 1.367.177.521.265 1.086.265 1.695v.18c0 .609-.088 1.174-.265 1.695a4.04 4.04 0 0 1-.774 1.367c-.338.386-.75.688-1.234.907-.484.213-1.034.32-1.648.32-.62 0-1.175-.107-1.664-.32a3.582 3.582 0 0 1-1.235-.907 4.055 4.055 0 0 1-.773-1.367 5.237 5.237 0 0 1-.266-1.695zm1.883-.18v.18c0 .38.039.74.117 1.078.078.339.201.635.367.891.167.255.38.455.641.601.26.146.57.219.93.219.349 0 .651-.073.906-.219.26-.146.474-.346.64-.601.167-.256.29-.552.368-.891.083-.338.125-.698.125-1.078v-.18c0-.375-.042-.729-.125-1.062a2.728 2.728 0 0 0-.375-.899 1.804 1.804 0 0 0-.641-.609 1.763 1.763 0 0 0-.914-.227c-.354 0-.661.076-.922.227a1.823 1.823 0 0 0-.633.609c-.166.261-.289.56-.367.899a4.646 4.646 0 0 0-.117 1.062zm12.641 2.321v-6.461h1.89v8.453h-1.781l-.109-1.992zm.265-1.758.633-.016c0 .568-.063 1.091-.188 1.57a3.64 3.64 0 0 1-.578 1.243c-.26.349-.593.622-1 .82-.406.193-.893.289-1.461.289a3.41 3.41 0 0 1-1.132-.18 2.31 2.31 0 0 1-.891-.554c-.245-.25-.435-.576-.57-.977-.136-.401-.203-.88-.203-1.437v-5.461h1.882v5.476c0 .307.037.565.11.774.073.203.172.367.297.492s.27.213.437.265c.167.053.344.079.531.079.537 0 .959-.105 1.266-.313.312-.213.534-.5.664-.859.135-.36.203-.763.203-1.211zm5.445-3.094v6.844h-1.882v-8.453h1.797l.085 1.609zm2.586-1.664-.015 1.75a3.55 3.55 0 0 0-.375-.047 5.11 5.11 0 0 0-.391-.016 2.36 2.36 0 0 0-.851.141 1.614 1.614 0 0 0-.618.391 1.72 1.72 0 0 0-.375.609 2.76 2.76 0 0 0-.156.805l-.43.031c0-.531.053-1.023.157-1.477a4.04 4.04 0 0 1 .468-1.195c.214-.344.48-.612.797-.805a2.147 2.147 0 0 1 1.118-.289c.114 0 .237.011.367.032.135.02.237.044.304.07zm4.477 7.164c.307 0 .583-.06.828-.18.25-.125.451-.297.602-.515.156-.219.242-.472.257-.758h1.774a2.648 2.648 0 0 1-.484 1.492 3.357 3.357 0 0 1-1.243 1.07 3.732 3.732 0 0 1-1.711.391c-.645 0-1.208-.109-1.687-.328a3.328 3.328 0 0 1-1.195-.922 4.045 4.045 0 0 1-.719-1.352 5.58 5.58 0 0 1-.235-1.64v-.274c0-.583.079-1.13.235-1.64.161-.516.401-.969.719-1.36.317-.39.716-.695 1.195-.914.479-.224 1.039-.336 1.68-.336.677 0 1.27.136 1.781.407a3 3 0 0 1 1.203 1.117c.297.474.45 1.026.461 1.656h-1.774a1.878 1.878 0 0 0-.234-.844 1.545 1.545 0 0 0-.578-.609 1.65 1.65 0 0 0-.883-.227c-.38 0-.695.078-.945.235-.25.151-.445.359-.586.625-.141.26-.242.554-.305.883a5.772 5.772 0 0 0-.086 1.007v.274c0 .349.029.687.086 1.015.058.329.156.623.297.883.146.255.344.461.594.617.25.151.568.227.953.227zm8.633 1.5c-.625 0-1.19-.102-1.696-.305a3.732 3.732 0 0 1-1.281-.867 3.838 3.838 0 0 1-.804-1.305 4.557 4.557 0 0 1-.282-1.617v-.312a5.3 5.3 0 0 1 .289-1.797c.193-.537.461-.995.805-1.375a3.45 3.45 0 0 1 1.219-.883 3.79 3.79 0 0 1 1.523-.305c.604 0 1.133.102 1.586.305.453.203.828.49 1.125.859.302.365.526.8.672 1.305.151.505.227 1.063.227 1.672v.805h-6.532v-1.352h4.672v-.148a2.628 2.628 0 0 0-.203-.953 1.62 1.62 0 0 0-.555-.719c-.25-.182-.583-.274-1-.274-.312 0-.591.068-.836.204-.239.13-.44.32-.601.57-.162.25-.287.552-.375.906a5.11 5.11 0 0 0-.125 1.18v.312c0 .37.049.714.148 1.032.105.312.256.585.453.82.198.234.438.419.719.554.281.131.602.196.961.196a2.6 2.6 0 0 0 1.211-.274c.354-.182.662-.44.922-.773l.992.961a3.847 3.847 0 0 1-.711.766 3.559 3.559 0 0 1-1.07.585c-.417.151-.901.227-1.453.227zm9.594-2.445a.94.94 0 0 0-.141-.508c-.094-.156-.274-.297-.539-.422-.261-.125-.646-.24-1.156-.344-.448-.099-.86-.216-1.235-.351a3.929 3.929 0 0 1-.953-.508 2.133 2.133 0 0 1-.617-.703 1.948 1.948 0 0 1-.219-.938c0-.343.076-.669.227-.976.151-.308.367-.578.648-.813a3.157 3.157 0 0 1 1.024-.554 4.262 4.262 0 0 1 1.359-.204c.708 0 1.315.12 1.82.36.511.234.901.554 1.172.961.271.401.406.854.406 1.359h-1.882c0-.224-.058-.432-.172-.625a1.202 1.202 0 0 0-.5-.477c-.224-.124-.505-.187-.844-.187-.323 0-.591.052-.805.156a1.097 1.097 0 0 0-.468.391.995.995 0 0 0-.149.531c0 .141.026.268.078.383a.916.916 0 0 0 .281.305c.131.088.308.171.532.25.229.078.515.153.859.226.646.136 1.201.31 1.664.524.469.208.828.479 1.078.812.25.328.375.745.375 1.25 0 .375-.08.719-.242 1.031a2.329 2.329 0 0 1-.687.805 3.428 3.428 0 0 1-1.086.523 4.86 4.86 0 0 1-1.407.188c-.765 0-1.414-.135-1.945-.406-.531-.276-.935-.628-1.211-1.055a2.494 2.494 0 0 1-.406-1.344h1.82c.021.349.117.628.289.836.177.203.396.352.657.446.265.088.539.132.82.132.338 0 .622-.044.851-.132.23-.094.404-.219.524-.375a.895.895 0 0 0 .18-.547z" fill="#454545"/><rect x="511.399" y="22.26" width="270.88" height="355.531" rx="12.697" fill="url(#f)"/><rect x="511.399" y="22.26" width="270.88" height="355.531" rx="12.697" stroke="#DDD" stroke-opacity=".27"/><g clip-path="url(#g)"><path d="M531.715 38.684a6.34 6.34 0 0 0-6.349 6.348 6.34 6.34 0 0 0 6.349 6.35 6.34 6.34 0 0 0 6.349-6.35 6.34 6.34 0 0 0-6.349-6.348zm4.656 6.348c0 .974-.297 1.884-.826 2.646l-6.475-6.476a4.656 4.656 0 0 1 7.301 3.83zm-9.312 0c0-.973.296-1.883.826-2.645l6.475 6.476a4.613 4.613 0 0 1-2.645.825 4.67 4.67 0 0 1-4.656-4.656z" fill="#D82E22"/></g><path d="M552.788 40.43v11.375h-1.945V40.43h1.945zm3.57 0v1.562h-9.054V40.43h9.054zm3.329 2.922v8.453h-1.891v-8.453h1.891zm-2.016-2.22c0-.286.094-.523.281-.71.193-.193.458-.29.797-.29.333 0 .596.097.789.29a.949.949 0 0 1 .289.71.94.94 0 0 1-.289.704c-.193.187-.456.281-.789.281-.339 0-.604-.094-.797-.281a.956.956 0 0 1-.281-.703zm5.961 3.938v6.735h-1.883v-8.453h1.773l.11 1.718zm-.305 2.196-.64-.008c0-.584.072-1.123.218-1.617.146-.495.36-.925.641-1.29.281-.37.63-.653 1.047-.851.422-.203.909-.305 1.461-.305.385 0 .737.058 1.054.172.323.11.602.284.836.524.24.24.422.547.547.922.13.374.196.828.196 1.359v5.633h-1.883v-5.47c0-.41-.063-.733-.188-.968a1.04 1.04 0 0 0-.523-.5 1.895 1.895 0 0 0-.805-.156c-.354 0-.656.068-.906.203-.245.136-.445.32-.602.555a2.47 2.47 0 0 0-.343.812 4.25 4.25 0 0 0-.11.985zm5.242-.5-.882.195c0-.51.07-.992.21-1.445.146-.459.357-.86.633-1.203a2.98 2.98 0 0 1 1.039-.82c.412-.199.883-.298 1.414-.298.433 0 .818.06 1.157.18.343.115.635.297.875.547.239.25.422.575.547.976.125.396.187.875.187 1.438v5.469h-1.891v-5.477c0-.427-.062-.758-.187-.992a.973.973 0 0 0-.516-.484 2.076 2.076 0 0 0-.804-.141c-.292 0-.55.055-.774.164a1.542 1.542 0 0 0-.555.445 1.981 1.981 0 0 0-.343.649c-.073.245-.11.51-.11.797zm10.844 5.195c-.625 0-1.19-.102-1.695-.305a3.74 3.74 0 0 1-1.281-.867 3.837 3.837 0 0 1-.805-1.305 4.558 4.558 0 0 1-.281-1.617v-.312c0-.662.096-1.26.289-1.797.192-.537.461-.995.804-1.375.344-.386.75-.68 1.219-.883a3.793 3.793 0 0 1 1.524-.305c.604 0 1.132.102 1.585.305.454.203.829.49 1.125.86.303.364.527.799.672 1.304.151.505.227 1.063.227 1.672v.805h-6.531v-1.352h4.672v-.148a2.657 2.657 0 0 0-.204-.953 1.612 1.612 0 0 0-.554-.72c-.25-.182-.584-.273-1-.273-.313 0-.591.068-.836.203-.24.13-.44.32-.602.57-.161.25-.286.553-.375.907a5.111 5.111 0 0 0-.125 1.18v.312c0 .37.05.714.149 1.031.104.313.255.586.453.82.198.235.437.42.719.555.281.13.601.196.96.196.454 0 .857-.091 1.211-.274.355-.182.662-.44.922-.773l.992.96c-.182.266-.419.522-.71.766-.292.24-.649.435-1.071.586-.416.151-.901.227-1.453.227zm16.149-1.711v1.555h-5.711V50.25h5.711zm-5.165-9.82v11.375h-1.96V40.43h1.96zm6.133 7.242v-.18c0-.61.089-1.174.266-1.695.177-.526.432-.982.766-1.367.338-.39.75-.693 1.234-.907.489-.218 1.042-.328 1.656-.328.62 0 1.172.11 1.656.328.49.214.904.516 1.243.907.338.385.596.84.773 1.367.177.52.266 1.086.266 1.695v.18c0 .61-.089 1.174-.266 1.695-.177.521-.435.977-.773 1.367-.339.386-.75.688-1.235.907-.484.213-1.034.32-1.648.32-.62 0-1.175-.107-1.664-.32a3.584 3.584 0 0 1-1.235-.907 4.063 4.063 0 0 1-.773-1.367 5.237 5.237 0 0 1-.266-1.695zm1.883-.18v.18c0 .38.039.74.117 1.078.078.339.201.635.367.89.167.256.381.456.641.602.261.146.57.219.93.219.349 0 .651-.073.906-.219.26-.146.474-.346.641-.601.166-.256.289-.552.367-.891.083-.339.125-.698.125-1.078v-.18c0-.375-.042-.729-.125-1.062a2.724 2.724 0 0 0-.375-.899 1.791 1.791 0 0 0-.641-.61c-.255-.15-.56-.226-.914-.226s-.661.076-.922.227a1.819 1.819 0 0 0-.633.61c-.166.26-.289.56-.367.898a4.652 4.652 0 0 0-.117 1.062zm12.969-4.14h1.711v8.218c0 .76-.162 1.407-.485 1.938a3.113 3.113 0 0 1-1.351 1.21c-.578.282-1.248.423-2.008.423-.323 0-.682-.047-1.078-.141a4.421 4.421 0 0 1-1.141-.453 2.836 2.836 0 0 1-.914-.805l.883-1.11c.302.36.635.623 1 .79.365.167.747.25 1.148.25.433 0 .8-.08 1.102-.242a1.64 1.64 0 0 0 .711-.696c.167-.307.25-.682.25-1.125v-6.343l.172-1.914zm-5.742 4.32v-.164c0-.64.078-1.224.234-1.75a4.13 4.13 0 0 1 .672-1.367c.292-.386.646-.68 1.062-.883a3.12 3.12 0 0 1 1.414-.313c.547 0 1.013.1 1.399.297.391.198.716.482.976.852.261.364.464.802.61 1.312.151.505.263 1.068.336 1.688v.523a8.507 8.507 0 0 1-.344 1.656c-.161.5-.375.933-.641 1.297a2.725 2.725 0 0 1-.984.844c-.385.198-.841.297-1.367.297-.516 0-.982-.107-1.399-.32a3.186 3.186 0 0 1-1.062-.899 4.244 4.244 0 0 1-.672-1.36 5.994 5.994 0 0 1-.234-1.71zm1.882-.164v.164c0 .385.037.745.11 1.078.078.333.195.628.351.883.162.25.365.448.61.594.25.14.544.21.883.21.442 0 .804-.093 1.086-.28.286-.188.505-.44.656-.759.156-.323.265-.682.328-1.078v-1.414a3.44 3.44 0 0 0-.195-.86 2.314 2.314 0 0 0-.383-.694 1.602 1.602 0 0 0-.61-.47 2.023 2.023 0 0 0-.867-.171c-.338 0-.633.073-.883.219-.25.145-.455.346-.617.601a2.978 2.978 0 0 0-.351.89c-.078.34-.118.701-.118 1.087zm12.938-4.156h1.711v8.218c0 .76-.162 1.407-.484 1.938a3.116 3.116 0 0 1-1.352 1.21c-.578.282-1.247.423-2.008.423-.323 0-.682-.047-1.078-.141a4.421 4.421 0 0 1-1.141-.453 2.836 2.836 0 0 1-.914-.805l.883-1.11c.302.36.636.623 1 .79.365.167.748.25 1.149.25.432 0 .799-.08 1.101-.242a1.64 1.64 0 0 0 .711-.696c.167-.307.25-.682.25-1.125v-6.343l.172-1.914zm-5.742 4.32v-.164c0-.64.078-1.224.234-1.75a4.13 4.13 0 0 1 .672-1.367c.292-.386.646-.68 1.063-.883a3.117 3.117 0 0 1 1.414-.313c.546 0 1.013.1 1.398.297.391.198.716.482.977.852.26.364.463.802.609 1.312.151.505.263 1.068.336 1.688v.523a8.434 8.434 0 0 1-.344 1.656c-.161.5-.375.933-.64 1.297a2.737 2.737 0 0 1-.985.844c-.385.198-.841.297-1.367.297-.516 0-.982-.107-1.398-.32a3.18 3.18 0 0 1-1.063-.899 4.244 4.244 0 0 1-.672-1.36 5.994 5.994 0 0 1-.234-1.71zm1.883-.164v.164c0 .385.036.745.109 1.078.078.333.195.628.352.883.161.25.364.448.609.594.25.14.544.21.883.21.442 0 .804-.093 1.086-.28.286-.188.505-.44.656-.759.156-.323.266-.682.328-1.078v-1.414a3.44 3.44 0 0 0-.195-.86 2.314 2.314 0 0 0-.383-.694 1.607 1.607 0 0 0-.609-.47 2.03 2.03 0 0 0-.868-.171 1.72 1.72 0 0 0-.882.219 1.8 1.8 0 0 0-.618.601 2.978 2.978 0 0 0-.351.89c-.078.34-.117.701-.117 1.087zm9.539-4.156v8.453h-1.891v-8.453h1.891zm-2.016-2.22c0-.286.094-.523.281-.71.193-.193.459-.29.797-.29.333 0 .597.097.789.29a.949.949 0 0 1 .289.71.94.94 0 0 1-.289.704c-.192.187-.456.281-.789.281-.338 0-.604-.094-.797-.281a.956.956 0 0 1-.281-.703zm5.945 4.024v6.649h-1.882v-8.453h1.773l.109 1.804zm-.336 2.11-.609-.008a5.506 5.506 0 0 1 .25-1.649c.167-.5.396-.93.688-1.289.296-.36.651-.635 1.062-.828a3.13 3.13 0 0 1 1.375-.297c.406 0 .773.058 1.102.172.333.11.617.29.851.54.24.25.422.575.547.976.125.396.188.883.188 1.46v5.462h-1.891v-5.47c0-.405-.06-.726-.18-.96a1.003 1.003 0 0 0-.508-.508c-.218-.104-.492-.156-.82-.156-.323 0-.612.068-.867.203-.255.136-.471.32-.649.555a2.712 2.712 0 0 0-.398.812 3.349 3.349 0 0 0-.141.985zm12.789-3.914h1.711v8.218c0 .76-.161 1.407-.484 1.938a3.11 3.11 0 0 1-1.352 1.21c-.578.282-1.247.423-2.007.423a4.707 4.707 0 0 1-2.219-.594 2.826 2.826 0 0 1-.914-.805l.883-1.11c.302.36.635.623 1 .79.364.167.747.25 1.148.25.432 0 .8-.08 1.102-.242a1.64 1.64 0 0 0 .711-.696c.166-.307.25-.682.25-1.125v-6.343l.171-1.914zm-5.742 4.32v-.164c0-.64.078-1.224.235-1.75a4.13 4.13 0 0 1 .672-1.367c.291-.386.645-.68 1.062-.883a3.12 3.12 0 0 1 1.414-.313c.547 0 1.013.1 1.399.297.39.198.716.482.976.852.261.364.464.802.609 1.312.152.505.263 1.068.336 1.688v.523a8.435 8.435 0 0 1-.343 1.656c-.162.5-.375.933-.641 1.297a2.742 2.742 0 0 1-.984.844c-.386.198-.841.297-1.368.297-.515 0-.981-.107-1.398-.32a3.176 3.176 0 0 1-1.062-.899 4.244 4.244 0 0 1-.672-1.36 5.958 5.958 0 0 1-.235-1.71zm1.883-.164v.164c0 .385.037.745.109 1.078.079.333.196.628.352.883.161.25.365.448.609.594.25.14.545.21.883.21.443 0 .805-.093 1.086-.28.287-.188.505-.44.656-.759.157-.323.266-.682.329-1.078v-1.414a3.485 3.485 0 0 0-.196-.86 2.292 2.292 0 0 0-.383-.694 1.591 1.591 0 0 0-.609-.47 2.029 2.029 0 0 0-.867-.171 1.72 1.72 0 0 0-.883.219c-.25.145-.456.346-.617.601a2.979 2.979 0 0 0-.352.89c-.078.34-.117.701-.117 1.087zm13.656-7.078v11.375h-1.961V40.43h1.961zm4.641 4.976v1.555h-5.141v-1.555h5.141zm.648-4.976v1.562h-5.789V40.43h5.789zm4.93 11.53c-.625 0-1.19-.1-1.695-.304a3.74 3.74 0 0 1-1.281-.867 3.837 3.837 0 0 1-.805-1.305 4.558 4.558 0 0 1-.281-1.617v-.312c0-.662.096-1.26.289-1.797.192-.537.461-.995.804-1.375.344-.386.75-.68 1.219-.883a3.793 3.793 0 0 1 1.524-.305c.604 0 1.132.102 1.585.305.454.203.829.49 1.125.86.303.364.527.799.672 1.304.151.505.227 1.063.227 1.672v.805h-6.531v-1.352h4.672v-.148a2.657 2.657 0 0 0-.204-.953 1.612 1.612 0 0 0-.554-.72c-.25-.182-.584-.273-1-.273-.313 0-.591.068-.836.203-.24.13-.44.32-.602.57-.161.25-.286.553-.375.907a5.111 5.111 0 0 0-.125 1.18v.312c0 .37.05.714.149 1.031.104.313.255.586.453.82.198.235.437.42.719.555.281.13.601.196.96.196.454 0 .857-.091 1.211-.274.355-.182.662-.44.922-.773l.992.96c-.182.266-.419.522-.71.766-.292.24-.649.435-1.071.586-.416.151-.901.227-1.453.227zm9.617-1.85v-4.032a1.72 1.72 0 0 0-.164-.781 1.146 1.146 0 0 0-.5-.508c-.219-.12-.495-.18-.828-.18-.307 0-.573.052-.797.157a1.287 1.287 0 0 0-.523.422 1.018 1.018 0 0 0-.188.601h-1.875c0-.333.081-.656.242-.969a2.59 2.59 0 0 1 .704-.836 3.508 3.508 0 0 1 1.101-.578c.427-.14.906-.21 1.438-.21.635 0 1.198.106 1.687.32.495.213.883.536 1.164.968.287.427.43.964.43 1.61v3.758c0 .385.026.731.078 1.039.057.302.138.565.242.789v.125h-1.929a3.307 3.307 0 0 1-.211-.774 6.302 6.302 0 0 1-.071-.922zm.274-3.446.015 1.164h-1.351c-.349 0-.656.034-.922.102a1.89 1.89 0 0 0-.664.28c-.177.126-.31.277-.399.454a1.333 1.333 0 0 0-.132.602c0 .224.052.43.156.617.104.182.255.325.453.43.203.104.448.156.734.156.386 0 .722-.078 1.008-.235.292-.161.521-.356.688-.586.166-.234.255-.455.265-.664l.61.836c-.063.214-.17.443-.321.688-.151.245-.349.479-.593.703a2.951 2.951 0 0 1-2.024.75c-.552 0-1.044-.11-1.476-.328a2.622 2.622 0 0 1-1.016-.899 2.328 2.328 0 0 1-.367-1.289c0-.448.083-.843.25-1.187a2.33 2.33 0 0 1 .75-.875 3.62 3.62 0 0 1 1.219-.531 6.517 6.517 0 0 1 1.64-.188h1.477zm7.461-3.312v1.375h-4.766v-1.375h4.766zm-3.391-2.07h1.883v8.187c0 .26.036.46.109.601a.584.584 0 0 0 .321.274c.135.047.294.07.476.07.13 0 .255-.008.375-.023a3.75 3.75 0 0 0 .289-.047l.008 1.437a4.793 4.793 0 0 1-.547.125 4.007 4.007 0 0 1-.703.055c-.432 0-.815-.076-1.148-.227a1.692 1.692 0 0 1-.782-.757c-.187-.35-.281-.813-.281-1.391V41.28zm9.93 8.53v-6.46h1.89v8.453h-1.781l-.109-1.992zm.265-1.757.633-.016c0 .568-.062 1.091-.187 1.57a3.649 3.649 0 0 1-.578 1.243 2.71 2.71 0 0 1-1 .82c-.407.193-.894.289-1.461.289-.412 0-.789-.06-1.133-.18a2.32 2.32 0 0 1-.891-.554c-.245-.25-.435-.576-.57-.977-.136-.401-.203-.88-.203-1.438v-5.46h1.883v5.476c0 .307.036.565.109.774.073.203.172.367.297.492s.271.213.437.265c.167.052.344.078.532.078.536 0 .958-.104 1.265-.312.313-.214.534-.5.664-.86a3.4 3.4 0 0 0 .203-1.21zm5.446-3.094v6.844h-1.883v-8.453h1.797l.086 1.609zm2.586-1.664-.016 1.75a4.895 4.895 0 0 0-.766-.063c-.323 0-.606.047-.851.141a1.598 1.598 0 0 0-.992 1c-.089.24-.141.508-.157.805l-.429.03c0-.53.052-1.023.156-1.476a4.01 4.01 0 0 1 .469-1.195c.213-.344.479-.612.797-.805.322-.192.695-.289 1.117-.289.114 0 .237.01.367.032.135.02.237.044.305.07zm4.75 8.664a4.51 4.51 0 0 1-1.696-.305 3.74 3.74 0 0 1-1.281-.867 3.852 3.852 0 0 1-.805-1.305 4.58 4.58 0 0 1-.281-1.617v-.312c0-.662.096-1.26.289-1.797a4.08 4.08 0 0 1 .805-1.375c.344-.386.75-.68 1.219-.883a3.785 3.785 0 0 1 1.523-.305c.604 0 1.133.102 1.586.305.453.203.828.49 1.125.86.302.364.526.799.672 1.304.151.505.226 1.063.226 1.672v.805h-6.531v-1.352h4.672v-.148a2.635 2.635 0 0 0-.203-.953 1.621 1.621 0 0 0-.555-.72c-.25-.182-.583-.273-1-.273a1.7 1.7 0 0 0-.836.203c-.239.13-.44.32-.601.57-.162.25-.287.553-.375.907a5.057 5.057 0 0 0-.125 1.18v.312c0 .37.049.714.148 1.031.104.313.255.586.453.82.198.235.438.42.719.555.281.13.602.196.961.196.453 0 .857-.091 1.211-.274.354-.182.661-.44.922-.773l.992.96c-.182.266-.419.522-.711.766-.292.24-.648.435-1.07.586-.417.151-.901.227-1.453.227z" fill="#454545"/><rect x="545.26" y="73.049" width="270.88" height="355.531" rx="12.697" fill="url(#h)"/><rect x="545.26" y="73.049" width="270.88" height="355.531" rx="12.697" stroke="#DDD" stroke-opacity=".2"/><g clip-path="url(#i)"><path d="M565.576 89.473a6.34 6.34 0 0 0-6.349 6.348 6.34 6.34 0 0 0 6.349 6.349 6.34 6.34 0 0 0 6.349-6.349 6.34 6.34 0 0 0-6.349-6.348zm4.656 6.348c0 .974-.297 1.884-.826 2.646l-6.476-6.476a4.656 4.656 0 0 1 7.302 3.83zm-9.312 0c0-.973.296-1.883.825-2.645l6.476 6.476a4.611 4.611 0 0 1-2.645.825 4.67 4.67 0 0 1-4.656-4.656z" fill="#D82E22"/></g><path d="M589.415 101.039v1.555h-6.04v-1.555h6.04zm-5.485-9.82v11.375h-1.961V91.219h1.961zm4.695 4.75V97.5h-5.25v-1.531h5.25zm.75-4.75v1.562h-6V91.22h6zm3.86 11.375h-1.883v-9.266c0-.63.117-1.159.352-1.586.239-.432.58-.758 1.023-.976.443-.224.966-.336 1.57-.336.188 0 .373.013.555.039.182.02.359.054.531.101l-.047 1.453a2.15 2.15 0 0 0-.343-.054c-.12-.01-.25-.016-.391-.016-.286 0-.534.055-.742.164-.203.104-.36.258-.469.461a1.633 1.633 0 0 0-.156.75v9.266zm1.742-8.453v1.375h-4.922V94.14h4.922zm3.914 8.453h-1.883v-9.266c0-.63.117-1.159.352-1.586a2.318 2.318 0 0 1 1.023-.976c.443-.224.966-.336 1.571-.336.187 0 .372.013.554.039.183.02.36.054.532.101l-.047 1.453a2.163 2.163 0 0 0-.344-.054c-.12-.01-.25-.016-.391-.016-.286 0-.534.055-.742.164a1.087 1.087 0 0 0-.469.461 1.633 1.633 0 0 0-.156.75v9.266zm1.742-8.453v1.375h-4.922V94.14h4.922zm1.008 4.32v-.18c0-.61.089-1.174.266-1.695.177-.526.432-.982.765-1.367.339-.39.75-.693 1.235-.906.489-.22 1.041-.329 1.656-.329.62 0 1.172.11 1.656.329.49.213.904.515 1.242.906.339.385.597.84.774 1.367.177.52.265 1.086.265 1.695v.18c0 .61-.088 1.174-.265 1.695a4.04 4.04 0 0 1-.774 1.367c-.338.386-.75.688-1.234.907-.484.213-1.034.32-1.648.32-.62 0-1.175-.107-1.664-.32a3.582 3.582 0 0 1-1.235-.907 4.055 4.055 0 0 1-.773-1.367 5.235 5.235 0 0 1-.266-1.695zm1.883-.18v.18c0 .38.039.74.117 1.078.078.339.201.635.367.891.167.255.381.455.641.601.26.146.57.219.93.219.349 0 .651-.073.906-.219.26-.146.474-.346.64-.601.167-.256.29-.552.368-.89.083-.34.125-.699.125-1.08v-.179c0-.375-.042-.729-.125-1.062a2.724 2.724 0 0 0-.375-.899 1.8 1.8 0 0 0-.641-.61 1.763 1.763 0 0 0-.914-.226c-.354 0-.661.076-.922.227a1.82 1.82 0 0 0-.633.61c-.166.26-.289.56-.367.898a4.651 4.651 0 0 0-.117 1.062zm9.445-2.531v6.844h-1.883v-8.453h1.797l.086 1.609zm2.586-1.664-.015 1.75a4.886 4.886 0 0 0-.766-.063c-.323 0-.607.047-.852.141-.244.089-.45.219-.617.39-.161.167-.286.37-.375.61-.088.24-.14.508-.156.805l-.43.031c0-.531.052-1.023.156-1.477.105-.453.261-.851.469-1.195.214-.344.479-.612.797-.805a2.137 2.137 0 0 1 1.117-.289c.115 0 .237.01.367.032.136.02.237.044.305.07zm5.445.055v1.375h-4.765V94.14H621zm-3.39-2.07h1.883v8.187c0 .26.036.461.109.601a.584.584 0 0 0 .32.274c.136.047.295.07.477.07.13 0 .255-.008.375-.023.12-.016.216-.032.289-.047l.008 1.437a4.689 4.689 0 0 1-.547.125 3.965 3.965 0 0 1-.703.055c-.432 0-.815-.076-1.149-.227a1.69 1.69 0 0 1-.781-.757c-.187-.349-.281-.813-.281-1.391V92.07zm9.812-.852h1.75l3.289 8.773 3.282-8.773h1.75l-4.344 11.375h-1.391l-4.336-11.375zm-.797 0h1.665l.289 7.594v3.781h-1.954V91.219zm10 0h1.672v11.375h-1.961v-3.781l.289-7.594zm7.54 11.531a4.514 4.514 0 0 1-1.696-.305 3.732 3.732 0 0 1-1.281-.867 3.856 3.856 0 0 1-.805-1.305 4.576 4.576 0 0 1-.281-1.617v-.312c0-.662.096-1.26.289-1.797a4.08 4.08 0 0 1 .805-1.375c.344-.385.75-.68 1.219-.883a3.784 3.784 0 0 1 1.523-.305c.604 0 1.133.102 1.586.305.453.203.828.49 1.125.86.302.364.526.799.672 1.304.151.505.226 1.063.226 1.672v.805h-6.531v-1.352h4.672v-.148a2.634 2.634 0 0 0-.203-.953 1.622 1.622 0 0 0-.555-.72c-.25-.181-.583-.273-1-.273a1.7 1.7 0 0 0-.836.204c-.239.13-.44.32-.601.57-.162.25-.287.552-.375.906a5.056 5.056 0 0 0-.125 1.18v.312c0 .37.049.714.148 1.031.104.313.255.586.453.821.198.234.438.419.719.554.281.131.602.196.961.196a2.6 2.6 0 0 0 1.211-.274c.354-.182.661-.44.922-.773l.992.961a3.847 3.847 0 0 1-.711.766 3.57 3.57 0 0 1-1.07.585c-.417.151-.901.227-1.453.227zm9.617-1.852v-4.03c0-.303-.055-.563-.164-.782a1.152 1.152 0 0 0-.5-.508c-.219-.12-.495-.18-.828-.18-.308 0-.573.053-.797.157a1.29 1.29 0 0 0-.524.422 1.017 1.017 0 0 0-.187.601h-1.875c0-.333.08-.656.242-.969.161-.312.396-.59.703-.836a3.511 3.511 0 0 1 1.102-.578 4.58 4.58 0 0 1 1.437-.21c.636 0 1.198.106 1.688.32.494.213.882.536 1.164.968.286.428.429.964.429 1.61v3.758c0 .385.026.731.078 1.039.058.302.139.565.243.789v.125h-1.93a3.305 3.305 0 0 1-.211-.774 6.29 6.29 0 0 1-.07-.922zm.273-3.445.016 1.164h-1.352a3.75 3.75 0 0 0-.922.102 1.896 1.896 0 0 0-.664.281 1.216 1.216 0 0 0-.531 1.055c0 .224.052.429.156.617.104.182.256.325.453.43.204.104.448.156.735.156.385 0 .721-.078 1.008-.235.291-.161.52-.356.687-.585.167-.235.255-.456.266-.665l.609.836a2.839 2.839 0 0 1-.32.688 3.32 3.32 0 0 1-.594.703 2.947 2.947 0 0 1-2.023.75c-.552 0-1.045-.109-1.477-.328a2.632 2.632 0 0 1-1.016-.899 2.333 2.333 0 0 1-.367-1.289c0-.447.084-.843.25-1.187.172-.35.422-.64.75-.875.334-.234.74-.412 1.219-.531a6.52 6.52 0 0 1 1.641-.188h1.476zm8.328 2.852a.95.95 0 0 0-.14-.508c-.094-.156-.274-.297-.539-.422-.261-.125-.646-.24-1.157-.344a9.957 9.957 0 0 1-1.234-.351 3.9 3.9 0 0 1-.953-.508 2.134 2.134 0 0 1-.617-.703 1.946 1.946 0 0 1-.219-.938c0-.344.075-.669.226-.976a2.49 2.49 0 0 1 .649-.813c.281-.234.622-.42 1.023-.555a4.29 4.29 0 0 1 1.36-.203c.708 0 1.315.12 1.82.36.51.234.901.554 1.172.96.271.402.406.855.406 1.36h-1.883c0-.224-.057-.432-.172-.625a1.194 1.194 0 0 0-.5-.477c-.223-.124-.505-.187-.843-.187-.323 0-.591.052-.805.156-.208.1-.365.23-.469.39a.996.996 0 0 0-.148.532c0 .14.026.268.078.383.057.11.151.21.281.305.13.088.308.171.531.25.23.078.516.153.86.226.646.136 1.2.31 1.664.524.469.208.828.479 1.078.812.25.328.375.745.375 1.25 0 .375-.081.719-.242 1.031a2.332 2.332 0 0 1-.688.805 3.428 3.428 0 0 1-1.086.523 4.848 4.848 0 0 1-1.406.188c-.765 0-1.414-.135-1.945-.406-.531-.276-.935-.628-1.211-1.055a2.494 2.494 0 0 1-.406-1.344h1.82c.021.349.117.628.289.836.177.203.396.352.656.446.266.088.539.132.821.132.338 0 .622-.044.851-.132.229-.094.404-.219.524-.375a.901.901 0 0 0 .179-.547zm8.578.297v-6.461h1.891v8.453h-1.781l-.11-1.992zm.266-1.758.633-.016c0 .568-.063 1.091-.188 1.57a3.64 3.64 0 0 1-.578 1.243c-.26.349-.594.622-1 .82-.406.193-.893.289-1.461.289-.411 0-.789-.06-1.133-.18a2.314 2.314 0 0 1-.89-.554c-.245-.25-.435-.576-.57-.977-.136-.401-.204-.88-.204-1.437V94.14h1.883v5.476c0 .307.037.565.11.774.073.203.171.367.296.492.125.125.271.213.438.265.167.053.344.079.531.079.537 0 .959-.105 1.266-.313.312-.213.534-.5.664-.859.135-.36.203-.763.203-1.211zm5.445-3.094v6.844h-1.882v-8.453h1.796l.086 1.609zm2.586-1.664-.015 1.75a4.886 4.886 0 0 0-.766-.063c-.323 0-.607.047-.852.141-.244.089-.45.219-.617.39-.161.167-.286.37-.375.61-.088.24-.14.508-.156.805l-.43.031c0-.531.052-1.023.157-1.477.104-.453.26-.851.468-1.195.214-.344.48-.612.797-.805a2.14 2.14 0 0 1 1.117-.289c.115 0 .237.01.368.032.135.02.237.044.304.07zm4.75 8.664c-.625 0-1.19-.102-1.695-.305a3.732 3.732 0 0 1-1.281-.867 3.856 3.856 0 0 1-.805-1.305 4.576 4.576 0 0 1-.281-1.617v-.312c0-.662.096-1.26.289-1.797a4.08 4.08 0 0 1 .805-1.375c.343-.385.75-.68 1.218-.883a3.792 3.792 0 0 1 1.524-.305c.604 0 1.133.102 1.586.305.453.203.828.49 1.125.86.302.364.526.799.672 1.304.151.505.226 1.063.226 1.672v.805h-6.531v-1.352h4.672v-.148a2.655 2.655 0 0 0-.203-.953 1.622 1.622 0 0 0-.555-.72c-.25-.181-.583-.273-1-.273-.313 0-.591.068-.836.204-.24.13-.44.32-.602.57-.161.25-.286.552-.375.906a5.11 5.11 0 0 0-.125 1.18v.312c0 .37.05.714.149 1.031.104.313.255.586.453.821.198.234.437.419.719.554.281.131.601.196.961.196.453 0 .856-.091 1.211-.274a2.77 2.77 0 0 0 .921-.773l.993.961c-.183.266-.42.521-.711.766a3.577 3.577 0 0 1-1.071.585c-.416.151-.901.227-1.453.227zm6.735-6.89v6.734h-1.883v-8.453h1.773l.11 1.718zm-.305 2.195-.641-.008c0-.584.073-1.123.219-1.617.146-.495.359-.925.641-1.29.281-.37.63-.653 1.047-.85.421-.204.908-.306 1.461-.306.385 0 .737.058 1.054.172.323.11.602.284.836.524.24.24.422.547.547.922.13.375.195.828.195 1.359v5.633h-1.882v-5.469c0-.412-.063-.734-.188-.969a1.04 1.04 0 0 0-.523-.5 1.9 1.9 0 0 0-.805-.156c-.354 0-.656.068-.906.203-.245.135-.446.32-.602.555a2.492 2.492 0 0 0-.344.812 4.25 4.25 0 0 0-.109.985zm5.242-.5-.883.195c0-.51.071-.992.211-1.445.146-.459.357-.86.633-1.203a2.972 2.972 0 0 1 1.039-.82c.412-.199.883-.298 1.414-.298.433 0 .818.06 1.156.18.344.115.636.297.875.547.24.25.422.576.547.977.125.395.188.874.188 1.437v5.469h-1.891v-5.477c0-.427-.062-.758-.187-.992a.973.973 0 0 0-.516-.484 2.08 2.08 0 0 0-.805-.141c-.291 0-.549.055-.773.164a1.532 1.532 0 0 0-.555.445 1.98 1.98 0 0 0-.343.649c-.073.245-.11.51-.11.797zm10.844 5.195c-.625 0-1.19-.102-1.695-.305a3.746 3.746 0 0 1-1.282-.867 3.838 3.838 0 0 1-.804-1.305 4.554 4.554 0 0 1-.282-1.617v-.312c0-.662.097-1.26.289-1.797a4.08 4.08 0 0 1 .805-1.375c.344-.385.75-.68 1.219-.883a3.787 3.787 0 0 1 1.523-.305c.605 0 1.133.102 1.586.305.453.203.828.49 1.125.86.302.364.526.799.672 1.304.151.505.227 1.063.227 1.672v.805h-6.532v-1.352h4.672v-.148a2.634 2.634 0 0 0-.203-.953 1.62 1.62 0 0 0-.554-.72c-.25-.181-.584-.273-1-.273-.313 0-.592.068-.836.204-.24.13-.44.32-.602.57-.161.25-.286.552-.375.906a5.11 5.11 0 0 0-.125 1.18v.312c0 .37.05.714.148 1.031.105.313.256.586.454.821.198.234.437.419.718.554.282.131.602.196.961.196a2.6 2.6 0 0 0 1.211-.274c.354-.182.662-.44.922-.773l.992.961a3.847 3.847 0 0 1-.711.766 3.559 3.559 0 0 1-1.07.585c-.417.151-.901.227-1.453.227zm6.719-6.805v6.649h-1.883v-8.453h1.773l.11 1.804zm-.336 2.11-.61-.008a5.538 5.538 0 0 1 .25-1.649c.167-.5.396-.93.688-1.289.297-.359.651-.635 1.062-.828.412-.198.87-.297 1.375-.297.407 0 .774.058 1.102.172.333.11.617.29.851.54.24.25.422.575.547.976.125.396.188.883.188 1.46v5.462h-1.891v-5.469c0-.406-.06-.727-.179-.96a1.007 1.007 0 0 0-.508-.509c-.219-.104-.492-.156-.821-.156-.322 0-.612.068-.867.203a1.95 1.95 0 0 0-.648.555 2.691 2.691 0 0 0-.399.812c-.093.308-.14.636-.14.985zm11.25-3.914v1.375h-4.766V94.14h4.766zm-3.391-2.07h1.883v8.187c0 .26.036.461.109.601a.583.583 0 0 0 .321.274c.135.047.294.07.476.07.13 0 .255-.008.375-.023.12-.016.216-.032.289-.047l.008 1.437a4.642 4.642 0 0 1-.547.125 3.957 3.957 0 0 1-.703.055c-.432 0-.815-.076-1.148-.227a1.688 1.688 0 0 1-.782-.757c-.187-.349-.281-.813-.281-1.391V92.07zm9.813-.852h1.75l3.289 8.773 3.281-8.773h1.75l-4.344 11.375h-1.39l-4.336-11.375zm-.797 0h1.664l.289 7.594v3.781h-1.953V91.219zm10 0h1.672v11.375h-1.961v-3.781l.289-7.594zm7.539 11.531c-.625 0-1.19-.102-1.696-.305a3.732 3.732 0 0 1-1.281-.867 3.838 3.838 0 0 1-.804-1.305 4.554 4.554 0 0 1-.282-1.617v-.312c0-.662.097-1.26.289-1.797a4.08 4.08 0 0 1 .805-1.375c.344-.385.75-.68 1.219-.883a3.787 3.787 0 0 1 1.523-.305c.604 0 1.133.102 1.586.305.453.203.828.49 1.125.86.302.364.526.799.672 1.304.151.505.227 1.063.227 1.672v.805h-6.532v-1.352h4.672v-.148a2.634 2.634 0 0 0-.203-.953 1.622 1.622 0 0 0-.555-.72c-.25-.181-.583-.273-1-.273a1.7 1.7 0 0 0-.836.204c-.239.13-.44.32-.601.57-.162.25-.287.552-.375.906a5.11 5.11 0 0 0-.125 1.18v.312c0 .37.049.714.148 1.031.105.313.256.586.453.821.198.234.438.419.719.554.281.131.602.196.961.196a2.6 2.6 0 0 0 1.211-.274c.354-.182.662-.44.922-.773l.992.961a3.847 3.847 0 0 1-.711.766 3.559 3.559 0 0 1-1.07.585c-.417.151-.901.227-1.453.227zm8.726-8.61v1.376h-4.765V94.14h4.765zm-3.39-2.07h1.883v8.188c0 .26.036.461.109.601a.584.584 0 0 0 .32.274c.136.047.295.07.477.07.13 0 .255-.008.375-.023.12-.016.216-.032.289-.047l.008 1.437a4.737 4.737 0 0 1-.547.125 3.965 3.965 0 0 1-.703.055c-.433 0-.815-.076-1.149-.227a1.686 1.686 0 0 1-.781-.757c-.188-.349-.281-.813-.281-1.391V92.07zm6.734 3.68v6.844h-1.883v-8.453h1.797l.086 1.609zm2.586-1.664-.016 1.75a4.842 4.842 0 0 0-.765-.063c-.323 0-.607.047-.852.141-.245.089-.45.219-.617.39-.161.167-.286.37-.375.61-.088.24-.141.508-.156.805l-.43.031c0-.531.052-1.023.156-1.477.105-.453.261-.851.469-1.195.214-.344.479-.612.797-.805a2.137 2.137 0 0 1 1.117-.289c.115 0 .237.01.367.032.136.02.237.044.305.07zm3.195.055v8.453h-1.89v-8.453h1.89zm-2.015-2.22c0-.286.093-.523.281-.71.193-.193.458-.29.797-.29.333 0 .596.097.789.29a.949.949 0 0 1 .289.71.94.94 0 0 1-.289.704c-.193.188-.456.281-.789.281-.339 0-.604-.094-.797-.281a.952.952 0 0 1-.281-.703zm7.531 9.329c.307 0 .583-.06.828-.18.25-.125.451-.297.602-.515.156-.219.242-.472.257-.758h1.774a2.64 2.64 0 0 1-.484 1.492 3.357 3.357 0 0 1-1.243 1.07 3.732 3.732 0 0 1-1.711.391c-.645 0-1.208-.109-1.687-.328a3.328 3.328 0 0 1-1.195-.922 4.045 4.045 0 0 1-.719-1.352 5.58 5.58 0 0 1-.235-1.64v-.274c0-.583.079-1.13.235-1.64.161-.516.401-.969.719-1.36.317-.39.716-.695 1.195-.914.479-.224 1.039-.336 1.68-.336.677 0 1.27.136 1.781.407.51.265.911.638 1.203 1.117.297.474.451 1.026.461 1.656h-1.774a1.875 1.875 0 0 0-.234-.844 1.545 1.545 0 0 0-.578-.61c-.245-.15-.539-.226-.883-.226-.38 0-.695.079-.945.235-.25.15-.445.36-.586.625-.141.26-.242.554-.305.883a5.788 5.788 0 0 0-.086 1.007v.274c0 .349.029.687.086 1.015.058.329.156.623.297.883.146.255.344.461.594.617.25.151.568.227.953.227z" fill="#454545"/><rect x="579.12" y="149.234" width="270.88" height="355.531" rx="12.697" fill="url(#j)"/><rect x="579.12" y="149.234" width="270.88" height="355.531" rx="12.697" stroke="#DDD" stroke-opacity=".2"/><g clip-path="url(#k)"><path d="M599.436 165.658a6.34 6.34 0 0 0-6.349 6.349 6.34 6.34 0 0 0 6.349 6.349 6.34 6.34 0 0 0 6.348-6.349 6.34 6.34 0 0 0-6.348-6.349zm4.655 6.349c0 .973-.296 1.883-.825 2.645l-6.476-6.475a4.655 4.655 0 0 1 7.301 3.83zm-9.311 0c0-.974.296-1.884.825-2.645l6.476 6.475a4.613 4.613 0 0 1-2.645.826 4.67 4.67 0 0 1-4.656-4.656z" fill="#D82E22"/></g><path d="m619.728 176.701 2.992-9.297h2.164l-4.078 11.375h-1.461l.383-2.078zm-2.766-9.297 2.969 9.297.406 2.078h-1.469l-4.062-11.375h2.156zm13.414 9.68v-4.031c0-.302-.055-.563-.164-.782a1.145 1.145 0 0 0-.5-.507c-.219-.12-.495-.18-.828-.18-.308 0-.573.052-.797.156a1.29 1.29 0 0 0-.524.422 1.018 1.018 0 0 0-.187.602h-1.875c0-.334.081-.657.242-.969.162-.313.396-.591.703-.836a3.505 3.505 0 0 1 1.102-.578 4.569 4.569 0 0 1 1.437-.211c.636 0 1.198.107 1.688.32.495.214.883.537 1.164.969.286.427.43.964.43 1.609v3.758c0 .386.026.732.078 1.039.057.302.138.565.242.789v.125h-1.93a3.359 3.359 0 0 1-.211-.773 6.3 6.3 0 0 1-.07-.922zm.273-3.445.016 1.164h-1.352c-.348 0-.656.034-.921.101a1.9 1.9 0 0 0-.664.282 1.22 1.22 0 0 0-.399.453 1.331 1.331 0 0 0-.133.601c0 .224.052.43.157.617.104.183.255.326.453.43.203.104.448.156.734.156.385 0 .721-.078 1.008-.234.292-.161.521-.357.687-.586.167-.234.256-.456.266-.664l.609.836a2.834 2.834 0 0 1-.32.687c-.151.245-.349.48-.594.704a2.958 2.958 0 0 1-.867.539c-.333.14-.719.211-1.156.211-.552 0-1.044-.11-1.477-.329a2.62 2.62 0 0 1-1.015-.898 2.328 2.328 0 0 1-.368-1.289c0-.448.084-.844.25-1.188.172-.349.422-.64.75-.875a3.65 3.65 0 0 1 1.219-.531 6.52 6.52 0 0 1 1.641-.187h1.476zm5.477-1.703v6.843h-1.883v-8.453h1.797l.086 1.61zm2.586-1.665-.016 1.75a4.623 4.623 0 0 0-.765-.062 2.37 2.37 0 0 0-.852.141 1.597 1.597 0 0 0-.992 1 2.683 2.683 0 0 0-.156.804l-.43.032c0-.532.052-1.024.156-1.477a4.03 4.03 0 0 1 .469-1.195c.214-.344.479-.612.797-.805a2.134 2.134 0 0 1 1.117-.289c.115 0 .237.01.367.031.136.021.237.044.305.07zm3.195.055v8.453h-1.89v-8.453h1.89zm-2.015-2.219c0-.286.093-.523.281-.711.193-.192.458-.289.797-.289.333 0 .596.097.789.289a.954.954 0 0 1 .289.711.945.945 0 0 1-.289.704c-.193.187-.456.281-.789.281-.339 0-.604-.094-.797-.281a.953.953 0 0 1-.281-.704zm3.718 6.539v-.179c0-.61.089-1.175.266-1.696.177-.526.432-.981.766-1.367.338-.39.75-.692 1.234-.906.49-.219 1.042-.328 1.656-.328.62 0 1.172.109 1.656.328.49.214.904.516 1.243.906.338.386.596.841.773 1.367a5.24 5.24 0 0 1 .266 1.696v.179a5.24 5.24 0 0 1-.266 1.696 4.064 4.064 0 0 1-.773 1.367c-.339.385-.75.687-1.235.906-.484.214-1.034.321-1.648.321-.62 0-1.175-.107-1.664-.321a3.592 3.592 0 0 1-1.235-.906 4.064 4.064 0 0 1-.773-1.367 5.24 5.24 0 0 1-.266-1.696zm1.883-.179v.179c0 .381.039.74.117 1.079.078.338.201.635.368.89.166.255.38.456.64.602.261.146.57.219.93.219.349 0 .651-.073.906-.219a1.82 1.82 0 0 0 .641-.602c.166-.255.289-.552.367-.89a4.52 4.52 0 0 0 .125-1.079v-.179c0-.375-.042-.729-.125-1.063a2.723 2.723 0 0 0-.375-.898 1.79 1.79 0 0 0-.641-.61c-.255-.151-.56-.226-.914-.226s-.661.075-.922.226a1.806 1.806 0 0 0-.632.61c-.167.26-.29.56-.368.898a4.661 4.661 0 0 0-.117 1.063zm12.641 2.32v-6.461h1.89v8.453h-1.781l-.109-1.992zm.265-1.758.633-.015c0 .567-.062 1.091-.187 1.57a3.645 3.645 0 0 1-.578 1.242 2.7 2.7 0 0 1-1 .82c-.407.193-.894.29-1.461.29-.412 0-.789-.06-1.133-.18a2.325 2.325 0 0 1-.891-.555c-.245-.25-.435-.575-.57-.976-.136-.401-.203-.881-.203-1.438v-5.461h1.883v5.477c0 .307.036.565.109.773.073.203.172.367.297.492s.271.214.437.266c.167.052.344.078.532.078.536 0 .958-.104 1.265-.312.313-.214.534-.5.664-.86a3.4 3.4 0 0 0 .203-1.211zm8.297 1.461a.951.951 0 0 0-.14-.508c-.094-.156-.274-.296-.539-.421-.261-.125-.646-.24-1.157-.344a9.87 9.87 0 0 1-1.234-.352c-.37-.14-.688-.31-.953-.508a2.112 2.112 0 0 1-.617-.703 1.944 1.944 0 0 1-.219-.937c0-.344.075-.669.226-.977.152-.307.368-.578.649-.812.281-.235.622-.42 1.023-.555.407-.135.86-.203 1.36-.203.708 0 1.315.12 1.82.359.51.235.901.555 1.172.961.271.401.406.854.406 1.36h-1.883c0-.224-.057-.433-.172-.625a1.196 1.196 0 0 0-.5-.477c-.223-.125-.505-.187-.843-.187-.323 0-.591.052-.805.156a1.105 1.105 0 0 0-.469.39 1 1 0 0 0-.148.532c0 .14.026.268.078.382.057.11.151.211.281.305.13.089.308.172.531.25.23.078.516.154.86.227.646.135 1.2.31 1.664.523.469.209.828.479 1.078.813.25.328.375.744.375 1.25 0 .375-.081.718-.242 1.031a2.35 2.35 0 0 1-.688.805 3.45 3.45 0 0 1-1.086.523 4.882 4.882 0 0 1-1.406.188c-.765 0-1.414-.136-1.945-.407-.531-.276-.935-.627-1.211-1.054a2.5 2.5 0 0 1-.406-1.344h1.82c.021.349.117.627.289.836.177.203.396.351.656.445.266.089.539.133.821.133.338 0 .622-.044.851-.133.229-.094.404-.219.524-.375a.899.899 0 0 0 .179-.547zm7.664-9.086h4.024c.864 0 1.601.131 2.211.391.609.26 1.075.646 1.398 1.156.328.505.492 1.13.492 1.875 0 .568-.104 1.068-.312 1.5a3.054 3.054 0 0 1-.883 1.094c-.38.292-.833.518-1.359.68l-.594.289h-3.617l-.016-1.555h2.711c.469 0 .859-.083 1.172-.25.312-.167.547-.393.703-.68.161-.291.242-.619.242-.984 0-.396-.078-.74-.234-1.031a1.511 1.511 0 0 0-.703-.68c-.318-.161-.722-.242-1.211-.242h-2.063v9.812h-1.961v-11.375zm6.493 11.375-2.672-5.109 2.054-.008 2.711 5.016v.101h-2.093zm7.125.157a4.514 4.514 0 0 1-1.696-.305 3.746 3.746 0 0 1-1.281-.867 3.856 3.856 0 0 1-.805-1.305 4.58 4.58 0 0 1-.281-1.617v-.313c0-.661.096-1.26.289-1.797.193-.536.461-.994.805-1.375a3.46 3.46 0 0 1 1.219-.882 3.77 3.77 0 0 1 1.523-.305c.604 0 1.133.101 1.586.305.453.203.828.489 1.125.859.302.365.526.799.672 1.305a5.82 5.82 0 0 1 .226 1.672v.804h-6.531v-1.351h4.672v-.149a2.637 2.637 0 0 0-.203-.953 1.626 1.626 0 0 0-.555-.719c-.25-.182-.583-.273-1-.273-.312 0-.591.068-.836.203-.239.13-.44.32-.601.57-.162.25-.287.552-.375.907a5.054 5.054 0 0 0-.125 1.179v.313c0 .37.049.713.148 1.031.104.313.255.586.453.82.198.235.438.42.719.555.281.13.602.195.961.195.453 0 .857-.091 1.211-.273.354-.182.661-.44.922-.774l.992.961a3.847 3.847 0 0 1-.711.766 3.55 3.55 0 0 1-1.07.586c-.417.151-.901.227-1.453.227zm7.148-2.032 1.953-6.578h1.203l-.328 1.969-1.969 6.484h-1.078l.219-1.875zm-1.148-6.578 1.523 6.61.125 1.843h-1.203l-2.289-8.453h1.844zm6.132 6.531 1.477-6.531h1.836l-2.281 8.453h-1.204l.172-1.922zm-1.625-6.531 1.93 6.5.242 1.953h-1.078l-1.992-6.492-.328-1.961h1.226zm10.985 6.758v-4.031c0-.302-.055-.563-.164-.782a1.15 1.15 0 0 0-.5-.507c-.219-.12-.495-.18-.828-.18-.308 0-.573.052-.797.156a1.29 1.29 0 0 0-.524.422 1.018 1.018 0 0 0-.187.602h-1.875c0-.334.08-.657.242-.969.161-.313.396-.591.703-.836a3.494 3.494 0 0 1 1.102-.578 4.569 4.569 0 0 1 1.437-.211c.636 0 1.198.107 1.688.32.494.214.882.537 1.164.969.286.427.429.964.429 1.609v3.758c0 .386.026.732.078 1.039.058.302.138.565.243.789v.125h-1.93a3.31 3.31 0 0 1-.211-.773 6.3 6.3 0 0 1-.07-.922zm.273-3.445.016 1.164h-1.352c-.349 0-.656.034-.922.101a1.907 1.907 0 0 0-.664.282 1.216 1.216 0 0 0-.531 1.054c0 .224.052.43.156.617.104.183.255.326.453.43.204.104.448.156.735.156.385 0 .721-.078 1.008-.234.291-.161.52-.357.687-.586.167-.234.255-.456.266-.664l.609.836a2.834 2.834 0 0 1-.32.687c-.151.245-.349.48-.594.704-.24.218-.529.398-.867.539-.333.14-.719.211-1.156.211-.552 0-1.045-.11-1.477-.329a2.63 2.63 0 0 1-1.016-.898 2.336 2.336 0 0 1-.367-1.289c0-.448.084-.844.25-1.188.172-.349.422-.64.75-.875a3.65 3.65 0 0 1 1.219-.531 6.52 6.52 0 0 1 1.641-.187h1.476zm5.477-1.703v6.843h-1.883v-8.453h1.797l.086 1.61zm2.586-1.665-.016 1.75a4.63 4.63 0 0 0-.766-.062c-.323 0-.606.047-.851.141a1.59 1.59 0 0 0-.992 1 2.714 2.714 0 0 0-.157.804l-.429.032c0-.532.052-1.024.156-1.477.104-.453.26-.852.469-1.195.213-.344.479-.612.797-.805a2.134 2.134 0 0 1 1.117-.289c.114 0 .237.01.367.031.135.021.237.044.305.07zm6.179 6.758v-10.25h1.891v12h-1.711l-.18-1.75zm-5.5-2.383v-.164c0-.64.076-1.224.227-1.75.151-.531.37-.987.656-1.367a2.905 2.905 0 0 1 1.047-.883 3.038 3.038 0 0 1 1.391-.312c.51 0 .958.099 1.343.297.386.198.714.482.985.851a4.4 4.4 0 0 1 .648 1.313c.162.505.276 1.068.344 1.687v.524a8.435 8.435 0 0 1-.344 1.656c-.161.5-.377.932-.648 1.297a2.806 2.806 0 0 1-.992.844c-.386.198-.836.297-1.352.297-.51 0-.971-.107-1.383-.321a3.062 3.062 0 0 1-1.039-.898 4.246 4.246 0 0 1-.656-1.36 6.178 6.178 0 0 1-.227-1.711zm1.883-.164v.164c0 .386.034.745.102 1.079.073.333.185.627.336.882.151.25.346.448.586.594.244.141.536.211.875.211.427 0 .778-.094 1.054-.281a1.93 1.93 0 0 0 .649-.758c.161-.323.271-.682.328-1.078v-1.414a3.496 3.496 0 0 0-.195-.86 2.322 2.322 0 0 0-.383-.695 1.623 1.623 0 0 0-.602-.469 1.892 1.892 0 0 0-.836-.171c-.344 0-.635.072-.875.218a1.792 1.792 0 0 0-.594.602 2.937 2.937 0 0 0-.335.89c-.073.339-.11.701-.11 1.086zm12.219 2.008a.943.943 0 0 0-.141-.508c-.093-.156-.273-.296-.539-.421-.26-.125-.646-.24-1.156-.344a9.87 9.87 0 0 1-1.234-.352c-.37-.14-.688-.31-.954-.508a2.135 2.135 0 0 1-.617-.703 1.944 1.944 0 0 1-.218-.937c0-.344.075-.669.226-.977.151-.307.367-.578.649-.812.281-.235.622-.42 1.023-.555a4.29 4.29 0 0 1 1.359-.203c.709 0 1.315.12 1.821.359.51.235.901.555 1.172.961.27.401.406.854.406 1.36h-1.883c0-.224-.057-.433-.172-.625a1.196 1.196 0 0 0-.5-.477c-.224-.125-.505-.187-.844-.187-.323 0-.591.052-.804.156a1.1 1.1 0 0 0-.469.39 1 1 0 0 0-.07.914c.057.11.151.211.281.305.13.089.307.172.531.25.229.078.516.154.859.227.646.135 1.201.31 1.665.523.468.209.828.479 1.078.813.25.328.375.744.375 1.25 0 .375-.081.718-.243 1.031a2.347 2.347 0 0 1-.687.805 3.45 3.45 0 0 1-1.086.523 4.887 4.887 0 0 1-1.406.188c-.766 0-1.414-.136-1.946-.407-.531-.276-.934-.627-1.21-1.054a2.5 2.5 0 0 1-.407-1.344h1.821c.02.349.117.627.289.836.177.203.395.351.656.445.266.089.539.133.82.133.339 0 .623-.044.852-.133.229-.094.403-.219.523-.375a.893.893 0 0 0 .18-.547z" fill="#454545"/></g><defs><clipPath id="a"><rect y=".512" width="950" height="200" rx="15" fill="#fff"/></clipPath><clipPath id="k"><path fill="#fff" transform="translate(592.664 165.234)" d="M0 0h13.544v13.544H0z"/></clipPath><clipPath id="i"><path fill="#fff" transform="translate(558.804 89.049)" d="M0 0h13.544v13.544H0z"/></clipPath><clipPath id="g"><path fill="#fff" transform="translate(524.943 38.26)" d="M0 0h13.544v13.544H0z"/></clipPath><clipPath id="e"><path fill="#fff" transform="translate(147.404 113.049)" d="M0 0h13.544v13.544H0z"/></clipPath><clipPath id="c"><path fill="#fff" transform="translate(113.544 38.512)" d="M0 0h13.544v13.544H0z"/></clipPath><linearGradient id="d" x1="269.3" y1="97.049" x2="269.3" y2="452.579" gradientUnits="userSpaceOnUse"><stop stop-color="#F0F0F0"/><stop offset=".782" stop-color="#C4C4C4"/><stop offset="1" stop-color="#C4C4C4"/></linearGradient><linearGradient id="j" x1="714.56" y1="149.234" x2="714.56" y2="504.765" gradientUnits="userSpaceOnUse"><stop stop-color="#F0F0F0"/><stop offset=".782" stop-color="#C4C4C4"/><stop offset="1" stop-color="#C4C4C4"/></linearGradient><linearGradient id="h" x1="680.7" y1="73.049" x2="680.7" y2="428.579" gradientUnits="userSpaceOnUse"><stop stop-color="#F0F0F0"/><stop offset=".782" stop-color="#C4C4C4"/><stop offset="1" stop-color="#C4C4C4"/></linearGradient><linearGradient id="f" x1="646.84" y1="22.26" x2="646.84" y2="377.79" gradientUnits="userSpaceOnUse"><stop stop-color="#F0F0F0"/><stop offset=".782" stop-color="#C4C4C4"/><stop offset="1" stop-color="#C4C4C4"/></linearGradient><linearGradient id="b" x1="235.44" y1="22.512" x2="235.44" y2="378.042" gradientUnits="userSpaceOnUse"><stop stop-color="#F0F0F0"/><stop offset=".782" stop-color="#C4C4C4"/><stop offset="1" stop-color="#C4C4C4"/></linearGradient></defs></svg>