<svg width="440" height="343" fill="none" xmlns="http://www.w3.org/2000/svg"><path fill="#fff" d="M0 .012h440v342.117H0z"/><path d="M72.15 162.096c-3.68-2.638-7.333-5.263-8.478-10.033-2.01-8.372 7.784-21.363 14.73-25.659h.475c-3.326 3.801-7.84 10.896-9.028 13.779-1.188 2.884-1.591 6.502-.862 9.535.843 3.51 2.908 6.404 5.598 8.404l4.951-8.082 3.891 16.203-16.202 3.891 4.925-8.038z" fill="url(#a)" stroke="url(#b)" stroke-width="6.652"/><g filter="url(#c)"><path fill="#fff" d="M70.006 61.74h199.072v53.206H70.006z"/><path stroke="#DDD" stroke-opacity=".2" stroke-width="1.21" d="M70.612 62.345h197.861v51.995H70.612z"/><g clip-path="url(#d)"><path d="M110.766 94.13v2.315H96.873V94.13s0-4.631 6.946-4.631c6.947 0 6.947 4.63 6.947 4.63zm-3.473-10.42a3.471 3.471 0 0 0-2.144-3.21 3.473 3.473 0 1 0 2.144 3.21zm3.705 5.858a6.485 6.485 0 0 1 2.084 4.562v2.315h3.473V94.13s0-3.995-5.557-4.562zm-1.39-9.332c-.349 0-.697.055-1.03.162a5.791 5.791 0 0 1 0 6.623c.333.107.681.162 1.03.162a3.472 3.472 0 0 0 3.474-3.473 3.471 3.471 0 0 0-3.474-3.474zm-11.578 5.79h-3.473v-3.474h-2.316v3.473h-3.473v2.316h3.473v3.473h2.316v-3.473h3.473v-2.316z" fill="#454545"/></g><path d="M136.856 94.844v-13.04h2.129v13.04h-2.129zm4.95 0v-9.999h1.635l.171 1.426h.133c.241-.368.526-.672.855-.912.33-.241.691-.425 1.084-.552.405-.127.849-.19 1.331-.19.633 0 1.191.114 1.672.342.482.216.856.57 1.122 1.065.279.494.418 1.16.418 1.996v6.824h-1.977v-6.52c0-.38-.051-.697-.152-.95a1.388 1.388 0 0 0-.399-.609 1.565 1.565 0 0 0-.627-.323 3.136 3.136 0 0 0-.799-.095 2.467 2.467 0 0 0-2.148 1.255c-.228.392-.342.855-.342 1.387v5.855h-1.977zm13.501 0-3.707-9.999h2.072l1.73 4.771c.076.228.171.526.285.894.114.355.228.722.342 1.102.114.38.216.723.304 1.027h.095c.076-.292.165-.621.267-.989.114-.38.228-.754.342-1.121.114-.368.215-.672.304-.913l1.711-4.77h2.014l-3.725 9.998h-2.034zm7.197-11.728V81.1h1.977v2.014h-1.977zm0 11.728v-9.999h1.977v9.999h-1.977zm7.02.228c-.571 0-1.021-.108-1.35-.323a1.94 1.94 0 0 1-.684-.856 3.302 3.302 0 0 1-.19-1.121V86.48h-1.255v-1.635h1.293l.361-2.794h1.577v2.794h1.806v1.635h-1.806v6.064c0 .291.064.513.19.665.127.152.336.228.628.228h.988v1.33a2.76 2.76 0 0 1-.475.134c-.177.05-.361.089-.551.114-.19.038-.368.057-.532.057zm7.445 0c-1.027 0-1.888-.184-2.585-.551-.685-.38-1.204-.957-1.559-1.73s-.532-1.755-.532-2.947c0-1.203.177-2.185.532-2.946.355-.773.881-1.343 1.578-1.71.697-.38 1.565-.57 2.604-.57.95 0 1.742.183 2.376.55.646.355 1.134.9 1.464 1.635.329.735.494 1.66.494 2.775v.76h-7.014c.025.71.133 1.306.323 1.788.19.468.475.817.855 1.045.393.215.887.323 1.483.323.367 0 .697-.044.988-.133.292-.101.539-.24.742-.418.202-.19.361-.412.475-.665.114-.267.171-.564.171-.894h1.939c0 .596-.102 1.122-.304 1.578a3.077 3.077 0 0 1-.894 1.16c-.38.304-.836.538-1.368.703a5.965 5.965 0 0 1-1.768.247zm-2.604-6.178h4.904c0-.494-.057-.906-.171-1.236a2.061 2.061 0 0 0-.456-.836 1.677 1.677 0 0 0-.723-.456 2.765 2.765 0 0 0-.95-.152c-.532 0-.989.095-1.369.285-.367.19-.652.488-.855.893-.203.393-.33.894-.38 1.502zm15.412 6.178c-.317 0-.659-.038-1.027-.114a3.228 3.228 0 0 1-1.045-.418 2.363 2.363 0 0 1-.78-.837c-.202-.367-.304-.843-.304-1.425 0-.685.159-1.249.475-1.692.317-.444.761-.792 1.331-1.046.57-.253 1.248-.43 2.034-.532a20.724 20.724 0 0 1 2.604-.152v-.988c0-.33-.057-.621-.171-.875-.101-.253-.298-.45-.589-.59-.279-.138-.684-.208-1.217-.208-.532 0-.95.07-1.254.209-.292.127-.501.291-.628.494-.114.19-.171.4-.171.627v.286h-1.901a1.021 1.021 0 0 1-.019-.19v-.229c0-.595.165-1.096.495-1.501.342-.419.817-.735 1.425-.95.609-.216 1.312-.324 2.11-.324.862 0 1.578.127 2.148.38.583.241 1.02.59 1.312 1.046.291.456.437 1.007.437 1.653v5.076c0 .24.057.412.171.513a.681.681 0 0 0 .437.152h.685v1.33a4.993 4.993 0 0 1-.571.19 2.994 2.994 0 0 1-.798.096c-.342 0-.634-.063-.874-.19a1.528 1.528 0 0 1-.571-.495 2.212 2.212 0 0 1-.285-.76h-.114a3.798 3.798 0 0 1-.836.78c-.317.215-.684.38-1.103.494-.418.126-.887.19-1.406.19zm.551-1.635c.393 0 .754-.057 1.083-.171.343-.127.634-.298.875-.513.241-.228.431-.494.57-.799.139-.316.209-.658.209-1.026v-.665c-.874 0-1.641.05-2.3.152-.659.101-1.172.291-1.54.57-.367.266-.551.64-.551 1.121 0 .292.064.54.19.742.127.19.317.336.571.437.253.101.551.152.893.152zm11.707 1.407V86.48h-1.464v-1.635h1.464v-1.444c0-.419.063-.811.19-1.179.139-.367.374-.672.703-.912.343-.241.824-.362 1.445-.362.177 0 .355.013.532.039.19.012.368.038.533.076.164.038.31.082.437.133v1.387h-.97c-.304 0-.532.076-.684.228-.139.152-.209.374-.209.666v1.368h1.863v1.635h-1.863v8.364h-1.977zm5.132 0v-9.999h1.634l.172 1.616h.114c.114-.317.259-.615.437-.893.19-.28.431-.507.722-.685.304-.177.672-.266 1.103-.266.202 0 .38.02.532.057.165.038.291.07.38.095v1.863h-.665a2.9 2.9 0 0 0-1.084.19 2.036 2.036 0 0 0-.779.57c-.203.241-.355.539-.456.894a4.932 4.932 0 0 0-.133 1.197v5.36h-1.977zm6.571-11.728V81.1h1.977v2.014h-1.977zm0 11.728v-9.999h1.977v9.999h-1.977zm8.673.228c-1.026 0-1.888-.184-2.585-.551-.684-.38-1.204-.957-1.559-1.73-.354-.773-.532-1.755-.532-2.947 0-1.203.178-2.185.532-2.946.355-.773.881-1.343 1.578-1.71.697-.38 1.565-.57 2.604-.57.951 0 1.743.183 2.376.55.647.355 1.135.9 1.464 1.635.329.735.494 1.66.494 2.775v.76h-7.014c.025.71.133 1.306.323 1.788.19.468.475.817.856 1.045.392.215.887.323 1.482.323.368 0 .697-.044.989-.133.291-.101.538-.24.741-.418a2.06 2.06 0 0 0 .475-.665c.114-.267.171-.564.171-.894h1.939c0 .596-.101 1.122-.304 1.578-.203.456-.5.843-.893 1.16-.38.304-.837.538-1.369.703a5.955 5.955 0 0 1-1.768.247zm-2.604-6.178h4.904c0-.494-.057-.906-.171-1.236a2.038 2.038 0 0 0-.456-.836 1.68 1.68 0 0 0-.722-.456 2.775 2.775 0 0 0-.951-.152c-.532 0-.988.095-1.368.285-.368.19-.653.488-.856.893-.202.393-.329.894-.38 1.502zm8.986 5.95v-9.999h1.634l.171 1.426h.134a3.45 3.45 0 0 1 .855-.912c.329-.241.691-.425 1.083-.552.406-.127.849-.19 1.331-.19.634 0 1.191.114 1.673.342.481.216.855.57 1.121 1.065.279.494.418 1.16.418 1.996v6.824h-1.976v-6.52c0-.38-.051-.697-.153-.95a1.37 1.37 0 0 0-.399-.609 1.552 1.552 0 0 0-.627-.323 3.134 3.134 0 0 0-.798-.095c-.457 0-.875.114-1.255.342-.367.216-.665.52-.893.913-.228.392-.342.855-.342 1.387v5.855h-1.977zm14.337.228c-.811 0-1.515-.184-2.11-.551-.596-.368-1.058-.938-1.388-1.711-.317-.773-.475-1.774-.475-3.004 0-1.203.165-2.185.494-2.946.33-.76.786-1.324 1.369-1.692.583-.367 1.254-.55 2.015-.55.443 0 .855.05 1.235.151.38.102.716.26 1.008.475.304.216.557.488.76.818h.133V81.1h1.977v13.743h-1.616l-.19-1.369h-.133a3.141 3.141 0 0 1-1.311 1.198c-.533.266-1.122.399-1.768.399zm.551-1.71c.583 0 1.052-.128 1.407-.381.367-.266.64-.646.817-1.14.177-.507.266-1.122.266-1.844v-.267c0-.608-.057-1.127-.171-1.558-.114-.431-.279-.78-.494-1.046a1.9 1.9 0 0 0-.78-.608 2.644 2.644 0 0 0-1.026-.19c-.583 0-1.058.12-1.426.361-.367.228-.64.59-.817 1.084-.165.494-.247 1.134-.247 1.92v.342c0 .785.089 1.425.266 1.92.177.481.443.836.798 1.064.368.228.837.342 1.407.342z" fill="#454545"/></g><path fill="#fff" d="M208.4 39.779h71.965v32.978H208.4z"/><path stroke="#DDD" stroke-opacity=".6" stroke-width="1.105" d="M208.953 40.332h70.86v31.874h-70.86z"/><mask id="e" maskUnits="userSpaceOnUse" x="215.381" y="53.768" width="8" height="8" fill="#000"><path fill="#fff" d="M215.381 53.768h8v8h-8z"/><path d="M218.6 60.768v-2.45h-2.27v-1.273h2.27v-2.462h1.261v2.462h2.282v1.273h-2.282v2.45H218.6z"/></mask><path d="M218.6 60.768v-2.45h-2.27v-1.273h2.27v-2.462h1.261v2.462h2.282v1.273h-2.282v2.45H218.6z" fill="#454545"/><path d="M218.6 60.768h-.364v.364h.364v-.364zm0-2.45h.364v-.364h-.364v.364zm-2.27 0h-.364v.364h.364v-.364zm0-1.273v-.364h-.364v.364h.364zm2.27 0v.364h.364v-.364h-.364zm0-2.462v-.364h-.364v.364h.364zm1.261 0h.364v-.364h-.364v.364zm0 2.462h-.364v.364h.364v-.364zm2.282 0h.364v-.364h-.364v.364zm0 1.273v.364h.364v-.364h-.364zm-2.282 0v-.364h-.364v.364h.364zm0 2.45v.364h.364v-.364h-.364zm-.897 0v-2.45h-.728v2.45h.728zm-.364-2.814h-2.27v.728h2.27v-.728zm-1.906.364v-1.273h-.728v1.273h.728zm-.364-.91h2.27v-.727h-2.27v.728zm2.634-.363v-2.462h-.728v2.462h.728zm-.364-2.098h1.261v-.728H218.6v.728zm.897-.364v2.462h.728v-2.462h-.728zm.364 2.826h2.282v-.728h-2.282v.728zm1.918-.364v1.273h.728v-1.273h-.728zm.364.909h-2.282v.728h2.282v-.728zm-2.646.364v2.45h.728v-2.45h-.728zm.364 2.086H218.6v.728h1.261v-.728z" fill="#454545" mask="url(#e)"/><mask id="f" maskUnits="userSpaceOnUse" x="226.384" y="48.768" width="46" height="17" fill="#000"><path fill="#fff" d="M226.384 48.768h46v17h-46z"/><path d="m226.868 61.768.358-2.008h2.941l1.291-7.261h-2.977l.269-1.506a6.325 6.325 0 0 0 1.04-.18c.383-.095.783-.209 1.201-.34.431-.144.849-.3 1.255-.466.407-.18.789-.365 1.148-.556h1.093l-1.81 10.309h2.743l-.359 2.008h-8.193zm14.929.215c-.825 0-1.53-.126-2.116-.377a2.647 2.647 0 0 1-1.308-1.219c-.299-.574-.449-1.327-.449-2.259 0-.239.006-.49.018-.753.024-.275.054-.556.09-.843.036-.298.084-.615.143-.95.204-1.183.461-2.175.771-2.976.311-.813.682-1.464 1.112-1.954.442-.502.944-.86 1.506-1.076.574-.215 1.213-.322 1.918-.322.849 0 1.56.125 2.134.376a2.62 2.62 0 0 1 1.326 1.237c.299.562.449 1.309.449 2.241 0 .24-.012.496-.036.771a29.45 29.45 0 0 1-.09.843 14.48 14.48 0 0 1-.143.896c-.192 1.195-.449 2.2-.771 3.012-.311.8-.688 1.452-1.13 1.954-.442.49-.944.849-1.506 1.076-.562.215-1.201.323-1.918.323zm.036-1.936c.418 0 .771-.084 1.058-.252.286-.167.525-.418.717-.753.203-.346.376-.794.52-1.344.143-.55.286-1.195.43-1.936.06-.371.113-.7.161-.986.048-.287.084-.538.108-.754a6.216 6.216 0 0 0 .089-1.021c0-.61-.113-1.064-.34-1.363-.215-.299-.586-.448-1.112-.448-.418 0-.771.084-1.058.25-.286.168-.531.425-.735.772-.191.346-.358.789-.502 1.326a28.55 28.55 0 0 0-.43 1.937c-.072.37-.131.699-.179.986l-.126.753c-.024.215-.041.406-.053.574a5.617 5.617 0 0 0-.018.43c0 .61.113 1.07.34 1.38.227.299.604.449 1.13.449zm8.731 1.72 4.375-4.912-2.456-4.518h2.778l1.399 2.833h.107l2.367-2.833h2.833l-4.106 4.59 2.635 4.84h-2.778l-1.506-3.083h-.108l-2.653 3.084h-2.887zm10.69 3.192 2.223-12.622h2.026l.018 1.273h.126c.37-.514.812-.89 1.326-1.13a3.823 3.823 0 0 1 1.632-.358c.681 0 1.261.132 1.739.395.49.262.866.657 1.129 1.183.263.514.395 1.16.395 1.936 0 .227-.012.478-.036.753-.024.263-.06.538-.108.825-.191 1.087-.502 1.984-.932 2.689-.418.705-.926 1.231-1.524 1.578a3.831 3.831 0 0 1-1.936.502 4.66 4.66 0 0 1-1.201-.144 2.555 2.555 0 0 1-.915-.412 2.274 2.274 0 0 1-.609-.7h-.126l-.735 4.232h-2.492zm5.379-5.02c.502 0 .914-.096 1.237-.287.323-.191.585-.484.789-.879.203-.394.358-.878.466-1.452a8.715 8.715 0 0 0 .179-1.147c.012-.132.018-.251.018-.359 0-.37-.06-.675-.179-.914a1.176 1.176 0 0 0-.538-.538c-.239-.131-.556-.197-.95-.197-.454 0-.855.108-1.202.323-.334.215-.609.526-.824.932-.215.406-.371.896-.466 1.47-.036.215-.066.4-.09.556a9.693 9.693 0 0 0-.054.394v.305c0 .383.054.711.162.986.119.263.298.466.537.61.239.131.544.197.915.197z"/></mask><path d="m226.868 61.768.358-2.008h2.941l1.291-7.261h-2.977l.269-1.506a6.325 6.325 0 0 0 1.04-.18c.383-.095.783-.209 1.201-.34.431-.144.849-.3 1.255-.466.407-.18.789-.365 1.148-.556h1.093l-1.81 10.309h2.743l-.359 2.008h-8.193zm14.929.215c-.825 0-1.53-.126-2.116-.377a2.647 2.647 0 0 1-1.308-1.219c-.299-.574-.449-1.327-.449-2.259 0-.239.006-.49.018-.753.024-.275.054-.556.09-.843.036-.298.084-.615.143-.95.204-1.183.461-2.175.771-2.976.311-.813.682-1.464 1.112-1.954.442-.502.944-.86 1.506-1.076.574-.215 1.213-.322 1.918-.322.849 0 1.56.125 2.134.376a2.62 2.62 0 0 1 1.326 1.237c.299.562.449 1.309.449 2.241 0 .24-.012.496-.036.771a29.45 29.45 0 0 1-.09.843 14.48 14.48 0 0 1-.143.896c-.192 1.195-.449 2.2-.771 3.012-.311.8-.688 1.452-1.13 1.954-.442.49-.944.849-1.506 1.076-.562.215-1.201.323-1.918.323zm.036-1.936c.418 0 .771-.084 1.058-.252.286-.167.525-.418.717-.753.203-.346.376-.794.52-1.344.143-.55.286-1.195.43-1.936.06-.371.113-.7.161-.986.048-.287.084-.538.108-.754a6.216 6.216 0 0 0 .089-1.021c0-.61-.113-1.064-.34-1.363-.215-.299-.586-.448-1.112-.448-.418 0-.771.084-1.058.25-.286.168-.531.425-.735.772-.191.346-.358.789-.502 1.326a28.55 28.55 0 0 0-.43 1.937c-.072.37-.131.699-.179.986l-.126.753c-.024.215-.041.406-.053.574a5.617 5.617 0 0 0-.018.43c0 .61.113 1.07.34 1.38.227.299.604.449 1.13.449zm8.731 1.72 4.375-4.912-2.456-4.518h2.778l1.399 2.833h.107l2.367-2.833h2.833l-4.106 4.59 2.635 4.84h-2.778l-1.506-3.083h-.108l-2.653 3.084h-2.887zm10.69 3.192 2.223-12.622h2.026l.018 1.273h.126c.37-.514.812-.89 1.326-1.13a3.823 3.823 0 0 1 1.632-.358c.681 0 1.261.132 1.739.395.49.262.866.657 1.129 1.183.263.514.395 1.16.395 1.936 0 .227-.012.478-.036.753-.024.263-.06.538-.108.825-.191 1.087-.502 1.984-.932 2.689-.418.705-.926 1.231-1.524 1.578a3.831 3.831 0 0 1-1.936.502 4.66 4.66 0 0 1-1.201-.144 2.555 2.555 0 0 1-.915-.412 2.274 2.274 0 0 1-.609-.7h-.126l-.735 4.232h-2.492zm5.379-5.02c.502 0 .914-.096 1.237-.287.323-.191.585-.484.789-.879.203-.394.358-.878.466-1.452a8.715 8.715 0 0 0 .179-1.147c.012-.132.018-.251.018-.359 0-.37-.06-.675-.179-.914a1.176 1.176 0 0 0-.538-.538c-.239-.131-.556-.197-.95-.197-.454 0-.855.108-1.202.323-.334.215-.609.526-.824.932-.215.406-.371.896-.466 1.47-.036.215-.066.4-.09.556a9.693 9.693 0 0 0-.054.394v.305c0 .383.054.711.162.986.119.263.298.466.537.61.239.131.544.197.915.197z" fill="#454545"/><path d="m226.868 61.768-.359-.064-.076.428h.435v-.364zm.358-2.008v-.364h-.304l-.054.3.358.064zm2.941 0v.364h.305l.053-.3-.358-.064zm1.291-7.261.358.063.076-.427h-.434v.364zm-2.977 0-.358-.064-.076.428h.434v-.364zm.269-1.506-.028-.363-.281.021-.049.278.358.064zm1.04-.18.088.353-.088-.353zm1.201-.34.11.347.006-.002-.116-.345zm1.255-.466.139.336.008-.003-.147-.334zm1.148-.556v-.364h-.091l-.081.042.172.322zm1.093 0 .359.063.075-.427h-.434v.364zm-1.81 10.309-.359-.063-.075.427h.434v-.364zm2.743 0 .358.064.077-.428h-.435v.364zm-.359 2.008v.364h.305l.054-.3-.359-.064zm-7.835.064.359-2.008-.717-.128-.359 2.008.717.128zm0-1.708h2.941v-.729h-2.941v.729zm3.299-.3 1.291-7.262-.717-.127-1.291 7.26.717.128zm.933-7.69h-2.977v.729h2.977v-.728zm-2.618.429.269-1.506-.717-.128-.269 1.506.717.128zm-.062-1.207c.336-.026.703-.09 1.1-.19l-.176-.706a5.986 5.986 0 0 1-.98.17l.056.726zm1.1-.19c.391-.097.798-.213 1.223-.346l-.219-.695c-.412.13-.805.241-1.18.335l.176.706zm1.229-.348c.437-.146.864-.304 1.278-.475l-.277-.673c-.399.164-.809.316-1.232.457l.231.691zm1.286-.478c.414-.183.805-.372 1.172-.568l-.343-.642c-.349.186-.724.367-1.123.543l.294.667zm1.001-.525h1.093v-.728h-1.093v.728zm.735-.427-1.811 10.309.717.126 1.811-10.31-.717-.125zm-1.452 10.736h2.743v-.729h-2.743v.729zm2.384-.428-.358 2.008.717.128.358-2.008-.717-.128zm0 1.708h-8.193v.728h8.193v-.728zm4.62.202-.146.334h.003l.143-.334zm-1.308-1.219-.323.168.001.003.322-.17zm-.431-3.012-.362-.031-.001.007v.008l.363.016zm.09-.843.361.046v-.002l-.361-.044zm.143-.95.359.064v-.002l-.359-.062zm.771-2.976.34.132v-.002l-.34-.13zm1.112-1.954-.273-.24h-.001l.274.24zm1.506-1.076-.128-.34h-.002l.13.34zm4.052.054-.146.334h.002l.144-.334zm1.326 1.237-.323.168.002.003.321-.17zm.413 3.012.362.033v-.001l-.362-.032zm-.09.843.361.045.001-.002-.362-.043zm-.143.896-.358-.069-.002.012.36.057zm-.771 3.012-.339-.134-.001.002.34.132zm-1.13 1.954.271.244.002-.003-.273-.24zm-1.506 1.076.13.34.007-.002-.137-.338zm-.824-1.864-.184-.315.184.314zm.717-.754-.314-.184-.002.004.316.18zm.52-1.344-.353-.092.353.092zm.43-1.936.357.069.002-.012-.359-.057zm.161-.986.359.06-.359-.06zm.108-.754-.359-.06-.002.01-.001.01.362.04zm.072-.573-.364-.026.364.026zm-.323-1.811-.296.213.006.007.29-.22zm-2.17-.197-.183-.315.183.315zm-.735.77-.314-.183-.004.008.318.176zm-.502 1.327.352.094-.352-.094zm-.43 1.937.358.069v-.001l-.358-.068zm-.179.986-.359-.06.359.06zm-.126.753-.359-.06-.001.01-.002.01.362.04zm-.053.574.363.027v-.002l-.363-.026zm.322 1.81-.294.215.004.005.29-.22zm1.094 2.02c-.789 0-1.443-.12-1.972-.346l-.287.669c.642.275 1.399.406 2.259.406v-.728zm-1.97-.345a2.286 2.286 0 0 1-1.133-1.057l-.643.342a3.014 3.014 0 0 0 1.484 1.382l.292-.667zm-1.132-1.054c-.262-.504-.407-1.193-.407-2.09h-.728c0 .966.155 1.783.49 2.426l.645-.336zm-.407-2.09c0-.234.006-.48.018-.737l-.727-.033c-.013.267-.019.524-.019.77h.728zm.017-.722c.023-.27.053-.547.088-.83l-.722-.09c-.037.291-.067.577-.091.857l.725.063zm.088-.831c.035-.291.082-.601.141-.93l-.717-.128c-.061.34-.11.665-.147.971l.723.087zm.141-.932c.201-1.168.452-2.135.752-2.906l-.679-.264c-.322.83-.585 1.848-.79 3.047l.717.123zm.752-2.908c.301-.785.651-1.395 1.045-1.844l-.547-.48c-.466.531-.856 1.224-1.178 2.064l.68.26zm1.045-1.843c.408-.463.862-.785 1.363-.977l-.26-.68c-.623.239-1.173.634-1.649 1.175l.546.482zm1.361-.976c.527-.198 1.122-.3 1.79-.3v-.727c-.742 0-1.426.113-2.046.345l.256.682zm1.79-.3c.815 0 1.473.122 1.988.347l.292-.667c-.633-.277-1.398-.407-2.28-.407v.728zm1.99.348c.507.217.887.57 1.147 1.07l.646-.336a2.986 2.986 0 0 0-1.506-1.404l-.287.67zm1.149 1.073c.261.49.405 1.172.405 2.07h.729c0-.966-.154-1.779-.491-2.412l-.643.342zm.405 2.07c0 .227-.011.474-.034.74l.725.063a9.18 9.18 0 0 0 .038-.803h-.729zm-.034.738c-.023.26-.053.537-.088.832l.723.087c.036-.302.066-.586.09-.853l-.725-.066zm-.088.83c-.035.279-.081.57-.14.873l.715.138c.061-.318.11-.625.147-.92l-.722-.09zm-.142.885c-.188 1.178-.44 2.154-.75 2.935l.677.268c.336-.845.598-1.876.792-3.088l-.719-.115zm-.751 2.937c-.299.772-.656 1.384-1.063 1.846l.546.481c.478-.542.874-1.233 1.196-2.063l-.679-.264zm-1.06 1.842a3.72 3.72 0 0 1-1.372.982l.273.675a4.435 4.435 0 0 0 1.639-1.169l-.54-.488zm-1.366.98c-.513.197-1.107.299-1.788.299v.728c.753 0 1.438-.113 2.048-.347l-.26-.68zm-1.752-.91c.466 0 .886-.093 1.241-.3l-.367-.629c-.218.127-.504.201-.874.201v.728zm1.241-.3c.35-.204.632-.506.85-.887l-.632-.361a1.628 1.628 0 0 1-.585.619l.367.629zm.848-.883c.225-.385.409-.867.558-1.437l-.705-.184c-.138.53-.301.944-.481 1.252l.628.369zm.558-1.437c.146-.56.291-1.213.435-1.96l-.715-.138a30.784 30.784 0 0 1-.425 1.914l.705.184zm.437-1.97.161-.985-.718-.12-.162.989.719.115zm.161-.985c.049-.291.086-.549.111-.772l-.724-.08c-.023.206-.058.45-.105.733l.718.12zm.108-.753c.037-.223.063-.426.076-.607l-.727-.052a6.06 6.06 0 0 1-.067.54l.718.12zm.076-.607c.012-.174.019-.332.019-.474h-.729c0 .12-.005.26-.017.422l.727.052zm.019-.474c0-.644-.118-1.192-.415-1.583l-.58.44c.157.207.266.567.266 1.143h.729zm-.41-1.576c-.309-.43-.817-.6-1.407-.6v.729c.462 0 .696.13.816.297l.591-.426zm-1.407-.6c-.466 0-.886.094-1.241.301l.367.63c.218-.128.504-.202.874-.202v-.728zm-1.241.301c-.351.205-.637.512-.866.902l.628.368c.179-.304.382-.51.605-.64l-.367-.63zm-.87.91c-.21.38-.387.853-.535 1.409l.703.187c.139-.52.297-.932.469-1.244l-.637-.352zm-.535 1.409a28.16 28.16 0 0 0-.437 1.962l.716.136c.142-.748.284-1.384.424-1.91l-.703-.188zm-.436 1.96a38.08 38.08 0 0 0-.181.996l.718.12c.047-.283.106-.609.178-.977l-.715-.138zm-.181.996-.126.753.718.12.126-.753-.718-.12zm-.129.773c-.024.218-.042.414-.055.587l.727.052c.011-.161.029-.347.052-.559l-.724-.08zm-.054.586a5.776 5.776 0 0 0-.019.458h.728c0-.12.005-.255.017-.403l-.726-.055zm-.019.458c0 .645.118 1.195.41 1.595l.588-.43c-.162-.221-.27-.591-.27-1.165h-.728zm.414 1.6c.321.423.829.593 1.42.593v-.729c-.461 0-.706-.129-.84-.304l-.58.44zm10.151 1.95-.272-.242-.54.606h.812v-.364zm4.375-4.913.272.242.17-.19-.122-.226-.32.174zm-2.456-4.518v-.364h-.613l.293.538.32-.174zm2.778 0 .327-.16-.1-.204h-.227v.364zm1.399 2.833-.327.161.101.203h.226v-.364zm.107 0v.364h.171l.109-.13-.28-.234zm2.367-2.833v-.364h-.17l-.109.13.279.234zm2.833 0 .271.243.543-.607h-.814v.364zm-4.106 4.59-.271-.243-.171.192.122.225.32-.174zm2.635 4.84v.365h.613l-.293-.538-.32.174zm-2.778 0-.328.16.1.205h.228v-.364zm-1.506-3.083.327-.16-.1-.204h-.227v.364zm-.108 0v-.364h-.167l-.109.126.276.238zm-2.653 3.084v.364h.167l.109-.127-.276-.237zm-2.615.242 4.375-4.913-.544-.484-4.375 4.913.544.484zm4.423-5.329-2.457-4.518-.639.348 2.456 4.518.64-.348zm-2.776-3.98h2.778v-.728h-2.778v.728zm2.452-.203 1.398 2.833.653-.322-1.398-2.833-.653.322zm1.725 3.036h.107v-.728h-.107v.728zm.387-.13 2.366-2.833-.558-.467-2.367 2.833.559.466zm2.087-2.703h2.833v-.728h-2.833v.728zm2.561-.607-4.105 4.59.542.486 4.106-4.59-.543-.486zm-4.154 5.007 2.636 4.84.639-.348-2.635-4.84-.64.348zm2.955 4.303h-2.778v.728h2.778v-.728zm-2.451.204-1.506-3.084-.655.32 1.506 3.083.655-.32zm-1.833-3.288h-.108v.728h.108v-.728zm-.384.126-2.653 3.084.552.475 2.653-3.084-.552-.475zm-2.377 2.958h-2.887v.728h2.887v-.728zm7.803 3.555-.358-.063-.076.427h.434v-.364zm2.223-12.622v-.364h-.305l-.053.301.358.063zm2.026 0 .364-.005-.005-.359h-.359v.364zm.018 1.273-.364.005.005.36h.359v-.365zm.126 0v.364h.186l.109-.15-.295-.214zm1.326-1.13.154.33-.154-.33zm3.371.037-.176.319.004.001.172-.32zm1.129 1.183-.325.163.001.003.324-.166zm.359 2.69.363.032v-.001l-.363-.032zm-.108.824.359.063.001-.003-.36-.06zm-.932 2.689-.311-.19-.002.004.313.186zm-1.524 1.578.181.316.002-.001-.183-.315zm-3.137.358.094-.352-.009-.002-.085.354zm-.915-.412-.22.29.006.004.214-.294zm-.609-.7.317-.178-.105-.185h-.212v.364zm-.126 0v-.363h-.306l-.052.301.358.063zm-.735 4.232v.364h.307l.052-.302-.359-.062zm4.124-5.307-.186-.313.186.313zm.789-.879-.324-.166.324.166zm.466-1.452-.356-.077-.002.01.358.067zm.125-.68.361.047-.361-.048zm.054-.467.363.033-.363-.033zm-.161-1.273.325-.163-.325.163zm-.538-.538-.176.32.007.003.006.003.163-.326zm-2.152.126-.192-.31-.004.003.196.307zm-.824.932.322.17-.322-.17zm-.466 1.47.359.06-.359-.06zm-.09.556.36.055-.36-.055zm-.054.394-.362-.04-.002.02v.02h.364zm.162 1.291-.339.133.003.009.004.009.332-.15zm.537.61-.187.312.012.007.175-.32zm-4.105 5.28 2.223-12.622-.717-.126-2.223 12.622.717.126zm1.864-12.32h2.026v-.729h-2.026v.728zm1.662-.36.018 1.273.728-.01-.018-1.273-.728.01zm.382 1.632h.126v-.728h-.126v.728zm.421-.15c.338-.47.734-.803 1.185-1.013l-.307-.66c-.577.268-1.066.688-1.469 1.246l.591.426zm1.185-1.013a3.459 3.459 0 0 1 1.478-.325v-.728c-.626 0-1.222.13-1.785.393l.307.66zm1.478-.325c.635 0 1.151.123 1.564.35l.35-.639c-.543-.299-1.186-.439-1.914-.439v.728zm1.567.351c.42.226.744.563.976 1.026l.651-.326a3.005 3.005 0 0 0-1.283-1.341l-.344.641zm.977 1.029c.23.448.355 1.032.355 1.77h.728c0-.816-.138-1.522-.434-2.102l-.649.332zm.355 1.77c0 .215-.012.455-.035.721l.726.064a9.37 9.37 0 0 0 .037-.785h-.728zm-.035.72c-.023.253-.057.52-.104.798l.719.12c.049-.295.086-.58.111-.852l-.726-.066zm-.103.795c-.186 1.057-.485 1.907-.885 2.562l.622.38c.46-.755.783-1.698.98-2.816l-.717-.126zm-.887 2.566c-.392.662-.859 1.139-1.393 1.449l.365.63c.661-.383 1.21-.959 1.654-1.707l-.626-.372zm-1.391 1.448a3.47 3.47 0 0 1-1.756.454v.728c.766 0 1.474-.183 2.117-.55l-.361-.632zm-1.756.454c-.416 0-.785-.045-1.107-.132l-.188.704c.394.105.827.156 1.295.156v-.728zm-1.116-.134a2.18 2.18 0 0 1-.785-.352l-.429.588c.305.222.655.378 1.043.472l.171-.708zm-.779-.348a1.91 1.91 0 0 1-.513-.588l-.634.358c.18.318.416.588.706.81l.441-.58zm-.83-.773h-.126v.728h.126v-.728zm-.484.301-.735 4.232.717.124.735-4.231-.717-.125zm-.377 3.93h-2.492v.728h2.492v-.728zm2.887-4.292c.546 0 1.028-.104 1.422-.338l-.371-.626c-.25.148-.593.236-1.051.236v.728zm1.422-.338c.392-.232.699-.58.927-1.025l-.647-.333c-.178.345-.397.581-.651.732l.371.626zm.927-1.025c.224-.434.389-.953.501-1.552l-.716-.134c-.103.55-.249.998-.432 1.353l.647.333zm.499-1.541c.06-.28.104-.518.13-.71l-.722-.097a8.235 8.235 0 0 1-.12.652l.712.155zm.13-.71c.025-.184.043-.344.056-.482l-.725-.066c-.012.125-.029.275-.053.45l.722.097zm.056-.482c.012-.14.019-.27.019-.392h-.728c0 .095-.005.203-.016.326l.725.066zm.019-.392c0-.406-.065-.772-.218-1.077l-.651.326c.087.173.141.417.141.751h.728zm-.218-1.077a1.534 1.534 0 0 0-.7-.7l-.326.65a.806.806 0 0 1 .375.376l.651-.326zm-.688-.694c-.311-.171-.695-.242-1.125-.242v.728c.358 0 .608.06.774.152l.351-.638zm-1.125-.242c-.514 0-.983.122-1.394.377l.384.619a1.87 1.87 0 0 1 1.01-.268v-.728zm-1.398.38c-.395.254-.71.616-.95 1.069l.644.34c.19-.36.425-.62.699-.796l-.393-.613zm-.95 1.069c-.238.448-.403.978-.503 1.58l.718.12c.091-.545.236-.996.429-1.36l-.644-.34zm-.503 1.58c-.036.216-.067.403-.091.56l.72.111c.023-.153.053-.337.089-.551l-.718-.12zm-.091.56a11.46 11.46 0 0 0-.056.41l.724.08c.011-.1.028-.226.052-.379l-.72-.11zm-.058.45V58.147h.728V57.841h-.728zm0 .305c0 .415.058.791.187 1.119l.678-.266a2.344 2.344 0 0 1-.137-.853h-.728zm.194 1.137c.149.327.377.588.682.77l.375-.623a.97.97 0 0 1-.394-.449l-.663.302zm.694.778c.309.17.679.242 1.09.242v-.728c-.33 0-.57-.06-.739-.152l-.351.638z" fill="#454545" mask="url(#f)"/><g filter="url(#g)"><path fill="#fff" d="M50.662 191.141h340.23v88.113H50.662z"/><path stroke="#DDD" stroke-opacity=".2" stroke-width="2.005" d="M51.664 192.143H389.89v86.108H51.664z"/><path d="M104.74 219.861c2.034 0 3.985.808 5.423 2.247a7.666 7.666 0 0 1 0 10.846 7.67 7.67 0 1 1-5.423-13.093zm0 19.174c8.475 0 15.339 3.432 15.339 7.669v3.835H89.402v-3.835c0-4.237 6.864-7.669 15.338-7.669zM161.37 246.197v-21.595h3.526v18.542h10.766v3.053H161.37zm16.929-19.423v-3.337h3.274v3.337h-3.274zm0 19.423v-16.559h3.274v16.559h-3.274zm6.274 0v-1.637l8.814-12.214h-8.216v-2.708h12.938v1.606l-8.846 12.246h9.287v2.707h-13.977zm23.516-19.423v-3.337h3.274v3.337h-3.274zm0 19.423v-16.559h3.274v16.559h-3.274zm7.501 0v-16.559h2.707l.284 2.362h.22a5.75 5.75 0 0 1 1.417-1.512 6.289 6.289 0 0 1 1.794-.912 7.355 7.355 0 0 1 2.204-.315c1.049 0 1.973.189 2.77.566.798.357 1.417.945 1.857 1.763.462.819.693 1.921.693 3.306v11.301h-3.274v-10.798c0-.629-.084-1.154-.252-1.574-.147-.419-.367-.755-.661-1.007a2.58 2.58 0 0 0-1.039-.535 5.186 5.186 0 0 0-1.322-.158c-.755 0-1.448.189-2.078.567a4.103 4.103 0 0 0-1.479 1.511c-.378.651-.567 1.417-.567 2.298v9.696h-3.274zm22.359 0-6.139-16.559h3.432l2.864 7.902c.126.378.284.871.473 1.48.188.587.377 1.196.566 1.826.189.629.357 1.196.504 1.7h.157c.126-.483.273-1.029.441-1.637.189-.63.378-1.249.567-1.858.189-.608.356-1.112.503-1.511l2.834-7.902h3.337l-6.171 16.559h-3.368zm11.919-19.423v-3.337h3.274v3.337h-3.274zm0 19.423v-16.559h3.274v16.559h-3.274zm11.625.378c-.944 0-1.689-.178-2.235-.535a3.228 3.228 0 0 1-1.133-1.417 5.475 5.475 0 0 1-.315-1.857v-10.42h-2.077v-2.708h2.14l.598-4.627h2.613v4.627h2.991v2.708h-2.991v10.042c0 .483.105.85.315 1.102.21.252.556.378 1.039.378h1.637v2.203c-.21.084-.472.158-.787.221a6.392 6.392 0 0 1-.913.189 4.51 4.51 0 0 1-.882.094zm12.331 0c-1.7 0-3.127-.304-4.281-.913-1.134-.63-1.994-1.584-2.582-2.865-.587-1.28-.881-2.906-.881-4.879 0-1.994.294-3.62.881-4.88.588-1.28 1.459-2.224 2.613-2.833 1.154-.629 2.592-.944 4.313-.944 1.574 0 2.886.304 3.935.913 1.07.587 1.878 1.49 2.424 2.707.546 1.217.819 2.749.819 4.596v1.259h-11.617c.042 1.176.221 2.162.535 2.96.315.776.787 1.353 1.417 1.731.651.357 1.469.535 2.456.535a5.62 5.62 0 0 0 1.637-.22 3.676 3.676 0 0 0 1.227-.693c.336-.315.598-.682.787-1.102.189-.44.284-.934.284-1.479h3.211c0 .986-.168 1.857-.504 2.613a5.097 5.097 0 0 1-1.48 1.92c-.629.504-1.385.892-2.266 1.165-.882.273-1.858.409-2.928.409zm-4.313-10.231h8.122c0-.819-.094-1.501-.283-2.046-.168-.567-.42-1.029-.756-1.386a2.773 2.773 0 0 0-1.196-.755c-.462-.168-.986-.252-1.574-.252-.881 0-1.637.157-2.267.472-.608.315-1.08.808-1.416 1.48-.336.65-.546 1.479-.63 2.487zm20.579 10.231c-1.343 0-2.508-.304-3.494-.913-.986-.609-1.752-1.553-2.298-2.833-.525-1.28-.787-2.938-.787-4.974 0-1.994.273-3.62.818-4.88.546-1.259 1.302-2.193 2.267-2.801.965-.609 2.078-.913 3.337-.913a7.91 7.91 0 0 1 2.046.252 4.88 4.88 0 0 1 1.669.787c.503.356.923.808 1.259 1.353h.22v-8.216h3.274v22.76h-2.676l-.314-2.266h-.221a5.197 5.197 0 0 1-2.172 1.983c-.881.441-1.857.661-2.928.661zm.913-2.833c.966 0 1.742-.21 2.33-.63.609-.441 1.06-1.07 1.354-1.889.293-.839.44-1.857.44-3.053v-.441c0-1.007-.094-1.868-.283-2.581-.189-.714-.462-1.291-.819-1.732a3.141 3.141 0 0 0-1.29-1.007c-.504-.21-1.071-.315-1.7-.315-.966 0-1.753.199-2.361.598-.609.378-1.06.976-1.354 1.794-.273.819-.409 1.879-.409 3.18v.567c0 1.301.147 2.361.441 3.179.293.798.734 1.385 1.322 1.763.608.378 1.385.567 2.329.567zm19.87 8.185c-.629 0-1.154-.053-1.574-.158l-.787-.157v-2.361h1.574c.462 0 .924-.105 1.385-.315.483-.21.913-.546 1.291-1.007.378-.462.693-1.039.944-1.732l-6.453-16.559h3.431l3.211 8.248c.147.378.305.85.473 1.417.188.567.367 1.144.535 1.731.189.588.346 1.113.472 1.574h.157c.105-.314.21-.671.315-1.07.126-.42.252-.85.378-1.291.126-.44.252-.86.378-1.259.126-.42.231-.776.314-1.07l2.676-8.28h3.337l-5.603 15.93c-.315.881-.661 1.71-1.039 2.487a8.836 8.836 0 0 1-1.322 2.014 4.922 4.922 0 0 1-1.732 1.354c-.671.336-1.458.504-2.361.504zm21.428-5.352c-1.721 0-3.179-.304-4.376-.913-1.175-.63-2.067-1.584-2.675-2.865-.588-1.28-.882-2.906-.882-4.879 0-1.994.294-3.62.882-4.88.608-1.28 1.5-2.224 2.675-2.833 1.197-.629 2.655-.944 4.376-.944 1.763 0 3.232.315 4.407.944 1.176.609 2.057 1.553 2.645 2.833.608 1.26.913 2.886.913 4.88 0 1.973-.305 3.599-.913 4.879-.588 1.281-1.469 2.235-2.645 2.865-1.175.609-2.644.913-4.407.913zm0-2.707c1.05 0 1.91-.2 2.582-.598.671-.42 1.164-1.05 1.479-1.889.336-.84.504-1.9.504-3.18v-.566c0-1.281-.168-2.341-.504-3.18-.315-.839-.808-1.459-1.479-1.857-.672-.42-1.532-.63-2.582-.63-1.028 0-1.878.21-2.55.63-.671.398-1.175 1.018-1.511 1.857-.315.839-.472 1.899-.472 3.18v.566c0 1.28.157 2.34.472 3.18.336.839.84 1.469 1.511 1.889.672.398 1.522.598 2.55.598zm16.496 2.707c-1.595 0-2.885-.42-3.872-1.259-.986-.861-1.479-2.319-1.479-4.376v-11.302h3.274v10.798c0 .63.073 1.155.22 1.574.168.42.399.756.692 1.008.294.252.641.43 1.039.535.399.105.84.157 1.323.157a3.97 3.97 0 0 0 2.046-.535 4.272 4.272 0 0 0 1.511-1.542c.378-.672.566-1.438.566-2.299v-9.696h3.274v16.559h-2.675l-.284-2.361h-.22a5.73 5.73 0 0 1-1.417 1.511 6.193 6.193 0 0 1-1.826.913c-.65.21-1.374.315-2.172.315z" fill="#454545"/></g><path fill="#fff" d="M318.87 171.307h86.216v36.631H318.87z"/><path stroke="#DDD" stroke-opacity=".6" stroke-width=".985" d="M319.362 171.799h85.231v35.646h-85.231z"/><g filter="url(#h)"><mask id="i" maskUnits="userSpaceOnUse" x="325.044" y="185.621" width="10" height="10" fill="#000"><path fill="#fff" d="M325.044 185.621h10v10h-10z"/><path d="M329.19 194.621v-3.156h-2.924v-1.64h2.924v-3.171h1.624v3.171h2.94v1.64h-2.94v3.156h-1.624z"/></mask><path d="M329.19 194.621v-3.156h-2.924v-1.64h2.924v-3.171h1.624v3.171h2.94v1.64h-2.94v3.156h-1.624z" fill="#454545"/><path d="M329.19 194.621h-.469v.469h.469v-.469zm0-3.156h.469v-.469h-.469v.469zm-2.924 0h-.469v.469h.469v-.469zm0-1.64v-.469h-.469v.469h.469zm2.924 0v.469h.469v-.469h-.469zm0-3.171v-.469h-.469v.469h.469zm1.624 0h.469v-.469h-.469v.469zm0 3.171h-.469v.469h.469v-.469zm2.94 0h.469v-.469h-.469v.469zm0 1.64v.469h.469v-.469h-.469zm-2.94 0v-.469h-.469v.469h.469zm0 3.156v.469h.469v-.469h-.469zm-1.155 0v-3.156h-.938v3.156h.938zm-.469-3.625h-2.924v.938h2.924v-.938zm-2.455.469v-1.64h-.938v1.64h.938zm-.469-1.171h2.924v-.938h-2.924v.938zm3.393-.469v-3.171h-.938v3.171h.938zm-.469-2.702h1.624v-.938h-1.624v.938zm1.155-.469v3.171h.938v-3.171h-.938zm.469 3.64h2.94v-.938h-2.94v.938zm2.471-.469v1.64h.938v-1.64h-.938zm.469 1.171h-2.94v.938h2.94v-.938zm-3.409.469v3.156h.938v-3.156h-.938zm.469 2.687h-1.624v.938h1.624v-.938z" fill="#454545" mask="url(#i)"/></g><mask id="j" maskUnits="userSpaceOnUse" x="338.912" y="180.621" width="60" height="22" fill="#000"><path fill="#fff" d="M338.912 180.621h60v22h-60z"/><path d="m339.535 197.621.462-2.586h3.788l1.662-9.354h-3.833l.346-1.94c.4-.03.847-.107 1.34-.231a27.379 27.379 0 0 0 1.547-.438 25.113 25.113 0 0 0 1.617-.601 21.928 21.928 0 0 0 1.478-.716h1.408l-2.332 13.28h3.533l-.462 2.586h-10.554zm19.3.277c-1.124 0-2.094-.161-2.91-.485-.816-.338-1.447-.816-1.893-1.432-.431-.631-.647-1.378-.647-2.24a6.587 6.587 0 0 1 .092-1.085h3.164c-.015.123-.03.238-.046.346v.3c0 .432.077.809.231 1.132.169.308.416.547.739.716.323.169.708.254 1.155.254.416 0 .816-.077 1.201-.231a2.849 2.849 0 0 0 1.016-.693 3.44 3.44 0 0 0 .739-1.131c.185-.462.277-.993.277-1.594 0-.693-.185-1.209-.554-1.547-.37-.354-.87-.531-1.501-.531-.416 0-.793.069-1.132.207a4.04 4.04 0 0 0-.878.462 5.02 5.02 0 0 0-.669.601l-2.795-.37 2.171-8.799h9.538l-.508 2.841h-6.836l-.877 3.556c.2-.123.438-.254.715-.392a4.405 4.405 0 0 1 1.017-.37 5.28 5.28 0 0 1 1.362-.161c.847 0 1.586.154 2.217.462a3.369 3.369 0 0 1 1.478 1.385c.37.616.555 1.386.555 2.31 0 1.339-.293 2.494-.878 3.464a5.868 5.868 0 0 1-2.309 2.24c-.97.523-2.048.785-3.234.785zm11.225-.277 5.635-6.328-3.164-5.82h3.579l1.802 3.649h.138l3.049-3.649h3.649l-5.289 5.913 3.395 6.235h-3.58l-1.94-3.972h-.138l-3.418 3.972h-3.718zm13.77 4.111 2.864-16.259h2.609l.024 1.64h.161c.477-.662 1.047-1.147 1.709-1.455a4.925 4.925 0 0 1 2.102-.462c.877 0 1.624.17 2.24.508.631.339 1.116.847 1.455 1.525.339.662.508 1.493.508 2.494 0 .292-.015.616-.046.97a14.31 14.31 0 0 1-.139 1.062c-.246 1.401-.646 2.556-1.201 3.464-.539.909-1.193 1.586-1.963 2.033a4.938 4.938 0 0 1-2.494.646c-.57 0-1.085-.061-1.547-.185a3.266 3.266 0 0 1-1.178-.531 2.935 2.935 0 0 1-.785-.9h-.162l-.947 5.45h-3.21zm6.928-6.467c.647 0 1.178-.123 1.594-.369.416-.246.754-.624 1.016-1.132.262-.508.462-1.131.601-1.87a11.386 11.386 0 0 0 .23-1.478c.016-.17.024-.324.024-.462 0-.478-.077-.87-.231-1.178a1.51 1.51 0 0 0-.693-.693c-.308-.169-.716-.254-1.224-.254-.585 0-1.101.139-1.548.416-.431.277-.785.677-1.062 1.201-.277.523-.477 1.154-.6 1.893-.047.278-.085.516-.116.716-.031.2-.054.37-.069.508v.393c0 .493.069.916.208 1.27.154.339.385.601.693.785.307.17.7.254 1.177.254z"/></mask><path d="m339.535 197.621.462-2.586h3.788l1.662-9.354h-3.833l.346-1.94c.4-.03.847-.107 1.34-.231a27.379 27.379 0 0 0 1.547-.438 25.113 25.113 0 0 0 1.617-.601 21.928 21.928 0 0 0 1.478-.716h1.408l-2.332 13.28h3.533l-.462 2.586h-10.554zm19.3.277c-1.124 0-2.094-.161-2.91-.485-.816-.338-1.447-.816-1.893-1.432-.431-.631-.647-1.378-.647-2.24a6.587 6.587 0 0 1 .092-1.085h3.164c-.015.123-.03.238-.046.346v.3c0 .432.077.809.231 1.132.169.308.416.547.739.716.323.169.708.254 1.155.254.416 0 .816-.077 1.201-.231a2.849 2.849 0 0 0 1.016-.693 3.44 3.44 0 0 0 .739-1.131c.185-.462.277-.993.277-1.594 0-.693-.185-1.209-.554-1.547-.37-.354-.87-.531-1.501-.531-.416 0-.793.069-1.132.207a4.04 4.04 0 0 0-.878.462 5.02 5.02 0 0 0-.669.601l-2.795-.37 2.171-8.799h9.538l-.508 2.841h-6.836l-.877 3.556c.2-.123.438-.254.715-.392a4.405 4.405 0 0 1 1.017-.37 5.28 5.28 0 0 1 1.362-.161c.847 0 1.586.154 2.217.462a3.369 3.369 0 0 1 1.478 1.385c.37.616.555 1.386.555 2.31 0 1.339-.293 2.494-.878 3.464a5.868 5.868 0 0 1-2.309 2.24c-.97.523-2.048.785-3.234.785zm11.225-.277 5.635-6.328-3.164-5.82h3.579l1.802 3.649h.138l3.049-3.649h3.649l-5.289 5.913 3.395 6.235h-3.58l-1.94-3.972h-.138l-3.418 3.972h-3.718zm13.77 4.111 2.864-16.259h2.609l.024 1.64h.161c.477-.662 1.047-1.147 1.709-1.455a4.925 4.925 0 0 1 2.102-.462c.877 0 1.624.17 2.24.508.631.339 1.116.847 1.455 1.525.339.662.508 1.493.508 2.494 0 .292-.015.616-.046.97a14.31 14.31 0 0 1-.139 1.062c-.246 1.401-.646 2.556-1.201 3.464-.539.909-1.193 1.586-1.963 2.033a4.938 4.938 0 0 1-2.494.646c-.57 0-1.085-.061-1.547-.185a3.266 3.266 0 0 1-1.178-.531 2.935 2.935 0 0 1-.785-.9h-.162l-.947 5.45h-3.21zm6.928-6.467c.647 0 1.178-.123 1.594-.369.416-.246.754-.624 1.016-1.132.262-.508.462-1.131.601-1.87a11.386 11.386 0 0 0 .23-1.478c.016-.17.024-.324.024-.462 0-.478-.077-.87-.231-1.178a1.51 1.51 0 0 0-.693-.693c-.308-.169-.716-.254-1.224-.254-.585 0-1.101.139-1.548.416-.431.277-.785.677-1.062 1.201-.277.523-.477 1.154-.6 1.893-.047.278-.085.516-.116.716-.031.2-.054.37-.069.508v.393c0 .493.069.916.208 1.27.154.339.385.601.693.785.307.17.7.254 1.177.254z" fill="#454545"/><path d="m339.535 197.621-.461-.082-.099.551h.56v-.469zm.462-2.586v-.469h-.393l-.069.386.462.083zm3.788 0v.468h.393l.068-.386-.461-.082zm1.662-9.354.462.082.098-.551h-.56v.469zm-3.833 0-.462-.082-.098.551h.56v-.469zm.346-1.94-.036-.467-.362.028-.064.357.462.082zm1.34-.231.113.455-.113-.455zm1.547-.438.141.447.007-.003-.148-.444zm1.617-.601.178.434.011-.005-.189-.429zm1.478-.716v-.469h-.118l-.103.055.221.414zm1.408 0 .462.081.097-.55h-.559v.469zm-2.332 13.28-.462-.082-.097.55h.559v-.468zm3.533 0 .462.082.098-.551h-.56v.469zm-.462 2.586v.469h.393l.069-.386-.462-.083zm-10.092.083.462-2.587-.924-.165-.461 2.587.923.165zm0-2.201h3.788v-.937h-3.788v.937zm4.249-.386 1.663-9.354-.923-.164-1.663 9.353.923.165zm1.201-9.905h-3.833v.938h3.833v-.938zm-3.372.552.347-1.94-.924-.165-.346 1.94.923.165zm-.079-1.555a8.603 8.603 0 0 0 1.417-.244l-.227-.91c-.474.119-.894.19-1.262.219l.072.935zm1.417-.244a26.865 26.865 0 0 0 1.575-.446l-.282-.895c-.531.167-1.037.311-1.52.431l.227.91zm1.582-.449a25.445 25.445 0 0 0 1.647-.611l-.357-.868c-.513.212-1.042.408-1.586.59l.296.889zm1.658-.616a22.603 22.603 0 0 0 1.509-.731l-.441-.828c-.451.241-.933.474-1.447.701l.379.858zm1.289-.676h1.408v-.938h-1.408v.938zm.946-.55-2.332 13.279.924.163 2.332-13.28-.924-.162zm-1.87 13.829h3.533v-.937h-3.533v.937zm3.072-.551-.462 2.587.923.165.462-2.587-.923-.165zm-.001 2.2h-10.554v.938h10.554v-.938zm5.836.261-.179.433.007.003.172-.436zm-1.893-1.432-.388.265.008.011.38-.276zm-.624-2.771.467.039-.467-.039zm.069-.554v-.469h-.397l-.065.392.462.077zm3.164 0 .466.058.066-.527h-.532v.469zm-.046.346-.464-.066-.005.033v.033h.469zm.231 1.432-.423.202.006.012.006.012.411-.226zm.739.716.218-.415-.218.415zm2.356.023-.174-.435.174.435zm1.016-.693-.332-.331-.008.008.34.323zm.739-1.131.433.179.002-.005-.435-.174zm-.277-3.141-.325.338.008.007.317-.345zm-2.633-.324.167.439.011-.005-.178-.434zm-.878.462-.27-.383-.011.008.281.375zm-.669.601-.062.465.24.031.165-.177-.343-.319zm-2.795-.37-.455-.112-.126.509.52.068.061-.465zm2.171-8.799v-.469h-.367l-.088.357.455.112zm9.538 0 .462.083.098-.552h-.56v.469zm-.508 2.841v.469h.393l.069-.387-.462-.082zm-6.836 0v-.469h-.367l-.088.357.455.112zm-.877 3.556-.456-.112-.274 1.112.975-.6-.245-.4zm.715-.392.21.419.009-.004-.219-.415zm1.017-.37.109.457.013-.004-.122-.453zm5.057 1.686-.406.234.004.008.402-.242zm-.323 5.774-.402-.242-.002.004.404.238zm-2.309 2.24-.223-.413.223.413zm-3.234.316c-1.08 0-1.989-.155-2.737-.452l-.345.872c.884.351 1.915.518 3.082.518v-.938zm-2.73-.449c-.749-.311-1.306-.739-1.694-1.274l-.759.551c.505.696 1.211 1.223 2.094 1.589l.359-.866zm-1.686-1.263c-.371-.544-.565-1.195-.565-1.976h-.938c0 .944.237 1.786.728 2.505l.775-.529zm-.565-1.976c0-.155.007-.319.021-.492l-.934-.078a6.629 6.629 0 0 0-.025.57h.938zm.021-.492c.015-.172.036-.344.065-.516l-.925-.154a6.985 6.985 0 0 0-.074.592l.934.078zm-.398-.124h3.164v-.938h-3.164v.938zm2.699-.527c-.015.12-.03.233-.045.338l.928.133.048-.355-.931-.116zm-.05.404V193.302h.938V193.002h-.938zm0 .3c0 .487.087.936.277 1.334l.847-.404c-.119-.248-.186-.554-.186-.93h-.938zm.289 1.358c.216.392.531.695.933.905l.435-.83a1.282 1.282 0 0 1-.546-.527l-.822.452zm.933.905c.403.212.866.308 1.372.308v-.938c-.388 0-.694-.073-.937-.2l-.435.83zm1.372.308c.475 0 .934-.088 1.375-.264l-.348-.871c-.33.131-.671.197-1.027.197v.938zm1.375-.264a3.32 3.32 0 0 0 1.182-.806l-.68-.646c-.247.26-.53.452-.85.581l.348.871zm1.174-.797c.356-.356.635-.787.84-1.284l-.866-.359c-.164.396-.378.72-.638.98l.664.663zm.842-1.289c.211-.528.311-1.12.311-1.768h-.938c0 .553-.085 1.023-.243 1.419l.87.349zm.311-1.768c0-.772-.207-1.436-.706-1.893l-.634.691c.24.22.402.589.402 1.202h.938zm-.699-1.886c-.476-.456-1.103-.661-1.825-.661v.938c.54 0 .913.148 1.176.4l.649-.677zm-1.825-.661c-.469 0-.907.078-1.31.242l.356.868c.275-.112.591-.172.954-.172v-.938zm-1.299.238a4.423 4.423 0 0 0-.981.517l.541.766c.227-.16.484-.296.774-.406l-.334-.877zm-.992.525a5.49 5.49 0 0 0-.732.657l.687.638c.181-.194.383-.376.608-.544l-.563-.751zm-.327.511-2.794-.37-.123.93 2.794.37.123-.93zm-2.4.208 2.17-8.799-.91-.225-2.171 8.799.911.225zm1.715-8.443h9.538v-.938h-9.538v.938zm9.077-.551-.509 2.84.924.165.508-2.84-.923-.165zm-.047 2.454h-6.836v.938h6.836v-.938zm-7.291.357-.878 3.556.911.225.877-3.557-.91-.224zm-.177 4.068c.186-.114.412-.238.68-.373l-.419-.839a9.97 9.97 0 0 0-.752.413l.491.799zm.689-.377c.252-.133.553-.244.907-.329l-.219-.912c-.415.1-.792.236-1.125.411l.437.83zm.92-.332a4.776 4.776 0 0 1 1.24-.145v-.938a5.74 5.74 0 0 0-1.484.177l.244.906zm1.24-.145c.79 0 1.456.143 2.012.414l.411-.843c-.707-.345-1.519-.509-2.423-.509v.938zm2.012.414c.546.266.969.662 1.277 1.198l.813-.468a3.854 3.854 0 0 0-1.679-1.573l-.411.843zm1.281 1.206c.315.524.488 1.205.488 2.068h.938c0-.985-.197-1.844-.622-2.551l-.804.483zm.488 2.068c0 1.27-.277 2.337-.811 3.222l.804.484c.636-1.055.945-2.297.945-3.706h-.938zm-.813 3.226a5.406 5.406 0 0 1-2.128 2.065l.445.826a6.335 6.335 0 0 0 2.491-2.416l-.808-.475zm-2.128 2.065c-.897.484-1.897.729-3.011.729v.938c1.258 0 2.413-.278 3.456-.841l-.445-.826zm8.214.921-.351-.312-.695.781h1.046v-.469zm5.635-6.328.35.312.219-.246-.157-.29-.412.224zm-3.164-5.82v-.469h-.789l.377.693.412-.224zm3.579 0 .421-.207-.129-.262h-.292v.469zm1.802 3.649-.421.208.129.261h.292v-.469zm.138 0v.469h.22l.14-.168-.36-.301zm3.049-3.649v-.469h-.22l-.14.169.36.3zm3.649 0 .349.313.699-.782h-1.048v.469zm-5.289 5.913-.349-.313-.221.246.158.291.412-.224zm3.395 6.235v.469h.789l-.377-.693-.412.224zm-3.58 0-.421.206.128.263h.293v-.469zm-1.94-3.972.422-.206-.129-.263h-.293v.469zm-.138 0v-.469h-.215l-.141.163.356.306zm-3.418 3.972v.469h.215l.14-.163-.355-.306zm-3.368.312 5.635-6.328-.701-.624-5.635 6.328.701.624zm5.697-6.864-3.164-5.82-.824.448 3.164 5.82.824-.448zm-3.576-5.127h3.579v-.938h-3.579v.938zm3.159-.261 1.801 3.649.841-.415-1.801-3.649-.841.415zm2.222 3.91h.138v-.938h-.138v.938zm.498-.168 3.049-3.649-.72-.601-3.049 3.649.72.601zm2.689-3.481h3.649v-.938h-3.649v.938zm3.299-.781-5.288 5.912.699.625 5.288-5.912-.699-.625zm-5.351 6.449 3.395 6.235.824-.448-3.395-6.236-.824.449zm3.807 5.542h-3.58v.938h3.58v-.938zm-3.158.263-1.94-3.972-.843.412 1.94 3.972.843-.412zm-2.362-4.235h-.138v.938h.138v-.938zm-.494.163-3.418 3.972.711.612 3.418-3.972-.711-.612zm-3.062 3.809h-3.718v.938h3.718v-.938zm10.052 4.58-.462-.081-.097.55h.559v-.469zm2.864-16.259v-.469h-.394l-.068.388.462.081zm2.609 0 .469-.006-.006-.463h-.463v.469zm.024 1.64-.469.007.006.462h.463v-.469zm.161 0v.469h.24l.141-.195-.381-.274zm1.709-1.455.198.425-.198-.425zm4.342.046-.226.411.004.003.222-.414zm1.455 1.525-.42.209.002.004.418-.213zm.462 3.464.467.042v-.002l-.467-.04zm-.139 1.062.462.081.001-.004-.463-.077zm-1.201 3.464-.4-.244-.003.005.403.239zm-1.963 2.033.233.407.003-.002-.236-.405zm-4.041.461.121-.453-.011-.002-.11.455zm-1.178-.531-.284.373.008.007.276-.38zm-.785-.9.408-.231-.135-.238h-.273v.469zm-.162 0v-.469h-.394l-.068.388.462.081zm-.947 5.45v.469h.395l.067-.389-.462-.08zm5.312-6.836-.239-.404.239.404zm1.016-1.132-.417-.214.417.214zm.601-1.87-.459-.1-.002.013.461.087zm.161-.878.465.062-.465-.062zm.069-.6.468.042-.468-.042zm-.207-1.64.419-.21-.419.21zm-.693-.693-.226.411.008.004.008.005.21-.42zm-2.772.162-.247-.399-.006.004.253.395zm-1.062 1.201.415.219-.415-.219zm-.6 1.893.462.077-.462-.077zm-.116.716.464.072-.464-.072zm-.069.508-.466-.051-.003.025v.026h.469zm.208 1.663-.437.171.005.012.005.011.427-.194zm.693.785-.242.403.008.004.008.004.226-.411zm-5.289 6.802 2.864-16.258-.924-.163-2.864 16.259.924.162zm2.402-15.871h2.609v-.938h-2.609v.938zm2.141-.462.023 1.64.937-.014-.023-1.639-.937.013zm.492 2.102h.161v-.938h-.161v.938zm.542-.195c.436-.604.945-1.033 1.526-1.304l-.396-.85c-.743.346-1.373.886-1.891 1.606l.761.548zm1.526-1.304a4.464 4.464 0 0 1 1.904-.418v-.938c-.807 0-1.575.169-2.3.506l.396.85zm1.904-.418c.818 0 1.483.158 2.014.45l.452-.822c-.7-.385-1.529-.566-2.466-.566v.938zm2.018.453c.541.29.959.724 1.257 1.32l.839-.419c-.379-.759-.931-1.341-1.652-1.728l-.444.827zm1.259 1.324c.296.577.457 1.33.457 2.281h.938c0-1.051-.177-1.961-.56-2.708l-.835.427zm.457 2.281c0 .276-.015.586-.044.929l.934.081c.032-.364.048-.702.048-1.01h-.938zm-.044.927c-.03.326-.075.669-.134 1.028l.925.154c.063-.38.111-.745.143-1.097l-.934-.085zm-.134 1.024c-.239 1.362-.624 2.456-1.139 3.301l.801.489c.593-.973 1.009-2.187 1.262-3.628l-.924-.162zm-1.142 3.306c-.506.852-1.106 1.467-1.795 1.866l.471.811c.851-.493 1.559-1.234 2.131-2.198l-.807-.479zm-1.792 1.864a4.47 4.47 0 0 1-2.262.585v.938c.986 0 1.898-.235 2.727-.708l-.465-.815zm-2.262.585a5.528 5.528 0 0 1-1.426-.169l-.242.907c.508.135 1.065.2 1.668.2v-.938zm-1.437-.171a2.819 2.819 0 0 1-1.012-.455l-.552.759c.393.285.843.487 1.344.607l.22-.911zm-1.004-.449a2.466 2.466 0 0 1-.661-.758l-.817.461c.232.41.536.758.91 1.043l.568-.746zm-1.069-.996h-.162v.938h.162v-.938zm-.624.388-.947 5.451.924.16.947-5.45-.924-.161zm-.485 5.062h-3.21v.938h3.21v-.938zm3.718-5.529c.704 0 1.324-.133 1.833-.435l-.478-.807c-.323.192-.765.304-1.355.304v.938zm1.833-.435c.504-.299.899-.748 1.194-1.32l-.834-.429c-.229.444-.511.749-.838.942l.478.807zm1.194-1.32c.288-.559.5-1.228.644-1.999l-.921-.173c-.133.708-.321 1.285-.557 1.743l.834.429zm.642-1.986c.078-.36.135-.666.168-.915l-.93-.124a10.55 10.55 0 0 1-.155.84l.917.199zm.168-.915c.031-.235.055-.442.072-.62l-.935-.085c-.014.161-.036.354-.067.581l.93.124zm.072-.62c.016-.18.025-.349.025-.504h-.938c0 .121-.007.261-.022.419l.935.085zm.025-.504c0-.524-.084-.995-.281-1.388l-.839.42c.111.222.182.537.182.968h.938zm-.281-1.388a1.975 1.975 0 0 0-.902-.902l-.42.839c.217.108.375.265.483.483l.839-.42zm-.886-.894c-.401-.221-.896-.312-1.45-.312v.938c.462 0 .783.078.998.196l.452-.822zm-1.45-.312c-.662 0-1.266.158-1.795.486l.495.797c.364-.226.792-.345 1.3-.345v-.938zm-1.801.49c-.509.327-.914.793-1.223 1.376l.829.439c.245-.463.548-.799.901-1.026l-.507-.789zm-1.223 1.376c-.306.578-.52 1.26-.649 2.036l.925.154c.117-.701.304-1.282.553-1.751l-.829-.439zm-.649 2.036c-.046.279-.085.519-.116.722l.927.143c.03-.198.068-.435.114-.711l-.925-.154zm-.116.722c-.032.204-.056.38-.072.528l.932.103c.014-.13.036-.292.067-.488l-.927-.143zm-.075.579V192.956h.938V192.563h-.938zm0 .393c0 .535.075 1.019.24 1.441l.873-.342c-.112-.286-.175-.648-.175-1.099h-.938zm.25 1.464c.192.422.486.758.878.994l.483-.805a1.252 1.252 0 0 1-.507-.577l-.854.388zm.894 1.002c.397.219.874.312 1.403.312v-.938c-.425 0-.733-.075-.951-.196l-.452.822z" fill="#454545" mask="url(#j)"/><defs><filter id="c" x="51.665" y="43.399" width="235.754" height="89.888" filterUnits="userSpaceOnUse" color-interpolation-filters="sRGB"><feFlood flood-opacity="0" result="BackgroundImageFix"/><feColorMatrix in="SourceAlpha" values="0 0 0 0 0 0 0 0 0 0 0 0 0 0 0 0 0 0 127 0" result="hardAlpha"/><feOffset/><feGaussianBlur stdDeviation="9.171"/><feComposite in2="hardAlpha" operator="out"/><feColorMatrix values="0 0 0 0 0 0 0 0 0 0 0 0 0 0 0 0 0 0 0.06 0"/><feBlend in2="BackgroundImageFix" result="effect1_dropShadow_10387_51918"/><feBlend in="SourceGraphic" in2="effect1_dropShadow_10387_51918" result="shape"/></filter><filter id="g" x="31.138" y="171.849" width="379.277" height="126.696" filterUnits="userSpaceOnUse" color-interpolation-filters="sRGB"><feFlood flood-opacity="0" result="BackgroundImageFix"/><feColorMatrix in="SourceAlpha" values="0 0 0 0 0 0 0 0 0 0 0 0 0 0 0 0 0 0 127 0" result="hardAlpha"/><feOffset/><feGaussianBlur stdDeviation="9.646"/><feComposite in2="hardAlpha" operator="out"/><feColorMatrix values="0 0 0 0 0 0 0 0 0 0 0 0 0 0 0 0 0 0 0.06 0"/><feBlend in2="BackgroundImageFix" result="effect1_dropShadow_10387_51918"/><feBlend in="SourceGraphic" in2="effect1_dropShadow_10387_51918" result="shape"/></filter><filter id="h" x="324.815" y="186.465" width="10.39" height="10.869" filterUnits="userSpaceOnUse" color-interpolation-filters="sRGB"><feFlood flood-opacity="0" result="BackgroundImageFix"/><feColorMatrix in="SourceAlpha" values="0 0 0 0 0 0 0 0 0 0 0 0 0 0 0 0 0 0 127 0" result="hardAlpha"/><feOffset dy="1.262"/><feGaussianBlur stdDeviation=".726"/><feComposite in2="hardAlpha" operator="out"/><feColorMatrix values="0 0 0 0 0 0 0 0 0 0 0 0 0 0 0 0 0 0 0.25 0"/><feBlend in2="BackgroundImageFix" result="effect1_dropShadow_10387_51918"/><feBlend in="SourceGraphic" in2="effect1_dropShadow_10387_51918" result="shape"/></filter><linearGradient id="a" x1="1184540000" y1="4932300000" x2="1184540000" y2="4932300000" gradientUnits="userSpaceOnUse"><stop stop-color="#DDD"/><stop offset=".205" stop-color="#F0F0F0"/></linearGradient><linearGradient id="b" x1="1184540000" y1="4932300000" x2="1184540000" y2="4932300000" gradientUnits="userSpaceOnUse"><stop stop-color="#DDD"/><stop offset=".205" stop-color="#F0F0F0"/></linearGradient><clipPath id="d"><path fill="#fff" transform="translate(88.768 74.45)" d="M0 0h27.787v27.787H0z"/></clipPath></defs></svg>