<svg width="950" height="201" viewBox="0 0 950 201" fill="none" xmlns="http://www.w3.org/2000/svg">
<rect width="950" height="200" transform="translate(0 0.0117188)" fill="white"/>
<g clip-path="url(#clip0_10387_51856)">
<rect x="360.895" y="21.0117" width="228.21" height="299.526" rx="10.6974" fill="url(#paint0_linear_10387_51856)"/>
<rect x="360.895" y="21.0117" width="228.21" height="299.526" rx="10.6974" stroke="#DDDDDD" stroke-opacity="0.2" stroke-width="1.3736"/>
<g clip-path="url(#clip1_10387_51856)">
<path d="M377.175 44.7675L375.158 42.7497L375.83 42.0774L377.175 43.422L379.865 40.7324L380.537 41.4052L377.175 44.7675Z" fill="#39BE63"/>
<path fill-rule="evenodd" clip-rule="evenodd" d="M372.781 42.7161C372.781 39.8279 375.122 37.4863 378.011 37.4863C380.899 37.4863 383.24 39.8279 383.24 42.7161C383.24 45.6044 380.899 47.946 378.011 47.946C375.122 47.946 372.781 45.6044 372.781 42.7161ZM378.011 46.9951C377.449 46.9951 376.892 46.8844 376.373 46.6694C375.854 46.4543 375.382 46.1392 374.985 45.7418C374.588 45.3445 374.272 44.8728 374.057 44.3536C373.842 43.8345 373.732 43.2781 373.732 42.7161C373.732 42.1542 373.842 41.5978 374.057 41.0787C374.272 40.5595 374.588 40.0878 374.985 39.6905C375.382 39.2931 375.854 38.978 376.373 38.7629C376.892 38.5479 377.449 38.4372 378.011 38.4372C379.145 38.4372 380.234 38.888 381.036 39.6905C381.839 40.4929 382.29 41.5813 382.29 42.7161C382.29 43.851 381.839 44.9394 381.036 45.7418C380.234 46.5443 379.145 46.9951 378.011 46.9951Z" fill="#39BE63"/>
</g>
<path d="M398.57 44.7906H400.485C400.424 45.521 400.219 46.1721 399.872 46.7441C399.525 47.311 399.037 47.7579 398.409 48.0848C397.781 48.4117 397.017 48.5751 396.118 48.5751C395.429 48.5751 394.808 48.4525 394.257 48.2074C393.705 47.9571 393.233 47.6047 392.839 47.1502C392.446 46.6905 392.145 46.1364 391.935 45.4878C391.731 44.8391 391.629 44.1139 391.629 43.3121V42.3851C391.629 41.5833 391.734 40.858 391.943 40.2094C392.158 39.5608 392.464 39.0067 392.862 38.547C393.261 38.0823 393.738 37.7273 394.295 37.4822C394.857 37.237 395.488 37.1144 396.187 37.1144C397.076 37.1144 397.827 37.2779 398.44 37.6047C399.052 37.9316 399.527 38.3836 399.864 38.9607C400.207 39.5378 400.416 40.1992 400.493 40.9449H398.577C398.526 40.4648 398.414 40.0537 398.24 39.7115C398.072 39.3693 397.822 39.1088 397.49 38.9301C397.158 38.7462 396.724 38.6543 396.187 38.6543C395.748 38.6543 395.365 38.736 395.038 38.8994C394.711 39.0629 394.438 39.3029 394.218 39.6195C393.999 39.9362 393.833 40.3269 393.72 40.7917C393.613 41.2513 393.56 41.7774 393.56 42.3698V43.3121C393.56 43.8739 393.608 44.3846 393.705 44.8443C393.807 45.2988 393.961 45.6895 394.165 46.0164C394.374 46.3432 394.64 46.596 394.962 46.7748C395.283 46.9535 395.669 47.0429 396.118 47.0429C396.665 47.0429 397.107 46.9561 397.444 46.7824C397.786 46.6088 398.044 46.356 398.217 46.024C398.396 45.6869 398.514 45.2758 398.57 44.7906ZM403.871 36.6548V48.4219H402.033V36.6548H403.871ZM403.549 43.9709L402.952 43.9633C402.957 43.3912 403.036 42.8626 403.189 42.3775C403.348 41.8923 403.567 41.4709 403.848 41.1134C404.134 40.7508 404.476 40.4724 404.875 40.2784C405.273 40.0792 405.715 39.9796 406.2 39.9796C406.609 39.9796 406.976 40.0358 407.303 40.1481C407.635 40.2605 407.921 40.4418 408.161 40.6921C408.401 40.9372 408.583 41.259 408.705 41.6573C408.833 42.0506 408.897 42.5307 408.897 43.0976V48.4219H407.043V43.0823C407.043 42.6839 406.984 42.3672 406.867 42.1323C406.754 41.8974 406.588 41.7288 406.369 41.6267C406.149 41.5194 405.881 41.4658 405.564 41.4658C405.232 41.4658 404.939 41.5322 404.683 41.665C404.433 41.7978 404.224 41.9791 404.055 42.2089C403.886 42.4387 403.759 42.7043 403.672 43.0056C403.59 43.307 403.549 43.6287 403.549 43.9709ZM415.753 46.4684V40.1328H417.607V48.4219H415.86L415.753 46.4684ZM416.014 44.7447L416.634 44.7293C416.634 45.286 416.573 45.7993 416.45 46.2692C416.328 46.7339 416.139 47.14 415.883 47.4872C415.628 47.8294 415.301 48.0976 414.903 48.2916C414.504 48.4806 414.027 48.5751 413.47 48.5751C413.067 48.5751 412.696 48.5164 412.359 48.3989C412.022 48.2814 411.731 48.1001 411.486 47.855C411.246 47.6098 411.06 47.2906 410.927 46.8974C410.794 46.5041 410.728 46.0342 410.728 45.4878V40.1328H412.574V45.5031C412.574 45.8044 412.61 46.0572 412.681 46.2615C412.753 46.4607 412.85 46.6216 412.972 46.7441C413.095 46.8667 413.238 46.9535 413.401 47.0046C413.565 47.0557 413.738 47.0812 413.922 47.0812C414.448 47.0812 414.862 46.9791 415.163 46.7748C415.47 46.5654 415.687 46.2845 415.814 45.9321C415.947 45.5797 416.014 45.1839 416.014 44.7447ZM421.33 41.9025V48.4219H419.484V40.1328H421.223L421.33 41.9025ZM421.001 43.9709L420.403 43.9633C420.408 43.3759 420.49 42.8371 420.648 42.3468C420.812 41.8565 421.037 41.4352 421.323 41.0828C421.614 40.7304 421.961 40.4597 422.364 40.2707C422.768 40.0766 423.217 39.9796 423.713 39.9796C424.111 39.9796 424.471 40.0358 424.793 40.1481C425.12 40.2554 425.398 40.4316 425.628 40.6767C425.863 40.9219 426.042 41.2411 426.164 41.6343C426.287 42.0225 426.348 42.5 426.348 43.0669V48.4219H424.494V43.0593C424.494 42.6609 424.435 42.3468 424.318 42.117C424.206 41.882 424.04 41.7161 423.82 41.619C423.606 41.5169 423.337 41.4658 423.016 41.4658C422.699 41.4658 422.416 41.5322 422.165 41.665C421.915 41.7978 421.703 41.9791 421.529 42.2089C421.361 42.4387 421.231 42.7043 421.139 43.0056C421.047 43.307 421.001 43.6287 421.001 43.9709ZM430.094 36.6548V48.4219H428.24V36.6548H430.094ZM435.242 40.1328L431.634 44.1318L429.658 46.1543L429.175 44.5914L430.669 42.7452L433.013 40.1328H435.242ZM433.411 48.4219L430.722 44.5302L431.887 43.2355L435.549 48.4219H433.411ZM438.391 40.1328V48.4219H436.537V40.1328H438.391ZM436.414 37.9571C436.414 37.6762 436.506 37.4439 436.69 37.26C436.879 37.071 437.14 36.9765 437.472 36.9765C437.799 36.9765 438.056 37.071 438.245 37.26C438.434 37.4439 438.529 37.6762 438.529 37.9571C438.529 38.2329 438.434 38.4627 438.245 38.6466C438.056 38.8305 437.799 38.9224 437.472 38.9224C437.14 38.9224 436.879 38.8305 436.69 38.6466C436.506 38.4627 436.414 38.2329 436.414 37.9571ZM442.244 41.9025V48.4219H440.398V40.1328H442.137L442.244 41.9025ZM441.915 43.9709L441.317 43.9633C441.323 43.3759 441.404 42.8371 441.563 42.3468C441.726 41.8565 441.951 41.4352 442.237 41.0828C442.528 40.7304 442.875 40.4597 443.279 40.2707C443.682 40.0766 444.132 39.9796 444.627 39.9796C445.025 39.9796 445.385 40.0358 445.707 40.1481C446.034 40.2554 446.312 40.4316 446.542 40.6767C446.777 40.9219 446.956 41.2411 447.078 41.6343C447.201 42.0225 447.262 42.5 447.262 43.0669V48.4219H445.408V43.0593C445.408 42.6609 445.35 42.3468 445.232 42.117C445.12 41.882 444.954 41.7161 444.734 41.619C444.52 41.5169 444.252 41.4658 443.93 41.4658C443.613 41.4658 443.33 41.5322 443.079 41.665C442.829 41.7978 442.617 41.9791 442.444 42.2089C442.275 42.4387 442.145 42.7043 442.053 43.0056C441.961 43.307 441.915 43.6287 441.915 43.9709ZM454.456 40.1328H456.134V48.192C456.134 48.9377 455.975 49.571 455.659 50.0919C455.342 50.6129 454.9 51.0087 454.333 51.2794C453.766 51.5552 453.11 51.6931 452.364 51.6931C452.048 51.6931 451.695 51.6471 451.307 51.5552C450.924 51.4632 450.551 51.3151 450.189 51.1108C449.831 50.9117 449.532 50.6486 449.292 50.3218L450.158 49.2339C450.454 49.5863 450.781 49.8442 451.139 50.0077C451.496 50.1711 451.872 50.2528 452.265 50.2528C452.689 50.2528 453.049 50.1737 453.345 50.0153C453.646 49.8621 453.879 49.6348 454.042 49.3335C454.206 49.0322 454.287 48.6645 454.287 48.2304V42.0097L454.456 40.1328ZM448.825 44.3693V44.2084C448.825 43.5802 448.902 43.0082 449.055 42.4924C449.208 41.9714 449.428 41.5245 449.714 41.1517C450 40.7738 450.347 40.4852 450.756 40.286C451.164 40.0817 451.626 39.9796 452.142 39.9796C452.679 39.9796 453.136 40.0766 453.514 40.2707C453.897 40.4648 454.216 40.7431 454.471 41.1057C454.727 41.4633 454.926 41.8923 455.069 42.3928C455.217 42.8882 455.327 43.4398 455.398 44.0475V44.5608C455.332 45.1532 455.219 45.6946 455.061 46.1849C454.903 46.6752 454.693 47.0991 454.433 47.4566C454.172 47.8141 453.851 48.0899 453.468 48.284C453.09 48.4781 452.643 48.5751 452.127 48.5751C451.621 48.5751 451.164 48.4704 450.756 48.261C450.352 48.0516 450.005 47.7579 449.714 47.38C449.428 47.0021 449.208 46.5577 449.055 46.047C448.902 45.5312 448.825 44.9719 448.825 44.3693ZM450.671 44.2084V44.3693C450.671 44.7472 450.707 45.0996 450.779 45.4265C450.855 45.7533 450.97 46.0419 451.123 46.2922C451.282 46.5373 451.481 46.7314 451.721 46.8744C451.966 47.0123 452.255 47.0812 452.587 47.0812C453.021 47.0812 453.376 46.9893 453.651 46.8054C453.932 46.6216 454.147 46.3739 454.295 46.0623C454.448 45.7457 454.555 45.3933 454.617 45.0051V43.6185C454.586 43.3172 454.522 43.0363 454.425 42.7758C454.333 42.5153 454.208 42.2881 454.05 42.094C453.891 41.8948 453.692 41.7416 453.452 41.6343C453.212 41.522 452.929 41.4658 452.602 41.4658C452.27 41.4658 451.981 41.5373 451.736 41.6803C451.491 41.8233 451.289 42.0199 451.131 42.2702C450.978 42.5205 450.863 42.8116 450.786 43.1435C450.71 43.4755 450.671 43.8305 450.671 44.2084ZM459.78 46.6446L459.772 47.9622C459.772 48.4832 459.642 49.0194 459.382 49.571C459.121 50.1226 458.777 50.5771 458.348 50.9346L457.359 50.3601C457.502 50.1302 457.633 49.8979 457.75 49.6629C457.867 49.428 457.962 49.1777 458.033 48.9122C458.105 48.6466 458.141 48.3529 458.141 48.0312V46.6446H459.78ZM470.138 46.7595V42.8065C470.138 42.5102 470.084 42.2549 469.977 42.0404C469.869 41.8259 469.706 41.6599 469.486 41.5424C469.272 41.425 469.001 41.3662 468.674 41.3662C468.373 41.3662 468.113 41.4173 467.893 41.5194C467.673 41.6216 467.502 41.7595 467.38 41.9331C467.257 42.1068 467.196 42.3034 467.196 42.523H465.357C465.357 42.1961 465.436 41.8795 465.595 41.5731C465.753 41.2666 465.983 40.9934 466.284 40.7533C466.586 40.5133 466.946 40.3243 467.364 40.1864C467.783 40.0485 468.253 39.9796 468.774 39.9796C469.397 39.9796 469.949 40.0843 470.429 40.2937C470.914 40.5031 471.294 40.8197 471.57 41.2436C471.851 41.6624 471.992 42.1885 471.992 42.8218V46.5067C471.992 46.8846 472.017 47.2242 472.068 47.5256C472.124 47.8218 472.204 48.0797 472.306 48.2993V48.4219H470.413C470.327 48.2227 470.258 47.9699 470.207 47.6634C470.161 47.3519 470.138 47.0506 470.138 46.7595ZM470.406 43.381L470.421 44.5225H469.096C468.754 44.5225 468.452 44.5557 468.192 44.6221C467.931 44.6834 467.714 44.7753 467.541 44.8979C467.367 45.0205 467.237 45.1686 467.15 45.3422C467.063 45.5159 467.02 45.7125 467.02 45.9321C467.02 46.1517 467.071 46.3534 467.173 46.5373C467.275 46.7161 467.423 46.8565 467.617 46.9586C467.816 47.0608 468.056 47.1119 468.337 47.1119C468.715 47.1119 469.045 47.0353 469.326 46.882C469.612 46.7237 469.836 46.5322 470 46.3075C470.163 46.0776 470.25 45.8606 470.26 45.6563L470.858 46.476C470.796 46.6854 470.692 46.9101 470.544 47.1502C470.396 47.3902 470.201 47.62 469.961 47.8396C469.726 48.0542 469.443 48.2304 469.111 48.3682C468.784 48.5061 468.406 48.5751 467.977 48.5751C467.436 48.5751 466.953 48.4678 466.529 48.2533C466.105 48.0337 465.773 47.7401 465.533 47.3723C465.293 46.9995 465.173 46.5782 465.173 46.1083C465.173 45.6691 465.255 45.2809 465.419 44.9438C465.587 44.6017 465.832 44.3157 466.154 44.0858C466.481 43.856 466.879 43.6824 467.349 43.5649C467.819 43.4423 468.355 43.381 468.958 43.381H470.406ZM478.909 46.4684V40.1328H480.763V48.4219H479.017L478.909 46.4684ZM479.17 44.7447L479.79 44.7293C479.79 45.286 479.729 45.7993 479.606 46.2692C479.484 46.7339 479.295 47.14 479.04 47.4872C478.784 47.8294 478.457 48.0976 478.059 48.2916C477.661 48.4806 477.183 48.5751 476.626 48.5751C476.223 48.5751 475.853 48.5164 475.516 48.3989C475.178 48.2814 474.887 48.1001 474.642 47.855C474.402 47.6098 474.216 47.2906 474.083 46.8974C473.95 46.5041 473.884 46.0342 473.884 45.4878V40.1328H475.73V45.5031C475.73 45.8044 475.766 46.0572 475.837 46.2615C475.909 46.4607 476.006 46.6216 476.128 46.7441C476.251 46.8667 476.394 46.9535 476.557 47.0046C476.721 47.0557 476.895 47.0812 477.078 47.0812C477.604 47.0812 478.018 46.9791 478.319 46.7748C478.626 46.5654 478.843 46.2845 478.971 45.9321C479.103 45.5797 479.17 45.1839 479.17 44.7447ZM486.455 40.1328V41.4811H481.782V40.1328H486.455ZM483.13 38.1027H484.977V46.1313C484.977 46.3866 485.012 46.5833 485.084 46.7212C485.161 46.854 485.265 46.9433 485.398 46.9893C485.531 47.0353 485.687 47.0582 485.865 47.0582C485.993 47.0582 486.116 47.0506 486.233 47.0353C486.351 47.0199 486.445 47.0046 486.517 46.9893L486.524 48.3989C486.371 48.4449 486.192 48.4857 485.988 48.5215C485.789 48.5572 485.559 48.5751 485.298 48.5751C484.875 48.5751 484.499 48.501 484.172 48.3529C483.845 48.1997 483.59 47.952 483.406 47.6098C483.222 47.2676 483.13 46.8131 483.13 46.2462V38.1027ZM487.344 44.3693V44.1931C487.344 43.5955 487.431 43.0414 487.604 42.5307C487.778 42.0148 488.028 41.568 488.355 41.19C488.687 40.807 489.091 40.5108 489.566 40.3014C490.046 40.0869 490.587 39.9796 491.19 39.9796C491.797 39.9796 492.339 40.0869 492.814 40.3014C493.294 40.5108 493.7 40.807 494.032 41.19C494.364 41.568 494.617 42.0148 494.79 42.5307C494.964 43.0414 495.051 43.5955 495.051 44.1931V44.3693C495.051 44.9668 494.964 45.521 494.79 46.0317C494.617 46.5424 494.364 46.9893 494.032 47.3723C493.7 47.7503 493.296 48.0465 492.821 48.261C492.346 48.4704 491.808 48.5751 491.205 48.5751C490.597 48.5751 490.053 48.4704 489.573 48.261C489.098 48.0465 488.695 47.7503 488.363 47.3723C488.031 46.9893 487.778 46.5424 487.604 46.0317C487.431 45.521 487.344 44.9668 487.344 44.3693ZM489.19 44.1931V44.3693C489.19 44.7421 489.229 45.0945 489.305 45.4265C489.382 45.7584 489.502 46.0496 489.665 46.2998C489.829 46.5501 490.038 46.7467 490.293 46.8897C490.549 47.0327 490.853 47.1042 491.205 47.1042C491.547 47.1042 491.843 47.0327 492.094 46.8897C492.349 46.7467 492.558 46.5501 492.722 46.2998C492.885 46.0496 493.005 45.7584 493.082 45.4265C493.164 45.0945 493.204 44.7421 493.204 44.3693V44.1931C493.204 43.8254 493.164 43.4781 493.082 43.1512C493.005 42.8192 492.883 42.5256 492.714 42.2702C492.551 42.0148 492.341 41.8157 492.086 41.6727C491.836 41.5245 491.537 41.4505 491.19 41.4505C490.842 41.4505 490.541 41.5245 490.286 41.6727C490.035 41.8157 489.829 42.0148 489.665 42.2702C489.502 42.5256 489.382 42.8192 489.305 43.1512C489.229 43.4781 489.19 43.8254 489.19 44.1931ZM498.429 41.9025V48.4219H496.583V40.1328H498.322L498.429 41.9025ZM498.1 43.9709L497.502 43.9633C497.507 43.3759 497.589 42.8371 497.747 42.3468C497.911 41.8565 498.136 41.4352 498.422 41.0828C498.713 40.7304 499.06 40.4597 499.463 40.2707C499.867 40.0766 500.316 39.9796 500.812 39.9796C501.21 39.9796 501.57 40.0358 501.892 40.1481C502.219 40.2554 502.497 40.4316 502.727 40.6767C502.962 40.9219 503.141 41.2411 503.263 41.6343C503.386 42.0225 503.447 42.5 503.447 43.0669V48.4219H501.593V43.0593C501.593 42.6609 501.534 42.3468 501.417 42.117C501.305 41.882 501.139 41.7161 500.919 41.619C500.704 41.5169 500.436 41.4658 500.115 41.4658C499.798 41.4658 499.514 41.5322 499.264 41.665C499.014 41.7978 498.802 41.9791 498.628 42.2089C498.46 42.4387 498.33 42.7043 498.238 43.0056C498.146 43.307 498.1 43.6287 498.1 43.9709ZM504.979 44.3693V44.1931C504.979 43.5955 505.066 43.0414 505.24 42.5307C505.413 42.0148 505.664 41.568 505.99 41.19C506.322 40.807 506.726 40.5108 507.201 40.3014C507.681 40.0869 508.222 39.9796 508.825 39.9796C509.433 39.9796 509.974 40.0869 510.449 40.3014C510.929 40.5108 511.335 40.807 511.667 41.19C511.999 41.568 512.252 42.0148 512.426 42.5307C512.599 43.0414 512.686 43.5955 512.686 44.1931V44.3693C512.686 44.9668 512.599 45.521 512.426 46.0317C512.252 46.5424 511.999 46.9893 511.667 47.3723C511.335 47.7503 510.932 48.0465 510.457 48.261C509.982 48.4704 509.443 48.5751 508.84 48.5751C508.233 48.5751 507.689 48.4704 507.209 48.261C506.734 48.0465 506.33 47.7503 505.998 47.3723C505.666 46.9893 505.413 46.5424 505.24 46.0317C505.066 45.521 504.979 44.9668 504.979 44.3693ZM506.826 44.1931V44.3693C506.826 44.7421 506.864 45.0945 506.94 45.4265C507.017 45.7584 507.137 46.0496 507.3 46.2998C507.464 46.5501 507.673 46.7467 507.929 46.8897C508.184 47.0327 508.488 47.1042 508.84 47.1042C509.183 47.1042 509.479 47.0327 509.729 46.8897C509.984 46.7467 510.194 46.5501 510.357 46.2998C510.521 46.0496 510.641 45.7584 510.717 45.4265C510.799 45.0945 510.84 44.7421 510.84 44.3693V44.1931C510.84 43.8254 510.799 43.4781 510.717 43.1512C510.641 42.8192 510.518 42.5256 510.35 42.2702C510.186 42.0148 509.977 41.8157 509.721 41.6727C509.471 41.5245 509.172 41.4505 508.825 41.4505C508.478 41.4505 508.176 41.5245 507.921 41.6727C507.671 41.8157 507.464 42.0148 507.3 42.2702C507.137 42.5256 507.017 42.8192 506.94 43.1512C506.864 43.4781 506.826 43.8254 506.826 44.1931ZM516.08 41.8182V48.4219H514.234V40.1328H515.973L516.08 41.8182ZM515.781 43.9709L515.153 43.9633C515.153 43.3912 515.224 42.8626 515.367 42.3775C515.51 41.8923 515.72 41.4709 515.996 41.1134C516.271 40.7508 516.614 40.4724 517.022 40.2784C517.436 40.0792 517.913 39.9796 518.455 39.9796C518.833 39.9796 519.177 40.0358 519.489 40.1481C519.806 40.2554 520.079 40.4265 520.309 40.6614C520.544 40.8964 520.722 41.1977 520.845 41.5654C520.973 41.9331 521.036 42.3775 521.036 42.8984V48.4219H519.19V43.0593C519.19 42.6558 519.129 42.3391 519.006 42.1093C518.889 41.8795 518.718 41.7161 518.493 41.619C518.273 41.5169 518.01 41.4658 517.704 41.4658C517.357 41.4658 517.06 41.5322 516.815 41.665C516.575 41.7978 516.379 41.9791 516.225 42.2089C516.072 42.4387 515.96 42.7043 515.888 43.0056C515.817 43.307 515.781 43.6287 515.781 43.9709ZM520.922 43.4806L520.056 43.6721C520.056 43.1716 520.125 42.6992 520.263 42.2549C520.406 41.8054 520.613 41.4122 520.883 41.0751C521.159 40.7329 521.499 40.4648 521.902 40.2707C522.306 40.0766 522.768 39.9796 523.289 39.9796C523.713 39.9796 524.091 40.0383 524.423 40.1558C524.76 40.2682 525.046 40.4469 525.281 40.6921C525.515 40.9372 525.694 41.2564 525.817 41.6497C525.939 42.0378 526.001 42.5077 526.001 43.0593V48.4219H524.147V43.0516C524.147 42.6328 524.085 42.3085 523.963 42.0787C523.845 41.8489 523.677 41.6905 523.457 41.6037C523.238 41.5118 522.975 41.4658 522.668 41.4658C522.382 41.4658 522.129 41.5194 521.91 41.6267C521.695 41.7288 521.514 41.8744 521.366 42.0634C521.218 42.2472 521.105 42.4592 521.029 42.6992C520.957 42.9392 520.922 43.1997 520.922 43.4806ZM530.306 47.5179L532.558 40.1328H534.535L531.21 49.6859C531.133 49.8902 531.034 50.1124 530.911 50.3524C530.789 50.5925 530.628 50.8197 530.429 51.0342C530.235 51.2538 529.992 51.43 529.701 51.5628C529.41 51.7007 529.057 51.7697 528.644 51.7697C528.48 51.7697 528.322 51.7544 528.169 51.7237C528.021 51.6982 527.88 51.6701 527.747 51.6394L527.74 50.2298C527.791 50.2349 527.852 50.2401 527.924 50.2452C528 50.2503 528.061 50.2528 528.107 50.2528C528.414 50.2528 528.669 50.2145 528.873 50.1379C529.078 50.0664 529.244 49.9489 529.371 49.7855C529.504 49.6221 529.617 49.4025 529.709 49.1267L530.306 47.5179ZM529.034 40.1328L531.003 46.3381L531.333 48.284L530.053 48.6134L527.043 40.1328H529.034Z" fill="#454545"/>
<rect x="599" y="54.0117" width="228.21" height="299.526" rx="10.6974" fill="url(#paint1_linear_10387_51856)"/>
<rect x="599" y="54.0117" width="228.21" height="299.526" rx="10.6974" stroke="#DDDDDD" stroke-opacity="0.2" stroke-width="1.3736"/>
<g clip-path="url(#clip2_10387_51856)">
<path d="M615.281 77.7694L613.264 75.7517L613.936 75.0794L615.281 76.4239L617.971 73.7344L618.643 74.4071L615.281 77.7694Z" fill="#39BE63"/>
<path fill-rule="evenodd" clip-rule="evenodd" d="M610.887 75.7181C610.887 72.8298 613.228 70.4883 616.117 70.4883C619.005 70.4883 621.346 72.8298 621.346 75.7181C621.346 78.6064 619.005 80.9479 616.117 80.9479C613.228 80.9479 610.887 78.6064 610.887 75.7181ZM616.117 79.997C615.555 79.997 614.998 79.8864 614.479 79.6713C613.96 79.4563 613.488 79.1411 613.091 78.7438C612.694 78.3464 612.378 77.8747 612.163 77.3556C611.948 76.8364 611.838 76.28 611.838 75.7181C611.838 75.1562 611.948 74.5998 612.163 74.0806C612.378 73.5615 612.694 73.0898 613.091 72.6924C613.488 72.2951 613.96 71.9799 614.479 71.7649C614.998 71.5498 615.555 71.4392 616.117 71.4392C617.251 71.4392 618.34 71.89 619.142 72.6924C619.945 73.4949 620.395 74.5833 620.395 75.7181C620.395 76.8529 619.945 77.9413 619.142 78.7438C618.34 79.5462 617.251 79.997 616.117 79.997Z" fill="#39BE63"/>
</g>
<path d="M638.651 75.7222V79.9816C638.493 80.191 638.245 80.4209 637.908 80.6711C637.576 80.9163 637.134 81.1282 636.583 81.307C636.031 81.4857 635.344 81.5751 634.522 81.5751C633.822 81.5751 633.181 81.4576 632.599 81.2227C632.017 80.9827 631.514 80.6328 631.09 80.1732C630.671 79.7135 630.347 79.1543 630.117 78.4954C629.887 77.8315 629.772 77.0756 629.772 76.2278V75.4541C629.772 74.6114 629.877 73.8606 630.086 73.2018C630.301 72.5378 630.607 71.976 631.006 71.5164C631.404 71.0567 631.884 70.7094 632.446 70.4745C633.013 70.2345 633.654 70.1144 634.369 70.1144C635.283 70.1144 636.039 70.2677 636.636 70.5741C637.239 70.8754 637.704 71.2942 638.031 71.8305C638.358 72.3667 638.564 72.9796 638.651 73.6691H636.767C636.705 73.2809 636.585 72.9336 636.407 72.6272C636.233 72.3208 635.983 72.0807 635.656 71.9071C635.334 71.7283 634.915 71.6389 634.4 71.6389C633.955 71.6389 633.564 71.7232 633.227 71.8918C632.89 72.0603 632.609 72.308 632.385 72.6349C632.165 72.9617 631.999 73.3601 631.887 73.83C631.774 74.2998 631.718 74.8361 631.718 75.4387V76.2278C631.718 76.8407 631.782 77.3846 631.91 77.8596C632.043 78.3345 632.231 78.7355 632.477 79.0623C632.727 79.3892 633.031 79.6369 633.388 79.8054C633.746 79.9689 634.149 80.0506 634.599 80.0506C635.038 80.0506 635.398 80.0148 635.679 79.9433C635.96 79.8667 636.182 79.7773 636.345 79.6752C636.514 79.5679 636.644 79.4658 636.736 79.3688V77.1548H634.415V75.7222H638.651ZM645.27 79.7595V75.8065C645.27 75.5102 645.217 75.2549 645.109 75.0404C645.002 74.8259 644.839 74.6599 644.619 74.5424C644.405 74.425 644.134 74.3662 643.807 74.3662C643.506 74.3662 643.245 74.4173 643.026 74.5194C642.806 74.6216 642.635 74.7595 642.512 74.9331C642.39 75.1068 642.329 75.3034 642.329 75.523H640.49C640.49 75.1961 640.569 74.8795 640.727 74.5731C640.886 74.2666 641.116 73.9934 641.417 73.7533C641.718 73.5133 642.078 73.3243 642.497 73.1864C642.916 73.0485 643.386 72.9796 643.907 72.9796C644.53 72.9796 645.081 73.0843 645.561 73.2937C646.047 73.5031 646.427 73.8197 646.703 74.2436C646.984 74.6624 647.124 75.1885 647.124 75.8218V79.5067C647.124 79.8846 647.15 80.2242 647.201 80.5256C647.257 80.8218 647.336 81.0797 647.438 81.2993V81.4219H645.546C645.459 81.2227 645.39 80.9699 645.339 80.6634C645.293 80.3519 645.27 80.0506 645.27 79.7595ZM645.538 76.381L645.554 77.5225H644.228C643.886 77.5225 643.585 77.5557 643.324 77.6221C643.064 77.6834 642.847 77.7753 642.673 77.8979C642.5 78.0205 642.369 78.1686 642.283 78.3422C642.196 78.5159 642.152 78.7125 642.152 78.9321C642.152 79.1517 642.203 79.3534 642.306 79.5373C642.408 79.7161 642.556 79.8565 642.75 79.9586C642.949 80.0608 643.189 80.1119 643.47 80.1119C643.848 80.1119 644.177 80.0353 644.458 79.882C644.744 79.7237 644.969 79.5322 645.132 79.3075C645.296 79.0776 645.383 78.8606 645.393 78.6563L645.99 79.476C645.929 79.6854 645.824 79.9101 645.676 80.1502C645.528 80.3902 645.334 80.62 645.094 80.8396C644.859 81.0542 644.576 81.2304 644.244 81.3682C643.917 81.5061 643.539 81.5751 643.11 81.5751C642.569 81.5751 642.086 81.4678 641.662 81.2533C641.238 81.0337 640.906 80.7401 640.666 80.3723C640.426 79.9995 640.306 79.5782 640.306 79.1083C640.306 78.6691 640.388 78.2809 640.551 77.9438C640.72 77.6017 640.965 77.3157 641.287 77.0858C641.613 76.856 642.012 76.6824 642.482 76.5649C642.952 76.4423 643.488 76.381 644.091 76.381H645.538ZM650.901 74.8182V81.4219H649.055V73.1328H650.794L650.901 74.8182ZM650.602 76.9709L649.974 76.9633C649.974 76.3912 650.046 75.8626 650.189 75.3775C650.332 74.8923 650.541 74.4709 650.817 74.1134C651.093 73.7508 651.435 73.4724 651.843 73.2784C652.257 73.0792 652.735 72.9796 653.276 72.9796C653.654 72.9796 653.999 73.0358 654.31 73.1481C654.627 73.2554 654.9 73.4265 655.13 73.6614C655.365 73.8964 655.544 74.1977 655.666 74.5654C655.794 74.9331 655.858 75.3775 655.858 75.8984V81.4219H654.011V76.0593C654.011 75.6558 653.95 75.3391 653.827 75.1093C653.71 74.8795 653.539 74.7161 653.314 74.619C653.095 74.5169 652.832 74.4658 652.525 74.4658C652.178 74.4658 651.882 74.5322 651.636 74.665C651.396 74.7978 651.2 74.9791 651.047 75.2089C650.893 75.4387 650.781 75.7043 650.709 76.0056C650.638 76.307 650.602 76.6287 650.602 76.9709ZM655.743 76.4806L654.877 76.6721C654.877 76.1716 654.946 75.6992 655.084 75.2549C655.227 74.8054 655.434 74.4122 655.704 74.0751C655.98 73.7329 656.32 73.4648 656.723 73.2707C657.127 73.0766 657.589 72.9796 658.11 72.9796C658.534 72.9796 658.912 73.0383 659.244 73.1558C659.581 73.2682 659.867 73.4469 660.102 73.6921C660.337 73.9372 660.515 74.2564 660.638 74.6497C660.761 75.0378 660.822 75.5077 660.822 76.0593V81.4219H658.968V76.0516C658.968 75.6328 658.907 75.3085 658.784 75.0787C658.667 74.8489 658.498 74.6905 658.278 74.6037C658.059 74.5118 657.796 74.4658 657.489 74.4658C657.203 74.4658 656.951 74.5194 656.731 74.6267C656.516 74.7288 656.335 74.8744 656.187 75.0634C656.039 75.2472 655.927 75.4592 655.85 75.6992C655.778 75.9392 655.743 76.1997 655.743 76.4806ZM664.698 73.1328V81.4219H662.844V73.1328H664.698ZM662.722 70.9571C662.722 70.6762 662.814 70.4439 662.998 70.26C663.186 70.071 663.447 69.9765 663.779 69.9765C664.106 69.9765 664.364 70.071 664.553 70.26C664.742 70.4439 664.836 70.6762 664.836 70.9571C664.836 71.2329 664.742 71.4627 664.553 71.6466C664.364 71.8305 664.106 71.9224 663.779 71.9224C663.447 71.9224 663.186 71.8305 662.998 71.6466C662.814 71.4627 662.722 71.2329 662.722 70.9571ZM669.096 81.4219H667.242V72.5966C667.242 71.9275 667.374 71.3632 667.64 70.9035C667.911 70.4439 668.296 70.094 668.797 69.854C669.302 69.6139 669.903 69.4939 670.597 69.4939C671.006 69.4939 671.399 69.5373 671.777 69.6241C672.16 69.711 672.556 69.8208 672.964 69.9536L672.681 71.4551C672.42 71.3683 672.132 71.2865 671.815 71.2099C671.499 71.1282 671.133 71.0874 670.72 71.0874C670.163 71.0874 669.752 71.215 669.486 71.4704C669.226 71.7207 669.096 72.096 669.096 72.5966V81.4219ZM670.758 73.1328V74.4811H665.97V73.1328H670.758ZM673.838 73.1328V81.4219H671.991V73.1328H673.838ZM679.285 80.1042C679.586 80.1042 679.857 80.0455 680.097 79.928C680.342 79.8054 680.538 79.6369 680.686 79.4224C680.84 79.2079 680.924 78.9602 680.939 78.6793H682.678C682.668 79.2155 682.51 79.7033 682.203 80.1425C681.897 80.5817 681.491 80.9316 680.985 81.192C680.48 81.4474 679.92 81.5751 679.308 81.5751C678.674 81.5751 678.123 81.4678 677.653 81.2533C677.183 81.0337 676.792 80.7324 676.481 80.3494C676.169 79.9663 675.934 79.5245 675.776 79.024C675.623 78.5235 675.546 77.9873 675.546 77.4152V77.1471C675.546 76.5751 675.623 76.0388 675.776 75.5383C675.934 75.0327 676.169 74.5884 676.481 74.2053C676.792 73.8223 677.183 73.5235 677.653 73.309C678.123 73.0894 678.672 72.9796 679.3 72.9796C679.964 72.9796 680.546 73.1124 681.047 73.378C681.547 73.6384 681.94 74.0036 682.226 74.4735C682.517 74.9382 682.668 75.4796 682.678 76.0976H680.939C680.924 75.7911 680.847 75.5153 680.709 75.2702C680.577 75.0199 680.388 74.8208 680.143 74.6727C679.903 74.5245 679.614 74.4505 679.277 74.4505C678.904 74.4505 678.595 74.5271 678.35 74.6803C678.105 74.8284 677.913 75.0327 677.775 75.2932C677.637 75.5485 677.538 75.8371 677.477 76.1589C677.42 76.4755 677.392 76.8049 677.392 77.1471V77.4152C677.392 77.7574 677.42 78.0894 677.477 78.4112C677.533 78.7329 677.63 79.0215 677.768 79.2768C677.911 79.5271 678.105 79.7288 678.35 79.882C678.595 80.0302 678.907 80.1042 679.285 80.1042ZM688.769 79.7595V75.8065C688.769 75.5102 688.715 75.2549 688.608 75.0404C688.501 74.8259 688.337 74.6599 688.118 74.5424C687.903 74.425 687.632 74.3662 687.305 74.3662C687.004 74.3662 686.744 74.4173 686.524 74.5194C686.304 74.6216 686.133 74.7595 686.011 74.9331C685.888 75.1068 685.827 75.3034 685.827 75.523H683.988C683.988 75.1961 684.067 74.8795 684.226 74.5731C684.384 74.2666 684.614 73.9934 684.915 73.7533C685.217 73.5133 685.577 73.3243 685.995 73.1864C686.414 73.0485 686.884 72.9796 687.405 72.9796C688.028 72.9796 688.58 73.0843 689.06 73.2937C689.545 73.5031 689.925 73.8197 690.201 74.2436C690.482 74.6624 690.623 75.1885 690.623 75.8218V79.5067C690.623 79.8846 690.648 80.2242 690.699 80.5256C690.755 80.8218 690.835 81.0797 690.937 81.2993V81.4219H689.044C688.958 81.2227 688.889 80.9699 688.838 80.6634C688.792 80.3519 688.769 80.0506 688.769 79.7595ZM689.037 76.381L689.052 77.5225H687.727C687.385 77.5225 687.083 77.5557 686.823 77.6221C686.562 77.6834 686.345 77.7753 686.172 77.8979C685.998 78.0205 685.868 78.1686 685.781 78.3422C685.694 78.5159 685.651 78.7125 685.651 78.9321C685.651 79.1517 685.702 79.3534 685.804 79.5373C685.906 79.7161 686.054 79.8565 686.248 79.9586C686.447 80.0608 686.687 80.1119 686.968 80.1119C687.346 80.1119 687.676 80.0353 687.957 79.882C688.243 79.7237 688.467 79.5322 688.631 79.3075C688.794 79.0776 688.881 78.8606 688.891 78.6563L689.489 79.476C689.428 79.6854 689.323 79.9101 689.175 80.1502C689.027 80.3902 688.833 80.62 688.592 80.8396C688.358 81.0542 688.074 81.2304 687.742 81.3682C687.415 81.5061 687.037 81.5751 686.608 81.5751C686.067 81.5751 685.584 81.4678 685.16 81.2533C684.737 81.0337 684.405 80.7401 684.165 80.3723C683.924 79.9995 683.804 79.5782 683.804 79.1083C683.804 78.6691 683.886 78.2809 684.05 77.9438C684.218 77.6017 684.463 77.3157 684.785 77.0858C685.112 76.856 685.51 76.6824 685.98 76.5649C686.45 76.4423 686.986 76.381 687.589 76.381H689.037ZM696.353 73.1328V74.4811H691.68V73.1328H696.353ZM693.028 71.1027H694.874V79.1313C694.874 79.3866 694.91 79.5833 694.982 79.7212C695.058 79.854 695.163 79.9433 695.296 79.9893C695.429 80.0353 695.584 80.0582 695.763 80.0582C695.891 80.0582 696.013 80.0506 696.131 80.0353C696.248 80.0199 696.343 80.0046 696.414 79.9893L696.422 81.3989C696.269 81.4449 696.09 81.4857 695.886 81.5215C695.686 81.5572 695.457 81.5751 695.196 81.5751C694.772 81.5751 694.397 81.501 694.07 81.3529C693.743 81.1997 693.488 80.952 693.304 80.6098C693.12 80.2676 693.028 79.8131 693.028 79.2462V71.1027ZM699.754 73.1328V81.4219H697.9V73.1328H699.754ZM697.778 70.9571C697.778 70.6762 697.87 70.4439 698.054 70.26C698.243 70.071 698.503 69.9765 698.835 69.9765C699.162 69.9765 699.42 70.071 699.609 70.26C699.798 70.4439 699.892 70.6762 699.892 70.9571C699.892 71.2329 699.798 71.4627 699.609 71.6466C699.42 71.8305 699.162 71.9224 698.835 71.9224C698.503 71.9224 698.243 71.8305 698.054 71.6466C697.87 71.4627 697.778 71.2329 697.778 70.9571ZM701.424 77.3693V77.1931C701.424 76.5955 701.511 76.0414 701.685 75.5307C701.859 75.0148 702.109 74.568 702.436 74.19C702.768 73.807 703.171 73.5108 703.646 73.3014C704.126 73.0869 704.668 72.9796 705.27 72.9796C705.878 72.9796 706.419 73.0869 706.894 73.3014C707.374 73.5108 707.78 73.807 708.112 74.19C708.444 74.568 708.697 75.0148 708.871 75.5307C709.044 76.0414 709.131 76.5955 709.131 77.1931V77.3693C709.131 77.9668 709.044 78.521 708.871 79.0317C708.697 79.5424 708.444 79.9893 708.112 80.3723C707.78 80.7503 707.377 81.0465 706.902 81.261C706.427 81.4704 705.888 81.5751 705.286 81.5751C704.678 81.5751 704.134 81.4704 703.654 81.261C703.179 81.0465 702.775 80.7503 702.443 80.3723C702.111 79.9893 701.859 79.5424 701.685 79.0317C701.511 78.521 701.424 77.9668 701.424 77.3693ZM703.271 77.1931V77.3693C703.271 77.7421 703.309 78.0945 703.386 78.4265C703.462 78.7584 703.582 79.0496 703.746 79.2998C703.909 79.5501 704.119 79.7467 704.374 79.8897C704.629 80.0327 704.933 80.1042 705.286 80.1042C705.628 80.1042 705.924 80.0327 706.174 79.8897C706.43 79.7467 706.639 79.5501 706.802 79.2998C706.966 79.0496 707.086 78.7584 707.162 78.4265C707.244 78.0945 707.285 77.7421 707.285 77.3693V77.1931C707.285 76.8254 707.244 76.4781 707.162 76.1512C707.086 75.8192 706.963 75.5256 706.795 75.2702C706.631 75.0148 706.422 74.8157 706.167 74.6727C705.916 74.5245 705.617 74.4505 705.27 74.4505C704.923 74.4505 704.622 74.5245 704.366 74.6727C704.116 74.8157 703.909 75.0148 703.746 75.2702C703.582 75.5256 703.462 75.8192 703.386 76.1512C703.309 76.4781 703.271 76.8254 703.271 77.1931ZM712.51 74.9025V81.4219H710.663V73.1328H712.402L712.51 74.9025ZM712.18 76.9709L711.583 76.9633C711.588 76.3759 711.67 75.8371 711.828 75.3468C711.991 74.8565 712.216 74.4352 712.502 74.0828C712.793 73.7304 713.14 73.4597 713.544 73.2707C713.947 73.0766 714.397 72.9796 714.892 72.9796C715.291 72.9796 715.651 73.0358 715.972 73.1481C716.299 73.2554 716.578 73.4316 716.807 73.6767C717.042 73.9219 717.221 74.2411 717.344 74.6343C717.466 75.0225 717.528 75.5 717.528 76.0669V81.4219H715.674V76.0593C715.674 75.6609 715.615 75.3468 715.497 75.117C715.385 74.882 715.219 74.7161 714.999 74.619C714.785 74.5169 714.517 74.4658 714.195 74.4658C713.878 74.4658 713.595 74.5322 713.345 74.665C713.094 74.7978 712.883 74.9791 712.709 75.2089C712.54 75.4387 712.41 75.7043 712.318 76.0056C712.226 76.307 712.18 76.6287 712.18 76.9709Z" fill="#454545"/>
<rect x="122.341" y="58.5176" width="228.21" height="299.526" rx="10.6974" fill="url(#paint2_linear_10387_51856)"/>
<rect x="122.341" y="58.5176" width="228.21" height="299.526" rx="10.6974" stroke="#DDDDDD" stroke-opacity="0.2" stroke-width="1.3736"/>
<g clip-path="url(#clip3_10387_51856)">
<path d="M138.62 82.2733L136.603 80.2556L137.275 79.5833L138.62 80.9278L141.309 78.2383L141.982 78.911L138.62 82.2733Z" fill="#39BE63"/>
<path fill-rule="evenodd" clip-rule="evenodd" d="M134.226 80.222C134.226 77.3337 136.568 74.9922 139.456 74.9922C142.344 74.9922 144.686 77.3337 144.686 80.222C144.686 83.1103 142.344 85.4518 139.456 85.4518C136.568 85.4518 134.226 83.1103 134.226 80.222ZM139.456 84.5009C138.894 84.5009 138.338 84.3903 137.818 84.1752C137.299 83.9602 136.828 83.645 136.43 83.2477C136.033 82.8503 135.718 82.3786 135.503 81.8595C135.288 81.3403 135.177 80.7839 135.177 80.222C135.177 79.6601 135.288 79.1037 135.503 78.5845C135.718 78.0654 136.033 77.5937 136.43 77.1963C136.828 76.799 137.299 76.4838 137.818 76.2688C138.338 76.0537 138.894 75.9431 139.456 75.9431C140.591 75.9431 141.679 76.3939 142.482 77.1963C143.284 77.9988 143.735 79.0872 143.735 80.222C143.735 81.3569 143.284 82.4452 142.482 83.2477C141.679 84.0501 140.591 84.5009 139.456 84.5009Z" fill="#39BE63"/>
</g>
<path d="M153.427 74.7735H157.373C158.22 74.7735 158.943 74.9012 159.541 75.1566C160.138 75.4119 160.595 75.7899 160.912 76.2904C161.234 76.7858 161.395 77.3986 161.395 78.129C161.395 78.6857 161.292 79.176 161.088 79.5999C160.884 80.0238 160.595 80.3813 160.222 80.6724C159.85 80.9584 159.405 81.1806 158.889 81.3389L158.307 81.6223H154.76L154.745 80.0978H157.403C157.863 80.0978 158.246 80.0161 158.552 79.8527C158.859 79.6892 159.089 79.4671 159.242 79.1862C159.4 78.9002 159.479 78.5784 159.479 78.2209C159.479 77.8328 159.403 77.4957 159.25 77.2097C159.101 76.9186 158.872 76.6964 158.56 76.5432C158.249 76.3848 157.853 76.3057 157.373 76.3057H155.35V85.9277H153.427V74.7735ZM159.793 85.9277L157.173 80.9175L159.188 80.9099L161.847 85.8281V85.9277H159.793ZM166.78 86.081C166.167 86.081 165.613 85.9814 165.118 85.7822C164.627 85.5779 164.209 85.2944 163.861 84.9318C163.519 84.5692 163.256 84.1428 163.072 83.6525C162.888 83.1622 162.797 82.6336 162.797 82.0667V81.7602C162.797 81.1116 162.891 80.5243 163.08 79.9982C163.269 79.4722 163.532 79.0227 163.869 78.6499C164.206 78.272 164.604 77.9834 165.064 77.7842C165.524 77.5851 166.022 77.4855 166.558 77.4855C167.15 77.4855 167.669 77.5851 168.113 77.7842C168.557 77.9834 168.925 78.2643 169.216 78.6269C169.513 78.9844 169.732 79.4109 169.875 79.9063C170.023 80.4017 170.097 80.9482 170.097 81.5457V82.3348H163.693V81.0095H168.274V80.8639C168.264 80.5319 168.197 80.2204 168.075 79.9293C167.957 79.6382 167.776 79.4032 167.531 79.2245C167.286 79.0457 166.959 78.9563 166.55 78.9563C166.244 78.9563 165.971 79.0227 165.731 79.1555C165.496 79.2832 165.299 79.4696 165.141 79.7148C164.982 79.9599 164.86 80.2561 164.773 80.6034C164.691 80.9456 164.65 81.3312 164.65 81.7602V82.0667C164.65 82.4293 164.699 82.7664 164.796 83.0779C164.898 83.3843 165.046 83.6525 165.24 83.8823C165.434 84.1121 165.669 84.2934 165.945 84.4262C166.221 84.5539 166.535 84.6177 166.887 84.6177C167.332 84.6177 167.728 84.5283 168.075 84.3496C168.422 84.1708 168.723 83.918 168.979 83.5912L169.952 84.5335C169.773 84.7939 169.541 85.0442 169.255 85.2842C168.969 85.5192 168.619 85.7107 168.205 85.8588C167.796 86.0069 167.322 86.081 166.78 86.081ZM174.035 85.9277H172.189V76.8419C172.189 76.224 172.304 75.7056 172.533 75.2868C172.768 74.8629 173.103 74.5437 173.537 74.3292C173.971 74.1096 174.484 73.9998 175.077 73.9998C175.261 73.9998 175.442 74.0125 175.621 74.0381C175.8 74.0585 175.973 74.0917 176.142 74.1377L176.096 75.5626C175.994 75.537 175.881 75.5192 175.759 75.509C175.641 75.4987 175.514 75.4936 175.376 75.4936C175.095 75.4936 174.852 75.5473 174.648 75.6545C174.449 75.7567 174.295 75.9073 174.188 76.1065C174.086 76.3057 174.035 76.5508 174.035 76.8419V85.9277ZM175.743 77.6387V78.987H170.917V77.6387H175.743ZM180.554 86.081C179.942 86.081 179.387 85.9814 178.892 85.7822C178.402 85.5779 177.983 85.2944 177.636 84.9318C177.293 84.5692 177.03 84.1428 176.847 83.6525C176.663 83.1622 176.571 82.6336 176.571 82.0667V81.7602C176.571 81.1116 176.665 80.5243 176.854 79.9982C177.043 79.4722 177.306 79.0227 177.643 78.6499C177.98 78.272 178.379 77.9834 178.838 77.7842C179.298 77.5851 179.796 77.4855 180.332 77.4855C180.925 77.4855 181.443 77.5851 181.887 77.7842C182.332 77.9834 182.699 78.2643 182.991 78.6269C183.287 78.9844 183.506 79.4109 183.649 79.9063C183.797 80.4017 183.872 80.9482 183.872 81.5457V82.3348H177.467V81.0095H182.048V80.8639C182.038 80.5319 181.972 80.2204 181.849 79.9293C181.732 79.6382 181.55 79.4032 181.305 79.2245C181.06 79.0457 180.733 78.9563 180.325 78.9563C180.018 78.9563 179.745 79.0227 179.505 79.1555C179.27 79.2832 179.073 79.4696 178.915 79.7148C178.757 79.9599 178.634 80.2561 178.547 80.6034C178.466 80.9456 178.425 81.3312 178.425 81.7602V82.0667C178.425 82.4293 178.473 82.7664 178.57 83.0779C178.672 83.3843 178.82 83.6525 179.015 83.8823C179.209 84.1121 179.444 84.2934 179.719 84.4262C179.995 84.5539 180.309 84.6177 180.662 84.6177C181.106 84.6177 181.502 84.5283 181.849 84.3496C182.196 84.1708 182.498 83.918 182.753 83.5912L183.726 84.5335C183.547 84.7939 183.315 85.0442 183.029 85.2842C182.743 85.5192 182.393 85.7107 181.979 85.8588C181.571 86.0069 181.096 86.081 180.554 86.081ZM187.166 79.2168V85.9277H185.319V77.6387H187.081L187.166 79.2168ZM189.701 77.5851L189.686 79.3011C189.574 79.2807 189.451 79.2653 189.318 79.2551C189.191 79.2449 189.063 79.2398 188.935 79.2398C188.619 79.2398 188.34 79.2858 188.1 79.3777C187.86 79.4645 187.659 79.5922 187.495 79.7607C187.337 79.9242 187.214 80.1234 187.127 80.3583C187.041 80.5932 186.99 80.8562 186.974 81.1474L186.553 81.178C186.553 80.6571 186.604 80.1744 186.706 79.7301C186.808 79.2858 186.961 78.8951 187.166 78.558C187.375 78.2209 187.636 77.9579 187.947 77.7689C188.264 77.5799 188.629 77.4855 189.043 77.4855C189.155 77.4855 189.275 77.4957 189.403 77.5161C189.535 77.5365 189.635 77.5595 189.701 77.5851ZM192.712 79.2168V85.9277H190.866V77.6387H192.628L192.712 79.2168ZM195.248 77.5851L195.233 79.3011C195.12 79.2807 194.998 79.2653 194.865 79.2551C194.737 79.2449 194.61 79.2398 194.482 79.2398C194.165 79.2398 193.887 79.2858 193.647 79.3777C193.407 79.4645 193.205 79.5922 193.042 79.7607C192.883 79.9242 192.761 80.1234 192.674 80.3583C192.587 80.5932 192.536 80.8562 192.521 81.1474L192.099 81.178C192.099 80.6571 192.15 80.1744 192.253 79.7301C192.355 79.2858 192.508 78.8951 192.712 78.558C192.922 78.2209 193.182 77.9579 193.494 77.7689C193.81 77.5799 194.175 77.4855 194.589 77.4855C194.701 77.4855 194.821 77.4957 194.949 77.5161C195.082 77.5365 195.182 77.5595 195.248 77.5851ZM200.802 84.2653V80.3123C200.802 80.0161 200.748 79.7607 200.641 79.5462C200.534 79.3317 200.371 79.1657 200.151 79.0483C199.936 78.9308 199.666 78.8721 199.339 78.8721C199.038 78.8721 198.777 78.9231 198.557 79.0253C198.338 79.1274 198.167 79.2653 198.044 79.439C197.922 79.6126 197.86 79.8093 197.86 80.0289H196.022C196.022 79.702 196.101 79.3854 196.259 79.0789C196.417 78.7725 196.647 78.4992 196.949 78.2592C197.25 78.0192 197.61 77.8302 198.029 77.6923C198.448 77.5544 198.917 77.4855 199.438 77.4855C200.062 77.4855 200.613 77.5902 201.093 77.7996C201.578 78.009 201.959 78.3256 202.235 78.7495C202.516 79.1683 202.656 79.6943 202.656 80.3276V84.0125C202.656 84.3905 202.682 84.7301 202.733 85.0314C202.789 85.3276 202.868 85.5855 202.97 85.8052V85.9277H201.078C200.991 85.7286 200.922 85.4757 200.871 85.1693C200.825 84.8578 200.802 84.5564 200.802 84.2653ZM201.07 80.8869L201.086 82.0284H199.76C199.418 82.0284 199.117 82.0616 198.856 82.1279C198.596 82.1892 198.379 82.2812 198.205 82.4037C198.031 82.5263 197.901 82.6744 197.814 82.8481C197.728 83.0217 197.684 83.2183 197.684 83.438C197.684 83.6576 197.735 83.8593 197.837 84.0432C197.939 84.2219 198.088 84.3624 198.282 84.4645C198.481 84.5667 198.721 84.6177 199.002 84.6177C199.38 84.6177 199.709 84.5411 199.99 84.3879C200.276 84.2296 200.501 84.0381 200.664 83.8133C200.828 83.5835 200.914 83.3665 200.925 83.1622L201.522 83.9819C201.461 84.1913 201.356 84.416 201.208 84.656C201.06 84.8961 200.866 85.1259 200.626 85.3455C200.391 85.56 200.107 85.7362 199.776 85.8741C199.449 86.012 199.071 86.081 198.642 86.081C198.1 86.081 197.618 85.9737 197.194 85.7592C196.77 85.5396 196.438 85.2459 196.198 84.8782C195.958 84.5054 195.838 84.084 195.838 83.6142C195.838 83.1749 195.92 82.7868 196.083 82.4497C196.252 82.1075 196.497 81.8215 196.818 81.5917C197.145 81.3619 197.544 81.1882 198.014 81.0707C198.483 80.9482 199.02 80.8869 199.622 80.8869H201.07ZM206.563 74.1606V85.9277H204.709V74.1606H206.563ZM217.166 84.2653V80.3123C217.166 80.0161 217.112 79.7607 217.005 79.5462C216.898 79.3317 216.734 79.1657 216.515 79.0483C216.3 78.9308 216.029 78.8721 215.702 78.8721C215.401 78.8721 215.141 78.9231 214.921 79.0253C214.701 79.1274 214.53 79.2653 214.408 79.439C214.285 79.6126 214.224 79.8093 214.224 80.0289H212.385C212.385 79.702 212.464 79.3854 212.623 79.0789C212.781 78.7725 213.011 78.4992 213.312 78.2592C213.614 78.0192 213.974 77.8302 214.392 77.6923C214.811 77.5544 215.281 77.4855 215.802 77.4855C216.425 77.4855 216.977 77.5902 217.457 77.7996C217.942 78.009 218.322 78.3256 218.598 78.7495C218.879 79.1683 219.02 79.6943 219.02 80.3276V84.0125C219.02 84.3905 219.045 84.7301 219.096 85.0314C219.152 85.3276 219.232 85.5855 219.334 85.8052V85.9277H217.441C217.355 85.7286 217.286 85.4757 217.235 85.1693C217.189 84.8578 217.166 84.5564 217.166 84.2653ZM217.434 80.8869L217.449 82.0284H216.124C215.782 82.0284 215.48 82.0616 215.22 82.1279C214.959 82.1892 214.742 82.2812 214.569 82.4037C214.395 82.5263 214.265 82.6744 214.178 82.8481C214.091 83.0217 214.048 83.2183 214.048 83.438C214.048 83.6576 214.099 83.8593 214.201 84.0432C214.303 84.2219 214.451 84.3624 214.645 84.4645C214.844 84.5667 215.084 84.6177 215.365 84.6177C215.743 84.6177 216.073 84.5411 216.354 84.3879C216.64 84.2296 216.864 84.0381 217.028 83.8133C217.191 83.5835 217.278 83.3665 217.288 83.1622L217.886 83.9819C217.825 84.1913 217.72 84.416 217.572 84.656C217.424 84.8961 217.23 85.1259 216.989 85.3455C216.755 85.56 216.471 85.7362 216.139 85.8741C215.812 86.012 215.434 86.081 215.005 86.081C214.464 86.081 213.981 85.9737 213.557 85.7592C213.134 85.5396 212.802 85.2459 212.561 84.8782C212.321 84.5054 212.201 84.084 212.201 83.6142C212.201 83.1749 212.283 82.7868 212.447 82.4497C212.615 82.1075 212.86 81.8215 213.182 81.5917C213.509 81.3619 213.907 81.1882 214.377 81.0707C214.847 80.9482 215.383 80.8869 215.986 80.8869H217.434ZM222.781 79.4083V85.9277H220.935V77.6387H222.674L222.781 79.4083ZM222.452 81.4768L221.854 81.4691C221.859 80.8818 221.941 80.343 222.099 79.8527C222.263 79.3624 222.487 78.941 222.773 78.5886C223.065 78.2362 223.412 77.9655 223.815 77.7766C224.219 77.5825 224.668 77.4855 225.164 77.4855C225.562 77.4855 225.922 77.5416 226.244 77.654C226.571 77.7613 226.849 77.9375 227.079 78.1826C227.314 78.4277 227.493 78.7469 227.615 79.1402C227.738 79.5284 227.799 80.0059 227.799 80.5728V85.9277H225.945V80.5651C225.945 80.1668 225.886 79.8527 225.769 79.6228C225.656 79.3879 225.49 79.2219 225.271 79.1249C225.056 79.0227 224.788 78.9717 224.466 78.9717C224.15 78.9717 223.866 79.0381 223.616 79.1709C223.366 79.3036 223.154 79.4849 222.98 79.7148C222.812 79.9446 222.682 80.2102 222.59 80.5115C222.498 80.8128 222.452 81.1346 222.452 81.4768ZM234.74 84.2117V74.1606H236.594V85.9277H234.916L234.74 84.2117ZM229.346 81.8751V81.7143C229.346 81.0861 229.421 80.5141 229.569 79.9982C229.717 79.4773 229.931 79.0304 230.212 78.6576C230.493 78.2796 230.835 77.9911 231.239 77.7919C231.642 77.5876 232.097 77.4855 232.602 77.4855C233.103 77.4855 233.542 77.5825 233.92 77.7766C234.298 77.9706 234.62 78.249 234.885 78.6116C235.151 78.9691 235.363 79.3981 235.521 79.8986C235.679 80.394 235.792 80.9456 235.858 81.5534V82.0667C235.792 82.6591 235.679 83.2005 235.521 83.6908C235.363 84.1811 235.151 84.605 234.885 84.9625C234.62 85.32 234.295 85.5958 233.912 85.7898C233.534 85.9839 233.093 86.081 232.587 86.081C232.086 86.081 231.634 85.9763 231.231 85.7669C230.833 85.5575 230.493 85.2638 230.212 84.8859C229.931 84.5079 229.717 84.0636 229.569 83.5529C229.421 83.037 229.346 82.4778 229.346 81.8751ZM231.193 81.7143V81.8751C231.193 82.2531 231.226 82.6055 231.292 82.9323C231.364 83.2592 231.474 83.5478 231.622 83.798C231.77 84.0432 231.961 84.2372 232.196 84.3802C232.436 84.5181 232.722 84.5871 233.054 84.5871C233.473 84.5871 233.818 84.4952 234.089 84.3113C234.359 84.1274 234.571 83.8797 234.724 83.5682C234.883 83.2515 234.99 82.8991 235.046 82.511V81.1244C235.015 80.823 234.952 80.5421 234.855 80.2817C234.763 80.0212 234.638 79.7939 234.479 79.5999C234.321 79.4007 234.124 79.2475 233.889 79.1402C233.66 79.0278 233.386 78.9717 233.07 78.9717C232.733 78.9717 232.447 79.0432 232.212 79.1862C231.977 79.3292 231.783 79.5258 231.629 79.7761C231.481 80.0263 231.371 80.3174 231.3 80.6494C231.228 80.9814 231.193 81.3363 231.193 81.7143ZM244.408 77.6387V85.9277H242.554V77.6387H244.408ZM242.431 75.463C242.431 75.1821 242.523 74.9497 242.707 74.7659C242.896 74.5769 243.156 74.4824 243.488 74.4824C243.815 74.4824 244.073 74.5769 244.262 74.7659C244.451 74.9497 244.546 75.1821 244.546 75.463C244.546 75.7388 244.451 75.9686 244.262 76.1525C244.073 76.3363 243.815 76.4283 243.488 76.4283C243.156 76.4283 242.896 76.3363 242.707 76.1525C242.523 75.9686 242.431 75.7388 242.431 75.463ZM248.261 79.4083V85.9277H246.415V77.6387H248.154L248.261 79.4083ZM247.932 81.4768L247.334 81.4691C247.339 80.8818 247.421 80.343 247.579 79.8527C247.743 79.3624 247.967 78.941 248.253 78.5886C248.545 78.2362 248.892 77.9655 249.295 77.7766C249.699 77.5825 250.148 77.4855 250.644 77.4855C251.042 77.4855 251.402 77.5416 251.724 77.654C252.051 77.7613 252.329 77.9375 252.559 78.1826C252.794 78.4277 252.973 78.7469 253.095 79.1402C253.218 79.5284 253.279 80.0059 253.279 80.5728V85.9277H251.425V80.5651C251.425 80.1668 251.366 79.8527 251.249 79.6228C251.137 79.3879 250.971 79.2219 250.751 79.1249C250.536 79.0227 250.268 78.9717 249.947 78.9717C249.63 78.9717 249.346 79.0381 249.096 79.1709C248.846 79.3036 248.634 79.4849 248.46 79.7148C248.292 79.9446 248.162 80.2102 248.07 80.5115C247.978 80.8128 247.932 81.1346 247.932 81.4768ZM257.86 84.4645L259.89 77.6387H261.806L258.925 85.9277H257.73L257.86 84.4645ZM256.305 77.6387L258.373 84.4952L258.473 85.9277H257.278L254.382 77.6387H256.305ZM264.924 77.6387V85.9277H263.07V77.6387H264.924ZM262.947 75.463C262.947 75.1821 263.039 74.9497 263.223 74.7659C263.412 74.5769 263.672 74.4824 264.004 74.4824C264.331 74.4824 264.589 74.5769 264.778 74.7659C264.967 74.9497 265.061 75.1821 265.061 75.463C265.061 75.7388 264.967 75.9686 264.778 76.1525C264.589 76.3363 264.331 76.4283 264.004 76.4283C263.672 76.4283 263.412 76.3363 263.223 76.1525C263.039 75.9686 262.947 75.7388 262.947 75.463ZM270.746 77.6387V78.987H266.073V77.6387H270.746ZM267.421 75.6085H269.267V83.6371C269.267 83.8925 269.303 84.0891 269.374 84.227C269.451 84.3598 269.556 84.4492 269.689 84.4952C269.821 84.5411 269.977 84.5641 270.156 84.5641C270.284 84.5641 270.406 84.5564 270.524 84.5411C270.641 84.5258 270.736 84.5105 270.807 84.4952L270.815 85.9048C270.662 85.9507 270.483 85.9916 270.278 86.0273C270.079 86.0631 269.849 86.081 269.589 86.081C269.165 86.081 268.79 86.0069 268.463 85.8588C268.136 85.7056 267.881 85.4579 267.697 85.1157C267.513 84.7735 267.421 84.319 267.421 83.752V75.6085ZM276.844 84.2653V80.3123C276.844 80.0161 276.79 79.7607 276.683 79.5462C276.576 79.3317 276.412 79.1657 276.193 79.0483C275.978 78.9308 275.707 78.8721 275.381 78.8721C275.079 78.8721 274.819 78.9231 274.599 79.0253C274.38 79.1274 274.208 79.2653 274.086 79.439C273.963 79.6126 273.902 79.8093 273.902 80.0289H272.063C272.063 79.702 272.143 79.3854 272.301 79.0789C272.459 78.7725 272.689 78.4992 272.99 78.2592C273.292 78.0192 273.652 77.8302 274.071 77.6923C274.489 77.5544 274.959 77.4855 275.48 77.4855C276.103 77.4855 276.655 77.5902 277.135 77.7996C277.62 78.009 278.001 78.3256 278.276 78.7495C278.557 79.1683 278.698 79.6943 278.698 80.3276V84.0125C278.698 84.3905 278.723 84.7301 278.774 85.0314C278.831 85.3276 278.91 85.5855 279.012 85.8052V85.9277H277.12C277.033 85.7286 276.964 85.4757 276.913 85.1693C276.867 84.8578 276.844 84.5564 276.844 84.2653ZM277.112 80.8869L277.127 82.0284H275.802C275.46 82.0284 275.158 82.0616 274.898 82.1279C274.637 82.1892 274.42 82.2812 274.247 82.4037C274.073 82.5263 273.943 82.6744 273.856 82.8481C273.769 83.0217 273.726 83.2183 273.726 83.438C273.726 83.6576 273.777 83.8593 273.879 84.0432C273.981 84.2219 274.129 84.3624 274.323 84.4645C274.523 84.5667 274.763 84.6177 275.044 84.6177C275.421 84.6177 275.751 84.5411 276.032 84.3879C276.318 84.2296 276.542 84.0381 276.706 83.8133C276.869 83.5835 276.956 83.3665 276.966 83.1622L277.564 83.9819C277.503 84.1913 277.398 84.416 277.25 84.656C277.102 84.8961 276.908 85.1259 276.668 85.3455C276.433 85.56 276.149 85.7362 275.817 85.8741C275.49 86.012 275.112 86.081 274.683 86.081C274.142 86.081 273.659 85.9737 273.236 85.7592C272.812 85.5396 272.48 85.2459 272.24 84.8782C272 84.5054 271.88 84.084 271.88 83.6142C271.88 83.1749 271.961 82.7868 272.125 82.4497C272.293 82.1075 272.538 81.8215 272.86 81.5917C273.187 81.3619 273.585 81.1882 274.055 81.0707C274.525 80.9482 275.061 80.8869 275.664 80.8869H277.112ZM284.428 77.6387V78.987H279.755V77.6387H284.428ZM281.103 75.6085H282.95V83.6371C282.95 83.8925 282.985 84.0891 283.057 84.227C283.133 84.3598 283.238 84.4492 283.371 84.4952C283.504 84.5411 283.659 84.5641 283.838 84.5641C283.966 84.5641 284.088 84.5564 284.206 84.5411C284.323 84.5258 284.418 84.5105 284.489 84.4952L284.497 85.9048C284.344 85.9507 284.165 85.9916 283.961 86.0273C283.762 86.0631 283.532 86.081 283.271 86.081C282.847 86.081 282.472 86.0069 282.145 85.8588C281.818 85.7056 281.563 85.4579 281.379 85.1157C281.195 84.7735 281.103 84.319 281.103 83.752V75.6085ZM287.83 77.6387V85.9277H285.976V77.6387H287.83ZM285.853 75.463C285.853 75.1821 285.945 74.9497 286.129 74.7659C286.318 74.5769 286.578 74.4824 286.91 74.4824C287.237 74.4824 287.495 74.5769 287.684 74.7659C287.873 74.9497 287.967 75.1821 287.967 75.463C287.967 75.7388 287.873 75.9686 287.684 76.1525C287.495 76.3363 287.237 76.4283 286.91 76.4283C286.578 76.4283 286.318 76.3363 286.129 76.1525C285.945 75.9686 285.853 75.7388 285.853 75.463ZM289.5 81.8751V81.6989C289.5 81.1014 289.586 80.5473 289.76 80.0365C289.934 79.5207 290.184 79.0738 290.511 78.6959C290.843 78.3128 291.246 78.0166 291.721 77.8072C292.201 77.5927 292.743 77.4855 293.345 77.4855C293.953 77.4855 294.494 77.5927 294.969 77.8072C295.45 78.0166 295.856 78.3128 296.188 78.6959C296.519 79.0738 296.772 79.5207 296.946 80.0365C297.12 80.5473 297.206 81.1014 297.206 81.6989V81.8751C297.206 82.4727 297.12 83.0268 296.946 83.5375C296.772 84.0483 296.519 84.4952 296.188 84.8782C295.856 85.2561 295.452 85.5524 294.977 85.7669C294.502 85.9763 293.963 86.081 293.361 86.081C292.753 86.081 292.209 85.9763 291.729 85.7669C291.254 85.5524 290.85 85.2561 290.518 84.8782C290.186 84.4952 289.934 84.0483 289.76 83.5375C289.586 83.0268 289.5 82.4727 289.5 81.8751ZM291.346 81.6989V81.8751C291.346 82.248 291.384 82.6004 291.461 82.9323C291.537 83.2643 291.657 83.5554 291.821 83.8057C291.984 84.0559 292.194 84.2526 292.449 84.3956C292.704 84.5386 293.008 84.6101 293.361 84.6101C293.703 84.6101 293.999 84.5386 294.249 84.3956C294.505 84.2526 294.714 84.0559 294.877 83.8057C295.041 83.5554 295.161 83.2643 295.238 82.9323C295.319 82.6004 295.36 82.248 295.36 81.8751V81.6989C295.36 81.3312 295.319 80.9839 295.238 80.6571C295.161 80.3251 295.038 80.0314 294.87 79.7761C294.706 79.5207 294.497 79.3215 294.242 79.1785C293.991 79.0304 293.693 78.9563 293.345 78.9563C292.998 78.9563 292.697 79.0304 292.441 79.1785C292.191 79.3215 291.984 79.5207 291.821 79.7761C291.657 80.0314 291.537 80.3251 291.461 80.6571C291.384 80.9839 291.346 81.3312 291.346 81.6989ZM300.585 79.4083V85.9277H298.739V77.6387H300.478L300.585 79.4083ZM300.255 81.4768L299.658 81.4691C299.663 80.8818 299.745 80.343 299.903 79.8527C300.066 79.3624 300.291 78.941 300.577 78.5886C300.868 78.2362 301.216 77.9655 301.619 77.7766C302.023 77.5825 302.472 77.4855 302.967 77.4855C303.366 77.4855 303.726 77.5416 304.048 77.654C304.374 77.7613 304.653 77.9375 304.883 78.1826C305.118 78.4277 305.296 78.7469 305.419 79.1402C305.541 79.5284 305.603 80.0059 305.603 80.5728V85.9277H303.749V80.5651C303.749 80.1668 303.69 79.8527 303.573 79.6228C303.46 79.3879 303.294 79.2219 303.075 79.1249C302.86 79.0227 302.592 78.9717 302.27 78.9717C301.954 78.9717 301.67 79.0381 301.42 79.1709C301.17 79.3036 300.958 79.4849 300.784 79.7148C300.615 79.9446 300.485 80.2102 300.393 80.5115C300.301 80.8128 300.255 81.1346 300.255 81.4768Z" fill="#454545"/>
</g>
<defs>
<linearGradient id="paint0_linear_10387_51856" x1="475" y1="21.0117" x2="475" y2="320.538" gradientUnits="userSpaceOnUse">
<stop stop-color="#F0F0F0"/>
<stop offset="0.782213" stop-color="white"/>
<stop offset="1" stop-color="white"/>
</linearGradient>
<linearGradient id="paint1_linear_10387_51856" x1="713.105" y1="54.0117" x2="713.105" y2="353.538" gradientUnits="userSpaceOnUse">
<stop stop-color="#F0F0F0"/>
<stop offset="0.782213" stop-color="white"/>
<stop offset="1" stop-color="white"/>
</linearGradient>
<linearGradient id="paint2_linear_10387_51856" x1="236.446" y1="58.5176" x2="236.446" y2="358.044" gradientUnits="userSpaceOnUse">
<stop stop-color="#F0F0F0"/>
<stop offset="0.782213" stop-color="white"/>
<stop offset="1" stop-color="white"/>
</linearGradient>
<clipPath id="clip0_10387_51856">
<rect y="0.0117188" width="950" height="200" rx="15" fill="white"/>
</clipPath>
<clipPath id="clip1_10387_51856">
<rect width="11.4105" height="11.4105" fill="white" transform="translate(372.306 37.0117)"/>
</clipPath>
<clipPath id="clip2_10387_51856">
<rect width="11.4105" height="11.4105" fill="white" transform="translate(610.411 70.0117)"/>
</clipPath>
<clipPath id="clip3_10387_51856">
<rect width="11.4105" height="11.4105" fill="white" transform="translate(133.751 74.5176)"/>
</clipPath>
</defs>
</svg>
