<svg width="440" height="343" viewBox="0 0 440 343" fill="none" xmlns="http://www.w3.org/2000/svg">
<g clip-path="url(#clip0_10387_51955)">
<rect width="440" height="342.117" transform="translate(0 0.128906)" fill="white"/>
<rect x="260.783" y="44.3887" width="115.151" height="19.1919" fill="#BCBCBC"/>
<rect x="208.005" y="91.168" width="14.3939" height="11.9949" fill="#292929"/>
<rect x="241.591" y="94.7656" width="187.121" height="4.79798" fill="#292929"/>
<rect x="208.005" y="107.961" width="14.3939" height="11.9949" fill="#454545"/>
<rect x="241.591" y="111.559" width="187.121" height="4.79798" fill="#454545"/>
<rect x="208.005" y="124.754" width="14.3939" height="11.9949" fill="#454545"/>
<rect x="241.591" y="128.352" width="187.121" height="4.79798" fill="#454545"/>
<rect x="208.005" y="141.547" width="14.3939" height="11.9949" fill="#BCBCBC"/>
<rect x="241.591" y="145.145" width="187.121" height="4.79798" fill="#BCBCBC"/>
<rect x="208.005" y="158.34" width="14.3939" height="11.9949" fill="#BCBCBC"/>
<rect x="241.591" y="161.938" width="187.121" height="4.79798" fill="#BCBCBC"/>
<rect x="208.005" y="175.133" width="14.3939" height="11.9949" fill="#BCBCBC"/>
<rect x="241.591" y="178.73" width="187.121" height="4.79798" fill="#BCBCBC"/>
<rect x="208.005" y="191.926" width="14.3939" height="11.9949" fill="#BCBCBC"/>
<rect x="241.591" y="195.523" width="187.121" height="4.79798" fill="#BCBCBC"/>
<rect x="208.005" y="208.719" width="14.3939" height="11.9949" fill="#BCBCBC"/>
<rect x="241.591" y="212.316" width="187.121" height="4.79798" fill="#BCBCBC"/>
<rect x="208.005" y="225.512" width="14.3939" height="11.9949" fill="#BCBCBC"/>
<rect x="241.591" y="229.109" width="187.121" height="4.79798" fill="#BCBCBC"/>
<rect x="208.005" y="242.305" width="14.3939" height="11.9949" fill="#BCBCBC"/>
<rect x="241.591" y="245.902" width="187.121" height="4.79798" fill="#BCBCBC"/>
<rect x="208.005" y="259.098" width="14.3939" height="11.9949" fill="#DDDDDD"/>
<rect x="241.591" y="262.695" width="187.121" height="4.79798" fill="#DDDDDD"/>
<rect x="208.005" y="275.891" width="14.3939" height="11.9949" fill="#DDDDDD"/>
<rect x="241.591" y="279.488" width="187.121" height="4.79798" fill="#DDDDDD"/>
<rect x="208.005" y="292.684" width="14.3939" height="11.9949" fill="#DDDDDD"/>
<rect x="241.591" y="296.281" width="187.121" height="4.79798" fill="#DDDDDD"/>
<rect x="208.005" y="309.477" width="14.3939" height="11.9949" fill="#DDDDDD"/>
<rect x="241.591" y="313.074" width="187.121" height="4.79798" fill="#DDDDDD"/>
<g filter="url(#filter0_d_10387_51955)">
<path fill-rule="evenodd" clip-rule="evenodd" d="M131.063 96.4177C127.723 93.4385 126.003 89.4917 125.945 84.6473C125.916 79.1958 125.063 73.1811 124.195 67.3826L124.15 67.0582C122.286 53.6592 120.54 41.1026 129.921 38.5639C140.029 35.8753 147.345 46.1126 150.078 50.725H200.485C202.35 47.1827 210.144 34.3423 221.292 37.335C230.75 39.8479 228.932 52.597 227.013 66.0659L227.004 66.1245L226.955 66.4692C226.146 72.1741 225.311 78.0604 225.254 83.4038C225.226 88.2629 223.476 92.2243 220.164 95.2035C214.439 100.279 205.401 101.074 200.283 101.074C199.761 101.074 199.286 101.065 198.86 101.051C198.341 101.035 197.894 101.011 197.521 100.987C190.739 114.304 183.321 120.826 183.321 120.826V124.585C183.321 124.585 181.109 124.802 180.357 124.585C180.487 134.823 186.647 135.762 186.647 135.762V140.448H190.927V142.37H193.183L194.86 147.619H200.051V153.041H150.483V147.619H156.889L158.609 142.356H160.836V140.433H165.102V135.749C165.102 135.749 171.29 134.808 171.42 124.571C170.64 124.788 168.428 124.571 168.428 124.571V120.811C168.428 120.811 161.473 114.68 154.864 102.144C154.802 102.144 154.661 102.154 154.45 102.169C153.824 102.214 152.585 102.303 150.974 102.303C145.827 102.303 136.746 101.508 131.063 96.4177ZM200.615 56.0166C201.731 61.7385 203.393 62.8525 206.469 64.9137C206.899 65.202 207.357 65.5095 207.845 65.8497C206.485 77.9376 203.405 87.9734 199.906 96.0268C204.23 96.0707 212.299 95.5504 216.882 91.4291C219.138 89.405 220.237 86.7581 220.266 83.3464C220.324 77.5626 221.177 71.3733 222.073 65.3867L222.084 65.3135C223.67 54.1199 225.171 43.5356 219.991 42.1502C212.877 40.2275 206.89 49.655 205.112 52.7637V56.0166H200.615ZM146.666 54.9905C146.477 54.5997 139.725 41.1094 131.251 43.379C126.061 44.7678 127.579 55.3814 129.198 66.6449C130.066 72.6314 130.948 78.8207 130.977 84.5899C131.006 88.0162 132.163 90.6631 134.418 92.6726C139.421 97.1554 148.531 97.401 152.435 97.2422C148.676 88.9995 145.35 78.5887 143.904 65.8497C144.391 65.5106 144.848 65.2043 145.277 64.9171C148.375 62.8434 150.016 61.7441 151.134 56.0166H146.666V54.9905Z" fill="#454545"/>
<path d="M66.5585 135.474C86.8603 135.474 103.301 119.033 103.301 98.7165C103.301 78.4299 86.8603 61.9457 66.5585 61.9457C46.2284 61.9457 29.7877 78.4299 29.7877 98.7165C29.773 119.047 46.2138 135.474 66.5585 135.474Z" fill="#454545"/>
<path d="M33.2726 212.616L33.8514 224.311C33.8514 224.311 33.8553 225.221 34.4433 225.753C35.0005 226.257 35.875 226.339 35.875 226.339V240.871L20.3742 269.66L1.24539 259.521L1.26285 259.488L-10.4467 253.258C-11.5713 252.66 -12.968 253.086 -13.5667 254.211L-26.0669 277.707C-27.7125 280.8 -26.5394 284.641 -23.4464 286.286L-20.9009 287.641C-17.8079 289.287 -13.9665 288.113 -12.3209 285.02L-10.8223 282.203L28.8764 303.206L40.8783 280.519L40.8495 280.505L62.2062 240.871H71.4609L82.3634 285.161L63.0527 313.678L63.0071 313.648L55.6295 324.67C55.2144 325.291 55.1401 326.04 55.3631 326.696C55.5202 327.16 55.8255 327.577 56.2636 327.87L78.3806 342.674C81.2922 344.622 85.2322 343.842 87.1808 340.93L88.7847 338.534C90.7333 335.623 89.9527 331.683 87.0417 329.734L84.0338 327.72L109.88 289.571L109.735 289.499L97.7341 240.871V226.339C97.7341 226.339 98.9803 226.129 99.6094 225.465C100.156 224.888 100.232 224.311 100.232 224.311L104.703 166.114L159.121 133.099C159.121 133.099 160.099 132.475 160.45 131.752C160.852 130.926 160.377 129.734 160.377 129.734L157.164 115.028C157.164 115.028 157.002 114.521 156.413 114.163C155.737 113.752 154.95 114.163 154.95 114.163L97.3872 141.011H83.229C83.229 141.011 81.7253 140.973 80.2836 141.549C78.8295 142.131 78.5834 142.379 78.0906 142.876L77.9768 142.991C75.6701 145.298 67.3869 155.531 67.3869 155.531C67.3869 155.531 66.7674 156.559 65.8663 156.543C64.9782 156.528 64.4246 155.531 64.4246 155.531L54.6208 143.568C54.6208 143.568 54.0442 142.703 51.7374 141.838C49.7561 141.094 47.9889 141.549 47.9889 141.549L25.8837 146.001L25.9271 146.232L-31.1456 109.937C-37.3591 107.236 -42.5724 114.235 -43.9911 116.463C-46.5231 120.438 -50.0486 127.42 -44.4923 130.89L29.4407 177.971L33.2726 212.616Z" fill="#454545"/>
</g>
</g>
<defs>
<filter id="filter0_d_10387_51955" x="-66.4533" y="17.8802" width="314.012" height="344.872" filterUnits="userSpaceOnUse" color-interpolation-filters="sRGB">
<feFlood flood-opacity="0" result="BackgroundImageFix"/>
<feColorMatrix in="SourceAlpha" type="matrix" values="0 0 0 0 0 0 0 0 0 0 0 0 0 0 0 0 0 0 127 0" result="hardAlpha"/>
<feOffset/>
<feGaussianBlur stdDeviation="9.50324"/>
<feComposite in2="hardAlpha" operator="out"/>
<feColorMatrix type="matrix" values="0 0 0 0 0 0 0 0 0 0 0 0 0 0 0 0 0 0 0.25 0"/>
<feBlend mode="normal" in2="BackgroundImageFix" result="effect1_dropShadow_10387_51955"/>
<feBlend mode="normal" in="SourceGraphic" in2="effect1_dropShadow_10387_51955" result="shape"/>
</filter>
<clipPath id="clip0_10387_51955">
<rect width="440" height="342.117" fill="white" transform="translate(0 0.128906)"/>
</clipPath>
</defs>
</svg>
