<svg width="135" height="29" viewBox="0 0 135 29" fill="none" xmlns="http://www.w3.org/2000/svg">
<g clip-path="url(#clip0_4593_21857)">
<path d="M9.58985 18.9756C9.56059 18.9464 9.53865 18.9244 9.5167 18.9025C7.76838 17.4687 6.41508 16.9859 5.39096 16.9786C4.37415 16.9713 3.59143 17.4321 2.99159 18.0978C2.37712 18.7635 1.96016 19.6194 1.6895 20.3216C1.55782 20.6727 1.46273 20.98 1.40421 21.1921C1.38226 21.2872 1.36032 21.3603 1.34568 21.4189C1.353 21.4847 1.36032 21.5652 1.36763 21.6603C1.37495 21.8285 1.38226 22.0772 1.33105 22.3186C1.60172 22.5161 1.79191 22.6917 1.92358 22.838C1.98942 22.9111 2.04062 22.9697 2.0772 23.0209C4.22785 24.6668 6.0859 24.5205 7.47578 23.7963C8.19266 23.4232 8.79982 22.8892 9.25336 22.3479C9.71421 21.7993 9.98487 21.2726 10.0727 20.9361C10.2409 20.3143 10.4457 19.8681 10.6652 19.5462C10.3141 19.4292 10.058 19.2975 9.86783 19.1804C9.75079 19.1073 9.65569 19.0341 9.58985 18.9756Z" fill="#292929"/>
<path d="M9.58985 18.9756C9.56059 18.9464 9.53865 18.9244 9.5167 18.9025C7.76838 17.4687 6.41508 16.9859 5.39096 16.9786C4.37415 16.9713 3.59143 17.4321 2.99159 18.0978C2.37712 18.7635 1.96016 19.6194 1.6895 20.3216C1.55782 20.6727 1.46273 20.98 1.40421 21.1921C1.38226 21.2872 1.36032 21.3603 1.34568 21.4189C1.353 21.4847 1.36032 21.5652 1.36763 21.6603C1.37495 21.8285 1.38226 22.0772 1.33105 22.3186C1.60172 22.5161 1.79191 22.6917 1.92358 22.838C1.98942 22.9111 2.04062 22.9697 2.0772 23.0209C4.22785 24.6668 6.0859 24.5205 7.47578 23.7963C8.19266 23.4232 8.79982 22.8892 9.25336 22.3479C9.71421 21.7993 9.98487 21.2726 10.0727 20.9361C10.2409 20.3143 10.4457 19.8681 10.6652 19.5462C10.3141 19.4292 10.058 19.2975 9.86783 19.1804C9.75079 19.1073 9.65569 19.0341 9.58985 18.9756Z" stroke="#292929" stroke-width="1.17789"/>
<path d="M9.58985 18.9756C9.56059 18.9464 9.53865 18.9244 9.5167 18.9025C7.76838 17.4687 6.41508 16.9859 5.39096 16.9786C4.37415 16.9713 3.59143 17.4321 2.99159 18.0978C2.37712 18.7635 1.96016 19.6194 1.6895 20.3216C1.55782 20.6727 1.46273 20.98 1.40421 21.1921C1.38226 21.2872 1.36032 21.3603 1.34568 21.4189C1.353 21.4847 1.36032 21.5652 1.36763 21.6603C1.37495 21.8285 1.38226 22.0772 1.33105 22.3186C1.60172 22.5161 1.79191 22.6917 1.92358 22.838C1.98942 22.9111 2.04062 22.9697 2.0772 23.0209C4.22785 24.6668 6.0859 24.5205 7.47578 23.7963C8.19266 23.4232 8.79982 22.8892 9.25336 22.3479C9.71421 21.7993 9.98487 21.2726 10.0727 20.9361C10.2409 20.3143 10.4457 19.8681 10.6652 19.5462C10.3141 19.4292 10.058 19.2975 9.86783 19.1804C9.75079 19.1073 9.65569 19.0341 9.58985 18.9756Z" stroke="white" stroke-width="0.441708"/>
<path d="M2.71472 5.12767C6.5698 4.24254 9.10815 5.66898 10.6955 7.62943C11.5075 8.6316 12.0708 9.77275 12.4146 10.8334C12.7657 11.9014 12.8755 12.8378 12.8242 13.4084C12.7218 14.6007 12.8389 15.4273 13.0437 15.9979C12.3341 15.8735 11.8074 15.8735 11.4344 15.9248C11.2369 15.9467 11.0832 15.9906 10.9735 16.0199C10.9223 16.0345 10.8784 16.0564 10.8418 16.0711C7.71096 16.8977 5.57494 16.6928 4.11922 16.0125C2.66351 15.3322 1.80032 14.1399 1.29558 12.8012C0.783519 11.4552 0.651846 9.98489 0.644531 8.82911C0.644531 8.25853 0.673792 7.77573 0.703052 7.43192C0.717683 7.26368 0.732313 7.132 0.746943 7.03691C0.746943 7.02959 0.746943 7.02228 0.746943 7.01496C0.746943 7.00765 0.754258 7.00033 0.754258 7.00033C0.798149 6.91987 0.85667 6.81014 0.915192 6.67115C1.03223 6.41512 1.17122 6.03474 1.19317 5.63241C1.7418 5.53 2.12951 5.40564 2.39285 5.2886C2.53915 5.22276 2.64157 5.17156 2.71472 5.12767Z" fill="#292929"/>
<path d="M2.71472 5.12767C6.5698 4.24254 9.10815 5.66898 10.6955 7.62943C11.5075 8.6316 12.0708 9.77275 12.4146 10.8334C12.7657 11.9014 12.8755 12.8378 12.8242 13.4084C12.7218 14.6007 12.8389 15.4273 13.0437 15.9979C12.3341 15.8735 11.8074 15.8735 11.4344 15.9248C11.2369 15.9467 11.0832 15.9906 10.9735 16.0199C10.9223 16.0345 10.8784 16.0564 10.8418 16.0711C7.71096 16.8977 5.57494 16.6928 4.11922 16.0125C2.66351 15.3322 1.80032 14.1399 1.29558 12.8012C0.783519 11.4552 0.651846 9.98489 0.644531 8.82911C0.644531 8.25853 0.673792 7.77573 0.703052 7.43192C0.717683 7.26368 0.732313 7.132 0.746943 7.03691C0.746943 7.02959 0.746943 7.02228 0.746943 7.01496C0.746943 7.00765 0.754258 7.00033 0.754258 7.00033C0.798149 6.91987 0.85667 6.81014 0.915192 6.67115C1.03223 6.41512 1.17122 6.03474 1.19317 5.63241C1.7418 5.53 2.12951 5.40564 2.39285 5.2886C2.53915 5.22276 2.64157 5.17156 2.71472 5.12767Z" stroke="#292929" stroke-width="1.17789"/>
<path d="M2.71472 5.12767C6.5698 4.24254 9.10815 5.66898 10.6955 7.62943C11.5075 8.6316 12.0708 9.77275 12.4146 10.8334C12.7657 11.9014 12.8755 12.8378 12.8242 13.4084C12.7218 14.6007 12.8389 15.4273 13.0437 15.9979C12.3341 15.8735 11.8074 15.8735 11.4344 15.9248C11.2369 15.9467 11.0832 15.9906 10.9735 16.0199C10.9223 16.0345 10.8784 16.0564 10.8418 16.0711C7.71096 16.8977 5.57494 16.6928 4.11922 16.0125C2.66351 15.3322 1.80032 14.1399 1.29558 12.8012C0.783519 11.4552 0.651846 9.98489 0.644531 8.82911C0.644531 8.25853 0.673792 7.77573 0.703052 7.43192C0.717683 7.26368 0.732313 7.132 0.746943 7.03691C0.746943 7.02959 0.746943 7.02228 0.746943 7.01496C0.746943 7.00765 0.754258 7.00033 0.754258 7.00033C0.798149 6.91987 0.85667 6.81014 0.915192 6.67115C1.03223 6.41512 1.17122 6.03474 1.19317 5.63241C1.7418 5.53 2.12951 5.40564 2.39285 5.2886C2.53915 5.22276 2.64157 5.17156 2.71472 5.12767Z" stroke="white" stroke-width="0.441708"/>
<path d="M16.7939 24.8777C21.3793 24.8777 25.0966 21.1605 25.0966 16.5751C25.0966 11.9897 21.3793 8.27246 16.7939 8.27246C12.2085 8.27246 8.49121 11.9897 8.49121 16.5751C8.49121 21.1605 12.2085 24.8777 16.7939 24.8777Z" fill="#292929"/>
<path d="M16.7939 24.8777C21.3793 24.8777 25.0966 21.1605 25.0966 16.5751C25.0966 11.9897 21.3793 8.27246 16.7939 8.27246C12.2085 8.27246 8.49121 11.9897 8.49121 16.5751C8.49121 21.1605 12.2085 24.8777 16.7939 24.8777Z" stroke="#292929" stroke-width="1.17789"/>
<path d="M16.7939 24.8777C21.3793 24.8777 25.0966 21.1605 25.0966 16.5751C25.0966 11.9897 21.3793 8.27246 16.7939 8.27246C12.2085 8.27246 8.49121 11.9897 8.49121 16.5751C8.49121 21.1605 12.2085 24.8777 16.7939 24.8777Z" stroke="white" stroke-width="0.441708"/>
<path d="M23.0642 15.9086C23.1081 16.0184 23.269 15.9159 23.2471 15.8062C22.9837 14.4676 21.7841 10.276 16.9634 9.57376C16.8244 9.55181 16.7732 9.77858 16.9122 9.8371C17.6144 10.0931 19.5895 11.0807 20.7819 12.3242C22.0547 13.6702 22.6765 14.9357 23.0642 15.9086Z" fill="white"/>
</g>
<g clip-path="url(#clip1_4593_21857)">
<path d="M119.133 4.02246H117.873C117.281 4.02246 116.806 4.46851 116.806 5.02122V6.20421H118.067C118.658 6.20421 119.133 5.75816 119.133 5.20545V4.02246Z" fill="#292929"/>
<path d="M119.133 9.25977H116.806V23.2229H119.133V9.25977Z" fill="#292929"/>
<path d="M55.7756 19.3927C54.9999 20.3333 53.8944 20.9248 52.663 20.9248C50.5976 20.9248 48.8812 19.2763 48.5128 17.0946H55.0386H59.1597C59.1888 16.8134 59.2082 16.5225 59.2082 16.2316C59.2082 12.382 56.2701 9.25 52.663 9.25C49.0558 9.25 46.1177 12.3917 46.1177 16.2413C46.1177 20.0909 49.0558 23.2229 52.663 23.2229C55.2035 23.2229 57.4143 21.6617 58.5004 19.3927H55.7756ZM52.663 11.5578C54.5344 11.5578 56.1344 12.925 56.6774 14.8062H48.6485C49.1915 12.925 50.7915 11.5578 52.663 11.5578Z" fill="#292929"/>
<path d="M107.642 23.2229C104.035 23.2229 101.097 20.0909 101.097 16.2414C101.097 12.3918 104.035 9.25977 107.642 9.25977C111.25 9.25977 114.188 12.3918 114.188 16.2414C114.188 20.0909 111.25 23.2229 107.642 23.2229ZM107.642 11.5579C105.315 11.5579 103.424 13.662 103.424 16.2414C103.424 18.8207 105.315 20.9248 107.642 20.9248C109.97 20.9248 111.861 18.8207 111.861 16.2414C111.861 13.662 109.97 11.5579 107.642 11.5579Z" fill="#292929"/>
<path d="M134.094 20.2929C133.891 20.351 133.726 20.3995 133.58 20.4383V18.596V18.1305V14.2422C133.551 12.6131 133.154 11.5368 131.253 10.2956C128.596 8.55992 124.281 9.05445 122.555 11.2944C122.032 11.9634 121.77 12.7683 121.75 13.6701L124.078 13.6991C124.087 13.2628 124.204 12.904 124.427 12.6034C125.319 11.4398 128.208 10.9938 129.935 12.1186C130.904 12.7489 131.166 13.127 131.234 13.767C130.798 13.961 129.653 14.3197 126.948 14.5718C124.815 14.7658 123.312 15.4833 122.458 16.7051C121.44 18.1693 121.789 19.7886 121.915 20.225C122.119 21.3789 123.36 23.2503 126.764 23.2503C127.055 23.2503 127.365 23.2407 127.685 23.2116C127.947 23.1922 129.77 23.0273 131.408 21.951C131.486 22.0964 131.554 22.3389 131.748 22.6298C132.126 23.2019 132.64 23.2116 133.105 23.2116C133.697 23.2116 134.172 22.8237 134.831 22.397L134.094 20.2929ZM127.51 21.0007H127.472C124.689 21.2528 124.262 20.0795 124.204 19.8565V19.808L124.155 19.6723C124.136 19.5947 123.884 18.6541 124.398 17.9269C124.95 17.1512 126.201 16.8796 127.161 16.7924C128.878 16.6372 130.235 16.4142 131.253 16.1233V18.1305V18.596V18.8772C130.187 20.8068 127.53 21.0007 127.51 21.0007Z" fill="#292929"/>
<path d="M43.6834 9.25977H43.1113C43.0919 9.25977 43.0823 9.25977 43.0629 9.25977C41.4532 9.25977 39.989 9.88035 38.8448 10.9082V9.25977H36.5176V23.2229H38.8448V21.5745V16.2414C38.8448 13.662 40.7356 11.5579 43.0629 11.5579C43.0823 11.5579 43.0919 11.5579 43.1113 11.5579H45.2446V11.5482L43.6834 9.25977Z" fill="#292929"/>
<path d="M72.5885 4.02246V5.83573V7.64901V10.9168C71.4443 9.88893 69.9801 9.26835 68.3705 9.26835C64.7633 9.26835 61.8252 12.4004 61.8252 16.2402C61.8252 20.0898 64.7633 23.2121 68.3705 23.2121C69.9801 23.2121 71.4443 22.5915 72.5885 21.5637V23.2121H74.9158V7.64901V5.83573V4.02246H72.5885ZM68.3705 20.9334C66.0433 20.9334 64.1524 18.8292 64.1524 16.2499C64.1524 13.6706 66.0433 11.5665 68.3705 11.5665C70.6977 11.5665 72.5885 13.6706 72.5885 16.2499C72.5885 18.8292 70.6977 20.9334 68.3705 20.9334Z" fill="#292929"/>
<path d="M98.4787 9.25977H96.1515V10.9179C95.0073 9.88035 93.5431 9.25977 91.9335 9.25977C88.3263 9.25977 85.3882 12.4015 85.3882 16.2704C85.3882 20.1394 88.3263 23.2811 91.9335 23.2811C93.5431 23.2811 95.0073 22.6605 96.1515 21.623V23.1842V23.2036C96.1515 23.2132 96.1515 24.4447 95.3079 25.2883C94.7261 25.8701 93.834 26.161 92.6607 26.161H87.7154L85.3882 28.4591H92.6607C94.4934 28.4591 95.9479 27.9258 96.9854 26.8786C98.4496 25.395 98.4787 23.4557 98.4787 23.1745V9.25977ZM91.9335 20.9733C89.6063 20.9733 87.7154 18.8595 87.7154 16.2704C87.7154 13.6814 89.6063 11.5676 91.9335 11.5676C94.2607 11.5676 96.1515 13.6717 96.1515 16.2704C96.1515 18.8595 94.2607 20.9733 91.9335 20.9733Z" fill="#292929"/>
</g>
<defs>
<clipPath id="clip0_4593_21857">
<rect width="25.7493" height="21.2825" fill="white" transform="translate(0 4.2373)"/>
</clipPath>
<clipPath id="clip1_4593_21857">
<rect width="99" height="25" fill="white" transform="translate(36 4)"/>
</clipPath>
</defs>
</svg>
