<svg width="26" height="29" viewBox="0 0 26 29" fill="none" xmlns="http://www.w3.org/2000/svg">
<g clip-path="url(#clip0_4750_1607)">
<path d="M9.58985 18.9756C9.56059 18.9464 9.53865 18.9244 9.5167 18.9025C7.76838 17.4687 6.41508 16.9859 5.39096 16.9786C4.37415 16.9713 3.59143 17.4321 2.99159 18.0978C2.37712 18.7635 1.96016 19.6194 1.6895 20.3216C1.55782 20.6727 1.46273 20.98 1.40421 21.1921C1.38226 21.2872 1.36032 21.3603 1.34568 21.4189C1.353 21.4847 1.36032 21.5652 1.36763 21.6603C1.37495 21.8285 1.38226 22.0772 1.33105 22.3186C1.60172 22.5161 1.79191 22.6917 1.92358 22.838C1.98942 22.9111 2.04062 22.9697 2.0772 23.0209C4.22785 24.6668 6.0859 24.5205 7.47578 23.7963C8.19266 23.4232 8.79982 22.8892 9.25336 22.3479C9.71421 21.7993 9.98487 21.2726 10.0727 20.9361C10.2409 20.3143 10.4457 19.8681 10.6652 19.5462C10.3141 19.4292 10.058 19.2975 9.86783 19.1804C9.75079 19.1073 9.65569 19.0341 9.58985 18.9756Z" fill="#454545"/>
<path d="M9.58985 18.9756C9.56059 18.9464 9.53865 18.9244 9.5167 18.9025C7.76838 17.4687 6.41508 16.9859 5.39096 16.9786C4.37415 16.9713 3.59143 17.4321 2.99159 18.0978C2.37712 18.7635 1.96016 19.6194 1.6895 20.3216C1.55782 20.6727 1.46273 20.98 1.40421 21.1921C1.38226 21.2872 1.36032 21.3603 1.34568 21.4189C1.353 21.4847 1.36032 21.5652 1.36763 21.6603C1.37495 21.8285 1.38226 22.0772 1.33105 22.3186C1.60172 22.5161 1.79191 22.6917 1.92358 22.838C1.98942 22.9111 2.04062 22.9697 2.0772 23.0209C4.22785 24.6668 6.0859 24.5205 7.47578 23.7963C8.19266 23.4232 8.79982 22.8892 9.25336 22.3479C9.71421 21.7993 9.98487 21.2726 10.0727 20.9361C10.2409 20.3143 10.4457 19.8681 10.6652 19.5462C10.3141 19.4292 10.058 19.2975 9.86783 19.1804C9.75079 19.1073 9.65569 19.0341 9.58985 18.9756Z" stroke="#454545" stroke-width="1.17789"/>
<path d="M9.58985 18.9756C9.56059 18.9464 9.53865 18.9244 9.5167 18.9025C7.76838 17.4687 6.41508 16.9859 5.39096 16.9786C4.37415 16.9713 3.59143 17.4321 2.99159 18.0978C2.37712 18.7635 1.96016 19.6194 1.6895 20.3216C1.55782 20.6727 1.46273 20.98 1.40421 21.1921C1.38226 21.2872 1.36032 21.3603 1.34568 21.4189C1.353 21.4847 1.36032 21.5652 1.36763 21.6603C1.37495 21.8285 1.38226 22.0772 1.33105 22.3186C1.60172 22.5161 1.79191 22.6917 1.92358 22.838C1.98942 22.9111 2.04062 22.9697 2.0772 23.0209C4.22785 24.6668 6.0859 24.5205 7.47578 23.7963C8.19266 23.4232 8.79982 22.8892 9.25336 22.3479C9.71421 21.7993 9.98487 21.2726 10.0727 20.9361C10.2409 20.3143 10.4457 19.8681 10.6652 19.5462C10.3141 19.4292 10.058 19.2975 9.86783 19.1804C9.75079 19.1073 9.65569 19.0341 9.58985 18.9756Z" stroke="white" stroke-width="0.441708"/>
<path d="M2.71472 5.12767C6.5698 4.24254 9.10815 5.66898 10.6955 7.62943C11.5075 8.6316 12.0708 9.77275 12.4146 10.8334C12.7657 11.9014 12.8755 12.8378 12.8242 13.4084C12.7218 14.6007 12.8389 15.4273 13.0437 15.9979C12.3341 15.8735 11.8074 15.8735 11.4344 15.9248C11.2369 15.9467 11.0832 15.9906 10.9735 16.0199C10.9223 16.0345 10.8784 16.0564 10.8418 16.0711C7.71096 16.8977 5.57494 16.6928 4.11922 16.0125C2.66351 15.3322 1.80032 14.1399 1.29558 12.8012C0.783519 11.4552 0.651846 9.98489 0.644531 8.82911C0.644531 8.25853 0.673792 7.77573 0.703052 7.43192C0.717683 7.26368 0.732313 7.132 0.746943 7.03691C0.746943 7.02959 0.746943 7.02228 0.746943 7.01496C0.746943 7.00765 0.754258 7.00033 0.754258 7.00033C0.798149 6.91987 0.85667 6.81014 0.915192 6.67115C1.03223 6.41512 1.17122 6.03474 1.19317 5.63241C1.7418 5.53 2.12951 5.40564 2.39285 5.2886C2.53915 5.22276 2.64157 5.17156 2.71472 5.12767Z" fill="#454545"/>
<path d="M2.71472 5.12767C6.5698 4.24254 9.10815 5.66898 10.6955 7.62943C11.5075 8.6316 12.0708 9.77275 12.4146 10.8334C12.7657 11.9014 12.8755 12.8378 12.8242 13.4084C12.7218 14.6007 12.8389 15.4273 13.0437 15.9979C12.3341 15.8735 11.8074 15.8735 11.4344 15.9248C11.2369 15.9467 11.0832 15.9906 10.9735 16.0199C10.9223 16.0345 10.8784 16.0564 10.8418 16.0711C7.71096 16.8977 5.57494 16.6928 4.11922 16.0125C2.66351 15.3322 1.80032 14.1399 1.29558 12.8012C0.783519 11.4552 0.651846 9.98489 0.644531 8.82911C0.644531 8.25853 0.673792 7.77573 0.703052 7.43192C0.717683 7.26368 0.732313 7.132 0.746943 7.03691C0.746943 7.02959 0.746943 7.02228 0.746943 7.01496C0.746943 7.00765 0.754258 7.00033 0.754258 7.00033C0.798149 6.91987 0.85667 6.81014 0.915192 6.67115C1.03223 6.41512 1.17122 6.03474 1.19317 5.63241C1.7418 5.53 2.12951 5.40564 2.39285 5.2886C2.53915 5.22276 2.64157 5.17156 2.71472 5.12767Z" stroke="#454545" stroke-width="1.17789"/>
<path d="M2.71472 5.12767C6.5698 4.24254 9.10815 5.66898 10.6955 7.62943C11.5075 8.6316 12.0708 9.77275 12.4146 10.8334C12.7657 11.9014 12.8755 12.8378 12.8242 13.4084C12.7218 14.6007 12.8389 15.4273 13.0437 15.9979C12.3341 15.8735 11.8074 15.8735 11.4344 15.9248C11.2369 15.9467 11.0832 15.9906 10.9735 16.0199C10.9223 16.0345 10.8784 16.0564 10.8418 16.0711C7.71096 16.8977 5.57494 16.6928 4.11922 16.0125C2.66351 15.3322 1.80032 14.1399 1.29558 12.8012C0.783519 11.4552 0.651846 9.98489 0.644531 8.82911C0.644531 8.25853 0.673792 7.77573 0.703052 7.43192C0.717683 7.26368 0.732313 7.132 0.746943 7.03691C0.746943 7.02959 0.746943 7.02228 0.746943 7.01496C0.746943 7.00765 0.754258 7.00033 0.754258 7.00033C0.798149 6.91987 0.85667 6.81014 0.915192 6.67115C1.03223 6.41512 1.17122 6.03474 1.19317 5.63241C1.7418 5.53 2.12951 5.40564 2.39285 5.2886C2.53915 5.22276 2.64157 5.17156 2.71472 5.12767Z" stroke="white" stroke-width="0.441708"/>
<path d="M16.7939 24.8777C21.3793 24.8777 25.0966 21.1605 25.0966 16.5751C25.0966 11.9897 21.3793 8.27246 16.7939 8.27246C12.2085 8.27246 8.49121 11.9897 8.49121 16.5751C8.49121 21.1605 12.2085 24.8777 16.7939 24.8777Z" fill="#454545"/>
<path d="M16.7939 24.8777C21.3793 24.8777 25.0966 21.1605 25.0966 16.5751C25.0966 11.9897 21.3793 8.27246 16.7939 8.27246C12.2085 8.27246 8.49121 11.9897 8.49121 16.5751C8.49121 21.1605 12.2085 24.8777 16.7939 24.8777Z" stroke="#454545" stroke-width="1.17789"/>
<path d="M16.7939 24.8777C21.3793 24.8777 25.0966 21.1605 25.0966 16.5751C25.0966 11.9897 21.3793 8.27246 16.7939 8.27246C12.2085 8.27246 8.49121 11.9897 8.49121 16.5751C8.49121 21.1605 12.2085 24.8777 16.7939 24.8777Z" stroke="white" stroke-width="0.441708"/>
<path d="M23.0642 15.9086C23.1081 16.0184 23.269 15.9159 23.2471 15.8062C22.9837 14.4676 21.7841 10.276 16.9634 9.57376C16.8244 9.55181 16.7732 9.77858 16.9122 9.8371C17.6144 10.0931 19.5895 11.0807 20.7819 12.3242C22.0547 13.6702 22.6765 14.9357 23.0642 15.9086Z" fill="white"/>
</g>
<defs>
<clipPath id="clip0_4750_1607">
<rect width="25.7493" height="21.2825" fill="white" transform="translate(0 4.2373)"/>
</clipPath>
</defs>
</svg>
